<svg id="Capa_1" data-name="Capa 1" xmlns="http://www.w3.org/2000/svg" viewBox="0 0 263.75 430.48"><defs><style>.cls-1{fill:#fefefe;}.cls-2{fill:#3e907e;}.cls-3{fill:#fdeed3;}.cls-4{fill:#fde5d9;}.cls-5{fill:#fefaf9;}.cls-6{fill:#356363;}.cls-7{fill:#fcc9ae;}.cls-8{fill:#f9bb9f;}.cls-9{fill:#203a40;}.cls-10{fill:#fdefd6;}.cls-11{fill:#fe9966;}.cls-12{fill:#fde5bd;}.cls-13{fill:#72ab99;}.cls-14{fill:#fddead;}.cls-15{fill:#44927d;}.cls-16{fill:#c5976c;}.cls-17{fill:#fbd298;}.cls-18{fill:#1d3c42;}.cls-19{fill:#e87850;}.cls-20{fill:#faad84;}.cls-21{fill:#fcdfab;}.cls-22{fill:#fdcf83;}.cls-23{fill:#fdcf84;}.cls-24{fill:#e7774f;}.cls-25{fill:#e8754f;}.cls-26{fill:#fda973;}.cls-27{fill:#6c947b;}.cls-28{fill:#dd7452;}.cls-29{fill:#f7b47c;}.cls-30{fill:#ba435c;}.cls-31{fill:#d97866;}.cls-32{fill:#fecf83;}.cls-33{fill:#f2a672;}.cls-34{fill:#44927e;}.cls-35{fill:#8fab80;}.cls-36{fill:#3b7c70;}.cls-37{fill:#e87851;}.cls-38{fill:#41937e;}.cls-39{fill:#3d7b6f;}.cls-40{fill:#b9464f;}.cls-41{fill:#e18c60;}.cls-42{fill:#e7754f;}.cls-43{fill:#df7250;}.cls-44{fill:#f5f1ed;}.cls-45{fill:#e6e1dd;}.cls-46{fill:#fdbd7b;}.cls-47{fill:#cc5d5f;}.cls-48{fill:#b27554;}.cls-49{fill:#e5dfd8;}.cls-50{fill:#c0c4c2;}.cls-51{fill:#dc9670;}.cls-52{fill:#686b6a;}.cls-53{fill:#43392f;}.cls-54{fill:#554034;}.cls-55{fill:#a52e58;}.cls-56{fill:#191514;}.cls-57{fill:#17110f;}</style></defs><path class="cls-1" d="M227.87,469.92c-18.88,0-37.77-.06-56.65.08-2.59,0-3.1-.51-3.09-3.11q.12-160,.07-320.1,0-52.29-.06-104.56c0-2.26.45-2.72,2.7-2.71q129.17.1,258.33,0c2.25,0,2.7.45,2.7,2.71q-.09,212.52,0,425c0,2.26-.45,2.72-2.7,2.72-29.08-.1-58.16-.07-87.24-.07-1.83-4-1-8.12-.59-12.21a3.15,3.15,0,0,1,2.22-2.41c3.39-1.22,6.46-3.26,10.35-3.14a8.16,8.16,0,0,0,8.06-6.64,30.38,30.38,0,0,1,2.73-7A63.44,63.44,0,0,0,370.12,421c.73-4.3,2.63-8.35,4.17-12.46.76-2,1.61-3.91,1-6.17a7.25,7.25,0,0,1,1-5.84c1.58-2.4,1.73-4.91,1.69-7.57-.08-4.66-.35-9.34,2.11-13.65.59-1,.46-2.44.52-3.7.17-3.13,0-6.33,2.14-9,.73-.92.49-2.19.49-3.32,0-4.42-.17-8.84.06-13.25.3-5.79-.34-11.24-3.61-16.24-1.54-2.34-1-4.69.7-7,5.61-7.86,9.89-16.46,7.69-26.32-1.63-7.37-3.35-15.08-9.46-20.58a30.22,30.22,0,0,1-6.57-8.22,17.78,17.78,0,0,0-5.6-6.52,12.56,12.56,0,0,1-4.66-5.81c-1.43-3.55-4.71-5.92-6.18-9.46a78.45,78.45,0,0,0-4-8.13c-2.76-4.63-3-9.55-3-14.9.14-7.91-.07-15.86-.16-23.79a14.17,14.17,0,0,1,1.46-7.33,9.25,9.25,0,0,0,.81-4.41c.16-5.92.09-11.85.21-17.77.1-5-3.16-8.87-6.29-12.53a54.19,54.19,0,0,0-26.25-16.85,44.08,44.08,0,0,0-12.85-1.81c-3.89,0-7.8.14-11.69,0-14-.62-26.32,4.64-37.82,11.73a34.35,34.35,0,0,0-11.57,12.26c-2,3.5-4.88,6.39-6.58,10.12-1.84,4-2.16,7.94,0,11.94a10,10,0,0,1,1.13,7.29c-.64,2.69.12,5.29,1.18,7.71a17.56,17.56,0,0,1,1.54,7.71c-.21,6.29.43,12.59-.66,18.87a12.44,12.44,0,0,0,1.64,8.33c2.18,3.93,1.69,8.28.41,12.49-.36,1.19-1.24,2.24-1.26,3.53-.13,6.94-3.74,12-8.39,16.74q-14.33,14.75-28.73,29.43a7.66,7.66,0,0,0-2.47,6.44,55,55,0,0,1,.13,9.07c-.38,5.88,2.12,10.44,5.93,14.56,2.73,3,5.94,5.47,8.23,8.84,1.18,2.59,1.11,5.34,1.1,8.1,0,3.62.08,7.25,0,10.87-.13,4.39-.21,8.74,2.72,12.45.66,5.78.25,11.58.26,17.38a2.59,2.59,0,0,1-.26,1.48c-3.3,4.5-2,9.62-2,14.55,0,15-.08,30,.05,45,0,1.52.35,3.14-.09,4.53-1.83,5.79.91,9.63,5,13.07a31.47,31.47,0,0,1,3.71,3.77C227.87,467.54,228.76,468.52,227.87,469.92Z" transform="translate(-168.13 -39.52)"/><path class="cls-2" d="M339.66,469.92h-3c-.86-1.75.54-4.22-1.76-5.51-9-.12-18-1.14-26.92.85a13.77,13.77,0,0,1-5.6.32c-10.41-2-20.94-1.28-31.44-1.43-1.72,0-3.53.33-5.1-.78,0-2.49,2-2.05,3.36-2.16,10.13-.86,20.18-2.37,30.24-3.69,10.56-1.38,21.16-2.5,31.68-4.22,2.69-.44,5.47-1.05,8,.6C340,459.22,342,464.5,339.66,469.92Z" transform="translate(-168.13 -39.52)"/><path class="cls-3" d="M356.29,245.65c2.3,3.85,5.52,7,7.38,11.26,1.5,3.41,5.92,4.56,7.76,8,2.6,5,6.53,8.83,10.33,12.85,2.58,2.74,3.93,6.36,4.76,10.09a17.21,17.21,0,0,0,.75,2.51c3,7.78,3.47,15.49-.61,23.07-2,3.63-3.08,7.68-6.17,10.72-1.47,1.45-1.13,3.48,0,5.23A22,22,0,0,1,384.29,344c-.33,3.25.06,6.56-.09,9.84-.19,3.9,1.09,8-2,11.54-.73.83-.41,2.65-.47,4a22.35,22.35,0,0,1-2,9.32c-1.83,3.73-.61,7.95-.8,12-.09,2-.08,3.85-1.55,5.62a6.1,6.1,0,0,0-1.33,4.56c1.49,6.36-2.6,11.17-4.14,16.66a23.72,23.72,0,0,0-.94,3.23c-.93,7.22-2.8,14.11-6.66,20.37a10.31,10.31,0,0,0-1.16,3.17c-1.45,6.53-4.11,8.78-10.86,8.93-3.53.07-6.21,2.41-9.37,3.44-1.23.4-1,1.89-1,3,0,3.41,0,6.82,0,10.22h-1.51c-.63-4.09-.45-8.23-.69-12.34-.1-1.77.76-3.64,2.39-3.91,4.05-.67,7.47-3.38,11.85-3.06,4,.29,5.91-1.62,6.6-5.56a13.33,13.33,0,0,1,1.19-4,61.39,61.39,0,0,0,7.29-22.25c.27-2.23,1.61-4.18,2.34-6.3,1.64-4.79,1.86-9.9,3.23-14.52,1.64-5.5,1.52-10.8,1.84-16.24a4.22,4.22,0,0,1,.3-1.85c2.68-4.81,2.66-10.12,2.93-15.38,1.83-2.59,2.13-5.52,2-8.58a52.34,52.34,0,0,1,0-7.92,29.69,29.69,0,0,0-4.86-20,4.68,4.68,0,0,1,1.1-4.9,30.45,30.45,0,0,0,7.46-13.32c1.6-5.58,2.46-11.65,0-17.61-1.63-3.9-2.83-8-4.68-11.81a3.62,3.62,0,0,0-.48-1c-4.72-4.64-8.1-10.44-12.62-15.17a108.87,108.87,0,0,1-11-14.22c-.85-1.25-1.6-2.58-1.22-4.21A.66.66,0,0,1,356.29,245.65Z" transform="translate(-168.13 -39.52)"/><path class="cls-4" d="M219.58,366.87c-2.51-2.89-3.17-6.21-3.14-10,.05-7.25.79-14.55-.67-21.76-.12-.83.39-1.05,1.07-1.1,2.22.75,2.36,2.79,2.88,4.61a152.15,152.15,0,0,1,.1,16.95c-.2,4.39.5,8.16,4,11.1a5.41,5.41,0,0,1,.54,2c.14,4.66-.21,9.34.14,14,.28,3.66-2.45,6.23-2.69,9.7a41.63,41.63,0,0,0-.33,7.13c1.49,14.7.33,29.44.63,44.15.06,2.76-.66,5.47-.79,8.25-.19,4.08,1.15,7.06,4,10.07,5.55,5.92,11.62,5.89,18.21,3.27,4.57-1.83,9.09-1.71,13.69-1.37,3.09.23,4.12,2.6,3.2,6.15h-1.51c-3.46-3.83-7.91-3.34-11.89-1.85-5.33,2-10.67,1.25-16,1.39a3.84,3.84,0,0,1-2.39-1c-.7-.55-1.3-1.2-2-1.76-6-4.92-10.69-10.36-8.1-18.95-.91-18,0-36.07-.59-54.1a12.61,12.61,0,0,1,1.12-5.5C222,381.14,221.17,374,219.58,366.87Z" transform="translate(-168.13 -39.52)"/><path class="cls-5" d="M219.58,366.87a4,4,0,0,1,2.27,4c-.07,4.16,0,8.32,0,12.48a4.57,4.57,0,0,1-.49,2.54c-3,4-2.52,8.53-2.51,13.05,0,12.48-.05,25,0,37.44,0,6.25,1.51,12.47,0,18.74a5.22,5.22,0,0,0,1.72,4.81c2.29,2.34,4.51,4.75,7,6.92,3.47,3.08,12.91,3.47,17.43.69,3.78-2.33,7.8-1.35,11.72-1.11,1.62.1,2.28,1.8,2.16,3.5h-31c-1.33-3.77-4.75-5.75-7.35-8.38-3-3-4.85-6-3.35-10.37.5-1.47.12-3.25.12-4.89q0-23.85,0-47.7c0-4.4-1.29-8.91,2.06-12.88.69-.82.21-2.68.22-4.07C219.58,376.71,219.57,371.79,219.58,366.87Z" transform="translate(-168.13 -39.52)"/><path class="cls-6" d="M265.94,463.14c8.43,0,16.86-.09,25.29,0,2.23,0,4.46.53,6.69.73,11.63,1,23.18-1.89,34.81-.75,1.3.13,2.8-.59,3.86.79-1.25,1.83-3.2,1.78-5.07,1.82-4.75.1-9.5,0-14.25.06-1.45,0-3-.29-4.35,1.08.93,1.4,2.38,1.12,3.66,1.14,4.87.07,9.75-.07,14.63.09,1.47.05,3.39-.43,3.92,1.83h-74a12.31,12.31,0,0,1-.63-5.52C261.84,462,263.68,461.64,265.94,463.14Z" transform="translate(-168.13 -39.52)"/><path class="cls-7" d="M380.44,364.82c.09,4.9,0,9.67-2.29,14.3-1.72,3.44-.48,7.45-.69,11.2-.12,2.12.28,4.31-1.63,5.95a1.79,1.79,0,0,0-.57,1.34c.64,5.56-.9,10.72-3.16,15.61-2.37,5.14-3.05,10.78-4.28,16.12-1.46,6.26-6.13,11.06-6.57,17.7a5.26,5.26,0,0,1-6,4.58c-4.69-1-8.17,2.58-12.56,2.68-1.86.05-2.24,2.45-2.26,4.28,0,3.78,0,7.56,0,11.34h-.76q-.36-8-.71-15.95c.59-1.67,2.09-2.14,3.55-2.45,3.79-.8,7.35-2.54,11.37-2.46a4.81,4.81,0,0,0,5-3.86c1.86-6.81,5.8-12.89,7.19-19.82,1.82-9.12,5-17.85,7-27,1.82-8.51.67-17.43,4.13-25.6a9.45,9.45,0,0,0,.42-4.12C378.19,367.15,378,365,380.44,364.82Z" transform="translate(-168.13 -39.52)"/><path class="cls-8" d="M260.61,464.43c.16,1.83.33,3.66.5,5.49h-.76c-.91-5.3-.91-5.3-6.11-5.3a26.62,26.62,0,0,0-11.28,2c-7.82,3.46-17.86-.54-21.84-8.07-1.67-3.16-1.07-6.78-.63-10,.78-5.91.56-11.81.49-17.7-.12-10.56.59-21.12-.54-31.68-.48-4.43-.32-9,2.53-12.95.56-.79.34-2.19.36-3.32.09-4.78.13-9.56.18-14.35,1.41-.19,1.79.8,2.12,1.85-1,5.38,0,10.85-.71,16.25a14.22,14.22,0,0,1-1.17,3.15c-1,1.86-.86,3.91-.86,5.92q0,26.1,0,52.21c.22,3.23-.75,6.56.82,9.68a20.65,20.65,0,0,0,3.39,3.78c4.67,5.69,10.51,4.05,16.31,2.63l2.16-.89c3.77-1.53,7.8-.81,11.69-1.32A2.8,2.8,0,0,1,260.61,464.43Z" transform="translate(-168.13 -39.52)"/><path class="cls-9" d="M335.13,469.92c-2-1.53-4.36-.64-6.53-.7-4.76-.14-9.53,0-14.29-.06-1.38,0-3.24.57-3.33-1.85s1.61-2.72,3.53-2.71c5.39,0,10.77,0,16.16,0a20.72,20.72,0,0,0,5.92-.74,6.1,6.1,0,0,1,.05,6Z" transform="translate(-168.13 -39.52)"/><path class="cls-10" d="M216.56,334.29l-.78.78c-5.06-4.83-10.78-9.06-13.48-16a14.3,14.3,0,0,1-.88-4.71c-.23-4.15.27-8.29-.37-12.46a6.63,6.63,0,0,1,2.36-5.68c4.81-4.59,9.47-9.33,14.1-14.09,6.32-6.5,12.54-13.08,18.84-19.59a11.17,11.17,0,0,0,3-5.22c1.37-6.29,4.13-12.33,3.7-19-.08-1.3-.13-2.63-1-3.57-2.62-2.87-2.48-6.4-1.92-9.69,1.16-6.79.29-13.59.6-20.37a10.45,10.45,0,0,0-1.31-4.67c-1.28-2.9-2.23-5.89-1.24-9.07a5.58,5.58,0,0,0-.49-4.75c-4.67-7.23-1.8-13.51,2.44-19.47,1.75-2.46,3.17-5.15,5-7.49,7.69-9.9,18.25-15.57,29.89-19.37,12.56-4.1,25.68-3.42,38.36-2.17a43.48,43.48,0,0,1,24,10.71c5.32,4.69,10.76,9.49,13.62,16.39.64,1.54,1.44,3.16,1.18,4.64-.74,4.28-.21,8.56-.36,12.83-.14,4.12.5,8.31-1.92,12.13-.6.93-.36,2.45-.36,3.7,0,9.54.16,19.08-.08,28.61-.12,4.74,2,8.53,4.06,12.38a37.17,37.17,0,0,1,2.81,6.53l-.78,0c-.52.1-1.14.09-1.39-.34-2.5-4.45-6-8.61-6.32-13.88-.5-9.79-1.23-19.58-.92-29.41a44.42,44.42,0,0,1,1.57-10.78,14.61,14.61,0,0,0,.77-3.68c.12-5,0-10,.54-15.09s-2.46-9.07-5.35-13c-6.31-8.48-14.8-13.52-24.6-17.24-11.09-4.21-22.34-1.68-33.51-2.32a6.66,6.66,0,0,0-3.57,1.07,13.92,13.92,0,0,1-7.6,1.82,5.69,5.69,0,0,0-4.45,1.65c-4.26,2.16-8.42,4.54-12.77,6.52a21.58,21.58,0,0,0-8.39,7.46c-3.34,4.7-7,9.24-9.49,14.53a11.82,11.82,0,0,0-.63,9.51,22.51,22.51,0,0,1,1.5,8.15c-.08,3.34.2,6.53,2.21,9.37a3.35,3.35,0,0,1,.7,2.51c-1.53,6.82.85,13.78-.93,20.64a13.38,13.38,0,0,0,1.54,11.23,11.69,11.69,0,0,1,1.31,9.84c-2,5.33-1.75,11.2-4.56,16.29a22.7,22.7,0,0,1-3.65,5.18c-8.9,8.93-17.54,18.14-26.77,26.71-8.46,7.86-8,18.55-5.15,26.43,1.68,4.61,5.76,7.57,8.65,11.35C215.2,331.49,216.94,332.29,216.56,334.29Z" transform="translate(-168.13 -39.52)"/><path class="cls-11" d="M223.31,458.54c-2.69-3-1-6.54-1.47-9.83a71.62,71.62,0,0,0,.7-11.61c.05-13.61.27-27.23-.32-40.84a18.69,18.69,0,0,1,1.1-7.41l.79-2.26c1.53-3.35.69-6.9.8-10.36.05-1.88-.31-3.84,1.61-5.11,4-.65,6.17,3,9.48,4a23.77,23.77,0,0,1,4,2.1,5.18,5.18,0,0,1,3,4.88c-.42,10.49,1.3,20.82,2.82,31.1.71,4.81,1.77,9.88,4.46,14.26a3.43,3.43,0,0,0,2.94,2c13.26.55,26.41,3.59,39.75,2.2,7.27-.76,14.55-.56,21.82-.75,3.2-.08,4.44-1.19,3.48-4.19-2-6.25-1.71-12.93-3.95-19.08-1-2.69-.28-5.51-1-8.22a237,237,0,0,1-5-25.4c-1-6.18-3.4-12.14-3-18.54.13-2-1.82-3-2.44-4.57-1.24-6.78-2.88-13.5-3.57-20.39-.57-5.65-2.48-10.2-8.05-13.05-4.86-2.5-9.67-5.34-13.58-9.36-1.71-1.76-3.59-1.36-5.52-.36s-3.93,2.39-6.33,1.12c.21-3.13,3.18-3.07,5-3.93,5.63-2.63,5.79-2.57,5.28-8.63a11.18,11.18,0,0,1,.46-4.84,4.86,4.86,0,0,0,.25-3.68,6.71,6.71,0,0,1,.43-6.16c1.09-2,.59-3.5-1.12-4.94-5.28-4.46-10.84-8.56-16.35-12.73-1-.75-2.23-1.21-2.66-2.54,0-1.28,1.2-2.4.52-3.79-.13-.32-.23-.65-.34-1-.16-.85-.67-1.8.56-2.31,4.12.56,7.37,2.67,10.63,5.19,7.14,5.5,14.11,11.72,22.76,14.37,7.55,2.31,15.67,3.75,23.45-.44a15,15,0,0,0,6.87-6.76c2.27-4.81,6.15-8.2,9.69-11.92,4-1.32,5-.7,5.16,3.25a1.27,1.27,0,0,1-.8.75c-1.43-.84-3.06-2.27-3.23,1-.09,1.69.41,2.4,2,1.08.48-.39.89-.06,1.2.36a2.56,2.56,0,0,1,.29,2.2c-2.65,4.85-2.18,10.52-4.21,15.53a5.33,5.33,0,0,0-.59,1.78c-.06,6-1.88,11.65-3.19,17.4-.8,3.54.24,5.65,3.56,7.2,4.55,2.11,9.35,3.65,13.75,6.07,1,.57,2.49.73,2.79,2.26-1.51,1.69-3.25,1.06-4.81.27-4.38-2.19-9-3.86-13.45-5.79-2.86-1.22-3.7-.74-4.35,2.45-.29,1.48-.67,3-.11,4.46,2.83,7.38,4,15.36,8.12,22.26,1.4,2.33.53,5.23,1.72,7.65,3.14,7.25,5.16,14.9,7.81,22.32,3.07,8.59,6.43,17.1,8.65,26,.59,2.35,2.13,4.3,2.54,6.69-.45,3.09,1.42,5.51,2.4,8.18,1.27,3.48,2.91,6.81,4,10.41.93-2.52.23-4.88-.68-7a43.43,43.43,0,0,0-3.51-7.51c-1.59-2.35-.85-5.13-1.07-7.74,0-4.42-.09-8.83,0-13.25.06-2.63.91-4.76,3.21-6,5.71-3.11,11.47-6.13,17.43-8.76.8-.1,1.61-.31,2.31.31,1.26,2.55,0,4.93-.73,7.22-.94,2.77-1.9,5.54-1.49,8.45.84,6.08-2.17,11.52-2.66,17.36-.48,5.67-3.1,10.76-4.33,16.15-1.07,4.64-2.43,9.17-3.78,13.7-1.63,5.49-4.55,10.52-6.22,16.06-.64,2.14-3.05,2.73-5.36,2.76-5.18.07-9.92,2-14.69,3.75-11,.55-21.83,2.51-32.72,4-10.4,1.4-20.84,2.47-31.26,3.75-3,.37-6.18,0-9,1.44-1.93-.23-3.79-.13-5.33,1.29a4.53,4.53,0,0,0-4.91-1.59c-3.38.71-7,.09-10.42,1-1.23-6.78-5.42-10.94-11.57-13.59-2.71-1.16-5.34-1-8.05-.52-2,.34-2,1.83-1.85,3.44C224,455,224.87,456.89,223.31,458.54Z" transform="translate(-168.13 -39.52)"/><path class="cls-12" d="M349.48,191.11c-2.45,10.19-1.67,20.48-1,30.78a40.6,40.6,0,0,1,.19,6c-.62,7.07,3.72,12.15,6.82,17.75a55.23,55.23,0,0,0,10.74,15.68c5.66,5.57,9.75,12.45,15,18.4-1.26.49-2.07-.47-3-1a8.85,8.85,0,0,1-2.56-2.22c-5.05-7.5-11.78-13.62-16.84-21.18A167,167,0,0,1,348,236.81a12.64,12.64,0,0,1-1.53-8,10.17,10.17,0,0,0,.41-3.56c-2.83-10.31-1.48-20.7-.58-31.07a4.32,4.32,0,0,1,.81-2.1A2.09,2.09,0,0,1,349.48,191.11Z" transform="translate(-168.13 -39.52)"/><path class="cls-13" d="M378.21,368.53l-1.52.31a1.81,1.81,0,0,1-.48-1.67c3.12-4.72,3.8-9.92,3.29-15.46a48,48,0,0,1,.08-8.64,15.76,15.76,0,0,0-2.12-9.37,19,19,0,0,1-2.53-5.83c.17-.71.72-.9,1.34-1a2.25,2.25,0,0,1,1.16.32,28.77,28.77,0,0,1,5.35,20.23,60.58,60.58,0,0,0,0,9.43c.13,3-.1,5.74-2.33,8Z" transform="translate(-168.13 -39.52)"/><path class="cls-14" d="M377.43,327.19l-.81.19a2,2,0,0,1-1.3-1.86c.17-2,1.44-3.46,2.67-4.86,5.9-6.76,7.72-15,7.12-23.48-.37-5.17-2.85-10.1-5.23-14.83-.63-1.26-2-2.42-1-4.1l2.29,1.5a45,45,0,0,1,6,15.83c1,6.5.89,13.22-2.84,19.1-2,3.14-2.78,7.06-6.08,9.36C377.24,324.77,377.43,326.05,377.43,327.19Z" transform="translate(-168.13 -39.52)"/><path class="cls-15" d="M223.52,367.14c-3.73-2.54-5.24-5.88-4.92-10.56.43-6.27.1-12.59.1-18.89.68-2,.78-4.22,2-6.06,3.47-5.37,7.55-10.23,13.78-12.3,5.89-1.95,11.43-5,17.72-5.75,1.68,1.15,1.68,3.06,1.94,4.75.85,5.58,2.42,10.81,6.29,15.12.76.84,1.42,1.81.9,3.08a1.73,1.73,0,0,1-1.57.48,22.12,22.12,0,0,1-8.63-15.67c-.35-3.79-.83-4.21-4.26-2.8-4.28,1.75-8.42,3.81-13,4.91-4.81,1.16-11.52,10-11.55,14.89,0,3.18,2.25,5.7,2.89,9.52a3.86,3.86,0,0,0-.08-4.54,12.46,12.46,0,0,1-1.42-2.22c-.59-1.6-1-3.42.52-4.53s2.51.43,3.57,1.28c.87.7,1.47,1.75,2.69,2,1.1-.7.26-1.55.1-2.28a2.35,2.35,0,0,1,1.52-3c1.39-.52,2.9-.52,3.67.93a22.75,22.75,0,0,0,3,3.77c1.89,2.25-.26,3.87-1.89,4.15-3.51.6-4.46,2.69-4.72,5.72a4.41,4.41,0,0,1-1.15,2.36c-1.23,1.46-.79,2.12.29,3.87,2.46,4,4,8.64,6.59,12.7.92,1.42-.46,2.56-2.21,2.46a4.3,4.3,0,0,1-3.28-1.67C231,366.75,228.18,366,227,364c-1.33-2.08-3.36-3.68-4.06-6.57-1.09,3.72.73,7.23,4.69,9.86,1.63,1.09,3.7,1.72,4.21,4C227.78,372.43,225.67,369.76,223.52,367.14Z" transform="translate(-168.13 -39.52)"/><path class="cls-16" d="M223.52,367.14c2.62,1.66,4.94,3.85,8.1,4.53,1.59-.39,2.48.91,3.66,1.52,2.19,1.07,4.12,2.64,6.53,3.26a7.67,7.67,0,0,1,3.37,6.36,138.12,138.12,0,0,0,1.23,23.71,86.72,86.72,0,0,0,4.34,18.35c.63,1.65,1.37,2.72,3.4,2.91a307.18,307.18,0,0,0,38.72,1.66c7-.22,14-1.16,21.07-.8,2,.1,2.94-.43,2.43-2.88-2.66-12.82-5-25.69-7.3-38.58-1.77-10-4-20-5.46-30.09-.39-2.73-2-4.16-4.87-4.26A59.47,59.47,0,0,1,278.49,349c-2.17-.87-4.57-1.44-5.39-4.1,1.12-.95,2.3-.71,3.52-.23,7.37,2.88,14.86,5.12,22.92,4.52a4.83,4.83,0,0,1,3.86,1.09c2.53,2.26,2.59,5.26,3.22,8.39,1.45,7.19,1.67,14.63,4.1,21.62a7.86,7.86,0,0,1,.59,2.57c-.17,7.61,2.68,14.75,3.83,22.16.91,5.89.79,12.25,3.61,17.9a11.59,11.59,0,0,1,1.05,5.49c-.11,2.52-1.91,3.69-4.39,3.65-14.08-.26-28.13,1.55-42.2.67-7.09-.44-14-2.32-21.23-2.45-3.61-.07-4.1-5.1-5.16-8.29-2.58-7.76-3-15.94-4.11-24a111,111,0,0,1-.62-14.94c0-1.94-.2-3.84-1.9-4.58-4.76-2.06-8.83-5.46-13.83-7-.87-.12-1-1-1.49-1.49l-1.36-1.46C223.52,368.05,223.52,367.59,223.52,367.14Z" transform="translate(-168.13 -39.52)"/><path class="cls-17" d="M221.08,332c-.93,1.84,0,4.46-2.38,5.68-.85-1.05-.49-2.87-2.14-3.41-2.74-3.1-5.3-6.38-8.23-9.28-6.6-6.51-6.63-19.44-3.91-25.92,1.11-2.66,3.48-4.89,5.58-7,8.19-8.37,16.38-16.74,24.81-24.86,4.2-4.06,7-8.58,7.74-14.45a31.56,31.56,0,0,1,1.82-6.8,13.33,13.33,0,0,0-1.49-12.09c-2.18-3.3-1.69-6.88-1.12-10.24s1.28-6.76.61-10.36a16.84,16.84,0,0,1,.41-7.86c.35-1.15.58-2.92,0-3.68-4-4.88-1.54-11.14-3.63-16.23-3.54-8.66.43-15,5.37-21.28,1.78-2.27,2.94-4.93,4.82-7.17,5.57-6.63,13.33-9.56,20.85-12.93a.55.55,0,0,1,.94.15c0,1.87-1.55,2.32-2.84,3.11-5.71,3.52-12.65,5.41-16.67,11.23-3.66,5.29-8.21,10-10.74,16a9.59,9.59,0,0,0,.76,9.39c2.13,3.11,3.8,6.26,2.21,10.18a2.78,2.78,0,0,0,.15,2.2c2.72,6.18,1.1,12.83,2.11,19.2-.69,1.65-.47,3.45-.86,5.14-2,4.52-1.51,8.93.52,13.29.48,1.27.64,2.62,1,3.91.93,3.74,1.32,7.44-.81,11a2.1,2.1,0,0,0-.29,1.09c.22,11.13-7.59,17.32-14.51,24.2-7.91,7.88-16.11,15.5-23.51,23.89-2.27,2.58-1.55,5.75-1.29,8.7a25,25,0,0,1,0,7.12c-.81,4,1.53,7,3.79,9.86,1.16,1.48,2.69,2.65,3.88,4.12s2.11,2.41,4.29,1C220.31,327.6,221.47,329,221.08,332Z" transform="translate(-168.13 -39.52)"/><path class="cls-18" d="M279.26,469.16c-4.4,0-8.8-.06-13.19,0-2,0-3.31-.7-3.28-2.69s1.69-1.86,3.1-1.86l25.64,0c1.91,0,3.63.18,3.53,2.73s-2,1.8-3.36,1.82c-4.14.07-8.29,0-12.44,0Z" transform="translate(-168.13 -39.52)"/><path class="cls-19" d="M223.31,458.54a19.14,19.14,0,0,0-.51-5.2c-.76-2.91,0-4.56,3.63-4.74,8.67-.42,15.91,3.88,19,11.73a3.89,3.89,0,0,1-.14,3.54l-1.55.76c-3.66,1-7.4.66-11.11.75-2.93.07-4.12-2.59-6.24-3.77A8.08,8.08,0,0,1,223.31,458.54Z" transform="translate(-168.13 -39.52)"/><path class="cls-20" d="M223.32,388.85c-1.06,16,.72,32.07,0,48.1-.18,3.94-.28,7.93-1.45,11.76q0-27.31,0-54.65C221.82,392.17,221.67,390.25,223.32,388.85Z" transform="translate(-168.13 -39.52)"/><path class="cls-20" d="M224.87,370a2.4,2.4,0,0,1,1.49,1.49c-1.72,3.49.36,7.21-.67,10.8-.43,1.51-.22,3.18-1.58,4.34C224.45,381.05,223.52,375.45,224.87,370Z" transform="translate(-168.13 -39.52)"/><path class="cls-11" d="M226.38,461.61c5.17,4.52,11.45,2.69,17.35,3C236.08,467.82,230.6,466.87,226.38,461.61Z" transform="translate(-168.13 -39.52)"/><path class="cls-21" d="M270.94,144.16l-.79,0c.65-1.13,1.5-2.35,2.84-2.17,6.78.88,12.42-4.16,19.38-3.3,6.55.81,13.29.27,19.94.15,3-.06,5,2,7.66,2.77,13.51,3.76,23.3,12.29,29.77,24.66a8.89,8.89,0,0,1,1.11,5.07c-.91,6.13-.3,12.29-.8,18.42a5,5,0,0,1-.57,1.39l-1.5.76c-.66-5.19-1.23-10.5-.22-15.59,1.28-6.5-.91-11.52-4.75-16.34-9.25-11.59-21.67-17.57-36-18.88-8.81-.81-17.93-1.21-26.55,2.71C277.64,145.06,274.16,145,270.94,144.16Z" transform="translate(-168.13 -39.52)"/><path class="cls-22" d="M221.08,332c0-1.16,0-2.38-1.36-2.82s-1.43.92-1.95,1.69c-1,1.48-2.29.54-2.78-.26-2.28-3.77-6.34-6-8.33-10.1-.91-1.91-1.74-3.64-1.39-5.6a24.82,24.82,0,0,0,0-8.89c-.85-4.67,1.06-8,4.29-11.64,5.85-6.52,12.77-11.9,18.43-18.63,3.16-3.76,7.7-6.55,10.71-10.5s6.53-8,5.82-13.75a3.56,3.56,0,0,1,.2-2.22c2.46-3.52,2-7.34,1.32-11.2,2.14.76,2.84,3.29,5,4.07a6,6,0,0,0,2.89,1.63c3.74.5,5.88,2.94,7.56,6a3.18,3.18,0,0,1,.17,1.06c-1,3.37-3.9,2.28-6.19,2.57-1.77.22-4-.19-3.4,2.86,1.55,1.78,4.15,2.35,5.29,4.6,6.61,5.11,13.39,10,19.85,15.33,2.2,1.83,2.43,3.25,1.15,5.36s-1.8,4.12-.32,6.33a2.59,2.59,0,0,1-.11,2.86c-1.23,2.23-1.11,4.57-.61,7,.79,3.68-.73,6.61-4.31,7.4-2.76.6-4.66,2.75-7.3,3.4-2.26,3.27-9.69,6.3-13.38,5.45-7.1,2.62-14.33,4.92-21.22,8a16.94,16.94,0,0,0-7.28,7A6.69,6.69,0,0,1,221.08,332Z" transform="translate(-168.13 -39.52)"/><path class="cls-23" d="M378.92,278.25c1.72,3.73,3.33,7.52,5.17,11.18,3,5.92,2.08,12.21,1.48,18.3-.49,5-3.64,9.2-6.59,13.24-1.17,1.6-2.62,3-3.14,5-3.21-1.07-5.32-3.92-8.56-5-6.19-2.15-12.25-4.66-18.56-6.46a1.81,1.81,0,0,1-.85-.72l-18.81-8.63c-2.16-1-2.88-2.18-2.51-5,.87-6.54,2.42-13,3.77-19.38,1.11-5.23.68-11.27,4.27-16,.89-1.15.56-2.65.41-4a1.62,1.62,0,0,1,.16-2.27c.23,0,.45,0,.68,0,.8-1.94.88-4-1.54-4.37-3.49-.52-4-2.34-3.29-5.25.18-.72.12-1.49.3-2.22.7-2.56,2.95-3.43,4.95-4.57,4.36-2.24,6-6.6,8.22-10.55.62-1.11.7-2.87,2.7-2.54-.62,5,2.55,8.74,4.37,12.91a65.92,65.92,0,0,0,9.24,14.67C366.65,263.94,371.9,271.86,378.92,278.25Z" transform="translate(-168.13 -39.52)"/><path class="cls-24" d="M252.28,314a41.67,41.67,0,0,0,13.38-5.45,8.9,8.9,0,0,0,6-1.68c2.49-1.64,4.94-1.9,7.25.87,3.33,4,8.1,6.2,12.5,8.65,4.84,2.7,7.93,6,8.61,11.71.9,7.41,2.25,14.77,3.4,22.15-8.5.79-16.69-.87-24.77-3.21-1.84-.53-3.07-2.74-5.4-2.08-1,.83-1.9.21-2.68-.38-3-2.23-6.3-4-9-6.52a1.44,1.44,0,0,1-.48-1.48c-.13-.48-.1-1.1-.4-1.4-5.19-5.13-7-11.63-7.74-18.63A19.27,19.27,0,0,0,252.28,314Z" transform="translate(-168.13 -39.52)"/><path class="cls-25" d="M334.07,344.9c-2.18-9.95-6.81-19.08-9.67-28.81-.91-3.1-.21-5.88.57-8.4s3.27-1.3,5.42-.57c5.91,2,10.94,6.36,17.48,6.64l.09.06a4,4,0,0,1,1,2.84c.09,7.87-3.12,14.43-8.44,19.93C338.05,339.15,335.55,341.6,334.07,344.9Z" transform="translate(-168.13 -39.52)"/><path class="cls-26" d="M251.26,257c-1.7-3,.06-4.07,2.6-4.48a25.41,25.41,0,0,1,4.45,0c1.59,0,2.65-.54,2.79-2.28,3.84.57,6,3.91,8.88,5.88,5.73,3.87,11.6,7.57,17.07,11.83.4.31.8.8,1.25.83,8.27.65,16.41,5.44,24.88.86a20,20,0,0,0,8.58-8.22c2.06-3.86,4.32-7.65,7.65-10.61,1.88,1.06.64,3.42,1.94,4.73C328,260,324.23,264,321.22,268.86c-5,8-13.29,8.82-21.69,7.56-2.91-.43-5.91,0-8.83-1.41A111.92,111.92,0,0,1,267,259.47c-2.92-2.42-6.32-3.48-9.72-4.71C255.39,255.76,252.75,254.82,251.26,257Z" transform="translate(-168.13 -39.52)"/><path class="cls-27" d="M334.07,344.9c-.1-2.82,1.1-4.67,3.35-6.57a28.65,28.65,0,0,0,10.69-21.56c1-2.73,2.56-2.93,4.58-1a11.61,11.61,0,0,0-2.71,6c-1.13,6.52-4.81,11.72-9,16.6a14.78,14.78,0,0,0-3.32,2.84,3.76,3.76,0,0,0-1,4.17c5.27,12.74,8.75,26.14,14,38.89.85,2.07,1.06,4.33,1.91,7,1-4.75.7-9.1,2.14-13.17.74-1.55,2.16-2.16,3.64-2.72,4.13-2,8.18-4.21,12.29-6.28,1.86-.94,3.71-2.11,6-1.49,0,.42,0,.84,0,1.25-6,3-12.11,6-18.09,9.07a4.73,4.73,0,0,0-2.43,4.71c.13,4.62.06,9.24.06,13.86-.67,1-.08,2.17-.42,3.18-.49,1.44-1.27,2.14-2.55.64-3.23-8.6-5.49-17.56-8.79-26.08C340.72,364.53,338.05,354.48,334.07,344.9Z" transform="translate(-168.13 -39.52)"/><path class="cls-28" d="M353.26,400.3c3.79.92,1.36-3,3-3.82-1.19,5,1.91,8.9,3.83,12.85,1.37,2.81,1,5.92,2.62,8.52.68,1.06-.4,1.94-1.27,2.37a1.75,1.75,0,0,1-2.52-1.46c0-3.81-2.46-6.76-3.28-10.23C355,405.74,352.08,403.59,353.26,400.3Z" transform="translate(-168.13 -39.52)"/><path class="cls-29" d="M331.35,255.51c-3.69-.45-1-3-1.51-4.55,0-1.89-.06-3.82,2.26-4.55a19.78,19.78,0,0,1-.38,3.71c-.56,1.93,0,2.89,2,3.1,4,.43,3.4,2.72,2.14,5.29C335.55,254.53,335.14,254.26,331.35,255.51Z" transform="translate(-168.13 -39.52)"/><path class="cls-30" d="M335.16,258.5c-.05.76-.11,1.51-.16,2.27-.9.76-.47,3-2.11,2.63s-1.54-2-1.5-3.42c.05-1.66.25-3.62,2-4.06S334.93,257.35,335.16,258.5Z" transform="translate(-168.13 -39.52)"/><path class="cls-31" d="M251.26,257c.74-4.23,3.71-2.4,6.06-2.25.24.75.49,1.51.74,2.27-1,.53-1.85-.38-2.8-.28,1.26,1,1.26,1,2.81.3,1.17,1.56,1.51,3-.76,3.85C255,260.13,253.27,258.31,251.26,257Z" transform="translate(-168.13 -39.52)"/><path class="cls-32" d="M270.94,144.16a7.39,7.39,0,0,1,2.52-.67c5.9.69,10.92-2.82,16.57-3.42a32.4,32.4,0,0,1,7.43-.12c4.29.5,8.57-.56,13,.31,15.41,3.08,28.2,10.06,36.58,23.81,2.1,3.45,3.13,7.3,1.82,11.52a12.17,12.17,0,0,0-.53,5.84c.76,3.57.24,7-.33,10.44a52.52,52.52,0,0,0-1.46,12.53c-.2,7.19-.63,14.43,1.36,21.49-2.56-.91-2.63-3.53-3.73-5.45-.26-.7-.39-1.53-1-2-6.14-4.15-4.71-10.09-3.8-15.92a21.94,21.94,0,0,0,0-2.81c-.06-1.36-.5-2.67-.54-4.05-.1-3.42-.69-3.82-4.07-3.12a41.16,41.16,0,0,0-4.59,1.53,19.06,19.06,0,0,1-4.71.31c-12.2-1.47-24.51-2.78-36-7.43-12.34-5-23.42-12.14-32.25-22.39-2.74-3.18-2.88-3.08-5.55.14-4.22,5.1-4.92,11.21-4.88,17.41a72.54,72.54,0,0,1-.28,10.93A27.93,27.93,0,0,0,247,204c.68,2.68,1.52,5.38,1.36,8.18-.1,1.8-.16,4.05-3.14,3.21-1.78-6.16,1.07-13-2.57-18.86a2.3,2.3,0,0,1,0-2.52c2-3.3.42-6.07-1.44-8.67-2.87-4-2.68-8.92-.18-13.29a41.79,41.79,0,0,1,6.39-8.56c.94-1,1.24-3.29,2.52-4.85,5-6.13,12.15-8.86,18.83-12.34A4.89,4.89,0,0,0,270.94,144.16Z" transform="translate(-168.13 -39.52)"/><path class="cls-33" d="M345,220.62l2.91,5.27a4.36,4.36,0,0,1-.7,3.12c-1.95,1.81-2.45,4.45-3.78,6.63-1.73,2.85-3.28,5.86-6.74,7a1.23,1.23,0,0,1-.2-1c3.81-3.7,5.22-8.92,8.18-13.15,1.62-2.32-.36-4.28-.4-6.42A2,2,0,0,1,345,220.62Z" transform="translate(-168.13 -39.52)"/><path class="cls-34" d="M340.4,338c4.22-5.94,8.83-11.69,9.09-19.48.06-2,1.32-2.47,3-2.44.11-.08.23-.23.31-.21,7.1,2.16,14.46,3.68,20.49,8.45a4.3,4.3,0,0,1,1.85,3.12c3.32,5.45,6.49,10.82,5.41,17.76-.55,3.55.07,7.29.16,10.94a16.27,16.27,0,0,1-4.06,11.42,105.31,105.31,0,0,0-16.26,8.1,5.51,5.51,0,0,1-1.82.32c-3.93-2.41-3.72-7-5.27-10.57-3.69-8.55-7.11-17.19-12.27-25C340.55,339.72,339.91,339,340.4,338Z" transform="translate(-168.13 -39.52)"/><path class="cls-35" d="M375.14,327.47a19.79,19.79,0,0,0-9-6.43c-4.6-1.52-9.12-3.28-13.68-4.93-1.71-1.44-3.11-.85-4.38.66l-.15-2.95c3.35-.84,6,1.27,8.82,2.35,5.57,2.15,11.74,3,16.45,7.22.92.83,1.65,1.81,2.61,2.59l.78,1.4Z" transform="translate(-168.13 -39.52)"/><path class="cls-15" d="M234.56,373.74l-2.94-2.07c-2.72-3.21-7.28-4.34-9.32-8.4-.5-1-1.37-1.8-1.22-3,.19-1.52-.79-3.81,1.25-4.29s1.66,2.05,2.34,3.22c.48.82.33,2.1,1.81,1.94s1.38.64,1.17,1.65a9.46,9.46,0,0,0-.1,1.41c4.22-.94,3.89,4.24,6.83,5.11,1,.29,1.89,1,2.75.21s-.15-1.63-.29-2.45a3.28,3.28,0,0,0-1.87-2.25,4.89,4.89,0,0,1-2.56-4.7c0-2.4-.13-4.46-3.4-4.76-1.7-.15-1.15-1.71-.25-2.52a9.31,9.31,0,0,0,3.06-7c.07-1.68.58-3.38,3.29-2.6,1.32.38,3.06-.78,3.6-2.26.64-1.76-1.38-1.32-2.15-1.87-1-.7-1-1.59-1.2-2.59-.32-1.9-1.83-1.53-3-1.23-1.44.39-1.55,1.38-.68,2.61s1.34,2.78,0,3.68-2.12-.8-3.05-1.54c-.29-.23-.5-.61-.81-.78-1.17-.64-1.89-3.26-3.36-1.81-1.15,1.15-.56,3.34,1,4.71a4.45,4.45,0,0,1,1.22,1.42,5.75,5.75,0,0,1-.08,5.07,1.39,1.39,0,0,1-1.25.51c-1.58-.77-1.8-2.51-1.86-3.88-.15-3.12-3.2-5.21-1.9-9.12,2-6.07,8.33-12.66,14.51-14.06,3.43-.77,6.61-2.68,9.89-4.11.57-.25,1-.75,1.62-.94,4-1.28,4.57-.91,4.42,3.32-.25,6.77,4.18,11.25,7.58,16.25.46,2-1,3.29-1.82,4.75a174.75,174.75,0,0,0-13.94,31.25c-.49,1.44-.83,2.93-2.37,3.66C238.76,376.51,237.19,373.64,234.56,373.74Z" transform="translate(-168.13 -39.52)"/><path class="cls-36" d="M241.46,376c1.83-4.88,3.45-9.86,5.51-14.64,3.67-8.52,7.4-17,12.62-24.76H261l.84.85c1.06,1.43.67,2.84-.08,4.23-4.34,8.06-8.11,16.39-11.84,24.74-1.59,3.55-1.64,7.65-4,10.89-.78,1.05-1.31,2.78-3,1l-1.5-1.4C241,376.57,241,376.25,241.46,376Z" transform="translate(-168.13 -39.52)"/><path class="cls-15" d="M242.88,378.32c3.61-1,3.91-4.44,4.47-7.08.87-4.11,2.89-7.62,4.51-11.34,2.21-5.08,4.77-10,6.93-15.09,1-2.45,3.75-4.24,3.08-7.39,3.83,2.44,7.18,5.61,11.36,7.53,7.77,5.15,16.6,6.57,25.62,6.68,4,.05,5.69,2,5.91,5.25.57,8.32,2.88,16.32,4.16,24.51,1.51,9.63,3.28,19.27,5.39,28.77,1.26,5.68.92,11.81,3.91,17.12.75,1.33.18,2.47-1.58,2.55h-1.13c-14.45,0-28.89,1.11-43.34.58-3.87-.14-7.72-.78-11.57-1.23-1.12-.13-2.24-.33-3.34-.57-2.19-.49-4.9,2-6.57-.69a20.26,20.26,0,0,1-2.42-6.65c-1.73-8.61-4.26-17.11-3.83-26,.22-4.49-1.45-8.94-.23-13.52C244.47,380.77,243.36,379.46,242.88,378.32Z" transform="translate(-168.13 -39.52)"/><path class="cls-15" d="M241.46,376c0,.32-.05.63-.08.95-2.86.22-4.43-2.37-6.82-3.18C237.34,373,239.1,375.44,241.46,376Z" transform="translate(-168.13 -39.52)"/><path class="cls-11" d="M336.64,241.9c0,.26,0,.52,0,.77-1.37,1.43-3.74,1.63-4.56,3.74-.75,1.52-1.51,3-2.26,4.55-2.62,3.94-5.68,7.57-7.83,11.85-3.61,7.2-14.22,11.43-21.73,9a16.81,16.81,0,0,0-6.6-1.06c-3.75.38-6.33-1.39-9.13-3.41-5.73-4.14-11.72-7.94-17.5-12a75.94,75.94,0,0,1-5.95-5.13h0c-1.45-3-3-5.82-7-5.79a3.13,3.13,0,0,1-2.23-1.24,1,1,0,0,1,.39-.92c1.61-.49,2.81-1.22,1.81-3.2-3.29-6.51-4.24-13.84-7.17-20.53-1.39,0-.63,2.59-2.43,2.1,0-1.8-.29-3.64.76-5.29,3.53-.73,2.4-3.47,2-5.46-.93-4.92-2.89-9.82-1.92-14.84,1.44-7.43-.33-14.94,1.25-22.4,1.05-4.91,4.18-8.21,6.9-11.88,1.14-1.53,2.29.3,2.94,1.15a62.47,62.47,0,0,0,11.45,11.41,94.28,94.28,0,0,0,33.8,16.39c7.81,2.11,15.9,1.52,23.6,3.71-1.54,2.57-4.35,2.9-6.82,3.75-4.5,1.55-8.91,6.37-9.18,10.24a3.72,3.72,0,0,0,3.2,2.66c5.69,3.31,11.17,2.08,16.57-.77,1-.4,1.86-1.13,3-1.2,2.85.72,4-1.23,5.06-3.27.7-1.3.87-3.38,3.25-2.37-1.05,3.32-.6,6.74-.71,10.13,0,1.45.74,2.19,1.85,3,1.68,1.24,3.61,2.46,3.47,5,0,.52,0,1,0,1.57-2.25.2-2.11-2.58-4-3.16-1.67,2.13-2.07,4.82-2.25,7.3a45.62,45.62,0,0,1-2.44,10.95A4.81,4.81,0,0,0,336.64,241.9Z" transform="translate(-168.13 -39.52)"/><path class="cls-37" d="M244.48,220.63c1.59-.94-.24-4.23,2.29-4,1.86.15,1.29,2.69,1.91,4.12,2.68,6.19,3.62,13,6.71,19.07,1.82,3.59-1.23,3-3.34,2.81-4.33-1-5.18-5-6.85-8.26C242.45,230.83,242.12,224.57,244.48,220.63Z" transform="translate(-168.13 -39.52)"/><path class="cls-11" d="M245.2,234.35c2.38,2.67,3.45,6.44,6.85,8.26l0,0a1,1,0,0,1-1.5,0c-2.29-.73-3.57-2.46-4.5-4.54A6.38,6.38,0,0,1,245.2,234.35Z" transform="translate(-168.13 -39.52)"/><path class="cls-26" d="M250.53,242.64H252a4.53,4.53,0,0,0,3.27,1.5c3.72.29,5.36,2.6,5.8,6.06-2.2-2.5-3.94-5.58-8-5.63A3.05,3.05,0,0,1,250.53,242.64Z" transform="translate(-168.13 -39.52)"/><path class="cls-38" d="M355.5,378.26a75.48,75.48,0,0,0-1.5,12.63c0,.83.29,2-.84,2.24-1.53.37-1.55-1.11-1.72-1.93-1.75-8.79-5.54-16.92-8.45-25.3-2.33-6.72-3.67-13.87-7.34-20.15-1.24-2.12-.61-4.15,1.73-5.37,2.69-.22,3.17,2.08,4.06,3.75A176.68,176.68,0,0,1,355.5,378.26Z" transform="translate(-168.13 -39.52)"/><path class="cls-39" d="M355.5,378.26c-3.54-2.69-3.05-7.17-4.46-10.75-3.34-8.48-7.32-16.62-11.33-24.76a4.76,4.76,0,0,0-2.33-2.37,3.91,3.91,0,0,1,3-2.35c6.14,7.79,9.51,17,13.3,26,1.68,4,3.25,8,4.87,12C357.74,377,356,376.73,355.5,378.26Z" transform="translate(-168.13 -39.52)"/><path class="cls-40" d="M258.07,257.05c-.32.91.62,2.88-1.05,2.53a6,6,0,0,1-3.9-3.15c-.29-.6.62-.85,1.27-1,1.56-.26,2.49.93,3.67,1.55Z" transform="translate(-168.13 -39.52)"/><path class="cls-41" d="M340.36,202.46c-1.78.13-1.9,1.46-2.35,2.83-1.07,3.28-3.91,4.68-6,3.21-1-2.64,1.47-3.39,2.67-4.82,1.54-1.27,4.2-2.15,1.64-4.83-4.47-2.69-9.23-2.65-14.1-1.53a6.14,6.14,0,0,0-3.64,1.58c-4.66,1.43-6.93,5.58-10,8.86a1.7,1.7,0,0,1-.53-2.35c2.86-3.53,5-7.8,10-9.11a57.08,57.08,0,0,0,7.17-2.88l5.31,0c4.57-.11,7.68,2.15,9.78,6.06C340.37,200.44,340.37,201.45,340.36,202.46Z" transform="translate(-168.13 -39.52)"/><path class="cls-11" d="M340.38,199.43c-2.6-3.1-6.13-4.67-9.78-6.06,1.63-1.84,4-1.86,6.12-2.14s4,.61,3.11,3.48C339.3,196.38,340.2,197.86,340.38,199.43Z" transform="translate(-168.13 -39.52)"/><path class="cls-42" d="M336.64,241.9c-1.78.06-2.81-.8-2.06-2.51,2.65-6,2.61-12.66,4.33-18.89.37-1.32.56-3,2.08-3.28,1.75-.32,1.43,1.69,2.11,2.6s1.22,1.58,1.83,2.37c2.26,3.45.85,6.07-1.08,9.35C341.69,235.22,340.39,239.36,336.64,241.9Z" transform="translate(-168.13 -39.52)"/><path class="cls-43" d="M301.87,224.58a4.46,4.46,0,0,0-2.77,2.77c-.47,1.66-.94,3.18-2.91,2-1.71-1-1.56-2.94-.42-4.29,1.67-2,3.35-4.07,6.31-4.41s3.83-2.2,2.08-4.82a31.12,31.12,0,0,1-4.45-8.53c-.3-1-.75-2,.68-2.41,1-.3,2.3-.19,2.6.9,1.19,4.38,4.34,7.73,6,11.9a6.68,6.68,0,0,1-.27,5.95c-.87,1.8-1.79,3.58-2.69,5.36-.51,1-.91,2.36-2.31,2.09-1.59-.31-1-1.8-1-2.83a23.22,23.22,0,0,1,.41-2.59C303.19,224.86,302.75,224.53,301.87,224.58Z" transform="translate(-168.13 -39.52)"/><path class="cls-44" d="M329.82,209.83c-5.9,3.81-12,4.27-18.27,1-2.61-1.81-2.56-4-.49-6s3.64-5.26,7.16-5.72c1.27.17,2.07,1.28,3.26,1.65,2.81.87,5.55,1.79,2.5,5.44-.25.3.43.79.85,1.06,1.21.43,2.52.14,3.7.56C329.44,208.12,330.63,208.37,329.82,209.83Z" transform="translate(-168.13 -39.52)"/><path class="cls-45" d="M260.28,215.41l-1.28.09c-2.48-.86-4.27-2.24-3.92-5.23.67-2.53,2.89-3.48,4.81-4.75,3.45-2.52,6.58-.75,9.73.74a5.45,5.45,0,0,1,1,.42c1.84,1.21,2,2.45.11,3.81-2.43,1.77-2.31,3.1.39,4.42.89.43,2,.46,2.8,1.07,1.72,1.79.48,1.9-1.06,2C268.39,218.39,264.13,217.9,260.28,215.41Z" transform="translate(-168.13 -39.52)"/><path class="cls-46" d="M279.6,192.59a10.4,10.4,0,0,1-1.6-.54c-5.71-2.86-11.41-2.16-17.19-.18a7.44,7.44,0,0,0-2.72,1.89c-.77.71-1.58,1.48-2.51.33-.76-.94,0-1.61.64-2.24A18.57,18.57,0,0,1,271,185.9c3.51.1,6.72,1.55,9.86,3.07a2.11,2.11,0,0,1,1.33,2.42C281.91,192.79,280.78,192.58,279.6,192.59Z" transform="translate(-168.13 -39.52)"/><path class="cls-47" d="M293.71,253.17a49,49,0,0,1-6.41-.06c-1.84-.27-2.94-1.38-1-3,5.24-4.37,10-9.35,16.55-12a14.44,14.44,0,0,1,8.09-.55c1.92.32,3.75,1.18,5.78,1.48,2.66.39,3.25,3,1.41,5.15a18.21,18.21,0,0,1-8,5.51C304.59,251.58,299.1,254.15,293.71,253.17Z" transform="translate(-168.13 -39.52)"/><path class="cls-48" d="M269.86,207c-.72,0-1.78.22-2.1-.15-2.28-2.68-4.77-1.82-7.33-.68-1.34-.25-2.69.59-4-.05a1.57,1.57,0,0,1-.73-.69c6-5.63,19.07-4.67,25.28-.63,1.35.88,1.11,2.46,2.07,3.42-1.29,6.16-5.17,9.27-9.84,7.9a5.62,5.62,0,0,1-4.53-2c-1.82-2.11-2-3.44,1.12-4,2.52-.48,1.85-1.64.63-2.92,1.32-1.28,2.61-.87,3.49.4,1.08,1.55-.11,2.5-1.28,3.37-.64.47-1.93.59-1.43,1.8.34.85,1.33,1.1,2.2,1.26,2.17.4,5-1.73,5.87-4.39.95-2.83-1.13-3.45-3-4.22-.81-.33-1.59-.74-2.4-1.07C270.26,202.82,269.55,203.31,269.86,207Z" transform="translate(-168.13 -39.52)"/><path class="cls-49" d="M273.19,216.07c3.78.63,5.72-1.66,7.37-4.57a30.06,30.06,0,0,1,2.47-3.32c2.25,2.08,2,3.73-.36,5.81-6.47,5.69-15.61,6.4-22.39,1.41,4.09,1.06,8,3,12.44,2.31C275,217.38,273.53,216.75,273.19,216.07Z" transform="translate(-168.13 -39.52)"/><path class="cls-50" d="M329.82,209.83c-1.25-3-4.48,0-6-2a3.67,3.67,0,0,1,2.72-1,4.93,4.93,0,0,0,4.68-4.13c.39-1.69,1.2-3.4,3.24-2.74s1.77,2.41.89,4c-.74,1.78-3,2.46-3.26,4.6Z" transform="translate(-168.13 -39.52)"/><path class="cls-48" d="M255.7,210.33c-.6,2.81,2.56,3.21,3.3,5.17.27.54.86,1.16.75,1.61-.21.9-1,.42-1.47.15-1.39-.77-2.79-1.56-4.1-2.46-3.47-2.37-4.06-5.46.38-8.43a11.66,11.66,0,0,0,1.12-1l.31.31c.73,1.85-1.17,2.46-1.74,3.7-.2.44-.56,1-.06,1.3S255,209.74,255.7,210.33Z" transform="translate(-168.13 -39.52)"/><path class="cls-51" d="M318.29,199.47c-3.32,1.41-5.25,4.34-7.42,7-1.3,1.59-.08,3,.68,4.39a3.3,3.3,0,0,1-2.89-3.07c.83-3.76,6.39-9,9.6-9.09.26.17.36.34.28.52S318.38,199.47,318.29,199.47Z" transform="translate(-168.13 -39.52)"/><path class="cls-52" d="M318.29,199.47l0-.8a2.91,2.91,0,0,1,3.21-2,1.53,1.53,0,0,1,.39.91c.07,1.1.9,1.46,1.76,1.68,3.5.87,4.52,3.07,3.27,6.52a4.54,4.54,0,0,0,3.57-3.76,3.9,3.9,0,0,1,1.88-3.11,8.34,8.34,0,0,1,5.11-.06c2.76,3.17.1,4-2.14,5.07,0-.75,0-1.5-.1-2.25s-.49-1.42-1.4-1.42-1.23.67-1.48,1.42c-2,6-2.27,6.17-8.55,6.14-1.31-.82-1.91-1.74-.29-2.84,2.8-1.92.8-2.63-.88-2.85A5.8,5.8,0,0,1,318.29,199.47Z" transform="translate(-168.13 -39.52)"/><path class="cls-53" d="M321.57,197.21a3.45,3.45,0,0,0-.1-.56,19.39,19.39,0,0,1,13.45.26c1.08.41,2.15.65,2.53,1.92-1.62,1.29-3.56.09-5.27.66-1.57-1.21-3.39-1.32-5.28-1.35S323.15,198.62,321.57,197.21Z" transform="translate(-168.13 -39.52)"/><path class="cls-54" d="M255.7,210.33c-1.16.39-.08,2.49-1.77,2.38a1.57,1.57,0,0,1-1-1c-.39-1.22-.48-2.56.61-3.46.94-.78,2.23-1.17,2.46-2.61,1.52-.23,3.06-.7,4.44.44C259,207.67,256.59,208.16,255.7,210.33Z" transform="translate(-168.13 -39.52)"/><path class="cls-55" d="M307.74,238.86c2.95.56,5.69.9,8.33,1.63,2,.54,2.31,2.09.61,3.32a38.28,38.28,0,0,1-11.05,5.91c-5.17,1.63-10.46,1.86-15.73,2.58-.88.13-1.86.33-2.42-.52-.7-1.08.46-1.56,1-2.1,3.85-3.81,8.42-6.7,12.92-9.62C303.24,238.87,305.87,239.84,307.74,238.86Z" transform="translate(-168.13 -39.52)"/><path class="cls-56" d="M269.86,207c-.43-1.19-2.6-1.67-1.61-3.37s2.74-1.26,4.09-.85a68.83,68.83,0,0,1,6.93,2.81,2.17,2.17,0,0,1,1.49,2c-.12,3-1.88,5.13-4.15,6.76-2,1.43-4.06.83-5.93-.5-.7-.5-1.63-1-1.55-2s1.2-1.09,2-1.31c1.22-.33,2.8-.61,2.36-2.27-.36-1.36-1.73-1.66-3.1-1.16A3.41,3.41,0,0,0,269.86,207Z" transform="translate(-168.13 -39.52)"/><path class="cls-57" d="M321.57,197.21c2.84,0,5.69-.06,8.53,0,1.48,0,2.88.2,2.08,2.32-1.05,2.24-.48,5.21-3.33,6.67-1.32.66-2.74,1.43-3.74.42s.93-1.38,1.26-2.17c1.19-2.87-.47-3.74-2.93-4.18C320.4,199.69,320.2,199.28,321.57,197.21Z" transform="translate(-168.13 -39.52)"/></svg>