<svg id="Capa_1" data-name="Capa 1" xmlns="http://www.w3.org/2000/svg" viewBox="0 0 263.75 430.48"><defs><style>.cls-1{fill:#fefefe;}.cls-2{fill:#ae365c;}.cls-3{fill:#cabebe;}.cls-4{fill:#d4a6b4;}.cls-5{fill:#eae5e5;}.cls-6{fill:#d090a4;}.cls-7{fill:#a6a2a3;}.cls-8{fill:#ecd7dd;}.cls-9{fill:#d2cfd0;}.cls-10{fill:#d2d0d0;}.cls-11{fill:#e6d5d9;}.cls-12{fill:#eed1da;}.cls-13{fill:#dac8cb;}.cls-14{fill:#ead9de;}.cls-15{fill:#d6cccb;}.cls-16{fill:#dad7d8;}.cls-17{fill:#512927;}.cls-18{fill:#7c5c5a;}.cls-19{fill:#8e7877;}.cls-20{fill:#f37198;}.cls-21{fill:#aba7a9;}.cls-22{fill:#4f2a29;}.cls-23{fill:#c3a1a5;}.cls-24{fill:#6c6466;}.cls-25{fill:#554d4e;}.cls-26{fill:#e7d1d1;}.cls-27{fill:#b8a2a3;}.cls-28{fill:#f07299;}.cls-29{fill:#ee95af;}.cls-30{fill:#ac355b;}.cls-31{fill:#ad365c;}.cls-32{fill:#3f201e;}.cls-33{fill:#1b0f14;}.cls-34{fill:#b43b60;}.cls-35{fill:#40201f;}.cls-36{fill:#782e3e;}.cls-37{fill:#432220;}.cls-38{fill:#40201e;}.cls-39{fill:#341e1e;}.cls-40{fill:#6c5452;}.cls-41{fill:#281a1d;}.cls-42{fill:#766566;}.cls-43{fill:#7e5e5d;}.cls-44{fill:#3f1f1e;}.cls-45{fill:#9e9192;}.cls-46{fill:#7a2e3f;}.cls-47{fill:#080504;}.cls-48{fill:#441b1b;}.cls-49{fill:#3d201e;}.cls-50{fill:#812f42;}.cls-51{fill:#311413;}.cls-52{fill:#40201d;}.cls-53{fill:#3e2321;}.cls-54{fill:#321917;}.cls-55{fill:#9b4759;}.cls-56{fill:#431b19;}.cls-57{fill:#e5d5d3;}.cls-58{fill:#b3566d;}.cls-59{fill:#cf5379;}.cls-60{fill:#5e5557;}.cls-61{fill:#2b1d20;}.cls-62{fill:#512a28;}.cls-63{fill:#271c1f;}.cls-64{fill:#2a1e22;}.cls-65{fill:#271a1c;}.cls-66{fill:#1a0f13;}.cls-67{fill:#25191c;}.cls-68{fill:#b24165;}.cls-69{fill:#f07097;}.cls-70{fill:#120e10;}.cls-71{fill:#080406;}.cls-72{fill:#fc77a2;}.cls-73{fill:#191214;}.cls-74{fill:#070303;}.cls-75{fill:#5e454b;}.cls-76{fill:#f5f5f5;}.cls-77{fill:#2b2f2f;}.cls-78{fill:#2c1514;}.cls-79{fill:#f4f2f1;}.cls-80{fill:#090604;}.cls-81{fill:#1b1013;}.cls-82{fill:#a01544;}.cls-83{fill:#f8759d;}</style></defs><path class="cls-1" d="M258.69,467.63q-51.93,0-103.86.06c-2.25,0-2.7-.45-2.7-2.71q.09-212.52,0-425.06c0-2.25.45-2.71,2.7-2.71q129.17.12,258.34,0c2.25,0,2.7.46,2.7,2.71q-.09,212.53,0,425.06c0,2.26-.45,2.73-2.7,2.72-17.25-.12-34.5-.07-51.74-.07-.41-1.76,1.46-2.06,2-3.19.2-.28.42-.55.64-.82s.41-.58.62-.87c3-2.64,4.52-6.32,6.73-9.52,1.17-1.53.92-3.33,1-5.06.12-8.88-.22-17.77.17-26.64a4.49,4.49,0,0,1,.45-1.24,9.67,9.67,0,0,0,2.45-7.28c-.12-5.92.15-11.85-.1-17.76-.17-4.17.55-7.73,4-10.38a6.51,6.51,0,0,0,1.6-2.09,18,18,0,0,0,1-1.69,12.84,12.84,0,0,0,1-4.75q0-20.86,0-41.73a7,7,0,0,0-.57-3.29c-.32-.53-.7-1-1.06-1.5a2.83,2.83,0,0,1-.63-1.35c-.12-6.65-5.26-10-9.42-13.76-3.18-2.88-7.81-3.13-11.77-4.58-2.08-.76-4.24-1.34-6.31-2.22-5.94-2.49-12.52-3.45-17.71-7.75-1.18-1-3.23-.45-4.44-1.77-.44-.35-.87-.72-1.34-1-1.82-1.17-4.21-.8-6-2.18a3.7,3.7,0,0,1-1-1.66c-.41-10.11-.24-20.21-.1-30.32.18-1.79,1.64-2.86,2.43-4.3,1.75-1.7,2.3-4.16,3.73-6.06,2.42-3.23,4-3.41,7.11-.9,1.56,1.26,3.11,2.95,5.23,1.08s4.42-3.57,2.74-7c-1.17-2.38-.35-4.63,2.08-5.09,4.1-.79,6.45-3.67,9.08-6.31,1.68-1.69,3.58-3.18,4.74-5.33a6.54,6.54,0,0,1,.62-.93c3.73-7.49-.45-13.2-4.29-19a32.94,32.94,0,0,0-2.55-2.76c-.77-.88-1.53-2-1.07-3.06,1.6-3.67.54-7.76,2-11.41,2.39-4.24,3.53-9,5.61-13.38a6,6,0,0,0,1.65-3.32c.9-8-.06-15.52-5.47-21.9-2.07-2.43-2.54-4.83-.52-7.47a4.47,4.47,0,0,0,.78-2.84c0-6,.44-12.1-.15-18.08-.43-4.37-3.06-8.08-5.91-11.51A46.72,46.72,0,0,0,331.06,100c-2.82-1.47-5.74-2.33-8.95-1.49a8.84,8.84,0,0,1-4.45.11,7.86,7.86,0,0,0-5.14.34c-4.86,2.12-10.34,2.68-14.73,5.94-1,.57-2.23.79-2.88,1.91-.3.39-.62.76-1,1.13s-.66.74-1,1.1-.7.76-1,1.12A27.37,27.37,0,0,0,282,125.4a6,6,0,0,1-2.56,3.1,17.91,17.91,0,0,0-6.22,5.29,19.31,19.31,0,0,1-8.23,6.84c-2.94,1.18-4.94,3.75-7.1,6-2.91,3-6.19,5.59-8.56,9.07-1.36,1.3-1.68,3.14-2.45,4.76-2.18,4-5,7.79-4.51,12.79a5.15,5.15,0,0,1-.64,2.9,7.19,7.19,0,0,0-1.58,4.9,88.64,88.64,0,0,1,0,10.18c-.68,7.26,1.41,13.81,4.53,20.17a4.7,4.7,0,0,1,.12,4c-3.53,9.15-1.73,18.46,4.79,24.84,1.89,1.84,4,3.63,3.14,6.76-3.55,6.52-1.93,9.4,5.76,10.08a7.26,7.26,0,0,1,4.66,2.08c2,1.93,3.87,3.89,5.82,5.83s2.63,3.9,1.7,6.45a4.37,4.37,0,0,1-.6,1c-2,1.72-.68,4.36-1.75,6.33a11.35,11.35,0,0,1-.93,1.53,13,13,0,0,0-1,7c.52,7,.23,14,.2,21.07,0,3.68-2.62,5.74-5.7,4-6.06-3.41-11.1-.36-16.38,1.59a51.13,51.13,0,0,0-7.34,3.64c-.71.43-1.51.68-2.21,1.12l-1.1.61c-3.65,3.11-6.84,6.69-10.25,10-1.82,1.78-2.2,4.2-2.21,6.62q-.06,21.18,0,42.35a4.87,4.87,0,0,0,.41,2.57c4.13,7.18,3.38,14.31,0,21.54-3.67,7.9-6.34,16-5.83,25,.33,5.78.26,11.6,0,17.39-.24,5.56,2.56,8.94,7.11,11.36,6.13,2.1,12.32,2.34,18.3-.24,4.27-1.85,8.63-1.83,12.93-1.12C259.43,455.61,261.43,461.92,258.69,467.63Z" transform="translate(-152.13 -37.21)"/><path class="cls-2" d="M332,467.63H261.72a2.94,2.94,0,0,1-1.76-3c.33-3.51-.69-6.76-1.7-10a1.48,1.48,0,0,1,.78-1c2.5-.63,5-.1,7.47.18,20.29,2.38,40.54,5.16,60.85,7.43a29.72,29.72,0,0,1,5.92,1c2.3,1.34,1,2.84.19,4.31A9.35,9.35,0,0,1,332,467.63Z" transform="translate(-152.13 -37.21)"/><path class="cls-3" d="M332,467.63l.87-1c1.45-2.44,3.64-3.18,6.38-3.15,5.91.09,11.82-.08,17.73.07a9.1,9.1,0,0,0,7.63-3.3c3.45-4,5.9-8.27,5.62-13.88-.32-6.53,0-13.08-.09-19.63,0-2.8.15-5.52,1.6-8a8.46,8.46,0,0,0,.7-4.42c0-6.54-.07-13.09,0-19.63.06-3.27.36-6.54,2.37-9.34a6.24,6.24,0,0,1,.91-.87l.49-.36c.3-.27.61-.52.92-.78l.44-.4a7.3,7.3,0,0,0,.8-.87,8.86,8.86,0,0,0,1.09-1.43,8.38,8.38,0,0,0,.47-2.21c.07-13,1.54-26,.51-39-.23-2.85-.07-5.7-1.11-8.42-1.74-3.91-2.23-8.2-5.79-11.53A22.63,22.63,0,0,0,362.83,314c-3.8-2.1-8.56-2-12-5a1,1,0,0,1,0-1.1c.31-.22.67-.53,1-.44,6.38,1.83,13.24,3.07,18.77,6.36,4.61,2.73,9.94,6.61,10.05,13.5a4.34,4.34,0,0,0,.85,2.07,7,7,0,0,1,.76.95,7.24,7.24,0,0,1,1,2.33c0,.44.05.88.05,1.33q0,21.78,0,43.54a7.65,7.65,0,0,1-.72,3.79,4.93,4.93,0,0,1-.41.83q-.27.34-.57.66l-.24.35c-.15.22-.32.45-.48.66l-.27.3-.55.55-.27.27-.54.53-.27.27c-.17.19-.35.36-.53.54l-.27.27c-.17.19-.36.38-.54.56l-.27.29-.55.62-.27.34c-.16.26-.31.53-.45.8a3.64,3.64,0,0,0-.31.95c-.05.76,0,1.51,0,2.27,0,7.17-.09,14.34,0,21.5a9.43,9.43,0,0,1-2.29,6.92h0a16.61,16.61,0,0,0-.71,7.78c.65,7.15.09,14.3.33,21.45.06,1.92-.91,3.34-1.9,4.79-1,3.68-3.68,6.28-6.06,9.07-.26.24-.48.52-.76.75h0a10.21,10.21,0,0,1-7.33,2.34c-5.91-.14-11.82-.06-17.73,0-1.5,0-3-.21-4.38.75Z" transform="translate(-152.13 -37.21)"/><path class="cls-4" d="M258.69,467.63c-.23-12.55-5.79-15.49-17.63-10.39-5.87,2.52-12.46,2.28-18.66-.18a.9.9,0,0,1,.27-1,2.43,2.43,0,0,1,1.08-.36,3.76,3.76,0,0,1,1.11.14c4.43.31,8.85.12,13.27.1a4.27,4.27,0,0,0,1-.23c.46-.18.93-.35,1.39-.56.28-.19.57-.36.86-.53a6.08,6.08,0,0,1,.92-.46,5.23,5.23,0,0,1,1-.28c2.45-.36,5,.22,7.4-.49a6,6,0,0,1,1.1-.22,7.53,7.53,0,0,1,2.32.12,4.14,4.14,0,0,1,1.14.38c3.5,1.21,5.26,3.63,4.92,7.38-.19,2.21,1.07,4.4,0,6.6Z" transform="translate(-152.13 -37.21)"/><path class="cls-5" d="M335,467.63c1.06-2,3-1.41,4.65-1.53,8.26-.6,16.68,1.52,24.79-1.52l-3,3.05Z" transform="translate(-152.13 -37.21)"/><path class="cls-6" d="M260.21,467.63c-1.12-4.93,1.31-11.43-6-13.63,1.78-1.46,3.18-.69,4.46.77,3.81,3.62,1.3,8.75,3.06,12.86Z" transform="translate(-152.13 -37.21)"/><path class="cls-7" d="M360.66,179.46c-1.56,4.37-2.5,9-5.26,12.88-2.51,3.61-.86,8.11-2.55,11.95-.52,1.16,1.12,2.11,2,3a24.93,24.93,0,0,1,7.3,16,10.35,10.35,0,0,1-1.47,6.12h0c-2.11,2.86-4.85,5.11-7.3,7.64-.23.2-.48.4-.73.58l-.36.28c-.21.21-.44.4-.66.6l-.31.3a7.21,7.21,0,0,1-.66.58,3.88,3.88,0,0,1-.72.47,9.52,9.52,0,0,0-1.15.58,3.29,3.29,0,0,1-.82.27,5.64,5.64,0,0,0-1.67.34,10.74,10.74,0,0,0-1.22.38c-.55.18-1.07.43-1.6.65a8.76,8.76,0,0,1-.82.39,6.58,6.58,0,0,1-.87.35,4.23,4.23,0,0,1-.93.17c-1.41.1-2.77-.78-4.2-.15a5.27,5.27,0,0,0-1.15.8,7.25,7.25,0,0,1-1.11,1,1.37,1.37,0,0,1-1.05,0,2.6,2.6,0,0,1-.51-1c.78-3.59,2.08-5,5.6-4.56,7,.87,11.46-2.88,15.91-7.49a12.62,12.62,0,0,0,3.73-10.84,16.85,16.85,0,0,0-5.22-10.6c-3.22-3-3.83-5.53-2.7-9.86,1.27-4.89,2.45-9.71,4.73-14.22,4-6.89,4.77-14.43,3.77-22.07a15.82,15.82,0,0,0-5.1-9.38,5.2,5.2,0,0,1-.74-.94,4.38,4.38,0,0,1-.5-1.1c-.49-2.29.27-4.39.73-6.61,1.89-9.14,3.15-18.44-1.65-27.07A31.44,31.44,0,0,0,337,105.56c-2.61-1.22-5.24-2.39-7.3-4.51a1.22,1.22,0,0,1,0-1.17,1.93,1.93,0,0,1,1.76-.19,45.17,45.17,0,0,1,19.73,14c3.3,4.13,6.05,8.59,5.74,14.31-.23,4.15,0,8.32-.05,12.48,0,2.5.16,4.93-1.59,7.18-1.47,1.89-.32,3.6,1.14,5.31C362.9,160.58,363.9,170.54,360.66,179.46Z" transform="translate(-152.13 -37.21)"/><path class="cls-8" d="M222.47,456.3c0,.25,0,.51-.07.76-4.47-2.51-7.76-5.69-7.55-11.43.37-10.18-.25-20.46,1.05-30.51.8-6.18,4.92-11.86,6.57-18,1.4-5.25-.76-10.65-1.33-15.89-1.82-16.8-2.74-34,.55-50.68,1-5,7.4-9.52,12.82-12.67a2.53,2.53,0,0,1-.29,2.54c-3.12,3.06-6.59,5.78-9.18,9.41a7.31,7.31,0,0,0-1.52,4.49q0,22.08,0,44.16a6.21,6.21,0,0,0,.23,2.62c3.67,8,2.78,15.72-1.07,23.43-1.72,3.46-3,7.18-4.69,10.67-.87,2.18-.49,4.47-.5,6.71q0,13,0,26a10.38,10.38,0,0,0,.09,1.11c.14.46.3.94.44,1.41.12.25.23.53.35.78s.28.46.44.68l.24.3c.18.18.34.37.51.56,0,0,.25.27.26.27a6.14,6.14,0,0,1,.5.52s.25.26.26.26c.17.16.34.33.5.51,0,0,.24.26.25.25a6,6,0,0,1,.49.52s.23.28.24.27a2,2,0,0,1,.36.63Z" transform="translate(-152.13 -37.21)"/><path class="cls-9" d="M360.66,179.46c1.61-10,2-19.76-6.05-27.71a3,3,0,0,1-.45-2.77c3.33-5.52,1.38-11.57,2-17.35,1.34-13.46-7.11-20.92-16.87-27.48a70.73,70.73,0,0,0-8.05-4.1l-.25-.46.35-.4c11.9,4,21.59,11.49,25.35,23.3,2.48,7.79,2.79,17-.82,25.29-.89,2.05-.23,3.47,1.18,5.06,6.08,6.83,6.8,15.07,5.68,23.65C362.56,177.55,361.36,178.47,360.66,179.46Z" transform="translate(-152.13 -37.21)"/><path class="cls-10" d="M251.78,247.42c.53-2.36-.5-4-2.16-5.63-7.93-7.75-9.61-16.54-6-27.24,1.06-3.13-2-7.87-3.65-11.64-1.82-4.06-1.25-24.78,1.18-27.36l.47.46c.11,6,.31,12-.08,18-.37,5.65,1.7,10.53,3.43,15.6a6.88,6.88,0,0,1,.68,6.15c-3.69,9.54-1,17.61,5.63,24.78a12.48,12.48,0,0,1,2.22,2.55c.95,1.84,1.29,3.62-1.2,4.61Z" transform="translate(-152.13 -37.21)"/><path class="cls-11" d="M233.77,319.38c.24-.51.49-1,.74-1.53h0c.44-.41,1.13-.29,1.53-.77,5.84-3.37,11.73-6.61,18.56-7.5a4.4,4.4,0,0,1,2.59.17c9,5.31,8.49-.67,8.32-6.76-.18-6.72,0-13.45,0-20.17,0-1.42,0-2.8,1.53-3.54.14.16.28.33.41.5a2.92,2.92,0,0,1,.22,1.27c-.07.43-.15.86-.21,1.29,0,9.63-.4,19.27.24,28.9a3.54,3.54,0,0,1-.09,1.88c-1.85,3.11-4.65,2.82-7.22,1.54a12.67,12.67,0,0,0-10.52-.59c-4.4-.14-7.54,2.9-11.26,4.46C237.05,319.17,235.64,320.7,233.77,319.38Z" transform="translate(-152.13 -37.21)"/><path class="cls-12" d="M381.79,330c-3.26-2.35-1.91-6.64-4.42-9.66-7-8.45-17.21-9.24-26.51-12.3-.7.46-1.37.15-2.05-.08-3.54-1.38-7.77-1-10.62-4.12a7.4,7.4,0,0,1-.82-.66c-.26-.22-.51-.46-.75-.7-1.16-2.42-4.72-1.08-5.77-3.68a2.08,2.08,0,0,1,0-1l.35-.39c10.67,5.76,22,9.88,33.53,13.5,9.39,3,15.52,8.32,17.05,18.31.24.19.32.37.23.54S381.88,330,381.79,330Z" transform="translate(-152.13 -37.21)"/><path class="cls-13" d="M344.86,240.78l1.49-.13c.65-.56,1.62,0,2.25-.66h0c.37-.48,1.09-.3,1.45-.8l0,0a6.21,6.21,0,0,0,.74-.71l0,0,.76-.72h0c.24-.26.49-.5.75-.75l8.3-7.58c-3.75,5.08-7.21,10.47-13.89,12.21-1.75.45-3.43,1.55-2.28,3.4,2.93,4.69-.32,7.13-3.28,9.33s-4.77-.57-6.69-2.31c-3.47-3.14-4.08.92-5.5,2.36-1.26,1.28-2,3.07-3,4.64l-.43-.37c.16-4.5,5-11.6,8.58-12.64,1,.78.82,2,1.19,3,.79,2.19,2.33,3.67,4.76,3.16,2.17-.45,2.92-2.89,2.09-5.49-.45-1.43-2-2.79-.44-4.43h0a3.49,3.49,0,0,1,.81-.72,5.35,5.35,0,0,0,.7-.08C343.73,241,344.42,241.18,344.86,240.78Z" transform="translate(-152.13 -37.21)"/><path class="cls-14" d="M373.53,420.75c3.2-10,.64-20.21,1.55-30.29.43-.42.25-1.11.67-1.54,0-.24,0-.47.06-.71a9.93,9.93,0,0,1,.73-.72l0,0c.23-.25.48-.5.73-.73l0,0a8.38,8.38,0,0,1,.73-.73l0,0a8.27,8.27,0,0,1,.72-.73l0,0a8.27,8.27,0,0,1,.73-.72l0,0a9.93,9.93,0,0,1,.72-.73l0,0a10.05,10.05,0,0,1,.73-.73l0,0,.4-.33.38.36c-9.31,9-4.09,20.55-5.28,31C376.28,416.66,376.21,419.21,373.53,420.75Z" transform="translate(-152.13 -37.21)"/><path class="cls-13" d="M360.67,229.38c1.62-8.58-1-15.59-6.55-22.37-3.61-4.41-1.42-9.95,1.28-14.67-3.91,9.28,1.18,16.23,5.67,23.59C363.65,220.15,364.47,225,360.67,229.38Z" transform="translate(-152.13 -37.21)"/><path class="cls-15" d="M269.91,271.63c.37-5.37-7.17-13.43-12.81-13.47-3.41,0-5.93-1.53-7.17-4.46a4.76,4.76,0,0,1,1.85-6.28l.23.22c.07.1.19.2.2.31.64,6.58.64,6.59,7.11,7.72a6.26,6.26,0,0,1,3.32,1.59c2.91,2.73,5.76,5.53,8.4,8.52,2.13,2.42,1.85,4.14-.62,6.13Z" transform="translate(-152.13 -37.21)"/><path class="cls-9" d="M296.46,104.59a45.8,45.8,0,0,1,32-6.81,10.47,10.47,0,0,1,2.87,1.41l-.23.25c-3.47,1-7,.21-10.46.09-6.77-.24-12.67,2.49-18.75,4.71-1.62.59-3,2-4.93,1.4A.91.91,0,0,1,296.46,104.59Z" transform="translate(-152.13 -37.21)"/><path class="cls-12" d="M323.71,262q0,16.21,0,32.44l-.62.21-.56-.33-.4-.51a9.72,9.72,0,0,1-1.05-4.31c-.47-7.68.77-15.35.12-23-.09-1.14.5-2.17.74-3.26a2.74,2.74,0,0,1,.62-1.12A.89.89,0,0,1,323.71,262Z" transform="translate(-152.13 -37.21)"/><path class="cls-14" d="M382.56,380.61c0-.49,0-1,0-1.46a4,4,0,0,0,.37-2.56q0-20.89,0-41.79a3.89,3.89,0,0,0-.38-2.55h0c-.51-.56-.35-1.24-.31-1.89l.31-.38c1.54.75,1.52,2.14,1.52,3.56,0,14.57,0,29.15-.07,43.72,0,1.65-.93,3.28-1.43,4.92l-.33-.31A1.47,1.47,0,0,1,382.56,380.61Z" transform="translate(-152.13 -37.21)"/><path class="cls-16" d="M257.12,146.16,279,127.91l.29.46c-4.32,4.42-6.77,10.8-13.23,12.95-3.19,1.06-4.71,4.45-8,5.31A1.62,1.62,0,0,1,257.12,146.16Z" transform="translate(-152.13 -37.21)"/><path class="cls-14" d="M371.25,454.77c2.76-8.22,1.37-16.64,1.07-25-.12-3.13-.86-6.24,1.21-9,0,9.65,0,19.3,0,28.94C373.56,451.79,373.48,453.74,371.25,454.77Z" transform="translate(-152.13 -37.21)"/><path class="cls-16" d="M279,127.91c4.13-6.4,5.4-14.75,12.89-18.84l.37.43a2.32,2.32,0,0,1,.05,1.11c-.88,2.18-3,3.36-4.32,5.13a24.18,24.18,0,0,0-4.23,8.71c-.58,2.2-1.52,4.36-4.56,3.71Z" transform="translate(-152.13 -37.21)"/><path class="cls-10" d="M241.17,175.55a21.15,21.15,0,0,1,5.29-15.88l.44.41a3.62,3.62,0,0,1-.5,3.21c-1.51,2.89-2.81,5.79-2.64,9.21.07,1.43-.34,3.06-2.34,3.25Z" transform="translate(-152.13 -37.21)"/><path class="cls-10" d="M257.12,146.16l.83,0c-1.43,4.52-4.85,7.15-8.79,9.28l-.43-.33C250.73,151.4,254.14,149,257.12,146.16Z" transform="translate(-152.13 -37.21)"/><path class="cls-11" d="M267.7,278.5c.55-2.24-1.13-5,1.59-6.72a3.1,3.1,0,0,1,.81,2.85,6.58,6.58,0,0,1-.21,1c-.27.77-.43,1.57-.71,2.34a2.11,2.11,0,0,1-.6.76l-.48.07Z" transform="translate(-152.13 -37.21)"/><path class="cls-12" d="M324.44,295.15c2.14,0,4.27.09,6.05,1.52-.11.13-.22.26-.32.4-1.75.94-3.36,0-5-.36a2.64,2.64,0,0,1-.83-.6c-.05-.17-.09-.34-.13-.51Z" transform="translate(-152.13 -37.21)"/><path class="cls-10" d="M246.46,159.67a4.88,4.88,0,0,1,2.27-4.53l.24.19c.77,2.28.11,3.84-2.26,4.54Z" transform="translate(-152.13 -37.21)"/><path class="cls-13" d="M323.71,262l-.79,0c-.26-2.19.88-3.07,2.91-3.11l.24.2Z" transform="translate(-152.13 -37.21)"/><path class="cls-16" d="M296.46,104.59v.76c0,.13,0,.25-.05.38a2.42,2.42,0,0,1-.4.65l-.26.28a3.12,3.12,0,0,1-.64.43l-.37.08-.38-.07-.24-.3A2.3,2.3,0,0,1,296.46,104.59Z" transform="translate(-152.13 -37.21)"/><path class="cls-15" d="M269.28,275.53c0-1.25,0-2.5,0-3.75l.62-.15.25.21C271.06,273.36,271.67,274.8,269.28,275.53Z" transform="translate(-152.13 -37.21)"/><path class="cls-8" d="M236,317.09l-1.53.77Z" transform="translate(-152.13 -37.21)"/><path class="cls-11" d="M267,279.29l.71-.79.07.06.21.52-.38.41-.54-.14Z" transform="translate(-152.13 -37.21)"/><path class="cls-12" d="M323.69,294.4l.75.75-.06.07-.53.17-.4-.4.18-.53Z" transform="translate(-152.13 -37.21)"/><path class="cls-12" d="M330.49,296.67c.26.24.51.49.76.74l-.06.06-.53.19-.41-.39.18-.54Z" transform="translate(-152.13 -37.21)"/><path class="cls-14" d="M381.79,330c0-.27,0-.54,0-.8.25.26.5.51.74.77l0,0c-.26.35-.51.33-.76,0Z" transform="translate(-152.13 -37.21)"/><path class="cls-16" d="M293.38,107.56l.75-.76.07.06.3.4c-.08.15-.15.3-.22.45l-.48.12Z" transform="translate(-152.13 -37.21)"/><path class="cls-16" d="M292.63,108.32l.75-.76.07.06.29.4c-.07.15-.14.3-.22.44l-.48.13Z" transform="translate(-152.13 -37.21)"/><path class="cls-16" d="M291.88,109.07l.75-.75.07.06.29.4c-.06.15-.13.3-.2.45a.61.61,0,0,1-.85-.1Z" transform="translate(-152.13 -37.21)"/><path class="cls-14" d="M382.59,382.18l-.72.78-.05,0a.46.46,0,0,1-.18-.5c.06-.17.12-.25.18-.25h0c.23-.37.48-.38.73,0Z" transform="translate(-152.13 -37.21)"/><path class="cls-5" d="M364.43,464.59l.76-.75Z" transform="translate(-152.13 -37.21)"/><path class="cls-17" d="M334.15,463.33q-36.28-4.31-72.55-8.65a18.82,18.82,0,0,1-2.89-.8c-3-1.05-6-.82-9.17-.54a37.19,37.19,0,0,0-10.26,1.94c-4.78,1.78-10.27,2.11-15.28-.47,1.07-2.88,3.79-2.32,5.93-2.66,4-.64,4.27-1.13,3.38-5-1.05-4.53-1.56-9.19-5-12.75-.43-.44-.78-1-1.25-1.4a2.83,2.83,0,0,0-3.42-.75,2.43,2.43,0,0,0-1.15,3.25c2.14,5.4-.46,10-2.31,14.73-2.76-.82-2.56-3.38-2.32-5.19,1-7.92.23-15.84.52-23.75,0-.63,0-1.26,0-1.89.13-1.8.38-3.7,2.2-4.5,2-.89,2.88,1,3.93,2.16,5.77,6.15,11.86,12,17.85,17.89,1.11,1.1,2.1,2.56,4.33,2.39-.53-1.93-2-2.95-3.23-4.06-6.32-5.75-12.43-11.73-18.44-17.81-4.3-4.34-4.52-5.88-1.62-11.25.65-1.22,1.05-2.56,1.76-3.75a8.9,8.9,0,0,1,.61-.9c.09-.15.2-.3.29-.45a3.19,3.19,0,0,0,.52-2c.17-1.84-.18-3.73.45-5.53,6.72-5.55,9.15-13.9,13.52-21,7.32-11.83,13.88-24.1,20.88-36.11.88-2.16,2.36-4,3.38-6.07.78-1.16,1.9-2.13,2.06-3.66a8.49,8.49,0,0,1,.35-1.08c0-8.28,2.36-16.36,1.79-24.71a102.92,102.92,0,0,1-.4-12.33c.27-5.5,2.56-10.17,4-15.16.76-2.58.54-4.38-1.2-6.13-3.9-3.91-7.43-8.23-12.19-11.2a7.26,7.26,0,0,1-3.54-3.09,4.52,4.52,0,0,1-.67-3.6c.92-3.48-.92-5.59-3.37-7.67s-5.21-3.74-4.55-7.56a4.4,4.4,0,0,0,1.28-3.79c-.43-4.72,1.22-9.44-.24-14.2-.79-2.56,1.79-4.26,2.45-6.5a1.14,1.14,0,0,1,1.66-.21c2.71,2.14,5.88,3.72,8.07,6.5-1.06,1.44-2.34,1.13-3.63.4a6.17,6.17,0,0,1-1.14-1,8,8,0,0,0,1,.95c1.46,1.31,2.81,1.57,3.9-.44,2.57-1.62,5.38-.08,8.08-.63s5.51-1.16,6.34-4.25c.68-2.53-2.5-8.86-4.57-9.85-1-.5-1.9-.08-2.84.32-1.35.56-2.72,1.45-4.22.32-.36-1.06.34-1.61,1-2.18s2.18-.74,1.59-2.1c-.41-.94-1.55-.6-2.4-.65-3-.2-5.78,0-8.05,2.33a2.59,2.59,0,0,1-3.12.65c-1.35-.72-1.18-2-1.11-3.33.24-4.18,2.16-7.95,3.06-12,2.15-9.62,6.66-18.3,12.53-26.24,1-1.36,2.08-2.65,4-2.38s2.51,2,3,3.53c1.37,4.6,4.26,8.26,7.5,11.56,3.6,3.64,7.84,6.89,11.09,10.6s6.3,4.75,10.43,5.76c2.93.71,5.38,3.21,8.73,3.05,2.15,1.39,4.86,2.19,5.58,5.14-2.93-.18-3.77,3.92-6.89,3.36-.7-.93-.1-3-2.39-2.55s-5.36,3.51-5.36,5.59c0,1.2,1,2.38.09,3.6-2,.76-2.67-1.51-4.48-1.82-2.11,3.48-1.43,6.92.16,10.36-.49,2.33,1.33,3,2.82,3.14,9.38,1,18.3.18,25-7.69,2.93-3.27,3-5.23.39-8.49-1-1.27-2.35-2.24-3.37-3.5-1.64-2-1.23-3.19,1.31-3.47a35.11,35.11,0,0,1,7.46,0,4.58,4.58,0,0,1,2.47,1.28c2.12,3.34,3.71,6.78,2.7,11a4.41,4.41,0,0,0,1,4.17c2.26-2.46,4.51-5.15,8.42-4,1.71.81,3.43,1.6,4.07,3.62.14,2-1.38,3.14-2.48,4.47a35.15,35.15,0,0,0-7.75,16.11,5.62,5.62,0,0,0,1.21,4.9c2.05,2.56,1.37,3.71-2,4.3-1.56.27-3.69-.89-4.49,1.58a22.27,22.27,0,0,0-3.8,8.62c-3.44,3.82-5,8.91-8.57,12.68-1.43,1.52-1.6,3.59-1.59,5.66,0,7.28,0,14.56,0,21.84,0,6.64,1,7.94,7.47,9.61a4.51,4.51,0,0,1,2,1,4.7,4.7,0,0,1,.78.94c.07.19.15.38.22.56a1.33,1.33,0,0,1-.48,1c-6.76,1.61-14-3.57-14.38-10.59a70.67,70.67,0,0,1,.33-13.94,35.1,35.1,0,0,0-.19-11.33c-1.05,3.1-3.47,4.31-6.21,5.43-6.08,2.48-12.1,4.95-18.9,4.06-.92-.12-2.17-.28-2.54,1s.53,2.15,1.57,2.67a44.15,44.15,0,0,0,8.73,3.51c7.64,2,11.61,7,12.38,14.7.72,7.26.43,14.33-3.77,20.72-1.44,2.18-2.62,4.5-5.87,2.7-1.37-.76-1.35.51-1.54,1.32-1.1,4.88-2.82,9.4-7.14,12.43a2.27,2.27,0,0,0-.82,3.26,4,4,0,0,1,.57,3.25,1.74,1.74,0,0,1-.77.77c-1.08,0-1.45-.91-2.06-1.5-1.38-1-1.68.14-2.09,1-.81,1.83-1.2,3.81-2,5.65-2.31,3.72-2.44,8.13-3.77,12.16-3.11,9.38-7.12,18.45-9.47,28.09-.47,1.92-1.87,3.56-2.34,5.54-2.62,11-7.23,21.36-10.26,32.22-.5,1.82-3.13,3.37-1.4,5.41,1.42,1.67,3.59.18,5.39.1,12.89-.56,25.74-1.57,38.6-2.75,11.37-1.05,22.86-.92,33.68,4,2.62,1.18,3.53-1.12,3.8-2.84.77-5.09,2.16-10.07,3-15.13.9-5.7,3.14-11.11,3.31-16.94a7.29,7.29,0,0,1,.31-2,6.19,6.19,0,0,0,.34-1.46c.76-8.29,1.68-9.22,9.9-9.16,4.18,0,8.26-.74,12.4-1,2.72-.16,4.86.42,4.45,3.89-2.37,8.45-1.05,17.1-1.42,25.66-.1,2.19.62,4.54-1.05,6.46-2,.83-1.94-.85-2.16-1.92a19.72,19.72,0,0,1-.14-4c.24,1.89-1,4.88,1.64,7.06-1.21,8.49-1,17-.72,25.54.1,2.56,1.07,5.3-1.14,7.52-2.1.06-1.8-1.65-2-2.86a47.22,47.22,0,0,1-.47-8.87c0,5.4,0,5.49-5.8,7.37-4,1.28-6.64,4-9,7.18-1.63,2.2-.93,3.8,1.8,4.33,4.3.86,8.27.65,10.95-3.69.54-.87,1.36-3.37,3.2-.92-2.58,6.73-6.13,8.8-13.21,8.28-5.62-.42-11.27-.06-16.91-.15C336.55,463.81,335.24,464.29,334.15,463.33Z" transform="translate(-152.13 -37.21)"/><path class="cls-18" d="M223.9,454.07c6.51,2.06,12.36,1.16,19-1.24,4.34-1.59,10.85-3.11,15.84,1.05,0,.3,0,.59,0,.89L254.2,454h0a1.85,1.85,0,0,0-2.25,0l-.81.06c-2.9,1-6-.32-8.9.73l-.15.1c-.24.19-.47.39-.7.6l-.08.06c-.36.46-1,.29-1.42.71l-.09.05a69.53,69.53,0,0,1-15.73,0l-.14-.07c-2.67-2-5.38-3.95-6.66-7.23q-.22-15.48,0-30.93c.06-4.34,2.5-8.09,4.27-11.88,2.36-5.06,4.42-10.07,4.15-15.76.52-1.13,1.24-1,2.06-.35a1,1,0,0,1,.08,1.21l-.09,6.78c-.43.39-.26,1.07-.7,1.45l0,.05a6.31,6.31,0,0,0-.64.73c-5.07,11.78-5,11.75,9.24,24.08,3.87,3.35,7.51,7,11.18,10.53,1.06,1,3.2,2.19,1.47,3.94-1.36,1.38-3.2.17-4.32-.89-4.55-4.31-9-8.73-13.41-13.19-2.82-2.87-5.46-5.9-8.21-8.83-1.82-1.93-2.36.32-2.37,1.11-.1,11.06-1.8,22.15.27,33.19l.36,0a1.74,1.74,0,0,1,.61.34s.27.24.27.23a5.79,5.79,0,0,1,.51.48l.24.25a4.53,4.53,0,0,1,.49.49s.24.25.25.24a5.79,5.79,0,0,1,.48.51s.23.27.23.27a1.59,1.59,0,0,1,.33.63Z" transform="translate(-152.13 -37.21)"/><path class="cls-19" d="M368.29,453.33c1.92-1.83,1.54-4.2,1.3-6.4a91.71,91.71,0,0,1,1-27.67v0c2.75-3,1.19-6.69,1.37-10.06.4-7.56-.74-15.22,1.72-22.63.49-2.37.68-5.09,4.35-4a.73.73,0,0,1,.12,1.05l0,0a6.14,6.14,0,0,0-.75.69l-.05.06q-.36.33-.69.69c-3.15,2.42-3.07,6.1-2.89,9.32,1.07,18.7-3.93,37.07-2.63,55.82.52,7.45-7.87,14.13-15.32,14.53-7.64.41-15.55-2.26-22.9,1.8.44-1.1.88-2.2,1.31-3.3,7.34.11,14.69.12,22,.34,6.33.2,9.47-3.46,11.34-8.87l0-.45a2.05,2.05,0,0,1,.4-.81Z" transform="translate(-152.13 -37.21)"/><path class="cls-20" d="M379.61,329.92c3.38,3.71,2,8.37,2,12.52.17,12.19-.31,24.38-.52,36.58,0,1.32-.2,2.52-1.53,3.19l-.44-.57c-.7-2.73-.12-5.5-.16-8.25-.18-13.58.24-27.16-.24-40.73a4.54,4.54,0,0,1,.38-2.21Z" transform="translate(-152.13 -37.21)"/><path class="cls-12" d="M382.57,332.25c1.69,4.48.76,9.14.67,13.68-.2,11.07,1.05,22.18-.66,33.22Q382.58,355.71,382.57,332.25Z" transform="translate(-152.13 -37.21)"/><path class="cls-20" d="M363,313.28c10,1.93,14.64,6.6,16.63,16.64l-.14.11c-2-.11-2.15-1.84-2.63-3.15-2-5.34-5.5-9-11-10.77-1.29-.41-2.71-.68-3.08-2.32Z" transform="translate(-152.13 -37.21)"/><path class="cls-20" d="M350.88,308.77l12.1,4.51-.1.15c-2.83,1.7-5.28,0-7.77-.95a12.84,12.84,0,0,1-3.93-2.17,1.9,1.9,0,0,1-.55-1C350.72,309.12,350.8,308.94,350.88,308.77Z" transform="translate(-152.13 -37.21)"/><path class="cls-20" d="M349.35,307.27l1.51.78c0,.24,0,.48,0,.72l-.08.09c-1.55.88-2.74.34-3.75-.93C347.42,306.32,348.42,306.93,349.35,307.27Z" transform="translate(-152.13 -37.21)"/><path class="cls-12" d="M381.79,330h.76c0,.74,0,1.49,0,2.24Z" transform="translate(-152.13 -37.21)"/><path class="cls-12" d="M382.56,382.15l-.73,0,.73-1.56Z" transform="translate(-152.13 -37.21)"/><path class="cls-12" d="M375.75,388.92l-.67,1.54Z" transform="translate(-152.13 -37.21)"/><path class="cls-20" d="M379.58,382.21l-.76.74-.15-.47a.74.74,0,0,1,.81-.37Z" transform="translate(-152.13 -37.21)"/><path class="cls-12" d="M381.82,382.17v.75h-.73C381.34,382.68,381.58,382.43,381.82,382.17Z" transform="translate(-152.13 -37.21)"/><path class="cls-20" d="M378.1,383.7l0-.83a.47.47,0,0,1,.66,0l.08.11Z" transform="translate(-152.13 -37.21)"/><path class="cls-12" d="M381.07,383l-.73.73Z" transform="translate(-152.13 -37.21)"/><path class="cls-20" d="M377.32,384.41l.75-.69Z" transform="translate(-152.13 -37.21)"/><path class="cls-12" d="M380.31,383.71l-.72.73Z" transform="translate(-152.13 -37.21)"/><path class="cls-20" d="M376.58,385.16l.69-.69Z" transform="translate(-152.13 -37.21)"/><path class="cls-12" d="M379.56,384.47l-.73.72Z" transform="translate(-152.13 -37.21)"/><path class="cls-12" d="M378.8,385.22l-.72.73Z" transform="translate(-152.13 -37.21)"/><path class="cls-12" d="M378.05,386l-.73.73Z" transform="translate(-152.13 -37.21)"/><path class="cls-12" d="M377.29,386.73c-.24.25-.48.49-.73.73C376.81,387.22,377.05,387,377.29,386.73Z" transform="translate(-152.13 -37.21)"/><path class="cls-12" d="M376.54,387.49l-.73.72Z" transform="translate(-152.13 -37.21)"/><path class="cls-6" d="M224,456.31l15.73,0A33.85,33.85,0,0,1,224,456.31Z" transform="translate(-152.13 -37.21)"/><path class="cls-6" d="M218,450.19l5.94,6.05-1.42.06-.06-.05c-.23-.23-.46-.46-.7-.68l-.06-.07-.69-.69-.07-.07q-.33-.35-.69-.69l-.07-.06q-.33-.36-.69-.69l-.06-.07c-.23-.23-.45-.46-.69-.69l-.07-.07-.68-.69-.06-.07a1.35,1.35,0,0,1-.28-1.25Z" transform="translate(-152.13 -37.21)"/><path class="cls-6" d="M242.19,454.77c2.85-1.71,5.93-.54,8.9-.73C248.23,455.55,245.14,454.37,242.19,454.77Z" transform="translate(-152.13 -37.21)"/><path class="cls-6" d="M251.9,454a1.4,1.4,0,0,1,2.25,0Z" transform="translate(-152.13 -37.21)"/><path class="cls-6" d="M239.84,456.24l1.42-.71Z" transform="translate(-152.13 -37.21)"/><path class="cls-6" d="M241.34,455.47l.7-.6Z" transform="translate(-152.13 -37.21)"/><path class="cls-21" d="M246.71,159.87l2.26-4.54,9-9.14c7.55-5.45,15.16-10.83,21.24-18,2.22-.71,3.29-2.17,3.73-4.54,1.05-5.79,5.26-9.64,9-13.73a4.21,4.21,0,0,1,.76-.76h0a3.6,3.6,0,0,1,.75-.76h0a4.15,4.15,0,0,1,.75-.76h0a6.73,6.73,0,0,1,.74-.77h0a7.4,7.4,0,0,0,.73-.75l0,0a7.53,7.53,0,0,0,.77-.72h0c11-5.33,22.24-8.8,34.6-5.91a2.55,2.55,0,0,1,.13.61l-1.57,0c-1.14,1.3-2.7,1-4.15,1.06-4.19.1-8.39-.13-12.57.13a18.05,18.05,0,0,0-2.21.78,18.1,18.1,0,0,1-2,.82c-.93.35-1.94.42-2.88.76-.73.24-1.48.42-2.19.72-.55.23-1.09.46-1.62.71l-1.56.74-1.51.76a7.87,7.87,0,0,0-1.41.94c-.33.3-.65.61-1,.93-.8.8-1.44,1.73-2.19,2.58A24.66,24.66,0,0,0,285,125.12a7.21,7.21,0,0,1-3.8,4.89,15.11,15.11,0,0,0-6,5.6,15.19,15.19,0,0,1-7.87,6.62c-4.73,1.9-7.88,5.65-11.2,9.24-.25.29-.53.55-.81.82l-.44.39c-5.2,5.48-8.86,11.71-9.57,19.4a7,7,0,0,1-.7,2.54c-4.27,8.09-1.44,16.78-2.1,25.18-.09,1.12.77,2.08,1.27,3.1,1.17,2.36,2.27,4.76,1.53,7.52a.69.69,0,0,1-1.06.09c-5.47-11.22-4.27-23-2.85-34.76C243.32,170.51,243.56,164.71,246.71,159.87Z" transform="translate(-152.13 -37.21)"/><path class="cls-22" d="M330.52,247.7c-.64-3.66,3-5.43,3.72-8.49,1.37-1.45,3.18-1.13,4.86-1.09a11.7,11.7,0,0,0,6.71-1.58c3.78-1.41,5.83-4.91,8.77-7.32l.73-.68a3.39,3.39,0,0,0,.78-1.23c.57-2.85-.39-5.67-.06-8.54.22-1.92-1.71-1.71-3-1.94-3.68-.65-4.22-1.41-2.48-4.51,1-1.69.27-2.8-.44-4.1l-3.79-3c.07-1.26,1.1-1.93,1.72-2.85a8.72,8.72,0,0,0,.72-1.26c.57-3,.76-6.06,1.79-9a7.93,7.93,0,0,1,.37-1c.6-1.39.83-3,2-4.09a4.85,4.85,0,0,1,1.18-.93,2.55,2.55,0,0,1,.94-.27,1,1,0,0,1,.78.51c-3.45,5.18-3.56,11.43-5.52,17.09-.77,2.21.71,3.31,2.18,4.68,5.64,5.26,8.36,11.91,6.3,19.41-1.81,6.58-12.91,13-19.78,12.47-3.28-.27-5.41.82-5.69,4.39A3.77,3.77,0,0,1,330.52,247.7Z" transform="translate(-152.13 -37.21)"/><path class="cls-23" d="M330.52,247.7l2.79-3.24.87,0a1.08,1.08,0,0,1,.44.73c0,.15-.05.3-.08.44l-.3.34a33.23,33.23,0,0,0-8.41,12.79l-2.91,3.11h0c-2.24,4.63-.46,9.58-1.05,14.37-.49,4.06,0,8.23-.12,12.35a11.48,11.48,0,0,0,1.15,5.78v0a3.47,3.47,0,0,1,.73.75h0a4,4,0,0,1,.75.73h0c1.92.83,4,.9,6,1.53h0a3.18,3.18,0,0,1,.77.74c1.25,2.52,5.21.71,6.08,3.84a9.13,9.13,0,0,1,.69.7v0a1,1,0,0,1,.23,1.28c-.56.58-1.15.35-1.73.05a8,8,0,0,1-1.09-.83c-.34-.27-.68-.55-1-.79s-1.05-.48-1.58-.74a2.71,2.71,0,0,1-1.27-1.21.94.94,0,0,1-.43-.36l-.34-.31c-9.72-1-11.86-7.17-10.83-15.65a17.83,17.83,0,0,0,0-5.26C317.61,266.53,323,256.76,330.52,247.7Z" transform="translate(-152.13 -37.21)"/><path class="cls-24" d="M329.79,100.71c9.61,4.32,18.82,9.27,23.41,19.46,3.77,8.36,2.54,17.21.93,25.83-.44,2.32-1.23,4.53-1,6.94a.9.9,0,0,1-1.09-.18c-1.06-1.44-.72-3.08-.7-4.68a6.83,6.83,0,0,1,.2-1.2,11,11,0,0,0,.57-2.33c.43-8.75,2.24-17.63-2.34-25.92a10.49,10.49,0,0,0-3-3.75c-1.54-2.57-4.19-3.93-6.33-5.84-2.67-2.45-6.38-3.05-9.22-5.18a5.94,5.94,0,0,1-1.61-1.3,2.09,2.09,0,0,1-.34-1l.12-.51Z" transform="translate(-152.13 -37.21)"/><path class="cls-25" d="M352.44,152.92a3.57,3.57,0,0,0,.73,0h0c.15.35.5.52.73.8,5.72,4.64,8.55,18.37,5.25,25-1.25,2.5-2.22,5.13-3.31,7.69a3.3,3.3,0,0,1-.62-.15c-2.09-3.18.25-5.62,1.37-8.27.1-.37.24-.74.37-1.1a53.88,53.88,0,0,0,0-13.84c-.74-2.22-2.34-4-3.21-6.14-.56-1.21-2.2-1.92-1.68-3.63Z" transform="translate(-152.13 -37.21)"/><path class="cls-23" d="M341.82,242.27c-.19,2.82,3.24,4.89,1.92,7.73-.9,2-2.44,4.14-5.23,3.32-3.57-1.06-4.86-3.69-4.27-7.3h0a17.64,17.64,0,0,1,1.4-1.47c.78-.44,1.56-.81,2.38-.08a1.51,1.51,0,0,1,0,1.5,4.57,4.57,0,0,1-.54.9c-.84.91-1.41,1.82.1,2.64a2.7,2.7,0,0,0,3.13-.15c1-.81.49-1.75.09-2.67-.51-1.16-1.93-1.06-2.62-1.95-.45-1.21-1.91-1.47-2.45-2.6C337.8,240.42,339.79,242.47,341.82,242.27Z" transform="translate(-152.13 -37.21)"/><path class="cls-24" d="M311.48,100.7c6-1.47,12.1-.36,18.15-.62.05.21.1.43.16.63l-.16.17c-1.6,1.44-3.58,1-5.42,1-3.89-.07-7.8.37-11.68-.29A2.34,2.34,0,0,1,311.48,100.7Z" transform="translate(-152.13 -37.21)"/><path class="cls-26" d="M338,244.57l-2.23.77a1.06,1.06,0,0,1-1.49-.09c0-.25-.06-.5-.11-.74s.13-.51.19-.77a9.15,9.15,0,0,1,.59-.8l.78-.79c1.4.18,3.54-.35,2.34,2.39Z" transform="translate(-152.13 -37.21)"/><path class="cls-23" d="M348.6,240l-2.25.66Z" transform="translate(-152.13 -37.21)"/><path class="cls-23" d="M350.05,239.2c-.49.26-1,.53-1.45.8C349.08,239.73,349.56,239.46,350.05,239.2Z" transform="translate(-152.13 -37.21)"/><path class="cls-23" d="M344.86,240.78l-1.55.68Z" transform="translate(-152.13 -37.21)"/><path class="cls-23" d="M342.61,241.54l-.81.72Z" transform="translate(-152.13 -37.21)"/><path class="cls-23" d="M350.83,238.46l-.74.71Z" transform="translate(-152.13 -37.21)"/><path class="cls-23" d="M351.61,237.72l-.76.72Z" transform="translate(-152.13 -37.21)"/><path class="cls-23" d="M352.37,237l-.75.75Z" transform="translate(-152.13 -37.21)"/><path class="cls-13" d="M335,242.94l-.59.8Z" transform="translate(-152.13 -37.21)"/><path class="cls-24" d="M353.88,153.75l-.73-.8Z" transform="translate(-152.13 -37.21)"/><path class="cls-6" d="M226.42,389.77c.58,9.09-4.83,16.34-7.6,24.38-1.08,3.14-.89,6.19-.92,9.27-.1,8.92,0,17.85,0,26.77l-.13.13c-.24.29-.46.27-.67,0l0-.08c-.76-8.61-.19-17.23-.3-25.84,0-3.22-.43-6.48.31-9.69,3.76-9.29,10.4-18.35,7.34-28.78-4-13.53-.45-27.12-2.19-40.51-1.48-11.32,2.38-19.68,11.5-26,5.61-1.12,9.58-6.51,15.77-6.12a1.1,1.1,0,0,1,.16,1.21c-2.63,2.91-6.41,3.85-9.74,5.48a38.83,38.83,0,0,0-9.48,6.73,15.86,15.86,0,0,0-5.39,12.69c.3,11.44.12,22.89.08,34.34a23.32,23.32,0,0,0,1.46,9.23C227.55,385.14,228,387.55,226.42,389.77Z" transform="translate(-152.13 -37.21)"/><path class="cls-4" d="M217.12,414.68q0,17.76,0,35.53A172.21,172.21,0,0,1,217.12,414.68Z" transform="translate(-152.13 -37.21)"/><path class="cls-4" d="M217.15,450.29a1.88,1.88,0,0,1,.67,0l.06,1.39C217.64,451.23,217.4,450.76,217.15,450.29Z" transform="translate(-152.13 -37.21)"/><path class="cls-4" d="M217.94,451.78l.68.69Z" transform="translate(-152.13 -37.21)"/><path class="cls-4" d="M218.69,452.54l.69.69Z" transform="translate(-152.13 -37.21)"/><path class="cls-4" d="M219.44,453.3l.69.69Z" transform="translate(-152.13 -37.21)"/><path class="cls-4" d="M220.2,454.05l.69.69Z" transform="translate(-152.13 -37.21)"/><path class="cls-4" d="M221,454.81l.69.69Z" transform="translate(-152.13 -37.21)"/><path class="cls-4" d="M221.71,455.57l.7.68Z" transform="translate(-152.13 -37.21)"/><path class="cls-27" d="M244.27,210.51l.9,0c3.06.77,2.62,3.14,1.88,5.07-2.07,5.37-2,10.6-.49,16.13.95,3.57,3.12,5.89,5.66,8.11,1.95,1.7,3.63,3.47,3.4,6.32a4.14,4.14,0,0,1-.59,1.59c-.1.34-.22.68-.34,1-1.39,3.77-.83,4.79,2.93,5.34a9.08,9.08,0,0,1,2.58.5c4.55,3,8.21,7,12,10.84,1.67,1.68,1.85,3.67.79,6.19-3.07,7.37-5.32,15-4.19,23.18.71,5.1-.33,10.27.44,15.39A5.12,5.12,0,0,1,268,314c-.76.36-1.12.17-1-.72L267,311.8a276,276,0,0,1,.05-31h0c.47-.38.23-1.14.79-1.48h0a3.17,3.17,0,0,1,.68-.82h0c.89-.83-.05-2.15.8-3h0c.29-1.23.59-2.46.88-3.69,1.61-1.14,2.15-3.26,1-4.26-4.7-4.08-7.12-11-15.07-11.15-6.15-.11-5.39-4.6-4.07-8.79,2.16-1.76,1.55-3.44-.14-5.07-8.07-7.81-11.49-16.72-7-27.76C245.38,213.65,244.51,212,244.27,210.51Z" transform="translate(-152.13 -37.21)"/><path class="cls-28" d="M267,313.27l.61.78c.59.45.48,1.05.36,1.66-.78,3.69.77,7.75-1.8,11.15-1.17,1.75-2,3.69-3.35,5.37-1.79,2.28-3,2.3-4.49-.2a40.81,40.81,0,0,1-4.48-11.85,9.12,9.12,0,0,0-4.25-6.14l-.09-.78c3.69-1.57,7.19-2.23,10.9.38A5.21,5.21,0,0,0,267,313.27Z" transform="translate(-152.13 -37.21)"/><path class="cls-15" d="M267,280.82q0,15.49-.05,31A131,131,0,0,1,267,280.82Z" transform="translate(-152.13 -37.21)"/><path class="cls-15" d="M267.8,279.34c-.26.5-.52,1-.79,1.48,0-.49,0-1,.05-1.47A6.06,6.06,0,0,1,267.8,279.34Z" transform="translate(-152.13 -37.21)"/><path class="cls-29" d="M338,304.25l0-1.47c3.21,3,7.65,2.79,11.36,4.49l-2.25.78c-.13.14-.26.27-.38.41-3.7.72-6.32-1.08-8.62-3.66C338.07,304.62,338,304.43,338,304.25Z" transform="translate(-152.13 -37.21)"/><path class="cls-13" d="M331.21,298.22l-.77-.74a6.26,6.26,0,0,1,.75,0C331.21,297.72,331.21,298,331.21,298.22Z" transform="translate(-152.13 -37.21)"/><path class="cls-29" d="M338,302.76l-.69-.7Z" transform="translate(-152.13 -37.21)"/><path class="cls-13" d="M322.89,294.43c-3.05-5.52-1.26-11.48-1.3-17.2,0-5.07-1.74-10.45,1.32-15.3C322.57,272.76,321.28,283.59,322.89,294.43Z" transform="translate(-152.13 -37.21)"/><path class="cls-13" d="M323.63,295.2l-.73-.75a6,6,0,0,1,.73,0A6.09,6.09,0,0,1,323.63,295.2Z" transform="translate(-152.13 -37.21)"/><path class="cls-9" d="M292.69,109.13l-.76.76c0-.25,0-.51,0-.76Z" transform="translate(-152.13 -37.21)"/><path class="cls-15" d="M269.29,275.53c-.27,1-.53,2-.8,3C268.76,277.52,269,276.52,269.29,275.53Z" transform="translate(-152.13 -37.21)"/><path class="cls-15" d="M268.48,278.52l-.68.82,0-.78Z" transform="translate(-152.13 -37.21)"/><path class="cls-13" d="M330.43,297.48c-2.13,0-4.25-.06-6-1.53l6,.78A6.26,6.26,0,0,1,330.43,297.48Z" transform="translate(-152.13 -37.21)"/><path class="cls-13" d="M324.4,295.94l-.75-.73a5.93,5.93,0,0,1,.73,0A5.77,5.77,0,0,1,324.4,295.94Z" transform="translate(-152.13 -37.21)"/><path class="cls-9" d="M296.47,105.35l-.77.72Z" transform="translate(-152.13 -37.21)"/><path class="cls-9" d="M295.68,106.09l-.73.75Z" transform="translate(-152.13 -37.21)"/><path class="cls-9" d="M294.93,106.84c-.24.26-.49.51-.74.77,0-.25,0-.5,0-.75Z" transform="translate(-152.13 -37.21)"/><path class="cls-9" d="M294.19,107.61l-.75.76c0-.25,0-.5,0-.75Z" transform="translate(-152.13 -37.21)"/><path class="cls-9" d="M293.44,108.37l-.75.76c0-.25,0-.5,0-.75Z" transform="translate(-152.13 -37.21)"/><path class="cls-30" d="M378.74,382.84l-.66,0c-2.72-.23-3.45,1.91-4.45,3.74-.2-1.81-.64-2.95-3-2.66A92.39,92.39,0,0,1,355.79,385c-5.49-.21-7.55,2-7.22,7.25a10.11,10.11,0,0,1-.66,2.82c-1.63-3.79-4.6-4.48-8.47-4.36-8.79.28-17.6.11-26.39.09-10.54,0-21-.91-31.56-1.13-2.74-.05-5.46.17-8.15-.53-1.27-1.67-.44-3,.7-4.26,13.19-.14,26.41-.54,39.57.12,10,.5,20,.25,30,1.29a6.49,6.49,0,0,0,6.14-3c1.16-1.54,1.19-2.68-1-3.3a16.6,16.6,0,0,0-4.08-.58c-6.76-.24-13.55-.42-20.28-.5-15.81-.17-31.6-1.56-47.42-.92-1.45-.24-1.3-1.07-.92-2.19,3-8.91,7.24-17.46,8.23-27,0-.22.27-.41.44-.58a1.66,1.66,0,0,1,1-.39c1.17.59,1.85,2.18,3.52,1.8,2-.45,4.32-.64,5.3-2.4.73-1.3-1.56-2-2.23-3.11a4,4,0,0,1-.85-2.05,1.37,1.37,0,0,1,.5-.88,3.82,3.82,0,0,0,.68.07l.53.05a3.63,3.63,0,0,1,.94.48c.14.1.27.22.41.33a7.79,7.79,0,0,0,5.13,2.71c1,.06,2,.2,2.38,1.4-.41,4.77,3.92,5.19,6.58,6.42,13.69,6.35,25.21-2,31.08-10.58,6.13-9,8-19.06,7.67-29.65-.08-2.9.4-4.21,3.47-3,4,1.45,7.61,3.82,12,3.92,2.25,2.74,6.12,1.73,8.85,4.21,3.88,3.53,5.6,8,7.74,12.39a325.74,325.74,0,0,1,0,52.08C379.23,382.35,379,382.59,378.74,382.84Z" transform="translate(-152.13 -37.21)"/><path class="cls-31" d="M249.63,314c2.92-.31,4.52.52,4.84,3.93a31.86,31.86,0,0,0,2.58,8.53,72.71,72.71,0,0,0,3.56,6.76c2.45-1.48,3.35-4.14,4.83-6.36l.36.3a1.44,1.44,0,0,1-.25,1.33l-3.09,6c-4,4.72-6.59,10.33-9.63,15.63-7.22,12.57-14.61,25-21.66,37.7-.86,1.55-2.17,2-3.47,2.63l-1.28-.7c-4.1-16.18-1.38-32.71-2.6-49-.79-10.47,5.41-15.61,12.65-20.31C240.53,317.82,245.22,316.15,249.63,314Z" transform="translate(-152.13 -37.21)"/><path class="cls-32" d="M292.68,341.33c-6-7.88,5.25-9.66,5.48-15.39.06-1.56.91-3.08,1.31-4.64.32-1.27.1-3.31.84-3.72,1.56-.88,1.63,1.33,2.47,2.09a1.78,1.78,0,0,0,2.89-.08c10.71-10.64,5.51-32.67-8.62-36.72a58.51,58.51,0,0,1-7.66-3.06c-2.13-1-2.26-2.9-1.84-4.85.47-2.14,2-1.24,3.33-1,8.31,1.43,15.38-2.55,22.67-5.41.78-.31,1.19-1.77,1.62-2.77.51-1.16-.27-3.51,1.51-3.3s1.68,2.55,1.64,4.11c-.16,6.15-.3,12.3-.74,18.43-.72,10.15,1.87,15,13.7,16.12l.5.17a17,17,0,0,0,2,1.12c2.32.93,2.64,2.09,1,4.22-3.15,4.05-6.45,8-9.51,12.11a8.65,8.65,0,0,0-1.49,2.58,6,6,0,0,1-.53.92c-4.58,5.44-8.84,11.14-13.18,16.78-1.44,1.87-2.69,3.93-4.76,5.24a6.06,6.06,0,0,1-1,.57c-4.05.81-7.81.48-10.84-2.74h0a6.07,6.07,0,0,0-.75-.77Z" transform="translate(-152.13 -37.21)"/><path class="cls-33" d="M316.86,193.74l-5.29-4.43c-2.65-.68-5.28-1.3-7.55-3-1.93-1.45-4.27-1.42-6.5-1.07-1.86.29-2.88,0-3-2.1s-1.44-3.1-3.16-4.24a53,53,0,0,1-15.46-16.1,23.82,23.82,0,0,1-3-6c-1.05-3.65-1.16-3.62-4.87-2.1-1.46-1.25-.27-2.17.42-3.1,3.28-4.4,3.29-4.44.65-8.68.31-1.82,2.38-1.75,3.21-3a9.24,9.24,0,0,1,.79-.61,3.88,3.88,0,0,0,2.14-3.49,4.72,4.72,0,0,1,.3-.92,4,4,0,0,1,.54-.8l.32-.36.67-.69.35-.35.73-.7.39-.34a3.74,3.74,0,0,1,.92-.55,5.89,5.89,0,0,1,1.08-.27c3.92.38,4.88,1.14,4.92,4.66.13,11,5.34,20.13,11.56,28.51a54.46,54.46,0,0,0,21.62,17.82c8.42,3.71,16.94,7.06,26.29,7.53a25.37,25.37,0,0,0,4.46-.64c2.15-.26,3.16.55,2.26,2.82h0a19.64,19.64,0,0,0-1.29,1.93c-.39.92-.07,2-.66,2.9a4,4,0,0,1-.78.76c-5.07-.2-10.61,1.6-14.54-3.47a3.38,3.38,0,0,0-2-1c-2.73-.05-5.52.36-8.17-.15-2.46-.47-3.06,2.56-5.23,2.18a3.78,3.78,0,0,1-1.2-.2A1.91,1.91,0,0,1,316.86,193.74Z" transform="translate(-152.13 -37.21)"/><path class="cls-34" d="M273,388.93c8.68,0,17.41-.52,26,.17,14.44,1.17,28.87.36,43.3.54,4.08.05,5.89,1.4,5.56,5.46l-.09,1.44c-.55.64-.33,1.6-.9,2.24a3.23,3.23,0,0,1-1,.78,6,6,0,0,1-1.31.32c-10.14.34-20.28.65-30.41-.25a339.27,339.27,0,0,0-39.44-.84c-1.87,0-3.84.41-4.91-1.75a3.83,3.83,0,0,1-.25-3,3.48,3.48,0,0,1,.38-1.55,3.88,3.88,0,0,0,.42-.87,4.28,4.28,0,0,1,.34-.86c.07-.13.16-.26.23-.39a7.26,7.26,0,0,1,.58-.65l.33-.29a3,3,0,0,1,.73-.44Z" transform="translate(-152.13 -37.21)"/><path class="cls-35" d="M220.15,450.25c-.09-5.43,4-10.58.88-16.28-.66-1.21.59-2.71,2-3.15a4.59,4.59,0,0,1,4.57.79c5.7,4.66,5.42,12,8,18,.58,1.34-2.2,4.18-3.73,3.74-3-.86-5.33,1.31-8,.69l0,0a2.27,2.27,0,0,0-.77-.74h0a4.45,4.45,0,0,0-.71-.79h0l-.74-.75h0a10.28,10.28,0,0,0-.77-.72h0a4.09,4.09,0,0,0-.74-.76Z" transform="translate(-152.13 -37.21)"/><path class="cls-36" d="M270.18,392.71c0,1-.08,2.06-.13,3.09,1.33,4-.72,7.48-1.93,10.87-2.09,5.8-3.78,11.74-6.19,17.42-1.47,3.46-.65,4.45,3.21,4.5,8.95.12,17.79-1.44,26.7-1.89,11-.55,22-2.06,33.11-.47,3.29.47,6.31,1.71,9.43,2.63s4.3-.18,4.7-2.91c1.13-7.6,3.66-14.92,4.48-22.57.22-2,.77-3.69,2.75-4.58h0a5.64,5.64,0,0,0,.66-.72l.84-1.53c-2.12,11-4,22.09-6.48,33-.78,3.5-2.67,4-6.83,2.14-10-4.4-21.06-4-31.85-3.25-14.08,1-28.13,2.38-42.21,3.48-2.3.18-3.77-1.47-3-3.66,4.06-12.16,8.33-24.25,12.53-36.36l.43.28Z" transform="translate(-152.13 -37.21)"/><path class="cls-37" d="M350.11,208.22c2.28,1.12,4.91,2.07,1.07,4.7-1,.7-1.83,2.62.23,2.68,11.61.34,3.5,8.77,5.48,13-.26.24-.5.51-.78.73l-.72,0c-2.61-.71-1.56-2.92-1.86-4.58s1-3.89-1.85-4.1c-2.46-.18-4.56.84-5.31,3.35a9.22,9.22,0,0,0,.62,7.33c1,1.83,1.74,3.69.07,5.57-3.72,3.88-8.52,1.7-12.82,2.27-.16-4.45,3.23-1.38,4.78-2.23.82-.44,2.3-.17,2.7-.75.89-1.31-.87-1.38-1.44-2-3.15-3.49-.93-7.09.08-10.44C342.17,217.75,346.17,213,350.11,208.22Z" transform="translate(-152.13 -37.21)"/><path class="cls-38" d="M367.52,454.8c-3.26,5.23-7.36,8.59-14.06,6.81-1.52-.4-2.9-.68-3.67-2.21s0-3,1-4.1c3.37-3.9,6.78-7.67,12.46-8.22,2.58-.24,2.77-2.48,2.71-4.62a9.75,9.75,0,0,1,1.22-5.84q.54,8.36,1.1,16.71v0c-.56.35-.39,1.08-.78,1.52Z" transform="translate(-152.13 -37.21)"/><path class="cls-39" d="M267.76,154.5c3.37-2.93,4.3-2.12,5.9,2.2,3.46,9.32,10.12,16.49,18.48,22,.2.13.63.1.69.24,3.23,8.92,13.52,5.09,18.74,10.41-5.85.77-10.15-5.84-16.34-3.41-5.77-10.88-19.11-15.71-22.61-28.41-.31-1.16-.42-2.69-2.05-2.83s-2.06,1.15-2.85,2.14c-8.87,11.26-12.38,24.71-15.57,38.27-.16.69.37,1.53.57,2.3a5.91,5.91,0,0,0,2-.75c1.59-1.5,3.2-3,5.55-2.75,2.64.27,6.44-1.42,7.61,1.42,1.07,2.61-3.49,2.46-4.6,4.54-.05.17-.1.34-.16.52a1.58,1.58,0,0,1-.88.57l-.53-.12a1.75,1.75,0,0,1-.44-.94c0-1.54,1.43-2.15,2.21-3.28a8,8,0,0,0-3.52,0c-1,.22-1.81.7-1.83,2-.07,3.93,1.72,6.29,5.66,7.31a2.74,2.74,0,0,1,1,.54,1.47,1.47,0,0,1,.24,1c-2.75,2.28-5.82,1.83-8-1-.87-1.12-.36-3.33-2.37-3.45-1.53-.09-1.78,2.06-3.25,2.32a1.55,1.55,0,0,1-.92-.64c-2.06-3.15-2.23-6.15-.77-9.87,1.53-3.91,2-8.27,3-12.41a95.36,95.36,0,0,1,3.64-11.1c2.49-4.36,4.74-8.86,7.35-13.17C264.73,156.59,265.63,154.87,267.76,154.5Z" transform="translate(-152.13 -37.21)"/><path class="cls-40" d="M254.12,248.26l.25-.79a4.27,4.27,0,0,1,.49-.71c.27-2.8-1.15-4.7-3.15-6.47-7.1-6.29-9.2-14.92-5.93-23.91.76-2.09,1.32-4.13-.61-5.92-4.9-9.35-5.09-19.72-3.44-29.39,1.81-10.6,3.53-22.08,13.2-29.52a1.64,1.64,0,0,1,.41.95c-2.5,4.34-5.51,8.4-7.12,13.22a15.79,15.79,0,0,0-.81,2c-.09.37-.21.72-.33,1.08a29.82,29.82,0,0,1-2,9.1c-1.59,4.45,0,9.18-.64,13.73-.87,6.47,1.54,12.25,3.41,18.17a22.44,22.44,0,0,1-.09,9.27c-.76,2.88,0,5.71.1,8.56,0,1.6.43,3.24-.42,4.77.93,1.59,1.49,3.78,2.87,4.64,5.13,3.22,6.71,7.76,6,13.45C254.18,251.13,253.53,250.31,254.12,248.26Z" transform="translate(-152.13 -37.21)"/><path class="cls-41" d="M332.71,192.33c5,3.86,10.63,4.53,16.63,3.77a1.25,1.25,0,0,1,.3,1.38c-.88,1.54-2,3-1.14,5,0,.16.07.32.1.48l-2.28,2.3c-2.38.07-4.73.12-6.22,2.54-.69,1.11-.34,3.73-2.46,2.9-1-.4-1.9-2.8-1.75-4.17.51-4.54.29-8.8-2.41-12.67-.24-.26-.49-.51-.76-.75h0c-.27-.16-.35-.33-.27-.5S332.62,192.33,332.71,192.33Z" transform="translate(-152.13 -37.21)"/><path class="cls-42" d="M316.86,193.74a2.94,2.94,0,0,0,.72.19,2,2,0,0,0,1.2.29,4.06,4.06,0,0,1,1.25.13,3,3,0,0,1,.77.37c.11.09.22.19.33.27s.42.39.62.59l.88.9a8.35,8.35,0,0,1,.59.6c.1.1.19.21.28.31a6.44,6.44,0,0,1,.52.65c.16.22.31.46.45.69l.51.64.3.3c.22.18.42.38.62.58a4.29,4.29,0,0,1,.75,1.1,9.58,9.58,0,0,1,.63,1.72,3.9,3.9,0,0,1,0,1.86,4.23,4.23,0,0,1-.4.83l-.28.36a7.45,7.45,0,0,1-.6.66l-.32.3c-.19.21-.4.4-.61.6l-.3.29a8.22,8.22,0,0,1-.61.57,8.65,8.65,0,0,1-1,.76,8.09,8.09,0,0,1-.69.44l-.66.45-.32.27c-.2.2-.41.39-.63.58l-.34.28a4.77,4.77,0,0,1-.77.49c-.29.15-.58.27-.88.39-.65.22-1.26.52-1.9.76-.37.11-.72.22-1.07.36-6,1.67-11.88,2.49-17.6-.82L298,212c-4.44-3.35-2.83-8-.75-11,1.9-2.68,3.17,2.12,5.2,2.72l.41.09c.53.22,1,.54,1.55.75l.89.26a8.55,8.55,0,0,0,3.49-.19,12.6,12.6,0,0,0,1.83-.59,2.64,2.64,0,0,0,.87-.76,2.82,2.82,0,0,0,.24-.63,1.09,1.09,0,0,0-.17-.63,1.28,1.28,0,0,0-.6-.39,13.27,13.27,0,0,1-1.62-.52,3.2,3.2,0,0,1-.77-.64c-.92-1.56-.43-2.7,1-3.54l.54-.06C312.77,196.69,313,191.38,316.86,193.74Z" transform="translate(-152.13 -37.21)"/><path class="cls-43" d="M267.68,315.5l0-1.45c.17-9.48.63-19,.4-28.43-.13-5.06,2.75-9,4-13.44.86-3.11,1.15-5.31-1.19-7.4-3.72-3.34-7.57-6.55-11.36-9.82a1.23,1.23,0,0,1-.05-1.93c5.43,3.1,9.44,7.85,13.53,12.37s-.23,8.87-1.57,12.83a36.3,36.3,0,0,0-1.66,15.37c1,10.55-.62,20.85-1.91,31.21C267,321.72,267.32,318.61,267.68,315.5Z" transform="translate(-152.13 -37.21)"/><path class="cls-44" d="M278.33,224.09c4-.6,6.58,1.92,7.52,4.94,1.06,3.43,5.19,7.06.42,11.13-2,1.73.75,5.12-1.46,7.53-1.21,1.33-2.12,2.5-4,2-5.64-1.53-13.31-12.32-13.09-18.29.18-5.06,5.81-8.94,10.58-7.31a5.52,5.52,0,0,1-2.85,1.74c-6.08,2.17-7.17,11.31-.76,15.55a33.86,33.86,0,0,1,5.53,3.83c.51.51,1.2,1.13,2,.6s.65-1.53.26-2.36A18,18,0,0,0,281,241.3c-1.69-2.64-1.32-4.3,1.67-5.06,2.74-.7,2.63-2.19,2-4.19-.73-2.25-2.46-3.72-4.1-5.28C279.7,226,278.09,225.78,278.33,224.09Z" transform="translate(-152.13 -37.21)"/><path class="cls-45" d="M251.27,205.31c.53-1.9,1.41-3.61,3.56-3.81,2.53-.25,1.86,2.15,2.46,3.45,1.62,3.52,4.33,3.64,7.48,2.55a5.18,5.18,0,0,0,1.25-2.31c-.21-1.92-2-.95-2.89-1.56a2.85,2.85,0,0,1-.87-.55,2.36,2.36,0,0,1-.39-1,1.89,1.89,0,0,1,.59-1.41l.07-.1c.21-.22.42-.44.62-.67l.11-.1c4.22-1.64,8.45-4.26,10.91,2.64,1,2.86,3,5.68,1.32,8.43-2.16,3.58-6.27,3.65-10.05,3.7-1.73,0-3.47-.25-5.21-.39h0c-3.38-1.82-6.61-3.84-9-6.91A1.19,1.19,0,0,1,251.27,205.31Z" transform="translate(-152.13 -37.21)"/><path class="cls-46" d="M227.7,390.47c7.24-9.08,12.05-19.67,18-29.53,4.87-8.05,9.33-16.35,14.08-24.47.51-.88,1.76-1.32,2.67-2-8.85,15.57-17.74,31.11-26.54,46.71-2.17,3.83-3.6,8.2-8.15,10.08C227.75,391,227.72,390.75,227.7,390.47Z" transform="translate(-152.13 -37.21)"/><path class="cls-47" d="M312.43,203a3.16,3.16,0,0,1-.27.66,2,2,0,0,1-.58.75l-2.25.89a9.5,9.5,0,0,1-5.31-.08h0a9.73,9.73,0,0,1-1.58-1.43v0c-3.08-5-.08-7.9,3.9-10.06a5.46,5.46,0,0,1,4.56-.2c1.77,1.06-.46,2.23-.75,3.41h-.06c-1.27,1-3.45,1.91-.73,3.74h0c.82.92,2.13,0,3,.8l0,0A1.22,1.22,0,0,1,312.43,203Z" transform="translate(-152.13 -37.21)"/><path class="cls-48" d="M316.86,212a1.8,1.8,0,0,1,.65-.1c.48-.36,1.17-.22,1.61-.66a1.8,1.8,0,0,1,.65-.09,2.46,2.46,0,0,0,.85-.72h0a5.39,5.39,0,0,0,.75-.76h0l.77-.65a2.29,2.29,0,0,1,.69-.14,5.45,5.45,0,0,1,.76-.39l.71-.51a7.24,7.24,0,0,1,.79-.39,1.51,1.51,0,0,1,1.59.59c-5.59,7-18.39,10.81-26.84,8-2.89-.94-3.55-2.46-1.87-4.27h0C304.26,214.85,310.56,215.08,316.86,212Z" transform="translate(-152.13 -37.21)"/><path class="cls-49" d="M251.27,205.31l0,2c-2.75,7.36-1,15-1.62,22.55-.12,1.33.52,3.45-2.22,2.55-1.28-5-1.89-10-.63-15a13.27,13.27,0,0,0-.11-7.65c1.5-.42,2.63-1.15,2.85-2.91.1-.81.36-1.73,1.52-1.74Z" transform="translate(-152.13 -37.21)"/><path class="cls-50" d="M270.83,391.22c-.05.24-.1.49-.13.74l-.24.28-.33-.17-.19-.13c4-11.78,7.91-23.61,12.19-35.29,1.32-3.59.51-7.91,3.69-10.84a1.39,1.39,0,0,1-.06,2.21c-2.46,4.22-1.56,9.31-3.84,13.75-2.56,5-3.95,10.54-5.84,15.85a.91.91,0,0,1,.35.79,6.81,6.81,0,0,1-.92,2.08c-.13.27-.27.53-.4.8a3.79,3.79,0,0,0-.3,1.32,3.27,3.27,0,0,1-1,2.58l-.78,3.74v0a8.5,8.5,0,0,1-.73.74l0,0q-.35.38-.72.72l0,0C271.27,390.73,271.05,391,270.83,391.22Z" transform="translate(-152.13 -37.21)"/><path class="cls-51" d="M279.09,218a21.51,21.51,0,0,1-2.22-12.26,4.93,4.93,0,0,1,.67-1.39l.8,1.56c.55,1.67,0,4.06,3.39,3.37,1.95-.4,4.88,8.18,3.48,9.88a2.69,2.69,0,0,1-3.71.66C280.62,219.36,280,218.54,279.09,218Z" transform="translate(-152.13 -37.21)"/><path class="cls-52" d="M279.09,218c1.78.05,3.15,2.6,5.09,1a3.91,3.91,0,0,0,.73-2.52c-2.76-1.27.24-6.66-4.84-6.43-2.58.11-1.44-2.6-1.73-4.14L280,208.6c.68-.84,1.38-1.66,2-2.51,1-1.36,1.29-4.45,3.62-3.29s.61,3.36-.44,4.86c-1.52,2.16-.67,4.05.36,6,1.44,2.67,2,5.83-.59,7.52S280.63,220,279.09,218Z" transform="translate(-152.13 -37.21)"/><path class="cls-53" d="M326.68,208.21h-2.24c-.25-.15-.34-.31-.25-.46s.16-.24.25-.24l0,0a3.27,3.27,0,0,1,.7-.69l.06-.07a2.25,2.25,0,0,1,.7-.64l.1-.11a6.84,6.84,0,0,1,.62-.8l-.05-2.17c-.35-.45-.22-1.08-.56-1.53l-.94-1a1.25,1.25,0,0,1-.56-.53l-.16-.16a.61.61,0,0,1-.45-.55l-.32-.88a2.5,2.5,0,0,1-.56-.69l-.17-.16c-.28-.17-.54-.36-.81-.55l-.77-.68a1.93,1.93,0,0,0-.7-.87h0a1.8,1.8,0,0,0-.9-.68l-1.33-.26c-.19-.12-.26-.24-.2-.37s.11-.2.17-.2c4.58-2.49,9.54-1.36,14.36-1.53,0,.25,0,.5,0,.75H322.54C325.26,198,334.46,201,326.68,208.21Z" transform="translate(-152.13 -37.21)"/><path class="cls-54" d="M267.53,179.6c2.32.38,6.51,1.06,8.12,5.65.58,1.67-1.58,2.18-2.53,1.69-4-2.09-9.79-.17-12.33-4.45C259.8,180.83,263.21,179.3,267.53,179.6Z" transform="translate(-152.13 -37.21)"/><path class="cls-55" d="M259.45,253c0,.64,0,1.29,0,1.93-2.27-.11-5.05,1.1-6.41-1.67-.82-1.66-1-3.7,1-5,.16,1.31.73,2.21,2.2,2.23Z" transform="translate(-152.13 -37.21)"/><path class="cls-56" d="M370.55,419.26c-3,1.23-2.45-1.17-2.27-2.52.38-2.82-1.48-6.1,1.26-8.34.65-.53.91,1.14.92,2,.06,3,.06,6,.08,8.94Z" transform="translate(-152.13 -37.21)"/><path class="cls-49" d="M260.23,214.21l1.78,1.66a12.53,12.53,0,0,1-2.34.64c-3.22.21-4.62-3.07-7.31-4-.2-.06-.16-.88-.22-1.35a6.78,6.78,0,0,1,1.88.27c2.08.92,3.44,3.47,6.25,2.74Z" transform="translate(-152.13 -37.21)"/><path class="cls-57" d="M286.49,275c-.09,1.26-.1,2.79-1.81,2.71-1.45-.08-2-1.35-1.89-2.76s.48-2.74,2-2.76C286.42,272.17,286.4,273.74,286.49,275Z" transform="translate(-152.13 -37.21)"/><path class="cls-30" d="M285.76,348l.06-2.21a54,54,0,0,1,2.31-6.92c.69-1.42,2.09-1.73,3,.15-1,1-2.14,2-2.1,3.71-1,1.85-.5,4.5-3.07,5.43Z" transform="translate(-152.13 -37.21)"/><path class="cls-31" d="M267.68,315.5c.05,3.1.11,6.21.16,9.31,0,.21,0,.42-.07.63-.68.61-.86,1.93-2.23,1.55l-.1-.09C268.3,323.52,266.19,319.15,267.68,315.5Z" transform="translate(-152.13 -37.21)"/><path class="cls-58" d="M288.2,342.17c-.23-2.19.74-3.24,2.94-3.13l.86,2.22c-.05.31-.09.63-.14.94A3.37,3.37,0,0,0,288.2,342.17Z" transform="translate(-152.13 -37.21)"/><path class="cls-43" d="M265.54,327l2.23-1.55-2.22,3.09C265.54,328,265.54,327.5,265.54,327Z" transform="translate(-152.13 -37.21)"/><path class="cls-59" d="M331.5,300.54l1.29.63-.29.36a1,1,0,0,1-1.23-.34v-.06A1.75,1.75,0,0,1,331.5,300.54Z" transform="translate(-152.13 -37.21)"/><path class="cls-46" d="M227,399.53c.23-.48.46-1,.7-1.45C227.44,398.56,227.21,399.05,227,399.53Z" transform="translate(-152.13 -37.21)"/><path class="cls-59" d="M330.73,299.87a.36.36,0,0,1,.35.32l-.3,0Z" transform="translate(-152.13 -37.21)"/><path class="cls-46" d="M226.3,400.31c.22-.24.43-.49.64-.73Z" transform="translate(-152.13 -37.21)"/><path class="cls-53" d="M332.72,193.08l.76.75Z" transform="translate(-152.13 -37.21)"/><path class="cls-17" d="M220.16,450.25l.74.76Z" transform="translate(-152.13 -37.21)"/><path class="cls-17" d="M220.91,451l.77.72Z" transform="translate(-152.13 -37.21)"/><path class="cls-17" d="M221.69,451.75l.74.75Z" transform="translate(-152.13 -37.21)"/><path class="cls-17" d="M222.44,452.51l.71.79Z" transform="translate(-152.13 -37.21)"/><path class="cls-17" d="M223.15,453.31l.77.74Z" transform="translate(-152.13 -37.21)"/><path class="cls-17" d="M367.51,454.81l.78-1.52Z" transform="translate(-152.13 -37.21)"/><path class="cls-59" d="M350.87,309.51c-1.88-.08-2.58.14-2.48,2.67.51,13.86-2.6,26.57-13,36.66A25.38,25.38,0,0,1,302,350.27c-1.85-1.52-1.61-2.84-.25-4.38.8-1.13,2.41-1.05,3.21-2.18l-.07.07a14.93,14.93,0,0,0,2.94-2.61c4.95-6.57,9.94-13.11,15.15-19.48l0,0a158.18,158.18,0,0,1,12.75-16.54c.36-.4.29-.94.47-1.4l.4-.34,1.45.82v.1c1,1.61-.23,2.6-1.06,3.62-8.13,10.07-15.77,20.52-23.49,30.91-2.1,2.83-4.2,5.67-7.18,7.67-1.83,1.23-1.58,2.09.13,3.3,8.17,5.78,21.88,3.67,29.11-4.63,7-8,10-17.52,10.47-28,.15-3.06-1-6.31,1.08-9.15l0,0,3.7.81A3.5,3.5,0,0,1,350.87,309.51Z" transform="translate(-152.13 -37.21)"/><path class="cls-60" d="M255,152.45l-.06-.9,0-.07a3.65,3.65,0,0,1,.69-.67A54.58,54.58,0,0,1,267,141.09c7.25-5,14.54-10.37,17.86-19.22,1.87-5,5.31-8.76,9.44-12a.93.93,0,0,1,1.34-.14c.6,2.51-1.73,3.28-2.82,4.79-.55.53-1.12,1-1.72,1.52-.21.18-.44.36-.67.53a4.45,4.45,0,0,0-.81,1c-.11.27-.24.53-.36.81-.46,1.34-1.3,2.5-1.76,3.85-.1.33-.22.65-.34,1,.5,5.81-3,7.87-8,8.63l0,0a4.15,4.15,0,0,0-.72.73l0,0a4.52,4.52,0,0,0-.73.72l0,0a5,5,0,0,0-.73.73l0,0a6.29,6.29,0,0,0-.73.73l0,0c-.94,1.79-.64,4.31-3.06,5.24h0a9.8,9.8,0,0,1-4.11,2.3,3.67,3.67,0,0,1-.64.72c-1,.72-2.26,1.15-3.32,1.84l-.72.51-.34.27c-.2.18-.43.35-.64.53l-.31.26c-.18.19-.38.36-.58.54l-.29.27c-.17.18-.36.35-.55.52a3.31,3.31,0,0,1-.27.26,4.34,4.34,0,0,1-.53.52s-.27.25-.26.26c-.16.18-.34.34-.52.51l-.25.25c-.16.18-.34.34-.51.51l-.26.25c-.16.18-.33.34-.51.51,0,0-.26.24-.25.25a6.5,6.5,0,0,1-.53.52s-.27.25-.26.26a4.43,4.43,0,0,1-.59.48,2.39,2.39,0,0,1-.72.3A1.19,1.19,0,0,1,255,152.45Z" transform="translate(-152.13 -37.21)"/><path class="cls-24" d="M295.69,109.87l-1.44,0,2.18-2.31.32.23a1.65,1.65,0,0,1,.2.75,1.8,1.8,0,0,1-.25.75,1.88,1.88,0,0,1-.62.5Z" transform="translate(-152.13 -37.21)"/><path class="cls-24" d="M305.39,102.92l3.12-.65.19.47c-.56,1.21-1.55,1.16-2.62.9A1.35,1.35,0,0,1,305.39,102.92Z" transform="translate(-152.13 -37.21)"/><path class="cls-24" d="M303.18,103.74l2.21-.82.19.21c.07.16.13.33.2.49a1.46,1.46,0,0,1-.73.72,1.93,1.93,0,0,1-1.54-.18Z" transform="translate(-152.13 -37.21)"/><path class="cls-24" d="M297.19,106.83l1.43-.86.33.37c0,.17,0,.33-.05.5l-.38.32a1.61,1.61,0,0,1-1,0Z" transform="translate(-152.13 -37.21)"/><path class="cls-24" d="M310,101.52l1.46-.82.14.18c.11,1-.49,1.07-1.23,1Z" transform="translate(-152.13 -37.21)"/><path class="cls-24" d="M308.51,102.27l1.51-.75.14.14.19.4a1.06,1.06,0,0,1-.54.65,1.14,1.14,0,0,1-1.21-.3Z" transform="translate(-152.13 -37.21)"/><path class="cls-24" d="M301.67,104.51l1.51-.77.13.17c.08,1-.53,1.08-1.28,1Z" transform="translate(-152.13 -37.21)"/><path class="cls-24" d="M300.13,105.22l1.54-.71.16.16.18.45a1.13,1.13,0,0,1-.66.64,1.78,1.78,0,0,1-.94-.14C300.31,105.49,300.22,105.35,300.13,105.22Z" transform="translate(-152.13 -37.21)"/><path class="cls-24" d="M298.62,106l1.51-.75.18.19.24.38a1.07,1.07,0,0,1-.53.68,1.16,1.16,0,0,1-1.23-.31Z" transform="translate(-152.13 -37.21)"/><path class="cls-24" d="M296.43,107.59l.76-.76.1.13c.08.56-.17.8-.73.73Z" transform="translate(-152.13 -37.21)"/><path class="cls-40" d="M255.67,150.81l-.69.67Z" transform="translate(-152.13 -37.21)"/><path class="cls-61" d="M279.13,131.84c4.78-1.57,7.33-4.82,7.47-9.9a25.34,25.34,0,0,1,3.61,11.53,50.28,50.28,0,0,0,9.41,25.82,59.23,59.23,0,0,0,25.8,20.17c7.3,2.92,14.84,4.71,22.77,3.81,2.75-.31,4.69.42,5.56,3.21l.15.57-2.28,4.52c-.07-1.18-.12-2.6-1.83-2-8,2.74-15.34-.49-22.57-2.84-14.44-4.7-26.33-13.37-34.26-26.44-4.61-7.59-9.36-15.5-8.61-25.12C284.68,130.94,281.5,132,279.13,131.84Z" transform="translate(-152.13 -37.21)"/><path class="cls-62" d="M347.06,236.94c1.22-3.83-2.58-6.34-2.46-10.2.18-5.84,3.43-7.72,8.06-7.5s1.17,4.13,1.93,6.22a25.57,25.57,0,0,1,.8,3.91C352.84,232.15,350.77,235.45,347.06,236.94Z" transform="translate(-152.13 -37.21)"/><path class="cls-61" d="M349.33,197.63c0-.51,0-1,0-1.53h0c.85-.86-.06-2.16.75-3l1.52-1.49q-1.12,5.29-2.27,10.58l-.45-.43A3.52,3.52,0,0,1,349.33,197.63Z" transform="translate(-152.13 -37.21)"/><path class="cls-61" d="M357.69,178c-1.31,2.62-2.72,5.21-2.49,8.29h-.56l-.48-.44C352.84,181,353.83,178.77,357.69,178Z" transform="translate(-152.13 -37.21)"/><path class="cls-41" d="M349.34,202.16c-.24.26-.49.51-.74.77l0-.05c-.15-.63.11-.86.72-.75Z" transform="translate(-152.13 -37.21)"/><path class="cls-62" d="M356.11,229.35l.78-.73Z" transform="translate(-152.13 -37.21)"/><path class="cls-61" d="M354.64,186.28c-.25.26-.5.51-.74.77l0-.06c-.15-.62.11-.86.72-.76Z" transform="translate(-152.13 -37.21)"/><path class="cls-59" d="M332.79,301.17l2.26.78-.41.4c-1,.25-1.93.43-1.94-1.07Z" transform="translate(-152.13 -37.21)"/><path class="cls-13" d="M334.29,245.25l1.49.09-1.55.69Z" transform="translate(-152.13 -37.21)"/><path class="cls-59" d="M335.05,302l.78.73-.49.21A.7.7,0,0,1,335,302Z" transform="translate(-152.13 -37.21)"/><path class="cls-59" d="M335.83,302.68l.74.75-.1.09c-.69.18-.94-.08-.74-.76Z" transform="translate(-152.13 -37.21)"/><path class="cls-63" d="M352.45,147a3.45,3.45,0,0,0-.17.63.61.61,0,0,1-1,0,2.69,2.69,0,0,1-.48-1c-.33-1,.15-2.15-1.41-2.73-3.38-1.25-4.31-2.8-2.82-5.74,2.37-4.66,1.75-9.86,3.33-14.62.47-1.41-.52-2.68-.63-4a2.28,2.28,0,0,1,.85-2.08c5.94,8.83,3.56,18.55,3,28.07C352.65,145.83,352.81,146.5,352.45,147Z" transform="translate(-152.13 -37.21)"/><path class="cls-64" d="M331.27,103l9.88,5.33c-.44,2.12,1.46,3.07,2.31,4.54a8.78,8.78,0,0,1,.7.79,5.9,5.9,0,0,1,.53,1,5,5,0,0,1,.25,1.07c.07,1.86-.55,3.22-2.65,3.3-1.88.08-2.64-1.08-2.86-2.77-.31-2.49-2.54-3.94-3.34-6.17a3.41,3.41,0,0,1-.19-1c0-.73,0-1.47-.72-1.92-1.64-1-3.82-1.33-4.17-3.74Z" transform="translate(-152.13 -37.21)"/><path class="cls-64" d="M329.66,101.64c0,.18.1.37.14.57l-.33.49c-2.39,1.84-5.85.94-8.14,3.23-.55.55-1.74.27-2.49-.2-2.32-1.48-5-1.41-7.55-1.74a3.11,3.11,0,0,1-1.07-.55.71.71,0,0,1-.09-1h0c2-1.34,4.25-1.31,6.5-1.19C321,101.42,325.34,100.67,329.66,101.64Z" transform="translate(-152.13 -37.21)"/><path class="cls-65" d="M343.3,113.67c-.79-1.76-5.39-2-2.15-5.34,2,2,5,3,6,6l-.39.29C345.46,114.92,344.73,113,343.3,113.67Z" transform="translate(-152.13 -37.21)"/><path class="cls-60" d="M329.66,101.64c-6.51.19-13.07-.71-19.53.75a2.24,2.24,0,0,1,0-.73l1.46-.78h18Z" transform="translate(-152.13 -37.21)"/><path class="cls-25" d="M351.61,147.71c.22,0,.45-.07.67-.12.05,1.78.11,3.55.16,5.33l-.18.17-.53.14a2.22,2.22,0,0,1-.87-.65C349.87,150.77,349.69,149.08,351.61,147.71Z" transform="translate(-152.13 -37.21)"/><path class="cls-65" d="M350.14,117.34l-.06,2.39a4.83,4.83,0,0,1-3.06-5.27l.17-.13C348.29,115.22,349.93,115.58,350.14,117.34Z" transform="translate(-152.13 -37.21)"/><path class="cls-25" d="M352.45,147l.65-1.55Z" transform="translate(-152.13 -37.21)"/><path class="cls-64" d="M329.8,102.21l1.47.79-.12.16c-.83.39-1.42.31-1.5-.77Z" transform="translate(-152.13 -37.21)"/><path class="cls-66" d="M354.57,186.23l-.72.76c-5.5-5.62-12.75-1.65-19.15-3.38-13.11-3.53-24-9.69-32.87-19.85-8.63-9.9-12.78-21.44-13-34.52,0-2.6-3.13-4.35-2.26-7.3v0c1-1.37,2-1.6,3,.05.49,1.1.8,2.86,2.26.7.9-1.34,1.47-2.87,2.24-4.28a6.13,6.13,0,0,1,.6-.9,25.28,25.28,0,0,1,1.87-2,7.13,7.13,0,0,1,.88-.68c8.24-3.44,15.73.37,17.73,9a4.13,4.13,0,0,1,.1,1.88c-2.12,8.81,3,14.95,8.26,20.62a27.05,27.05,0,0,0,13.66,8.33,19.78,19.78,0,0,0,5.82.82c3.82-.21,7.63,1.24,11.53.55l3.13,6c-.16,5.32.75,10.64,0,16h0C353.87,179.68,354.71,183.14,354.57,186.23Z" transform="translate(-152.13 -37.21)"/><path class="cls-67" d="M354.55,156c-18.28,4.69-36.32-6.56-41.33-25.45-.81-3.07,2-6.08-.49-9.8-4.19-6.14-8.6-8.76-15.51-4.86-.79-.82-.17-1.62,0-2.42-1.58.95-2.57,2.86-4.72,2.88a1.19,1.19,0,0,1-.65-2.08l3.81-4.44h0a7.49,7.49,0,0,0,.74-.75h0a5.94,5.94,0,0,1,2.34-2.19h0c.33-.59,1.08-.36,1.5-.78v0c.34-.58,1.08-.36,1.51-.77v0c1.14-.79,2.56-.9,3.76-1.55h0a16.43,16.43,0,0,1,4.51-.79h.76a13.68,13.68,0,0,0,3.72,4.69c5.4,3.8,7.62,9.44,9.12,15.51a9.93,9.93,0,0,1,0,5.59c-1.54,4.47.7,7.76,3.19,11,3.92,5,9.63,7,15.42,8.75a8.14,8.14,0,0,0,5.84-.76c1.09-.51,2.11-1.47,3.49-.9v.78a7.07,7.07,0,0,0,0,5.29l-.19.2.2-.19a2.44,2.44,0,0,1,.66.08C353,154.07,353.79,155.06,354.55,156Z" transform="translate(-152.13 -37.21)"/><path class="cls-61" d="M357.68,178c0-5.32-1.29-10.64,0-16A36.72,36.72,0,0,1,357.68,178Z" transform="translate(-152.13 -37.21)"/><path class="cls-68" d="M338.08,244.54c2.47-.16,4.1.81,4.41,3.4a2.91,2.91,0,0,1-2.36,3.31,4,4,0,0,1-4.55-1.79c-1.18-1.69.34-2.65,1.59-3.51.32.39-.2,0,.23.26.11.07.06-.06-.22-.26l.83-1.38Z" transform="translate(-152.13 -37.21)"/><path class="cls-55" d="M254.86,246.76l-.49.71Z" transform="translate(-152.13 -37.21)"/><path class="cls-20" d="M347.08,308.07c.66,13.69-1.21,26.53-10.4,37.67-7.43,9-23.86,11.39-32.85,4-.86-.71-2.08-2-.72-2.74,9.36-5,13.18-14.8,19.46-22.43C328,318,332.89,311.1,338,304.35,340.89,306,343.5,308.21,347.08,308.07Z" transform="translate(-152.13 -37.21)"/><path class="cls-34" d="M276,378.32a5.59,5.59,0,0,1,.09-.7c7.45-1.64,15-.75,22.5-.65,15.41.2,30.82.87,46.22,1.46,2.68.1,7.12-.63,7.09,2.73,0,3.72-3.23,6.56-7.86,6.32-22.31-1.18-44.63-1.85-67-1.57a14.56,14.56,0,0,1-3.26-.72l.09-3.81c.2-.24.41-.47.63-.7l.07-.06a1.13,1.13,0,0,1,1.26.24c1.32,2.17,3.47,2.26,5.65,2.23,18.87-.21,37.72,1.32,56.6.77,2.52-.07,5,.19,7.55.24.94,0,1.88-.32,2-1.36s-1-1.26-1.88-1.37a29.69,29.69,0,0,0-4.52-.14c-18.38.48-36.73-.71-55.09-.82a65.31,65.31,0,0,1-9.75-1A.76.76,0,0,1,276,378.32Z" transform="translate(-152.13 -37.21)"/><path class="cls-69" d="M288.2,342.17c1.24-2.31,2.46-2.32,3.66,0a9.76,9.76,0,0,1,1.68,2c.74,1.57,4.72,2.09,2.88,3.71-2.35,2.08-5.84,3.78-9.48,2.85-.51-.13-.66-1.67-1-2.56C286.71,346.17,287.45,344.17,288.2,342.17Z" transform="translate(-152.13 -37.21)"/><path class="cls-17" d="M305,343.71c-.3,1.86-2,1.69-3.21,2.18-3.44.21-6.44-.56-8.32-3.79C297,344.38,300.82,345.2,305,343.71Z" transform="translate(-152.13 -37.21)"/><path class="cls-17" d="M292.68,341.33l.75.77Z" transform="translate(-152.13 -37.21)"/><path class="cls-17" d="M335.73,302.76l.74.76c-3.64,6.71-8.45,12.54-13.52,18.19,1.26-5.49,5.62-9,9-12.87,3.12-3.55,2.58-5.37-.7-7.65l1.43.09L335,302Z" transform="translate(-152.13 -37.21)"/><path class="cls-17" d="M323,321.69c-5.72,7.62-10.3,16.18-18.09,22.09Z" transform="translate(-152.13 -37.21)"/><path class="cls-70" d="M267.76,154.5,257.2,171.15a1.28,1.28,0,0,0-.37.63c-.45,1.87-1.49,2.44-3.22,1.47a4.4,4.4,0,0,1,.19,4.64c-1,1.67-2.05,2.25-3.82.56a10.88,10.88,0,0,1-3.41-11.12h0c.4-.37.64-.87,1-1.25a8,8,0,0,0,.43-.69,4.93,4.93,0,0,1,.45-.73l.23-.37a16,16,0,0,0,.33-1.81c2.09-3.7,3.48-7.91,7.38-10.3h0a2.4,2.4,0,0,0,.75-.77h0a1.72,1.72,0,0,0,.74-.77h0a1.58,1.58,0,0,0,.77-.74h0a1.92,1.92,0,0,0,.76-.76h0a1.92,1.92,0,0,0,.75-.77h0a1.8,1.8,0,0,0,.76-.76h0a2.11,2.11,0,0,0,.78-.76h0a2.05,2.05,0,0,0,.75-.77h0a1.77,1.77,0,0,0,.74-.77v0A9.19,9.19,0,0,1,264,145a6.16,6.16,0,0,0,2.12-.92,21.86,21.86,0,0,0,2.37-1.66h0a.43.43,0,0,1,.76.07C276.28,147.41,269.54,150.65,267.76,154.5Z" transform="translate(-152.13 -37.21)"/><path class="cls-71" d="M300.84,184.08c-1.48-.6-4.9.49-4.3-1.21,1.28-3.57,5.33-3.93,8.84-4.13,1.85-.11,5.22.81,4.67,1.66C308.09,183.43,304.39,183.91,300.84,184.08Z" transform="translate(-152.13 -37.21)"/><path class="cls-61" d="M273,140.11l3.06-5.24C276.08,137.21,276.28,139.67,273,140.11Z" transform="translate(-152.13 -37.21)"/><path class="cls-61" d="M269.26,142.46l-.76-.07L273,140.1A3.71,3.71,0,0,1,269.26,142.46Z" transform="translate(-152.13 -37.21)"/><path class="cls-41" d="M350.09,193.07l-.75,3Z" transform="translate(-152.13 -37.21)"/><path class="cls-61" d="M277.62,133.34l.73-.72Z" transform="translate(-152.13 -37.21)"/><path class="cls-61" d="M276.86,134.1l.73-.73Z" transform="translate(-152.13 -37.21)"/><path class="cls-61" d="M276.1,134.85l.73-.73Z" transform="translate(-152.13 -37.21)"/><path class="cls-17" d="M318.35,193.86l0,.57-.8-.5Z" transform="translate(-152.13 -37.21)"/><path class="cls-61" d="M278.38,132.59l.72-.73Z" transform="translate(-152.13 -37.21)"/><path class="cls-30" d="M346.31,398.8c-1.76,8-3.68,16-5.2,24-1,5.2-1.25,9.95-9,7-16.38-6.28-33.16-1.72-49.78-1-7,.32-14.11,1.65-21,.83-3.81-.45-1-4.74-.24-7.11,2.82-9,5.91-17.86,8.89-26.77.86,1.42,1.65,1.91,3.74,1.8,13.65-.73,27.29-.15,40.95.56C325.24,398.7,335.78,398.61,346.31,398.8Z" transform="translate(-152.13 -37.21)"/><path class="cls-72" d="M291.17,391.26q26.19,0,52.4,0c2,0,3.58.35,3.41,2.82-.15,2.06-1.09,3.05-3.4,3-22.86-.49-45.72-.86-68.58-1.35-1.23,0-3.59,1.55-3.52-1.6.06-2.47,1.41-3.66,3.83-3.67h15.85Z" transform="translate(-152.13 -37.21)"/><path class="cls-30" d="M272.29,389.7,273,389Z" transform="translate(-152.13 -37.21)"/><path class="cls-30" d="M271.54,390.45l.72-.72Z" transform="translate(-152.13 -37.21)"/><path class="cls-30" d="M270.83,391.22c.23-.24.45-.49.67-.73C271.28,390.73,271.06,391,270.83,391.22Z" transform="translate(-152.13 -37.21)"/><path class="cls-30" d="M270.13,392.07l.57-.11-.52.75A1.55,1.55,0,0,1,270.13,392.07Z" transform="translate(-152.13 -37.21)"/><path class="cls-30" d="M347,398.07l-.66.72Z" transform="translate(-152.13 -37.21)"/><path class="cls-73" d="M246.57,167.33c-.68,4.55,1.87,7.73,4.52,10.93.61.73,1,.67,1.41.14a3.81,3.81,0,0,0,.23-4.85c-.71-1.08-2.44-2.33-.59-3.37s1.49,1.28,2.19,2.1c1.71,2,1.82-.91,2.87-1.13-2.62,9.11-5.44,18.17-7.72,27.37-.48,1.93,1,4.36,1.55,6.56-2.11.93,1.86,7.6-4.37,4.65C240.81,195.61,242.54,181.47,246.57,167.33Z" transform="translate(-152.13 -37.21)"/><path class="cls-74" d="M264.71,206.67c-7.92,2.09-5.95-5.57-8.44-8.8-.07-.1,1.55-2.15,2.52-2.28a22.77,22.77,0,0,1,7.37.16c.57.11-.73,1.5-1.63,1.81-1.54.53-2.65,1.36-2.78,3.1.38.3.32.73.34,1.13s.05.82.51,1l0,0c.64.92,1.59.44,2.41.51,1.94.14,2,1.13,1.2,2.53A1.93,1.93,0,0,1,264.71,206.67Z" transform="translate(-152.13 -37.21)"/><path class="cls-75" d="M264.71,206.67l.81-.7a.86.86,0,0,1,1.34-.11l-2.09,1.63Z" transform="translate(-152.13 -37.21)"/><path class="cls-17" d="M261.74,202.14c0-.49,0-1,0-1.48a3.42,3.42,0,0,1,.71,0c0,.47,0,.94,0,1.41A.41.41,0,0,1,261.74,202.14Z" transform="translate(-152.13 -37.21)"/><path class="cls-17" d="M263.15,199.93l-.62.67Z" transform="translate(-152.13 -37.21)"/><path class="cls-61" d="M256.4,152.19c-3,3.36-5.72,6.87-6.79,11.37-.44.42-.29,1.12-.73,1.53h0c-.24.25-.52.48-.75.75h0c-.3.33-.57.31-.83,0,1.67-5,3.87-9.64,7.7-13.36Z" transform="translate(-152.13 -37.21)"/><path class="cls-73" d="M247.29,165.81l.83,0-1.57,1.49C246.8,166.83,247.05,166.32,247.29,165.81Z" transform="translate(-152.13 -37.21)"/><path class="cls-33" d="M349.28,202.13l-.72.75c-2.76-2.19-1.72-3.83.77-5.25C349.32,199.13,349.3,200.63,349.28,202.13Z" transform="translate(-152.13 -37.21)"/><path class="cls-76" d="M306.77,212.39c-3.36-2.22-10.53,1.35-9.69-7a11.05,11.05,0,0,1,1-2.71,9.83,9.83,0,0,1,2.41,1.47c3.48,3.9,7.39,4.68,11.58,1.44a7.09,7.09,0,0,0,2.61-4.26c.16-1.49-1.89-1.1-3.05-1.39-.72-.17-1.87-.9-1.14-1.32,2.39-1.36,4.26-4.89,7.73-2.84,3.13,1.86,6.8,4.33,6.68,8s-4.56,5.08-7.66,6.34S310.45,211.63,306.77,212.39Z" transform="translate(-152.13 -37.21)"/><path class="cls-17" d="M316.86,212c-4.34,3.62-14.26,3.6-18.89,0A27.45,27.45,0,0,0,316.86,212Z" transform="translate(-152.13 -37.21)"/><path class="cls-77" d="M309.34,200.61c-1.12,0-2.17-.38-2-1.64a2.56,2.56,0,0,1,2.71-2.1C309.23,198,308.05,199.06,309.34,200.61Z" transform="translate(-152.13 -37.21)"/><path class="cls-17" d="M304,205.19l5.31.08A4.74,4.74,0,0,1,304,205.19Z" transform="translate(-152.13 -37.21)"/><path class="cls-77" d="M312.31,201.4l-3-.8Z" transform="translate(-152.13 -37.21)"/><path class="cls-17" d="M302.43,203.75l1.58,1.43Z" transform="translate(-152.13 -37.21)"/><path class="cls-77" d="M312.43,203c0-.52-.07-1-.1-1.55C313.22,201.88,313.06,202.41,312.43,203Z" transform="translate(-152.13 -37.21)"/><path class="cls-17" d="M326.05,201.45l.56,1.53C326.42,202.47,326.23,202,326.05,201.45Z" transform="translate(-152.13 -37.21)"/><path class="cls-17" d="M319.12,211.27l-1.61.66Z" transform="translate(-152.13 -37.21)"/><path class="cls-17" d="M325.94,206.06l-.7.64Z" transform="translate(-152.13 -37.21)"/><path class="cls-17" d="M325.18,206.77l-.7.69Z" transform="translate(-152.13 -37.21)"/><path class="cls-17" d="M326.66,205.15c-.21.27-.41.54-.62.8Z" transform="translate(-152.13 -37.21)"/><path class="cls-17" d="M324.44,207.51c0,.24,0,.47,0,.7l0,0-.36.26-.35-.26Z" transform="translate(-152.13 -37.21)"/><path class="cls-77" d="M311.58,204.38l.58-.75Z" transform="translate(-152.13 -37.21)"/><path class="cls-17" d="M321.37,209.7l-.75.76Z" transform="translate(-152.13 -37.21)"/><path class="cls-17" d="M323.67,209l-.84-.05.87-.67,0,0A.48.48,0,0,1,323.67,209Z" transform="translate(-152.13 -37.21)"/><path class="cls-17" d="M322.14,209.05l-.77.65Z" transform="translate(-152.13 -37.21)"/><path class="cls-17" d="M320.62,210.46l-.85.72Z" transform="translate(-152.13 -37.21)"/><path class="cls-17" d="M324.55,199.91l.56.53Z" transform="translate(-152.13 -37.21)"/><path class="cls-17" d="M323.94,199.2a1.15,1.15,0,0,1,.45.55Z" transform="translate(-152.13 -37.21)"/><path class="cls-17" d="M323.06,197.63l.56.69Z" transform="translate(-152.13 -37.21)"/><path class="cls-17" d="M322.08,196.92l.81.55Z" transform="translate(-152.13 -37.21)"/><path class="cls-17" d="M319.71,194.69l.9.68Z" transform="translate(-152.13 -37.21)"/><path class="cls-17" d="M320.61,195.37l.7.87Z" transform="translate(-152.13 -37.21)"/><path class="cls-78" d="M278.33,224.09c3.2,1.82,6.24,3.94,7.37,7.6.78,2.53,2.46,5.82-3.11,5.48-2.64-.16-2.31,2.16-.71,3.65,2,1.88,3.82,4.12,1.34,6.35-2.77,2.48-3.63-1.42-5-2.6-2-1.75-4.82-1.92-6.59-4.56-4.92-7.36-2.17-14.45,6.72-15.92Z" transform="translate(-152.13 -37.21)"/><path class="cls-79" d="M264.26,201.28c2.82-.52,4.33-3.53,6.73-1a12.38,12.38,0,0,1,3.73,9c-.16,2.43-3.22,3.47-5.85,3.89a16.45,16.45,0,0,1-14.8-4.61c-1.09-1-1.93-2.05-1.36-3.58a2.66,2.66,0,0,1,1.18-1.11,11.81,11.81,0,0,1,2.66,2.41c3,4.26,6.7,3.85,10.44,1.35a4.74,4.74,0,0,0,1.92-3.44C268.83,202.21,266.56,202.36,264.26,201.28Z" transform="translate(-152.13 -37.21)"/><path class="cls-39" d="M266.86,205.86l-1.34.11c1.84-3.69-2.92-1.25-3-3.19C263.84,204,268.16,201,266.86,205.86Z" transform="translate(-152.13 -37.21)"/><path class="cls-39" d="M261.74,202.14a4.22,4.22,0,0,0,.71,0,.74.74,0,0,1,.15.69Z" transform="translate(-152.13 -37.21)"/><path class="cls-53" d="M323.67,209a3.81,3.81,0,0,1,.07-.67,3,3,0,0,1,.67,0Z" transform="translate(-152.13 -37.21)"/><path class="cls-30" d="M276,378.32l.12.87c.43.85.43,1.48-.77,1.49l-.75-.06C275.06,379.85,275.53,379.09,276,378.32Z" transform="translate(-152.13 -37.21)"/><path class="cls-30" d="M274.52,380.68l-.63.71Z" transform="translate(-152.13 -37.21)"/><path class="cls-80" d="M266.61,180.79c1.89,1.77,5.23-.47,6.15,2.66.4,1.36-1.31,1.59-2.06,1.19-2.25-1.17-5.3.62-7.08-2Z" transform="translate(-152.13 -37.21)"/><path class="cls-61" d="M291.93,115.94c.94-.56,1.9-1.08,2.8-1.69,1.46-1,2.88-2,4.31-3.06,1.52,2.4-2.2,2.78-1.82,4.74h0A6.38,6.38,0,0,0,295,118.2h0a25.61,25.61,0,0,0-2.73,4.82c-1.07,2.43-2.39,2.19-3.3-.28-.21-1.93-1.34-1.13-2.32-.78q1.14-2.31,2.26-4.61C290.48,118.18,291,116.6,291.93,115.94Z" transform="translate(-152.13 -37.21)"/><path class="cls-67" d="M291.93,115.94c-.14,1.28.47,3-1.39,3.41-1.29.27-1.49-1-1.68-2a1.94,1.94,0,0,1,.16-.68,2.44,2.44,0,0,1,.62-.62,1.83,1.83,0,0,1,.68-.16,1.18,1.18,0,0,1,1.61,0Z" transform="translate(-152.13 -37.21)"/><path class="cls-61" d="M268.5,142.38l-2.26,2.31c-.49.48-1.11.32-1.7.35a.71.71,0,0,1-.67-.47Z" transform="translate(-152.13 -37.21)"/><path class="cls-61" d="M291.93,115.93l-1.6,0c.51-.53,1-1,1.55-1.58C291.89,114.85,291.91,115.39,291.93,115.93Z" transform="translate(-152.13 -37.21)"/><path class="cls-61" d="M264,145.4l-.79-.06.71-.76.16.14c.23.18.3.34.2.48S264,145.4,264,145.4Z" transform="translate(-152.13 -37.21)"/><path class="cls-61" d="M263.16,145.37c-.25.25-.49.51-.74.77C262.67,145.88,262.91,145.62,263.16,145.37Z" transform="translate(-152.13 -37.21)"/><path class="cls-61" d="M257.14,151.43l-.75.77Z" transform="translate(-152.13 -37.21)"/><path class="cls-61" d="M257.87,150.66c-.25.26-.49.52-.74.77C257.38,151.18,257.62,150.92,257.87,150.66Z" transform="translate(-152.13 -37.21)"/><path class="cls-61" d="M258.64,149.91l-.77.74Z" transform="translate(-152.13 -37.21)"/><path class="cls-61" d="M259.4,149.16l-.76.76Z" transform="translate(-152.13 -37.21)"/><path class="cls-61" d="M260.15,148.4l-.75.77Z" transform="translate(-152.13 -37.21)"/><path class="cls-61" d="M260.91,147.64c-.26.25-.51.51-.76.76C260.4,148.15,260.65,147.89,260.91,147.64Z" transform="translate(-152.13 -37.21)"/><path class="cls-61" d="M289.64,116.05l-.62.62Z" transform="translate(-152.13 -37.21)"/><path class="cls-61" d="M261.68,146.89l-.78.76Z" transform="translate(-152.13 -37.21)"/><path class="cls-61" d="M262.42,146.13l-.75.77Z" transform="translate(-152.13 -37.21)"/><path class="cls-60" d="M298.78,106.91l-2.34,2.19.12-1.41c.25-.24.49-.49.73-.73Z" transform="translate(-152.13 -37.21)"/><path class="cls-60" d="M296.44,109.11l-.74.75Z" transform="translate(-152.13 -37.21)"/><path class="cls-60" d="M310.07,103.08l-4.51.79a3.06,3.06,0,0,1,0-.74l3-.72,1.53,0C310.11,102.62,310.08,102.85,310.07,103.08Z" transform="translate(-152.13 -37.21)"/><path class="cls-60" d="M305.56,103.86l-3.76,1.55a3,3,0,0,1,0-.74l1.48-.76Z" transform="translate(-152.13 -37.21)"/><path class="cls-60" d="M300.28,106.14l-1.5.78c0-.25,0-.51,0-.76Z" transform="translate(-152.13 -37.21)"/><path class="cls-60" d="M301.8,105.39l-1.51.77a2.69,2.69,0,0,1,0-.75Z" transform="translate(-152.13 -37.21)"/><path class="cls-81" d="M351.6,146.93c-8,5.45-24.3-.47-28.09-9.62-1.56-3.74-.69-7-.79-10.56-.18-6.69-2.25-12.85-8-17.39-1.8-1.43-5.39-2.48-3.93-6.27,6.34,1.66,12.59.61,18.82-.7l1.5.77c1.08,2.25,3.63,2.38,5.35,3.7a1,1,0,0,1,0,1.51h0a1.5,1.5,0,0,0,0,2c4.44,6.77,4.78,14.1,3,21.73a14.12,14.12,0,0,0-.46,2.22,2.74,2.74,0,0,0,2.13,3.13c1.78.41,1.85-1.23,2.3-2.36,1.82-4.61,1.65-9.58,2.44-14.37.34-2-1.16-3.75-1.88-5.59v-.76c-.26-.23-.46-.54-.74-.75h0c-1.11-3.66.49-2,1.75-.89l2,1.68,3.06,5.27c2.15,6-.52,11.6-1.92,17.18-.45,1.77-1.55,3.58-.85,5.24.91,2.16,2.31-.44,3.36-.15C354.09,142.94,351,145.33,351.6,146.93Z" transform="translate(-152.13 -37.21)"/><path class="cls-65" d="M344.05,115.18c6.13,4.46,1.34,10.36,1.91,15.55.19,1.8-1,3.75-1.54,5.64s-1.23,3.79-3.51,2.72c-1.78-.85-4.21-2.14-3.29-4.78,2.88-8.15,2.47-16-1.78-23.5-.6-1.08-.58-1.9.66-2.44.42,3.51,5.21,5.06,4.12,9.24a5.76,5.76,0,0,0,2,.48C344.48,117.86,343.91,116.31,344.05,115.18Z" transform="translate(-152.13 -37.21)"/><path class="cls-65" d="M336.5,108.37v-1.51C337.23,107.36,337.23,107.87,336.5,108.37Z" transform="translate(-152.13 -37.21)"/><path class="cls-65" d="M343.3,113.67l.74.75Z" transform="translate(-152.13 -37.21)"/><path class="cls-67" d="M296.47,133.94c0-2.57,0-3.95,0-5.33,0-2.54,2.13-3.21,3.87-3.3,2.16-.11,1.41,2,1.36,3.2-1.49,30.71,27.29,41.2,49.4,37.07,1.6-.3,3.49-1.56,3.94.8.5,2.65-1.79,4.32-4,4.62-16.61,2.32-32.41-.22-44.47-12.48C300.09,151.88,295.46,143.07,296.47,133.94Z" transform="translate(-152.13 -37.21)"/><path class="cls-67" d="M288.92,122.74c2.18,2.32,2.51.8,3.2-1.26.42-1.26,1.85-2.19,2.83-3.28a58.52,58.52,0,0,1-2.44,5.48c-.43.77-1.47,1.71-2.2,1.69C288.84,125.32,289,123.87,288.92,122.74Z" transform="translate(-152.13 -37.21)"/><path class="cls-67" d="M295,118.2a2.18,2.18,0,0,1,2.26-2.27C296.46,116.69,295.71,117.45,295,118.2Z" transform="translate(-152.13 -37.21)"/><path class="cls-66" d="M351.6,153c-.13.89.22,2.12-1.34,2a1,1,0,0,1-.68-.68c-.11-1.55,1.12-1.22,2-1.34Z" transform="translate(-152.13 -37.21)"/><path class="cls-82" d="M337.18,246c1.23.42,3.11-.9,3.62,1.29.06.23-.75.89-1.23,1-1.78.36-2.42-.64-2.39-2.28Z" transform="translate(-152.13 -37.21)"/><path class="cls-83" d="M275.34,380.68l.77-1.49c9.1,0,18.2-.09,27.29,0,14.06.17,28.12.46,42.18.75,1.84,0,4.69-.76,4.32,2.48-.31,2.82-2.37,3.68-5.3,3.16a51.56,51.56,0,0,0-8.26-.37c-19.21-.28-38.42-.6-57.64-.72C275.63,384.49,275,383.24,275.34,380.68Z" transform="translate(-152.13 -37.21)"/><path class="cls-33" d="M264,145.4c0-.23.05-.45.08-.68l2.21,0Z" transform="translate(-152.13 -37.21)"/><path class="cls-73" d="M248.88,165.09c.24-.51.48-1,.73-1.53C249.36,164.07,249.12,164.58,248.88,165.09Z" transform="translate(-152.13 -37.21)"/><path class="cls-73" d="M248.12,165.85l.75-.75Z" transform="translate(-152.13 -37.21)"/><path class="cls-64" d="M334.22,125.74c-1.6,2,1.18,6.12-1.74,6.06-2.51-.05-1.09-4-1.2-6.25-.31-6-4.29-10.2-6.91-15.09-.77-1.43-3.57-3.1-1.07-4.63,2.27-1.39,2.61,1.6,3.75,2.94C331.25,113.74,331.76,120.13,334.22,125.74Z" transform="translate(-152.13 -37.21)"/></svg>