<svg id="Capa_1" data-name="Capa 1" xmlns="http://www.w3.org/2000/svg" viewBox="0 0 262.99 431.24"><defs><style>.cls-1{fill:#fefefe;}.cls-2{fill:#743d50;}.cls-3{fill:#eea3ba;}.cls-4{fill:#a7838f;}.cls-5{fill:#dbcdd3;}.cls-6{fill:#f9dfe8;}.cls-7{fill:#a9697e;}.cls-8{fill:#f5c0b9;}.cls-9{fill:#976274;}.cls-10{fill:#e5dade;}.cls-11{fill:#f6cec7;}.cls-12{fill:#c5adb5;}.cls-13{fill:#e2d7db;}.cls-14{fill:#cecece;}.cls-15{fill:#c7c7c7;}.cls-16{fill:#d3d2d2;}.cls-17{fill:#d9d9d9;}.cls-18{fill:#e7dde1;}.cls-19{fill:#894a5f;}.cls-20{fill:#c78198;}.cls-21{fill:#946a79;}.cls-22{fill:#ab5957;}.cls-23{fill:#ee7655;}.cls-24{fill:#f19d84;}.cls-25{fill:#f29d89;}.cls-26{fill:#cc837c;}.cls-27{fill:#ee9b8a;}.cls-28{fill:#eb8c7c;}.cls-29{fill:#a27483;}.cls-30{fill:#9d7481;}.cls-31{fill:#c2878c;}.cls-32{fill:#707070;}.cls-33{fill:#7e7c7b;}.cls-34{fill:#a27181;}.cls-35{fill:#733d50;}.cls-36{fill:#ef9b81;}.cls-37{fill:#b8615a;}.cls-38{fill:#f38160;}.cls-39{fill:#8e515b;}.cls-40{fill:#854d5b;}.cls-41{fill:#e26b57;}.cls-42{fill:#e96851;}.cls-43{fill:#e36551;}.cls-44{fill:#ae573f;}.cls-45{fill:#e16551;}.cls-46{fill:#585857;}.cls-47{fill:#010101;}.cls-48{fill:#4a291f;}.cls-49{fill:#3e1d17;}.cls-50{fill:#7d4331;}.cls-51{fill:#f6e2e6;}.cls-52{fill:#e56951;}.cls-53{fill:#d65546;}.cls-54{fill:#050202;}.cls-55{fill:#efd9d0;}.cls-56{fill:#5d2e22;}.cls-57{fill:#cd5543;}.cls-58{fill:#f5a188;}.cls-59{fill:#585c5b;}.cls-60{fill:#97483a;}.cls-61{fill:#ce5843;}.cls-62{fill:#ba3c35;}.cls-63{fill:#ba3c36;}.cls-64{fill:#f6f4f2;}.cls-65{fill:#0d0605;}.cls-66{fill:#f4eeec;}.cls-67{fill:#e9dfda;}.cls-68{fill:#030203;}.cls-69{fill:#191716;}</style></defs><path class="cls-1" d="M256.19,469.93c-28.33,0-56.65,0-85,.06-2.25,0-2.71-.45-2.7-2.71q.09-212.91,0-425.81c0-2.26.45-2.71,2.7-2.71q128.79.1,257.58,0c2.25,0,2.71.45,2.7,2.71q-.09,212.91,0,425.81c0,2.26-.44,2.75-2.7,2.72-9.94-.16-19.89-.07-29.84-.07-.54-5-1-9.92,1.66-14.56,1.44-2.51.92-5.35,1-8.08.07-2.48-.28-5.05,1.61-7.1,1.89-1.77,1.4-4.11,1.45-6.32s-.05-4.24.07-6.35a4.87,4.87,0,0,1,.2-1.14,9.79,9.79,0,0,1,.65-1.57c.15-.33.33-.65.51-1s.34-.64.51-1,.13-.34.2-.51c.29-4.07-.12-8.2,1-12.2a5.27,5.27,0,0,1,.36-1.08,12.75,12.75,0,0,0,1.54-3.62c.49-4.08.06-8.18.25-12.27a7.49,7.49,0,0,1,.13-1.16,5.3,5.3,0,0,1,.38-1.1,8.25,8.25,0,0,1,.58-1l.32-.46c.2-.32.39-.64.56-1,.71-3.55-.34-7.31,1.24-10.77a4.18,4.18,0,0,1,.54-1.05c1.48-1.79,1.53-3.91,1.53-6.09,0-3.41-.15-6.82.1-10.22a4.7,4.7,0,0,1,.31-1.17,5.87,5.87,0,0,1,.56-1l.31-.5c1.46-2,.33-4.62,1.35-6.57,3.86-7.33,2.2-15.2,2.63-22.88.3-5.25-2.3-9.7-3.95-14.31-3.38-9.39-11.76-14.88-18.51-21.5-2.85-2.78-7.51-3.3-11.47-4.25-5.38-1.29-9.95-4.17-14.6-6.78-2.57-1.45-4.88-3.42-7.73-4.48-4.61-1.71-7.87-5.74-12.52-7.42a2.94,2.94,0,0,1-1.67-1.48c-2-4.81-6.13-8.3-8.11-13.11-2.22-5.39-2.72-11.21,3-16.09,3.81-3.26,7.39-6.85,9.53-11.59a17.19,17.19,0,0,0,1.95-6.82,7.51,7.51,0,0,1,4.9-7.41,10.65,10.65,0,0,0,6-6.34,41.16,41.16,0,0,1,2.88-5.75c2.78-4.51,3.12-9.24.2-13.52-3.53-5.18-3.34-10.59-2.48-16.26,1.37-2,1.44-4.45,2.16-6.61,1.87-5.53,2.2-11.46,4.54-16.77,1.13-2.55,1.18-5.11,1.39-7.72a5.06,5.06,0,0,1,.29-1.16,10,10,0,0,1,.8-1.56c2-5.91,1-11.92.65-17.91a2.24,2.24,0,0,0-.5-1.41c-3.85-3.67-5.08-9.21-9.13-12.74a28.5,28.5,0,0,1-7.35-9.42c-2.21-4-5.75-6.72-9-9.71a9.53,9.53,0,0,1-.84-.57c-.27-.19-.53-.41-.79-.63l-.38-.31A7.45,7.45,0,0,0,346.83,83a7.53,7.53,0,0,1-.89-.36c-.43-.19-.85-.41-1.26-.64a7.29,7.29,0,0,1-.81-.46,6.52,6.52,0,0,0-2.57-1,5.63,5.63,0,0,1-.91-.38,9.76,9.76,0,0,1-.89-.51l-.44-.29c-.32-.19-.63-.36-1-.52l-.55-.14c-8.41,0-16.81-.43-25.18.23a7,7,0,0,0-.95.57,7.82,7.82,0,0,1-.9.6,6.26,6.26,0,0,1-1,.4c-.93.3-2,.33-2.73,1.1-.26.22-.53.42-.82.62a6.4,6.4,0,0,1-.92.52,6.14,6.14,0,0,1-1,.32c-2.44.39-4.85,1.13-7.35.81a21.79,21.79,0,0,0-13.77,3.1c-.26.18-.54.38-.79.58s-.49.39-.74.57l-.34.28c-.21.19-.44.37-.66.55l-.31.27c-.19.19-.39.37-.59.55l-.29.27c-.17.18-.36.36-.55.53l-.27.26c-.17.19-.35.36-.53.53l-.27.26a6.26,6.26,0,0,1-.52.51,3.19,3.19,0,0,1-.26.26c-.16.19-.34.35-.51.52,0,0-.27.25-.26.26-.17.19-.34.36-.52.53,0,0-.27.26-.27.27-.17.19-.35.37-.53.55l-.27.28-.55.59c-.09.1-.19.2-.28.31l-.58.65-.28.35-.57.76-.29.42c-.2.29-.39.58-.57.89-2,5.13-7.26,7.73-9.87,12.3-3.17,5.58-7.3,10.82-7.38,17.73a5.31,5.31,0,0,1-.72,2.53c-2.91,4.88-2,10.26-2.11,15.5a6.8,6.8,0,0,0,1.22,3.9,9.11,9.11,0,0,1,1.63,4.59c.11,5.77,2.61,10.82,4.53,16.06,1.13,3.1,3.5,5.15,5.63,7.44,1.27,2.3,1,4.57-.06,6.88-3.88,8.88-1.5,16.62,4.43,23.64a51.77,51.77,0,0,0,4.78,4.82,15.59,15.59,0,0,1,5.35,10.25,18.74,18.74,0,0,0,8.79,13.88,8.48,8.48,0,0,1,4.5,8.75c-.25,3.26,0,6.55-.09,9.82-.11,3.53-1.64,5.85-4.89,7.78a114.8,114.8,0,0,0-11.76,7.94,48.54,48.54,0,0,1-10.08,5.63l-.89.59a8.84,8.84,0,0,0-2.51,1.68,7.85,7.85,0,0,1-.74.67,8.27,8.27,0,0,1-1.65,1.14,15.26,15.26,0,0,0-4.35,2.43,4.16,4.16,0,0,1-.94.42c-2.35.54-4.86.57-6.79,2.35-3.27,1.84-6.4,4-10.33,4.11a1.57,1.57,0,0,0-1,.39c-3.79,3.85-9.28,5.31-12.95,9.33-2.43,2.66-2.88,6.36-5,9.18-.58.78-1,1.74-1.62,2.53-2.87,4.25-5,8.63-4.54,14,.36,4.64.06,9.32.08,14,0,3.62-.29,7.2,1.9,10.55,1.13,1.71,1.14,4.06,1.13,6.24q-.06,14,0,28a17.75,17.75,0,0,1-1.34,6.59c-2.72,7-5.34,14.08-3.48,21.86a4.79,4.79,0,0,1-.74,4c-3.08,4.2-2,8.94-1.76,13.51a8.1,8.1,0,0,0,2.8,5.61c2.87,2.63,5.4,5.62,8.39,8.13.71.52,1.47,1.23,2.32,1.18,5.38-.34,10.32,1.3,15.26,3.1a6.63,6.63,0,0,0,4.1-.14,6.63,6.63,0,0,1,5.12.45c2.6,1.33,5.11,2.55,8.21,1.81a2.42,2.42,0,0,1,2.82,2C257.61,459.24,259.1,464.67,256.19,469.93Z" transform="translate(-168.51 -38.76)"/><path class="cls-2" d="M394.42,469.93H368.74c-2.51-.84-5.1-.17-7.65-.38-9.65-.2-19-2.66-28.48-3.95-5.8-.78-11.31-3-17.25-3.08a5.3,5.3,0,0,1-4.61-2.11c-1.07-4.42.6-8.64,1.18-12.91.68-5,.72-9.94,1.23-14.9.54-5.17.77-5.89,5.89-7a8.33,8.33,0,0,0,2.72-1.15c.34-.2.7-.38,1.06-.55a23.5,23.5,0,0,0,6.2-2.24,6.4,6.4,0,0,1,1.05-.33,12.67,12.67,0,0,0,3.2-.72,5.88,5.88,0,0,1,1.12-.25c4.37-1.39,9-1.25,13.43-2.13,5.76-.44,11.51-.14,17.27-.15,4.43,0,4.67-.2,5.57-4.7,1.3-6.52,3.11-12.87,6.61-18.62a39.33,39.33,0,0,0,4.46-11.09c.52-1.84-.52-3.17-2.51-3.47a28.7,28.7,0,0,0-4.15-.1H286c-1.38,0-2.77,0-4.15,0s-2.9-.09-3.64-1.51.49-2.56,1.22-3.68c3.75-5.69,7.32-11.48,10.89-17.27a7.57,7.57,0,0,0,1.4-4.25,9,9,0,0,1,2.33-6.21,9.4,9.4,0,0,0,.44-1.15,9,9,0,0,1,.81-1.57,130.33,130.33,0,0,1,13.08-14.53c11.36-11.41,23-22.58,34-34.29,5.09-5.38,10.53-10.42,15.88-15.54a6,6,0,0,1,6.21-1.7c4.6,1.57,8.07,5,12.21,7.34A31.49,31.49,0,0,0,386,289.5c11.5,2.26,19.33,10,25.9,18.68a32.24,32.24,0,0,1,6.28,19.8c0,3.79,0,7.57,0,11.35A46.53,46.53,0,0,1,416.74,350c-1.21,5.35-2.89,10.61-3.77,16-.33,2.05,1.36,4.15.51,5.95-2.77,5.89-2.25,12.49-4.28,18.52-1.3,3.85-1.33,7.92-1.3,11.89,0,2.08.14,4.12-.91,5.8a11.36,11.36,0,0,0-1.61,7.95c.79,5.48-2.55,10.18-2.59,15.53-.06,7.28-2.7,14.19-3.08,21.54-.23,4.54-1.94,9.22-2.58,13.92C396.9,468.86,395.73,469.42,394.42,469.93Z" transform="translate(-168.51 -38.76)"/><path class="cls-3" d="M353.63,469.93H260c-1.51-1.54-.94-3.5-1.11-5.32-.35-3.92.86-8-.84-11.78a2.85,2.85,0,0,1-.59-1.13,1.17,1.17,0,0,1,.54-1.08,2.85,2.85,0,0,1,1.25-.28c6,2.33,12.46,2.52,18.69,3.68,9.95,1.85,19.87,3.93,29.86,5.57a8.78,8.78,0,0,1,2.18.58,7.82,7.82,0,0,0,3,1.45c12.64,2.15,25.21,4.67,37.85,6.8C351.86,468.6,353.44,468,353.63,469.93Z" transform="translate(-168.51 -38.76)"/><path class="cls-4" d="M394.42,469.93c3.68-8.43,3.83-17.56,5.25-26.45,2.77-17.25,5.69-34.46,8.08-51.79,2.84-20.55,9.29-40.59,9.35-61.59.06-17.54-12.14-34.42-29.16-38.71-9.31-2.35-16.27-8.44-24.48-12.47-1.43-.91-3.12.41-4.56-.53-.41-.94.07-1.56.74-2.12a3.87,3.87,0,0,1,1.78-.52c3.42,1.31,6.78,2.42,9.89,4.78A46.27,46.27,0,0,0,386,287.85c6.09,1.85,12.59,2.92,16.9,8.6a62.68,62.68,0,0,0,7.68,7.78c4,3.72,5.52,8.66,7.62,13.51,3.66,8.45,1.67,17.1,2.31,25.64a7.57,7.57,0,0,1-1.8,5.23c-1.46,7.05-4.31,13.84-3.56,21.27.27,2.63.2,5.32-1.67,7.55a2.78,2.78,0,0,0-.62,1.76c0,7.63-4.12,14.75-2.92,22.5.59,3.78-1.66,6.73-2.4,10.11a22.49,22.49,0,0,0-.57,6.73,9.88,9.88,0,0,1-1.25,6.16c-1.6,2.63-1.05,5.63-1.09,8.5s-.15,5.6-1.91,8.26c-1.51,2.27-1.06,5.34-1.07,8.09,0,2.91-.13,5.72-1.79,8.33-1.51,2.37-.85,5.16-.84,7.77,0,1.94-.39,3.47-2.3,4.29Z" transform="translate(-168.51 -38.76)"/><path class="cls-5" d="M396.69,469.93c3.16-4.64,2.15-10.34,3.35-15.44,3.09-13.06,3.78-26.68,5.9-40,2.83-17.81,6.79-35.42,8.71-53.43.42-4,.11-9.6,3.9-13.21,0,3.64.05,7.27-1.49,10.68h0c-.24.27-.48.52-.73.77h0c-1.14,3.4-.92,6.89-.56,10.35a11.25,11.25,0,0,1-1.71,7.83h0c-1.46,2.33-1.07,4.95-1.15,7.5-.05,1.45.39,3-.5,4.32a11.06,11.06,0,0,1-.63,1h0c-.24.26-.5.5-.72.79h0a1.6,1.6,0,0,0-.41,1.34,4.33,4.33,0,0,1-.25,1.47,12,12,0,0,0,.25,4.65c0,1.65,0,3.29,0,4.94-.23.9-.37,1.82-.59,2.72a6.22,6.22,0,0,1-1.27,3.05h0c-1.47,3.33-1.07,6.86-1.16,10.35,0,1.35.36,2.75-.35,4.05h0a4.89,4.89,0,0,0-.73.78h0c-.5.37-.35,1.09-.79,1.49h0c-.83,2.82-.25,5.7-.37,8.56-.09,2-.11,4-1.16,5.81q-2.24,12.39-4.47,24.78c-.29,1.6-.54,3.2-.81,4.79Z" transform="translate(-168.51 -38.76)"/><path class="cls-6" d="M256.19,469.93c.21-2.48.82-5,.56-7.44-.79-7.47-8.76-11.9-16.48-11.93-7.3,0-14.59-2.61-21.89-4.07a2.43,2.43,0,0,1,1-.84c4.79-.58,9.49-.76,13.9,1.81a10.05,10.05,0,0,0,5.14.93c3.61,0,7.26-.5,10.54,1.85,1.2.87,2.94.35,4.44.4s3.05-.11,4.23,1.14h0c.55.33,1.2.72,1.23,1.35.22,5.61,1.06,11.25-.46,16.81Z" transform="translate(-168.51 -38.76)"/><path class="cls-7" d="M353.63,469.93c-13.23-2.51-26.47-5-39.69-7.57a25.2,25.2,0,0,1-4.09-1.51.63.63,0,0,1-.21-.63c.06-.22.12-.33.19-.33a1.21,1.21,0,0,1,1.52.21l49.81,9.14q.42.21.3.45c-.09.16-.18.24-.28.24Z" transform="translate(-168.51 -38.76)"/><path class="cls-8" d="M258.45,469.93q-.37-9.07-.77-18.16c4.88,2.83,1.33,7.4,2.19,11.07.52,2.25.09,4.72.1,7.09Z" transform="translate(-168.51 -38.76)"/><path class="cls-9" d="M361.18,469.93c0-.23,0-.46,0-.69l7.58.69Z" transform="translate(-168.51 -38.76)"/><path class="cls-10" d="M417.06,358.53q.75-5.34,1.49-10.68c6-18.19-3.34-46.66-21.29-54.78-12-5.45-23.95-11.43-36.22-16.47-2.78.2-3.73-2.63-5.83-3.53a16.83,16.83,0,0,1-9.7-9.7c-.29-.41-.54-.86-.86-1.26-.87-1.2-2-2.23-2.51-3.69-.19-.46-.41-.91-.63-1.36-.48-1.11-1.29-2-1.83-3.12a6.81,6.81,0,0,1-.58-1.58,35.52,35.52,0,0,1,0-8.18,7.29,7.29,0,0,1,.58-1.58c3.2-4.53,7.62-7.92,11.3-12,.29-.36.6-.72.87-1.11s.29-.53.44-.79c.18-.42.36-.84.53-1.26a26.93,26.93,0,0,1,1.58-2.83,3.38,3.38,0,0,0,.36-1.4,28.11,28.11,0,0,1,.31-5.19,14.14,14.14,0,0,1,.69-2,7,7,0,0,1,3.6-3.64,12.68,12.68,0,0,1,1.34-.5c.4-.14.82-.25,1.23-.37l.73-.28L363,211l.6-.44s.28-.24.27-.25c.17-.18.34-.35.5-.54l.23-.29c.12-.22.26-.42.38-.64s.24-.44.36-.66l.34-.68c.11-.23.23-.46.36-.68l.51-1a6.67,6.67,0,0,1,.35-.71c.17-.35.37-.7.57-1s.4-.68.62-1a9.56,9.56,0,0,0,.51-1.07c.13-.38.27-.76.43-1.13a10.41,10.41,0,0,1,.55-1.11c.27-.48.56-.95.82-1.44a7.31,7.31,0,0,0,.39-1.2c.12-.58.23-1.15.37-1.72a3.81,3.81,0,0,0-.06-2.64,20.54,20.54,0,0,1-.34-2.18,5,5,0,0,0-.33-1.2c-.23-.48-.49-1-.75-1.41s-.39-.7-.57-1.05-.24-.47-.36-.71-.36-.72-.56-1.07-.3-.48-.45-.73-.35-.49-.52-.74l-.27-.4a5.17,5.17,0,0,1-.6-1.41,8,8,0,0,1-.19-1.69,18.74,18.74,0,0,1,.8-6.87c.29-.91.41-2,1.78-1.85-3.55,9.09,6.51,16,4.32,24.34-1.86,7.12-3.87,15-11.89,18.46-1.9.83-3.28,2.21-3.33,4.22-.24,9.5-6.08,15.72-12.52,21.45-4.83,4.29-4.73,9.23-2.43,14.38,4.92,11,14.31,16.75,24.25,23.07,15,9.54,34.41,11.25,45.72,27.62,6.43,9.3,11.92,33.28,6.84,43.22C418,351.46,419.86,355.58,417.06,358.53Z" transform="translate(-168.51 -38.76)"/><path class="cls-11" d="M263.72,278.17c7.91-5,15.74-10.18,23.8-15a6.34,6.34,0,0,0,3.32-5.85c.12-7.91,1.82-16-7.22-21.43-4.16-2.52-6.44-8.3-6.23-13.94.14-3.71-2.76-5.28-4.87-7.21-9.51-8.68-14.7-18.39-8.72-31.4.55-1.19-.06-2.91-.14-4.39a1.57,1.57,0,0,1,1-.39,2,2,0,0,1,1,.48,4.33,4.33,0,0,1,1.11,2,6.45,6.45,0,0,1-.78,4.74c-4.19,7.64-1.54,15.89,3.48,22a68.5,68.5,0,0,0,7.45,7.5,10.29,10.29,0,0,1,3.58,7.25c.47,7.62,5,12.31,11.05,15.95,1.63,1.32,2,3.11,2,5.07,0,4.64-.17,9.29.05,13.92a8.16,8.16,0,0,1-4.11,7.89c-5.84,3.55-11.25,7.76-17.06,11.34a19.82,19.82,0,0,0-4.55,1.53C266.55,278.83,265.05,279.6,263.72,278.17Z" transform="translate(-168.51 -38.76)"/><path class="cls-12" d="M263.72,278.17l8.32-2.24a.8.8,0,0,1,.23.65c0,.23-.07.35-.12.35a27.64,27.64,0,0,1-3.23,2.12c-4.43.76-6.9,4.82-10.91,6.45-6.24,2.52-12.65,4.64-18.73,7.53-7.23,3.44-14.36,7-17.93,15-1.75,3.9-3.71,7.72-5.75,11.51a84.33,84.33,0,0,0-.68,27.36,11.78,11.78,0,0,0,1.32,3.52,15.26,15.26,0,0,1,1,5.55c0,10.72.24,21.44-.13,32.15a22,22,0,0,1-5,13.72,1.24,1.24,0,0,1-1.28-.18c.67-3.37.78-6.86,2.65-9.95a9.4,9.4,0,0,0,1.17-5.84c-.88-8.82.39-17.64,0-26.45-.16-3.5,0-7.07-2.49-10-.78-.93-.51-2.18-.52-3.3,0-7.7,0-15.4,0-23.1,0-4.43,3.19-7.5,4.65-11.3,4.84-15.12,18.18-19.73,30.9-25.11,2.21-1.68,5.08-1.16,7.46-2.27l.05,0c1.58-1.31,3.63-1.76,5.28-2.94l.05-.05a5.21,5.21,0,0,1,.71-.7l.06,0c1-.76,2-1.52,2.9-2.32Z" transform="translate(-168.51 -38.76)"/><path class="cls-13" d="M216.27,311.67c-6.05,10.75-5.57,23-3.32,33.76,2.65,12.68,1.06,25.1,2.34,37.55.7,6.85-3.06,12.48-4.44,18.74l.15.61a144.26,144.26,0,0,1,.1,14.85,6.47,6.47,0,0,1-.48,1.68q-.21.52-.45,1c-.32.63-.64,1.26-.9,1.92a4.36,4.36,0,0,0-.33,1.52c-.05,1.42,0,2.85,0,4.27a33,33,0,0,0,.23,5.88c1,2.86,3.56,4.42,5.4,6.57.33.33.64.69.94,1s.58.65.87,1l.83.91c.28.28.56.57.83.86a8.34,8.34,0,0,1,.81.87,2.72,2.72,0,0,1,.59,1,.85.85,0,0,1-.22.73l-.83,0c-13.29-10.9-11.9-13.73-10-29.85,2.45-20.35,9.82-40.82,4.94-61.4-2.41-10.18-1.85-20-2.51-30C210.5,319.79,213.05,315.61,216.27,311.67Z" transform="translate(-168.51 -38.76)"/><path class="cls-14" d="M264.55,179h-.89c-7.27-4-8.52-12-9.88-18.51s-4.93-12.58-3.69-19.69c2.24-12.85,4.92-25.34,14.56-35.09,2.51-2.54,4.41-5.7,6.58-8.57a2.6,2.6,0,0,0,.78-.77h0a2.4,2.4,0,0,0,.76-.76h0a2.34,2.34,0,0,0,.75-.75h0a2.5,2.5,0,0,0,.76-.76h0a2.47,2.47,0,0,0,.75-.76h0a2.5,2.5,0,0,0,.76-.76h0a2.34,2.34,0,0,0,.75-.75h0a2.5,2.5,0,0,0,.76-.76h0a2.37,2.37,0,0,0,.75-.76h0a2.5,2.5,0,0,0,.76-.76h0a2.27,2.27,0,0,0,.75-.76h0a2.37,2.37,0,0,0,.76-.75h0a3.43,3.43,0,0,0,.78-.74h0a1.26,1.26,0,0,1,1.61-.08c.49,1.85-.87,2.86-2,3.76-7.15,5.85-11.67,14-17.73,20.81-4,4.45-6.38,10.65-7.58,17.25-1,5.68-2.06,11.22-2,17a9.53,9.53,0,0,0,1.26,5.41,2.92,2.92,0,0,1,.72,1.72c-.7,5.15,2.62,9.3,3.5,14.08.63,3.43,2.85,6.38,5.22,9a5.21,5.21,0,0,1,.54,1.05l.15.58A1.45,1.45,0,0,1,264.55,179Z" transform="translate(-168.51 -38.76)"/><path class="cls-15" d="M340.88,79.66q.33,0,.66.09a15,15,0,0,1,3,1.47h0c.36.51,1.09.34,1.45.82l0,0a18.08,18.08,0,0,1,4.54,2.23h0a3.88,3.88,0,0,0,.8.71h0a109.23,109.23,0,0,1,9.85,9.87c5.48,7.2,11.74,14,16.19,21.75,3.73,6.51,2.71,14.26.35,21.47a6.77,6.77,0,0,0-.73.79h0a.78.78,0,0,1-1.1-.23,2.56,2.56,0,0,1-.25-1.84c.44-4.14.1-8.28.21-12.41,0-.58,0-1.17,0-1.75-.06-1.43.22-2.89-.32-4.29-.25-.46-.55-.9-.84-1.36-1.15-2-3.1-3.54-4.05-5.74a6.42,6.42,0,0,0-1.1-2c-7.18-6.49-11.34-15.78-19.18-21.52-5.59-4.09-11.57-8-19.11-7.72-3.13.13-6.28.07-9.41,0-4.42-.09-8.76-.15-12.66,2.54a3.79,3.79,0,0,1-4,.41.78.78,0,0,1-.13-1h0a3,3,0,0,0,.8-.71h0c.87-.79,2-1,3-1.48.22,0,.45-.06.68-.08a4.28,4.28,0,0,0,.83-.7h0c.76-.42,1.43-1.11,2.36-1.09,8.78.15,17.56-.51,26.33.34h0c.26.24.5.51.79.73h0A2.19,2.19,0,0,0,340.88,79.66Z" transform="translate(-168.51 -38.76)"/><path class="cls-16" d="M376.22,138.8l.87.07c-1.3,11.23-4.42,22-8.35,32.54-.52,3.26-1,6.53-1.54,9.79-2.8-.83-1.44-3.21-1.82-4.94,0-2.67,1.18-5.09,1.76-7.62,1.22-5.33,3.94-10.24,4.28-15.78a10.34,10.34,0,0,1,1.11-4.35c1.28-1.59,1.09-3.5,1.21-5.37S373.59,139.2,376.22,138.8Z" transform="translate(-168.51 -38.76)"/><path class="cls-17" d="M305.21,81.94l.1.87c-.23,2.18-1.91,2.38-3.52,2.49-2.61.19-5.22.13-7.83.06a12.38,12.38,0,0,0-7.13,1.7c-1.28.8-2.65,1.48-4.11.3l-1.62-.07C288,80.46,297.18,83.75,305.21,81.94Z" transform="translate(-168.51 -38.76)"/><path class="cls-17" d="M339.27,78.23,310.58,79c4.73-3.42,10.07-1.09,15.1-1.44C330.17,77.22,334.74,78,339.27,78.23Z" transform="translate(-168.51 -38.76)"/><path class="cls-10" d="M414.06,377.49c3.09-5.76-1.43-12.49,2.27-18.18C415.23,365.33,418.7,371.92,414.06,377.49Z" transform="translate(-168.51 -38.76)"/><path class="cls-17" d="M361.26,94.85,351.41,85A29,29,0,0,1,361.26,94.85Z" transform="translate(-168.51 -38.76)"/><path class="cls-18" d="M407.27,423.72c.71-4.78-1.6-9.88,1.51-14.4Q408,416.52,407.27,423.72Z" transform="translate(-168.51 -38.76)"/><path class="cls-18" d="M404.23,440.36,405.76,426C404.91,430.74,407.51,435.87,404.23,440.36Z" transform="translate(-168.51 -38.76)"/><path class="cls-18" d="M410.27,393.39l0-1.49a.46.46,0,0,1,.75,0l-.74,14.42-.34-.38c0-.66-.21-1.35.3-1.93v-6A6.45,6.45,0,0,1,410.27,393.39Z" transform="translate(-168.51 -38.76)"/><path class="cls-10" d="M411.81,389.62c2.11-3.79-1-8.55,2.25-12.12q-.76,6.06-1.52,12.12A.42.42,0,0,1,411.81,389.62Z" transform="translate(-168.51 -38.76)"/><path class="cls-11" d="M254.63,284.29l-7.46,2.27C249.15,284.13,252,284.54,254.63,284.29Z" transform="translate(-168.51 -38.76)"/><path class="cls-11" d="M260,281.32l-5.28,2.94C255.79,282.11,257.89,281.74,260,281.32Z" transform="translate(-168.51 -38.76)"/><path class="cls-17" d="M350.61,84.28l-4.54-2.23A4.68,4.68,0,0,1,350.61,84.28Z" transform="translate(-168.51 -38.76)"/><path class="cls-11" d="M263.68,278.21l-2.9,2.32Z" transform="translate(-168.51 -38.76)"/><path class="cls-17" d="M309.07,79.76l-3,1.48Z" transform="translate(-168.51 -38.76)"/><path class="cls-17" d="M344.59,81.22l-3-1.47Z" transform="translate(-168.51 -38.76)"/><path class="cls-18" d="M408.78,409.32c.26-1,.53-2,.79-3,.22-.39.46-.39.7,0l0,0Z" transform="translate(-168.51 -38.76)"/><path class="cls-17" d="M346,82l-1.45-.82Z" transform="translate(-168.51 -38.76)"/><path class="cls-18" d="M405.75,426l.79-1.49Z" transform="translate(-168.51 -38.76)"/><path class="cls-11" d="M260.72,280.57l-.71.7Z" transform="translate(-168.51 -38.76)"/><path class="cls-16" d="M377.07,138.86l.73-.79C377.56,138.34,377.31,138.6,377.07,138.86Z" transform="translate(-168.51 -38.76)"/><path class="cls-17" d="M273.52,94.85l-.75.75Z" transform="translate(-168.51 -38.76)"/><path class="cls-17" d="M340.06,79l-.79-.73Z" transform="translate(-168.51 -38.76)"/><path class="cls-17" d="M310.58,79l-.83.7Z" transform="translate(-168.51 -38.76)"/><path class="cls-17" d="M340.88,79.66l-.83-.71Z" transform="translate(-168.51 -38.76)"/><path class="cls-17" d="M306,81.24l-.8.71Z" transform="translate(-168.51 -38.76)"/><path class="cls-18" d="M411.81,389.62h.73l-.76.74C411.78,390.12,411.79,389.87,411.81,389.62Z" transform="translate(-168.51 -38.76)"/><path class="cls-18" d="M411.06,391.16l.72-.79Z" transform="translate(-168.51 -38.76)"/><path class="cls-10" d="M411.05,391.89h-.75l.76-.75C411.07,391.4,411.06,391.65,411.05,391.89Z" transform="translate(-168.51 -38.76)"/><path class="cls-17" d="M351.41,85l-.8-.71Z" transform="translate(-168.51 -38.76)"/><path class="cls-18" d="M406.54,424.5l.73-.78Z" transform="translate(-168.51 -38.76)"/><path class="cls-17" d="M272,96.36l-.78.77Z" transform="translate(-168.51 -38.76)"/><path class="cls-17" d="M272.77,95.6l-.76.76Z" transform="translate(-168.51 -38.76)"/><path class="cls-17" d="M274.28,94.09l-.76.76Z" transform="translate(-168.51 -38.76)"/><path class="cls-17" d="M275,93.33l-.75.76Z" transform="translate(-168.51 -38.76)"/><path class="cls-17" d="M275.79,92.57c-.25.26-.51.51-.76.76C275.28,93.08,275.54,92.83,275.79,92.57Z" transform="translate(-168.51 -38.76)"/><path class="cls-17" d="M276.54,91.82l-.75.75Z" transform="translate(-168.51 -38.76)"/><path class="cls-17" d="M277.3,91.06l-.76.76Z" transform="translate(-168.51 -38.76)"/><path class="cls-17" d="M278.05,90.3l-.75.76Z" transform="translate(-168.51 -38.76)"/><path class="cls-17" d="M278.81,89.54l-.76.76Z" transform="translate(-168.51 -38.76)"/><path class="cls-17" d="M279.56,88.78l-.75.76Z" transform="translate(-168.51 -38.76)"/><path class="cls-17" d="M280.32,88l-.76.75Z" transform="translate(-168.51 -38.76)"/><path class="cls-17" d="M281.1,87.29l-.78.74Z" transform="translate(-168.51 -38.76)"/><path class="cls-10" d="M416.33,359.31l.73-.77Z" transform="translate(-168.51 -38.76)"/><path class="cls-19" d="M295.44,346.39c-3.1,11.42-8.86,21.41-16.28,30.51a4,4,0,0,0-.43,1.31,16.18,16.18,0,0,0,3.5.78c31.41,0,62.82.16,94.23-.07,7-.06,8.12,3,5.38,8.23-1.46,2.8-.63,6.73-4.08,8.51-.85-3.29.89-6.07,1.83-9,1.29-4,.73-5-3.52-5q-47.28,0-94.57,0a5.44,5.44,0,0,0-5.13,2.86c-6.85,10.19-12.41,21.2-19.7,31.09a8,8,0,0,1-1,1.48c-2.9,3.61-4.68,7.89-7,11.88a7.12,7.12,0,0,1-.63.89c-2.51,2.45-4.81,5.13-7.78,7.08-1.2.78-2.31,1.57-3.78.75a44.91,44.91,0,0,1-3.29-6.76c-2.11-5.72-5.8-9.86-11.85-11.54-.61-1.85.81-2.8,1.83-3.81,10.54-10.44,20.9-21.07,31.66-31.31,6.72-6.38,12.76-13.53,19.57-19.83,5.51-5.09,9.71-11.58,16.44-15.34,1-1.19,1.75-2.77,3.56-3.06A1.68,1.68,0,0,1,295.44,346.39Z" transform="translate(-168.51 -38.76)"/><path class="cls-20" d="M255.4,416.1c7.06-11.44,14.07-22.92,21.28-34.26.6-.93,2.65-1.29,4-1.3,32.3-.07,64.6,0,96.89-.1,4.17,0,4.71,1.95,3.59,5.27s-2.28,6.63-3.42,10a69.75,69.75,0,0,0-6.36,19.88c-.48,3.21-2,4-5.09,3.88-6.25-.29-12.51-.18-18.77-.23-4.78.57-9.69.39-14.28,2.23l-.06,0c-.86.79-2.1-.05-3,.7l-.8.12c-2,.84-4,1.42-6,2.21l0,0a1.92,1.92,0,0,1-2.39-.07c.45-2.6,2.65-3.24,4.64-3.85,12.36-3.8,25-5.8,37.9-4,3.36.47,5.24-.65,5.59-3.8.84-7.45,4.62-13.83,7.13-20.67.7-1.9,1.27-3.82,1.8-5.77s-.08-2.92-2.12-3c-1.13,0-2.26-.06-3.39-.06-29.19,0-58.38.1-87.57-.09-4.78,0-7.65,1.62-10,5.7q-6.48,11.32-13.63,22.25a16.41,16.41,0,0,1-4.16,4.85l-.59.28A1.4,1.4,0,0,1,255.4,416.1Z" transform="translate(-168.51 -38.76)"/><path class="cls-21" d="M295.44,346.39l-.76-.05c-1.37-1.81,0-3.06,1-4.29a66.14,66.14,0,0,0,5.73-8.81c1.65-3.63,2.84-7.58,6.6-9.78.71,0,1.55.61,2.14,0,3.14-3,7-5.51,8.52-9.94,4.15-2.95,7-7.08,10-11a5,5,0,0,1,2.65-2,6.2,6.2,0,0,0,3.67-1.66c1.73-1.37,1.91-2.7.31-4.24.27-1.06,1.15-1.26,2-1.46,2.27.13,4.4-.76,6.6-1.1,3.07-.49,2.79-3.78,3.75-6a4.88,4.88,0,0,1,.87-1.32,5.15,5.15,0,0,1,1.24-1c3.42-1.2,5.75-4.25,9.15-5.49l4.51.67c-6.37.67-9.23,6.39-13,10.13-18.43,18.26-36.22,37.17-54.23,55.86a3.35,3.35,0,0,0-.71.79C295.49,345.93,295.46,346.16,295.44,346.39Z" transform="translate(-168.51 -38.76)"/><path class="cls-22" d="M321.15,424.5h2.26c-16,4.82-6.88,19.51-11.22,28.94-.89,1.94-.59,4.43-.84,6.66L310,460c-1.48-1.49-.8-3.34-.71-5,.47-8.66,1.85-17.21,3.14-25.76C314.15,424.86,316.51,423.57,321.15,424.5Z" transform="translate(-168.51 -38.76)"/><path class="cls-22" d="M333.26,421.42c4.46-2.71,9.42-2.15,14.28-2.23Z" transform="translate(-168.51 -38.76)"/><path class="cls-22" d="M323.45,424.48l6-2.21Z" transform="translate(-168.51 -38.76)"/><path class="cls-22" d="M330.23,422.15l3-.7Z" transform="translate(-168.51 -38.76)"/><path class="cls-19" d="M295.52,345.71l.71-.79Z" transform="translate(-168.51 -38.76)"/><path class="cls-23" d="M313.38,429.09,310,460c-.05.28-.09.56-.14.83-17.17-3-34.56-5-51.36-9.91-5-.16-9.78-1.74-14.66-2.59-6.37-1.12-12.92-1.28-18.82-4.39-1.56-2.49.88-2.69,2.09-3.27,2.26-1.09,4.84-1.12,7.26-1.7,5.88-1.41,10.24-5,13.52-10h0a86.49,86.49,0,0,0,4.87-8.24c.52-1,1-1.33,2-1,3,1.2,6.2.16,9.29.68,13.91,2.33,27.89,4.25,41.72,7C308.3,428,311,427.59,313.38,429.09Z" transform="translate(-168.51 -38.76)"/><path class="cls-24" d="M224.49,443.44l34,7.5-.81.12c-4,.45-7.91.9-11.49-1.74a4.92,4.92,0,0,0-3.66-.58c-6.26,1.2-11.64-2.32-17.5-3.21a1.57,1.57,0,0,1-.88-.89c0-.22,0-.43,0-.65Z" transform="translate(-168.51 -38.76)"/><path class="cls-8" d="M224.44,445l33.24,6.07a5.77,5.77,0,0,1,0,.72l-38.46-5.33c0-.25-.05-.49-.07-.74s.24-.29.35-.44A6.31,6.31,0,0,1,224.44,445Z" transform="translate(-168.51 -38.76)"/><path class="cls-25" d="M366.45,176.06l.75,5.14c.08.56.16,1.11.23,1.66a.79.79,0,0,0,.51.51l.21.21a2.11,2.11,0,0,0,.53.62l.25.93a1.87,1.87,0,0,0,.52.6l.2.9a2.37,2.37,0,0,0,.56.62l1,1.65a3.44,3.44,0,0,0,.55.65c.07,1.06.14,2.11.22,3.17a4.48,4.48,0,0,1,0,2.85l-.19,2.43a2.14,2.14,0,0,0-.54.62l-1,1.66a2.1,2.1,0,0,0-.54.61l-.24,1.58c-.2.23-.39.47-.58.7l-.91,1.62a7.57,7.57,0,0,0-.61.66l-.15.86a2,2,0,0,0-.49.63l-.25,1a1.39,1.39,0,0,0-.54.56l-.23.9a2.54,2.54,0,0,0-.57.65l-.17.17a1.41,1.41,0,0,0-.57.59l-.18.18a1.39,1.39,0,0,0-.57.58l-.19.18a2,2,0,0,0-.63.56l-1.69.29a1.43,1.43,0,0,0-.6.46l-3.86,3.23c-.42.31-.36.83-.53,1.25l-.28,7a5.47,5.47,0,0,0-.54.65l-1.71,3.2a1.77,1.77,0,0,0-.51.58l-.25.92a3.47,3.47,0,0,0-.55.6l-11.53,12.33a.87.87,0,0,0-.49.54q0,5,0,10a.92.92,0,0,0,.5.54l1.8,3.26a1.08,1.08,0,0,0,.44.57q1.27,2,2.53,4a.8.8,0,0,0,.51.49c2.23,7.71,10.26,9.38,15,14.45l-1.48.24a2.44,2.44,0,0,1-2.09.37c-1.79-1.15-2.94-3.16-5.1-3.82-6.53-2.87-8.23-9.75-12.13-14.79-2.06-2.66-3.93-5.54-3.55-9.22-.65-4.93,1.36-8.63,4.92-11.94,3.37-3.14,7-6.15,9.13-10.41a13.36,13.36,0,0,0,1.78-6.07,12.32,12.32,0,0,1,3.63-8.8,5.41,5.41,0,0,1,.94-.58c.48-.24,1-.44,1.48-.65.3-.17.62-.32.93-.48s.9-.56,1.33-.87c4.05-3.85,6.18-8.82,7.92-14,.95-2.8,0-5.47-1.59-7.89a13.1,13.1,0,0,1-2.51-8.54C364.88,177.93,364.34,176.22,366.45,176.06Z" transform="translate(-168.51 -38.76)"/><path class="cls-26" d="M357.42,276.77l2.14.07c-.2.47-.41.94-.61,1.42-2.44,2.89-5.23,5.27-9.07,6.07-.08-.17-.15-.33-.22-.5C351.23,280.36,354.27,278.5,357.42,276.77Z" transform="translate(-168.51 -38.76)"/><path class="cls-10" d="M410.27,393.39V398A3.63,3.63,0,0,1,410.27,393.39Z" transform="translate(-168.51 -38.76)"/><path class="cls-10" d="M410.27,406.28l-.7,0c.23-.77.47-1.54.7-2.3Z" transform="translate(-168.51 -38.76)"/><path class="cls-16" d="M371.91,195.57c0-.95,0-1.9,0-2.85C371.92,193.67,371.92,194.62,371.91,195.57Z" transform="translate(-168.51 -38.76)"/><path class="cls-16" d="M356.11,217.51l.53-1.25C356.46,216.68,356.29,217.1,356.11,217.51Z" transform="translate(-168.51 -38.76)"/><path class="cls-16" d="M369.67,200.89c.18-.2.36-.41.55-.61C370,200.48,369.85,200.69,369.67,200.89Z" transform="translate(-168.51 -38.76)"/><path class="cls-16" d="M371.18,198.62l.54-.62Z" transform="translate(-168.51 -38.76)"/><path class="cls-16" d="M340.25,243.3l.49-.54A1,1,0,0,1,340.25,243.3Z" transform="translate(-168.51 -38.76)"/><path class="cls-16" d="M340.74,253.87l-.5-.54A1,1,0,0,1,340.74,253.87Z" transform="translate(-168.51 -38.76)"/><path class="cls-16" d="M343,257.7l-.44-.57A.9.9,0,0,1,343,257.7Z" transform="translate(-168.51 -38.76)"/><path class="cls-16" d="M346,262.15l-.51-.49A1,1,0,0,1,346,262.15Z" transform="translate(-168.51 -38.76)"/><path class="cls-16" d="M371.71,189.55l-.55-.65Z" transform="translate(-168.51 -38.76)"/><path class="cls-16" d="M370.21,187.25c-.19-.2-.37-.41-.56-.62C369.84,186.84,370,187.05,370.21,187.25Z" transform="translate(-168.51 -38.76)"/><path class="cls-16" d="M369.45,185.73l-.52-.6Z" transform="translate(-168.51 -38.76)"/><path class="cls-16" d="M365.9,208.47l.54-.56Z" transform="translate(-168.51 -38.76)"/><path class="cls-16" d="M368.68,184.2l-.54-.62Z" transform="translate(-168.51 -38.76)"/><path class="cls-16" d="M367.94,183.37l-.51-.51A1.05,1.05,0,0,1,367.94,183.37Z" transform="translate(-168.51 -38.76)"/><path class="cls-16" d="M365.1,210l.57-.65Z" transform="translate(-168.51 -38.76)"/><path class="cls-16" d="M364.36,210.78l.57-.59Z" transform="translate(-168.51 -38.76)"/><path class="cls-16" d="M363.61,211.54l.57-.58Z" transform="translate(-168.51 -38.76)"/><path class="cls-16" d="M362.79,212.28l.63-.56Z" transform="translate(-168.51 -38.76)"/><path class="cls-16" d="M360.5,213l.6-.47Z" transform="translate(-168.51 -38.76)"/><path class="cls-16" d="M366.69,206.94l.49-.64Z" transform="translate(-168.51 -38.76)"/><path class="cls-16" d="M367.33,205.45l.61-.66Z" transform="translate(-168.51 -38.76)"/><path class="cls-16" d="M355.29,225.13l.54-.65Z" transform="translate(-168.51 -38.76)"/><path class="cls-16" d="M353.07,228.91l.51-.58Z" transform="translate(-168.51 -38.76)"/><path class="cls-16" d="M352.27,230.43l.55-.6Z" transform="translate(-168.51 -38.76)"/><path class="cls-16" d="M368.85,203.17c.19-.23.39-.46.58-.7C369.24,202.71,369,202.94,368.85,203.17Z" transform="translate(-168.51 -38.76)"/><path class="cls-27" d="M290.89,238.92a16.77,16.77,0,0,1-11-13.45c-.79-4.8-2.26-8.45-5.81-11.61-9.29-8.25-15-17.57-8.23-30.3.42-.78.07-2,.07-3l.35-.31a2,2,0,0,1,.91.12,3.33,3.33,0,0,1,1.1.91,2.75,2.75,0,0,1,.55,1.86,3.34,3.34,0,0,1-.3,1,23.68,23.68,0,0,0-1.43,2.68c-3.6,10,.37,17.53,7.71,24,.27.24.52.49.77.76l.36.4c3.79,3.55,6.28,7.63,6.53,13.1.2,4.4,3.29,7.47,6.26,10.4a19.24,19.24,0,0,0,1.85,1.76,2.67,2.67,0,0,1,.6.81A1,1,0,0,1,290.89,238.92Z" transform="translate(-168.51 -38.76)"/><path class="cls-28" d="M290.89,238.92l.05-.82c3.14,0,4.07.93,4.11,4.5.05,5.36,0,10.72,0,16-.22,4.08-2.2,6.89-5.82,8.88-4.57,2.53-8.64,5.88-13.05,8.69-1,.66-1.9,1.65-3.26,1.67-.63-.14-1.07-.44-.95-1.19,0-.26,0-.51.07-.77,5.55-3.69,11-7.5,16.67-11,4.67-2.94,4-7.48,3.66-11.75C292,248.4,294.1,243.36,290.89,238.92Z" transform="translate(-168.51 -38.76)"/><path class="cls-27" d="M265.89,180.59l-.73-1.5.25-.33a1,1,0,0,1,.78.14,1.61,1.61,0,0,1,.29.76,1.07,1.07,0,0,1-.34.73Z" transform="translate(-168.51 -38.76)"/><path class="cls-27" d="M264.55,179v-.78c.61-.08.91.11.71.77l-.1.11A1.81,1.81,0,0,0,264.55,179Z" transform="translate(-168.51 -38.76)"/><path class="cls-29" d="M211.63,401.79c4.15-7.48,5-15.55,4.55-23.94-.46-9.17-.6-18.35-.89-27.52l.58-.28a2.38,2.38,0,0,1,1.15.53,3.39,3.39,0,0,1,.93,1.71,15.9,15.9,0,0,1,.81,4.44c.09,9.81-.14,19.63.19,29.44.17,4.78-1.93,9.08-3.44,13.44-1.18,3.42-1.94,6.69-1.27,10.3a11.46,11.46,0,0,1-.31,6c-.4,1.09-.54,2.9-2.6,2.15C210.76,412.6,210.2,407.18,211.63,401.79Z" transform="translate(-168.51 -38.76)"/><path class="cls-30" d="M215.29,318.3c5.08-18.35,19.32-26.34,35.91-31,6.72-1.89,11.08-7.6,17.71-9.19l.31.47c-.79,3-3.94,3.24-5.88,4.9-3.73,3.22-8.27,4.94-12.92,6.67-7.58,2.81-15.32,5.5-21.92,10.44-3,2.25-4.78,5.41-6.47,8.69-1.6,3.1-2.57,6.59-5.2,9.11a1.72,1.72,0,0,1-1.08.27Z" transform="translate(-168.51 -38.76)"/><path class="cls-30" d="M215.29,350.33c-2.92-4.11-2.92-27.87,0-32l.24.22a3,3,0,0,1,.71,2.45,150.47,150.47,0,0,0,0,26.68,3,3,0,0,1-.71,2.45Z" transform="translate(-168.51 -38.76)"/><path class="cls-31" d="M211.63,401.79v16.59H211a1.47,1.47,0,0,1-.46-1.2c.2-5.15-.43-10.31.35-15.44h0Z" transform="translate(-168.51 -38.76)"/><path class="cls-30" d="M272,276.7l.89.71a.9.9,0,0,1-.16,1.15,2.77,2.77,0,0,1-3.54-.15l-.25-.32Z" transform="translate(-168.51 -38.76)"/><path class="cls-12" d="M210.85,401.73V418.4l-.25.24h-.36l-.26-.23Z" transform="translate(-168.51 -38.76)"/><path class="cls-8" d="M214.6,441.19l-6-6.84.51-.23c2.9,1.38,5.47,3.06,5.89,6.65Z" transform="translate(-168.51 -38.76)"/><path class="cls-8" d="M208.56,434.35l-.7-6.87a1.23,1.23,0,0,1,1.19-.22c2,2.47.64,4.74-.41,7Z" transform="translate(-168.51 -38.76)"/><path class="cls-12" d="M208.65,427.47h-.79c0-1.76,0-3.51,0-5.27a1.12,1.12,0,0,1,1.16.39C209.88,424.3,210.07,426,208.65,427.47Z" transform="translate(-168.51 -38.76)"/><path class="cls-12" d="M209.33,419.91c0-.24,0-.47,0-.71a.66.66,0,0,1,.92-.12,2,2,0,0,1,.43,1.52,2.09,2.09,0,0,1-.49.93,1.07,1.07,0,0,1-1-.17A1.15,1.15,0,0,1,209.33,419.91Z" transform="translate(-168.51 -38.76)"/><path class="cls-8" d="M209.33,419.91v1.52l-.23.26-.35,0-.2-.3Z" transform="translate(-168.51 -38.76)"/><path class="cls-8" d="M210.11,419.16a5.85,5.85,0,0,0-.73,0l.6-.78h.15c.18.17.24.33.17.5S210.17,419.16,210.11,419.16Z" transform="translate(-168.51 -38.76)"/><path class="cls-8" d="M208.62,422.21h-.77c.24-.27.48-.53.71-.8l0,0,.31.38Z" transform="translate(-168.51 -38.76)"/><path class="cls-8" d="M215.36,442l-.76-.76.08-.08a.73.73,0,0,1,.84.36Z" transform="translate(-168.51 -38.76)"/><path class="cls-8" d="M216.11,442.71l-.75-.76.07-.08a.72.72,0,0,1,.84.35Z" transform="translate(-168.51 -38.76)"/><path class="cls-8" d="M216.87,443.47l-.76-.76.07-.08a.71.71,0,0,1,.84.35Z" transform="translate(-168.51 -38.76)"/><path class="cls-8" d="M217.62,444.23l-.75-.76.06-.08a.72.72,0,0,1,.85.35Z" transform="translate(-168.51 -38.76)"/><path class="cls-8" d="M218.38,445l-.76-.75.06-.08a.7.7,0,0,1,.85.34Z" transform="translate(-168.51 -38.76)"/><path class="cls-8" d="M219.14,445.71l-.76-.73.06-.07c.63-.15.88.1.77.73Z" transform="translate(-168.51 -38.76)"/><path class="cls-32" d="M265.26,179l-.71-.77,0,0c-.24-.2-.48-.4-.71-.61-8.65-14.36-13.39-28.94-9.83-46.53,3.84-19,17.5-30.26,28.74-43.68,6.86-4.84,15.43-1.18,22.59-4.55,14.34-5.55,28.64-6.51,42.31,1.69,10.74,6.43,16.53,17.6,24.19,27a1.92,1.92,0,0,1,0,2.25c-.95.33-1.42-.32-1.74-1-1.1-2.34-3-4-4.79-5.76a44.09,44.09,0,0,1-7-9.21c-3.75-6.11-9.36-10.16-15.86-13.3a26.78,26.78,0,0,0-13.71-2.92,63.55,63.55,0,0,1-8.28,0,17.12,17.12,0,0,0-10.75,2.57,19.25,19.25,0,0,1-11.85,2.81c-3.35-.18-6.8-.38-9.8,1.67-6.61,3.45-11.88,8.26-15.21,15.08a18.12,18.12,0,0,1-4.09,4.9c-6.05,5.87-10,12.8-10.71,21.35a5.68,5.68,0,0,1-2,3.93,4.39,4.39,0,0,0-1.65,3.64c.2,5.06-.83,10.14,2,15,1.88,3.27,1.59,7.41,2.77,11.13,1.61,5,3.64,9.51,7.24,13.31a2.6,2.6,0,0,1,.22,1.19,1.57,1.57,0,0,1-.62,1A3.73,3.73,0,0,1,265.26,179Z" transform="translate(-168.51 -38.76)"/><path class="cls-27" d="M263.81,177.57l.71.61Z" transform="translate(-168.51 -38.76)"/><path class="cls-33" d="M376.22,138.8q-1.43,5-2.83,10l-.43-.39c0-3.23-.4-6.5.76-9.64a3.94,3.94,0,0,1,.64-1,2.29,2.29,0,0,1,1.56-.67l.5.3C376.35,137.88,376.28,138.34,376.22,138.8Z" transform="translate(-168.51 -38.76)"/><path class="cls-33" d="M377.1,123.69q-.35,6.87-.68,13.72l-.2-.15c-1.28-1.17-.92-2.75-1-4.22,0-.63,0-1.26,0-1.89a54.9,54.9,0,0,1,.19-6.28,3,3,0,0,1,.59-1.12A.8.8,0,0,1,377.1,123.69Z" transform="translate(-168.51 -38.76)"/><path class="cls-33" d="M371.77,113.8c0-.78,0-1.55,0-2.33l3.85,5.27-.21.34-.39.11-.39-.06a3.07,3.07,0,0,1-.68-.39l-.29-.25a5.62,5.62,0,0,1-.55-.54c-.09-.08-.17-.18-.26-.27a5.44,5.44,0,0,1-.52-.55s-.23-.29-.24-.29a2.64,2.64,0,0,1-.36-.66Z" transform="translate(-168.51 -38.76)"/><path class="cls-33" d="M376.38,117.54l.72,4.61a.72.72,0,0,1-1,.09,2.61,2.61,0,0,1-.59-1,4.16,4.16,0,0,1,.41-3.37Z" transform="translate(-168.51 -38.76)"/><path class="cls-32" d="M376.24,122.17l.86,0v1.54l-.86,0A1.18,1.18,0,0,1,376.24,122.17Z" transform="translate(-168.51 -38.76)"/><path class="cls-33" d="M375.66,116.74c.24.26.48.53.71.8l-.15.13c-.6.08-.85-.15-.72-.76Z" transform="translate(-168.51 -38.76)"/><path class="cls-33" d="M366.45,176.06c-.27,1.3-.54,2.6-.8,3.89a1.42,1.42,0,0,1-1.58,0c-1.1-1.34-.81-2.78-.32-4.24.12-.34.26-.68.4-1a14.05,14.05,0,0,0,.4-1.58c1.85-6.26,2.61-12.84,5.51-18.79.67-1.36.57-2.9.95-4.33a2.89,2.89,0,0,1,.59-1,1.62,1.62,0,0,1,1.58-.4l.21.18Q369.92,162.43,366.45,176.06Z" transform="translate(-168.51 -38.76)"/><path class="cls-3" d="M313.38,429.09c-8.73.18-17-2.45-25.55-3.75-10.33-1.59-20.75-2.61-31.12-4a10.62,10.62,0,0,1-2.9-1.37c-.76-1.24.33-2,.75-3l.84-.95.76.14a7.52,7.52,0,0,0,.6.91c.1-.47-.32-.68-.48-1,6.72-10.51,13.49-21,20.11-31.56a5.11,5.11,0,0,1,5-2.56q47.72.06,95.42,0c3.18,0,3.71.41,2.83,4-2.26,9.41-8.17,17.45-9.23,27.29-.89,8.38-7.18,3.86-11.27,3.94-13.08.26-26.15.34-38,7.23C318.44,425.83,314.34,424.78,313.38,429.09Z" transform="translate(-168.51 -38.76)"/><path class="cls-34" d="M210.09,421.38l0-.68a1.07,1.07,0,0,1,1-.28c2.09.93,3.3-.37,4.47-1.76,7.59-9.09,16.5-16.9,24.51-25.56,10.16-11,21.15-21.11,31.37-32,3.1-3.31,6.61-6.16,9.8-9.36,2.13-2.13,3.26-4.15,3-7.05,1.49-.62,2.39.33,3.32,1.22.89,1.77,3,2.19,4.12,3.71l-70.23,69.55c-1.77,4-5.32,6.15-8.56,8.65a1.63,1.63,0,0,1-1-.46C211.09,425.42,208.46,424.05,210.09,421.38Z" transform="translate(-168.51 -38.76)"/><path class="cls-35" d="M213.14,427.53l8.3-8.37c6.2-1.1,8.45,4.14,11.15,7.73,2.15,2.87,2.71,6.94,4,10.48a2.75,2.75,0,0,1-2.48,2c-5.15.81-10.12,3-15.49,2.05a5.6,5.6,0,0,1-1.15-.24,3.43,3.43,0,0,1-1-.53,4.79,4.79,0,0,1-.79-.77,4.7,4.7,0,0,0-1.79-1.91,6.45,6.45,0,0,1-.81-.76,3.83,3.83,0,0,1-.63-1,4.57,4.57,0,0,1-.3-1.14C212.07,432.55,211.24,429.85,213.14,427.53Z" transform="translate(-168.51 -38.76)"/><path class="cls-36" d="M291.67,349.61c-2.15-.09-4.12-.45-4.47-3.13,0-1.42,1.08-2.22,1.93-3.14,2.65-2.85,5.89-5.09,8.43-8.1,1.09-1.29,2.67-2.37,4.67-1.7q-3.76,6.4-7.55,12.8Z" transform="translate(-168.51 -38.76)"/><path class="cls-37" d="M216.92,440.35c6.73.19,13.43.26,19.64-3,5.16-.9,7.41-5.76,11.32-8.35-2.6,7.05-8.71,9.49-15.13,11.33-2.85.81-6,.81-8.26,3.09h0c-.4.39-.56,1-1,1.34C219.91,445.56,217.88,444.2,216.92,440.35Z" transform="translate(-168.51 -38.76)"/><path class="cls-37" d="M254.56,417.05c-.25,1-.5,2-.74,3l-5.94,9Z" transform="translate(-168.51 -38.76)"/><path class="cls-38" d="M302.23,333.54l-15,12.94-3-1.52a1.22,1.22,0,0,1-1.4,0c-3.72-3.12-7.74-5.89-11.17-9.34a3.62,3.62,0,0,1-.55-4.83c2.74-3.88,4.48-8.38,7.51-12,2.82-2.63,4.24-6.18,6.08-9.46a6.36,6.36,0,0,1,.45-.95,7.43,7.43,0,0,1,.58-.88c.09-.15.2-.29.3-.44.19-.3.4-.59.6-.89l.25-.48c8.06-11.17,11.19-24.34,15-37.21a60.53,60.53,0,0,1,2.49-6.32,44.5,44.5,0,0,0,4.51-12.35c.66-3.76,1-7.58,2-11.32a42.53,42.53,0,0,1,2.28-7.18c.77-1.65,1.34-3.22.39-5-.87-1.66-.44-3,1.47-3.48,2.85-.75,4.29-3.66,7.3-4.43,1.93-.5,1.83-4,0-7.11-1.25-2.13-2.63-4.15-.43-6.47a2.85,2.85,0,0,1,1-.5c7,1.72,10.18,8.74,7.25,15.19-1.48,3.25-.6,7.08-2,10.52-2,5.18-1.42,10.95-3.16,16.24-.6,1.81.19,2.65,2.07,2.44,3.24-.75,6.33,1.46,9.59.49a1.37,1.37,0,0,1,1,.35c2.37,9.55,8,17,15.13,23.44-1.08,4.57-2,9.19-4.89,13.11-.43,1.55-1.44,2.85-1.88,4.42-.31,1.11-1.19,2.21-2.35,2-2.29-.34-4,1.07-5.94,1.6l-2.27.75c-.5,2.57-2.12,4.42-3.91,6.16-4.76,3.77-6.24,10.8-12.74,12.83a17.56,17.56,0,0,0-8.71,8.27,3.21,3.21,0,0,1-1.93,1.67Z" transform="translate(-168.51 -38.76)"/><path class="cls-39" d="M308.28,323.75c2.64-4.29,3.9-10.07,10.64-9.94l1.52.94c-3.35,3.53-6.57,7.21-10.11,10.54C308.58,326.94,308.46,325,308.28,323.75Z" transform="translate(-168.51 -38.76)"/><path class="cls-40" d="M331.66,301c.21-2.74,2.19-4.37,3.91-6.16,1.06.55,4-.24,3.06,1.12C337.14,298.2,336,302.25,331.66,301Z" transform="translate(-168.51 -38.76)"/><path class="cls-26" d="M337.84,294.07c3.74-2.18,8.36-3.32,9.75-8.28l.41-.25.38.31C348.67,293.49,343.07,293.54,337.84,294.07Z" transform="translate(-168.51 -38.76)"/><path class="cls-26" d="M349.12,285.07l-.74.78-.06-.06a.64.64,0,0,1,.29-.86Z" transform="translate(-168.51 -38.76)"/><path class="cls-26" d="M349.88,284.33l-.76.74-.05,0c-.17-.69.08-.94.77-.76Z" transform="translate(-168.51 -38.76)"/><path class="cls-31" d="M216.92,440.35c2,1.86,2.84,5.7,6.86,3.76a.4.4,0,0,1,.68.07c0,.27,0,.54,0,.81l-5.23.65c-.26-.24-.52-.48-.77-.73s-.51-.5-.76-.76l-.75-.76-.75-.76-.75-.76-.75-.76q-3-3.41-6-6.82,0-3.41,0-6.82l0-5.26h0a6.05,6.05,0,0,1,.74-.78h0a6.3,6.3,0,0,0,.75-.05l2.27,6.12c-.68,3.11-1.54,6.24.81,9.08h0a5,5,0,0,0,.76.77h0a8,8,0,0,1,2.28,2.28h0a4,4,0,0,0,.76.77Z" transform="translate(-168.51 -38.76)"/><path class="cls-23" d="M224.46,444.18l-.68-.07.72-.66C224.49,443.69,224.48,443.93,224.46,444.18Z" transform="translate(-168.51 -38.76)"/><path class="cls-23" d="M327.2,249.46c-2.64,1.55-4.29.37-3.54-2.24,2.88-10.12,3.23-20.72,6.71-30.81,1.81-5.27-2.77-9.3-7.71-11.67,4.34-4.32,1.7-8.89.52-13.45a27,27,0,0,0-2.44-6.7c-.92-1.62-2.15-2.83-4.16-2.71a4.36,4.36,0,0,0-3.93,3.09,78.8,78.8,0,0,0-4,14.46c-.31,2.1,1.46,3.16,3,3.92,2.33,1.15,4.74,2.14,7.52,1.22,1.08-.36,2.43-.93,3.55.17-.23,1.28-1.13,3.12-.6,3.76,8.06,9.7-1.42,11.17-6.45,15.46-2,1.74-.43,6.31-1.94,9.74-4,9.11-3,19.82-8.37,28.63-1.81-2.32-.42-4.58.28-6.75,2.3-7.07,2.36-7.06-4.75-9.42a15.35,15.35,0,0,1-1.77-.6c-2.45-1.14-3.14,0-3.15,2.29,0,2.76.06,5.52.25,8.27.11,1.65.42,3.69-2.19,3.93,0-5.87,0-11.74,0-17.61,0-2.22-.51-4-3.05-4.34l0,0c-.69-.58-1.52-.94-2.25-1.47-4.63-3.62-7.62-8-7.65-14.22,0-4.34-3.48-7-6-10,.18-.71.69-1.33.44-2.15-2.37-7.69-3.46-15.67-5.4-23.45a6.72,6.72,0,0,0-1.83-3.22l-.6-2.31c1.84-1.55,2.07-2.95,1.56-5.68-1.88-10-4-20-1.76-30.57a103.81,103.81,0,0,1,5.77-18.56,4.78,4.78,0,0,1,.35-1.09c2.2-2.85,4.43-5.7,6.6-8.61.23-.3.49-.57.75-.85a7.94,7.94,0,0,1,.84-.8l.45-.39c7.83-6.54,16.73-8.65,26.67-6.57a18.73,18.73,0,0,0,3,.11c2.69-.17,4.32,2.16,6.66,2.81,1.88,1.72,3.71,1.73,6.17.78,5.9-2.27,12.07-1.88,18.09-.38,3.32.82,4.19,3.08,3.94,6.65-.64,9.19,2.11,17,9.86,22.59,6.65,2.94,4.67,8.91,4.92,14.09q0,10.4,0,20.81c0,3-.44,6.05,1.79,8.62a2.91,2.91,0,0,1,.41,2.91c-3.4,8.08-3.1,17.1-6.32,25.22-.63.76-1.72,1.47-1.81,2.28-1.23,11.9-8.6,19.9-16.66,27.69-1.39,1.35-.83,4.73-1.17,7.18H337c-1.61-1.29-.69-3.32-1.55-5.24a25.91,25.91,0,0,1-6.81,2.53C327.25,247.13,326.44,247.88,327.2,249.46Z" transform="translate(-168.51 -38.76)"/><path class="cls-41" d="M357.41,212.31c1.35-7.71,1.59-15.89,4.48-23,1.8-4.42-1.65-6-1.55-9.16.28-8.52.16-17.06.19-25.59l.63,0a2.3,2.3,0,0,1,.78.94c.74,6.13,0,12.3.43,18.43.15,2-1,4.7,1.95,5.84l1.33.18c.77,2.34,1.18,4.89,2.4,7,4,6.79-.34,20.74-7.67,23.91a3.58,3.58,0,0,1-.66.63l-.84.13a4.07,4.07,0,0,1-.68.63Z" transform="translate(-168.51 -38.76)"/><path class="cls-42" d="M349.84,284.28l-.77.76-.75.75h-.73l5.31-12.89c2.69-.11,3.57,1.92,4.52,3.87Z" transform="translate(-168.51 -38.76)"/><path class="cls-23" d="M359.72,211.45l.66-.63Z" transform="translate(-168.51 -38.76)"/><path class="cls-23" d="M358.2,212.21l.68-.63Z" transform="translate(-168.51 -38.76)"/><path class="cls-43" d="M268.26,183.53c6.07,1.66,3,7.47,4.75,11.13,2.31,4.84,2.84,10.53,4.1,15.86.41,1.76-.9,1.75-2.06,1.83h0a4.09,4.09,0,0,0-.76-.74c-9.24-7.63-12.55-18.91-7.59-25.83a17.73,17.73,0,0,0,1.57-2.25Z" transform="translate(-168.51 -38.76)"/><path class="cls-44" d="M274.31,125.19c-3.15,9.58-7,19-6.75,29.35A78,78,0,0,0,271,177.11c.9,2.73-.61,4-3.29,4.11l-.9-.72c.06-.18.13-.36.2-.55.25-.54.54-1.06.75-1.62.31-5.34-1.29-10.41-2.21-15.56a47.73,47.73,0,0,1,.47-18.3,72.56,72.56,0,0,1,4.45-14.71C271.24,127.94,271.93,125.78,274.31,125.19Z" transform="translate(-168.51 -38.76)"/><path class="cls-23" d="M268.27,183.52l-1.57,2.25Z" transform="translate(-168.51 -38.76)"/><path class="cls-28" d="M288.67,236.61l2.25,1.47Z" transform="translate(-168.51 -38.76)"/><path class="cls-44" d="M266.14,180.39a1.31,1.31,0,0,1,.05-.48l.39-.33.38.35-.13.5-.07.07A4.23,4.23,0,0,1,266.14,180.39Z" transform="translate(-168.51 -38.76)"/><path class="cls-23" d="M274.29,211.6l.76.74Z" transform="translate(-168.51 -38.76)"/><path class="cls-45" d="M294,260.05c2.51-4.47,0-9.2.69-13.79.39-2.46.17-3,3.61-2.56,15.1,1.82,8.14,11.18,7,18.63-5.61,15.06-7.92,31.48-18.17,44.64-2-2.6.7-4.15,1.33-6.15,1.1-2,2.43-3.81,3.41-5.87,1.66-3.49,1.69-3.39-1.81-4.71a53,53,0,0,1-14.38-8.18c-1.26-1-2.64-2-2.92-3.8,0-.28.08-.57.11-.85C279.41,271,289.52,269,294,260.05Z" transform="translate(-168.51 -38.76)"/><path class="cls-46" d="M266.84,179.68a2.78,2.78,0,0,0-.65.23l-.3-.75c.06-.33.11-.66.17-1C267.19,178.22,267.19,178.86,266.84,179.68Z" transform="translate(-168.51 -38.76)"/><path class="cls-19" d="M289.45,301q-1.17,3-2.33,6v0a6.22,6.22,0,0,1-.7.75l0,0c-.23.25-.47.5-.71.73l0,0c-1.54,3.79-4.15,7-6.06,10.55-2.62,4.1-5.29,8.15-7.82,12.3-1.35,2.2.42,3.52,1.82,4.72,3.51,3,7.1,5.89,10.66,8.83,4.44,6.75-3.23,8.09-5.64,10.64C258.35,377,237.48,397.73,217,418.82c-3.5,3.59-4.46,4.35-6.09,1.87a.66.66,0,0,1-.26-.77,3.9,3.9,0,0,1,1-1.5l0,0c3.49-7,.48-14.67,3.36-22.24,5.5-14.44,2.58-30,1.85-45.11l.52-.19a3.06,3.06,0,0,1,2,3c.26,4.25,1.41,8.44.47,12.78-.83,3.84.89,7.73.05,11.67-.36,1.64.86,1.48,1.87.81a35.7,35.7,0,0,0,3.55-2.82c1.7-1.5,3.34-3.33,5.42-4.05,8.66-3,13.43-10.3,18.86-16.83,6.44-7.74,12.58-15.72,18.93-23.54,4.75-5.86,8-12.81,11.78-19.35,1.77-3.05,3.61-6.06,5.45-9.07C286.53,302.07,287.38,300.51,289.45,301Z" transform="translate(-168.51 -38.76)"/><path class="cls-19" d="M215.52,350.1a121.4,121.4,0,0,1,0-31.58,2.74,2.74,0,0,1,.64-.09,4.28,4.28,0,0,1,1.31,3.43q.22,12.48,0,25a5.36,5.36,0,0,1-.8,2.88l-.54.52A3.27,3.27,0,0,1,215.52,350.1Z" transform="translate(-168.51 -38.76)"/><path class="cls-19" d="M216.84,351l-.7-.79.07-.06c.62-.08.89.15.71.79Z" transform="translate(-168.51 -38.76)"/><path class="cls-2" d="M216.92,351c-.23-.27-.47-.53-.71-.79q0-15.89,0-31.75c4.46-8.91,8-18.61,18.06-23,8.39-3.65,17-6.84,25.32-10.64,3.45-1.58,6.42-4.23,9.6-6.39l3.6-.15A66.53,66.53,0,0,0,292.92,290c5,1.82-1.19,4.84-1.21,7.58,0,1.13-1.46,2.25-2.26,3.37-7.68,8.64-11.33,19.87-18.31,28.89C261,343,250.91,356.43,239.37,368.33c-5,5.17-12.77,8-18.63,13-2.5,2.13-2.26-1-2.27-2.37-.07-8,0-15.91-.11-23.86C218.33,353.69,217.42,352.33,216.92,351Z" transform="translate(-168.51 -38.76)"/><path class="cls-29" d="M211.6,418.42l-.72,1.52a1,1,0,0,1,0-1.53h0Z" transform="translate(-168.51 -38.76)"/><path class="cls-31" d="M210.86,418.41c0,.51,0,1,0,1.52,0,.26,0,.51,0,.76h-.75c0-.51,0-1,0-1.53,0-.25,0-.5,0-.74Z" transform="translate(-168.51 -38.76)"/><path class="cls-12" d="M209.35,421.43l-.74.78c0-.26,0-.52,0-.78Z" transform="translate(-168.51 -38.76)"/><path class="cls-47" d="M255.53,132.81c1.79-6.25,2.31-13.3,6.78-18.15,8.23-8.93,12.86-21.29,24.87-26.65,3.41-1.68,7.1-1.74,10.71-1.39a18.18,18.18,0,0,0,11.41-3A15.91,15.91,0,0,1,319,81.22a27.39,27.39,0,0,0,6.4,0c8.75-1.45,16.44,1.76,23.47,6.08A25.29,25.29,0,0,1,359,98.19a11.51,11.51,0,0,0,2.83,4.42c5,4,7.81,9.76,12.1,14.31.34.36.79.72.87,1.22,1,6.6,1.87,13.24-.66,19.68a12.31,12.31,0,0,0-1.28,4.64c0,2.52-3.31,15-4.64,17.17-1.14,1.87-.64,3.94-1.07,5.86s-.27,5.11-2.78,5-1.94-3.11-1.95-5c0-6.79-1.56-13.49-1.24-20.29a2.53,2.53,0,0,0-.31-1.1c-.22-.29-.45-.58-.7-.85l-.38-.37c-3.65-2.17-7.56-4.07-9.39-8.31-.16-.28-.33-.57-.52-.84l-.32-.38-.64-.75a3.07,3.07,0,0,1-.48-.87c-.13-.66-.4-1.28-.56-1.94a8.26,8.26,0,0,1-.31-2c-.31-4-1.16-8-.32-12.08a4.34,4.34,0,0,0-.17-.93c-.15-.25-.31-.52-.48-.77s-.17-.24-.26-.35-.38-.44-.58-.65l-.32-.29-.71-.51-.36-.25a5,5,0,0,0-2.22-.34,7.17,7.17,0,0,1-1.84-.38,8.05,8.05,0,0,0-2.84-.41,4.88,4.88,0,0,1-.94-.18,8.38,8.38,0,0,0-4.25,0,4.62,4.62,0,0,1-1,.19,10.58,10.58,0,0,0-3,.4,19.19,19.19,0,0,0-2.12.37c-2.07.14-4,1.59-6.16.78a4.18,4.18,0,0,1-1-.59c-5.06-2.79-10.18-5-16.19-5.22-8.37-.24-15.13,3.24-20.82,8.71a51.2,51.2,0,0,0-14.36,24.57c-2.21,8.43-2.08,16.66-1.45,25,.27,3.56,2,7,2.21,10.64.07,1,.81,2.23-.27,2.74s-1.63-.89-2.43-1.44c-3.49-3.41-5-7.67-6.79-12.19-1.91-4.92-2.31-10.09-4.08-15C252.91,144.38,252.58,138.25,255.53,132.81Z" transform="translate(-168.51 -38.76)"/><path class="cls-48" d="M361.17,143.4c.77,7.94,1.52,15.88,2.34,23.82a16.39,16.39,0,0,0,.75,2.76c.52-.55,1.41-1,1.51-1.67,2.32-14.36,8.23-27.91,9.15-42.66.43-6.76-3.22-11.69-6.83-15.23-8.73-8.57-12.88-21.64-26.21-25.85-11.94-3.77-23.55-4.53-34.82.92-6.59,3.18-13.41.64-19.88,2.52.44-.42.88-1.21,1.32-1.21,15.92,0,30.67-9.69,46.89-6.06,6.39,1.42,12.8,4.09,17.25,9.22,6.66,7.7,12.78,15.87,19.13,23.84l0,0c.21.28.49.5.7.79h0a3.52,3.52,0,0,1,.76.78v0a2.86,2.86,0,0,1,.76.79l0,0a2.18,2.18,0,0,1,.76.78l0,0c1.58,1.15.87,3.08,1.55,4.54a1.78,1.78,0,0,0,0,.69v1.5a1.6,1.6,0,0,0,0,.69,14.67,14.67,0,0,0,0,7v1.37c-.77,1.71.19,3.91-1.51,5.35h0c-1.23,1.43-1.25,3.15-1.1,4.87a8.49,8.49,0,0,1-2,6.48h0c-.89,1.43.27,3.19-.75,4.6l-5.55,20.5a.81.81,0,0,1-.47.59l-.07.06c-2.66.75-2.79-1-2.92-2.89-.34-4.61-.42-9.23-.4-13.85,0-1.22.37-2.51-.39-3.65h0A38,38,0,0,1,361.17,143.4Z" transform="translate(-168.51 -38.76)"/><path class="cls-49" d="M266,176.76c1.18.6,2.69,2.05,1.83-1.1-4.47-16.22-4.51-32.56,3.17-47.58,8.64-16.92,26.83-31.71,48.63-16.54a1.33,1.33,0,0,1-1.7.11l-5.82-2.4c-8.32-2.52-16.39-2.26-24.14,2.06a24.81,24.81,0,0,0-6.18,4.74h0a1.83,1.83,0,0,1-.75.76h0c-2.67,2.45-4.36,5.71-6.75,8.4h0c-9.37,15.57-9.7,32.17-5.64,49.3.42,1.78,1.16,3.68-.41,5.34-.52.31-1,.42-1.46-.13l0,0-.78-1.51a5.25,5.25,0,0,0-.22-.67A.44.44,0,0,1,266,176.76Z" transform="translate(-168.51 -38.76)"/><path class="cls-46" d="M266,176.76c-.06.25-.12.49-.17.74-6.74-5.16-7.69-13.09-9.67-20.51-1.67-6.23-4-12.34-3-19,.31-2,.19-4.07,2.38-5.14C253.15,148.87,257.17,163.39,266,176.76Z" transform="translate(-168.51 -38.76)"/><path class="cls-32" d="M371.7,149.4l3.06-11.35q-.79,5.28-1.57,10.56Z" transform="translate(-168.51 -38.76)"/><path class="cls-32" d="M374.75,138.05c.5-1.78,1-3.57,1.51-5.35,0,1.52,0,3,0,4.56Z" transform="translate(-168.51 -38.76)"/><path class="cls-32" d="M376.26,131.33a8.65,8.65,0,0,1,0-7Z" transform="translate(-168.51 -38.76)"/><path class="cls-32" d="M376.25,121.48c-.51-1.51-1-3-1.55-4.54l.8,0,.72.76Z" transform="translate(-168.51 -38.76)"/><path class="cls-32" d="M374.73,116.92l-.76-.78Z" transform="translate(-168.51 -38.76)"/><path class="cls-32" d="M374,116.16c-.26-.26-.51-.52-.76-.79C373.48,115.64,373.73,115.9,374,116.16Z" transform="translate(-168.51 -38.76)"/><path class="cls-32" d="M373.24,115.39l-.76-.78Z" transform="translate(-168.51 -38.76)"/><path class="cls-32" d="M372.49,114.62c-.23-.27-.47-.53-.7-.79Z" transform="translate(-168.51 -38.76)"/><path class="cls-50" d="M361.16,154.76c.51,5.69,1.06,11.38,1.53,17.08.13,1.56.07,3.11,2.18,3.31-.18,1.54-.37,3.08-.55,4.62-2.74,2.91-3.07.48-3.1-1.56C361.11,170.39,361.17,162.57,361.16,154.76Z" transform="translate(-168.51 -38.76)"/><path class="cls-32" d="M371,154l.75-4.6Z" transform="translate(-168.51 -38.76)"/><path class="cls-50" d="M364.94,175.09c.16-.19.32-.39.47-.59C365.25,174.7,365.1,174.9,364.94,175.09Z" transform="translate(-168.51 -38.76)"/><path class="cls-51" d="M256.28,416.13c1.35.12,3.09-.06,2.41,2.13-.2.62-1.46,1.48-1.93,1.33-1.93-.65-1.15-2.08-.6-3.36Z" transform="translate(-168.51 -38.76)"/><path class="cls-37" d="M213.17,436.58c-4.11-2.69-3.58-5.79-.81-9.08l.78,0Z" transform="translate(-168.51 -38.76)"/><path class="cls-37" d="M216.18,439.61l-2.28-2.28Z" transform="translate(-168.51 -38.76)"/><path class="cls-37" d="M213.91,437.34l-.76-.77Z" transform="translate(-168.51 -38.76)"/><path class="cls-37" d="M216.93,440.37l-.76-.77Z" transform="translate(-168.51 -38.76)"/><path class="cls-52" d="M327.2,249.46l-2.73-1.41a19.49,19.49,0,0,1,2.11-1.76c2.76-1.69,7-.43,8.66-4.33,3.93,1.7.74,5.11,1.79,7.5C333.75,253,330.48,248.14,327.2,249.46Z" transform="translate(-168.51 -38.76)"/><path class="cls-45" d="M279.56,319.11l6.06-10.55C284.7,312.71,282.37,316.05,279.56,319.11Z" transform="translate(-168.51 -38.76)"/><path class="cls-45" d="M286.41,307.76l.7-.75Z" transform="translate(-168.51 -38.76)"/><path class="cls-45" d="M285.66,308.52l.71-.73Z" transform="translate(-168.51 -38.76)"/><path class="cls-53" d="M322.65,204.74c-2.55.44-5.32,1.72-7.61,1.13-3.17-.81-8.39-2.29-7.62-5.83,1.44-6.65,1.21-14.42,7.51-19.2.83-.63,2.75-.32,3.94.14,5.69,2.22,8.45,20,3.79,23.76Z" transform="translate(-168.51 -38.76)"/><path class="cls-54" d="M289.28,151.73c4.9,1,9.48,1.62,13.28,4.65,1.24,1,2.75,2.05,1.75,3.62a4.7,4.7,0,0,1-3.62,1.95c-7.32-.94-14.6-2.16-21.88-3.42-.61-.1-1.59-1.26-1.48-1.67.26-.94.93-2.23,1.71-2.48C282.49,153.3,286,152.54,289.28,151.73Z" transform="translate(-168.51 -38.76)"/><path class="cls-55" d="M300.79,178.2c2,.2,2.35,1.62,2.25,3.27s-1.27,2.18-2.66,2.75c-8.59,3.57-15.83-.27-23-4.19-1.58-.86-2.34-2.92-1.22-4.27,2.22-2.68,4.54-5.64,8.72-5.18a22.68,22.68,0,0,0,3.07,2.17A3.43,3.43,0,0,1,290,177.1c-.8,2.73.84,2.91,2.76,3.1a10.44,10.44,0,0,0,6.46-1.68,3.27,3.27,0,0,1,1-.33Z" transform="translate(-168.51 -38.76)"/><path class="cls-56" d="M344,151.12c4.33-.31,8.12,1.51,11.93,3a2.56,2.56,0,0,1-.71,4.79q-10.56,1.86-21.16,3.32c-2,.27-4.23.32-5.18-2.06s.78-3.58,2.5-4.8A25.24,25.24,0,0,1,344,151.12Z" transform="translate(-168.51 -38.76)"/><path class="cls-48" d="M317.94,111.65l1.7-.11h0c2.49,1.92,4.51-.54,6.78-.71l2.18-.11c.94-.69,2.21.13,3.11-.69h0a8.36,8.36,0,0,1,5.3,0h0c.89.84,2.17,0,3.1.71l2.19.12c.89.73,2.14-.1,3,.69h0a9,9,0,0,0,.76.75h0a9,9,0,0,0,.75.76h0c.24.27.49.52.75.76h0c.58,4-.8,8,.35,11.9.23.8-.19,1.73.38,2.5l.11,2.16c.33.49.18,1.2.71,1.61h0a3.19,3.19,0,0,0,.75.76h0a4,4,0,0,0,.75.79c1.66,4.74,6.5,6.08,9.73,9.14-2.07,1.17-3-.92-4.5-1.53-8.42-5.47-10.92-13.75-10.12-23.09.32-3.71-.88-5.37-4-5.82-6.06-.87-12.15-1.85-18,1.32C321.48,114.77,319.34,113.93,317.94,111.65Z" transform="translate(-168.51 -38.76)"/><path class="cls-57" d="M300.16,222.92l-1.08-.8c.7-.72,1.31-1.91,2.13-2.09,4.14-.9,8.33-1.62,12.53-2.23,1.83-.27,3.9.23,4.12,2.31s-1.68,2.81-3.62,2.81C310.12,222.93,306,222.92,300.16,222.92Z" transform="translate(-168.51 -38.76)"/><path class="cls-58" d="M356.12,174.31c1.41-.88,2.4-.27,3.1,1,.79,1.41.29,2.58-.7,3.76-4.72,5.58-19.4,8.66-25.83,5.34-1.85-.95-3.17-2.26-2.11-4.5,1.77-3.73,2.83-8.32,8.49-7.85a.84.84,0,0,1,.38.92c-1.43,1.27-3.64,1.64-4.32,3.78a10.92,10.92,0,0,0-1.48,2.62c-.55,1.71.06,2.81,1.85,2.86,4.75.11,9.52.64,14.26-.23,2-.47,3.4-1.89,5.09-2.84s1.89-2.39.81-4A.81.81,0,0,1,356.12,174.31Z" transform="translate(-168.51 -38.76)"/><path class="cls-59" d="M300.38,178.66c-2.83,2.93-6.26,3.32-10,2.29a11.51,11.51,0,0,1-2.24-1.24c3.9-4.86-2.91-5.83-3.3-9.13,7-2.28,15.27,1.7,15.92,7.62l-.07.08Z" transform="translate(-168.51 -38.76)"/><path class="cls-60" d="M339.19,172.66a.66.66,0,0,0-.12-.63c.89-4.19,4.31-2.69,6.75-2.78,4.21-.17,8.22.62,10.3,5.06a.7.7,0,0,0-.15.62c-2,5.09-6.17,7.54-11.2,6.54-1.17-.23-2.84-.86-2.58-1.76C343.15,176.36,340,175.05,339.19,172.66Z" transform="translate(-168.51 -38.76)"/><path class="cls-44" d="M281.8,116.05c5.17-8.21,20.43-11.63,30.32-6.8C301.1,107.43,290.71,108.41,281.8,116.05Z" transform="translate(-168.51 -38.76)"/><path class="cls-61" d="M331.8,219.89c1.33,0,2.73.21,2.76,1.87s-1.36,2.19-2.64,1.84c-1.07-.3-2.63-1.16-2.77-2C328.85,219.89,330.55,220,331.8,219.89Z" transform="translate(-168.51 -38.76)"/><path class="cls-50" d="M355.86,141.14l4.5,1.53h0a4.74,4.74,0,0,1,.77.71h0q0,5.68,0,11.37a2,2,0,0,1-.63-.19C360.55,149.54,361.84,144.07,355.86,141.14Z" transform="translate(-168.51 -38.76)"/><path class="cls-44" d="M274.31,125.19c1.64-3.29,3.4-6.49,6.75-8.4Z" transform="translate(-168.51 -38.76)"/><path class="cls-44" d="M281.06,116.8l.75-.76Z" transform="translate(-168.51 -38.76)"/><path class="cls-46" d="M266.8,179.7l1.46.13-1.43.6A2.24,2.24,0,0,1,266.8,179.7Z" transform="translate(-168.51 -38.76)"/><path class="cls-49" d="M348.32,128.22c-1.87-4.72-1.34-9.55-.73-14.4Q348,121,348.32,128.22Z" transform="translate(-168.51 -38.76)"/><path class="cls-49" d="M326.43,110.84c-2.22.59-4.13,4.23-6.78.71Z" transform="translate(-168.51 -38.76)"/><path class="cls-49" d="M337,110h-5.3A4.49,4.49,0,0,1,337,110Z" transform="translate(-168.51 -38.76)"/><path class="cls-49" d="M345.32,111.55l-3-.69Z" transform="translate(-168.51 -38.76)"/><path class="cls-49" d="M340.12,110.74,337,110Z" transform="translate(-168.51 -38.76)"/><path class="cls-49" d="M331.72,110l-3.11.69Z" transform="translate(-168.51 -38.76)"/><path class="cls-49" d="M349.14,132c-.24-.54-.48-1.07-.71-1.61Z" transform="translate(-168.51 -38.76)"/><path class="cls-48" d="M361.16,143.39l-.77-.71Z" transform="translate(-168.51 -38.76)"/><path class="cls-49" d="M350.63,133.53l-.75-.79Z" transform="translate(-168.51 -38.76)"/><path class="cls-49" d="M349.88,132.74l-.75-.76Z" transform="translate(-168.51 -38.76)"/><path class="cls-49" d="M347.59,113.82l-.75-.76Z" transform="translate(-168.51 -38.76)"/><path class="cls-49" d="M346.84,113.06l-.75-.76Z" transform="translate(-168.51 -38.76)"/><path class="cls-49" d="M346.09,112.3l-.76-.75Z" transform="translate(-168.51 -38.76)"/><path class="cls-62" d="M312.53,204.5l-3.75-4c1-.58,2.54-1.89,2.86-1.63a31.34,31.34,0,0,1,3.87,4.24Z" transform="translate(-168.51 -38.76)"/><path class="cls-63" d="M320.32,204.92a18.52,18.52,0,0,1-1.81-2.65,23.05,23.05,0,0,1,4.1-3.42c.26-.17,1.33,1,2,1.48C323.36,201.7,322.07,203.06,320.32,204.92Z" transform="translate(-168.51 -38.76)"/><path class="cls-64" d="M289.93,182.63c-5.17.39-10-.95-11.93-4.81-1.45-2.92,2.49-6,5.68-5.25C288.19,173.65,285.72,180.06,289.93,182.63Z" transform="translate(-168.51 -38.76)"/><path class="cls-23" d="M300.38,178.66c0-.23.09-.36.34-.38C300.72,178.53,300.61,178.66,300.38,178.66Z" transform="translate(-168.51 -38.76)"/><path class="cls-65" d="M343.84,152.89c4.21.85,8.1.21,11.18,2.89-2.72,3.08-6.5,2.45-10,2.91-2.85.37-5.68.93-8.51,1.47-2.14.41-5,2-6-.77-1.07-3,2.64-3.64,4.41-4.42C337.85,153.69,341.21,153.45,343.84,152.89Z" transform="translate(-168.51 -38.76)"/><path class="cls-66" d="M350.62,182.73c-5.56.23-11.12.53-16.68.61a2.72,2.72,0,0,1-2-1.69,5.87,5.87,0,0,1,2.78-5.73c1.74-3,3.82-3,6.42-1,1.12.86,1.91,1.39,1.22,2.95-1,2.24.32,3,2.3,3s3.74-.11,5.6,0C351.88,181.05,351.77,181.85,350.62,182.73Z" transform="translate(-168.51 -38.76)"/><path class="cls-67" d="M350.62,182.73a4.85,4.85,0,0,0,.06-1c-3.77-1.09-9.38,1.63-9.94-5.92-.16-2.13-4-2.09-6,.15.39-2.62,2.44-2.95,4.49-3.26,2.19,1.69,6.13,2,4,6.86-.33.77,5.22,1.64,7.85,0,1.87-1.17,3.31-3,4.94-4.58.73.65,2.19,1.54,2.07,1.92C356.9,180.39,353.43,181.17,350.62,182.73Z" transform="translate(-168.51 -38.76)"/><path class="cls-68" d="M294.54,180c-2.84-.21-5.61.45-3.1-3.11.91-1.3.51-2.9-1.12-3.87-.95-.56-3-.16-2.45-2,.13-.43,3-.67,4.07,0,2.76,1.71,7.09,2.46,7.45,6C299.61,179.18,296.26,180.25,294.54,180Z" transform="translate(-168.51 -38.76)"/><path class="cls-69" d="M347.44,179.87c-1.21-.37-3.7-1-2.54-1.58,5.91-3.13-9-5.94,0-8,3.52-.83,8.25.46,9.37,4C354.76,176,351,179.54,347.44,179.87Z" transform="translate(-168.51 -38.76)"/></svg>