<?xml version="1.0" encoding="utf-8"?>
<!-- Generator: Adobe Illustrator 24.1.2, SVG Export Plug-In . SVG Version: 6.00 Build 0)  -->
<svg version="1.1" id="Capa_1" xmlns="http://www.w3.org/2000/svg" xmlns:xlink="http://www.w3.org/1999/xlink" x="0px" y="0px"
	 viewBox="0 0 263 430.5" style="enable-background:new 0 0 263 430.5;" xml:space="preserve">
<style type="text/css">
	.st0{fill:none;}
	.st1{fill:#356769;}
	.st2{fill:#F6DDD5;}
	.st3{fill:#DEE6E7;}
	.st4{fill:#DAE3E4;}
	.st5{fill:#E8BEB4;}
	.st6{fill:#FEE5D8;}
	.st7{fill:#F7DDD3;}
	.st8{fill:#D8E2E2;}
	.st9{fill:#F1DBD5;}
	.st10{fill:#EFD4CE;}
	.st11{fill:#B5C1C1;}
	.st12{fill:#B88868;}
	.st13{fill:#F3DEDA;}
	.st14{fill:#E3B2A6;}
	.st15{fill:#A3B9B7;}
	.st16{fill:#FCB490;}
	.st17{fill:#FE9966;}
	.st18{fill:#88A5A6;}
	.st19{fill:#FCAC74;}
	.st20{fill:#CE7D69;}
	.st21{fill:#EB9B7E;}
	.st22{fill:#EEA387;}
	.st23{fill:#E88D6B;}
	.st24{fill:#7A9A9B;}
	.st25{fill:#729190;}
	.st26{fill:#ECA17E;}
	.st27{fill:#FD9965;}
	.st28{fill:#F38C64;}
	.st29{fill:#FCAE86;}
	.st30{fill:#E77850;}
	.st31{fill:#707466;}
	.st32{fill:#566D65;}
	.st33{fill:#346667;}
	.st34{fill:#E6774F;}
	.st35{fill:#7F7A62;}
	.st36{fill:#C04E33;}
	.st37{fill:#FC9B66;}
	.st38{fill:#FAAF85;}
	.st39{fill:#E97F57;}
	.st40{fill:#C04D32;}
	.st41{fill:#C2654E;}
	.st42{fill:#E7784F;}
	.st43{fill:#ED784F;}
	.st44{fill:#E7764F;}
	.st45{fill:#44927E;}
	.st46{fill:#BB8A65;}
	.st47{fill:#FBB18B;}
	.st48{fill:#E7774E;}
	.st49{fill:#DF7751;}
	.st50{fill:#D8714D;}
	.st51{fill:#FAF2F1;}
	.st52{fill:#E57A50;}
	.st53{fill:#D07965;}
	.st54{fill:#CFB9B7;}
	.st55{fill:#F7CEB9;}
	.st56{fill:#C16E63;}
	.st57{fill:#F3BFA1;}
	.st58{fill:#266267;}
	.st59{fill:#1E616A;}
	.st60{fill:#546C65;}
	.st61{fill:#2E6367;}
	.st62{fill:#A73626;}
	.st63{fill:#AC3926;}
	.st64{fill:#AC3824;}
	.st65{fill:#A83624;}
	.st66{fill:#A63523;}
	.st67{fill:#A73627;}
	.st68{fill:#A53323;}
	.st69{fill:#AF3C28;}
	.st70{fill:#AD3B28;}
	.st71{fill:#AD3A25;}
	.st72{fill:#B15F44;}
	.st73{fill:#F5C7AF;}
	.st74{fill:#C3A3A0;}
	.st75{fill:#AE3C27;}
	.st76{fill:#AB3A29;}
	.st77{fill:#AC3A27;}
	.st78{fill:#43937D;}
	.st79{fill:#737468;}
	.st80{fill:#F7EDEA;}
	.st81{fill:#D46347;}
	.st82{fill:#AD3F2C;}
	.st83{fill:#85312A;}
	.st84{fill:#FAF5F2;}
	.st85{fill:#261816;}
	.st86{fill:#5F100B;}
	.st87{fill:#983E30;}
	.st88{fill:#FAF2ED;}
	.st89{fill:#0D0606;}
</style>
<path class="st0" d="M0.1,214.9C0.1,144.3,0,73.7,0,3.1C0,0.5,0.5,0,3.1,0c85.6,0.1,171.2,0.1,256.8,0c2.6,0,3.1,0.5,3.1,3.1
	c-0.1,141.4-0.1,282.9,0,424.3c0,2.6-0.5,3.1-3.1,3.1c-85.6-0.1-171.2-0.1-256.8,0c-2.6,0-3.1-0.5-3.1-3.1
	C0.1,356.6,0.1,285.7,0.1,214.9z"/>
<path class="st1" d="M220.9,429.4c-0.9,0.1-1.8,0.2-2.6,0.2l-145.5-0.1c-0.3-0.2-0.6-0.6-0.8-0.9c-0.7-5.1-0.1-6.2,4.8-7
	c12.7-2,25.4-4.3,38.1-6.8c11.4-2.2,22.9-4.3,34.3-6.6c11.8-2.4,23.5-4.8,35.4-6.8c4-0.6,7.8-2.1,11.8-2.4c1.5-0.1,2.4-1.3,3.3-2.4
	c5.3-7.1,11.3-13.8,16.7-20.9c0.7-0.9,1.3-1.9,2.7-1.6c0.4,0.2,0.7,0.6,0.9,1c4.6,13.4,1.9,27.2,2.6,40.8c0.2,3.1,0.1,6.3,0,9.4
	C222.4,426.9,222.4,428.5,220.9,429.4z"/>
<path class="st2" d="M102.8,231.5c3.6-0.9,4-1.8,1.4-4.2c-2.8-2.6-2.9-5.7-1.7-8.6c1.4-3.3,1.8-6.9,3.6-10.2s0.9-7.6,2.6-11.2
	c0.8-1.6-0.8-2.8-2.4-3.7c-4.9-2.7-10.1-5-13.6-9.6c-2.3-3-1.2-6.9,2.3-7.7c4.9-1.1,5.7-3.5,3.4-7.9c-2.5-4.8-6.1-8.5-9.9-12.1
	c-1.4-1.3-2.8-2.9-2.8-4.8c0-6.1-1.4-12.2,1-18.2c1.2-2.9-1.1-5.3-2.3-7.6c-2.1-3.9-2.7-7.5-0.3-11.3c1.1-1.5,0.9-3.6-0.5-4.8
	c-4.6-5.2-4.8-10.8-1.6-16.8c0.4-0.9,0.5-1.9,0.4-2.9c-0.2-4.5,1.4-8.1,5.3-10.5c0.3,0.3,0.4,0.7,0.4,1.1c-3.1,6.6-5,13.8-5.4,21.1
	c-0.2,2,0.5,4,1.9,5.5c2.4,2.6,3.2,5.4,1.4,9c-1.6,3-1.2,6.6,0.9,9.3c2.3,3,3,7.1,1.7,10.7c-1.4,4.7-0.8,9.7-0.3,14.6
	c0.3,2.6,1.8,4.8,4.1,6c4.7,3.8,8.2,8.4,9.6,14.5c1.1,5,0.1,6.4-4.7,7.7c-1.1,0.3-2.6,0.4-3,1.9s0.9,2.5,1.9,3.4
	c2.1,1.7,4.5,3.2,7,4.4c2.1,0.9,4,2,5.8,3.4c3.3,2.7,3.8,4.3,2,8.1c-0.6,1-1,2-1.1,3.2c0.1,5.6-2.6,10.3-4.5,15.3
	c-1,2.7-0.9,4.8,0.9,7c3.3,4,2.9,5.3-1.8,8c-0.6,0.1-1.2,0-1.8-0.4C102.3,232.8,102.3,232,102.8,231.5z"/>
<path class="st3" d="M102.8,231.5v1.4c-4.5,2.3-9.4,4-13.1,7.8c-0.7,0.5-1.6,0.8-2.5,0.8c-0.8-0.1-1.5,0.1-2.2,0.4
	c-7.6,6.1-18,5.5-25.8,11.3c-1.8,1.4-3.8,2.7-5,4.5c-4.3,6.4-8.7,12.7-8.6,21.1c0.2,29,0,57.9,0.1,86.9c0,3.1-0.2,6.1-1.8,8.7
	c-2,3.3-0.6,6.9-1.2,10.3c-0.4,0.5-1.1,0.6-1.6,0.3c0,0-0.1-0.1-0.1-0.1c-0.9-4.4-2.1-8.8,1.4-12.8c0.9-1.1,0.8-2.6,0.8-4
	c0-20.5,0-41.1,0-61.6c0-9,0.3-18-0.1-27c-0.4-9.2,4-16.3,9.4-22.9c4.1-5,9.5-8,15.6-10.5c2.7-1.2,5.6-1.8,8.5-1.8
	c2.1,0,3.1-1.4,4.3-2.7c1.6-1.7,3.3-3.1,5.9-2.6c2.2,0.4,3.4-1.3,4.7-2.6C94.4,233.3,98.5,231.6,102.8,231.5z"/>
<path class="st4" d="M226,328.4c-3.3,8.6-4.1,17.5-4,26.8c0.1,6.4-0.4,12.9-0.4,19.3c0,0.9,0.2,1.7,0.6,2.5c3.3,5.1,3,10.9,3,16.6
	c0,10.3,0.1,20.6,0,30.9c0,2.1,0.7,5.1-3.2,5.1c-0.4-12.7-0.4-25.3,0-37.9c0.2-5.9-1.4-11.3-2.7-16.8c-0.1-0.2-0.2-0.3-0.3-0.4
	c-0.4-0.5-0.6-1.1-0.6-1.8c0-0.9,0-1.7,0.2-2.6c0.8-8.4,0.4-16.8,0.3-25.2c0-5.5,2.9-10,4-15.1c0.3-0.9,1-1.5,1.9-1.7
	C225.2,327.9,225.6,328,226,328.4z"/>
<path class="st5" d="M225.1,119.6c2.5,4.9,0.3,11.9-5.3,16.6c-3.8,1.5-6.1,4.4-8.1,7.9c-2.2,3.8-6.5,5.9-8,10.2
	c-1.6,4.2-4.3,8-7.8,10.8c-0.6,0.6-1.1,1.4-1.1,2.3c-1.3,7.3-5.4,12.8-10.8,17.5c-2.4,2.1-3,3.9-1.3,7.1c1.9,3.8,2,8.2,0.2,12
	c-2.7,5.6-5,11.4-8.5,16.6c-1.1,1.7,0.6,3.5-0.7,5c-3.2,0.1-2.9-2.1-2.7-4.2c0.2-0.5,0.4-1.1,0.8-1.5c1.7-1.7,2.1-4,3.2-6
	c0.9-1.2,1.6-2.6,2.1-4c0.7-1.8,1.9-3.4,2.6-5.3c2-4.2,2.6-8.4-0.1-12.6c-1.7-2.7-0.9-5.1,0.9-7.3c1.4-1.6,2.9-3.2,4.5-4.6
	c3.3-3,5.5-6.9,6.4-11.3c0.7-3.5,2.7-6.6,5.5-8.8c3.5-2.1,3.5-6.5,6-9.3c0.2-0.2,0.1-0.5,0.3-0.7c5.2-4.9,7.7-12.2,14.6-15.5
	c2.2-1.1,3.1-3.1,4.2-5.1c0.1-0.3,0.3-0.6,0.5-0.8c0.2-0.4,0.5-0.8,0.7-1.2s0.3-0.5,0.4-0.8c0.2-0.5,0.4-1,0.5-1.6
	c0.1-0.3,0.1-0.6,0.2-0.9c0.1-0.4,0.1-0.9,0-1.3c-0.1-0.3-0.1-0.5-0.2-0.8c-0.1-0.4-0.2-0.8-0.3-1.1c-0.1-0.2-0.3-0.4-0.4-0.6
	s-0.3-0.4-0.5-0.6c-0.2-0.2-0.3-0.4-0.4-0.7c-0.3-0.5-0.5-1-0.7-1.6c-0.2-0.7-0.2-1.5,0-2.2c0.2-0.7,0.5-1.4,0.7-2
	c0.1-0.3,0.2-0.5,0.3-0.8l0.6-1.2c0.1-0.3,0.2-0.5,0.4-0.8c0.2-0.4,0.3-0.9,0.4-1.3c0.1-0.3,0.1-0.7,0.2-1c0.1-4.4,0.1-8.9-0.1-13.3
	c-0.1-0.3-0.2-0.7-0.2-1c-0.1-0.4-0.2-0.9-0.3-1.3c-0.1-0.2-0.2-0.5-0.3-0.7s-0.3-0.4-0.4-0.6s-0.2-0.2-0.3-0.3s-0.3-0.3-0.5-0.5
	c0,0-0.3-0.3-0.3-0.3c-0.2-0.2-0.4-0.3-0.5-0.5c0,0-0.3-0.3-0.3-0.3c-0.2-0.2-0.3-0.3-0.5-0.5l-0.3-0.3c-0.2-0.2-0.3-0.3-0.5-0.5
	c0,0-0.3-0.3-0.3-0.3c-0.2-0.2-0.3-0.3-0.5-0.5l-0.3-0.3c-0.2-0.2-0.4-0.3-0.5-0.5c-0.1-0.1-0.2-0.2-0.3-0.3
	c-0.2-0.2-0.3-0.3-0.5-0.5c0,0-0.2-0.3-0.3-0.3c-0.2-0.2-0.3-0.3-0.5-0.5c0,0-0.3-0.3-0.3-0.3c-0.2-0.2-0.3-0.3-0.5-0.5
	c-0.1-0.1-0.2-0.2-0.3-0.3c-0.2-0.2-0.4-0.3-0.5-0.5l-0.3-0.3c-0.2-0.2-0.3-0.3-0.5-0.5c0,0-0.2-0.3-0.3-0.3l-0.5-0.5
	c0,0-0.3-0.2-0.3-0.2c-0.3-0.2-0.7-0.4-1-0.5s-0.5-0.2-0.8-0.3c-0.4-0.2-0.8-0.4-1.2-0.7c-0.3-0.2-0.5-0.4-0.8-0.7
	c-2.3-3.7-0.7-7.8-1.3-11.7c0-0.3-0.1-0.7-0.2-1c-0.1-0.4-0.3-0.9-0.5-1.3c-0.2-0.2-0.3-0.5-0.5-0.8c-0.4-0.5-0.6-1-0.7-1.6
	c-0.1-0.7-0.3-1.4-0.6-2.1c-0.1-0.3-0.2-0.6-0.2-0.9c-0.1-0.6-0.1-1.2-0.2-1.8c-0.1-0.3-0.2-0.5-0.3-0.8s-0.3-0.4-0.5-0.7l-0.3-0.3
	c-0.2-0.2-0.4-0.4-0.6-0.6l-0.3-0.3c-0.2-0.2-0.5-0.4-0.7-0.6l-0.3-0.3c-0.2-0.2-0.5-0.5-0.7-0.8c-2.3-4.8-5.5-8.7-10.5-10.8
	c-1.2-0.5-2.1-1.5-2.5-2.7c-0.1-0.3-0.1-0.7,0-1l0.3-0.4l0.4-0.2c0.3,0,0.6,0.1,0.8,0.3l0.3,0.3l0.6,0.6l0.3,0.3
	c0.2,0.2,0.4,0.4,0.6,0.6l0.3,0.2c0.4,0.1,0.8,0.2,1.1,0.3c0.3,0.1,0.5,0.2,0.7,0.3c0.3,0.2,0.7,0.3,1,0.5c0.2,0.1,0.4,0.3,0.6,0.4
	l0.6,0.5l0.3,0.2c0.2,0.1,0.4,0.3,0.6,0.5l0.3,0.3c0.2,0.2,0.3,0.4,0.5,0.6l0.2,0.3c0.1,0.2,0.3,0.4,0.5,0.6l0.3,0.3
	c0.2,0.2,0.4,0.3,0.5,0.5l0.3,0.3c0.2,0.2,0.4,0.4,0.5,0.5l0.3,0.3l0.5,0.5l0.3,0.3l0.5,0.6c0.1,0.2,0.3,0.4,0.4,0.7
	c0.2,0.4,0.3,0.7,0.5,1.1c0.1,0.3,0.1,0.5,0.2,0.8c0.2,0.6,0.5,1.1,0.8,1.5c1.1,1.1,2.2,2.3,3.2,3.6l0,0c1.3,2.7,0.6,6.1,3,8.3
	c1.5,3.1,0.6,6.4,0.7,9.7c-0.1,1.8,0.8,3.5,2.3,4.4c4.5,2.9,7.7,7.1,11.5,10.8c1.5,1.5,2.3,3.7,2.1,5.8c-0.1,3.5,0,7,0,10.6
	c0,2.2,0,4.3-1.5,6.4S224,117.3,225.1,119.6z"/>
<path class="st6" d="M173.8,225.4c-2.4-3.8,1.1-6.4,2.3-9.3c1.7-4.3,4.6-8.1,6.1-12.4c1.4-4,1.7-8.4-0.6-12.4
	c-1.5-2.4-1.1-4.1,0.8-6c3.7-3.6,8-6.9,9.5-11.9c1.7-5.6,4.8-10.6,9-14.6c1.4-1.3,1.7-3.6,2.4-5.3c2.4-5.6,8.3-8.3,10.6-13.9
	c0.9-2.2,3.5-3,6-3.5c-4.6,2.3-6.2,7.3-9.6,10.6c-2.5,2.3-4.5,5-6.1,8.1c-1.7,3.8-4.2,7.2-7.3,10c-0.7,0.6-1.1,1.4-1.3,2.3
	c-1.3,7.1-5.1,13.4-10.7,17.9c-2.5,2.1-2.8,3.8-1.4,7.3c2.2,5.4,1.5,11.6-1.9,16.3c-2.6,3.8-3.9,8.4-6.5,12.2
	c-1.7,2.4,0.6,3.6,2.3,4.1c5.2,1.6,9.3,5.4,14.5,6.7c1,0.3,1.7,1.1,2.1,2.1c-2,1.2-3.6-0.3-5.5-0.6
	C183.5,230.9,178.4,228.8,173.8,225.4z"/>
<path class="st7" d="M40.9,385h1.4c1.8,1.6,0.8,4,1.7,5.8c0.4,3.9,0.1,7.8,0.2,11.7c0,1.4-0.2,2.9,0.8,4
	c5.3,6.2,10.5,12.7,19.7,13.1c2.6,0.1,5,0.6,6.7,2.8c0.9,2,0.7,4.1,1,6.1l0.4,1c-1.5,0.3-3,0.1-3.1-1.7c-0.1-4.3-3.2-4.9-6.3-4.8
	c-4.7,0.1-8.3-2.6-11.7-5s-6.1-5.9-9.1-8.9c-1.3-1.4-1.9-3.3-1.8-5.2C40.9,397.6,40.9,391.3,40.9,385z"/>
<path class="st8" d="M226,328.4l-0.9-0.1c-1.3-1.4-1-3.1-0.5-4.6c3.2-9.4,6.9-18.5,12.2-27c2.9-3.5,4.3-8,4-12.6
	c-0.5-5.7,0.7-11.5-0.7-17.2c-0.1-0.3-0.3-0.7-0.4-1c-1.3-3.3-3.1-6.4-4.6-9.6c-0.2-0.3-0.3-0.5-0.5-0.8l-0.5-0.7l-0.3-0.3
	c-0.2-0.2-0.4-0.4-0.5-0.6l-0.3-0.3c-0.2-0.2-0.4-0.4-0.5-0.5l-0.3-0.3c-0.2-0.2-0.4-0.4-0.5-0.5l-0.3-0.3c-0.2-0.2-0.4-0.4-0.6-0.5
	s-0.2-0.2-0.3-0.3l-0.6-0.5l-0.3-0.3c-0.6-0.4-1.2-0.7-1.9-0.9c-0.3-0.1-0.6-0.2-0.9-0.4c-0.9-0.6-2.1-1-1.7-2.5
	c6,0.5,8.9,5.2,12,9.3c1.5,2,2.2,4.7,3.7,6.9c3.8,5.9,1.9,12.4,2.5,18.7c0.6,5.9-1.1,11-4.3,15.9c-2.2,3.3-2.9,7.4-5.5,10.4
	c-0.5,0.4-0.4,1.1-0.8,1.5l0,0c-0.7,0.6-0.1,1.6-0.8,2.3l0,0c-0.3,0.3-0.5,0.5-0.8,0.8l0,0c-0.3,0.2-0.5,0.5-0.7,0.8
	c0,0.2,0,0.5,0,0.7c-0.8,0.9,0,2.2-0.8,3l0,0c-0.9,0.9,0,2.1-0.8,3l0,0c-0.5,0.4-0.3,1.1-0.8,1.5l0,0c-0.2,0.3-0.5,0.5-0.7,0.8l0,0
	c-1.1,1.6,0.2,3.6-0.8,5.3l0,0C226.4,327.7,226.2,328,226,328.4L226,328.4z"/>
<path class="st9" d="M225.1,119.6c-2.5-1.7-2-4.3-0.9-6.1c1.8-2.8,1.7-5.7,1.7-8.7c0-13.7,0.5-14.4-10.5-22.9c-5-3.9-5.6-7.8-5.4-13
	c0.1-1.3,0-2.5,0-3.8c2.6,1.6,1.5,4.1,1.4,6.2c-0.2,3.9,0.6,6.7,4.2,9.2s6.4,6,9.4,9.2c1.7,1.7,2.6,4.1,2.4,6.5
	c-0.2,3.3,0,6.5-0.1,9.8c0,2.5,0.1,4.8-1.7,7C224.2,114.7,225.4,117.4,225.1,119.6z"/>
<path class="st10" d="M87.7,80.2c0-0.3,0-0.5,0-0.8c3.8-8.4,4.8-18.3,13.7-24c2.6-1.7,4.4-4.6,7.4-6.1c4.2-2.2,8.4-3.7,13.2-2.8
	c3.4,0.6,5.3-2.2,8-3.3c0.1,0.2,0.2,0.3,0.3,0.5c-1.3,3.5-3.9,5.4-7.5,5c-8.5-0.9-14.6,3.1-20.3,8.7c-4.6,4.6-8.4,9.4-9.9,16
	C92,75.8,91.2,79.3,87.7,80.2z"/>
<path class="st11" d="M225.1,246.6c0.3,1.2,1.7,1.3,2.3,2.3c-0.4,0.4-0.9,0.7-1.3,0.5c-5.4-2.3-11.5-1.8-16.7-5.1
	c-6.5-4.1-13.7-6.8-20.5-10.3c-0.4-0.5-0.4-1.2,0-1.7l5.3,1.4c7,3.5,13.9,7,20.9,10.5C218.2,245.9,222.1,244.5,225.1,246.6z"/>
<path class="st12" d="M219.2,374.8c2.3,5.1,3.4,10.7,3.1,16.2c-0.4,12.8-0.3,25.7-0.4,38.5l-1.1-0.2c0.2-1,0.4-1.9,0.5-2.9
	c0-13.6,0-27.2,0.1-40.7C221.4,381.9,218.3,378.8,219.2,374.8z"/>
<path class="st13" d="M154.1,31.8c0.3-0.4,0.6-1,1-1c5.5-0.4,11-1.2,16.4,0.4c0.2,0.1,0.3,0.4,0.2,0.6c-0.1,0.2-0.1,0.3-0.2,0.3
	c-0.3,0.1-0.7,0.2-1.1,0.2c-0.9-0.1-1.8-0.2-2.7-0.1c-3.5,0.1-6.9-0.2-10.4,0.2c-0.4,0.1-0.7,0.2-1.1,0.3c-0.6,0.1-1.2,0-1.7-0.3
	L154.1,31.8z"/>
<path class="st10" d="M129.9,43.1c2.1-2.3,4.9-3.7,7.6-5.3c0.4-0.1,0.8,0,0.9,0.4c-2.3,4-5.1,5.6-8.4,5.1L129.9,43.1z"/>
<path class="st9" d="M210,65.1c-3.3-2-2.7-5.3-3-8.3C209.6,59,208.3,62.6,210,65.1z"/>
<path class="st13" d="M142.8,34.9c0.4-1.1,1.6-1.7,2.7-1.5c3,0.3,5.8-0.7,8.6-1.6l0,0l0.3,0.4c0,0.2-0.1,0.3-0.1,0.5
	c-0.2,0.3-0.4,0.6-0.7,0.8c-0.3,0.2-0.6,0.4-0.9,0.5c-2.4,1.1-5,0.7-7.6,1.1c-0.3,0.1-0.7,0.1-1,0.2c-0.3,0-0.7,0-1-0.2L142.8,34.9z
	"/>
<path class="st13" d="M173,32.6c2.9,1,6.2,0.1,9.1,1.5c-0.2,0.3-0.5,0.5-0.9,0.7c-1.8,0.3-3.6,0.4-5.4,0.2c-0.3,0-0.7-0.1-1-0.2
	c-0.5-0.2-0.9-0.4-1.3-0.6c-0.3-0.2-0.5-0.4-0.7-0.6c0-0.2,0-0.3-0.1-0.5L173,32.6z"/>
<path class="st9" d="M207,56.8c-1.5-1-2.8-2.3-3.8-3.8c-0.3-0.3-0.4-0.8-0.3-1.2l0.3-0.3C204.3,53.4,206.7,54.4,207,56.8z"/>
<path class="st9" d="M194.2,42.4h-0.7c-0.4-0.5-1.1-0.3-1.5-0.7l0,0l-0.3-0.4l0.3-0.4c1.8-0.1,3.5,0.7,4.5,2.3l-0.4,0.3l-0.4-0.3
	l-0.7-0.1L194.2,42.4z"/>
<path class="st4" d="M226.7,327.6c0.3-1.8-0.7-3.7,0.8-5.3C227.1,324,228.1,326,226.7,327.6z"/>
<path class="st13" d="M138.3,37.1c0.8-1.7,2.3-1.5,3.8-1.5l0.3,0.4l-0.1,0.5l-0.3,0.3c-0.5,0.3-1.1,0.5-1.6,0.7
	c-0.3,0.1-0.6,0.2-0.9,0.2c-0.3,0-0.6,0-0.9-0.2L138.3,37.1z"/>
<path class="st9" d="M196.5,43.2c1.3,0,2.3,1,2.3,2.2c0,0,0,0,0,0l-0.4,0.3l-0.4-0.3l0,0c-0.3-0.2-0.5-0.5-0.8-0.7l0,0l-0.8-0.8l0,0
	c-0.2-0.1-0.2-0.3-0.2-0.5C196.3,43.3,196.4,43.2,196.5,43.2L196.5,43.2z"/>
<path class="st9" d="M201.8,50c0-0.2,0-0.5,0-0.7l-0.3-0.4l0.3-0.4c1.3,0.6,1.6,1.7,1.5,3l0,0c-0.3,0.3-0.5,0.3-0.7,0
	c0-0.2,0-0.5,0-0.7C202.3,50.5,202,50.2,201.8,50z"/>
<path class="st9" d="M184.4,35.6c1.3-0.1,2.4,0.2,3,1.5l-0.3,0.3c-0.4,0.2-0.9,0.2-1.3,0c-0.6-0.2-1.1-0.5-1.5-1
	C184.1,36.2,184.2,35.8,184.4,35.6z"/>
<path class="st4" d="M229,320c0.1-1.1-0.4-2.2,0.8-3C229.6,318,230,319.2,229,320z"/>
<path class="st4" d="M229.7,317c0.1-1-0.4-2.2,0.8-3C230.3,315,230.8,316.2,229.7,317z"/>
<path class="st9" d="M171.5,31.8c0-0.2,0-0.5,0-0.7c0.7,0.3,1.2,0.8,1.5,1.5l0,0c-0.2,0.2-0.5,0.4-0.8,0.4c-0.3,0-0.6-0.2-0.8-0.4
	C171.2,32.4,171.3,32,171.5,31.8z"/>
<path class="st4" d="M232,311.7c0-0.8-0.1-1.7,0.8-2.3C232.7,310.2,232.8,311.1,232,311.7z"/>
<path class="st10" d="M188.2,37.8c0.2,0,0.5,0,0.7,0.1l0.3,0.4l-0.2,0.5c-0.3,0.2-0.6,0.3-0.9,0.3c-0.3,0-0.6-0.2-0.9-0.4l-0.1-0.5
	l0.2-0.5C187.6,37.6,188,37.6,188.2,37.8z"/>
<path class="st9" d="M181.3,34.1h0.8l0.8,0.7l-0.3,0.3c-0.3,0.1-0.5,0.1-0.8,0.1c-0.3-0.1-0.5-0.2-0.7-0.5
	C181,34.6,181.1,34.3,181.3,34.1z"/>
<path class="st4" d="M232.7,309.4c-0.1-0.6,0.2-1.2,0.8-1.5C233.5,308.5,233.2,309.1,232.7,309.4z"/>
<path class="st4" d="M228.2,321.5c-0.1-0.6,0.3-1.2,0.8-1.5C229,320.6,228.7,321.2,228.2,321.5z"/>
<path class="st9" d="M190.4,39.4l0.8,0.8l-0.4,0.3l-0.4-0.3l0,0l-0.3-0.4L190.4,39.4z"/>
<path class="st9" d="M191.2,40.2l0.8,0.8l0,0c-0.2,0.2-0.5,0.2-0.7,0c0,0,0,0,0,0l0,0c-0.1-0.1-0.2-0.3-0.2-0.5
	C191.1,40.2,191.1,40.2,191.2,40.2L191.2,40.2z"/>
<path class="st13" d="M142,35.6l0.8-0.7l0,0l0.3,0.4l-0.2,0.4C142.6,35.9,142.2,35.9,142,35.6L142,35.6z"/>
<path class="st9" d="M182.9,34.8l0.8,0.7l-0.4,0.3l-0.5-0.1l-0.2-0.4L182.9,34.8L182.9,34.8z"/>
<path class="st10" d="M184.4,35.6c0,0.3,0,0.5,0,0.8l-0.4,0.2l-0.4-0.1l-0.2-0.4c0.1-0.1,0.1-0.3,0.2-0.4l0.1-0.1L184.4,35.6z"/>
<path class="st4" d="M231.2,312.4l0.8-0.8L231.2,312.4z"/>
<path class="st4" d="M230.5,313.3l0.7-0.8L230.5,313.3z"/>
<path class="st13" d="M138.3,37.9l-0.8-0.1l0.8-0.7l0,0l0.3,0.4L138.3,37.9z"/>
<path class="st4" d="M227.4,322.3l0.7-0.8L227.4,322.3z"/>
<path class="st4" d="M225.9,328.3l0.7-0.8L225.9,328.3z"/>
<path class="st9" d="M189.7,38.6l0.8,0.8l0,0c-0.2,0.2-0.5,0.2-0.7,0c0,0,0,0,0,0l0,0l-0.3-0.4C189.5,38.9,189.5,38.8,189.7,38.6z"
	/>
<path class="st9" d="M188.2,37.8h-0.8c-0.2-0.2-0.3-0.3-0.2-0.5c0.1-0.2,0.1-0.3,0.2-0.3l0,0L188.2,37.8z"/>
<path class="st9" d="M188.9,38.6c0-0.2,0-0.5,0-0.7l0.8,0.7l0,0C189.4,39,189.1,39,188.9,38.6z"/>
<path class="st9" d="M201,47.7c0.2,0.3,0.5,0.5,0.7,0.8l0,0c-0.2,0.2-0.5,0.2-0.7,0c0,0,0,0,0,0l0,0c-0.1-0.1-0.2-0.3-0.3-0.4
	L201,47.7z"/>
<path class="st9" d="M200.3,46.9l0.7,0.8l0,0c-0.2,0.2-0.5,0.2-0.7,0.1c0,0,0,0-0.1-0.1l0,0c-0.1-0.1-0.2-0.3-0.3-0.4
	C200,47.2,200.1,47,200.3,46.9z"/>
<path class="st9" d="M199.5,46.2l0.8,0.8l0,0c-0.2,0.2-0.4,0.2-0.6,0.1c0,0-0.1-0.1-0.1-0.1l0,0c-0.1-0.1-0.2-0.3-0.3-0.4
	L199.5,46.2z"/>
<path class="st9" d="M198.8,45.4l0.7,0.8l0,0c-0.2,0.2-0.5,0.2-0.7,0.1c0,0,0,0-0.1-0.1l0,0c-0.2-0.1-0.2-0.3-0.2-0.5
	C198.6,45.5,198.7,45.4,198.8,45.4L198.8,45.4z"/>
<path class="st12" d="M72.3,428.5c-0.7-1.8-1.1-3.8-1.2-5.7c0.1-2.5,1.9-3.2,3.9-3.2c9.1-0.2,17.8-2.9,26.6-4.4
	c6.5-1.1,13.1-2,19.6-3.5c7.4-1.6,14.8-3,22.2-4.3c6.9-1.2,13.8-2.7,20.7-4.1s13.6-2.1,20.3-3.8c2-0.7,4.1-1.1,6.3-1.2
	c3.9,0,6.7-1.7,9-4.6c5-6.3,10.7-12.1,15-19c0.9-1.4,1.9-3.2,4.2-1.9c0,0.5,0,1,0,1.5c-4,4.8-8,9.6-11.9,14.4
	c-2.3,2.8-4.5,5.7-6.7,8.6c-1.4,1.7-3.5,2.8-5.8,3c-7,1.1-14,2.8-21,4c-7.3,1.3-14.5,3-21.8,4.2c-8,1.3-15.9,3.4-24,4.7
	c-11.2,1.8-22.3,4.4-33.6,6.1c-6.4,1-12.8,2.2-19.2,3.4C71.1,423.6,73.3,426.7,72.3,428.5z"/>
<path class="st14" d="M181.3,34.9c0.2,0,0.5,0,0.7,0c0.3,0.2,0.6,0.4,0.8,0.7l0,0c0.3,0.2,0.5,0.4,0.8,0.7l0,0
	c0.3,0.2,0.6,0.4,1,0.4c0.3,0,0.5,0.1,0.7,0.3c0.2,0.2,0.4,0.3,0.6,0.4c0.2,0.1,0.5,0.1,0.7,0.3c0.3,0.3,0.4,0.7,0.7,0.9
	c0.2,0,0.5,0,0.7,0.1c0.2,0.2,0.4,0.3,0.6,0.4l0.1,0.3v0.8c-0.9,0.6-2,0.5-2.9-0.1c-3.7-2.1-8-2.7-11.9-4c-4.8-1.8-10-2.3-15.1-1.5
	c-8,1.4-16.3,2.5-23,8.1c-2.8,2.3-6.1,3.9-8.9,6.2c-2.2,1.8-5.2,1.4-8,1.4c-2.5,0-5.1-0.6-7.2,1.3c-4.2,1.6-7.1,4.8-10.1,7.9
	c-1.2,1.1-2.3,2.3-3.4,3.5c-2.1,2.6-3.6,5.8-4.3,9.1c-0.9,3.8-2.7,7.4-5.2,10.3c-0.5,0.6-1.3,1.1-1.4,1.8c-0.7,5.5-3.2,10.5-4,15.9
	c-0.4,2.7,0.7,5.4,2.7,7.1c2.7,2.5,3,5.2,1.3,8.5c-2,3.7-1.4,7.3,1.1,10.5c2.4,3,2.4,6.2,1.5,9.9c-1.1,5.3-1.1,10.7,0,16
	c0.2,0.5,0.5,0.9,0.7,1.4c0.2,0.3,0.3,0.6,0.4,0.8s0.4,0.8,0.6,1.2c0.3,0.3,0.5,0.7,0.6,1.1c0,0.3-0.1,0.6-0.3,0.8
	c-4.1-1.5-5.1-5.1-5.1-8.8c0-5.2-0.8-10.5,1.2-15.6c1-2.6-0.6-5-2.1-6.9c-2.6-2.9-3.1-7.1-1.2-10.5c1.8-3.3,1-5.5-1.1-7.7
	c-3.8-4-2.6-8.8-1.6-13.1c0.5-2.3,1.8-4.6,1.9-7.1c0.1-2.9,1.4-5.6,3.5-7.6c2.1-2.3,3.9-5.1,4.3-8c0.4-3.2,1.7-6.3,3.6-8.9
	c4.7-6,10.2-11.3,17.2-14.8c2.5-1.2,5.2-1,7.8-0.7c3.8,0.6,7.6-1.2,9.5-4.5c3.8-0.2,5.7-3.3,8.3-5.3l0,0c0.4-0.5,1.1-0.3,1.5-0.8
	l0,0c0.6-0.7,1.7,0,2.2-0.8l0,0c0.2-0.3,0.5-0.5,0.8-0.7l0,0c0.4-0.5,1.1-0.3,1.5-0.8l0,0c2.9-1,6.3,0.5,9-1.5l0,0
	c0.3-0.2,0.5-0.5,0.8-0.7l0,0c0.4-0.5,1.1-0.3,1.6-0.7c0.2,0,0.5,0,0.7,0c3.7-0.8,7.4-0.2,11-0.4h1.2c1,0.2,1.9,0.6,2.8,1.1
	c0.2,0,0.5,0.1,0.7,0.1c0.3,0.2,0.6,0.4,0.8,0.7l0,0c0.4,0.4,1.1,0.3,1.5,0.8l0,0C176.7,35.1,179.2,33.9,181.3,34.9z"/>
<path class="st15" d="M43.2,391.1c-1.3-1.9-0.6-4-0.9-6.1c-1-4.7-0.8-9.2,1.9-13.4c0.9-1.3,0.5-3,0.5-4.5c0-29.7,0-59.5,0-89.2
	c0-3.3,0.2-6.4,2.2-9.3c2.3-3.4,3-7.8,6-10.8c6.6-6.7,14.3-11.3,23.9-12c0.3,0,0.6,0.1,0.7-0.1c3.6-4.4,9.8-4.3,14-7.8
	c3.3-2.8,6.9-4.9,11.4-5.1l1.5,0.1c0.6,0.3,1.1,0.7,0.9,1.4c-0.3,0.3-0.7,0.5-1.1,0.6c-4.3-0.2-7.7,1.9-11,4.2
	c-0.3,0.2-0.5,0.6-0.8,0.8c-6.6,2.3-11.9,7.6-19.2,8.5c-4.9,0.5-9.3,3-12.8,6c-9.2,7.5-15.2,16.9-13.5,29.7
	c0.5,3.5-0.4,7.3-0.4,10.9c0,24.3,0.1,48.6,0,72.9c0.1,1.4,0,2.8-0.2,4.1c-0.1,0.6-0.4,1.2-0.6,1.8c-0.2,0.4-0.4,0.7-0.6,1.1
	c-1.7,4.4-0.8,8.9-0.6,13.4c0.2,0.3,0.4,0.7,0.5,1C44.9,390.5,44.5,391.3,43.2,391.1z"/>
<path class="st16" d="M105.1,233.7l-0.8-0.7c4.2-3.3,4.2-3.3,1-6.9c-2.1-2.4-2.1-4.8-1-7.7c1.9-4.9,4.5-9.6,4.5-15.1
	c0-0.9,0.2-1.7,0.6-2.5c3.7-6,1.1-6.7-3.3-9.6c-3.4-2.2-7.3-3.4-10.4-6c-1.6-1.3-3.3-2.5-2.7-4.9s2.9-2.4,4.6-2.4
	c3.2,0,3.9-1.6,3.6-4.3c-0.4-4.5-2.2-8.7-5.3-12.1c-1.2-1.4-2.6-2.7-3.9-4.1l0.1-0.8l0.4-0.2c1.4,0.2,2.1,1.3,3,2.1l0.6,0.6l0.7,0.5
	c0.2,0.1,0.5,0.3,0.7,0.5c0.2,0.2,0.4,0.4,0.6,0.6c0.2,0.2,0.4,0.4,0.5,0.7c0.3,0.5,0.6,0.9,0.9,1.4c0.2,0.2,0.3,0.5,0.5,0.7
	c0.2,0.4,0.4,0.8,0.6,1.1c0.1,0.3,0.2,0.5,0.3,0.8c0.1,0.4,0.3,0.8,0.5,1.2l0.5,0.8c0.2,0.3,0.3,0.5,0.4,0.8
	c0.1,0.3,0.2,0.6,0.2,0.9c0,1.3,0.3,2.6,1,3.6c0.2,0.3,0.3,0.7,0.4,1c0.7,2.8-0.8,4.4-2.9,5.6c-0.3,0.2-0.6,0.3-0.9,0.5
	c-1.3,0.2-2.5,0.4-3.8,0.4c-0.3,0.1-0.5,0.2-0.8,0.3c-0.2,0.2-0.3,0.4-0.4,0.6c0,0.2,0,0.5,0,0.7c0.1,0.2,0.2,0.5,0.3,0.6
	c0,0,0.3,0.3,0.3,0.3l0.7,0.4c0.2,0.1,0.5,0.3,0.7,0.4c0.2,0.2,0.5,0.4,0.7,0.5l0.4,0.3c0.3,0.2,0.5,0.3,0.8,0.5l0.5,0.2
	c3.7,2,7.8,3.1,11.1,6c4,3.4,4.3,5.7,1.2,9.8c-1.9,2.3-1,5.1-1.4,7.6c-0.1,0.3-0.2,0.7-0.3,1c-0.1,0.3-0.3,0.6-0.5,0.9
	s-0.2,0.3-0.2,0.4c-1,2.1-1,4.6-2,6.7c-0.2,0.3-0.3,0.6-0.5,0.9c-1.1,1.5-0.9,3.2-0.8,4.9c0.1,0.3,0.1,0.6,0.2,0.8s0.3,0.5,0.4,0.7
	l0.2,0.3c0.2,0.2,0.4,0.4,0.5,0.6s0.2,0.2,0.3,0.3s0.4,0.4,0.6,0.6s0.2,0.2,0.3,0.3c0.2,0.2,0.4,0.4,0.6,0.6
	c0.1,0.1,0.2,0.2,0.3,0.3c0.2,0.2,0.4,0.5,0.5,0.8c0.1,0.3,0.1,0.6,0.1,0.9C108.9,231.5,107.9,233.6,105.1,233.7z"/>
<path class="st17" d="M43.2,391.1l1.4-1.4c0-0.4,0.1-0.8,0.3-1.2l0.4-0.5c0.3-0.3,0.5-0.7,0.9-1c10.7-10,23.4-12.8,37.3-9.3
	c7.5,1.8,15.2,2.5,22.9,2c15.3-0.7,30.6-1.5,45.9-1c2.4,0,4.7,1.1,6.3,2.8c3,3,5.9,6.1,9.6,8.4c8,5.1,21.5,5.9,28.9-0.7
	c6.8-4.5,9.1-11.7,11.3-18.9c0.3-1.2,0.7-2.4,1.2-3.5c2.7-5.4,4.5-5.5,7.9-0.4c0.3,1.5,0.9,3,1.8,4.3c-0.1,0.8-0.2,1.5-0.3,2.2
	c-1.9-0.2-2.6,1.2-3.4,2.5c-4.5,7.5-10.8,13.5-16,20.4c-1.3,1.8-3.4,3.5-5.6,3.4c-5.4-0.3-10.1,2.4-15.4,2.7
	c-6.8,0.4-13.5,2.3-20.1,3.8c-11.6,2.6-23.5,4.3-35.1,6.9c-6.8,1.5-13.8,2.4-20.5,3.8c-6.1,1.3-12.4,1.1-18.3,3.7
	c-2.7,1.2-5.7,0.6-8.6,0.6c-2.1,0-3.7,0.4-4.7,2.3c-2.2-1.4-4.7-2.2-7.4-2.3c-4.5-0.4-8.8-1.9-12.1-5.3c-10.7-11-8.4-6.3-8.6-20.8
	C43.1,393.4,43.2,392.2,43.2,391.1z"/>
<path class="st18" d="M219.1,370.7c-2.4-0.2-2.3-2-2.3-3.7c0.9-7.2,0.3-14.4,0.4-21.6c-0.1-3.1,0.4-6.2,1.5-9.2
	c2.1-7.9,5-15.6,7.6-23.3c2.3-6.8,6.3-12.8,9.6-19.2c1.7-3.1,2.6-6.6,2.5-10.1c0-2.9-0.1-5.8,0-8.7c0.1-7.3-3.1-13.4-7-19.2
	c-2.3-3.4-6-5.6-10.1-6c-4.5-0.5-8.8-2-12.7-4.3c-4.9-2.7-9.9-4.9-14.8-7.5c-0.5-0.3-0.9-0.6-1.3-0.9s-0.6-0.3-0.9-0.5
	c-1.1-0.8-2.5-0.9-3.6-1.9c-0.1-0.3-0.1-0.7,0.1-1c0.3-0.2,0.7-0.2,0.9,0.1c6.9,1.9,12.9,5.8,19.3,8.7c4,1.8,7.5,4.9,12.5,4.3
	c2.4-0.3,4.2,2.2,6.6,2.1l0,0c1,0.6,2.2,0.7,3,1.5l0,0l0.8,0.8l0,0c0.3,0.3,0.5,0.5,0.8,0.8l0,0l0.8,0.8l0,0
	c0.2,0.3,0.5,0.5,0.8,0.8l0,0l0.8,0.8l0,0c0.3,0.3,0.5,0.5,0.7,0.8l0,0c1.5,3.6,3.3,7.2,5.3,10.6l0,0c1.5,10.8,3.5,21.7-3,31.8
	c-2.6,5.1-5.6,10.1-7.5,15.5c-1.8,5-4.6,9.9-4.6,15.5c-0.4,0.4-1.2,0.8-1.3,1.3c-0.8,5.3-4.2,9.8-4,15.4c0.3,7.1,0.1,14.3,0,21.4
	C219.9,367.8,220.3,369.4,219.1,370.7z"/>
<path class="st19" d="M100.5,179.3c1.6-1.7,3.9-3.1,3-6c2.8,3.9,7.1,3.4,11.1,4.4c4.8,1.2,9.8,1.9,14.6,3.4c0.8,0.4,1.7,0.6,2.5,0.7
	c5.9-0.3,9.8,3.3,13.8,6.7c4.6,3.9,9.6,7.3,15.9,6.3s12.5-3.2,16.5-8.9c1.6-2.1,3.3-4.1,5.3-5.9c3.3-3,5-6.8,6.4-10.9
	c1.3-3.8,2.1-8.3,7.2-9.2l0.5,0.4c-2.9,3-4.8,6.7-5.6,10.7c-1.3,5.1-5,8.8-8.8,12.4c-4.3,4.1-4.1,4.4-1.8,9.6
	c1.9,3.9,1.5,8.5-1.2,11.9l-0.5-0.4c-0.9-1.7-0.5-3.4-0.2-5.1c0.2-1.4,0.8-2.9-0.6-3.9s-2.6,0.1-3.9,0.7c-0.8,0.3-1.6,0.7-2.3,1.2
	c-5.1,3.5-10.9,3.6-16.7,3.1c-4.6-0.4-8-3.4-11.5-6.1c-4.9-3.8-9.8-6.7-16.2-8c-7.3-1.4-14.9-1.7-22-4.4
	C104.1,181.4,102,181.1,100.5,179.3z"/>
<path class="st20" d="M111,51.3c1-1.7,3-2.6,4.9-2.1c7.8,1.7,13.4-2.9,19-6.9c4.8-3.5,10.3-5.9,16.1-7.1c4.4-0.8,8.5-2.3,13.1-2
	c7.1,0.4,14.1,2.1,20.6,5.1c1.4,0.6,2.7,1.2,4.1,1.8c1.4,3,5,3,7.1,5c2.9,2.5,5.2,5.7,6.5,9.3c0.2,0.3,0.5,0.5,0.7,0.7l0,0
	c0.2,0.3,0.5,0.6,0.8,0.8l0,0c0.2,0.3,0.5,0.5,0.7,0.7l0,0c0.2,0.3,0.5,0.5,0.7,0.8l0,0c0.8,0.8-0.1,2.1,0.8,3l0,0.8
	c0.6,0.6,0,1.6,0.7,2.3c0,0.3,0.1,0.5,0.1,0.7c0.2,0.3,0.4,0.5,0.7,0.8l0,0c0.4,0.4,0.3,1.1,0.7,1.5l0,0c0.8,3.2,0.3,6.4,0.3,9.6
	c0,1.7,0.2,3.2,1.9,4l0,0c0.4,0.5,1.1,0.3,1.5,0.7l0,0c0.4,0.5,1.1,0.3,1.5,0.8l0,0c0.3,0.2,0.5,0.5,0.8,0.7l0,0
	c0.2,0.3,0.5,0.5,0.8,0.7l0,0c0.2,0.3,0.5,0.5,0.7,0.7l0,0c0.2,0.3,0.4,0.5,0.7,0.7l0,0c0.2,0.3,0.4,0.5,0.7,0.7l0,0
	c0.2,0.3,0.4,0.5,0.7,0.7l0,0c0.2,0.3,0.4,0.5,0.7,0.7l0,0c0.2,0.3,0.4,0.5,0.7,0.7l0,0c0.2,0.3,0.4,0.5,0.7,0.7l0,0
	c0.2,0.3,0.4,0.5,0.7,0.7l0,0c0.2,0.3,0.5,0.5,0.7,0.7l0,0c0.2,0.3,0.5,0.5,0.7,0.7l0,0c0.2,0.3,0.5,0.5,0.7,0.7l0,0
	c0.4,0.4,0.3,1.1,0.7,1.5v0.8c0.6,5.3,0.6,10.6,0,15.8l0,0c-0.4,0.4-0.3,1.1-0.7,1.5l0,0c-0.5,0.4-0.3,1.1-0.8,1.5l0,0
	c-0.7,0.6-0.1,1.6-0.7,2.2v3.1c0.4,0.4,0.3,1.1,0.8,1.5l0,0c0.2,0.3,0.5,0.5,0.7,0.8l0,0c0.4,0.4,0.3,1.1,0.7,1.5v0.8
	c0.5,0.7,0.5,1.6,0,2.3l0,0c-0.7,0.6-0.1,1.6-0.7,2.3l0,0c-0.5,0.4-0.3,1.1-0.8,1.5l0,0c-0.3,0.2-0.8,0.2-1-0.1c0,0,0,0,0-0.1
	c-0.2-3.5-0.3-6.9-1.9-10.2c-0.8-1.6-0.4-3.8,0.4-5.5c2.7-5.9,1.3-12.2,1.4-18.3c0-1.4-1-2.5-2-3.5c-3.1-3.1-5.9-6.5-10-8.6
	c-2.8-1.4-3.7-4-3.7-7c0-4.3,0.3-8.6-1.6-12.6c-3.4-7.1-6.9-13.6-14.1-18.4c-6.5-4.3-13.5-6.2-20.5-8c-5.3-1.3-11.2-1.6-16.6,0.9
	c-0.3,0.2-0.7,0.3-1,0.4c-8.7,1-14.9,7-21.8,11.7c-2.9,2-6.4,3.1-10,3.1c-2.6,0-5.3,0.2-7.9,0.3C111.6,51.9,111.2,51.7,111,51.3z"/>
<path class="st21" d="M222.1,128.6h0.8c-0.9,3.6-2.7,6.4-6.5,7.6c-2.7,0.9-4,3.3-5.3,5.6c-1.3,2.1-2.9,4-4.8,5.6
	c-2.9,2.4-4.2,6.1-5.7,9.4c-0.8,1.6-1.2,3.3-3.3,3.6l-0.1-0.1c-0.2-0.3-0.3-0.7-0.2-1c1.3-2.6,1.9-5.1-1.4-6.9
	c-0.9-0.6-1.5-1.5-1.5-2.5c0.3-1.2,0.8-2.3,1.5-3.3c0.3-0.2,0.6-0.3,1-0.3c2,0.5,3,3.1,4.9,2.9c1.8-0.2,2.2-2.8,3.9-3.7
	c0.5-0.3,1-0.7,1.5-1.1c0.2-0.2,0.5-0.5,0.7-0.7s0.4-0.6,0.6-0.8c1.6-4.2,4.3-7.6,8.6-9.3C219.2,132.6,219.8,129.8,222.1,128.6z"/>
<path class="st22" d="M189,233.7l-0.9,0.1c-3.3,1-5.6-1.6-8.2-2.6c-3-1.2-5.9-2.7-8.6-4.5c-1.8-1.9-3.5-3.8-0.2-5.9l0.6,0.2
	c0.1,1.8-0.8,4.1,2.2,4.5c5.4,1.6,9.9,4.9,15.1,6.9L189,233.7z"/>
<path class="st21" d="M224.4,109.7V93.9C225.6,99.1,225.6,104.5,224.4,109.7z"/>
<path class="st21" d="M210.8,80.2c-2-0.2-2.3-1.6-2.3-3.2c0-3.5,0-7,0-10.4c1.5,2.7,0.5,5.6,0.7,8.4C209.3,77,209.5,78.7,210.8,80.2
	z"/>
<path class="st22" d="M175.3,214.1c-0.7,2.2-0.8,4.6-3,6.1l-0.4-0.4c-0.6-2.4,0.6-4.1,1.9-5.9c0.3-0.2,0.7-0.2,1-0.1L175.3,214.1z"
	/>
<path class="st19" d="M179.9,205.1c0.2,2.2-1.8,3.4-2.4,5.3c-0.4,0.1-0.8,0-1-0.4C176.1,207.3,176.8,205.4,179.9,205.1L179.9,205.1z
	"/>
<path class="st22" d="M176.8,210.3h0.7c-0.1,1.5-0.9,3-2.2,3.8h0c-0.7-0.7-0.4-1.5-0.1-2.2c0.1-0.3,0.3-0.6,0.5-0.8
	c0.2-0.2,0.4-0.5,0.7-0.6L176.8,210.3z"/>
<path class="st21" d="M206.3,60.6c-1.1-0.8-0.7-2-0.8-3C206.6,58.4,206.2,59.5,206.3,60.6z"/>
<path class="st21" d="M207,63.6c-0.8-0.6-0.7-1.4-0.7-2.3C207.1,61.9,207,62.8,207,63.6z"/>
<path class="st21" d="M223.7,127.1c0-0.8-0.1-1.7,0.7-2.3C224.4,125.7,224.5,126.6,223.7,127.1z"/>
<path class="st21" d="M222.1,115c0-0.8-0.1-1.7,0.7-2.2C222.9,113.6,223,114.5,222.1,115z"/>
<path class="st21" d="M224.4,124.9v-2.3c0.6,0.3,0.9,1.1,0.5,1.7C224.8,124.6,224.6,124.7,224.4,124.9z"/>
<path class="st21" d="M224.4,121.8c-0.5-0.3-0.8-0.9-0.7-1.5C224.2,120.6,224.5,121.2,224.4,121.8z"/>
<path class="st21" d="M222.9,128.6c-0.1-0.6,0.2-1.2,0.8-1.5C223.7,127.8,223.4,128.3,222.9,128.6z"/>
<path class="st21" d="M222.9,119.6c-0.6-0.3-0.9-0.9-0.8-1.5C222.7,118.4,223,119,222.9,119.6z"/>
<path class="st10" d="M191.9,41.7c0.6-0.1,1.2,0.2,1.5,0.7C192.8,42.5,192.2,42.2,191.9,41.7z"/>
<path class="st21" d="M213.8,81.8c-0.6,0.1-1.2-0.2-1.5-0.8C212.9,80.9,213.5,81.2,213.8,81.8z"/>
<path class="st21" d="M212.3,81c-0.6,0.1-1.2-0.2-1.5-0.7C211.4,80.2,212,80.5,212.3,81z"/>
<path class="st21" d="M224.4,93.1c-0.5-0.3-0.8-0.9-0.7-1.5C224.2,91.9,224.5,92.5,224.4,93.1z"/>
<path class="st21" d="M223.7,111.3c-0.1-0.6,0.2-1.2,0.7-1.5C224.5,110.3,224.2,110.9,223.7,111.3z"/>
<path class="st21" d="M222.9,112.7c-0.1-0.6,0.2-1.2,0.8-1.5C223.7,111.9,223.4,112.5,222.9,112.7z"/>
<path class="st21" d="M208.5,66.6c-0.5-0.3-0.8-0.9-0.7-1.5C208.3,65.4,208.6,66,208.5,66.6z"/>
<path class="st10" d="M202.5,51.5h0.7c0,0.5,0,1,0,1.5C202.7,52.7,202.4,52.1,202.5,51.5z"/>
<path class="st10" d="M188.9,38.6c0.2,0,0.5,0,0.7,0c0,0.2,0,0.5,0,0.7h-0.7c-0.1-0.1-0.2-0.3-0.2-0.5
	C188.7,38.7,188.8,38.7,188.9,38.6L188.9,38.6z"/>
<path class="st10" d="M189.6,39.4h0.8c0,0.3,0,0.5,0,0.7L189.6,39.4z"/>
<path class="st10" d="M191.1,40.2c0,0.2,0,0.5,0,0.7c-0.3-0.3-0.5-0.5-0.8-0.8L191.1,40.2z"/>
<path class="st10" d="M191.2,40.9h0.7c0,0.3,0,0.5,0,0.7L191.2,40.9z"/>
<path class="st10" d="M194.2,42.4l0.8,0.7L194.2,42.4z"/>
<path class="st10" d="M196.4,43.2c0,0.2,0,0.5,0,0.7l-0.8-0.7H196.4z"/>
<path class="st10" d="M196.5,43.9l0.8,0.8L196.5,43.9z"/>
<path class="st21" d="M223.6,120.3l-0.7-0.8L223.6,120.3z"/>
<path class="st21" d="M221.4,89.3l-0.7-0.7L221.4,89.3z"/>
<path class="st21" d="M220.6,88.5l-0.7-0.7L220.6,88.5z"/>
<path class="st21" d="M219.9,87.8l-0.7-0.7L219.9,87.8z"/>
<path class="st21" d="M219.1,87l-0.7-0.7L219.1,87z"/>
<path class="st21" d="M218.4,86.2c-0.3-0.2-0.5-0.5-0.7-0.7C217.9,85.8,218.1,86,218.4,86.2z"/>
<path class="st21" d="M217.6,85.5l-0.7-0.7L217.6,85.5z"/>
<path class="st21" d="M216.9,84.7l-0.7-0.7L216.9,84.7z"/>
<path class="st21" d="M216.1,84l-0.7-0.7L216.1,84z"/>
<path class="st21" d="M215.4,83.2l-0.8-0.7L215.4,83.2z"/>
<path class="st21" d="M214.6,82.5l-0.8-0.7L214.6,82.5z"/>
<path class="st22" d="M172.3,220.2l-0.7,0.8l-0.1-0.1C171.4,220.3,171.6,220,172.3,220.2L172.3,220.2z"/>
<path class="st21" d="M223.6,91.6l-0.7-0.7L223.6,91.6z"/>
<path class="st21" d="M222.9,90.8c-0.3-0.2-0.5-0.5-0.7-0.7C222.4,90.3,222.6,90.6,222.9,90.8z"/>
<path class="st21" d="M207.8,65.1l-0.7-0.8L207.8,65.1z"/>
<path class="st21" d="M222.1,90c-0.3-0.2-0.5-0.5-0.7-0.7C221.7,89.5,221.9,89.8,222.1,90z"/>
<path class="st21" d="M205.5,57.6c-0.2-0.3-0.5-0.5-0.7-0.8C205,57,205.3,57.3,205.5,57.6z"/>
<path class="st21" d="M204.8,56.8L204,56L204.8,56.8z"/>
<path class="st21" d="M204,56l-0.7-0.7L204,56z"/>
<path class="st21" d="M203.3,55.3l-0.7-0.7L203.3,55.3z"/>
<path class="st10" d="M201.8,50l0.7,0.8L201.8,50z"/>
<path class="st10" d="M201,48.5h0.7v0.8L201,48.5z"/>
<path class="st10" d="M200.2,47.7h0.7v0.7L200.2,47.7z"/>
<path class="st10" d="M199.5,47h0.7c0,0.2,0,0.5,0,0.7L199.5,47z"/>
<path class="st10" d="M198.7,46.2h0.7c0,0.3,0,0.5,0,0.7L198.7,46.2z"/>
<path class="st10" d="M198.7,45.4c0,0.3,0,0.5,0,0.7l-0.8-0.8L198.7,45.4z"/>
<path class="st10" d="M197.2,44.7l0.8,0.7L197.2,44.7z"/>
<path class="st11" d="M237.2,297.3c5.6-10.1,3.9-21,3-31.8c1.6,1.3,1.5,3,1.5,4.8c0,5.5,0,11.1,0,16.6
	C241.8,291.1,239.9,294.4,237.2,297.3z"/>
<path class="st11" d="M240.2,265.5c-2.6-3-4.4-6.6-5.2-10.5C237.3,258.2,239,261.8,240.2,265.5z"/>
<path class="st11" d="M230.4,250.4c-1.2-0.1-2.3-0.6-3-1.5C228.7,248.8,229.9,249,230.4,250.4z"/>
<path class="st11" d="M232,251.9l-0.8-0.8L232,251.9z"/>
<path class="st11" d="M232.7,252.7l-0.8-0.8L232.7,252.7z"/>
<path class="st11" d="M233.5,253.4l-0.8-0.8L233.5,253.4z"/>
<path class="st11" d="M234.2,254.2l-0.8-0.8L234.2,254.2z"/>
<path class="st11" d="M235,255c-0.3-0.3-0.5-0.5-0.7-0.8C234.5,254.5,234.7,254.7,235,255z"/>
<path class="st11" d="M231.2,251.2l-0.8-0.8L231.2,251.2z"/>
<path class="st10" d="M168.5,31.8h-12.1c3.9-1.6,8.1-0.4,12.1-0.8c0.3,0.2,0.3,0.3,0.3,0.5S168.6,31.8,168.5,31.8z"/>
<path class="st9" d="M168.5,31.8c0-0.3,0-0.5,0-0.8c0.8,0,1.7-0.1,2.3,0.7c-0.4,0.4-1.1,0.4-1.5,0c0,0,0,0,0,0L168.5,31.8
	L168.5,31.8z"/>
<path class="st10" d="M169.2,31.8h1.5h0.7c0,0.2,0,0.5,0,0.7C170.7,32.5,169.8,32.7,169.2,31.8z"/>
<path class="st10" d="M155.7,31.9c-0.3,0.5-0.9,0.8-1.6,0.7c0-0.3,0-0.5,0-0.7L155.7,31.9z"/>
<path class="st10" d="M153.4,33.3c-2.6,2.7-6,1.1-9,1.5C147.2,33.5,150.4,34.4,153.4,33.3z"/>
<path class="st10" d="M144.3,34.9c-0.3,0.5-0.9,0.8-1.5,0.8v-0.8L144.3,34.9z"/>
<path class="st10" d="M154.1,32.6l-0.8,0.7L154.1,32.6z"/>
<path class="st10" d="M181.3,34.9c-2.3-0.3-4.7,0.7-6.8-0.8h6.8C181.3,34.4,181.4,34.6,181.3,34.9z"/>
<path class="st10" d="M174.5,34.1c-0.6,0.1-1.2-0.2-1.5-0.8C173.6,33.3,174.2,33.6,174.5,34.1z"/>
<path class="st10" d="M173,33.4l-0.8-0.7h0.8C173,32.9,173,33.1,173,33.4z"/>
<path class="st10" d="M142,36.4c-0.5,0.9-1.4,0.8-2.2,0.8C140.3,36.2,141.2,36.4,142,36.4z"/>
<path class="st10" d="M139.8,37.2c-0.3,0.5-0.9,0.8-1.5,0.8v-0.8L139.8,37.2z"/>
<path class="st10" d="M142.9,35.7l-0.8,0.7c0-0.3,0-0.5,0-0.7L142.9,35.7z"/>
<path class="st10" d="M185.1,37.2h-0.7c-0.2-0.2-0.3-0.3-0.2-0.5s0.1-0.3,0.2-0.3l0,0c0.6-0.1,1.2,0.2,1.5,0.8l-0.4,0.3L185.1,37.2z
	"/>
<path class="st10" d="M186.6,37.9c-0.2,0-0.5,0-0.7,0s-0.3-0.3-0.2-0.5s0.1-0.3,0.2-0.3l0,0h1.5v0.7l0,0
	C187.2,38.1,186.9,38.1,186.6,37.9C186.7,38,186.7,37.9,186.6,37.9z"/>
<path class="st5" d="M186.6,37.9h0.8c0,0.2,0,0.5,0.1,0.7L186.6,37.9z"/>
<path class="st5" d="M188.9,38.7c0,0.2,0,0.5,0,0.7l-0.8-0.7C188.4,38.7,188.6,38.7,188.9,38.7z"/>
<path class="st10" d="M182.9,35.6l-0.8-0.7h0.8C182.9,35.1,182.9,35.4,182.9,35.6z"/>
<path class="st5" d="M183.6,36.4l-0.8-0.7c0.2,0,0.5,0,0.7,0C183.6,35.9,183.6,36.1,183.6,36.4z"/>
<path class="st5" d="M184.4,36.4c0,0.2,0,0.5,0,0.7l-0.8-0.7L184.4,36.4z"/>
<path class="st20" d="M87.7,126.4c-3.3-3.7-3-7.7-0.7-11.7c1.3-2.3,1-4.2-0.8-6.1c-4.5-4.8-5-8.7-2-14.6c0.3-0.4,0.5-0.9,0.6-1.4
	C84.3,85.6,89.3,81,92,75.3c1.4-3,1.6-6.5,3.3-9.5c0.8-1.4,1.4-2.9,2.9-3.9c0.1,0.1,0.3,0.3,0.4,0.4c-2.2,7.4-3.6,15-8.9,21.1
	c-0.5,0.6-1.2,1.1-1.2,1.9C88,90,86,94.3,85,98.8c-0.7,3.1,0.3,6.4,2.8,8.6c2.7,2.5,3.6,5.2,1.2,8.6c-2.2,3.2-0.6,6.8-0.4,10.2
	C88.5,126.5,88.1,126.6,87.7,126.4C87.7,126.4,87.7,126.4,87.7,126.4z"/>
<path class="st20" d="M101.2,59c2.9-3,5.4-6.6,9.8-7.6l0.2,0.3c0.2,0.9-0.2,1.8-1,2.1c-3.1,1.4-2.6,3.1-0.7,5.2
	c1,1.9,2.8,3.2,4.1,4.8c0.6,0.8,1.2,1.7,0.3,2.7s-1.8,0.7-2.7,0.2c-1.7-1-3.3-2.2-4.7-3.7c-1.3-1.3-2.6-2.7-4.5-3.2
	C101.6,59.6,101.4,59.3,101.2,59z"/>
<path class="st23" d="M87.7,126.4h0.8c2.1,0.1,2.5,2,3.3,3.4c0.1,0.2,0.3,0.5,0.2,0.7c-1,7.5-0.4,15.2-1.5,22.7l-0.5,0.5
	c-1.2-1.2-1.7-2.8-1.5-4.5c0.3-5.5-0.8-11,1.4-16.3C91,130.2,88.1,128.7,87.7,126.4z"/>
<path class="st20" d="M98.1,62l3-3l0.2,0.1c0.2,0.3,0.3,0.6,0.3,1c-0.6,1.5-1.4,2.7-3.3,2.1L98.1,62z"/>
<path class="st23" d="M90.6,154.4l-0.7-0.8l0.1-0.1c0.3-0.1,0.7,0.1,0.8,0.4L90.6,154.4z"/>
<path class="st23" d="M90.7,155.1l-0.1-0.7l0.1-0.1c0.3-0.1,0.7,0.1,0.9,0.3c0,0.2,0,0.3,0,0.5c-0.2,0.2-0.5,0.3-0.7,0.1
	C90.8,155.2,90.8,155.2,90.7,155.1z"/>
<path class="st19" d="M90.7,155.1h0.7l0.2,0.4l-0.2,0.4L90.7,155.1z"/>
<path class="st19" d="M92.2,156.6l-0.8-0.8l0,0C92.1,155.7,92.3,156,92.2,156.6L92.2,156.6z"/>
<path class="st5" d="M185.9,37.1c0,0.2,0,0.5,0.1,0.7l-0.8-0.7L185.9,37.1z"/>
<path class="st24" d="M45.3,372.9c0-27.1,0.1-54.2,0.1-81.3c0-3.7,0-7.5,0.2-11.2c0.5-13,6.4-22.8,18-29c4.1-2.2,8.1-4.3,12.9-4.5
	c0.4,0,0.8-0.1,1.1-0.3c4.1-4.3,10.5-4.5,15.1-8.2c3.4-2.7,7.3-5.5,12.2-4c0.7,0.1,1.2,0.6,1.2,1.3c-0.2,0.4-0.5,0.7-0.9,0.8
	c-4.9-0.6-8.4,2.5-12.4,4.5c-6.7,3.3-12.9,7.3-20.4,9.2c-8.7,2.2-16,6.9-20.3,15.5c-2.8,5.6-4.9,11.1-3.5,17.6
	c1.1,5.1-0.6,10.2-0.6,15.4c0.1,16.4,0.1,32.7,0,49c0,4.9,1.2,9.8,0.8,14.7c-0.3,3.4-0.3,6.8-1.7,10c-0.3,0.3-0.7,0.6-1.1,0.7
	L45.3,372.9z"/>
<path class="st25" d="M45.4,388.8l-0.8,0.9c-0.2-0.1-0.4-0.2-0.7-0.2c-0.3-5-1.3-10.1,0.7-15.1c0-0.2,0.1-0.4,0.1-0.7
	c0.4-0.1,0.9,0.1,1.1,0.4c0.6,3.9-0.4,7.8-0.1,11.7C45.7,386.9,45.4,387.8,45.4,388.8z"/>
<path class="st24" d="M44.6,374.4c-1.3,5-0.5,10-0.7,15.1C43.1,384.4,41.8,379.3,44.6,374.4z"/>
<path class="st26" d="M105.8,235.1l-0.9-0.7l0.2-0.7c1.8-1.5,3.9-2.7,4.5-5.2c1.5-0.1,1.3,1,1.3,1.9
	C109.7,232.5,108.3,234.4,105.8,235.1z"/>
<path class="st24" d="M45.5,373.8l-0.8-0.1l0.6-0.8h0.1l0.3,0.4L45.5,373.8z"/>
<path class="st17" d="M110.4,230.7c0-0.8,0.1-1.7-0.8-2.3l0,0c-0.2-0.3-0.5-0.5-0.7-0.8l0,0c-0.3-0.3-0.5-0.5-0.8-0.8l0,0
	c-0.3-0.2-0.5-0.5-0.8-0.8l0,0l-0.8-0.8l0,0l-0.8-0.8l0,0c-0.6-2.4-0.8-4.7,0.8-6.8l0,0c1.7-2.2,1.4-5.1,2.3-7.6l0,0
	c0.3-0.3,0.5-0.5,0.7-0.8l0,0c1.4-2.9,0.1-6.2,1.5-9.1c3.4-4.4,1.6-9-4.6-11.1c-3-1-5.4-2.8-8.2-4c1.6-1.6,0.5-3.4,0.5-5.2
	c0.4-0.7,1.3-0.3,1.7-0.9l0,0c3.6,1,7.1,2,10.7,3.1c2.5,0.7,5.1,1.2,7.7,1.5c9.5,1.2,18.8,2.8,26.2,10c7.8,7.5,17.8,8.2,28.3,2.1
	c0.4-0.3,0.8-0.6,1.3-0.8c1.6-0.6,3.3-2.1,4.9-1c1.9,1.2,1.2,3.5,0.7,5.2c-0.5,1.9-0.3,3.8-0.5,5.6c-1.9,1.1-3.1,3.1-3,5.3l0,0
	c-0.3,0.2-0.5,0.5-0.7,0.8l0,0c-0.9,0.8-0.9,2-1.5,3c-1,1.9-2.2,3.8-2.3,6l-0.7,0.8c-2.8,1.8-1.2,3.5,0.1,5.3
	c-2.4,2-3.6,4.8-5.4,7.2c-0.8,0.9-0.9,2.1-0.4,3.2c1.7,2.8,2.3,6.2,1.6,9.5c-0.2,1.2,0.5,2.4,1.2,3.5c0.2,0.3,0.3,0.6,0.5,0.9
	c0.3,0.8,0.5,1.6,0.8,2.4c0.2,0.7,0.3,1.3,0.3,2c0,1.9,1.4,3.3,1.8,5c0.1,0.3,0.2,0.6,0.3,0.9c0.1,0.9,0.2,1.9,0.5,2.8
	c0.1,0.3,0.2,0.6,0.3,0.9c0.3,0.9,0.7,1.7,1.2,2.5c0.1,0.3,0.2,0.6,0.3,0.9c0.1,0.8,0.3,1.5,0.6,2.3c0.1,0.4,0.2,0.9,0.3,1.4
	c0,0.9,0.3,1.8,0.8,2.5c0.2,0.3,0.3,0.5,0.5,0.8c0.3,0.6,0.6,1.1,0.8,1.7c0.2,0.6,0.3,1.3,0.3,1.9c0,0.8,0.3,1.6,0.8,2.3
	c0.7,1.1,1.3,2.3,1.5,3.6c0.7,5.3,3,10,4.4,15.1c1.1,4.2,2.4,8.4,4,12.5c1.8,4.5,2.3,9.4,4.4,13.9c1.3,2.8,1.6,6,2.6,9
	c3.2,9.8,7.1,19.6,7.1,30.1c0.2,4.3-0.5,8.5-1.9,12.6c-2.7,1.5-3.5-1-4.6-2.5c-2.9-3.9-6.9-7-11.4-8.9c-7.4-3.1-18.3,0.3-23.1,5.8
	c-3.5,4-5.2,4.1-8.6,0c-3.7-4.4-4.9-9.8-5-15.4c-0.1-5,0.5-10.1-2.3-14.7c-1.5-3.6-0.5-7.4-1.1-11.1c-0.7-4.4-0.9-8.9-1.3-13.3
	c-0.4-9.1-0.1-18.3-2.5-27.3c-1.3-5-0.3-10.2-1.1-15.4c-1.2-7.9-2.1-15.9-2.6-23.9c-0.3-4.8-3.7-8.1-8.2-10c-6-2.6-11.7-5.8-17.4-9
	C111.1,231.5,110.7,231.1,110.4,230.7z"/>
<path class="st27" d="M194.2,149.8l1.5,2.3c2,2.2-0.1,5.3,1.5,7.6v0.7c-4.1,1-5.8,4.8-6.2,7.8c-1.3,9.7-9.1,14.8-14.5,21.2
	c-7.9,9.4-21.9,8.6-31.6-0.1c-3.7-3.3-7.5-5.8-12.9-6.7c-4.8-0.8-10.1-1.2-14.8-3.6c-2.2-1-4.6-1.4-7-1.2c-3.7,0.3-6-0.9-6.6-4.6
	l0,0c-1.4-1.2-0.8-3.1-1.5-4.5V168c-0.2-0.3-0.5-0.5-0.7-0.8l0,0c-0.7-0.6,0-1.7-0.8-2.3l0,0c-0.4-0.4-0.3-1.1-0.8-1.5l0,0
	c-0.6-0.7-0.9-1.6-1.5-2.3l0,0c-0.2-0.3-0.5-0.5-0.8-0.7l-0.7-0.1l-0.8-0.7l0,0c-0.2-0.4-0.3-0.8-0.1-1.2c0.6-2.2,0.7-4.5,0.3-6.7
	c-0.7-7.5-1.1-15.1,0.1-22.4c1.4-8.6,0.3-17.2,0.8-25.8c0.2-3.4,0.8-6.4,3-9c3.7-5.9,9.1-10.1,14.8-14c1.3-0.8,2.5-1.6,3.7-2.5
	l0.5-0.3c0.3-0.2,0.7-0.3,1-0.4c0.8-0.4,1.8-0.4,2.6,0c5.1,4.5,10,9.2,14.6,14.1c8,8.4,16.5,16.5,24.7,24.7c2.2,2.2,3.3,4.3,1,7.2
	c-1.2,1.2-1.4,3.1-0.5,4.6l0.5,0.7c0.1,0.1,0.2,0.2,0.3,0.3s0.4,0.4,0.6,0.6l0.3,0.3c0.2,0.1,0.4,0.3,0.6,0.4s0.4,0.3,0.7,0.4
	s0.7,0.4,1,0.5c0.2,0.1,0.5,0.2,0.7,0.3l1,0.5c0.3,0.1,0.5,0.2,0.7,0.3c0.4,0.1,0.8,0.2,1.2,0.3c0.6,0.1,1.3,0.2,1.9,0.3
	c6-0.2,10.3,2.8,13.8,7.5c2.2,3,5.3,5.2,7.7,8.1c0.2,0.3,0.4,0.6,0.6,1C194.1,149.5,194.2,149.6,194.2,149.8z"/>
<path class="st28" d="M99,180.1c0.2,1.8,3.6,4.1-0.7,5.3l0,0c-0.3-0.2-0.5-0.5-0.7-0.7l0,0c-0.2-0.3-0.5-0.5-0.8-0.7l-0.8-0.1
	l-0.7-0.7l-0.1-0.1c-0.2-0.2-0.5-0.5-0.7-0.7v-1.5c0.2-0.3,0.5-0.5,0.7-0.7l0,0C96.5,179.5,97.8,179.5,99,180.1z"/>
<path class="st29" d="M111.1,200.5c-0.2,3.1,0.7,6.3-1.5,9.1C110,206.5,108.5,203.2,111.1,200.5z"/>
<path class="st29" d="M108.8,210.3c-0.2,2.7,0.1,5.5-2.3,7.6C107.4,215.4,107.4,212.6,108.8,210.3z"/>
<path class="st23" d="M96,158.9c0,0.3,0,0.5,0,0.8l-3.8-3l-0.7-0.7c0-0.2,0-0.5,0-0.7l0-0.1C94.5,154.6,95.7,156.2,96,158.9z"/>
<path class="st29" d="M106.6,217.9c-0.7,2.2-0.9,4.5-0.8,6.8C104.7,222.3,104.1,219.9,106.6,217.9z"/>
<path class="st19" d="M99,180.1h-3.8c1.6-1.5,3.5-0.5,5.3-0.8C100.2,179.8,99.6,180.1,99,180.1z"/>
<path class="st19" d="M102,168.7c1.1,1.3,1,3,1.5,4.5C101.5,172.3,102.2,170.4,102,168.7z"/>
<path class="st19" d="M98.3,161.2c1,0.3,1.6,1.2,1.5,2.3C98.8,163.1,98.2,162.2,98.3,161.2z"/>
<path class="st19" d="M100.5,165c0.9,0.5,0.7,1.4,0.8,2.3C100.4,166.7,100.5,165.8,100.5,165z"/>
<path class="st19" d="M99.8,163.4c0.5,0.3,0.8,0.9,0.8,1.5C100,164.6,99.7,164,99.8,163.4z"/>
<path class="st19" d="M96,159.7l0.8,0.7L96,159.7z"/>
<path class="st19" d="M97.5,160.4l0.8,0.7L97.5,160.4z"/>
<path class="st29" d="M108.8,227.7l0.7,0.8L108.8,227.7z"/>
<path class="st29" d="M108.1,227l0.8,0.8L108.1,227z"/>
<path class="st29" d="M107.3,226.2l0.8,0.8L107.3,226.2z"/>
<path class="st29" d="M106.6,225.4l0.8,0.8L106.6,225.4z"/>
<path class="st29" d="M105.8,224.7l0.8,0.8L105.8,224.7z"/>
<path class="st29" d="M109.6,209.6l-0.7,0.8L109.6,209.6z"/>
<path class="st17" d="M97.5,184.6l0.7,0.7L97.5,184.6z"/>
<path class="st19" d="M96.7,183.9l0.8,0.7L96.7,183.9z"/>
<path class="st19" d="M95.3,183.1l0.7,0.7L95.3,183.1z"/>
<path class="st19" d="M94.5,182.4l0.7,0.7L94.5,182.4z"/>
<path class="st19" d="M95.2,180.1l-0.7,0.7L95.2,180.1z"/>
<path class="st19" d="M101.3,167.2l0.7,0.8L101.3,167.2z"/>
<path class="st30" d="M61.3,412.2c0.1,8-0.4,6.9-6.5,3.8c-3.8-1.9-6.8-5.3-9.1-8.9c-2.8-4.3-0.9-9.4-0.7-14.1c0-1.2,1.2-2,3.1-1.3
	C54.8,394.5,62.6,403.6,61.3,412.2z"/>
<path class="st31" d="M45.4,388.8c-0.9-0.5-0.7-1.4-0.7-2.2c3.7-4.2,8.5-7.3,13.7-9.1c0.4-0.1,0.8-0.3,1.2-0.3
	c6.4-3.3,13.3-2,20.1-2.2c0.6,0,1.3,0.1,1.9,0.3c2.5,0.5,4.6,2,7.2,2.1c7.9,0.7,15.8,0.8,23.7,0.2c13.7-0.8,27.3-0.3,41-0.3
	c1,0,2,0.2,2.9,0.7c0.9,0.5,1.8,1.1,2.5,1.9c4.3,4.5,8.5,9.2,14.6,11.5c3.3,1.2,6.4,2.9,9.5,2.1c-2.4,0.2-5.3,0.2-7.4-2.4
	c-0.3-0.3-0.4-0.6-0.5-1c0-0.4,0.3-0.7,0.7-0.9c0.7-0.2,1.5-0.2,2.2,0.1c3.6,1.4,7.1,1.9,10.8,0.1c1.1-0.6,2.4-0.7,3.6-0.2
	c0.7,0.2,0.7,2,2.2,0.9c1-0.8,2.3-1.6,3.6-0.4c-7.3,6.4-15.5,6.7-24.4,3.9c-6.3-2-10.9-6-15-10.7c-1.8-2.2-4.7-3.4-7.5-3.2
	c-14.7,0.5-29.4,0.7-44.1,1c-1.9,0.1-3.7,0.3-5.6,0.6C95,382,89,380.1,83,378.6c-13.2-3.1-25.3-0.8-35.6,8.6
	c-0.4,0.3-0.8,0.6-1.3,0.8C45.9,388.4,45.6,388.5,45.4,388.8L45.4,388.8z"/>
<path class="st32" d="M198,389.6c-1.9-0.4-2.8,1.1-4.1,1.9c-0.7,0.4-1.8,0.7-2.2-0.3c-0.4-0.8,0.9-1,1-1.7c0.1-3.3,3.6-4,4.9-6.5
	c1.5-2.1,1.8-5,4.3-6.5c0.4,0.4,0.6,0.9,0.7,1.4c-0.2,3.4-2,6.1-4,8.5c2.1-2,3.7-4.5,4.8-7.2c0.1-0.3,0.3-0.6,0.5-0.8l0.3-0.4
	c0.3-0.4,0.5-0.7,0.7-1.1c0.1-0.4,0.3-0.8,0.4-1.2c0.2-0.5,0.3-1,0.4-1.6c0-0.4,0.1-0.8,0.3-1.2c0.2-0.5,0.5-1,0.7-1.5
	c0.1-0.3,0.3-0.5,0.4-0.8s0.2-0.5,0.4-0.8l0.3-0.9c0.3-1.1,0.1-2.3,0.5-3.5c0.1-0.3,0.2-0.7,0.4-1c2.6-5.3,2.6-5.3,7.5-4.7
	c0-4.8,0-9.5,0-14.3c0-2.4,0.3-4.8,1-7.1c0.4-1.5,1-2.9,3-2.7c-2.6,7.4-1.1,15.1-1.4,22.7c-0.1,2.4-0.1,4.8,0,7.1
	c0,1.1-0.3,1.7-1.5,1.3c-3.8-5.1-4-5.1-6.7,0.5c-1.2,2.9-2.2,5.8-3,8.8C205.7,381.7,202.5,386.3,198,389.6z"/>
<path class="st25" d="M45.4,388.8l0.7-0.8L45.4,388.8z"/>
<path class="st33" d="M219.8,335.9c-3.3,1.7-2.7,5.1-2.8,7.6c-0.2,5.6-0.8,11.3,0.4,16.9c0.3,1.5-0.6,2.6-1.8,1.5
	c-3.7-3.4-4.8-1.1-5.8,2.2c-0.2,0.5-0.8,0.9-1.3,1.3c-0.1-0.1-0.3-0.2-0.3-0.3c-1-6.4-2.8-12.6-5.4-18.5c-1.8-4.1-2.1-8.5-4-12.7
	c-2.4-5.5-3.8-11.6-5.2-17.6c-0.5-2-0.9-3.9-2.4-5.4c-0.7-0.6-1-1.5-1-2.4c0.3-4.4-1.4-8.6-2.9-12.4c-2.3-5.8-3.4-12-6.2-17.6
	c-0.4-0.5-0.6-1.1-0.8-1.7c-0.3-9-5-16.7-7.6-25.1c-1.2-3.9-1.1-4.4,2.9-5.4c3.5-0.7,6.7-2.3,9.4-4.5c2.1-1.8,4.3-3.3,6.8-4.6
	l0.4-0.4c0.3-0.2,0.7-0.3,1-0.1c7,3.5,14.1,7.1,21.1,10.6c1.3,0.5,2.6,0.8,4,0.8c7.3,0.6,12.4,4.1,16.3,10.5
	c5.8,9.8,5.5,20.1,4,30.6c-0.6,4.5-3.7,8.2-5.6,12.3c-2.3,5.2-5.3,9.9-7,15.5C224.3,323.4,222.1,329.7,219.8,335.9z"/>
<path class="st34" d="M168.4,250.4c-1.8-1.3-2.5-3.5-1.9-5.6c0.6-2.5,0.1-5.2-1.5-7.4c-1.1-1.8-1.2-3.3,0.5-4.9
	c1.2-1.4,2.2-2.9,3.1-4.5c0.7-1.1,1.5-2,3-1.8l16.5,7.6l0.2,0.7c0,2.6-2.1,3.3-3.8,4.2c-3.2,1.7-6.5,3.3-9.8,4.7
	C169.4,245.3,169.5,245.5,168.4,250.4z"/>
<path class="st35" d="M168.4,250.4c-1.3-5.1-1.1-4.8,3.8-7c5.6-2.5,11.7-4.2,16.1-8.9c1.4-0.1,2.7,0.5,3.6,1.5
	c-2.6,1.1-5.1,2.4-7.5,4c-0.3,0.2-0.6,0.4-0.9,0.5c-2.3,1.7-5.1,2.3-7.5,3.9c-0.3,0.2-0.6,0.3-0.9,0.4c-1,0.3-2.1,0.2-3.1,0.6
	c-0.3,0.1-0.5,0.2-0.8,0.4c-0.2,0.2-0.4,0.3-0.6,0.5c-0.1,0.1-0.1,0.3-0.2,0.4c-0.2,0.7-0.1,1.5,0.2,2.2c0.1,0.3,0.2,0.7,0.2,1
	c0.1,2.9,2.2,5.3,2.6,8.1c0.1,0.3,0.2,0.6,0.3,1c0.2,2,1.3,3.8,1.9,5.7c0.1,0.3,0.2,0.6,0.3,0.9c0.1,1.1,0.3,2.2,0.6,3.2
	c0.2,0.3,0.3,0.6,0.5,0.9c1.1,1.6,1.4,3.4,1.8,5.3c0.2,0.6,0.3,1.2,0.4,1.8c0.1,0.3,0.2,0.5,0.3,0.8c0.1,0.1,0.1,0.3,0.2,0.4
	s0.3,0.5,0.5,0.7c0.1,0.3,0.3,0.5,0.4,0.8c0.1,0.7,0.3,1.4,0.5,2.1c0.1,0.3,0.2,0.6,0.3,0.9c0.1,1.1,0.3,2.2,0.7,3.2
	c0.2,0.3,0.3,0.6,0.5,0.9c0.8,2,2.3,4,0.4,6.2c-2.7-2.5-2.7-6-3.7-9.2c-0.5-1-1-2.1-1.5-3.1c-0.6-0.6,0-1.6-0.6-2.2l-0.2-2.3
	c-0.2-0.5-0.2-1-0.6-1.4l0-0.1c-0.8-0.8-1-2-1.5-2.9l-0.2-1.6c-0.5-0.6,0-1.6-0.6-2.2l-0.1-0.8c-0.7-0.9-0.9-2-1.4-2.9l0-0.1
	c-0.7-0.9,0.1-2.1-0.7-3l-0.1-0.8c-0.2-2-1.5-3.4-2.2-5.2l-0.2-2.4C168.7,251.9,169.2,251,168.4,250.4L168.4,250.4z"/>
<path class="st33" d="M183.6,239.8c2.6-1.8,4.8-4.3,8.4-3.8l0.8,0.1c0.1,0.1,0.2,0.3,0.2,0.4c0,0.1-0.1,0.2-0.1,0.2l-0.1,0.1
	c-2,1.3-4.4,1.7-6.3,3.2C185.5,240.7,184.3,240.6,183.6,239.8z"/>
<path class="st35" d="M192.7,236.8c0-0.2,0-0.4,0-0.6l0.7,0.6C193.2,236.7,192.9,236.8,192.7,236.8z"/>
<path class="st36" d="M108.8,59.1c-3.3-3.2-3.3-3.2,0.8-5.8c0.6-0.5,1.1-1,1.5-1.6c1.5-0.7,3.1-1,4.8-0.8c8.3,1.4,14.5-3.3,20.4-7.8
	c4.5-3.4,9.4-4.6,14.5-6.2c5.6-1.8,11.2-2.8,16.5-1.7c7.4,1.6,15.6,1.7,21.7,7.7c1.2,1.1,2.6,1.9,4.2,2.4c1.7,0.5,3.2,1.6,4.1,3.1
	c5.1,7.7,10.9,15.1,9.7,25.2c-0.5,4.6,1.3,7.2,5.5,9.5c3.8,2.1,6.6,6.1,9.8,9.3c0.8,0.8,0.6,1.9,0.6,2.9c0,4.2,0,8.3,0,12.5
	c0,1.5-0.3,3-1,4.3c-1.6,3.1-2.1,6,0.4,9.1c1.9,2.3,0.1,5.1-0.1,7.6c-1.2,2.9-3,5.2-6,6.3c-4.2,1.5-5.7,5.3-7.6,8.9
	c-0.3,0.2-0.5,0.5-0.7,0.7l0,0c-2.1,0.8-2.4-1-2.5-2.2c-0.5-5.8-3.4-11.2-8.1-14.6c-1.8-1.3-1.7-3.5-1.7-5.5
	c0-5.2,0.1-10.4-0.1-15.7c-3-0.3-5,6.4-8.1,0.8c0.9-1.1,2-2-0.1-3.3c-5-3.1-10.4-4.2-16-4.6c-1.4-0.1-2.3,0.8-3.2,1.7
	c-1.2,1.1-2.5,2.1-4.4,1.3c-0.3-0.2-0.4-0.5-0.5-0.9c1.2-1.7,0.1-2.7-1.2-3.7c-2.4-1.8-4.9-3.6-6.3-6.3c-3.4-4.5-6.3-9.4-8.6-14.5
	c-0.2-0.4-0.5-0.9-0.7-1.3c-2.4-5.9-2.4-5.9-8.6-3.9c-3.1,1-6.3,1.4-9.4,2.8c-2.1,1.1-4.7,0.4-6.1-1.5c-1.8-2.4-4.7-3.7-6.2-5.9
	C113.8,64.2,110.9,62.1,108.8,59.1z"/>
<path class="st37" d="M156.4,91.6c1.9,2.9,4.8,4.7,7.5,6.8c2.2,1.7,1.6,2.5-0.7,3.1c-0.3,0.4-0.7,0.7-1.1,1.1
	c-0.8,0.9-2,1.9-0.8,3.2c1,1.1,2.3,0.8,3.4-0.1c3.2-2.5,6.7-2.3,10.4-1.4c3.4,0.8,6.6,2.4,10.2,2.5c0.6,0,1.2,0.3,1.7,0.8
	c2.1,2.4,4.1,3.9,5.9-0.4c0.4-0.7,1.2-1,1.9-0.6c0,0,0.1,0,0.1,0c0.9,0.5,1.4,1.5,1.2,2.5c-0.4,3.6-0.5,7.3-0.3,10.9
	c0.6,7.9,1.3,15.7,1.1,23.6c0,1.1,0.5,2.3-0.4,3.2h-0.8c-3.9-3.4-7.4-7.2-11-11c-1.2-1.1-1.3-3-0.2-4.2c0,0,0.1-0.1,0.1-0.1
	c1.2-1.1,2.5-2.1,3.8-3c1.5-1.1,2.2-2.4,1.3-4.1c-0.8-2.6-3-0.1-4.2-1.1c-0.2-4.2-2.6-6.7-6.5-7.6c-4.4-1.1-8.1,0.6-11,3.9
	c-2.2,0.5-2.8-1.4-3.5-2.6c-1.6-3-4-5.5-7-7.2c-1.9-1.1-3-3-4.4-4.6c-8.4-8.7-17.7-16.7-25.4-26.1c-1.1-1.4-3.9-0.9-3.7-3.5
	c1.2-0.8,2.6-0.2,3.8-0.8c4.3-2.8,9.5-2.7,14.2-4.1c1.7-0.5,3.4,0.5,3.9,2.1c0,0.1,0.1,0.3,0.1,0.4C147.8,80.2,151.9,86,156.4,91.6z
	"/>
<path class="st34" d="M196.5,146.8c-0.6-1.9-0.8-3.9-0.8-5.9c0.4-7.8-0.5-15.5-0.7-23.3c-0.2-2.4-0.1-4.8,0.5-7.1
	c0.4-1.2,0.7-3.2-1.2-3.4s-1.5,1.6-1.6,2.8c-0.1,1.9-1.3,3-2.5,1.3c-3.7-5-9.8-3.9-14.5-5.9c-3.6-1.5-7.6-1.9-10.9,1.5
	c-1.1,1-2.7,1-3.9,0.1c-1-0.6-1.7-1.5-1.3-2.8c0.6-1.7,1.5-3,3.5-2.7v0.7c0,0.2-0.1,0.3-0.1,0.5c-0.2,0.7-0.7,1.5,0.2,2
	s1.5-0.5,2.3-0.8c0.8-0.5,1.7-0.8,2.7-1c6.6-0.9,12.6,1.7,18.7,3.5l0.4,0.5c1.8,3.4,3.3,1.7,5-0.1c0.8-0.8,1.5-2.4,3-1.8
	s1,2.1,1,3.4c0,5,0,10,0,15.1c0,1.5-0.1,3.1,1.4,4c5.4,3.3,7.6,8.4,8.3,14.4c0.1,1.2-0.2,2.7,1.6,2.9c-1.6,2-4.3,2.9-5,5.8
	c-0.3,1.3-1.6,0.7-2.4-0.1C199,149.1,197.7,148,196.5,146.8z"/>
<path class="st38" d="M185.1,131.6c-1.3,1.9-0.2,3.1,1.1,4.6c3.2,3.5,7.4,6.2,9.5,10.6c0.1,1.3-0.1,2.5-1.5,3.1l0,0
	c-0.2-0.3-0.5-0.5-0.8-0.8c-3.4-2.9-6.5-6.2-9.4-9.6c-2.6-3.4-5.8-6-10.5-5.5c-0.8,0.1-1.5-0.1-2.1-0.7c1-1.2,2.4-0.9,3.7-1.4
	c0.7-0.2,1.5-0.2,2.2,0C180,133.8,182.5,131.1,185.1,131.6z"/>
<path class="st39" d="M197.2,159.7c-1.4,0-2.7-0.2-2-2.1s0.3-3.7,0.5-5.5C200,154,200.4,156,197.2,159.7z"/>
<path class="st34" d="M207.8,144.5l0.7-0.7L207.8,144.5z"/>
<path class="st19" d="M174.5,214.1c0-1.3,0.2-2.4,1.5-3c-0.3,1-0.5,2-0.8,3H174.5z"/>
<path class="st19" d="M176.1,211.1l0.7-0.8L176.1,211.1z"/>
<path class="st40" d="M98.4,62.2c1.3-0.3,2.3-1.2,2.9-2.4c1-0.7,2.3-0.5,3,0.4c2.9,3,6,5.7,9.4,8c2,1.3,2.7,4.1,4.9,5.6
	c0.3,0.2,0.5,0.4,0.8,0.6c0.2,0.2,0.5,0.4,0.7,0.7c0.2,0.2,0.4,0.5,0.5,0.8c0.1,0.3,0.1,0.6,0,0.9c-0.1,0.3-0.2,0.5-0.5,0.7
	c-0.3,0.1-0.5,0.3-0.7,0.5l0,0c-6.9,3.8-13.1,8.9-18.1,15l-0.5,0.9c-0.1,0.3-0.3,0.6-0.5,0.8l-0.3,0.4l-0.7,0.8L99,96.3
	c-0.3,0.5-0.5,1-0.6,1.6c-2.2,4.4-1.4,9.1-1.4,13.7c0,3.8,0.1,7.5,0,11.3c0,2.6-1.1,5-3.1,6.6c-1,0.8-2.1,1.6-3.2,0.1l-2.2-3.1
	c-2.1-4.4-2.5-8.6,0.8-12.6c1.5-1.9,0.2-3.5-1.1-4.6c-4.9-4.3-5.3-9.3-2.8-14.9c1.2-2.3,1.7-4.8,1.6-7.3c-0.2-1.2,0.2-2.3,1-3.2
	c5.2-4.4,6.1-10.7,8.1-16.5C96.7,65.6,97.5,63.9,98.4,62.2z"/>
<path class="st41" d="M119.4,75c-1.5-0.1-2.9-1.1-3.5-2.5c-2.7-4.7-7.8-6.8-11-10.9c-0.7-1.2-2.1-1.9-3.5-1.7c0-0.2,0-0.5,0-0.7
	c2.1-0.5,3.5,0.7,4.8,2.1c1.5,1.8,3.3,3.4,5.3,4.6c0.7,0.4,1.3,0.9,2,0.2s-0.1-1.3-0.5-1.8c-1.3-1.8-3.7-2.7-4-5.2
	c2.3,2.2,4.8,4.1,6.8,6.7c2.3,2.9,5.8,4.9,8.3,7.9c1.1,1,2.7,1.1,3.9,0.3c3.4-2.2,7.4-2.2,11-3.5c5.3-1.9,5.9-1.1,8,4.1
	s4.5,10.3,8.2,14.5c0.7,0.8,1.4,1.4,1.4,2.6c-3.8-2.9-6.1-6.9-8-11.1c-1.1-2.3-2.9-4.3-2.9-7.2c0-1.8-2.1-2.6-3.8-2
	c-4.6,1.5-9.7,1-14,3.7c-2.9,1.2-6.2,0-7.8-2.7c-0.8-1.1-1.5-2.4-3.1-2.5C117,71.9,120,72.5,119.4,75z"/>
<path class="st42" d="M90.7,129.4c3.1-0.2,5.2-2.6,5.3-6.3c0.1-4.3,0-8.6,0-12.9c0-4.9-0.5-9.8,2.3-14.2c0.2-0.3,0.5-0.5,0.7-0.7
	l0,0c0.2-0.3,0.5-0.5,0.7-0.8l0,0c0.3-0.2,0.5-0.5,0.7-0.8l0,0c0.1-0.2,0.4-0.3,0.7-0.1c0,0,0.1,0.1,0.1,0.1c-4.2,6-3.2,12.7-3,19.4
	c0.1,5.7,0.1,11.4-1.1,17.1c-0.7,2.7-0.7,5.5,0.1,8.2c0.8,2.3-0.6,4.2-0.5,6.3c0.3,3.7,0.5,7.5,0.7,11.2c0,1.2,0.4,2.7-1.5,2.9
	c-1.2-1.6-2.3-3.3-4.5-3.8l-0.8-0.7c-0.3-0.3-0.5-0.5-0.7-0.8c0.3-7-1.1-14,1.3-20.9C91.7,131.5,90.7,130.6,90.7,129.4z"/>
<path class="st33" d="M87.7,378.2c-2.3-0.1-4-1.5-6.1-2.2c0.7-0.9,0.8-1.8-0.6-1.6c-6.8,0.8-13.8-0.8-20.4,1.3c-1,0.3-3.6,0-2.3,2.6
	c-4,2.3-8.6,3.8-11.5,7.8c-0.3,0.5-1.4,0.4-2.1,0.5c-0.3-4.3,0-8.6,0.8-12.8l0,0c0.2-0.3,0.4-0.6,0.7-0.8c1.7-5.9,1.8-11.9,1.2-17.9
	c-0.1-1.2-0.4-2.5-0.4-3.7c0-18.6-0.3-37.3,0.1-55.9c0.1-6.1,0.2-12.2,0-18.4c-0.2-6.7,3.7-12.4,7.8-17.5c5.1-6.3,12-9.8,20.2-11
	c2.7-0.4,5.5-1.2,7.2-3.7c1.1-1.6,2.9-1.3,4.4-1.6c4.1-0.8,6.7-4.1,10.2-6c2.6-1.6,5.8-2.1,8.8-1.4c1.3-0.5,2.2,0.3,3.1,0.9
	c7.1,4.5,15,7.6,23.3,9c4.3,0.7,5.8,2.3,5.8,6.5c0,9.7,2.1,19.1,2.9,28.7c0.3,3.1-0.3,6.3,0.5,9.4c0,5.5,1.8,10.9,1.6,16.5
	c0.1,1.8-0.5,3.5-1.6,4.9c-4.9,5.6-7.5,12.8-12.2,18.6c-1.4,1.8-0.6,3.5,0.5,5.2c3.1,5.2,6.6,10.1,9.6,15.3c1.2,2.1,2.9,1.4,4.5,1.5
	c1.4,3.6,2.6,7.3,2.5,11.2c-0.1,3.2,0.5,5.9,3.2,8c-3.7-3.9-3.4-8.4-2.2-13.1c0.3-0.3,0.6-0.4,1-0.4c1.4,6.7,2.8,13.3,9.5,16.9
	c1.5,0.7,2.7,1.8,3.6,3.2c0.1,0.4,0,0.7-0.1,1.1c-0.6,0.8-1.5,1.1-2.5,1c-0.5-0.5-1-1-1.5-1.5c-1.1-2.1-3.1-2.1-5.1-2.5
	c-4.7-0.7-9.2,0.5-13.8,0.5c-14.9,0-29.9,0-44.8,0C91.4,377.1,89.3,376.3,87.7,378.2z"/>
<path class="st43" d="M140.5,291.3c0.5-9.6-1.9-18.9-2.5-28.4c-0.2-3.1-0.4-6.3-0.5-9.4c-0.3-4.6-1.4-5.9-5.9-6.7
	c-9.4-1.5-18.3-5.2-25.9-10.8l0.1-0.9c1.5-1.4,3.1-2.9,4.6-4.4c0.9,0.1,2-0.1,2.6,0.3c6,4.2,13,6.6,19.3,10.2
	c3.5,1.8,5.7,5.4,5.9,9.3c0.3,12.4,2.6,24.6,3.6,37c0.8,9.7,2.1,19.4,2.6,29.1c-3-1-2.1-3.7-1.9-5.5
	C143,304.4,141.4,297.9,140.5,291.3z"/>
<path class="st25" d="M46.1,372.9l-0.7,0.8c0-0.3,0-0.5,0-0.8L46.1,372.9z"/>
<path class="st44" d="M161,378.9c-4.2-3.7-9.4-6.5-11.4-12.4c-0.9-2.6-1-5.3-1.5-8c-1.3-4.7-1.6-9.5-2.3-14.3
	c-0.1-0.9,0.3-1.8,1-2.3c2,2.8,2.1,6.1,2.1,9.3c0,5.4-0.1,10.7,2.2,15.8c0.6,1.5,1.4,2.9,2.5,4.1c3.6,3.7,4,3.7,7.4-0.1
	c7.4-8.4,20.7-10,29.8-2.9c2.7,2.2,5.1,4.7,7.1,7.6c0.6,0.9,1.1,1.7,2.3,1.7c0,2.3-1.9,3.9-2.1,6.1c-1.2,2.5-3.9,3.7-5.4,6
	c-1.2,0.1-2.4,0.4-3.6,0.8c-3.9,2-8.6,1.8-12.3-0.5c-0.5-0.1-1-0.2-1.5-0.2C169.7,387.1,165.2,383.2,161,378.9z"/>
<path class="st45" d="M146.7,342c-0.5,5.6,2.4,11,1.3,16.6h-0.6l-0.4-0.4c-0.8-1.5-0.4-3.2-0.6-4.8s-0.7-2.6-2.3-1.1l-0.5,0.2
	c-1.8,3-3.5,2.1-5-0.2c-3.6-5.8-7.2-11.7-10.9-17.5c-1.1-1.5-0.9-3.5,0.4-4.8c4.1-4.7,5.9-11.2,10.1-15.6c5.4-5.5,3.6-11.4,2.6-17.5
	c-0.2-1.9-0.3-3.7-0.3-5.6c1.4,4.6,2.2,9.4,2.3,14.2c0.1,3.8,0.1,7.6,1.5,11.2C145.2,325.1,145.3,333.6,146.7,342z"/>
<path class="st46" d="M198,383.5c-0.5-2.5,1-4.2,2.1-6.1c1.3-7.8,2.1-15.7,0.1-23.5c-1.9-7.2-4.1-14.2-6.6-21.3
	c-1.4-3.9-2.7-8-3.8-12c-1.2-4.4-2.6-8.8-4.2-13c-1.5-4.1-2.6-8.3-3.5-12.5c-0.9-3.9-3.6-7.3-3.1-11.5c1.5,2.9,1.8,6.4,3.8,9.1
	c0.9,0.5,1.5,1.4,1.7,2.4c2.6,8.1,5.3,16.3,7.6,24.5c-0.3,2.5,1.5,4.3,2,6.5c1.3,5.8,3.1,11.4,5.5,16.8c2.8,8,5.5,16.1,4.7,24.9
	c-0.3,3.2-0.7,6.2-2.6,8.8C200.3,378.9,199.8,381.5,198,383.5z"/>
<path class="st34" d="M169.3,255c1.3,1.5,2.6,3,2.2,5.2C170.7,258.5,169,257.1,169.3,255z"/>
<path class="st34" d="M172.3,264.1c0.9,0.7,1.5,1.8,1.4,2.9C172.4,266.4,172.2,265.3,172.3,264.1z"/>
<path class="st34" d="M174.6,271.6c0.9,0.7,1.4,1.8,1.5,2.9C174.7,274,174.5,272.9,174.6,271.6z"/>
<path class="st34" d="M171.6,261c1,0.8,0.7,1.9,0.7,3C171.2,263.2,171.6,262.1,171.6,261z"/>
<path class="st34" d="M168.5,250.5c0.8,0.5,0.7,1.3,0.6,2.1C168.4,252,168.5,251.2,168.5,250.5z"/>
<path class="st34" d="M173.9,267.8c0.6,0.6,0.8,1.4,0.6,2.2C173.7,269.4,173.8,268.6,173.9,267.8z"/>
<path class="st34" d="M176.9,278.4c0.6,0.6,0.9,1.4,0.6,2.2C176.7,280.1,176.8,279.2,176.9,278.4z"/>
<path class="st34" d="M176.1,274.6c0.5,0.3,0.7,0.9,0.6,1.4C176.2,275.7,176,275.2,176.1,274.6z"/>
<path class="st47" d="M175.3,132.5c-1.1,1.2-2.5,0.5-3.8,0.7l-2.2-0.1l-0.8-0.7l0,0c-0.4-0.5-1.1-0.3-1.5-0.8l-0.8-0.1
	c-0.3-0.2-0.5-0.5-0.8-0.7c-0.2,0-0.5,0-0.7,0c-0.2-0.3-0.5-0.5-0.8-0.8l0,0c-0.2-0.3-0.5-0.5-0.8-0.8l0,0c-0.2-0.3-0.5-0.5-0.8-0.7
	c-3-2.3-1.1-4.7,0.3-6.5c1.6-2.1,1.1-3.2-0.5-4.8c-5.3-5-10.7-10-15.6-15.2c-6.2-6.5-12.8-12.8-18.9-19.4c-1.7-1.9-4.8-2.5-5.3-5.6
	c-0.3-1.3,0.3-1.7,1.5-1.5c3.7,0.5,5,3.8,7.2,6c6.3,6.4,12.6,12.8,19.1,19.1c3.3,3.2,6,6.9,10,9.4c3.5,2.2,4.7,6.4,7.4,9.2
	c0.1,0.1,0.2,0.3,0.3,0.5c0,0.3-0.3,0.7-0.6,0.8c-0.4,0.3,0.1-0.1-0.3,0.2c-2,1.4-4.3,3.2-3.3,5.6c1.1,2.6,3.9,3.9,6.6,3.1
	C172.4,129.8,174.5,130,175.3,132.5z"/>
<path class="st48" d="M150.4,149.8c-1.9,3.1-4.3,3-7,1c-5.7-4.3-6.7-6.7-2.8-12.4c2.1-3.1,2.5-7.1,4.8-10.2c0.5-0.6,0.9-1.4,1.7-1.3
	s0.9,1,1.2,1.7c1.6,4,3.2,8.1,4.8,12.1C155,145.7,154.9,146.3,150.4,149.8c-1.2-1.8,0.9-2.6,1.1-4.4c-2,0.3-2.9,2.5-4.7,2.5
	c-2.1,0.1-3-2.2-5.7-2.8c1.4,3,3.3,4.1,5.8,4.3C148,149.5,149.3,148.8,150.4,149.8z"/>
<path class="st49" d="M172.3,161.4c-0.9,2-2.5,2.4-4.2,1.4c-3.9-2.4-8.2-2.7-12.6-2.4c-8.1,0.5-14.7,4-20.6,9.3
	c-0.7,0.6-1.3,1.2-1.9,1.8c-0.9,0.9-1.8,1.5-2.9,0.4c-0.9-0.8-0.9-2.2-0.1-3.1c0.1-0.1,0.2-0.2,0.3-0.2c2.6-2.3,5.4-4.5,8.2-6.5
	c7.4-5.4,15.9-6,24.6-5.4c3.4,0.2,5.5,3.3,8.7,3.8C171.9,160.4,172,161,172.3,161.4z"/>
<path class="st50" d="M130,101.4c2.1-0.3,2.8,1,3.3,2.7c0.4,1,0,2.1-0.8,2.6c-1.6,1.3-2.8,0.2-4.1-0.6c-6.3-3.6-16.8-2.2-22.4,2.7
	c-1.2,1.1-2.7,4.1-4.7,2.3s0.5-3.6,1.5-5.2c3.5-5.2,8.7-7.2,14.6-7.6C121.8,98.1,126.4,97.8,130,101.4c-1.8,1.6-3.5,0.5-5.3-0.2
	c-6.8-2.3-14.4-0.4-19.3,4.8c8.1-5.3,16.4-4.2,24.7-2.1C130.5,103.1,129.4,102.3,130,101.4z"/>
<path class="st51" d="M111.1,129.5c-1.2,2-3,1.9-4.4,0.8c-2.3-1.6-4.6-3.6-3-7c0.2-0.2,0.4-0.5,0.6-0.7l0.1-0.1
	c0.8-0.4,1.3-1.1,2.1-1.5c1-0.4,2.2-0.9,3.1,0s0.1,1.8-0.5,2.6c-0.7,0.9-0.8,2.1-0.2,3.1c0.3,0.4,0.6,0.7,0.9,1
	c0.3,0.2,0.5,0.4,0.7,0.6c0.2,0.2,0.4,0.5,0.5,0.7L111.1,129.5z"/>
<path class="st52" d="M108.1,120.1c-0.8-0.9-2.9-0.3-2.6-2.1c0.2-1.1,1.8-1.1,2.8-1.4c1-0.2,1.9-0.6,2.7-1.1
	c4.9-3.3,11.6-2.3,15.3,2.3c0.5,0.7,0.7,1.6,0.7,2.5l-0.4,0.2c-0.8-0.2-1.2-0.9-1.8-1.4c-0.2-0.2-0.4-0.4-0.6-0.6l-0.7-0.5
	c-0.3-0.1-0.5-0.3-0.8-0.4c-0.4-0.2-0.9-0.4-1.3-0.7c-3.6-2.3-6.7-0.6-10.1,0.8c-1.9,0.8,0,2.4-1.2,3
	C109.3,120.6,108.5,121,108.1,120.1z"/>
<path class="st53" d="M123.9,75.8c-0.7,0.2-1.3,0.8-1.5,1.5l-2.2,0.7c-0.2-0.2-0.3-0.3-0.2-0.5s0.1-0.3,0.2-0.3l0,0
	c0.4-0.4,0.5-1,0.1-1.4c0,0-0.1-0.1-0.1-0.1l0,0c-0.3-0.3-0.5-0.5-0.8-0.8l0,0c-1.2-1.3-2.3-2.6-3.5-3.9c-0.6-0.7-1.3-1.4-0.7-2.3
	c0.8-1.1,1.9-0.3,2.6,0.2c0.9,0.5,1.6,1.2,2.2,2c1.7,3,4.2,4.5,7.7,4.1C126.6,76.2,125.2,75.5,123.9,75.8z"/>
<path class="st41" d="M101.3,93.9h-0.8c4.9-7,10.8-12.8,18.9-15.8c-2.3,3.2-6.3,4.3-9.1,6.9C107.1,87.8,104.1,90.7,101.3,93.9z"/>
<path class="st54" d="M108.1,120.1l2,0.1c0.6-0.4,1.3-0.6,2-0.4c0.3,0.1,0.7,0.3,0.9,0.5c1.5,1.7,0.5,3-0.8,4.1
	c-1,0.8-2.1,1.3-2.6,2.6c-0.1,0.3-0.3,0.6-0.5,0.9l-0.4,0.2c-2.6-2.3-1.3-4.2,0.6-6.2c-2-1.8-3.3,1-4.9,0.7
	C105,120.8,106.5,120.4,108.1,120.1z"/>
<path class="st55" d="M127,120.3c2.6-0.7,3,1.4,3.7,3c1.8,3.6,1,5.3-3.4,7.1c-1.1-1-0.1-1.8,0.4-2.6c0.7-1,1.5-2,1-3.5
	c-1.1,0.6-1.5,2.4-3.1,2.1c-0.9-0.8-0.5-1.6-0.1-2.4c0.3-0.6,0.5-1.3,0.6-1.9c0.1-0.7,0.4-1.3,0.8-1.8L127,120.3z"/>
<path class="st56" d="M117.1,131.7c-2.2-0.2-4.2-1-6-2.2l-0.1-0.1c-0.1-0.2-0.1-0.3-0.2-0.5c0.1-0.3,0.4-0.6,0.8-0.7
	c3.6,1,7.3,1.5,10.7-0.8c0.4,0,0.7,0.1,1,0.3c0.2,0.3,0.2,0.7,0.1,1c-0.2,0.5-0.5,1-0.9,1.4C120.9,131.4,119.4,132.8,117.1,131.7z"
	/>
<path class="st57" d="M117.1,131.7c2-0.3,3.8-1.1,5.4-2.3c0.1,0.1,0.2,0.3,0.3,0.4c0.3,1.4-0.8,1.8-1.8,2.4c-0.4,0.1,0.3,0.5,0,0.1
	c-0.1-0.1,0-0.1,0.3-0.2c0.8-0.4,1.7-0.4,2.4,0l0.3,0.4C121.6,133.3,119.1,134.4,117.1,131.7z"/>
<path class="st57" d="M127,130.2c3.3-1.2,5.3-3,3.8-6.8c2.8,3.3,1.3,6.4-3.8,7.6l-0.3-0.2v-0.3L127,130.2z"/>
<path class="st57" d="M127,131c-0.6,0.8-1.4,0.7-2.3,0.8l-0.1-0.5C125.2,130.2,126,130.3,127,131L127,131z"/>
<path class="st38" d="M167,131.7c0.6-0.1,1.2,0.2,1.5,0.8C167.9,132.5,167.3,132.2,167,131.7z"/>
<path class="st38" d="M162.4,128.7l0.8,0.7L162.4,128.7z"/>
<path class="st38" d="M163.2,129.4l0.8,0.8L163.2,129.4z"/>
<path class="st38" d="M164,130.2l0.8,0.8L164,130.2z"/>
<path class="st38" d="M165.4,130.9l0.8,0.7L165.4,130.9z"/>
<path class="st57" d="M124.7,131.7c-0.3,0.2-0.5,0.5-0.8,0.7l-0.1-0.1C123.8,131.8,124,131.5,124.7,131.7L124.7,131.7z"/>
<path class="st38" d="M168.5,132.4l0.8,0.7L168.5,132.4z"/>
<path class="st21" d="M193.4,149.1l0.8,0.8L193.4,149.1z"/>
<path class="st54" d="M104.2,122.6l-0.6,0.7L104.2,122.6z"/>
<path class="st41" d="M120.2,77.2V78h-0.8L120.2,77.2z"/>
<path class="st58" d="M87.7,378.2c-0.7-3,1.5-2.2,2.9-2.2c7.5-0.1,15.1,0,22.6,0h26c2.3,0,4.7-1,6.5-0.8c3.7,0.3,7.8-1,11.1,1.8
	c0.7,0.6,1.4,1.2,0.3,2.1c-1.7-0.5-3.4-0.8-5.2-0.8c-11.7,0.1-23.4-0.3-35,0.2c-7.8,0.4-15.5,0.4-23.3,0.6
	C91.6,379.1,89.6,378.8,87.7,378.2z"/>
<path class="st59" d="M58.3,378.3c-0.9-0.3-2.3,0.5-2.6-0.8s1.2-1.3,2-1.7c3.4-2,7.1-2.1,10.9-2.1c4.5-0.1,8.9-0.3,13.4-0.2
	c0.9,0,2.7-0.3,2.6,1.4s-1.8,0.8-2.8,1.1h-1.5c-7.1-0.2-14.5-2-21.1,2.3C58.8,378.2,58.5,378.3,58.3,378.3z"/>
<path class="st58" d="M158.6,380.5c0.5-0.9,1.4-0.8,2.3-0.8l0.4,0c0.2,0.1,0.4,0.2,0.6,0.4l0.3,0.3c0.2,0.2,0.3,0.3,0.5,0.5
	c0,0,0.3,0.3,0.3,0.3c0.2,0.2,0.3,0.3,0.5,0.5l0.3,0.2c0.2,0.2,0.4,0.3,0.5,0.5c0,0,0.3,0.3,0.3,0.3l0.5,0.5c0,0,0.3,0.2,0.3,0.2
	l0.6,0.4c0.2,0.1,0.4,0.2,0.6,0.4c0.2,0.1,0.4,0.3,0.6,0.5l0.3,0.3l0.6,0.5c0.1,0.1,0.2,0.2,0.3,0.2l0.7,0.4c0.5,0.3,0.9,0.6,1.4,1
	c0.2,0.2,0.4,0.4,0.6,0.5l0.3,0.3c0.3,0.1,0.5,0.3,0.7,0.4c0.5,0.3,1,0.6,1.5,0.9c0.4,0.2,0.7,0.4,1.1,0.7c0.2,0.2,0.4,0.4,0.6,0.6
	l0,0c0.6,2.6-0.9,1.9-2.3,1.5C166.9,389.8,162.7,385.3,158.6,380.5z"/>
<path class="st60" d="M173.8,389.7l-2.2-0.9c-0.3-0.3-0.5-0.5-0.8-0.8l0,0l-0.8-0.7l-1.5-0.8c-0.3-0.2-0.5-0.5-0.8-0.7l0,0
	c-0.3-0.2-0.5-0.5-0.8-0.7l0,0c-0.2-0.3-0.5-0.5-0.8-0.7l-0.7-0.1c-0.3-0.3-0.5-0.5-0.8-0.8l0,0l-0.8-0.8l0,0
	c-0.3-0.3-0.5-0.5-0.8-0.8l0,0c-0.2-0.3-0.5-0.5-0.8-0.7l0,0c-0.2-0.3-0.5-0.5-0.8-0.8l0,0c-0.2-0.3-0.5-0.5-0.7-0.7l0,0
	c0-0.3,0-0.5,0-0.8c5.1,3,9.5,7.2,14.3,10.6c0,0.3,0,0.5,0,0.8h-0.7C174.4,390.1,174.1,389.9,173.8,389.7z"/>
<path class="st60" d="M173,391.9c1-0.1,2.2,0,2.3-1.5c3.4,2.5,7.4,2.5,11.3,2.8C181.9,394.6,177.4,394.5,173,391.9z"/>
<path class="st33" d="M59,378.2c2.2-2.6,5-3.4,8.3-3c4.3,0.5,8.6-0.9,12.8,0.8C73,376.1,65.8,375.1,59,378.2z"/>
<path class="st61" d="M183.6,239.8c1.5,0.3,2.6-0.6,3.6-1.4c1.5-1.3,3.5-1.9,5.5-1.6c0.4,0.9,1.2,2.2-0.6,2.1
	c-2.1,0-3.2,1.2-4.7,2.5c-3.6,3.1-7.6,5.7-12.6,6c-1.9,0.1-2.3,0.9-1.6,2.7c2.1,5.2,5,10.2,5.3,16.1c0,0.7,0.9,1.5,1.5,2.1
	c1,1,2.3,2.3,2,3.5c-1.6,7,3.1,12.5,4.4,18.7c0.9,3.6,2,7.2,3.4,10.6c0.9,1.9,1.4,4,1.4,6.1c0,0.9-0.1,2.1,0.4,2.5
	c4,3.8,2.8,9.4,5.1,13.6s0.9,9.3,4.7,12.6c0.3,0.2,0.6,0.7,0.5,1c-1.3,3.9,2.6,6.7,2.2,10.4c-0.1,1,0.2,2,0.8,2.8
	c4.2,4.4,3.1,9.9,3.7,15.1c0,0.3,0,0.5,0,0.7c-0.9,1.1,0.1,2.6-0.7,3.8c0,0.2,0,0.5,0,0.7c-0.3,0.2-0.5,0.5-0.7,0.8l0,0
	c-0.5,0.4-0.3,1.1-0.8,1.5c0,0.5,0,1,0,1.5c-0.4,0.4-0.3,1.1-0.7,1.6l-0.1,1.5c-0.3,0.2-0.5,0.5-0.7,0.8l0,0
	c-0.3,0.2-0.5,0.5-0.8,0.8c-0.8,4.6-4,7.2-7.6,9.6c2-3.4,4.5-6.5,5.3-10.4c1.1-4.6,2.3-9.1,2.4-13.9c0.2-6.5-2.1-12.2-4-18.1
	c-0.9-2.8-0.9-6-2.8-8.5c-0.2-0.3-0.4-0.6-0.6-1c-0.5-1-0.1-2.2-0.7-3.2c-0.2-0.5-0.4-1-0.4-1.5c-0.1-1.9-1.3-3.3-1.7-5
	c-0.1-0.3-0.2-0.6-0.3-0.9c-0.4-0.9-0.2-1.9-0.6-2.7c-0.2-0.3-0.3-0.6-0.4-0.9c-0.3-0.9-0.7-1.8-1.1-2.8c-0.1-0.4-0.1-0.7-0.1-1.1
	c-2.6-8.4-4.9-16.9-7.9-25.1c-0.9-2.5-0.1-5.5-2.3-7.7l0,0c-0.9-1.1,0.2-2.7-0.8-3.8l0,0c-0.8-0.9,0.1-2.2-0.8-3l0,0
	c-0.2-0.3-0.5-0.5-0.8-0.8l0,0l-0.7-0.8l-0.1-2.2c-0.5-2.1-0.2-4.6-2.3-6.1l0,0c-0.9-1.1,0.2-2.7-0.8-3.8l0,0
	c-0.3-2.4-1.7-4.5-2.3-6.8l0,0c-0.1-3.3-2.3-6-3-9.1c0-0.2,0-0.5,0-0.7c-0.5-1-0.5-2.1,0-3.1l0,0c0.3-0.2,0.5-0.5,0.8-0.7
	c0.2-0.1,0.5-0.1,0.7-0.1c1.2-0.8,2.7,0.2,3.8-0.8l0,0c2.6-1.9,6.1-2.1,8.3-4.6L183.6,239.8z"/>
<path class="st33" d="M197.2,336.6c1,0.5,2.3,1.3,2.1,2.4c-0.6,4.3,2,7.6,3.1,11.4c1.5,5.3,2.7,10.4,2.5,16
	c-0.1,4.1-1.2,8.2-3.1,11.8c0-0.5,0-1-0.1-1.6c-0.1-3,1.5-5.7,1.7-8.8c0.4-7.4-1.2-14.3-3.7-21.2c-0.4-1.3-0.7-2.7-1-4
	C198.9,340.5,196.3,339,197.2,336.6z"/>
<path class="st33" d="M207.8,369.9c0.2-1.3-0.5-2.7,0.7-3.8C208.4,367.4,209,368.8,207.8,369.9z"/>
<path class="st33" d="M206.3,373c-0.1-0.6,0.2-1.2,0.8-1.5C207.1,372.1,206.8,372.7,206.3,373z"/>
<path class="st33" d="M205.6,376c-0.1-0.6,0.2-1.2,0.7-1.6C206.3,375,206,375.6,205.6,376z"/>
<path class="st33" d="M207,371.4l0.7-0.8L207,371.4z"/>
<path class="st33" d="M204.8,378.2l0.7-0.8L204.8,378.2z"/>
<path class="st33" d="M204,379l0.8-0.8L204,379z"/>
<path class="st33" d="M181.3,286c1.1,0.4,1.9,1.4,2,2.6c-0.2,4.1,2.5,7.4,3.2,11.3c1.1,5.5,3.2,10.8,4.9,16.1
	c0.4,1.3,0.5,2.7,0.5,4.1c-0.1,0.2-0.4,0.3-0.6,0.1c0,0-0.1-0.1-0.1-0.1l-8.3-27.2C183.4,290.3,181.8,288.2,181.3,286z"/>
<path class="st33" d="M170,249.6c1.7,2.8,3.4,5.6,3,9.1C172.2,255.6,169.8,253.1,170,249.6z"/>
<path class="st33" d="M183.6,239.8c-1.8,3.2-5.4,3.4-8.3,4.6C177.5,241.8,180.9,241.5,183.6,239.8z"/>
<path class="st33" d="M173,258.7c1.4,2,2.7,4.1,2.3,6.8C174.2,263.4,172.8,261.3,173,258.7z"/>
<path class="st33" d="M176,269.3c2.9,1.3,2.3,3.8,2.3,6.1C177.5,273.4,176.8,271.4,176,269.3z"/>
<path class="st33" d="M175.3,265.5c1.3,1,0.6,2.5,0.8,3.8C174.9,268.3,175.4,266.8,175.3,265.5z"/>
<path class="st33" d="M175.3,244.3c-1.1,1.3-2.5,0.6-3.8,0.8C172.6,244,174,244.5,175.3,244.3z"/>
<path class="st33" d="M180.6,282.2c1.3,1,0.6,2.5,0.8,3.8C180.2,284.9,180.7,283.5,180.6,282.2z"/>
<path class="st33" d="M170,245.9c0,1,0,2.1,0,3.1c-0.9-0.7-1-2-0.3-2.8C169.8,246,169.9,245.9,170,245.9z"/>
<path class="st33" d="M179.8,279.2c1.2,0.8,0.7,2,0.8,3C179.5,281.4,179.9,280.2,179.8,279.2z"/>
<path class="st33" d="M170.8,245.1l-0.8,0.7L170.8,245.1z"/>
<path class="st33" d="M178.4,277.6l0.7,0.8L178.4,277.6z"/>
<path class="st33" d="M179,278.4l0.8,0.8L179,278.4z"/>
<path class="st62" d="M167.8,103.7l-2.3,0.8c-1,0.4-2,1.9-3.1,0.5c-0.7-1-0.2-2.1,0.8-2.8l0,0c1.2,0.1,2.5,0,3.2-0.9
	c4.1-5.5,9.2-2,13.7-1.3c3.1,0.4,6,1.8,8.4,3.9c0.7,0.7,2.6,0.5,2.1,2.1s-2,0.9-3.2,0.8l0,0c-4-0.9-7.9-2.5-12-3.2
	C172.8,103.1,170.3,102.6,167.8,103.7z"/>
<path class="st63" d="M200.8,79.1c0.3,2.3-0.1,3.2-1.4,3.8c-1,0.4-2.1-0.1-2.5-1c0,0,0,0,0-0.1c-1.3-2.4-2.4-4.8-3.4-7.4
	c-0.3-0.9,0.1-1.8,1-2.2c0.7-0.4,1.5-0.2,2.1,0.3C198.4,74.5,199.8,76.7,200.8,79.1z"/>
<path class="st64" d="M208.6,103.6c0.3,1.2-0.4,2.4-1.6,2.8c-0.1,0-0.2,0-0.3,0.1c-1.7,0.3-2.3-1.1-2.7-2.5c-0.5-1.9-1-3.8-1.4-5.8
	c-0.3-1,0.2-2.1,1.1-2.5c1-0.4,2.1,0,2.5,1c0,0,0,0,0,0C207.3,98.7,208.6,100.7,208.6,103.6z"/>
<path class="st65" d="M188.2,58.4c-0.2,1.2,0.2,2.2-0.8,2.7s-1.5-0.3-2.1-1c-1.4-1.6-2.8-3.2-4.2-4.7c-0.8-0.9-1.6-1.7-0.8-2.9
	c1-1.4,2.2-0.8,3.3-0.1C185.8,53.7,187.5,55.9,188.2,58.4z"/>
<path class="st66" d="M175.8,74.9c-2.3-0.1-6.7-5.4-6.5-7.4s1.5-1.8,2.7-1.3c3.1,1.3,4.1,4.2,5.2,6.9
	C177.7,74.3,176.5,74.8,175.8,74.9z"/>
<path class="st67" d="M191.1,92.8c0,1.4,0,2.5-1.1,3s-1.6-0.5-2.1-1.1c-1.2-1.4-2.4-2.9-3.6-4.3c-0.7-0.6-0.8-1.6-0.3-2.4
	c0.6-0.9,1.4-0.6,2.3-0.4C188.8,88.3,190.7,90.3,191.1,92.8z"/>
<path class="st68" d="M172,91.5c-1.7,0-6.1-5.8-5.6-7.4c0.4-1.3,1.6-2.2,2.5-1.3c1.9,1.9,4,3.8,4.6,6.6
	C173.8,90.9,173,91.3,172,91.5z"/>
<path class="st69" d="M162.1,51.5c-2.4,0.1-4.7-1.2-6-3.3c-0.3-0.5-0.2-1.2,0.3-1.5c0.1,0,0.1-0.1,0.2-0.1c2.2-1.1,4.1-0.3,5.9,1
	c0.9,0.7,2.2,1.1,1.7,2.6C163.9,51.1,163,51.7,162.1,51.5z"/>
<path class="st70" d="M156.4,69.1c-0.1,0.9-0.6,2.3-1.7,1.7c-2.1-1-4.5-2-5-4.7c-0.3-1.3,0.7-1.7,1.9-1.7
	C153.5,64.3,156.4,67.1,156.4,69.1z"/>
<path class="st71" d="M200.9,120.1c0.3-1.5-0.7-3.8,1.7-3.9c1.4,0,2.3,2,1.9,3.2c-0.5,1.5,0.3,4.2-2,4.3
	C200.4,123.7,201.2,121.4,200.9,120.1z"/>
<path class="st72" d="M167.7,119.5c1-4,7.7-6.5,12.3-4.7c4.8,1.8,5.9,3.3,6,8.5c0.2,0.3,0.3,0.6,0.3,1c-0.1,0.7-0.3,1.4-0.4,2.1
	c-1.1,2.5-2.6,4.5-5.5,5.1c-2.9-0.6-6,0-8.8-1.4c-1.5-0.8-3.5-1.3-3.4-3.5s2.1-2.2,3.5-2.9c0.3-0.2,0.7-0.3,1.1-0.3
	c1.7,1.2,2,4.1,4.8,4.1c2.6,0.9,4.4-0.4,5.6-2.4c1.1-1.9,1.5-4-0.8-5.6c-3.3-2.9-7-3-10.8-1.2c-1.3,0-1.8,1-2.4,1.8
	c-0.5,0.2-1,0.1-1.3-0.3L167.7,119.5z"/>
<path class="st73" d="M180.7,130.7c1.9-1.4,3.8-2.8,4.7-5.1l0.5-0.1c0.1,0.1,0.2,0.3,0.4,0.4c0.5,1,0,1.9-0.4,3
	c1.8-0.8,3.3-2.3,4-4.1c0.2-0.3,0.4-0.5,0.7-0.7c1,3.8,0.4,4.7-5.4,7.6c-2.4,0.8-4.7,3.8-7.5,0.8
	C177.6,130.1,179.2,130.5,180.7,130.7z"/>
<path class="st73" d="M185.8,124.3c0.1-0.4,0.2-0.7,0.3-1c1.9-1.9,3.5-2.2,4.5,0.8l-0.3,0.2c-1.6,0.1-2.8,1.2-4.3,1.5l-0.3-0.2
	C185.4,125.2,185.4,124.6,185.8,124.3z"/>
<path class="st36" d="M167.8,103.7c4.4-3.3,8.5,0.3,12.8,0.5c2.3,0.1,4.6,1.7,6.8,2.5c-2.1,0.2-4.2-0.1-6.2-1
	C176.8,103.9,172.4,103.6,167.8,103.7z"/>
<path class="st36" d="M163.2,102.2c-0.3,0.8-1.1,1.6-0.4,2.4c0.8,1,1.8-0.4,2.7-0.1c-0.9,1.4-2.3,2.3-3.5,0.8
	c-0.7-0.7-0.7-1.9,0-2.6C162.3,102.4,162.8,102.2,163.2,102.2z"/>
<path class="st74" d="M180.7,130.7c-1.2,0.3-2.6,0.2-3.1,1.7l-2.3,0.1c-1.5-1.2-3.2-2-5.1-2.4c-4.5-2.2-4.9-3.9-1.6-8
	c0.5-0.6-1.3-0.8-0.9-1.7c0-0.3,0-0.6,0.1-0.8l1.4,0.1c0.3-0.3,0.8-0.5,1.2-0.5c2.6,0.5,4.4,1.5,2.5,4.6c-0.3,0.2-0.6,0.4-0.9,0.7
	c-0.9,1.1-4.2,0-3,2.6c0.9,2.2,3.2,3.4,5.5,3.1C176.6,129.7,178.7,130,180.7,130.7z"/>
<path class="st75" d="M93,95.3c0.1,2.6-1.6,4-3.5,5c-1.1,0.6-1.7-1.1-1.7-1.9c0.1-2.3,1.5-4.4,3.7-5.3C93,92.4,92.9,94.3,93,95.3z"
	/>
<path class="st76" d="M100.6,70.3c-0.7-0.1-1.7-0.5-0.9-2c0.5-1.1,1.3-2.1,2.2-3c0.9-0.8,2.3-1.6,3.4-0.5s-0.1,2-0.9,2.8
	C103.5,68.6,103.2,70.5,100.6,70.3z"/>
<path class="st77" d="M102.7,79.5c-1,1.8-1.9,3.9-4.4,4.4c-0.9,0.2-1.7-0.6-1.3-1.2c1.2-1.6,0.8-4.7,3.9-4.7
	C101.8,78,102.7,78.1,102.7,79.5z"/>
<path class="st41" d="M120.2,75.7c0.8,0.5,0.8,1,0,1.5C120.2,76.7,120.2,76.2,120.2,75.7z"/>
<path class="st41" d="M99,95.4l-0.7,0.7L99,95.4z"/>
<path class="st41" d="M100.5,93.8l-0.7,0.8L100.5,93.8z"/>
<path class="st41" d="M99.8,94.6L99,95.4L99.8,94.6z"/>
<path class="st41" d="M119.4,75l0.8,0.8L119.4,75z"/>
<path class="st78" d="M116.5,332.6c0,0.7-0.2,1.5-0.5,2.2c-4.3,5.9-7.2,12.6-11.8,18.2c-1.7,2.1-2.4,2.2-3.9-0.3
	c-3.2-5.3-5.9-10.9-9.6-15.9c-1.5-2.3-1.6-5.2-0.3-7.5c3.2-6,6.9-11.8,10.5-17.5c1.6-2.6,2.8-0.4,3.6,0.8c3.2,4.9,6.4,9.8,9.4,14.8
	C115,329,117,330.2,116.5,332.6z"/>
<path class="st58" d="M147.4,358.6c0.1,0.9,0.1,1.8,0,2.6c-0.8,4.7,0.9,8.5,4.4,11.9c-2.3,0.4-6.7-2.7-6.4-5
	c0.6-5.4-1.8-10.3-1.7-15.6l0,0c2-0.8,2.6,0.5,3,2.1C146.9,355.9,146.8,357.3,147.4,358.6L147.4,358.6z"/>
<path class="st33" d="M147.3,358.5c-2.1-1.5-0.2-5.5-3.8-6c0-1.2,0.1-2.3,1.7-2.2c1.1,0,2,0.9,2,2c0,0.1,0,0.2,0,0.3
	C147.4,354.6,147.3,356.5,147.3,358.5z"/>
<path class="st79" d="M197.2,336.6c0.3,2.1,2,3.8,1.5,6c-2.7-5.2-4.6-10.8-5.4-16.6l0.4-0.3l0.4,0.3c0,0.2,0,0.5,0,0.7
	c0.6,1.8,1.5,3.5,2.2,5.3l0,1.5C197.2,334.5,196.3,335.8,197.2,336.6L197.2,336.6z"/>
<path class="st79" d="M191.2,320h0.8c0.8,0.9,1,2,1.5,3l0,0c0.5,0.9,0.6,2,0.1,2.9l-0.2,0.2C192.5,324.1,190.8,322.4,191.2,320z"/>
<path class="st80" d="M167.7,120.4c0.8,0.8,1.9,0.5,2.8,0.8c0.5,0.1,0.9,0.6,0.9,1.1c0,0.6-0.4,1-1,1c-0.1,0-0.2,0-0.3,0
	c-1.2-0.3-2.5-0.9-3,1c-0.5,1.5,0,3.1,1.3,4c0.6,0.6,1.2,1.2,1.8,1.9c-3.7,2.3-5.5-1.2-7.6-2.8c-1.9-1.5,0.2-3,1.3-4.3
	S164.9,119,167.7,120.4z"/>
<path class="st81" d="M150.4,149.8c-3.6,1.1-7,0.7-9.4-2.5c-0.6-0.8-1.6-1.9-0.4-3s2.2-0.4,2.9,0.5c2.3,3.1,4.3,2.7,6.4-0.1
	c0.5-0.9,1.5-1.2,2.4-0.7c0.2,0.1,0.4,0.3,0.6,0.5c1,1.1-0.1,1.8-0.7,2.5S150.4,148.5,150.4,149.8L150.4,149.8z"/>
<path class="st82" d="M130,101.4c0.4,0.5,0.8,1,1.1,1.5c0.6,0.8,1.6,1.6,0.7,2.6s-1.5,0-2.3-0.3c-7.9-2.6-15.8-3.5-23.2,1.6
	c-0.7,0.5-1.5,2-2.4,0.7c-0.7-0.9,0.4-1.8,1.1-2.6c4-4.5,14.9-7.7,20.7-4.4C127,101.3,128.5,101.6,130,101.4L130,101.4z"/>
<path class="st56" d="M110.3,128.9l-0.8-0.4c0-0.3,0.1-0.6,0.4-0.8c0.7-0.2,1.3,0,1.4,0.8l-0.3,0.3l-0.3,0.2L110.3,128.9z"/>
<path class="st27" d="M109.6,127.8c0,0.2-0.1,0.4-0.1,0.6l-0.8-0.5c0.1,0,0.3,0,0.4,0l0.2-0.3L109.6,127.8z"/>
<path class="st27" d="M110.3,128.9c0.2-0.1,0.5-0.1,0.7-0.1c0.1,0.2,0.1,0.4,0,0.7L110.3,128.9z"/>
<path class="st83" d="M111.2,128.5l-1.6-0.6l0,0c-0.3-0.2-0.5-0.5-0.7-0.8c-0.4-1.8,0.8-2.4,2.1-2.9c1.7-0.7,2.5-1.8,1.8-3.7
	c2.1,0.5,2.7,1.1,1.8,3.7s0,2.8,2.1,2.8c2.7,0.1,5.1-1.8,5.7-4.4c0.5-2.3-0.9-3.5-2.7-4.3c-2.9-1.3-5.5-0.6-7.4,2l-2.3-0.1
	c-1.5-1.2-2.4-2,0.3-3.1c4.1-1.7,7.9-3.7,12.1-0.5c0.2,0.2,0.4,0.4,0.6,0.5l0.9,0.3l0.7,0.7l0.1,0.1c2.1,3.9,1.6,6.9-1.7,9.6
	C119.3,130.6,115.3,130.9,111.2,128.5z"/>
<path class="st56" d="M123,127.7c2.1-2.9,3-6.1,1.7-9.6c1.2,0.3,1.3,1.6,2.2,2.2c-0.1,0.8-0.1,1.6-0.2,2.4c-0.2,0.4-0.1,0.9-0.4,1.2
	c-0.3,0.8-0.5,1.6-0.8,2.4v0.4c-0.1,0.2-0.1,0.5-0.3,0.7c-0.1,0.2-0.3,0.4-0.5,0.6c-0.2,0.1-0.5,0.2-0.7,0.2c-0.3,0-0.5-0.1-0.7-0.3
	L123,127.7z"/>
<path class="st56" d="M123.1,117.1l-0.6-0.5L123.1,117.1z"/>
<path class="st56" d="M124.6,118l-0.7-0.7L124.6,118z"/>
<path class="st56" d="M108.9,127.1l0.7,0.8c-0.2,0.1-0.3,0.1-0.5,0.1L108.9,127.1z"/>
<path class="st84" d="M125.5,126.4c1.9-0.7,1.9-2.7,2.7-4.2c2.7,3,2.7,3.1-1.3,8l0,0c-1.2,0.5-2.5,0.9-3.4-0.5
	c-0.1-0.4,0-0.7,0.2-1.1c0.3-0.2,0.6-0.4,0.9-0.7l0,0C125.1,127.5,125,126.8,125.5,126.4L125.5,126.4z"/>
<path class="st27" d="M126.3,124l0.4-1.2C127,123.2,126.8,123.7,126.3,124C126.3,124,126.3,124,126.3,124z"/>
<path class="st57" d="M122.5,129.4l0.7-0.8l0.1,0.5C123.2,129.4,122.8,129.6,122.5,129.4L122.5,129.4z"/>
<path class="st57" d="M123.4,128.1c0.2,0,0.4,0,0.6,0l0.2,0.3l-0.1,0.3l-0.1,0.1c-0.1,0.2-0.4,0.3-0.6,0.1c-0.1,0-0.1-0.1-0.1-0.1
	l-0.1-0.1C123.2,128.4,123.3,128.3,123.4,128.1z"/>
<path class="st55" d="M123.3,128.8c0.2,0,0.5,0,0.7,0c0.3,2,1.9,1.3,3,1.4c0,0.2,0,0.5,0,0.7c-0.8,0.1-1.7-0.1-2.3,0.8l-0.8,0.7
	h-3.1c0.5-1.2,1.8-1.6,1.7-2.9L123.3,128.8z"/>
<path class="st33" d="M161,379.8l0.7,0.7L161,379.8z"/>
<path class="st33" d="M161.7,380.5l0.8,0.8L161.7,380.5z"/>
<path class="st33" d="M162.5,381.3l0.8,0.7L162.5,381.3z"/>
<path class="st33" d="M163.2,382l0.8,0.8L163.2,382z"/>
<path class="st33" d="M164,382.8l0.8,0.8L164,382.8z"/>
<path class="st33" d="M164.7,383.5l0.8,0.8L164.7,383.5z"/>
<path class="st33" d="M166.2,384.3l0.8,0.7L166.2,384.3z"/>
<path class="st33" d="M167,385l0.8,0.7L167,385z"/>
<path class="st33" d="M167.8,385.8l0.8,0.7L167.8,385.8z"/>
<path class="st33" d="M170,387.3l0.8,0.7L170,387.3z"/>
<path class="st33" d="M170.8,388l0.8,0.8L170.8,388z"/>
<path class="st33" d="M173.8,389.7l0.8,0.7L173.8,389.7z"/>
<path class="st33" d="M196.4,332.1c-1.4-1.5-2.1-3.3-2.2-5.3C195.6,328.2,196.4,330.1,196.4,332.1z"/>
<path class="st33" d="M193.4,323c-0.9-0.8-1.4-1.8-1.5-3C193.3,320.6,193.5,321.7,193.4,323z"/>
<path class="st33" d="M193.5,325.9c0-1-0.1-2-0.1-2.9c1.1,0.8,0.7,2,0.8,3C194,326,193.7,326,193.5,325.9z"/>
<path class="st33" d="M197.2,336.6c-1-0.8-0.7-2-0.7-3C197.5,334.4,197.1,335.6,197.2,336.6z"/>
<path class="st85" d="M172.9,123.6c1.1-2.9-1-3.4-3-4.1c-0.8-1.2,0-1.8,0.9-2.3c4.3-2,8.4-2.3,12,1.4c1.9,5.1-0.2,8.7-5.3,9.2
	C174.4,128.3,173.3,126.3,172.9,123.6z"/>
<path class="st86" d="M177.6,128c4.4-1.6,5.8-4.8,5.3-9.2c3.3,1.9,2.1,4.7,0.9,6.8S180.6,129.6,177.6,128z"/>
<path class="st87" d="M170.9,117.3c-0.3,0.8-0.6,1.5-0.9,2.3h-0.8C168.5,117.9,169.2,117.3,170.9,117.3z"/>
<path class="st85" d="M171.6,126.6l0.1,0.3c-0.1,0-0.2,0.1-0.3,0.1c0,0-0.1-0.2-0.1-0.3L171.6,126.6z"/>
<path class="st37" d="M185.8,124.3c0,0.4,0,0.8,0,1.2c-0.1,0.1-0.3,0.1-0.4,0.1C185.1,125.1,185.3,124.5,185.8,124.3z"/>
<path class="st88" d="M186,125.7c1.1-1.5,2-3.4,4.3-1.5c-0.2,3.4-2.3,5.5-6.2,5.7C184.5,128.4,186.3,127.5,186,125.7z"/>
<path class="st89" d="M112.3,120.2c-0.3-0.9-2-1.6-0.1-2.6c2.7-1.6,7.7-1.3,10,0.8c1.3,1,1.9,2.8,1.3,4.4c-0.8,2.6-2.3,4.5-5,5.1
	c-1.1,0.2-2.3,0.2-3.4,0c-1.7-0.3-4.4-0.1-1.7-3.2c1-1.1,1.8-3.2-0.6-4.2C112.6,120.4,112.5,120.3,112.3,120.2z"/>
<path class="st55" d="M125.5,126.5c0.1,0.6-0.2,1.2-0.8,1.4C124.6,127.3,125,126.7,125.5,126.5z"/>
<path class="st55" d="M124,128.6c0-0.2-0.1-0.4-0.1-0.6c0.2-0.2,0.4-0.3,0.7-0.2L124,128.6z"/>
</svg>
