<?xml version="1.0" encoding="utf-8"?>
<!-- Generator: Adobe Illustrator 24.1.2, SVG Export Plug-In . SVG Version: 6.00 Build 0)  -->
<svg version="1.1" id="Capa_1" xmlns="http://www.w3.org/2000/svg" xmlns:xlink="http://www.w3.org/1999/xlink" x="0px" y="0px"
	 viewBox="0 0 263 431.2" style="enable-background:new 0 0 263 431.2;" xml:space="preserve">
<style type="text/css">
	.st0{fill:none;}
	.st1{fill:#743D50;}
	.st2{fill:#EEA3BA;}
	.st3{fill:#A7838F;}
	.st4{fill:#DBCDD3;}
	.st5{fill:#F9DFE8;}
	.st6{fill:#A9697E;}
	.st7{fill:#F5C0B9;}
	.st8{fill:#976274;}
	.st9{fill:#E5DADE;}
	.st10{fill:#F6CEC7;}
	.st11{fill:#C5ADB5;}
	.st12{fill:#E2D7DB;}
	.st13{fill:#CECECE;}
	.st14{fill:#C7C7C7;}
	.st15{fill:#D3D2D2;}
	.st16{fill:#D9D9D9;}
	.st17{fill:#E7DDE1;}
	.st18{fill:#894A5F;}
	.st19{fill:#C78198;}
	.st20{fill:#946A79;}
	.st21{fill:#AB5957;}
	.st22{fill:#EE7655;}
	.st23{fill:#F19D84;}
	.st24{fill:#F29D89;}
	.st25{fill:#CC837C;}
	.st26{fill:#EE9B8A;}
	.st27{fill:#EB8C7C;}
	.st28{fill:#A27483;}
	.st29{fill:#9D7481;}
	.st30{fill:#C2878C;}
	.st31{fill:#707070;}
	.st32{fill:#7E7C7B;}
	.st33{fill:#A27181;}
	.st34{fill:#733D50;}
	.st35{fill:#EF9B81;}
	.st36{fill:#B8615A;}
	.st37{fill:#F38160;}
	.st38{fill:#8E515B;}
	.st39{fill:#854D5B;}
	.st40{fill:#E26B57;}
	.st41{fill:#E96851;}
	.st42{fill:#E36551;}
	.st43{fill:#AE573F;}
	.st44{fill:#E16551;}
	.st45{fill:#585857;}
	.st46{fill:#010101;}
	.st47{fill:#4A291F;}
	.st48{fill:#3E1D17;}
	.st49{fill:#7D4331;}
	.st50{fill:#F6E2E6;}
	.st51{fill:#E56951;}
	.st52{fill:#D65546;}
	.st53{fill:#050202;}
	.st54{fill:#EFD9D0;}
	.st55{fill:#5D2E22;}
	.st56{fill:#CD5543;}
	.st57{fill:#F5A188;}
	.st58{fill:#585C5B;}
	.st59{fill:#97483A;}
	.st60{fill:#CE5843;}
	.st61{fill:#BA3C35;}
	.st62{fill:#BA3C36;}
	.st63{fill:#F6F4F2;}
	.st64{fill:#0D0605;}
	.st65{fill:#F4EEEC;}
	.st66{fill:#E9DFDA;}
	.st67{fill:#030203;}
	.st68{fill:#191716;}
</style>
<path class="st0" d="M87.7,431.2c-28.3,0-56.6,0-85,0.1c-2.3,0-2.7-0.5-2.7-2.7C0,286.6,0,144.6,0,2.7C0,0.5,0.4,0,2.7,0
	c85.9,0.1,171.7,0.1,257.6,0c2.3,0,2.7,0.5,2.7,2.7c-0.1,141.9-0.1,283.9,0,425.8c0,2.3-0.4,2.8-2.7,2.7c-9.9-0.2-19.9-0.1-29.8-0.1
	c-0.5-5-1-9.9,1.7-14.6c1.4-2.5,0.9-5.4,1-8.1c0.1-2.5-0.3-5,1.6-7.1c1.9-1.8,1.4-4.1,1.5-6.3s0-4.2,0.1-6.4c0-0.4,0.1-0.8,0.2-1.1
	c0.2-0.5,0.4-1.1,0.6-1.6c0.1-0.3,0.3-0.6,0.5-1s0.3-0.6,0.5-1s0.1-0.3,0.2-0.5c0.3-4.1-0.1-8.2,1-12.2c0.1-0.4,0.2-0.7,0.4-1.1
	c0.7-1.1,1.2-2.3,1.5-3.6c0.5-4.1,0.1-8.2,0.3-12.3c0-0.4,0.1-0.8,0.1-1.2c0.1-0.4,0.2-0.7,0.4-1.1c0.2-0.3,0.4-0.7,0.6-1l0.3-0.5
	c0.2-0.3,0.4-0.6,0.6-1c0.7-3.5-0.3-7.3,1.2-10.8c0.1-0.4,0.3-0.7,0.5-1c1.5-1.8,1.5-3.9,1.5-6.1c0-3.4-0.1-6.8,0.1-10.2
	c0.1-0.4,0.2-0.8,0.3-1.2c0.2-0.4,0.3-0.7,0.6-1l0.3-0.5c1.5-2,0.3-4.6,1.4-6.6c3.9-7.3,2.2-15.2,2.6-22.9c0.3-5.3-2.3-9.7-4-14.3
	c-3.4-9.4-11.8-14.9-18.5-21.5c-2.9-2.8-7.5-3.3-11.5-4.3c-5.4-1.3-10-4.2-14.6-6.8c-2.6-1.5-4.9-3.4-7.7-4.5
	c-4.6-1.7-7.9-5.7-12.5-7.4c-0.7-0.3-1.3-0.8-1.7-1.5c-2-4.8-6.1-8.3-8.1-13.1c-2.2-5.4-2.7-11.2,3-16.1c3.8-3.3,7.4-6.9,9.5-11.6
	c1.1-2.1,1.8-4.4,2-6.8c-0.2-3.3,1.8-6.3,4.9-7.4c2.8-1.2,5-3.5,6-6.3c0.8-2,1.8-3.9,2.9-5.8c2.8-4.5,3.1-9.2,0.2-13.5
	c-3.5-5.2-3.3-10.6-2.5-16.3c1.4-2,1.4-4.4,2.2-6.6c1.9-5.5,2.2-11.5,4.5-16.8c1.1-2.6,1.2-5.1,1.4-7.7c0.1-0.4,0.1-0.8,0.3-1.2
	c0.2-0.5,0.5-1.1,0.8-1.6c2-5.9,1-11.9,0.6-17.9c0-0.5-0.2-1-0.5-1.4c-3.9-3.7-5.1-9.2-9.1-12.7c-3.1-2.6-5.6-5.8-7.4-9.4
	c-2.2-4-5.8-6.7-9-9.7c-0.3-0.2-0.6-0.4-0.8-0.6c-0.3-0.2-0.5-0.4-0.8-0.6l-0.4-0.3c-0.8-0.7-1.8-1.2-2.9-1.5
	c-0.3-0.1-0.6-0.2-0.9-0.4c-0.4-0.2-0.9-0.4-1.3-0.6c-0.3-0.1-0.6-0.3-0.8-0.5c-0.8-0.5-1.7-0.9-2.6-1c-0.3-0.1-0.6-0.2-0.9-0.4
	c-0.3-0.2-0.6-0.3-0.9-0.5l-0.4-0.3c-0.3-0.2-0.6-0.4-1-0.5l-0.5-0.1c-8.4,0-16.8-0.4-25.2,0.2c-0.3,0.2-0.6,0.4-1,0.6
	c-0.3,0.2-0.6,0.4-0.9,0.6c-0.3,0.2-0.7,0.3-1,0.4c-0.9,0.3-2,0.3-2.7,1.1c-0.3,0.2-0.5,0.4-0.8,0.6c-0.3,0.2-0.6,0.4-0.9,0.5
	c-0.3,0.1-0.7,0.2-1,0.3c-2.4,0.4-4.9,1.1-7.4,0.8c-4.8-0.5-9.7,0.6-13.8,3.1c-0.3,0.2-0.5,0.4-0.8,0.6s-0.5,0.4-0.7,0.6l-0.3,0.3
	c-0.2,0.2-0.4,0.4-0.7,0.6l-0.3,0.3c-0.2,0.2-0.4,0.4-0.6,0.6l-0.3,0.3c-0.2,0.2-0.4,0.4-0.5,0.5l-0.3,0.3c-0.2,0.2-0.4,0.4-0.5,0.5
	l-0.3,0.3c-0.2,0.2-0.3,0.4-0.5,0.5c-0.1,0.1-0.2,0.2-0.3,0.3c-0.2,0.2-0.3,0.3-0.5,0.5c0,0-0.3,0.3-0.3,0.3
	c-0.2,0.2-0.3,0.4-0.5,0.5c0,0-0.3,0.3-0.3,0.3c-0.2,0.2-0.4,0.4-0.5,0.6l-0.3,0.3l-0.5,0.6c-0.1,0.1-0.2,0.2-0.3,0.3l-0.6,0.7
	l-0.3,0.3l-0.6,0.8l-0.3,0.4c-0.2,0.3-0.4,0.6-0.6,0.9c-2,5.1-7.3,7.7-9.9,12.3c-3.2,5.6-7.3,10.8-7.4,17.7c0,0.9-0.3,1.8-0.7,2.5
	c-2.9,4.9-2,10.3-2.1,15.5c0,1.4,0.4,2.8,1.2,3.9c0.9,1.4,1.5,2.9,1.6,4.6c0.1,5.8,2.6,10.8,4.5,16.1c1.1,3.1,3.5,5.1,5.6,7.4
	c1.3,2.3,1,4.6-0.1,6.9c-3.9,8.9-1.5,16.6,4.4,23.6c1.5,1.7,3.1,3.3,4.8,4.8c3,2.6,4.9,6.3,5.4,10.3c0.6,5.7,3.9,10.9,8.8,13.9
	c3.2,1.7,5,5.2,4.5,8.8c-0.3,3.3,0,6.6-0.1,9.8c-0.1,3.5-1.6,5.9-4.9,7.8c-4.1,2.4-8,5.1-11.8,7.9c-3.1,2.3-6.5,4.2-10.1,5.6
	l-0.9,0.6c-0.9,0.4-1.8,1-2.5,1.7c-0.2,0.2-0.5,0.5-0.7,0.7c-0.5,0.4-1.1,0.8-1.6,1.1c-1.6,0.6-3,1.4-4.4,2.4
	c-0.3,0.2-0.6,0.3-0.9,0.4c-2.4,0.5-4.9,0.6-6.8,2.4c-3.3,1.8-6.4,4-10.3,4.1c-0.4,0-0.7,0.1-1,0.4c-3.8,3.8-9.3,5.3-12.9,9.3
	c-2.4,2.7-2.9,6.4-5,9.2c-0.6,0.8-1,1.7-1.6,2.5c-2.9,4.3-5,8.6-4.5,14c0.4,4.6,0.1,9.3,0.1,14c0,3.6-0.3,7.2,1.9,10.5
	c1.1,1.7,1.1,4.1,1.1,6.2c0,9.3,0,18.7,0,28c0,2.3-0.5,4.5-1.3,6.6c-2.7,7-5.3,14.1-3.5,21.9c0.4,1.4,0.1,2.8-0.7,4
	c-3.1,4.2-2,8.9-1.8,13.5c0.1,2.2,1.2,4.2,2.8,5.6c2.9,2.6,5.4,5.6,8.4,8.1c0.7,0.5,1.5,1.2,2.3,1.2c5.4-0.3,10.3,1.3,15.3,3.1
	c1.3,0.4,2.8,0.3,4.1-0.1c1.7-0.5,3.5-0.4,5.1,0.5c2.6,1.3,5.1,2.5,8.2,1.8c1.3-0.2,2.6,0.6,2.8,2c0,0,0,0,0,0
	C89.1,420.5,90.6,425.9,87.7,431.2z"/>
<path class="st1" d="M225.9,431.2h-25.7c-2.5-0.8-5.1-0.2-7.6-0.4c-9.6-0.2-19-2.7-28.5-4c-5.8-0.8-11.3-3-17.3-3.1
	c-1.8,0.1-3.5-0.7-4.6-2.1c-1.1-4.4,0.6-8.6,1.2-12.9c0.7-5,0.7-9.9,1.2-14.9c0.5-5.2,0.8-5.9,5.9-7c1-0.2,1.9-0.6,2.7-1.1
	c0.3-0.2,0.7-0.4,1.1-0.5c2.2-0.5,4.2-1.2,6.2-2.2c0.3-0.1,0.7-0.3,1-0.3c1.1-0.1,2.2-0.3,3.2-0.7c0.4-0.1,0.7-0.2,1.1-0.3
	c4.4-1.4,9-1.3,13.4-2.1c5.8-0.4,11.5-0.1,17.3-0.1c4.4,0,4.7-0.2,5.6-4.7c1.3-6.5,3.1-12.9,6.6-18.6c2-3.4,3.5-7.2,4.5-11.1
	c0.5-1.8-0.5-3.2-2.5-3.5c-1.4-0.1-2.8-0.2-4.1-0.1h-89.1c-1.4,0-2.8,0-4.1,0s-2.9-0.1-3.6-1.5s0.5-2.6,1.2-3.7
	c3.8-5.7,7.3-11.5,10.9-17.3c0.9-1.2,1.4-2.7,1.4-4.3c0-2.3,0.8-4.5,2.3-6.2c0.2-0.4,0.3-0.8,0.4-1.1c0.2-0.5,0.5-1.1,0.8-1.6
	c4-5.2,8.4-10,13.1-14.5c11.4-11.4,23-22.6,34-34.3c5.1-5.4,10.5-10.4,15.9-15.5c1.6-1.7,4-2.4,6.2-1.7c4.6,1.6,8.1,5,12.2,7.3
	c2.9,1.7,6,3,9.3,3.8c11.5,2.3,19.3,10,25.9,18.7c4.2,5.7,6.4,12.7,6.3,19.8c0,3.8,0,7.6,0,11.4c-0.1,3.6-0.5,7.2-1.4,10.7
	c-1.2,5.4-2.9,10.6-3.8,16c-0.3,2,1.4,4.1,0.5,6c-2.8,5.9-2.3,12.5-4.3,18.5c-1.3,3.9-1.3,7.9-1.3,11.9c0,2.1,0.1,4.1-0.9,5.8
	c-1.5,2.4-2.1,5.2-1.6,8c0.8,5.5-2.5,10.2-2.6,15.5c-0.1,7.3-2.7,14.2-3.1,21.5c-0.2,4.5-1.9,9.2-2.6,13.9
	C228.4,430.1,227.2,430.7,225.9,431.2z"/>
<path class="st2" d="M185.1,431.2H91.5c-1.5-1.5-0.9-3.5-1.1-5.3c-0.4-3.9,0.9-8-0.8-11.8c-0.3-0.3-0.5-0.7-0.6-1.1
	c0-0.4,0.2-0.8,0.5-1.1c0.4-0.2,0.8-0.3,1.3-0.3c6,2.3,12.5,2.5,18.7,3.7c10,1.9,19.9,3.9,29.9,5.6c0.7,0.1,1.5,0.3,2.2,0.6
	c0.9,0.7,1.9,1.2,3,1.5c12.6,2.1,25.2,4.7,37.9,6.8C183.3,429.8,184.9,429.2,185.1,431.2z"/>
<path class="st3" d="M225.9,431.2c3.7-8.4,3.8-17.6,5.3-26.5c2.8-17.3,5.7-34.5,8.1-51.8c2.8-20.5,9.3-40.6,9.4-61.6
	c0.1-17.5-12.1-34.4-29.2-38.7c-9.3-2.4-16.3-8.4-24.5-12.5c-1.4-0.9-3.1,0.4-4.6-0.5c-0.4-0.9,0.1-1.6,0.7-2.1
	c0.5-0.3,1.2-0.5,1.8-0.5c3.4,1.3,6.8,2.4,9.9,4.8c4.4,3.3,9.4,5.8,14.7,7.3c6.1,1.9,12.6,2.9,16.9,8.6c2.3,2.8,4.9,5.4,7.7,7.8
	c4,3.7,5.5,8.7,7.6,13.5c3.7,8.5,1.7,17.1,2.3,25.6c0.1,1.9-0.6,3.8-1.8,5.2c-1.5,7-4.3,13.8-3.6,21.3c0.3,2.6,0.2,5.3-1.7,7.5
	c-0.4,0.5-0.6,1.1-0.6,1.8c0,7.6-4.1,14.8-2.9,22.5c0.6,3.8-1.7,6.7-2.4,10.1c-0.5,2.2-0.7,4.5-0.6,6.7c0.3,2.1-0.2,4.3-1.3,6.2
	c-1.6,2.6-1,5.6-1.1,8.5s-0.1,5.6-1.9,8.3c-1.5,2.3-1.1,5.3-1.1,8.1c0,2.9-0.1,5.7-1.8,8.3c-1.5,2.4-0.9,5.2-0.8,7.8
	c0,1.9-0.4,3.5-2.3,4.3H225.9z"/>
<path class="st4" d="M228.2,431.2c3.2-4.6,2.1-10.3,3.4-15.4c3.1-13.1,3.8-26.7,5.9-40c2.8-17.8,6.8-35.4,8.7-53.4
	c0.4-4,0.1-9.6,3.9-13.2c0,3.6,0,7.3-1.5,10.7l0,0c-0.2,0.3-0.5,0.5-0.7,0.8l0,0c-1.1,3.4-0.9,6.9-0.6,10.4c0.4,2.7-0.2,5.5-1.7,7.8
	l0,0c-1.5,2.3-1.1,5-1.1,7.5c0,1.5,0.4,3-0.5,4.3c-0.2,0.3-0.4,0.7-0.6,1l0,0c-0.2,0.3-0.5,0.5-0.7,0.8l0,0
	c-0.3,0.4-0.5,0.9-0.4,1.3c0,0.5-0.1,1-0.3,1.5c-0.2,1.6-0.1,3.1,0.3,4.6c0,1.6,0,3.3,0,4.9c-0.2,0.9-0.4,1.8-0.6,2.7
	c-0.1,1.1-0.6,2.2-1.3,3l0,0c-1.5,3.3-1.1,6.9-1.2,10.4c0,1.4,0.4,2.8-0.4,4l0,0c-0.3,0.2-0.5,0.5-0.7,0.8l0,0
	c-0.5,0.4-0.4,1.1-0.8,1.5l0,0c-0.8,2.8-0.3,5.7-0.4,8.6c-0.1,2-0.1,4-1.2,5.8c-1.5,8.3-3,16.5-4.5,24.8c-0.3,1.6-0.5,3.2-0.8,4.8
	L228.2,431.2z"/>
<path class="st5" d="M87.7,431.2c0.2-2.5,0.8-5,0.6-7.4c-0.8-7.5-8.8-11.9-16.5-11.9c-7.3,0-14.6-2.6-21.9-4.1
	c0.3-0.4,0.6-0.7,1-0.8c4.8-0.6,9.5-0.8,13.9,1.8c1.6,0.8,3.4,1.1,5.1,0.9c3.6,0,7.3-0.5,10.5,1.9c1.2,0.9,2.9,0.4,4.4,0.4
	s3-0.1,4.2,1.1l0,0c0.5,0.3,1.2,0.7,1.2,1.4c0.2,5.6,1.1,11.3-0.5,16.8L87.7,431.2z"/>
<path class="st6" d="M185.1,431.2c-13.2-2.5-26.5-5-39.7-7.6c-1.4-0.4-2.8-0.9-4.1-1.5c-0.2-0.2-0.3-0.4-0.2-0.6
	c0.1-0.2,0.1-0.3,0.2-0.3c0.5-0.3,1.1-0.2,1.5,0.2l49.8,9.1c0.3,0.1,0.4,0.3,0.3,0.5c-0.1,0.2-0.2,0.2-0.3,0.2H185.1z"/>
<path class="st7" d="M89.9,431.2c-0.2-6-0.5-12.1-0.8-18.2c4.9,2.8,1.3,7.4,2.2,11.1c0.5,2.3,0.1,4.7,0.1,7.1H89.9z"/>
<path class="st8" d="M192.7,431.2c0-0.2,0-0.5,0-0.7l7.6,0.7H192.7z"/>
<path class="st9" d="M248.6,319.8c0.5-3.6,1-7.1,1.5-10.7c6-18.2-3.3-46.7-21.3-54.8c-12-5.5-24-11.4-36.2-16.5
	c-2.8,0.2-3.7-2.6-5.8-3.5c-4.5-1.7-8-5.2-9.7-9.7c-0.3-0.4-0.5-0.9-0.9-1.3c-0.9-1.2-2-2.2-2.5-3.7c-0.2-0.5-0.4-0.9-0.6-1.4
	c-0.5-1.1-1.3-2-1.8-3.1c-0.3-0.5-0.5-1-0.6-1.6c-0.3-2.7-0.3-5.5,0-8.2c0.1-0.5,0.3-1.1,0.6-1.6c3.2-4.5,7.6-7.9,11.3-12
	c0.3-0.4,0.6-0.7,0.9-1.1s0.3-0.5,0.4-0.8c0.2-0.4,0.4-0.8,0.5-1.3c0.5-1,1-1.9,1.6-2.8c0.2-0.4,0.3-0.9,0.4-1.4
	c-0.1-1.7,0-3.5,0.3-5.2c0.2-0.7,0.4-1.4,0.7-2c0.7-1.6,2-2.9,3.6-3.6c0.4-0.2,0.9-0.4,1.3-0.5c0.4-0.1,0.8-0.3,1.2-0.4l0.7-0.3
	l0.3-0.2l0.6-0.4c0,0,0.3-0.2,0.3-0.3c0.2-0.2,0.3-0.4,0.5-0.5l0.2-0.3c0.1-0.2,0.3-0.4,0.4-0.6s0.2-0.4,0.4-0.7l0.3-0.7
	c0.1-0.2,0.2-0.5,0.4-0.7l0.5-1c0.1-0.2,0.2-0.5,0.4-0.7c0.2-0.4,0.4-0.7,0.6-1s0.4-0.7,0.6-1c0.2-0.3,0.4-0.7,0.5-1.1
	c0.1-0.4,0.3-0.8,0.4-1.1c0.2-0.4,0.3-0.8,0.5-1.1c0.3-0.5,0.6-0.9,0.8-1.4c0.2-0.4,0.3-0.8,0.4-1.2c0.1-0.6,0.2-1.1,0.4-1.7
	c0.3-0.9,0.3-1.8-0.1-2.6c-0.2-0.7-0.3-1.4-0.3-2.2c-0.1-0.4-0.2-0.8-0.3-1.2c-0.2-0.5-0.5-1-0.8-1.4s-0.4-0.7-0.6-1.1
	s-0.2-0.5-0.4-0.7s-0.4-0.7-0.6-1.1s-0.3-0.5-0.5-0.7s-0.4-0.5-0.5-0.7l-0.3-0.4c-0.3-0.4-0.5-0.9-0.6-1.4c-0.1-0.6-0.2-1.1-0.2-1.7
	c-0.2-2.3,0.1-4.6,0.8-6.9c0.3-0.9,0.4-2,1.8-1.9c-3.5,9.1,6.5,16,4.3,24.3c-1.9,7.1-3.9,15-11.9,18.5c-1.9,0.8-3.3,2.2-3.3,4.2
	c-0.2,9.5-6.1,15.7-12.5,21.4c-4.8,4.3-4.7,9.2-2.4,14.4c4.9,11,14.3,16.7,24.3,23.1c15,9.5,34.4,11.3,45.7,27.6
	c6.4,9.3,11.9,33.3,6.8,43.2C249.5,312.7,251.3,316.8,248.6,319.8z"/>
<path class="st10" d="M95.2,239.4c7.9-5,15.7-10.2,23.8-15c2.1-1.2,3.4-3.4,3.3-5.9c0.1-7.9,1.8-16-7.2-21.4
	c-4.2-2.5-6.4-8.3-6.2-13.9c0.1-3.7-2.8-5.3-4.9-7.2c-9.5-8.7-14.7-18.4-8.7-31.4c0.5-1.2-0.1-2.9-0.1-4.4c0.3-0.2,0.6-0.4,1-0.4
	c0.4,0.1,0.7,0.2,1,0.5c0.5,0.6,0.9,1.2,1.1,2c0.4,1.6,0.1,3.3-0.8,4.7c-4.2,7.6-1.5,15.9,3.5,22c2.3,2.7,4.8,5.2,7.5,7.5
	c2.1,1.8,3.4,4.4,3.6,7.3c0.5,7.6,5,12.3,11,15.9c1.6,1.3,2,3.1,2,5.1c0,4.6-0.2,9.3,0,13.9c0.3,3.2-1.3,6.3-4.1,7.9
	c-5.8,3.5-11.3,7.8-17.1,11.3c-1.6,0.3-3.1,0.8-4.5,1.5C98,240.1,96.5,240.8,95.2,239.4z"/>
<path class="st11" d="M95.2,239.4l8.3-2.2c0.2,0.2,0.3,0.4,0.2,0.6c0,0.2-0.1,0.4-0.1,0.4c-1,0.8-2.1,1.5-3.2,2.1
	c-4.4,0.8-6.9,4.8-10.9,6.5c-6.2,2.5-12.6,4.6-18.7,7.5c-7.2,3.4-14.4,7-17.9,15c-1.8,3.9-3.7,7.7-5.8,11.5
	c-1.7,9-1.9,18.3-0.7,27.4c0.2,1.2,0.7,2.4,1.3,3.5c0.7,1.8,1,3.7,1,5.5c0,10.7,0.2,21.4-0.1,32.1c-0.1,5-1.8,9.8-5,13.7
	c-0.4,0.2-0.9,0.1-1.3-0.2c0.7-3.4,0.8-6.9,2.6-10c1-1.8,1.4-3.8,1.2-5.8c-0.9-8.8,0.4-17.6,0-26.5c-0.2-3.5,0-7.1-2.5-10
	c-0.8-0.9-0.5-2.2-0.5-3.3c0-7.7,0-15.4,0-23.1c0-4.4,3.2-7.5,4.6-11.3c4.8-15.1,18.2-19.7,30.9-25.1c2.2-1.7,5.1-1.2,7.5-2.3h0.1
	c1.6-1.3,3.6-1.8,5.3-2.9l0,0c0.2-0.3,0.5-0.5,0.7-0.7h0.1c1-0.8,2-1.5,2.9-2.3L95.2,239.4z"/>
<path class="st12" d="M47.8,272.9c-6.1,10.8-5.6,23-3.3,33.8c2.6,12.7,1.1,25.1,2.3,37.5c0.7,6.9-3.1,12.5-4.4,18.7l0.1,0.6
	c0.3,4.9,0.3,9.9,0.1,14.9c-0.1,0.6-0.2,1.1-0.5,1.7c-0.1,0.3-0.3,0.7-0.4,1c-0.3,0.6-0.6,1.3-0.9,1.9c-0.2,0.5-0.3,1-0.3,1.5
	c-0.1,1.4,0,2.9,0,4.3c-0.1,2,0,3.9,0.2,5.9c1,2.9,3.6,4.4,5.4,6.6c0.3,0.3,0.6,0.7,0.9,1s0.6,0.6,0.9,1l0.8,0.9
	c0.3,0.3,0.6,0.6,0.8,0.9c0.3,0.3,0.6,0.6,0.8,0.9c0.3,0.3,0.5,0.6,0.6,1c0,0.3,0,0.5-0.2,0.7h-0.8c-13.3-10.9-11.9-13.7-10-29.9
	c2.4-20.4,9.8-40.8,4.9-61.4c-2.4-10.2-1.9-20-2.5-30C42,281,44.5,276.8,47.8,272.9z"/>
<path class="st13" d="M96,140.2h-0.9c-7.3-4-8.5-12-9.9-18.5s-4.9-12.6-3.7-19.7c2.2-12.9,4.9-25.3,14.6-35.1
	c2.5-2.5,4.4-5.7,6.6-8.6c0.3-0.2,0.6-0.5,0.8-0.8l0,0c0.3-0.2,0.6-0.5,0.8-0.8l0,0c0.3-0.2,0.6-0.4,0.8-0.8l0,0
	c0.3-0.2,0.6-0.5,0.8-0.8l0,0c0.3-0.2,0.6-0.5,0.8-0.8l0,0c0.3-0.2,0.6-0.5,0.8-0.8l0,0c0.3-0.2,0.6-0.4,0.8-0.8l0,0
	c0.3-0.2,0.6-0.5,0.8-0.8l0,0c0.3-0.2,0.6-0.5,0.8-0.8l0,0c0.3-0.2,0.6-0.5,0.8-0.8l0,0c0.3-0.2,0.6-0.5,0.8-0.8l0,0
	c0.3-0.2,0.6-0.4,0.8-0.8l0,0c0.3-0.2,0.6-0.5,0.8-0.7l0,0c0.4-0.4,1.1-0.4,1.6-0.1c0.5,1.8-0.9,2.9-2,3.8
	c-7.1,5.8-11.7,14-17.7,20.8c-4,4.4-6.4,10.6-7.6,17.3c-1,5.7-2.1,11.2-2,17c-0.1,1.9,0.3,3.8,1.3,5.4c0.4,0.5,0.7,1.1,0.7,1.7
	c-0.7,5.1,2.6,9.3,3.5,14.1c0.6,3.4,2.9,6.4,5.2,9c0.2,0.3,0.4,0.7,0.5,1.1l0.1,0.6C96.4,139.5,96.3,139.9,96,140.2z"/>
<path class="st14" d="M172.4,40.9c0.2,0,0.4,0,0.7,0.1c1.1,0.4,2.1,0.9,3,1.5l0,0c0.4,0.5,1.1,0.3,1.5,0.8l0,0
	c1.6,0.5,3.1,1.3,4.5,2.2l0,0c0.2,0.3,0.5,0.5,0.8,0.7l0,0c3.5,3.1,6.8,6.4,9.9,9.9c5.5,7.2,11.7,14,16.2,21.8
	c3.7,6.5,2.7,14.3,0.4,21.5c-0.3,0.2-0.5,0.5-0.7,0.8l0,0c-0.4,0.2-0.8,0.2-1.1-0.2c0,0,0,0,0,0c-0.3-0.6-0.4-1.2-0.3-1.8
	c0.4-4.1,0.1-8.3,0.2-12.4c0-0.6,0-1.2,0-1.8c-0.1-1.4,0.2-2.9-0.3-4.3c-0.3-0.5-0.5-0.9-0.8-1.4c-1.1-2-3.1-3.5-4-5.7
	c-0.2-0.7-0.6-1.4-1.1-2c-7.2-6.5-11.3-15.8-19.2-21.5c-5.6-4.1-11.6-8-19.1-7.7c-3.1,0.1-6.3,0.1-9.4,0c-4.4-0.1-8.8-0.2-12.7,2.5
	c-1.1,0.9-2.7,1.1-4,0.4c-0.3-0.3-0.3-0.7-0.1-1l0,0c0.3-0.2,0.6-0.4,0.8-0.7l0,0c0.9-0.8,2-1,3-1.5c0.2,0,0.5-0.1,0.7-0.1
	c0.3-0.2,0.6-0.4,0.8-0.7l0,0c0.8-0.4,1.4-1.1,2.4-1.1c8.8,0.2,17.6-0.5,26.3,0.3l0,0c0.3,0.2,0.5,0.5,0.8,0.7l0,0
	C171.6,40.5,172,40.8,172.4,40.9z"/>
<path class="st15" d="M207.7,100l0.9,0.1c-1.3,11.2-4.4,22-8.4,32.5c-0.5,3.3-1,6.5-1.5,9.8c-2.8-0.8-1.4-3.2-1.8-4.9
	c0-2.7,1.2-5.1,1.8-7.6c1.2-5.3,3.9-10.2,4.3-15.8c0-1.5,0.4-3,1.1-4.4c1.3-1.6,1.1-3.5,1.2-5.4S205.1,100.4,207.7,100z"/>
<path class="st16" d="M136.7,43.2l0.1,0.9c-0.2,2.2-1.9,2.4-3.5,2.5c-2.6,0.2-5.2,0.1-7.8,0.1c-2.5-0.2-5,0.4-7.1,1.7
	c-1.3,0.8-2.6,1.5-4.1,0.3l-1.6-0.1C119.5,41.7,128.7,45,136.7,43.2z"/>
<path class="st16" d="M170.8,39.5l-28.7,0.8c4.7-3.4,10.1-1.1,15.1-1.4C161.7,38.5,166.2,39.2,170.8,39.5z"/>
<path class="st9" d="M245.6,338.7c3.1-5.8-1.4-12.5,2.3-18.2C246.7,326.6,250.2,333.2,245.6,338.7z"/>
<path class="st16" d="M192.8,56.1l-9.9-9.8C186.9,48.7,190.3,52.1,192.8,56.1z"/>
<path class="st17" d="M238.8,385c0.7-4.8-1.6-9.9,1.5-14.4C239.8,375.4,239.2,380.2,238.8,385z"/>
<path class="st17" d="M235.7,401.6l1.5-14.4C236.4,392,239,397.1,235.7,401.6z"/>
<path class="st17" d="M241.8,354.6v-1.5c0.1-0.2,0.4-0.3,0.6-0.1c0,0,0.1,0.1,0.1,0.1l-0.7,14.4l-0.3-0.4c0-0.7-0.2-1.4,0.3-1.9v-6
	C241.2,357.8,241.2,356.1,241.8,354.6z"/>
<path class="st9" d="M243.3,350.9c2.1-3.8-1-8.5,2.3-12.1c-0.5,4-1,8.1-1.5,12.1c-0.1,0.2-0.4,0.3-0.6,0.2
	C243.4,351,243.3,350.9,243.3,350.9z"/>
<path class="st10" d="M86.1,245.5l-7.5,2.3C80.6,245.4,83.5,245.8,86.1,245.5z"/>
<path class="st10" d="M91.5,242.6l-5.3,2.9C87.3,243.3,89.4,243,91.5,242.6z"/>
<path class="st16" d="M182.1,45.5l-4.5-2.2C179.4,43.1,181.2,44,182.1,45.5z"/>
<path class="st10" d="M95.2,239.4l-2.9,2.3L95.2,239.4z"/>
<path class="st16" d="M140.6,41l-3,1.5L140.6,41z"/>
<path class="st16" d="M176.1,42.5l-3-1.5L176.1,42.5z"/>
<path class="st17" d="M240.3,370.6c0.3-1,0.5-2,0.8-3c0.2-0.4,0.5-0.4,0.7,0l0,0L240.3,370.6z"/>
<path class="st16" d="M177.5,43.2l-1.5-0.8L177.5,43.2z"/>
<path class="st17" d="M237.2,387.2l0.8-1.5L237.2,387.2z"/>
<path class="st10" d="M92.2,241.8l-0.7,0.7L92.2,241.8z"/>
<path class="st15" d="M208.6,100.1l0.7-0.8C209.1,99.6,208.8,99.8,208.6,100.1z"/>
<path class="st16" d="M105,56.1l-0.8,0.8L105,56.1z"/>
<path class="st16" d="M171.6,40.2l-0.8-0.7L171.6,40.2z"/>
<path class="st16" d="M142.1,40.2l-0.8,0.7L142.1,40.2z"/>
<path class="st16" d="M172.4,40.9l-0.8-0.7L172.4,40.9z"/>
<path class="st16" d="M137.5,42.5l-0.8,0.7L137.5,42.5z"/>
<path class="st17" d="M243.3,350.9h0.7l-0.8,0.7C243.3,351.4,243.3,351.1,243.3,350.9z"/>
<path class="st17" d="M242.6,352.4l0.7-0.8L242.6,352.4z"/>
<path class="st9" d="M242.5,353.1h-0.8l0.8-0.8C242.6,352.6,242.6,352.9,242.5,353.1z"/>
<path class="st16" d="M182.9,46.2l-0.8-0.7L182.9,46.2z"/>
<path class="st17" d="M238,385.7l0.7-0.8L238,385.7z"/>
<path class="st16" d="M103.5,57.6l-0.8,0.8L103.5,57.6z"/>
<path class="st16" d="M104.3,56.8l-0.8,0.8L104.3,56.8z"/>
<path class="st16" d="M105.8,55.3l-0.8,0.8L105.8,55.3z"/>
<path class="st16" d="M106.5,54.6l-0.8,0.8L106.5,54.6z"/>
<path class="st16" d="M107.3,53.8c-0.3,0.3-0.5,0.5-0.8,0.8C106.8,54.3,107,54.1,107.3,53.8z"/>
<path class="st16" d="M108,53.1l-0.8,0.8L108,53.1z"/>
<path class="st16" d="M108.8,52.3l-0.8,0.8L108.8,52.3z"/>
<path class="st16" d="M109.5,51.5l-0.8,0.8L109.5,51.5z"/>
<path class="st16" d="M110.3,50.8l-0.8,0.8L110.3,50.8z"/>
<path class="st16" d="M111.1,50l-0.8,0.8L111.1,50z"/>
<path class="st16" d="M111.8,49.2l-0.8,0.8L111.8,49.2z"/>
<path class="st16" d="M112.6,48.5l-0.8,0.7L112.6,48.5z"/>
<path class="st9" d="M247.8,320.5l0.7-0.8L247.8,320.5z"/>
<path class="st18" d="M126.9,307.6c-3.1,11.4-8.9,21.4-16.3,30.5c-0.2,0.4-0.4,0.9-0.4,1.3c1.1,0.4,2.3,0.7,3.5,0.8
	c31.4,0,62.8,0.2,94.2-0.1c7-0.1,8.1,3,5.4,8.2c-1.5,2.8-0.6,6.7-4.1,8.5c-0.9-3.3,0.9-6.1,1.8-9c1.3-4,0.7-5-3.5-5
	c-31.5,0-63,0-94.6,0c-2.1-0.1-4.1,1-5.1,2.9C101,356,95.5,367,88.2,376.9c-0.3,0.5-0.6,1-1,1.5c-2.9,3.6-4.7,7.9-7,11.9
	c-0.2,0.3-0.4,0.6-0.6,0.9c-2.5,2.5-4.8,5.1-7.8,7.1c-1.2,0.8-2.3,1.6-3.8,0.8c-1.3-2.2-2.4-4.4-3.3-6.8c-2.1-5.7-5.8-9.9-11.9-11.5
	c-0.6-1.9,0.8-2.8,1.8-3.8c10.5-10.4,20.9-21.1,31.7-31.3c6.7-6.4,12.8-13.5,19.6-19.8c5.5-5.1,9.7-11.6,16.4-15.3
	c1-1.2,1.8-2.8,3.6-3.1C126.3,307.3,126.6,307.4,126.9,307.6z"/>
<path class="st19" d="M86.9,377.3c7.1-11.4,14.1-22.9,21.3-34.3c0.6-0.9,2.6-1.3,4-1.3c32.3-0.1,64.6,0,96.9-0.1
	c4.2,0,4.7,2,3.6,5.3s-2.3,6.6-3.4,10c-3.1,6.3-5.2,13-6.4,19.9c-0.5,3.2-2,4-5.1,3.9c-6.3-0.3-12.5-0.2-18.8-0.2
	c-4.8,0.6-9.7,0.4-14.3,2.2h-0.1c-0.9,0.8-2.1,0-3,0.7l-0.8,0.1c-2,0.8-4,1.4-6,2.2l0,0c-0.7,0.5-1.7,0.5-2.4-0.1
	c0.5-2.6,2.6-3.2,4.6-3.9c12.4-3.8,25-5.8,37.9-4c3.4,0.5,5.2-0.6,5.6-3.8c0.8-7.5,4.6-13.8,7.1-20.7c0.7-1.9,1.3-3.8,1.8-5.8
	s-0.1-2.9-2.1-3c-1.1,0-2.3-0.1-3.4-0.1c-29.2,0-58.4,0.1-87.6-0.1c-4.8,0-7.6,1.6-10,5.7c-4.3,7.5-8.9,15-13.6,22.3
	c-1.1,1.9-2.5,3.5-4.2,4.9l-0.6,0.3C87.7,377.6,87.2,377.6,86.9,377.3z"/>
<path class="st20" d="M126.9,307.6l-0.8,0c-1.4-1.8,0-3.1,1-4.3c2.1-2.8,4.1-5.7,5.7-8.8c1.6-3.6,2.8-7.6,6.6-9.8
	c0.7,0,1.5,0.6,2.1,0c3.1-3,7-5.5,8.5-9.9c4.1-3,7-7.1,10-11c0.6-0.9,1.6-1.7,2.6-2c1.4-0.1,2.7-0.7,3.7-1.7
	c1.7-1.4,1.9-2.7,0.3-4.2c0.3-1.1,1.1-1.3,2-1.5c2.3,0.1,4.4-0.8,6.6-1.1c3.1-0.5,2.8-3.8,3.8-6c0.2-0.5,0.5-0.9,0.9-1.3
	c0.4-0.4,0.8-0.7,1.2-1c3.4-1.2,5.8-4.3,9.1-5.5l4.5,0.7c-6.4,0.7-9.2,6.4-13,10.1c-18.4,18.3-36.2,37.2-54.2,55.9
	c-0.3,0.2-0.5,0.5-0.7,0.8C127,307.2,126.9,307.4,126.9,307.6z"/>
<path class="st21" d="M152.6,385.7h2.3c-16,4.8-6.9,19.5-11.2,28.9c-0.9,1.9-0.6,4.4-0.8,6.7l-1.4-0.1c-1.5-1.5-0.8-3.3-0.7-5
	c0.5-8.7,1.9-17.2,3.1-25.8C145.6,386.1,148,384.8,152.6,385.7z"/>
<path class="st21" d="M164.8,382.7c4.5-2.7,9.4-2.1,14.3-2.2L164.8,382.7z"/>
<path class="st21" d="M154.9,385.7l6-2.2L154.9,385.7z"/>
<path class="st21" d="M161.7,383.4l3-0.7L161.7,383.4z"/>
<path class="st18" d="M127,306.9l0.7-0.8L127,306.9z"/>
<path class="st22" d="M144.9,390.3l-3.4,30.9c0,0.3-0.1,0.6-0.1,0.8c-17.2-3-34.6-5-51.4-9.9c-5-0.2-9.8-1.7-14.7-2.6
	c-6.4-1.1-12.9-1.3-18.8-4.4c-1.6-2.5,0.9-2.7,2.1-3.3c2.3-1.1,4.8-1.1,7.3-1.7c5.9-1.4,10.2-5,13.5-10l0,0c1.8-2.7,3.4-5.4,4.9-8.2
	c0.5-1,1-1.3,2-1c3,1.2,6.2,0.2,9.3,0.7c13.9,2.3,27.9,4.3,41.7,7C139.8,389.2,142.5,388.8,144.9,390.3z"/>
<path class="st23" d="M56,404.7l34,7.5l-0.8,0.1c-4,0.5-7.9,0.9-11.5-1.7c-1.1-0.7-2.4-0.9-3.7-0.6c-6.3,1.2-11.6-2.3-17.5-3.2
	c-0.4-0.2-0.7-0.5-0.9-0.9c0-0.2,0-0.4,0-0.6L56,404.7z"/>
<path class="st7" d="M55.9,406.2l33.2,6.1c0,0.2,0,0.5,0,0.7l-38.5-5.3c0-0.3-0.1-0.5-0.1-0.7s0.2-0.3,0.4-0.4
	C52.5,405.8,54.3,405.7,55.9,406.2z"/>
<path class="st24" d="M197.9,137.3l0.8,5.1c0.1,0.6,0.2,1.1,0.2,1.7c0.1,0.2,0.3,0.4,0.5,0.5l0.2,0.2c0.1,0.2,0.3,0.4,0.5,0.6
	l0.3,0.9c0.1,0.2,0.3,0.4,0.5,0.6l0.2,0.9c0.1,0.2,0.3,0.4,0.6,0.6l1,1.6c0.2,0.2,0.3,0.5,0.5,0.6c0.1,1.1,0.1,2.1,0.2,3.2
	c0.3,0.9,0.3,1.9,0,2.9l-0.2,2.4c-0.2,0.2-0.4,0.4-0.5,0.6l-1,1.7c-0.2,0.2-0.4,0.4-0.5,0.6l-0.2,1.6c-0.2,0.2-0.4,0.5-0.6,0.7
	l-0.9,1.6c-0.2,0.2-0.4,0.4-0.6,0.7l-0.1,0.9c-0.2,0.2-0.4,0.4-0.5,0.6l-0.3,1c-0.2,0.1-0.4,0.3-0.5,0.6l-0.2,0.9
	c-0.2,0.2-0.4,0.4-0.6,0.6l-0.2,0.2c-0.2,0.1-0.4,0.3-0.6,0.6l-0.2,0.2c-0.2,0.1-0.4,0.3-0.6,0.6l-0.2,0.2c-0.2,0.1-0.5,0.3-0.6,0.6
	l-1.7,0.3c-0.2,0.1-0.4,0.3-0.6,0.5l-3.9,3.2c-0.4,0.3-0.4,0.8-0.5,1.3l-0.3,7c-0.2,0.2-0.4,0.4-0.5,0.6l-1.7,3.2
	c-0.2,0.2-0.4,0.4-0.5,0.6l-0.3,0.9c-0.2,0.2-0.4,0.4-0.5,0.6l-11.5,12.3c-0.2,0.1-0.4,0.3-0.5,0.5c0,3.3,0,6.7,0,10
	c0.1,0.2,0.3,0.4,0.5,0.5l1.8,3.3c0.1,0.2,0.2,0.4,0.4,0.6c0.8,1.3,1.7,2.7,2.5,4c0.1,0.2,0.3,0.4,0.5,0.5c2.2,7.7,10.3,9.4,15,14.5
	l-1.5,0.2c-0.6,0.4-1.4,0.6-2.1,0.4c-1.8-1.1-2.9-3.2-5.1-3.8c-6.5-2.9-8.2-9.8-12.1-14.8c-2.1-2.7-3.9-5.5-3.5-9.2
	c-0.6-4.9,1.4-8.6,4.9-11.9c3.4-3.1,7-6.1,9.1-10.4c1.1-1.9,1.7-3.9,1.8-6.1c0-3.3,1.3-6.5,3.6-8.8c0.3-0.2,0.6-0.4,0.9-0.6
	c0.5-0.2,1-0.4,1.5-0.6c0.3-0.2,0.6-0.3,0.9-0.5s0.9-0.6,1.3-0.9c4-3.9,6.2-8.8,7.9-14c1-2.8,0-5.5-1.6-7.9
	c-1.8-2.5-2.7-5.5-2.5-8.5C196.4,139.2,195.8,137.5,197.9,137.3z"/>
<path class="st25" d="M188.9,238l2.1,0.1c-0.2,0.5-0.4,0.9-0.6,1.4c-2.4,2.9-5.2,5.3-9.1,6.1c-0.1-0.2-0.1-0.3-0.2-0.5
	C182.7,241.6,185.8,239.7,188.9,238z"/>
<path class="st9" d="M241.8,354.6v4.6C240.7,357.9,240.7,356,241.8,354.6z"/>
<path class="st9" d="M241.8,367.5h-0.7c0.2-0.8,0.5-1.5,0.7-2.3V367.5z"/>
<path class="st15" d="M203.4,156.8c0-0.9,0-1.9,0-2.9C203.4,154.9,203.4,155.9,203.4,156.8z"/>
<path class="st15" d="M187.6,178.8l0.5-1.3C187.9,177.9,187.8,178.3,187.6,178.8z"/>
<path class="st15" d="M201.2,162.1c0.2-0.2,0.4-0.4,0.5-0.6C201.5,161.7,201.3,161.9,201.2,162.1z"/>
<path class="st15" d="M202.7,159.9l0.5-0.6L202.7,159.9z"/>
<path class="st15" d="M171.7,204.5l0.5-0.5C172.1,204.2,172,204.4,171.7,204.5z"/>
<path class="st15" d="M172.2,215.1l-0.5-0.5C172,214.7,172.1,214.9,172.2,215.1z"/>
<path class="st15" d="M174.5,218.9l-0.4-0.6C174.3,218.5,174.4,218.7,174.5,218.9z"/>
<path class="st15" d="M177.5,223.4l-0.5-0.5C177.2,223,177.4,223.2,177.5,223.4z"/>
<path class="st15" d="M203.2,150.8l-0.5-0.6L203.2,150.8z"/>
<path class="st15" d="M201.7,148.5c-0.2-0.2-0.4-0.4-0.6-0.6C201.3,148.1,201.5,148.3,201.7,148.5z"/>
<path class="st15" d="M200.9,147l-0.5-0.6L200.9,147z"/>
<path class="st15" d="M197.4,169.7l0.5-0.6L197.4,169.7z"/>
<path class="st15" d="M200.2,145.4l-0.5-0.6L200.2,145.4z"/>
<path class="st15" d="M199.4,144.6l-0.5-0.5C199.1,144.2,199.3,144.4,199.4,144.6z"/>
<path class="st15" d="M196.6,171.2l0.6-0.6L196.6,171.2z"/>
<path class="st15" d="M195.8,172l0.6-0.6L195.8,172z"/>
<path class="st15" d="M195.1,172.8l0.6-0.6L195.1,172.8z"/>
<path class="st15" d="M194.3,173.5l0.6-0.6L194.3,173.5z"/>
<path class="st15" d="M192,174.2l0.6-0.5L192,174.2z"/>
<path class="st15" d="M198.2,168.2l0.5-0.6L198.2,168.2z"/>
<path class="st15" d="M198.8,166.7l0.6-0.7L198.8,166.7z"/>
<path class="st15" d="M186.8,186.4l0.5-0.6L186.8,186.4z"/>
<path class="st15" d="M184.6,190.2l0.5-0.6L184.6,190.2z"/>
<path class="st15" d="M183.8,191.7l0.5-0.6L183.8,191.7z"/>
<path class="st15" d="M200.3,164.4c0.2-0.2,0.4-0.5,0.6-0.7C200.7,164,200.5,164.2,200.3,164.4z"/>
<path class="st26" d="M122.4,200.2c-5.9-2.1-10.1-7.3-11-13.4c-0.8-4.8-2.3-8.4-5.8-11.6c-9.3-8.3-15-17.6-8.2-30.3
	c0.4-0.8,0.1-2,0.1-3l0.4-0.3c0.3,0,0.6,0,0.9,0.1c0.4,0.2,0.8,0.5,1.1,0.9c0.4,0.5,0.6,1.2,0.5,1.9c0,0.3-0.1,0.7-0.3,1
	c-0.5,0.9-1,1.8-1.4,2.7c-3.6,10,0.4,17.5,7.7,24c0.3,0.2,0.5,0.5,0.8,0.8l0.4,0.4c3.8,3.6,6.3,7.6,6.5,13.1
	c0.2,4.4,3.3,7.5,6.3,10.4c0.6,0.6,1.2,1.2,1.9,1.8c0.2,0.2,0.5,0.5,0.6,0.8C122.7,199.6,122.6,199.9,122.4,200.2z"/>
<path class="st27" d="M122.4,200.2l0-0.8c3.1,0,4.1,0.9,4.1,4.5c0,5.4,0,10.7,0,16c-0.2,4.1-2.2,6.9-5.8,8.9
	c-4.6,2.5-8.6,5.9-13,8.7c-1,0.7-1.9,1.6-3.3,1.7c-0.6-0.1-1.1-0.4-1-1.2c0-0.3,0-0.5,0.1-0.8c5.5-3.7,11-7.5,16.7-11
	c4.7-2.9,4-7.5,3.7-11.8C123.5,209.6,125.6,204.6,122.4,200.2z"/>
<path class="st26" d="M97.4,141.8l-0.7-1.5l0.3-0.3c0.3-0.1,0.6,0,0.8,0.1c0.2,0.2,0.3,0.5,0.3,0.8c0,0.3-0.1,0.5-0.3,0.7
	L97.4,141.8z"/>
<path class="st26" d="M96,140.2v-0.8c0.6-0.1,0.9,0.1,0.7,0.8l-0.1,0.1C96.5,140.3,96.2,140.2,96,140.2z"/>
<path class="st28" d="M43.1,363c4.1-7.5,5-15.5,4.6-23.9c-0.5-9.2-0.6-18.4-0.9-27.5l0.6-0.3c0.4,0.1,0.8,0.3,1.1,0.5
	c0.5,0.5,0.8,1.1,0.9,1.7c0.5,1.4,0.8,2.9,0.8,4.4c0.1,9.8-0.1,19.6,0.2,29.4c0.2,4.8-1.9,9.1-3.4,13.4c-1.2,3.4-1.9,6.7-1.3,10.3
	c0.4,2,0.3,4.1-0.3,6c-0.4,1.1-0.5,2.9-2.6,2.1C42.3,373.8,41.7,368.4,43.1,363z"/>
<path class="st29" d="M46.8,279.5c5.1-18.4,19.3-26.3,35.9-31c6.7-1.9,11.1-7.6,17.7-9.2l0.3,0.5c-0.8,3-3.9,3.2-5.9,4.9
	c-3.7,3.2-8.3,4.9-12.9,6.7c-7.6,2.8-15.3,5.5-21.9,10.4c-3,2.3-4.8,5.4-6.5,8.7c-1.6,3.1-2.6,6.6-5.2,9.1c-0.3,0.2-0.7,0.3-1.1,0.3
	L46.8,279.5z"/>
<path class="st29" d="M46.8,311.6c-2.9-4.1-2.9-27.9,0-32l0.2,0.2c0.6,0.7,0.8,1.6,0.7,2.5c-0.8,8.9-0.8,17.8,0,26.7
	c0.1,0.9-0.1,1.8-0.7,2.5L46.8,311.6z"/>
<path class="st30" d="M43.1,363v16.6h-0.6c-0.3-0.3-0.5-0.8-0.5-1.2c0.2-5.1-0.4-10.3,0.4-15.4l0,0L43.1,363z"/>
<path class="st29" d="M103.5,237.9l0.9,0.7c0.2,0.4,0.2,0.9-0.2,1.1c-1.1,0.8-2.6,0.7-3.5-0.1l-0.3-0.3L103.5,237.9z"/>
<path class="st11" d="M42.3,363v16.7l-0.3,0.2h-0.4l-0.3-0.2L42.3,363z"/>
<path class="st7" d="M46.1,402.4l-6-6.8l0.5-0.2c2.9,1.4,5.5,3.1,5.9,6.6L46.1,402.4z"/>
<path class="st7" d="M40.1,395.6l-0.7-6.9c0.3-0.3,0.8-0.4,1.2-0.2C42.5,391,41.2,393.2,40.1,395.6L40.1,395.6z"/>
<path class="st11" d="M40.1,388.7h-0.8c0-1.8,0-3.5,0-5.3c0.4-0.1,0.9,0,1.2,0.4C41.4,385.5,41.6,387.2,40.1,388.7z"/>
<path class="st11" d="M40.8,381.1c0-0.2,0-0.5,0-0.7c0.2-0.3,0.6-0.3,0.9-0.1c0.3,0.4,0.5,1,0.4,1.5c-0.1,0.3-0.3,0.7-0.5,0.9
	c-0.3,0.1-0.7,0.1-1-0.2C40.4,382.1,40.4,381.5,40.8,381.1z"/>
<path class="st7" d="M40.8,381.1v1.5l-0.2,0.3h-0.4l-0.2-0.3L40.8,381.1z"/>
<path class="st7" d="M41.6,380.4c-0.2,0-0.5,0-0.7,0l0.6-0.8h0.1c0.2,0.2,0.2,0.3,0.2,0.5S41.7,380.4,41.6,380.4z"/>
<path class="st7" d="M40.1,383.4h-0.8c0.2-0.3,0.5-0.5,0.7-0.8l0,0l0.3,0.4L40.1,383.4z"/>
<path class="st7" d="M46.9,403.2l-0.8-0.8l0.1-0.1c0.3-0.1,0.7,0.1,0.8,0.4L46.9,403.2z"/>
<path class="st7" d="M47.6,403.9l-0.8-0.8l0.1-0.1c0.3-0.1,0.7,0,0.8,0.4L47.6,403.9z"/>
<path class="st7" d="M48.4,404.7l-0.8-0.8l0.1-0.1c0.3-0.1,0.7,0,0.8,0.4L48.4,404.7z"/>
<path class="st7" d="M49.1,405.5l-0.8-0.8l0.1-0.1c0.3-0.1,0.7,0,0.9,0.4L49.1,405.5z"/>
<path class="st7" d="M49.9,406.2l-0.8-0.8l0.1-0.1c0.3-0.1,0.7,0,0.9,0.3L49.9,406.2z"/>
<path class="st7" d="M50.6,406.9l-0.8-0.7l0.1-0.1C50.6,406,50.8,406.2,50.6,406.9L50.6,406.9z"/>
<path class="st31" d="M96.8,140.2l-0.7-0.8l0,0c-0.2-0.2-0.5-0.4-0.7-0.6c-8.6-14.4-13.4-28.9-9.8-46.5c3.8-19,17.5-30.3,28.7-43.7
	c6.9-4.8,15.4-1.2,22.6-4.6c14.3-5.6,28.6-6.5,42.3,1.7c10.7,6.4,16.5,17.6,24.2,27c0.5,0.7,0.5,1.6,0,2.3c-1,0.3-1.4-0.3-1.7-1
	c-1.1-2.3-3-4-4.8-5.8c-2.7-2.7-5.1-5.8-7-9.2c-3.8-6.1-9.4-10.2-15.9-13.3c-4.2-2.2-9-3.2-13.7-2.9c-2.8,0.2-5.5,0.2-8.3,0
	c-3.8-0.4-7.5,0.5-10.8,2.6c-3.5,2.2-7.7,3.2-11.9,2.8c-3.4-0.2-6.8-0.4-9.8,1.7c-6.6,3.4-11.9,8.3-15.2,15.1
	c-1.1,1.9-2.4,3.5-4.1,4.9c-6,5.9-10,12.8-10.7,21.4c-0.1,1.5-0.8,2.9-2,3.9c-1.1,0.9-1.7,2.2-1.6,3.6c0.2,5.1-0.8,10.1,2,15
	c1.9,3.3,1.6,7.4,2.8,11.1c1.6,5,3.6,9.5,7.2,13.3c0.2,0.4,0.2,0.8,0.2,1.2c-0.1,0.4-0.3,0.8-0.6,1C97.2,140.4,97,140.3,96.8,140.2z
	"/>
<path class="st26" d="M95.3,138.8l0.7,0.6L95.3,138.8z"/>
<path class="st32" d="M207.7,100c-1,3.3-1.9,6.7-2.8,10l-0.4-0.4c0-3.2-0.4-6.5,0.8-9.6c0.2-0.4,0.4-0.7,0.6-1
	c0.4-0.4,1-0.7,1.6-0.7l0.5,0.3C207.8,99.1,207.8,99.6,207.7,100z"/>
<path class="st32" d="M208.6,84.9c-0.2,4.6-0.5,9.2-0.7,13.7l-0.2-0.1c-1.3-1.2-0.9-2.8-1-4.2c0-0.6,0-1.3,0-1.9
	c-0.1-2.1,0-4.2,0.2-6.3c0.1-0.4,0.3-0.8,0.6-1.1C207.8,84.7,208.3,84.7,208.6,84.9z"/>
<path class="st32" d="M203.3,75c0-0.8,0-1.6,0-2.3l3.9,5.3l-0.2,0.3l-0.4,0.1l-0.4-0.1c-0.2-0.1-0.5-0.2-0.7-0.4l-0.3-0.3
	c-0.2-0.2-0.4-0.3-0.5-0.5c-0.1-0.1-0.2-0.2-0.3-0.3c-0.2-0.2-0.4-0.4-0.5-0.6c0,0-0.2-0.3-0.2-0.3c-0.2-0.2-0.3-0.4-0.4-0.7
	L203.3,75z"/>
<path class="st32" d="M207.9,78.8l0.7,4.6c-0.3,0.3-0.7,0.3-1,0.1c-0.3-0.3-0.5-0.6-0.6-1c-0.3-1.1-0.2-2.4,0.4-3.4L207.9,78.8z"/>
<path class="st31" d="M207.7,83.4h0.9v1.5h-0.9C207.3,84.5,207.3,83.9,207.7,83.4z"/>
<path class="st32" d="M207.2,78c0.2,0.3,0.5,0.5,0.7,0.8l-0.1,0.1c-0.6,0.1-0.9-0.2-0.7-0.8L207.2,78z"/>
<path class="st32" d="M197.9,137.3c-0.3,1.3-0.5,2.6-0.8,3.9c-0.5,0.3-1.1,0.3-1.6,0c-1.1-1.3-0.8-2.8-0.3-4.2
	c0.1-0.3,0.3-0.7,0.4-1c0.2-0.5,0.3-1,0.4-1.6c1.9-6.3,2.6-12.8,5.5-18.8c0.7-1.4,0.6-2.9,1-4.3c0.1-0.4,0.3-0.7,0.6-1
	c0.4-0.4,1-0.6,1.6-0.4l0.2,0.2C202.6,119.1,200.3,128.2,197.9,137.3z"/>
<path class="st2" d="M144.9,390.3c-8.7,0.2-17-2.5-25.5-3.8c-10.3-1.6-20.8-2.6-31.1-4c-1-0.3-2-0.8-2.9-1.4c-0.8-1.2,0.3-2,0.8-3
	l0.8-1l0.8,0.1c0.2,0.3,0.4,0.6,0.6,0.9c0.1-0.5-0.3-0.7-0.5-1c6.7-10.5,13.5-21,20.1-31.6c1-1.8,3-2.8,5-2.6c31.8,0,63.6,0,95.4,0
	c3.2,0,3.7,0.4,2.8,4c-2.3,9.4-8.2,17.5-9.2,27.3c-0.9,8.4-7.2,3.9-11.3,3.9c-13.1,0.3-26.1,0.3-38,7.2
	C149.9,387.1,145.8,386,144.9,390.3z"/>
<path class="st33" d="M41.6,382.6v-0.7c0.3-0.3,0.6-0.4,1-0.3c2.1,0.9,3.3-0.4,4.5-1.8c7.6-9.1,16.5-16.9,24.5-25.6
	c10.2-11,21.2-21.1,31.4-32c3.1-3.3,6.6-6.2,9.8-9.4c2.1-2.1,3.3-4.1,3-7c1.5-0.6,2.4,0.3,3.3,1.2c0.9,1.8,3,2.2,4.1,3.7l-70.2,69.6
	c-1.8,4-5.3,6.1-8.6,8.6c-0.4,0-0.7-0.2-1-0.5C42.6,386.7,40,385.3,41.6,382.6z"/>
<path class="st34" d="M44.6,388.8l8.3-8.4c6.2-1.1,8.4,4.1,11.1,7.7c2.1,2.9,2.7,6.9,4,10.5c-0.3,1.1-1.3,1.9-2.5,2
	c-5.1,0.8-10.1,3-15.5,2c-0.4,0-0.8-0.1-1.1-0.2c-0.4-0.1-0.7-0.3-1-0.5c-0.3-0.2-0.6-0.5-0.8-0.8c-0.4-0.8-1-1.5-1.8-1.9
	c-0.3-0.2-0.6-0.5-0.8-0.8c-0.3-0.3-0.5-0.6-0.6-1c-0.1-0.4-0.2-0.7-0.3-1.1C43.6,393.8,42.7,391.1,44.6,388.8z"/>
<path class="st35" d="M123.2,310.8c-2.1-0.1-4.1-0.5-4.5-3.1c0-1.4,1.1-2.2,1.9-3.1c2.6-2.9,5.9-5.1,8.4-8.1
	c1.1-1.3,2.7-2.4,4.7-1.7c-2.5,4.3-5,8.5-7.5,12.8L123.2,310.8z"/>
<path class="st36" d="M48.4,401.6c6.7,0.2,13.4,0.3,19.6-3c5.2-0.9,7.4-5.8,11.3-8.4c-2.6,7-8.7,9.5-15.1,11.3
	c-2.9,0.8-6,0.8-8.3,3.1l0,0c-0.4,0.4-0.6,1-1,1.3C51.4,406.8,49.4,405.4,48.4,401.6z"/>
<path class="st36" d="M86.1,378.3c-0.3,1-0.5,2-0.7,3l-5.9,9L86.1,378.3z"/>
<path class="st37" d="M133.7,294.8l-15,12.9l-3-1.5c-0.4,0.3-1,0.3-1.4,0c-3.7-3.1-7.7-5.9-11.2-9.3c-1.4-1.2-1.6-3.3-0.5-4.8
	c2.7-3.9,4.5-8.4,7.5-12c2.8-2.6,4.2-6.2,6.1-9.5c0.1-0.3,0.3-0.6,0.5-1c0.2-0.3,0.4-0.6,0.6-0.9c0.1-0.1,0.2-0.3,0.3-0.4
	c0.2-0.3,0.4-0.6,0.6-0.9l0.3-0.5c8.1-11.2,11.2-24.3,15-37.2c0.7-2.2,1.5-4.3,2.5-6.3c2.1-3.9,3.6-8,4.5-12.4c0.7-3.8,1-7.6,2-11.3
	c0.5-2.5,1.3-4.9,2.3-7.2c0.8-1.6,1.3-3.2,0.4-5c-0.9-1.7-0.4-3,1.5-3.5c2.9-0.8,4.3-3.7,7.3-4.4c1.9-0.5,1.8-4,0-7.1
	c-1.3-2.1-2.6-4.1-0.4-6.5c0.3-0.2,0.6-0.4,1-0.5c7,1.7,10.2,8.7,7.3,15.2c-1.5,3.3-0.6,7.1-2,10.5c-2,5.2-1.4,10.9-3.2,16.2
	c-0.6,1.8,0.2,2.6,2.1,2.4c3.2-0.8,6.3,1.5,9.6,0.5c0.4,0,0.7,0.1,1,0.4c2.4,9.6,8,17,15.1,23.4c-1.1,4.6-2,9.2-4.9,13.1
	c-0.4,1.5-1.4,2.9-1.9,4.4c-0.3,1.1-1.2,2.2-2.4,2c-2.3-0.3-4,1.1-5.9,1.6l-2.3,0.7c-0.5,2.6-2.1,4.4-3.9,6.2
	c-4.8,3.8-6.2,10.8-12.7,12.8c-3.8,1.6-6.9,4.6-8.7,8.3c-0.4,0.8-1.1,1.4-1.9,1.7L133.7,294.8z"/>
<path class="st38" d="M139.8,285c2.6-4.3,3.9-10.1,10.6-9.9l1.5,0.9c-3.4,3.5-6.6,7.2-10.1,10.5C140.1,288.2,139.9,286.2,139.8,285z
	"/>
<path class="st39" d="M163.2,262.2c0.2-2.7,2.2-4.4,3.9-6.2c1.1,0.5,4-0.2,3.1,1.1C168.6,259.4,167.5,263.5,163.2,262.2z"/>
<path class="st25" d="M169.3,255.3c3.7-2.2,8.4-3.3,9.8-8.3l0.4-0.3l0.4,0.3C180.2,254.7,174.6,254.8,169.3,255.3z"/>
<path class="st25" d="M180.6,246.3l-0.7,0.8l-0.1-0.1c-0.2-0.3,0-0.7,0.3-0.9c0,0,0,0,0,0L180.6,246.3z"/>
<path class="st25" d="M181.4,245.6l-0.8,0.7h0C180.4,245.6,180.6,245.4,181.4,245.6L181.4,245.6z"/>
<path class="st30" d="M48.4,401.6c2,1.9,2.8,5.7,6.9,3.8c0.1-0.2,0.4-0.2,0.6-0.1c0.1,0,0.1,0.1,0.1,0.1c0,0.3,0,0.5,0,0.8l-5.2,0.6
	c-0.3-0.2-0.5-0.5-0.8-0.7s-0.5-0.5-0.8-0.8l-0.8-0.8l-0.8-0.8l-0.8-0.8l-0.8-0.8c-2-2.3-4-4.5-6-6.8c0-2.3,0-4.5,0-6.8v-5.3l0,0
	c0.2-0.3,0.5-0.5,0.7-0.8l0,0c0.3,0,0.5,0,0.8,0l2.3,6.1c-0.7,3.1-1.5,6.2,0.8,9.1l0,0c0.2,0.3,0.5,0.5,0.8,0.8l0,0
	c0.9,0.6,1.7,1.4,2.3,2.3l0,0c0.2,0.3,0.5,0.5,0.8,0.8L48.4,401.6z"/>
<path class="st22" d="M56,405.4l-0.7-0.1l0.7-0.7C56,404.9,56,405.2,56,405.4z"/>
<path class="st22" d="M158.7,210.7c-2.6,1.6-4.3,0.4-3.5-2.2c2.9-10.1,3.2-20.7,6.7-30.8c1.8-5.3-2.8-9.3-7.7-11.7
	c4.3-4.3,1.7-8.9,0.5-13.4c-0.5-2.3-1.3-4.6-2.4-6.7c-0.9-1.6-2.1-2.8-4.2-2.7c-1.8,0.1-3.4,1.3-3.9,3.1c-1.8,4.7-3.1,9.5-4,14.5
	c-0.3,2.1,1.5,3.2,3,3.9c2.3,1.1,4.7,2.1,7.5,1.2c1.1-0.4,2.4-0.9,3.5,0.2c-0.2,1.3-1.1,3.1-0.6,3.8c8.1,9.7-1.4,11.2-6.5,15.5
	c-2,1.7-0.4,6.3-1.9,9.7c-4,9.1-3,19.8-8.4,28.6c-1.8-2.3-0.4-4.6,0.3-6.8c2.3-7.1,2.4-7.1-4.8-9.4c-0.6-0.2-1.2-0.4-1.8-0.6
	c-2.5-1.1-3.1,0-3.1,2.3c0,2.8,0.1,5.5,0.3,8.3c0.1,1.6,0.4,3.7-2.2,3.9c0-5.9,0-11.7,0-17.6c0-2.2-0.5-4-3-4.3l0,0
	c-0.7-0.6-1.5-0.9-2.3-1.5c-4.6-3.6-7.6-8-7.6-14.2c0-4.3-3.5-7-6-10c0.2-0.7,0.7-1.3,0.4-2.1c-2.4-7.7-3.5-15.7-5.4-23.4
	c-0.3-1.2-0.9-2.3-1.8-3.2l-0.6-2.3c1.8-1.6,2.1-2.9,1.6-5.7c-1.9-10-4-20-1.8-30.6c1.3-6.4,3.3-12.6,5.8-18.6
	c0.1-0.4,0.2-0.7,0.4-1.1c2.2-2.9,4.4-5.7,6.6-8.6c0.2-0.3,0.5-0.6,0.8-0.9c0.3-0.3,0.5-0.6,0.8-0.8l0.5-0.4
	c7.8-6.5,16.7-8.6,26.7-6.6c1,0.1,2,0.2,3,0.1c2.7-0.2,4.3,2.2,6.7,2.8c1.9,1.7,3.7,1.7,6.2,0.8c5.9-2.3,12.1-1.9,18.1-0.4
	c3.3,0.8,4.2,3.1,3.9,6.7c-0.6,9.2,2.1,17,9.9,22.6c6.6,2.9,4.7,8.9,4.9,14.1c0,6.9,0,13.9,0,20.8c0,3-0.4,6.1,1.8,8.6
	c0.7,0.8,0.8,1.9,0.4,2.9c-3.4,8.1-3.1,17.1-6.3,25.2c-0.6,0.8-1.7,1.5-1.8,2.3c-1.2,11.9-8.6,19.9-16.7,27.7
	c-1.4,1.4-0.8,4.7-1.2,7.2h-0.8c-1.6-1.3-0.7-3.3-1.5-5.2c-2.1,1.2-4.4,2-6.8,2.5C158.7,208.4,157.9,209.1,158.7,210.7z"/>
<path class="st40" d="M188.9,173.6c1.4-7.7,1.6-15.9,4.5-23c1.8-4.4-1.6-6-1.5-9.2c0.3-8.5,0.2-17.1,0.2-25.6h0.6
	c0.3,0.2,0.6,0.6,0.8,0.9c0.7,6.1,0,12.3,0.4,18.4c0.1,2-1,4.7,2,5.8l1.3,0.2c0.8,2.3,1.2,4.9,2.4,7c4,6.8-0.3,20.7-7.7,23.9
	c-0.2,0.2-0.4,0.4-0.7,0.6l-0.8,0.1c-0.2,0.2-0.4,0.4-0.7,0.6L188.9,173.6z"/>
<path class="st41" d="M181.3,245.5l-0.8,0.8l-0.8,0.8h-0.7l5.3-12.9c2.7-0.1,3.6,1.9,4.5,3.9L181.3,245.5z"/>
<path class="st22" d="M191.2,172.7l0.7-0.6L191.2,172.7z"/>
<path class="st22" d="M189.7,173.5l0.7-0.6L189.7,173.5z"/>
<path class="st42" d="M99.8,144.8c6.1,1.7,3,7.5,4.8,11.1c2.3,4.8,2.8,10.5,4.1,15.9c0.4,1.8-0.9,1.8-2.1,1.8l0,0
	c-0.2-0.3-0.5-0.5-0.8-0.7c-9.2-7.6-12.5-18.9-7.6-25.8C98.8,146.3,99.3,145.6,99.8,144.8L99.8,144.8z"/>
<path class="st43" d="M105.8,86.4c-3.1,9.6-7,19-6.8,29.4c0,7.7,1.2,15.3,3.4,22.6c0.9,2.7-0.6,4-3.3,4.1l-0.9-0.7
	c0.1-0.2,0.1-0.4,0.2-0.6c0.3-0.5,0.5-1.1,0.8-1.6c0.3-5.3-1.3-10.4-2.2-15.6c-1-6.1-0.9-12.3,0.5-18.3c1-5,2.5-10,4.5-14.7
	C102.7,89.2,103.4,87,105.8,86.4z"/>
<path class="st22" d="M99.8,144.8l-1.6,2.3L99.8,144.8z"/>
<path class="st27" d="M120.2,197.9l2.3,1.5L120.2,197.9z"/>
<path class="st43" d="M97.6,141.6c0-0.2,0-0.3,0-0.5l0.4-0.3l0.4,0.4l-0.1,0.5l-0.1,0.1C98,141.7,97.8,141.7,97.6,141.6z"/>
<path class="st22" d="M105.8,172.8l0.8,0.7L105.8,172.8z"/>
<path class="st44" d="M125.5,221.3c2.5-4.5,0-9.2,0.7-13.8c0.4-2.5,0.2-3,3.6-2.6c15.1,1.8,8.1,11.2,7,18.6
	c-5.6,15.1-7.9,31.5-18.2,44.6c-2-2.6,0.7-4.1,1.3-6.1c1.1-2,2.4-3.8,3.4-5.9c1.7-3.5,1.7-3.4-1.8-4.7c-5.2-2-10-4.7-14.4-8.2
	c-1.3-1-2.6-2-2.9-3.8c0-0.3,0.1-0.6,0.1-0.9C110.9,232.2,121,230.2,125.5,221.3z"/>
<path class="st45" d="M98.3,140.9c-0.2,0-0.4,0.1-0.6,0.2l-0.3-0.8c0.1-0.3,0.1-0.7,0.2-1C98.7,139.5,98.7,140.1,98.3,140.9z"/>
<path class="st18" d="M120.9,262.2c-0.8,2-1.6,4-2.3,6l0,0c-0.2,0.3-0.4,0.5-0.7,0.8l0,0c-0.2,0.3-0.5,0.5-0.7,0.7l0,0
	c-1.5,3.8-4.1,7-6.1,10.5c-2.6,4.1-5.3,8.1-7.8,12.3c-1.4,2.2,0.4,3.5,1.8,4.7c3.5,3,7.1,5.9,10.7,8.8c4.4,6.8-3.2,8.1-5.6,10.6
	C89.8,338.2,69,359,48.5,380.1c-3.5,3.6-4.5,4.4-6.1,1.9c-0.3-0.2-0.4-0.5-0.3-0.8c0.2-0.6,0.6-1.1,1-1.5l0,0
	c3.5-7,0.5-14.7,3.4-22.2c5.5-14.4,2.6-30,1.9-45.1l0.5-0.2c1.2,0.5,2.1,1.7,2,3c0.3,4.3,1.4,8.4,0.5,12.8
	c-0.8,3.8,0.9,7.7,0.1,11.7c-0.4,1.6,0.9,1.5,1.9,0.8c1.2-0.9,2.4-1.8,3.6-2.8c1.7-1.5,3.3-3.3,5.4-4c8.7-3,13.4-10.3,18.9-16.8
	c6.4-7.7,12.6-15.7,18.9-23.5c4.8-5.9,8-12.8,11.8-19.4c1.8-3,3.6-6.1,5.5-9.1C118,263.3,118.9,261.8,120.9,262.2z"/>
<path class="st18" d="M47,311.3c-1.4-10.5-1.4-21.1,0-31.6c0.2-0.1,0.4-0.1,0.6-0.1c0.9,0.9,1.4,2.1,1.3,3.4c0.1,8.3,0.1,16.7,0,25
	c0,1-0.3,2-0.8,2.9l-0.5,0.5C47.4,311.5,47.2,311.4,47,311.3z"/>
<path class="st18" d="M48.3,312.2l-0.7-0.8l0.1-0.1C48.3,311.3,48.6,311.5,48.3,312.2L48.3,312.2z"/>
<path class="st1" d="M48.4,312.2c-0.2-0.3-0.5-0.5-0.7-0.8c0-10.6,0-21.2,0-31.8c4.5-8.9,8-18.6,18.1-23c8.4-3.6,17-6.8,25.3-10.6
	c3.5-1.6,6.4-4.2,9.6-6.4l3.6-0.1c6,5.1,12.8,9,20.1,11.7c5,1.8-1.2,4.8-1.2,7.6c0,1.1-1.5,2.3-2.3,3.4
	c-7.7,8.6-11.3,19.9-18.3,28.9c-10.1,13.2-20.2,26.6-31.8,38.5c-5,5.2-12.8,8-18.6,13c-2.5,2.1-2.3-1-2.3-2.4
	c-0.1-8,0-15.9-0.1-23.9C49.8,314.9,48.9,313.6,48.4,312.2z"/>
<path class="st28" d="M43.1,379.7l-0.7,1.5c-0.4-0.4-0.5-1-0.1-1.4c0,0,0.1-0.1,0.1-0.1l0,0L43.1,379.7z"/>
<path class="st30" d="M42.4,379.6c0,0.5,0,1,0,1.5c0,0.3,0,0.5,0,0.8h-0.8c0-0.5,0-1,0-1.5c0-0.3,0-0.5,0-0.7L42.4,379.6z"/>
<path class="st11" d="M40.8,382.7l-0.7,0.8c0-0.3,0-0.5,0-0.8H40.8z"/>
<path class="st46" d="M87,94.1c1.8-6.3,2.3-13.3,6.8-18.2c8.2-8.9,12.9-21.3,24.9-26.6c3.4-1.7,7.1-1.7,10.7-1.4c4,0.3,8-0.8,11.4-3
	c2.9-1.8,6.3-2.7,9.7-2.4c2.1,0.3,4.3,0.3,6.4,0c8.8-1.4,16.4,1.8,23.5,6.1c4.4,2.5,7.9,6.3,10.1,10.9c0.6,1.7,1.6,3.2,2.8,4.4
	c5,4,7.8,9.8,12.1,14.3c0.3,0.4,0.8,0.7,0.9,1.2c1,6.6,1.9,13.2-0.7,19.7c-0.7,1.4-1.2,3-1.3,4.6c0,2.5-3.3,15-4.6,17.2
	c-1.1,1.9-0.6,3.9-1.1,5.9s-0.3,5.1-2.8,5s-1.9-3.1-2-5c0-6.8-1.6-13.5-1.2-20.3c0-0.4-0.1-0.8-0.3-1.1c-0.2-0.3-0.5-0.6-0.7-0.9
	l-0.4-0.4c-3.6-2.2-7.6-4.1-9.4-8.3c-0.2-0.3-0.3-0.6-0.5-0.8l-0.3-0.4l-0.6-0.8c-0.2-0.3-0.4-0.6-0.5-0.9c-0.1-0.7-0.4-1.3-0.6-1.9
	c-0.2-0.7-0.3-1.3-0.3-2c-0.3-4-1.2-8-0.3-12.1c0-0.3-0.1-0.6-0.2-0.9c-0.1-0.3-0.3-0.5-0.5-0.8s-0.2-0.2-0.3-0.4s-0.4-0.4-0.6-0.6
	l-0.3-0.3l-0.7-0.5l-0.4-0.3c-0.7-0.3-1.5-0.4-2.2-0.3c-0.6,0-1.2-0.2-1.8-0.4c-0.9-0.3-1.9-0.4-2.8-0.4c-0.3,0-0.6-0.1-0.9-0.2
	c-1.4-0.4-2.9-0.4-4.3,0c-0.3,0.1-0.7,0.2-1,0.2c-1,0-2,0.1-3,0.4c-0.7,0.1-1.4,0.2-2.1,0.4c-2.1,0.1-4,1.6-6.2,0.8
	c-0.4-0.1-0.7-0.3-1-0.6c-5.1-2.8-10.2-5-16.2-5.2c-8.4-0.2-15.1,3.2-20.8,8.7c-7,6.7-12,15.2-14.4,24.6c-2.2,8.4-2.1,16.7-1.5,25
	c0.3,3.6,2,7,2.2,10.6c0.1,1,0.8,2.2-0.3,2.7s-1.6-0.9-2.4-1.4c-3.5-3.4-5-7.7-6.8-12.2c-1.9-4.9-2.3-10.1-4.1-15
	C84.4,105.6,84.1,99.5,87,94.1z"/>
<path class="st47" d="M192.7,104.6c0.8,7.9,1.5,15.9,2.3,23.8c0.2,0.9,0.4,1.9,0.8,2.8c0.5-0.6,1.4-1,1.5-1.7
	c2.3-14.4,8.2-27.9,9.1-42.7c0.4-6.8-3.2-11.7-6.8-15.2c-8.7-8.6-12.9-21.6-26.2-25.9c-11.9-3.8-23.5-4.5-34.8,0.9
	c-6.6,3.2-13.4,0.6-19.9,2.5c0.4-0.4,0.9-1.2,1.3-1.2c15.9,0,30.7-9.7,46.9-6.1c6.4,1.4,12.8,4.1,17.3,9.2
	c6.7,7.7,12.8,15.9,19.1,23.8l0,0c0.2,0.3,0.5,0.5,0.7,0.8l0,0c0.3,0.2,0.5,0.5,0.8,0.8l0,0c0.3,0.2,0.6,0.5,0.8,0.8l0,0
	c0.3,0.2,0.6,0.5,0.8,0.8l0,0c1.6,1.1,0.9,3.1,1.5,4.5c0,0.2,0,0.5,0,0.7v1.5c-0.1,0.2-0.1,0.5,0,0.7c-0.6,2.3-0.6,4.7,0,7V94
	c-0.8,1.7,0.2,3.9-1.5,5.4l0,0c-1.2,1.4-1.3,3.1-1.1,4.9c0.3,2.3-0.5,4.7-2,6.5l0,0c-0.9,1.4,0.3,3.2-0.8,4.6l-5.5,20.5
	c0,0.3-0.2,0.5-0.5,0.6l-0.1,0.1c-2.7,0.8-2.8-1-2.9-2.9c-0.3-4.6-0.4-9.2-0.4-13.9c0-1.2,0.4-2.5-0.4-3.6l0,0
	C192.1,112.3,192.1,108.4,192.7,104.6z"/>
<path class="st48" d="M97.5,138c1.2,0.6,2.7,2.1,1.8-1.1c-4.5-16.2-4.5-32.6,3.2-47.6c8.6-16.9,26.8-31.7,48.6-16.5
	c-0.5,0.4-1.2,0.5-1.7,0.1l-5.8-2.4c-8.3-2.5-16.4-2.3-24.1,2.1c-2.3,1.2-4.4,2.8-6.2,4.7l0,0c-0.2,0.3-0.4,0.6-0.8,0.8l0,0
	c-2.7,2.4-4.4,5.7-6.8,8.4l0,0c-9.4,15.6-9.7,32.2-5.6,49.3c0.4,1.8,1.2,3.7-0.4,5.3c-0.5,0.3-1,0.4-1.5-0.1l0,0l-0.8-1.5
	c-0.1-0.2-0.1-0.5-0.2-0.7c-0.2-0.2-0.2-0.4-0.1-0.6C97.3,138.1,97.4,138,97.5,138z"/>
<path class="st45" d="M97.5,138c-0.1,0.3-0.1,0.5-0.2,0.7c-6.7-5.2-7.7-13.1-9.7-20.5c-1.7-6.2-4-12.3-3-19c0.3-2,0.2-4.1,2.4-5.1
	C84.6,110.1,88.7,124.6,97.5,138z"/>
<path class="st31" d="M203.2,110.6l3.1-11.4c-0.5,3.5-1.1,7-1.6,10.6L203.2,110.6z"/>
<path class="st31" d="M206.2,99.3c0.5-1.8,1-3.6,1.5-5.4c0,1.5,0,3,0,4.6L206.2,99.3z"/>
<path class="st31" d="M207.8,92.6c-1-2.2-1-4.8,0-7V92.6z"/>
<path class="st31" d="M207.7,82.7c-0.5-1.5-1-3-1.5-4.5h0.8l0.7,0.8L207.7,82.7z"/>
<path class="st31" d="M206.2,78.2l-0.8-0.8L206.2,78.2z"/>
<path class="st31" d="M205.5,77.4c-0.3-0.3-0.5-0.5-0.8-0.8C205,76.9,205.2,77.1,205.5,77.4z"/>
<path class="st31" d="M204.7,76.6l-0.8-0.8L204.7,76.6z"/>
<path class="st31" d="M204,75.9c-0.2-0.3-0.5-0.5-0.7-0.8L204,75.9z"/>
<path class="st49" d="M192.7,116c0.5,5.7,1.1,11.4,1.5,17.1c0.1,1.6,0.1,3.1,2.2,3.3c-0.2,1.5-0.4,3.1-0.5,4.6
	c-2.7,2.9-3.1,0.5-3.1-1.6C192.6,131.6,192.7,123.8,192.7,116z"/>
<path class="st31" d="M202.5,115.2l0.8-4.6L202.5,115.2z"/>
<path class="st49" d="M196.4,136.3c0.2-0.2,0.3-0.4,0.5-0.6C196.7,135.9,196.6,136.1,196.4,136.3z"/>
<path class="st50" d="M87.8,377.4c1.4,0.1,3.1-0.1,2.4,2.1c-0.2,0.6-1.5,1.5-1.9,1.3c-1.9-0.6-1.1-2.1-0.6-3.4L87.8,377.4z"/>
<path class="st36" d="M44.7,397.8c-4.1-2.7-3.6-5.8-0.8-9.1h0.8L44.7,397.8z"/>
<path class="st36" d="M47.7,400.8l-2.3-2.3L47.7,400.8z"/>
<path class="st36" d="M45.4,398.6l-0.8-0.8L45.4,398.6z"/>
<path class="st36" d="M48.4,401.6l-0.8-0.8L48.4,401.6z"/>
<path class="st51" d="M158.7,210.7l-2.7-1.4c0.7-0.6,1.4-1.2,2.1-1.8c2.8-1.7,7-0.4,8.7-4.3c3.9,1.7,0.7,5.1,1.8,7.5
	C165.2,214.2,162,209.4,158.7,210.7z"/>
<path class="st44" d="M111.1,280.3l6.1-10.5C116.2,273.9,113.9,277.3,111.1,280.3z"/>
<path class="st44" d="M117.9,269l0.7-0.8L117.9,269z"/>
<path class="st44" d="M117.2,269.8l0.7-0.7L117.2,269.8z"/>
<path class="st52" d="M154.1,166c-2.5,0.4-5.3,1.7-7.6,1.1c-3.2-0.8-8.4-2.3-7.6-5.8c1.4-6.6,1.2-14.4,7.5-19.2
	c0.8-0.6,2.8-0.3,3.9,0.1C156.1,144.4,158.8,162.2,154.1,166L154.1,166z"/>
<path class="st53" d="M120.8,113c4.9,1,9.5,1.6,13.3,4.6c1.2,1,2.8,2.1,1.8,3.6c-0.8,1.2-2.2,1.9-3.6,1.9
	c-7.3-0.9-14.6-2.2-21.9-3.4c-0.6-0.1-1.6-1.3-1.5-1.7c0.3-0.9,0.9-2.2,1.7-2.5C114,114.5,117.5,113.8,120.8,113z"/>
<path class="st54" d="M132.3,139.4c2,0.2,2.4,1.6,2.3,3.3s-1.3,2.2-2.7,2.8c-8.6,3.6-15.8-0.3-23-4.2c-1.6-0.9-2.3-2.9-1.2-4.3
	c2.2-2.7,4.5-5.6,8.7-5.2c1,0.8,2,1.5,3.1,2.2c1.8,0.6,2.7,2.6,2,4.4c-0.8,2.7,0.8,2.9,2.8,3.1c2.3,0.2,4.5-0.4,6.5-1.7
	c0.3-0.2,0.7-0.3,1-0.3L132.3,139.4z"/>
<path class="st55" d="M175.5,112.4c4.3-0.3,8.1,1.5,11.9,3c1.3,0.7,1.7,2.2,1.1,3.5c-0.4,0.7-1,1.2-1.8,1.3
	c-7,1.2-14.1,2.3-21.2,3.3c-2,0.3-4.2,0.3-5.2-2.1s0.8-3.6,2.5-4.8C166.6,114.1,171,112.6,175.5,112.4z"/>
<path class="st47" d="M149.4,72.9l1.7-0.1l0,0c2.5,1.9,4.5-0.5,6.8-0.7l2.2-0.1c0.9-0.7,2.2,0.1,3.1-0.7l0,0c1.7-0.6,3.6-0.6,5.3,0
	l0,0c0.9,0.8,2.2,0,3.1,0.7l2.2,0.1c0.9,0.7,2.1-0.1,3,0.7l0,0c0.2,0.3,0.5,0.5,0.8,0.8l0,0c0.2,0.3,0.5,0.5,0.8,0.8l0,0
	c0.2,0.3,0.5,0.5,0.8,0.8l0,0c0.6,4-0.8,8,0.4,11.9c0.2,0.8-0.2,1.7,0.4,2.5l0.1,2.2c0.3,0.5,0.2,1.2,0.7,1.6l0,0
	c0.2,0.3,0.5,0.6,0.8,0.8l0,0c0.2,0.3,0.5,0.6,0.8,0.8c1.7,4.7,6.5,6.1,9.7,9.1c-2.1,1.2-3-0.9-4.5-1.5
	c-8.4-5.5-10.9-13.8-10.1-23.1c0.3-3.7-0.9-5.4-4-5.8c-6.1-0.9-12.1-1.8-18,1.3C153,76,150.8,75.2,149.4,72.9z"/>
<path class="st56" d="M131.7,184.2l-1.1-0.8c0.7-0.7,1.3-1.9,2.1-2.1c4.1-0.9,8.3-1.6,12.5-2.2c1.8-0.3,3.9,0.2,4.1,2.3
	s-1.7,2.8-3.6,2.8C141.6,184.2,137.5,184.2,131.7,184.2z"/>
<path class="st57" d="M187.6,135.6c1.4-0.9,2.4-0.3,3.1,1c0.8,1.4,0.3,2.6-0.7,3.8c-4.7,5.6-19.4,8.7-25.8,5.3
	c-1.9-0.9-3.2-2.3-2.1-4.5c1.8-3.7,2.8-8.3,8.5-7.9c0.3,0.2,0.5,0.6,0.4,0.9c-1.4,1.3-3.6,1.6-4.3,3.8c-0.6,0.8-1.1,1.7-1.5,2.6
	c-0.5,1.7,0.1,2.8,1.9,2.9c4.8,0.1,9.5,0.6,14.3-0.2c2-0.5,3.4-1.9,5.1-2.8s1.9-2.4,0.8-4C187.1,136.1,187.3,135.7,187.6,135.6z"/>
<path class="st58" d="M131.9,139.9c-2.8,2.9-6.3,3.3-10,2.3c-0.8-0.3-1.5-0.7-2.2-1.2c3.9-4.9-2.9-5.8-3.3-9.1
	c7-2.3,15.3,1.7,15.9,7.6l-0.1,0.1L131.9,139.9z"/>
<path class="st59" d="M170.7,133.9c0.1-0.2,0-0.5-0.1-0.6c0.9-4.2,4.3-2.7,6.8-2.8c4.2-0.2,8.2,0.6,10.3,5.1
	c-0.1,0.2-0.2,0.4-0.1,0.6c-2,5.1-6.2,7.5-11.2,6.5c-1.2-0.2-2.8-0.9-2.6-1.8C174.6,137.6,171.5,136.3,170.7,133.9z"/>
<path class="st43" d="M113.3,77.3c5.2-8.2,20.4-11.6,30.3-6.8C132.6,68.7,122.2,69.7,113.3,77.3z"/>
<path class="st60" d="M163.3,181.1c1.3,0,2.7,0.2,2.8,1.9s-1.4,2.2-2.6,1.8c-1.1-0.3-2.6-1.2-2.8-2
	C160.3,181.1,162,181.2,163.3,181.1z"/>
<path class="st49" d="M187.3,102.4l4.5,1.5l0,0c0.3,0.2,0.5,0.4,0.8,0.7l0,0c0,3.8,0,7.6,0,11.4c-0.2,0-0.4-0.1-0.6-0.2
	C192,110.8,193.3,105.3,187.3,102.4z"/>
<path class="st43" d="M105.8,86.4c1.6-3.3,3.4-6.5,6.8-8.4L105.8,86.4z"/>
<path class="st43" d="M112.6,78l0.8-0.8L112.6,78z"/>
<path class="st45" d="M98.3,140.9l1.5,0.1l-1.4,0.6C98.3,141.4,98.3,141.2,98.3,140.9z"/>
<path class="st48" d="M179.8,89.5c-1.9-4.7-1.3-9.6-0.7-14.4C179.4,79.8,179.6,84.6,179.8,89.5z"/>
<path class="st48" d="M157.9,72.1c-2.2,0.6-4.1,4.2-6.8,0.7L157.9,72.1z"/>
<path class="st48" d="M168.5,71.2h-5.3C164.8,70.1,166.9,70.1,168.5,71.2z"/>
<path class="st48" d="M176.8,72.8l-3-0.7L176.8,72.8z"/>
<path class="st48" d="M171.6,72l-3.1-0.7L171.6,72z"/>
<path class="st48" d="M163.2,71.2l-3.1,0.7L163.2,71.2z"/>
<path class="st48" d="M180.6,93.2c-0.2-0.5-0.5-1.1-0.7-1.6L180.6,93.2z"/>
<path class="st47" d="M192.7,104.6l-0.8-0.7L192.7,104.6z"/>
<path class="st48" d="M182.1,94.8l-0.8-0.8L182.1,94.8z"/>
<path class="st48" d="M181.4,94l-0.8-0.8L181.4,94z"/>
<path class="st48" d="M179.1,75.1l-0.8-0.8L179.1,75.1z"/>
<path class="st48" d="M178.3,74.3l-0.8-0.8L178.3,74.3z"/>
<path class="st48" d="M177.6,73.5l-0.8-0.8L177.6,73.5z"/>
<path class="st61" d="M144,165.7l-3.8-4c1-0.6,2.5-1.9,2.9-1.6c1.4,1.3,2.7,2.7,3.9,4.2L144,165.7z"/>
<path class="st62" d="M151.8,166.2c-0.7-0.8-1.3-1.7-1.8-2.6c1.2-1.3,2.6-2.4,4.1-3.4c0.3-0.2,1.3,1,2,1.5
	C154.8,162.9,153.6,164.3,151.8,166.2z"/>
<path class="st63" d="M121.4,143.9c-5.2,0.4-10-0.9-11.9-4.8c-1.5-2.9,2.5-6,5.7-5.3C119.7,134.9,117.2,141.3,121.4,143.9z"/>
<path class="st22" d="M131.9,139.9c0-0.2,0.1-0.4,0.3-0.4C132.2,139.8,132.1,139.9,131.9,139.9z"/>
<path class="st64" d="M175.3,114.1c4.2,0.9,8.1,0.2,11.2,2.9c-2.7,3.1-6.5,2.4-10,2.9c-2.9,0.4-5.7,0.9-8.5,1.5c-2.1,0.4-5,2-6-0.8
	c-1.1-3,2.6-3.6,4.4-4.4C169.3,114.9,172.7,114.7,175.3,114.1z"/>
<path class="st65" d="M182.1,144c-5.6,0.2-11.1,0.5-16.7,0.6c-0.9-0.2-1.7-0.8-2-1.7c-0.3-2.3,0.8-4.5,2.8-5.7c1.7-3,3.8-3,6.4-1
	c1.1,0.9,1.9,1.4,1.2,2.9c-1,2.2,0.3,3,2.3,3s3.7-0.1,5.6,0C183.4,142.3,183.3,143.1,182.1,144z"/>
<path class="st66" d="M182.1,144c0.1-0.3,0.1-0.7,0.1-1c-3.8-1.1-9.4,1.6-9.9-5.9c-0.2-2.1-4-2.1-6,0.1c0.4-2.6,2.4-2.9,4.5-3.3
	c2.2,1.7,6.1,2,4,6.9c-0.3,0.8,5.2,1.6,7.9,0c1.9-1.2,3.3-3,4.9-4.6c0.7,0.6,2.2,1.5,2.1,1.9C188.4,141.6,184.9,142.4,182.1,144z"/>
<path class="st67" d="M126,141.2c-2.8-0.2-5.6,0.4-3.1-3.1c0.9-1.3,0.5-2.9-1.1-3.9c-1-0.6-3-0.2-2.5-2c0.1-0.4,3-0.7,4.1,0
	c2.8,1.7,7.1,2.5,7.5,6C131.1,140.4,127.8,141.5,126,141.2z"/>
<path class="st68" d="M178.9,141.1c-1.2-0.4-3.7-1-2.5-1.6c5.9-3.1-9-5.9,0-8c3.5-0.8,8.3,0.5,9.4,4
	C186.3,137.2,182.5,140.8,178.9,141.1z"/>
</svg>
