<?xml version="1.0" encoding="utf-8"?>
<!-- Generator: Adobe Illustrator 24.1.2, SVG Export Plug-In . SVG Version: 6.00 Build 0)  -->
<svg version="1.1" id="Capa_1" xmlns="http://www.w3.org/2000/svg" xmlns:xlink="http://www.w3.org/1999/xlink" x="0px" y="0px"
	 viewBox="0 0 263.8 430.5" style="enable-background:new 0 0 263.8 430.5;" xml:space="preserve">
<style type="text/css">
	.st0{fill:none;}
	.st1{fill:#AE365C;}
	.st2{fill:#CABEBE;}
	.st3{fill:#D4A6B4;}
	.st4{fill:#EAE5E5;}
	.st5{fill:#D090A4;}
	.st6{fill:#A6A2A3;}
	.st7{fill:#ECD7DD;}
	.st8{fill:#D2CFD0;}
	.st9{fill:#D2D0D0;}
	.st10{fill:#E6D5D9;}
	.st11{fill:#EED1DA;}
	.st12{fill:#DAC8CB;}
	.st13{fill:#EAD9DE;}
	.st14{fill:#D6CCCB;}
	.st15{fill:#DAD7D8;}
	.st16{fill:#512927;}
	.st17{fill:#7C5C5A;}
	.st18{fill:#8E7877;}
	.st19{fill:#F37198;}
	.st20{fill:#ABA7A9;}
	.st21{fill:#4F2A29;}
	.st22{fill:#C3A1A5;}
	.st23{fill:#6C6466;}
	.st24{fill:#554D4E;}
	.st25{fill:#E7D1D1;}
	.st26{fill:#B8A2A3;}
	.st27{fill:#F07299;}
	.st28{fill:#EE95AF;}
	.st29{fill:#AC355B;}
	.st30{fill:#AD365C;}
	.st31{fill:#3F201E;}
	.st32{fill:#1B0F14;}
	.st33{fill:#B43B60;}
	.st34{fill:#40201F;}
	.st35{fill:#782E3E;}
	.st36{fill:#432220;}
	.st37{fill:#40201E;}
	.st38{fill:#341E1E;}
	.st39{fill:#6C5452;}
	.st40{fill:#281A1D;}
	.st41{fill:#766566;}
	.st42{fill:#7E5E5D;}
	.st43{fill:#3F1F1E;}
	.st44{fill:#9E9192;}
	.st45{fill:#7A2E3F;}
	.st46{fill:#080504;}
	.st47{fill:#441B1B;}
	.st48{fill:#3D201E;}
	.st49{fill:#812F42;}
	.st50{fill:#311413;}
	.st51{fill:#40201D;}
	.st52{fill:#3E2321;}
	.st53{fill:#321917;}
	.st54{fill:#9B4759;}
	.st55{fill:#431B19;}
	.st56{fill:#E5D5D3;}
	.st57{fill:#B3566D;}
	.st58{fill:#CF5379;}
	.st59{fill:#5E5557;}
	.st60{fill:#2B1D20;}
	.st61{fill:#512A28;}
	.st62{fill:#271C1F;}
	.st63{fill:#2A1E22;}
	.st64{fill:#271A1C;}
	.st65{fill:#1A0F13;}
	.st66{fill:#25191C;}
	.st67{fill:#B24165;}
	.st68{fill:#F07097;}
	.st69{fill:#120E10;}
	.st70{fill:#080406;}
	.st71{fill:#FC77A2;}
	.st72{fill:#191214;}
	.st73{fill:#070303;}
	.st74{fill:#5E454B;}
	.st75{fill:#F5F5F5;}
	.st76{fill:#2B2F2F;}
	.st77{fill:#2C1514;}
	.st78{fill:#F4F2F1;}
	.st79{fill:#090604;}
	.st80{fill:#1B1013;}
	.st81{fill:#A01544;}
	.st82{fill:#F8759D;}
</style>
<path class="st0" d="M106.6,430.4c-34.6,0-69.2,0-103.9,0.1c-2.3,0-2.7-0.5-2.7-2.7C0.1,286.1,0.1,144.4,0,2.7C0,0.5,0.4,0,2.7,0
	C88.8,0.1,174.9,0.1,261,0c2.3,0,2.7,0.5,2.7,2.7c-0.1,141.7-0.1,283.4,0,425.1c0,2.3-0.5,2.7-2.7,2.7c-17.3-0.1-34.5-0.1-51.7-0.1
	c-0.4-1.8,1.5-2.1,2-3.2c0.2-0.3,0.4-0.5,0.6-0.8s0.4-0.6,0.6-0.9c3-2.6,4.5-6.3,6.7-9.5c1.2-1.5,0.9-3.3,1-5.1
	c0.1-8.9-0.2-17.8,0.2-26.6c0.1-0.4,0.2-0.9,0.5-1.2c1.8-2,2.7-4.6,2.5-7.3c-0.1-5.9,0.1-11.9-0.1-17.8c-0.2-4.2,0.5-7.7,4-10.4
	c0.7-0.6,1.2-1.3,1.6-2.1c0.4-0.5,0.7-1.1,1-1.7c0.6-1.5,1-3.1,1-4.8c0-13.9,0-27.8,0-41.7c0.1-1.1-0.1-2.3-0.6-3.3
	c-0.3-0.5-0.7-1-1.1-1.5c-0.3-0.4-0.5-0.9-0.6-1.4c-0.1-6.6-5.3-10-9.4-13.8c-3.2-2.9-7.8-3.1-11.8-4.6c-2.1-0.8-4.2-1.3-6.3-2.2
	c-5.9-2.5-12.5-3.5-17.7-7.8c-1.2-1-3.2-0.5-4.4-1.8c-0.4-0.4-0.9-0.7-1.3-1c-1.8-1.2-4.2-0.8-6-2.2c-0.5-0.5-0.8-1-1-1.7
	c-0.4-10.1-0.2-20.2-0.1-30.3c0.2-1.8,1.6-2.9,2.4-4.3c1.8-1.7,2.3-4.2,3.7-6.1c2.4-3.2,4-3.4,7.1-0.9c1.6,1.3,3.1,2.9,5.2,1.1
	s4.4-3.6,2.7-7c-1.2-2.4-0.4-4.6,2.1-5.1c4.1-0.8,6.5-3.7,9.1-6.3c1.7-1.7,3.6-3.2,4.7-5.3c0.2-0.3,0.4-0.6,0.6-0.9
	c3.7-7.5-0.5-13.2-4.3-19c-0.8-1-1.6-1.9-2.5-2.8c-0.8-0.9-1.5-2-1.1-3.1c1.6-3.7,0.5-7.8,2-11.4c2.4-4.2,3.5-9,5.6-13.4
	c0.9-0.9,1.5-2.1,1.6-3.3c0.9-8-0.1-15.5-5.5-21.9c-2.1-2.4-2.5-4.8-0.5-7.5c0.6-0.8,0.8-1.8,0.8-2.8c0-6,0.4-12.1-0.1-18.1
	c-0.4-4.4-3.1-8.1-5.9-11.5c-5.2-6.1-11.9-10.9-19.4-13.7c-2.8-1.5-5.7-2.3-9-1.5c-1.4,0.4-3,0.5-4.5,0.1c-1.7-0.5-3.5-0.3-5.1,0.3
	c-4.9,2.1-10.3,2.7-14.7,5.9c-1,0.6-2.2,0.8-2.9,1.9c-0.3,0.4-0.6,0.8-1,1.1s-0.7,0.7-1,1.1s-0.7,0.8-1,1.1
	c-4.9,3.8-8.4,9.2-9.9,15.2c-0.5,1.3-1.4,2.4-2.6,3.1c-2.5,1.3-4.6,3.1-6.2,5.3c-2,3-4.9,5.4-8.2,6.8c-2.9,1.2-4.9,3.8-7.1,6
	c-2.9,3-6.2,5.6-8.6,9.1c-1.4,1.3-1.7,3.1-2.4,4.8c-2.2,4-5,7.8-4.5,12.8c0.1,1-0.1,2-0.6,2.9c-1.1,1.4-1.7,3.1-1.6,4.9
	c0.2,3.4,0.2,6.8,0,10.2c-0.7,7.3,1.4,13.8,4.5,20.2c0.6,1.2,0.7,2.7,0.1,4c-3.5,9.1-1.7,18.5,4.8,24.8c1.9,1.8,4,3.6,3.1,6.8
	c-3.6,6.5-1.9,9.4,5.8,10.1c1.8,0.1,3.4,0.8,4.7,2.1c2,1.9,3.9,3.9,5.8,5.8s2.6,3.9,1.7,6.5c-0.2,0.4-0.4,0.7-0.6,1
	c-2,1.7-0.7,4.4-1.8,6.3c-0.3,0.5-0.6,1-0.9,1.5c-1,2.2-1.3,4.6-1,7c0.5,7,0.2,14,0.2,21.1c0,3.7-2.6,5.7-5.7,4
	c-6.1-3.4-11.1-0.4-16.4,1.6c-2.5,1-5,2.2-7.3,3.6c-0.7,0.4-1.5,0.7-2.2,1.1l-1.1,0.6c-3.6,3.1-6.8,6.7-10.3,10
	c-1.8,1.8-2.2,4.2-2.2,6.6c0,14.1,0,28.2,0,42.4c-0.1,0.9,0,1.8,0.4,2.6c4.1,7.2,3.4,14.3,0,21.5c-3.7,7.9-6.3,16-5.8,25
	c0.3,5.8,0.3,11.6,0,17.4c-0.2,5.6,2.6,8.9,7.1,11.4c6.1,2.1,12.3,2.3,18.3-0.2c4.3-1.9,8.6-1.8,12.9-1.1
	C107.3,418.4,109.3,424.7,106.6,430.4z"/>
<path class="st1" d="M179.9,430.4h-70.3c-1.2-0.5-1.9-1.7-1.8-3c0.3-3.5-0.7-6.8-1.7-10c0.1-0.4,0.4-0.8,0.8-1
	c2.5-0.6,5-0.1,7.5,0.2c20.3,2.4,40.5,5.2,60.9,7.4c2,0.1,4,0.5,5.9,1c2.3,1.3,1,2.8,0.2,4.3C180.9,429.7,180.4,430.1,179.9,430.4z"
	/>
<path class="st2" d="M179.9,430.4l0.9-1c1.5-2.4,3.6-3.2,6.4-3.1c5.9,0.1,11.8-0.1,17.7,0.1c2.9,0.2,5.8-1,7.6-3.3
	c3.5-4,5.9-8.3,5.6-13.9c-0.3-6.5,0-13.1-0.1-19.6c0-2.8,0.1-5.5,1.6-8c0.6-1.4,0.9-2.9,0.7-4.4c0-6.5-0.1-13.1,0-19.6
	c0.1-3.3,0.4-6.5,2.4-9.3c0.3-0.3,0.6-0.6,0.9-0.9l0.5-0.4c0.3-0.3,0.6-0.5,0.9-0.8l0.4-0.4c0.3-0.3,0.6-0.6,0.8-0.9
	c0.4-0.4,0.8-0.9,1.1-1.4c0.3-0.7,0.4-1.5,0.5-2.2c0.1-13,1.5-26,0.5-39c-0.2-2.9-0.1-5.7-1.1-8.4c-1.7-3.9-2.2-8.2-5.8-11.5
	c-3-2.8-6.7-4.7-10.7-5.5c-3.8-2.1-8.6-2-12-5c-0.2-0.3-0.2-0.8,0-1.1c0.3-0.2,0.7-0.5,1-0.4c6.4,1.8,13.2,3.1,18.8,6.4
	c4.6,2.7,9.9,6.6,10,13.5c0.1,0.8,0.4,1.5,0.9,2.1c0.3,0.3,0.5,0.6,0.8,1c0.5,0.7,0.8,1.5,1,2.3c0,0.4,0,0.9,0,1.3
	c0,14.5,0,29,0,43.5c0.1,1.3-0.2,2.6-0.7,3.8c-0.1,0.3-0.2,0.6-0.4,0.8c-0.2,0.2-0.4,0.4-0.6,0.7l-0.2,0.4c-0.1,0.2-0.3,0.5-0.5,0.7
	l-0.3,0.3l-0.5,0.5l-0.3,0.3l-0.5,0.5l-0.3,0.3c-0.2,0.2-0.4,0.4-0.5,0.5l-0.3,0.3c-0.2,0.2-0.4,0.4-0.5,0.6l-0.3,0.3l-0.5,0.6
	l-0.3,0.3c-0.2,0.3-0.3,0.5-0.5,0.8c-0.1,0.3-0.3,0.6-0.3,1c0,0.8,0,1.5,0,2.3c0,7.2-0.1,14.3,0,21.5c0.2,2.5-0.6,5-2.3,6.9l0,0
	c-0.9,2.5-1.1,5.2-0.7,7.8c0.6,7.1,0.1,14.3,0.3,21.5c0.1,1.9-0.9,3.3-1.9,4.8c-1,3.7-3.7,6.3-6.1,9.1c-0.3,0.2-0.5,0.5-0.8,0.8l0,0
	c-2,1.7-4.7,2.5-7.3,2.3c-5.9-0.1-11.8-0.1-17.7,0c-1.5,0-3-0.2-4.4,0.8L179.9,430.4z"/>
<path class="st3" d="M106.6,430.4c-0.2-12.5-5.8-15.5-17.6-10.4c-5.9,2.5-12.5,2.3-18.7-0.2c-0.1-0.4,0-0.8,0.3-1
	c0.3-0.2,0.7-0.3,1.1-0.4c0.4,0,0.7,0,1.1,0.1c4.4,0.3,8.9,0.1,13.3,0.1c0.3,0,0.7-0.1,1-0.2c0.5-0.2,0.9-0.4,1.4-0.6
	c0.3-0.2,0.6-0.4,0.9-0.5c0.3-0.2,0.6-0.3,0.9-0.5c0.3-0.1,0.7-0.2,1-0.3c2.4-0.4,5,0.2,7.4-0.5c0.4-0.1,0.7-0.2,1.1-0.2
	c0.8-0.1,1.6,0,2.3,0.1c0.4,0.1,0.8,0.2,1.1,0.4c3.5,1.2,5.3,3.6,4.9,7.4c-0.2,2.2,1.1,4.4,0,6.6L106.6,430.4z"/>
<path class="st4" d="M182.9,430.4c1.1-2,3-1.4,4.6-1.5c8.3-0.6,16.7,1.5,24.8-1.5l-3,3H182.9z"/>
<path class="st5" d="M108.1,430.4c-1.1-4.9,1.3-11.4-6-13.6c1.8-1.5,3.2-0.7,4.5,0.8c3.8,3.6,1.3,8.8,3.1,12.9L108.1,430.4z"/>
<path class="st6" d="M208.5,142.3c-1.6,4.4-2.5,9-5.3,12.9c-2.5,3.6-0.9,8.1-2.5,12c-0.5,1.2,1.1,2.1,2,3c4.3,4.3,6.9,10,7.3,16
	c0.2,2.1-0.4,4.3-1.5,6.1l0,0c-2.1,2.9-4.9,5.1-7.3,7.6c-0.2,0.2-0.5,0.4-0.7,0.6l-0.4,0.3c-0.2,0.2-0.4,0.4-0.7,0.6l-0.3,0.3
	c-0.2,0.2-0.4,0.4-0.7,0.6c-0.2,0.2-0.5,0.3-0.7,0.5c-0.4,0.2-0.8,0.4-1.1,0.6c-0.3,0.1-0.5,0.2-0.8,0.3c-0.6,0-1.1,0.1-1.7,0.3
	c-0.4,0.1-0.8,0.2-1.2,0.4c-0.5,0.2-1.1,0.4-1.6,0.6c-0.3,0.1-0.5,0.3-0.8,0.4c-0.3,0.1-0.6,0.3-0.9,0.4c-0.3,0.1-0.6,0.1-0.9,0.2
	c-1.4,0.1-2.8-0.8-4.2-0.1c-0.4,0.2-0.8,0.5-1.1,0.8c-0.3,0.4-0.7,0.7-1.1,1c-0.3,0.1-0.7,0.1-1,0c-0.2-0.3-0.4-0.6-0.5-1
	c0.8-3.6,2.1-5,5.6-4.6c7,0.9,11.5-2.9,15.9-7.5c2.9-2.8,4.3-6.8,3.7-10.8c-0.4-4-2.3-7.8-5.2-10.6c-3.2-3-3.8-5.5-2.7-9.9
	c1.3-4.9,2.5-9.7,4.7-14.2c4-6.9,4.8-14.4,3.8-22.1c-0.6-3.6-2.4-6.9-5.1-9.4c-0.3-0.3-0.5-0.6-0.7-0.9c-0.2-0.3-0.4-0.7-0.5-1.1
	c-0.5-2.3,0.3-4.4,0.7-6.6c1.9-9.1,3.1-18.4-1.6-27.1c-3.3-5.9-8.3-10.5-14.4-13.3c-2.6-1.2-5.2-2.4-7.3-4.5c-0.2-0.4-0.2-0.8,0-1.2
	c0.5-0.3,1.2-0.4,1.8-0.2c7.7,2.8,14.5,7.6,19.7,14c3.3,4.1,6,8.6,5.7,14.3c-0.2,4.2,0,8.3,0,12.5c0,2.5,0.2,4.9-1.6,7.2
	c-1.5,1.9-0.3,3.6,1.1,5.3C210.8,123.4,211.8,133.3,208.5,142.3z"/>
<path class="st7" d="M70.3,419.1c0,0.3,0,0.5-0.1,0.8c-4.5-2.5-7.8-5.7-7.6-11.4c0.4-10.2-0.3-20.5,1.1-30.5
	c0.8-6.2,4.9-11.9,6.6-18c1.4-5.3-0.8-10.6-1.3-15.9c-1.8-16.8-2.7-34,0.6-50.7c1-5,7.4-9.5,12.8-12.7c0.4,0.8,0.3,1.8-0.3,2.5
	c-3.1,3.1-6.6,5.8-9.2,9.4c-1,1.3-1.5,2.9-1.5,4.5c0,14.7,0,29.4,0,44.2c-0.1,0.9,0,1.8,0.2,2.6c3.7,8,2.8,15.7-1.1,23.4
	c-1.7,3.5-3,7.2-4.7,10.7c-0.9,2.2-0.5,4.5-0.5,6.7c0,8.7,0,17.3,0,26c0,0.4,0,0.7,0.1,1.1c0.1,0.5,0.3,0.9,0.4,1.4
	c0.1,0.3,0.2,0.5,0.4,0.8s0.3,0.5,0.4,0.7l0.2,0.3c0.2,0.2,0.3,0.4,0.5,0.6c0,0,0.3,0.3,0.3,0.3c0.2,0.2,0.3,0.3,0.5,0.5
	c0,0,0.3,0.3,0.3,0.3c0.2,0.2,0.3,0.3,0.5,0.5c0,0,0.2,0.3,0.3,0.3c0.2,0.2,0.3,0.3,0.5,0.5c0,0,0.2,0.3,0.2,0.3
	c0.2,0.2,0.3,0.4,0.4,0.6L70.3,419.1z"/>
<path class="st8" d="M208.5,142.3c1.6-10,2-19.8-6-27.7c-0.6-0.8-0.8-1.8-0.5-2.8c3.3-5.5,1.4-11.6,2-17.4
	c1.3-13.5-7.1-20.9-16.9-27.5c-2.6-1.5-5.3-2.9-8-4.1l-0.3-0.5l0.4-0.4c11.9,4,21.6,11.5,25.4,23.3c2.5,7.8,2.8,17-0.8,25.3
	c-0.9,2.1-0.2,3.5,1.2,5.1c6.1,6.8,6.8,15.1,5.7,23.7C210.4,140.3,209.2,141.3,208.5,142.3z"/>
<path class="st9" d="M99.6,210.2c0.5-2.4-0.5-4-2.2-5.6c-7.9-7.8-9.6-16.5-6-27.2c1.1-3.1-2-7.9-3.6-11.6
	c-1.8-4.1-1.3-24.8,1.2-27.4l0.5,0.5c0.1,6,0.3,12-0.1,18c-0.4,5.6,1.7,10.5,3.4,15.6c1.2,1.8,1.4,4.1,0.7,6.1
	c-3.7,9.5-1,17.6,5.6,24.8c0.9,0.7,1.6,1.6,2.2,2.6c0.9,1.8,1.3,3.6-1.2,4.6L99.6,210.2z"/>
<path class="st10" d="M81.6,282.2c0.2-0.5,0.5-1,0.7-1.5l0,0c0.4-0.4,1.1-0.3,1.5-0.8c5.8-3.4,11.7-6.6,18.6-7.5
	c0.9-0.2,1.8-0.1,2.6,0.2c9,5.3,8.5-0.7,8.3-6.8c-0.2-6.7,0-13.5,0-20.2c0-1.4,0-2.8,1.5-3.5c0.1,0.2,0.3,0.3,0.4,0.5
	c0.2,0.4,0.2,0.8,0.2,1.3c-0.1,0.4-0.1,0.9-0.2,1.3c0,9.6-0.4,19.3,0.2,28.9c0.1,0.6,0.1,1.3-0.1,1.9c-1.9,3.1-4.6,2.8-7.2,1.5
	c-3.3-1.7-7.1-1.9-10.5-0.6c-4.4-0.1-7.5,2.9-11.3,4.5C84.9,282,83.5,283.5,81.6,282.2z"/>
<path class="st11" d="M229.7,292.8c-3.3-2.4-1.9-6.6-4.4-9.7c-7-8.5-17.2-9.2-26.5-12.3c-0.7,0.5-1.4,0.1-2-0.1
	c-3.5-1.4-7.8-1-10.6-4.1c-0.3-0.2-0.6-0.4-0.8-0.7c-0.3-0.2-0.5-0.5-0.8-0.7c-1.2-2.4-4.7-1.1-5.8-3.7c-0.1-0.3-0.1-0.7,0-1
	l0.4-0.4c10.7,5.8,22,9.9,33.5,13.5c9.4,3,15.5,8.3,17,18.3c0.2,0.2,0.3,0.4,0.2,0.5S229.8,292.8,229.7,292.8z"/>
<path class="st12" d="M192.7,203.6l1.5-0.1c0.6-0.6,1.6,0,2.3-0.7l0,0c0.4-0.5,1.1-0.3,1.5-0.8l0,0c0.3-0.2,0.5-0.5,0.7-0.7l0,0
	l0.8-0.7l0,0c0.2-0.3,0.5-0.5,0.8-0.8l8.3-7.6c-3.8,5.1-7.2,10.5-13.9,12.2c-1.8,0.4-3.4,1.5-2.3,3.4c2.9,4.7-0.3,7.1-3.3,9.3
	c-3,2.2-4.8-0.6-6.7-2.3c-3.5-3.1-4.1,0.9-5.5,2.4c-1.3,1.3-2,3.1-3,4.6l-0.4-0.4c0.2-4.5,5-11.6,8.6-12.6c1,0.8,0.8,2,1.2,3
	c0.8,2.2,2.3,3.7,4.8,3.2c2.2-0.4,2.9-2.9,2.1-5.5c-0.5-1.4-2-2.8-0.4-4.4l0,0c0.2-0.3,0.5-0.5,0.8-0.7c0.2,0,0.5,0,0.7-0.1
	C191.6,203.8,192.3,204,192.7,203.6z"/>
<path class="st13" d="M221.4,383.5c3.2-10,0.6-20.2,1.5-30.3c0.4-0.4,0.3-1.1,0.7-1.5c0-0.2,0-0.5,0.1-0.7c0.2-0.3,0.5-0.5,0.7-0.7
	l0,0c0.2-0.3,0.5-0.5,0.7-0.7l0,0c0.2-0.3,0.5-0.5,0.7-0.7l0,0c0.2-0.3,0.5-0.5,0.7-0.7l0,0c0.2-0.3,0.5-0.5,0.7-0.7l0,0
	c0.2-0.3,0.5-0.5,0.7-0.7l0,0c0.2-0.3,0.5-0.5,0.7-0.7l0,0l0.4-0.3l0.4,0.4c-9.3,9-4.1,20.5-5.3,31
	C224.1,379.5,224.1,382,221.4,383.5z"/>
<path class="st12" d="M208.5,192.2c1.6-8.6-1-15.6-6.5-22.4c-3.6-4.4-1.4-10,1.3-14.7c-3.9,9.3,1.2,16.2,5.7,23.6
	C211.5,182.9,212.3,187.8,208.5,192.2z"/>
<path class="st14" d="M117.8,234.4c0.4-5.4-7.2-13.4-12.8-13.5c-3.4,0-5.9-1.5-7.2-4.5c-1.1-2.3-0.3-5,1.9-6.3l0.2,0.2
	c0.1,0.1,0.2,0.2,0.2,0.3c0.6,6.6,0.6,6.6,7.1,7.7c1.2,0.2,2.4,0.7,3.3,1.6c2.9,2.7,5.8,5.5,8.4,8.5c2.1,2.4,1.9,4.1-0.6,6.1
	L117.8,234.4z"/>
<path class="st8" d="M144.3,67.4c9.5-6.1,20.9-8.6,32-6.8c1,0.3,2,0.8,2.9,1.4l-0.2,0.3c-3.5,1-7,0.2-10.5,0.1
	c-6.8-0.2-12.7,2.5-18.8,4.7c-1.6,0.6-3,2-4.9,1.4C144.4,68.2,144.2,67.8,144.3,67.4z"/>
<path class="st11" d="M171.6,224.8c0,10.8,0,21.6,0,32.4l-0.6,0.2l-0.6-0.3l-0.4-0.5c-0.7-1.3-1-2.8-1-4.3c-0.5-7.7,0.8-15.4,0.1-23
	c-0.1-1.1,0.5-2.2,0.7-3.3c0.1-0.4,0.3-0.8,0.6-1.1C170.7,224.6,171.2,224.5,171.6,224.8z"/>
<path class="st13" d="M230.4,343.4c0-0.5,0-1,0-1.5c0.4-0.8,0.5-1.7,0.4-2.6c0-13.9,0-27.9,0-41.8c0.2-0.9,0-1.8-0.4-2.5l0,0
	c-0.5-0.6-0.4-1.2-0.3-1.9l0.3-0.4c1.5,0.8,1.5,2.1,1.5,3.6c0,14.6,0,29.1-0.1,43.7c0,1.6-0.9,3.3-1.4,4.9l-0.3-0.3
	C230,344.2,230.1,343.7,230.4,343.4z"/>
<path class="st15" d="M105,109l21.9-18.3l0.3,0.5c-4.3,4.4-6.8,10.8-13.2,12.9c-3.2,1.1-4.7,4.4-8,5.3
	C105.6,109.4,105.2,109.2,105,109z"/>
<path class="st13" d="M219.1,417.6c2.8-8.2,1.4-16.6,1.1-25c-0.1-3.1-0.9-6.2,1.2-9c0,9.6,0,19.3,0,28.9
	C221.4,414.6,221.4,416.5,219.1,417.6z"/>
<path class="st15" d="M126.9,90.7c4.1-6.4,5.4-14.8,12.9-18.8l0.4,0.4c0.1,0.4,0.1,0.7,0,1.1c-0.9,2.2-3,3.4-4.3,5.1
	c-2,2.6-3.4,5.6-4.2,8.7c-0.6,2.2-1.5,4.4-4.6,3.7L126.9,90.7z"/>
<path class="st9" d="M89,138.3c-0.5-5.8,1.4-11.5,5.3-15.9l0.4,0.4c0.3,1.1,0.2,2.3-0.5,3.2c-1.5,2.9-2.8,5.8-2.6,9.2
	c0.1,1.4-0.3,3.1-2.3,3.3L89,138.3z"/>
<path class="st9" d="M105,109h0.8c-1.4,4.5-4.9,7.1-8.8,9.3l-0.4-0.3C98.6,114.2,102,111.8,105,109z"/>
<path class="st10" d="M115.6,241.3c0.5-2.2-1.1-5,1.6-6.7c0.7,0.8,1,1.8,0.8,2.9c0,0.3-0.1,0.7-0.2,1c-0.3,0.8-0.4,1.6-0.7,2.3
	c-0.1,0.3-0.3,0.6-0.6,0.8l-0.5,0.1L115.6,241.3z"/>
<path class="st11" d="M172.3,257.9c2.1,0,4.3,0.1,6,1.5c-0.1,0.1-0.2,0.3-0.3,0.4c-1.8,0.9-3.4,0-5-0.4c-0.3-0.1-0.6-0.3-0.8-0.6
	c0-0.2-0.1-0.3-0.1-0.5L172.3,257.9z"/>
<path class="st9" d="M94.3,122.5c-0.1-1.8,0.7-3.6,2.3-4.5l0.2,0.2c0.8,2.3,0.1,3.8-2.3,4.5L94.3,122.5z"/>
<path class="st12" d="M171.6,224.8h-0.8c-0.3-2.2,0.9-3.1,2.9-3.1l0.2,0.2L171.6,224.8z"/>
<path class="st15" d="M144.3,67.4v0.8c0,0.1,0,0.3,0,0.4c-0.1,0.2-0.2,0.5-0.4,0.7l-0.3,0.3c-0.2,0.2-0.4,0.3-0.6,0.4l-0.4,0.1
	l-0.4-0.1l-0.2-0.3C142,68.3,143.1,67.4,144.3,67.4z"/>
<path class="st14" d="M117.1,238.3c0-1.3,0-2.5,0-3.8l0.6-0.1l0.3,0.2C118.9,236.1,119.5,237.6,117.1,238.3z"/>
<path class="st7" d="M83.9,279.9l-1.5,0.8L83.9,279.9z"/>
<path class="st10" d="M114.9,242.1l0.7-0.8l0.1,0.1l0.2,0.5l-0.4,0.4L114.9,242.1L114.9,242.1z"/>
<path class="st11" d="M171.6,257.2l0.8,0.8l-0.1,0.1l-0.5,0.2l-0.4-0.4L171.6,257.2L171.6,257.2z"/>
<path class="st11" d="M178.4,259.5c0.3,0.2,0.5,0.5,0.8,0.7l-0.1,0.1l-0.5,0.2l-0.4-0.4L178.4,259.5L178.4,259.5z"/>
<path class="st13" d="M229.7,292.8c0-0.3,0-0.5,0-0.8c0.3,0.3,0.5,0.5,0.7,0.8l0,0C230.1,293.1,229.9,293.1,229.7,292.8L229.7,292.8
	z"/>
<path class="st15" d="M141.3,70.3l0.8-0.8l0.1,0.1l0.3,0.4c-0.1,0.2-0.1,0.3-0.2,0.4l-0.5,0.1L141.3,70.3z"/>
<path class="st15" d="M140.5,71.1l0.8-0.8l0.1,0.1l0.3,0.4c-0.1,0.2-0.1,0.3-0.2,0.4l-0.5,0.1L140.5,71.1z"/>
<path class="st15" d="M139.8,71.9l0.8-0.8l0.1,0.1l0.3,0.4c-0.1,0.2-0.1,0.3-0.2,0.4C140.4,72.2,140,72.2,139.8,71.9L139.8,71.9z"/>
<path class="st13" d="M230.5,345l-0.7,0.8h0c-0.2-0.1-0.2-0.3-0.2-0.5c0.1-0.2,0.1-0.3,0.2-0.3l0,0
	C229.9,344.6,230.2,344.6,230.5,345L230.5,345z"/>
<path class="st4" d="M212.3,427.4l0.8-0.8L212.3,427.4z"/>
<path class="st16" d="M182,426.1c-24.2-2.9-48.4-5.8-72.6-8.6c-1-0.2-1.9-0.5-2.9-0.8c-3-1-6-0.8-9.2-0.5c-3.5,0.2-6.9,0.8-10.3,1.9
	c-4.8,1.8-10.3,2.1-15.3-0.5c1.1-2.9,3.8-2.3,5.9-2.7c4-0.6,4.3-1.1,3.4-5c-1.1-4.5-1.6-9.2-5-12.8c-0.4-0.4-0.8-1-1.3-1.4
	c-0.8-1-2.2-1.3-3.4-0.8c-1.2,0.6-1.7,2-1.2,3.2c0,0,0,0,0,0c2.1,5.4-0.5,10-2.3,14.7c-2.8-0.8-2.6-3.4-2.3-5.2
	c1-7.9,0.2-15.8,0.5-23.8c0-0.6,0-1.3,0-1.9c0.1-1.8,0.4-3.7,2.2-4.5c2-0.9,2.9,1,3.9,2.2c5.8,6.1,11.9,12,17.9,17.9
	c1.1,1.1,2.1,2.6,4.3,2.4c-0.5-1.9-2-3-3.2-4.1c-6.3-5.8-12.4-11.7-18.4-17.8c-4.3-4.3-4.5-5.9-1.6-11.3c0.6-1.2,1.1-2.6,1.8-3.8
	c0.2-0.3,0.4-0.6,0.6-0.9c0.1-0.1,0.2-0.3,0.3-0.5c0.4-0.6,0.6-1.3,0.5-2c0.2-1.8-0.2-3.7,0.4-5.5c6.7-5.5,9.1-13.9,13.5-21
	c7.3-11.8,13.9-24.1,20.9-36.1c0.9-2.2,2.4-4,3.4-6.1c0.8-1.2,1.9-2.1,2.1-3.7c0.1-0.4,0.2-0.7,0.4-1.1c0-8.3,2.4-16.4,1.8-24.7
	c-0.4-4.1-0.5-8.2-0.4-12.3c0.3-5.5,2.6-10.2,4-15.2c0.8-2.6,0.5-4.4-1.2-6.1c-3.9-3.9-7.4-8.2-12.2-11.2c-1.5-0.6-2.7-1.7-3.5-3.1
	c-0.7-1.1-1-2.4-0.7-3.6c0.9-3.5-0.9-5.6-3.4-7.7c-2.4-2.1-5.2-3.7-4.6-7.6c1-1,1.5-2.4,1.3-3.8c-0.4-4.7,1.2-9.4-0.2-14.2
	c-0.8-2.6,1.8-4.3,2.4-6.5c0.4-0.5,1.1-0.6,1.6-0.3c0,0,0,0,0.1,0.1c2.7,2.1,5.9,3.7,8.1,6.5c-1.1,1.4-2.3,1.1-3.6,0.4
	c-0.4-0.3-0.8-0.6-1.1-1c0.3,0.3,0.6,0.7,1,1c1.5,1.3,2.8,1.6,3.9-0.4c2.6-1.6,5.4-0.1,8.1-0.6c2.7-0.6,5.5-1.2,6.3-4.3
	c0.7-2.5-2.5-8.9-4.6-9.9c-1-0.5-1.9-0.1-2.8,0.3c-1.4,0.6-2.7,1.4-4.2,0.3c-0.4-1.1,0.3-1.6,1-2.2c0.7-0.6,2.2-0.7,1.6-2.1
	c-0.4-0.9-1.5-0.6-2.4-0.6c-3-0.2-5.8,0-8.1,2.3c-0.8,0.9-2.1,1.2-3.1,0.6c-1.4-0.7-1.2-2-1.1-3.3c0.2-4.2,2.2-8,3.1-12
	c2.1-9.6,6.7-18.3,12.5-26.2c1-1.4,2.1-2.6,4-2.4s2.5,2,3,3.5c1.4,4.6,4.3,8.3,7.5,11.6c3.6,3.6,7.8,6.9,11.1,10.6
	c3.3,3.7,6.3,4.8,10.4,5.8c2.9,0.7,5.4,3.2,8.7,3c2.1,1.4,4.9,2.2,5.6,5.1c-2.9-0.2-3.8,3.9-6.9,3.4c-0.7-0.9-0.1-3-2.4-2.5
	c-2.3,0.4-5.4,3.5-5.4,5.6c0,1.2,1,2.4,0.1,3.6c-2,0.8-2.7-1.5-4.5-1.8c-2.1,3.5-1.4,6.9,0.2,10.4c-0.5,2.3,1.3,3,2.8,3.1
	c9.4,1,18.3,0.2,25-7.7c2.9-3.3,3-5.2,0.4-8.5c-1-1.3-2.4-2.2-3.4-3.5c-1.6-2-1.2-3.2,1.3-3.5c2.5-0.3,5-0.3,7.5,0
	c0.9,0.2,1.8,0.6,2.5,1.3c2.1,3.3,3.7,6.8,2.7,11c-0.4,1.5,0,3,1,4.2c2.3-2.5,4.5-5.1,8.4-4c1.7,0.8,3.4,1.6,4.1,3.6
	c0.1,2-1.4,3.1-2.5,4.5c-3.9,4.6-6.6,10.2-7.8,16.1c-0.4,1.7,0.1,3.5,1.2,4.9c2,2.6,1.4,3.7-2,4.3c-1.6,0.3-3.7-0.9-4.5,1.6
	c-1.9,2.6-3.2,5.5-3.8,8.6c-3.4,3.8-5,8.9-8.6,12.7c-1.4,1.5-1.6,3.6-1.6,5.7c0,7.3,0,14.6,0,21.8c0,6.6,1,7.9,7.5,9.6
	c0.7,0.2,1.4,0.5,2,1c0.3,0.3,0.6,0.6,0.8,0.9c0.1,0.2,0.1,0.4,0.2,0.6c0,0.4-0.2,0.8-0.5,1c-6.8,1.6-14-3.6-14.4-10.6
	c-0.3-4.6-0.2-9.3,0.3-13.9c0.6-3.8,0.5-7.6-0.2-11.3c-1,3.1-3.5,4.3-6.2,5.4c-6.1,2.5-12.1,5-18.9,4.1c-0.9-0.1-2.2-0.3-2.5,1
	s0.5,2.1,1.6,2.7c2.8,1.5,5.7,2.7,8.7,3.5c7.6,2,11.6,7,12.4,14.7c0.7,7.3,0.4,14.3-3.8,20.7c-1.4,2.2-2.6,4.5-5.9,2.7
	c-1.4-0.8-1.4,0.5-1.5,1.3c-1.1,4.9-2.8,9.4-7.1,12.4c-1.1,0.6-1.5,2-0.9,3.1c0,0.1,0.1,0.1,0.1,0.2c0.6,1,0.9,2.1,0.6,3.3
	c-0.2,0.3-0.4,0.6-0.8,0.8c-1.1,0-1.5-0.9-2.1-1.5c-1.4-1-1.7,0.1-2.1,1c-0.8,1.8-1.2,3.8-2,5.6c-2.3,3.7-2.4,8.1-3.8,12.2
	c-3.1,9.4-7.1,18.5-9.5,28.1c-0.5,1.9-1.9,3.6-2.3,5.5c-2.6,11-7.2,21.4-10.3,32.2c-0.5,1.8-3.1,3.4-1.4,5.4
	c1.4,1.7,3.6,0.2,5.4,0.1c12.9-0.6,25.7-1.6,38.6-2.8c11.4-1,22.9-0.9,33.7,4c2.6,1.2,3.5-1.1,3.8-2.8c0.8-5.1,2.2-10.1,3-15.1
	c0.9-5.7,3.1-11.1,3.3-16.9c0-0.7,0.1-1.4,0.3-2c0.2-0.5,0.3-1,0.3-1.5c0.8-8.3,1.7-9.2,9.9-9.2c4.2,0,8.3-0.7,12.4-1
	c2.7-0.2,4.9,0.4,4.5,3.9c-2.4,8.5-1,17.1-1.4,25.7c-0.1,2.2,0.6,4.5-1,6.5c-2,0.8-1.9-0.9-2.2-1.9c-0.2-1.3-0.2-2.7-0.1-4
	c0.2,1.9-1,4.9,1.6,7.1c-1.2,8.5-1,17-0.7,25.5c0.1,2.6,1.1,5.3-1.1,7.5c-2.1,0.1-1.8-1.6-2-2.9c-0.4-2.9-0.6-5.9-0.5-8.9
	c0,5.4,0,5.5-5.8,7.4c-4,1.3-6.6,4-9,7.2c-1.6,2.2-0.9,3.8,1.8,4.3c4.3,0.9,8.3,0.6,11-3.7c0.5-0.9,1.4-3.4,3.2-0.9
	c-2.6,6.7-6.1,8.8-13.2,8.3c-5.6-0.4-11.3-0.1-16.9-0.1C184.4,426.6,183.1,427.1,182,426.1z"/>
<path class="st17" d="M71.8,416.9c6.5,2.1,12.4,1.2,19-1.2c4.3-1.6,10.9-3.1,15.8,1c0,0.3,0,0.6,0,0.9l-4.5-0.8l0,0
	c-0.7-0.5-1.6-0.5-2.3,0l-0.8,0.1c-2.9,1-6-0.3-8.9,0.7l-0.1,0.1c-0.2,0.2-0.5,0.4-0.7,0.6l-0.1,0.1c-0.4,0.5-1,0.3-1.4,0.7l-0.1,0
	c-5.2,0.6-10.5,0.6-15.7,0l-0.1-0.1c-2.7-2-5.4-4-6.7-7.2c-0.1-10.3-0.1-20.6,0-30.9c0.1-4.3,2.5-8.1,4.3-11.9
	c2.4-5.1,4.4-10.1,4.1-15.8c0.5-1.1,1.2-1,2.1-0.4c0.3,0.3,0.3,0.8,0.1,1.2l-0.1,6.8c-0.4,0.4-0.3,1.1-0.7,1.5v0
	c-0.2,0.2-0.4,0.5-0.6,0.7c-5.1,11.8-5,11.8,9.2,24.1c3.9,3.4,7.5,7,11.2,10.5c1.1,1,3.2,2.2,1.5,3.9c-1.4,1.4-3.2,0.2-4.3-0.9
	c-4.6-4.3-9-8.7-13.4-13.2c-2.8-2.9-5.5-5.9-8.2-8.8c-1.8-1.9-2.4,0.3-2.4,1.1c-0.1,11.1-1.8,22.1,0.3,33.2h0.4
	c0.2,0.1,0.4,0.2,0.6,0.3c0,0,0.3,0.2,0.3,0.2c0.2,0.1,0.3,0.3,0.5,0.5l0.2,0.3c0.2,0.2,0.3,0.3,0.5,0.5c0,0,0.2,0.3,0.3,0.2
	c0.2,0.2,0.3,0.3,0.5,0.5l0.2,0.3c0.2,0.2,0.3,0.4,0.3,0.6L71.8,416.9z"/>
<path class="st18" d="M216.2,416.1c1.9-1.8,1.5-4.2,1.3-6.4c-1.1-9.2-0.7-18.6,1-27.7l0,0c2.8-3,1.2-6.7,1.4-10.1
	c0.4-7.6-0.7-15.2,1.7-22.6c0.5-2.4,0.7-5.1,4.4-4c0.3,0.2,0.4,0.7,0.1,1c0,0,0,0,0,0l0,0c-0.3,0.2-0.5,0.4-0.8,0.7l0,0.1
	c-0.2,0.2-0.5,0.4-0.7,0.7c-3.1,2.4-3.1,6.1-2.9,9.3c1.1,18.7-3.9,37.1-2.6,55.8c0.5,7.5-7.9,14.1-15.3,14.5
	c-7.6,0.4-15.5-2.3-22.9,1.8c0.4-1.1,0.9-2.2,1.3-3.3c7.3,0.1,14.7,0.1,22,0.3c6.3,0.2,9.5-3.5,11.3-8.9V417
	c0.1-0.3,0.2-0.6,0.4-0.8L216.2,416.1z"/>
<path class="st19" d="M227.5,292.7c3.4,3.7,2,8.4,2,12.5c0.2,12.2-0.3,24.4-0.5,36.6c0,1.3-0.2,2.5-1.5,3.2l-0.4-0.6
	c-0.7-2.7-0.1-5.5-0.2-8.3c-0.2-13.6,0.2-27.2-0.2-40.7c-0.1-0.8,0.1-1.5,0.4-2.2L227.5,292.7z"/>
<path class="st11" d="M230.4,295c1.7,4.5,0.8,9.1,0.7,13.7c-0.2,11.1,1,22.2-0.7,33.2C230.4,326.3,230.4,310.7,230.4,295z"/>
<path class="st19" d="M210.9,276.1c10,1.9,14.6,6.6,16.6,16.6l-0.1,0.1c-2-0.1-2.1-1.8-2.6-3.1c-2-5.3-5.5-9-11-10.8
	c-1.3-0.4-2.7-0.7-3.1-2.3L210.9,276.1z"/>
<path class="st19" d="M198.8,271.6l12.1,4.5l-0.1,0.1c-2.8,1.7-5.3,0-7.8-1c-1.4-0.5-2.8-1.2-3.9-2.2c-0.3-0.3-0.5-0.6-0.5-1
	C198.6,271.9,198.7,271.7,198.8,271.6z"/>
<path class="st19" d="M197.2,270.1l1.5,0.8c0,0.2,0,0.5,0,0.7l-0.1,0.1c-1.5,0.9-2.7,0.3-3.8-0.9
	C195.3,269.1,196.3,269.7,197.2,270.1z"/>
<path class="st11" d="M229.7,292.8h0.8c0,0.7,0,1.5,0,2.2L229.7,292.8z"/>
<path class="st11" d="M230.4,344.9h-0.7l0.7-1.6V344.9z"/>
<path class="st11" d="M223.6,351.7l-0.7,1.5L223.6,351.7z"/>
<path class="st19" d="M227.4,345l-0.8,0.7l-0.1-0.5c0.2-0.3,0.5-0.4,0.8-0.4L227.4,345z"/>
<path class="st11" d="M229.7,345v0.8H229C229.2,345.5,229.4,345.2,229.7,345z"/>
<path class="st19" d="M226,346.5v-0.8c0.2-0.2,0.5-0.2,0.7,0l0.1,0.1L226,346.5z"/>
<path class="st11" d="M228.9,345.8l-0.7,0.7L228.9,345.8z"/>
<path class="st19" d="M225.2,347.2l0.8-0.7L225.2,347.2z"/>
<path class="st11" d="M228.2,346.5l-0.7,0.7L228.2,346.5z"/>
<path class="st19" d="M224.4,348l0.7-0.7L224.4,348z"/>
<path class="st11" d="M227.4,347.3l-0.7,0.7L227.4,347.3z"/>
<path class="st11" d="M226.7,348l-0.7,0.7L226.7,348z"/>
<path class="st11" d="M225.9,348.8l-0.7,0.7L225.9,348.8z"/>
<path class="st11" d="M225.2,349.5c-0.2,0.3-0.5,0.5-0.7,0.7C224.7,350,224.9,349.8,225.2,349.5z"/>
<path class="st11" d="M224.4,350.3l-0.7,0.7L224.4,350.3z"/>
<path class="st5" d="M71.9,419.1h15.7C82.4,420.3,77,420.3,71.9,419.1z"/>
<path class="st5" d="M65.9,413l5.9,6l-1.4,0.1l-0.1,0c-0.2-0.2-0.5-0.5-0.7-0.7l-0.1-0.1l-0.7-0.7l-0.1-0.1
	c-0.2-0.2-0.5-0.5-0.7-0.7l-0.1-0.1c-0.2-0.2-0.5-0.5-0.7-0.7l-0.1-0.1c-0.2-0.2-0.4-0.5-0.7-0.7l-0.1-0.1l-0.7-0.7l-0.1-0.1
	c-0.3-0.3-0.4-0.8-0.3-1.3L65.9,413z"/>
<path class="st5" d="M90.1,417.6c2.9-1.7,5.9-0.5,8.9-0.7C96.1,418.3,93,417.2,90.1,417.6z"/>
<path class="st5" d="M99.8,416.8c0.5-0.6,1.3-0.8,2-0.3c0.1,0.1,0.2,0.2,0.3,0.3H99.8z"/>
<path class="st5" d="M87.7,419l1.4-0.7L87.7,419z"/>
<path class="st5" d="M89.2,418.3l0.7-0.6L89.2,418.3z"/>
<path class="st20" d="M94.6,122.7l2.3-4.5l9-9.1c7.5-5.4,15.2-10.8,21.2-18c2.2-0.7,3.3-2.2,3.7-4.5c1-5.8,5.3-9.6,9-13.7
	c0.2-0.3,0.5-0.5,0.8-0.8l0,0c0.2-0.3,0.5-0.5,0.8-0.8l0,0c0.2-0.3,0.5-0.5,0.8-0.8l0,0c0.2-0.3,0.5-0.5,0.7-0.8l0,0
	c0.3-0.2,0.5-0.5,0.7-0.8l0,0c0.3-0.2,0.5-0.5,0.8-0.7l0,0c11-5.3,22.2-8.8,34.6-5.9c0.1,0.2,0.1,0.4,0.1,0.6h-1.6
	c-1.1,1.3-2.7,1-4.1,1.1c-4.2,0.1-8.4-0.1-12.6,0.1c-0.8,0.2-1.5,0.5-2.2,0.8c-0.6,0.3-1.3,0.6-2,0.8c-0.9,0.3-1.9,0.4-2.9,0.8
	c-0.7,0.2-1.5,0.4-2.2,0.7c-0.5,0.2-1.1,0.5-1.6,0.7l-1.6,0.7l-1.5,0.8c-0.5,0.3-1,0.6-1.4,0.9c-0.3,0.3-0.6,0.6-1,0.9
	c-0.8,0.8-1.4,1.7-2.2,2.6c-4.7,3.5-8,8.4-9.3,14.1c-0.5,2.1-1.9,3.9-3.8,4.9c-2.5,1.3-4.6,3.2-6,5.6c-1.8,3.1-4.6,5.4-7.9,6.6
	c-4.7,1.9-7.9,5.6-11.2,9.2c-0.3,0.3-0.5,0.6-0.8,0.8l-0.4,0.4c-5.2,5.5-8.9,11.7-9.6,19.4c-0.1,0.9-0.3,1.7-0.7,2.5
	c-4.3,8.1-1.4,16.8-2.1,25.2c-0.1,1.1,0.8,2.1,1.3,3.1c1.2,2.4,2.3,4.8,1.5,7.5c-0.2,0.3-0.6,0.4-1,0.2c0,0-0.1-0.1-0.1-0.1
	c-5.5-11.2-4.3-23-2.9-34.8C91.2,133.3,91.4,127.5,94.6,122.7z"/>
<path class="st21" d="M178.4,210.5c-0.6-3.7,3-5.4,3.7-8.5c1.4-1.5,3.2-1.1,4.9-1.1c2.3,0.2,4.7-0.4,6.7-1.6
	c3.8-1.4,5.8-4.9,8.8-7.3l0.7-0.7c0.3-0.3,0.6-0.8,0.8-1.2c0.6-2.9-0.4-5.7-0.1-8.5c0.2-1.9-1.7-1.7-3-1.9c-3.7-0.6-4.2-1.4-2.5-4.5
	c1-1.7,0.3-2.8-0.4-4.1l-3.8-3c0.1-1.3,1.1-1.9,1.7-2.9c0.3-0.4,0.5-0.8,0.7-1.3c0.6-3,0.8-6.1,1.8-9c0.1-0.3,0.2-0.7,0.4-1
	c0.6-1.4,0.8-3,2-4.1c0.3-0.4,0.7-0.7,1.2-0.9c0.3-0.1,0.6-0.2,0.9-0.3c0.3,0,0.6,0.2,0.8,0.5c-3.5,5.2-3.6,11.4-5.5,17.1
	c-0.8,2.2,0.7,3.3,2.2,4.7c5.6,5.3,8.4,11.9,6.3,19.4c-1.8,6.6-12.9,13-19.8,12.5c-3.3-0.3-5.4,0.8-5.7,4.4
	C181,208.7,179.9,210.1,178.4,210.5z"/>
<path class="st22" d="M178.4,210.5l2.8-3.2h0.9c0.2,0.2,0.4,0.4,0.4,0.7c0,0.1,0,0.3-0.1,0.4l-0.3,0.3c-3.8,3.6-6.6,7.9-8.4,12.8
	l-2.9,3.1l0,0c-2.2,4.6-0.5,9.6-1,14.4c-0.5,4.1,0,8.2-0.1,12.4c-0.1,2,0.3,4,1.1,5.8l0,0c0.3,0.2,0.5,0.5,0.7,0.8l0,0
	c0.3,0.2,0.5,0.5,0.8,0.7l0,0c1.9,0.8,4,0.9,6,1.5l0,0c0.3,0.2,0.6,0.5,0.8,0.7c1.3,2.5,5.2,0.7,6.1,3.8c0.2,0.2,0.5,0.5,0.7,0.7
	l0,0c0.4,0.3,0.5,0.9,0.2,1.3c-0.6,0.6-1.1,0.4-1.7,0c-0.4-0.2-0.8-0.5-1.1-0.8c-0.3-0.3-0.7-0.5-1-0.8s-1-0.5-1.6-0.7
	c-0.5-0.3-1-0.7-1.3-1.2c-0.2-0.1-0.3-0.2-0.4-0.4l-0.3-0.3c-9.7-1-11.9-7.2-10.8-15.6c0.3-1.7,0.3-3.5,0-5.3
	C165.5,229.3,170.9,219.6,178.4,210.5z"/>
<path class="st23" d="M177.7,63.5c9.6,4.3,18.8,9.3,23.4,19.5c3.8,8.4,2.5,17.2,0.9,25.8c-0.4,2.3-1.2,4.5-1,6.9
	c-0.4,0.2-0.8,0.1-1.1-0.2c-1.1-1.4-0.7-3.1-0.7-4.7c0-0.4,0.1-0.8,0.2-1.2c0.3-0.8,0.5-1.5,0.6-2.3c0.4-8.8,2.2-17.6-2.3-25.9
	c-0.7-1.5-1.7-2.7-3-3.8c-1.5-2.6-4.2-3.9-6.3-5.8c-2.7-2.4-6.4-3.1-9.2-5.2c-0.6-0.3-1.2-0.8-1.6-1.3c-0.2-0.3-0.3-0.6-0.3-1
	l0.1-0.5L177.7,63.5z"/>
<path class="st24" d="M200.3,115.7c0.2,0,0.5,0,0.7,0l0,0c0.1,0.4,0.5,0.5,0.7,0.8c5.7,4.6,8.5,18.4,5.3,25
	c-1.3,2.5-2.2,5.1-3.3,7.7c-0.2,0-0.4-0.1-0.6-0.1c-2.1-3.2,0.3-5.6,1.4-8.3c0.1-0.4,0.2-0.7,0.4-1.1c0.6-4.6,0.6-9.2,0-13.8
	c-0.7-2.2-2.3-4-3.2-6.1c-0.6-1.2-2.2-1.9-1.7-3.6L200.3,115.7z"/>
<path class="st22" d="M189.7,205.1c-0.2,2.8,3.2,4.9,1.9,7.7c-0.9,2-2.4,4.1-5.2,3.3c-3.6-1.1-4.9-3.7-4.3-7.3l0,0
	c0.4-0.5,0.9-1,1.4-1.5c0.8-0.4,1.6-0.8,2.4-0.1c0.3,0.5,0.3,1,0,1.5c-0.1,0.3-0.3,0.6-0.5,0.9c-0.8,0.9-1.4,1.8,0.1,2.6
	c1,0.6,2.2,0.6,3.1-0.1c1-0.8,0.5-1.8,0.1-2.7c-0.5-1.2-1.9-1.1-2.6-2c-0.5-1.2-1.9-1.5-2.5-2.6
	C185.7,203.2,187.7,205.3,189.7,205.1z"/>
<path class="st23" d="M159.4,63.5c6-1.5,12.1-0.4,18.1-0.6c0,0.2,0.1,0.4,0.2,0.6l-0.2,0.2c-1.6,1.4-3.6,1-5.4,1
	c-3.9-0.1-7.8,0.4-11.7-0.3C160,64.2,159.6,63.9,159.4,63.5z"/>
<path class="st25" d="M185.9,207.4l-2.2,0.8c-0.4,0.4-1.1,0.3-1.5-0.1c0-0.3-0.1-0.5-0.1-0.7c0-0.2,0.1-0.5,0.2-0.8
	c0.2-0.3,0.4-0.5,0.6-0.8l0.8-0.8C185,205.1,187.1,204.6,185.9,207.4L185.9,207.4z"/>
<path class="st22" d="M196.5,202.8l-2.3,0.7L196.5,202.8z"/>
<path class="st22" d="M197.9,202c-0.5,0.3-1,0.5-1.5,0.8C196.9,202.5,197.4,202.3,197.9,202z"/>
<path class="st22" d="M192.7,203.6l-1.5,0.7L192.7,203.6z"/>
<path class="st22" d="M190.5,204.3l-0.8,0.7L190.5,204.3z"/>
<path class="st22" d="M198.7,201.3L198,202L198.7,201.3z"/>
<path class="st22" d="M199.5,200.5l-0.8,0.7L199.5,200.5z"/>
<path class="st22" d="M200.2,199.8l-0.8,0.8L200.2,199.8z"/>
<path class="st12" d="M182.9,205.7l-0.6,0.8L182.9,205.7z"/>
<path class="st23" d="M201.8,116.5l-0.7-0.8L201.8,116.5z"/>
<path class="st5" d="M74.3,352.6c0.6,9.1-4.8,16.3-7.6,24.4c-1.1,3.1-0.9,6.2-0.9,9.3c-0.1,8.9,0,17.9,0,26.8l-0.1,0.1
	c-0.2,0.3-0.5,0.3-0.7,0V413c-0.8-8.6-0.2-17.2-0.3-25.8c0-3.2-0.4-6.5,0.3-9.7c3.8-9.3,10.4-18.4,7.3-28.8
	c-4-13.5-0.4-27.1-2.2-40.5c-1.5-11.3,2.4-19.7,11.5-26c5.6-1.1,9.6-6.5,15.8-6.1c0.3,0.3,0.4,0.8,0.2,1.2c-2.6,2.9-6.4,3.9-9.7,5.5
	c-3.5,1.8-6.7,4-9.5,6.7c-3.6,3.2-5.6,7.9-5.4,12.7c0.3,11.4,0.1,22.9,0.1,34.3c-0.1,3.1,0.4,6.3,1.5,9.2
	C75.4,347.9,75.9,350.3,74.3,352.6z"/>
<path class="st3" d="M65,377.5c0,11.8,0,23.7,0,35.5C63.8,401.2,63.8,389.3,65,377.5z"/>
<path class="st3" d="M65,413.1c0.2,0,0.4,0,0.7,0l0.1,1.4C65.5,414,65.3,413.6,65,413.1z"/>
<path class="st3" d="M65.8,414.6l0.7,0.7L65.8,414.6z"/>
<path class="st3" d="M66.6,415.3l0.7,0.7L66.6,415.3z"/>
<path class="st3" d="M67.3,416.1l0.7,0.7L67.3,416.1z"/>
<path class="st3" d="M68.1,416.8l0.7,0.7L68.1,416.8z"/>
<path class="st3" d="M68.9,417.6l0.7,0.7L68.9,417.6z"/>
<path class="st3" d="M69.6,418.4l0.7,0.7L69.6,418.4z"/>
<path class="st26" d="M92.1,173.3H93c3.1,0.8,2.6,3.1,1.9,5.1c-2.1,5.4-2,10.6-0.5,16.1c0.9,3.6,3.1,5.9,5.7,8.1
	c1.9,1.7,3.6,3.5,3.4,6.3c-0.1,0.6-0.3,1.1-0.6,1.6c-0.1,0.3-0.2,0.7-0.3,1c-1.4,3.8-0.8,4.8,2.9,5.3c0.9,0,1.7,0.2,2.6,0.5
	c4.5,3,8.2,7,12,10.8c1.7,1.7,1.9,3.7,0.8,6.2c-3.1,7.4-5.3,15-4.2,23.2c0.7,5.1-0.3,10.3,0.4,15.4c0.1,1.4-0.3,2.8-1.2,3.8
	c-0.8,0.4-1.1,0.2-1-0.7v-1.5c-0.6-10.3-0.5-20.7,0-31l0,0c0.5-0.4,0.2-1.1,0.8-1.5l0,0c0.2-0.3,0.4-0.6,0.7-0.8l0,0
	c0.9-0.8,0-2.1,0.8-3l0,0c0.3-1.2,0.6-2.5,0.9-3.7c1.6-1.1,2.1-3.3,1-4.3c-4.7-4.1-7.1-11-15.1-11.1c-6.1-0.1-5.4-4.6-4.1-8.8
	c2.2-1.8,1.6-3.4-0.1-5.1c-8.1-7.8-11.5-16.7-7-27.8C93.3,176.4,92.4,174.8,92.1,173.3z"/>
<path class="st27" d="M114.9,276.1l0.6,0.8c0.6,0.5,0.5,1,0.4,1.7c-0.8,3.7,0.8,7.8-1.8,11.1c-1.2,1.8-2,3.7-3.4,5.4
	c-1.8,2.3-3,2.3-4.5-0.2c-2.1-3.7-3.6-7.7-4.5-11.9c-0.5-2.6-2-4.8-4.3-6.1l-0.1-0.8c3.7-1.6,7.2-2.2,10.9,0.4
	C110.3,277.9,113,277.7,114.9,276.1z"/>
<path class="st14" d="M114.9,243.6c0,10.3,0,20.7,0,31C113.6,264.3,113.6,253.9,114.9,243.6z"/>
<path class="st14" d="M115.7,242.1c-0.3,0.5-0.5,1-0.8,1.5c0-0.5,0-1,0-1.5C115.2,242.1,115.4,242.1,115.7,242.1z"/>
<path class="st28" d="M185.9,267v-1.5c3.2,3,7.6,2.8,11.4,4.5l-2.3,0.8c-0.1,0.1-0.3,0.3-0.4,0.4c-3.7,0.7-6.3-1.1-8.6-3.7
	C185.9,267.4,185.9,267.2,185.9,267z"/>
<path class="st12" d="M179.1,261l-0.8-0.7c0.2,0,0.5,0,0.8,0C179.1,260.5,179.1,260.8,179.1,261z"/>
<path class="st28" d="M185.9,265.6l-0.7-0.7L185.9,265.6z"/>
<path class="st12" d="M170.8,257.2c-3-5.5-1.3-11.5-1.3-17.2c0-5.1-1.7-10.5,1.3-15.3C170.4,235.6,169.1,246.4,170.8,257.2z"/>
<path class="st12" d="M171.5,258l-0.7-0.8c0.2,0,0.5,0,0.7,0C171.5,257.5,171.5,257.7,171.5,258z"/>
<path class="st8" d="M140.6,71.9l-0.8,0.8c0-0.3,0-0.5,0-0.8H140.6z"/>
<path class="st14" d="M117.2,238.3c-0.3,1-0.5,2-0.8,3C116.6,240.3,116.9,239.3,117.2,238.3z"/>
<path class="st14" d="M116.4,241.3l-0.7,0.8v-0.8L116.4,241.3z"/>
<path class="st12" d="M178.3,260.3c-2.1,0-4.3-0.1-6-1.5l6,0.8C178.3,259.8,178.3,260,178.3,260.3z"/>
<path class="st12" d="M172.3,258.7l-0.8-0.7c0.2,0,0.5,0,0.7,0C172.3,258.2,172.3,258.5,172.3,258.7z"/>
<path class="st8" d="M144.3,68.1l-0.8,0.7L144.3,68.1z"/>
<path class="st8" d="M143.5,68.9l-0.7,0.8L143.5,68.9z"/>
<path class="st8" d="M142.8,69.6c-0.2,0.3-0.5,0.5-0.7,0.8c0-0.3,0-0.5,0-0.8L142.8,69.6z"/>
<path class="st8" d="M142.1,70.4l-0.8,0.8c0-0.3,0-0.5,0-0.8L142.1,70.4z"/>
<path class="st8" d="M141.3,71.2l-0.8,0.8c0-0.3,0-0.5,0-0.8L141.3,71.2z"/>
<path class="st29" d="M226.6,345.6h-0.7c-2.7-0.2-3.5,1.9-4.5,3.7c-0.2-1.8-0.6-3-3-2.7c-4.9,0.8-9.9,1.1-14.8,1.1
	c-5.5-0.2-7.5,2-7.2,7.3c-0.1,1-0.3,1.9-0.7,2.8c-1.6-3.8-4.6-4.5-8.5-4.4c-8.8,0.3-17.6,0.1-26.4,0.1c-10.5,0-21-0.9-31.6-1.1
	c-2.7,0-5.5,0.2-8.1-0.5c-1.3-1.7-0.4-3,0.7-4.3c13.2-0.1,26.4-0.5,39.6,0.1c10,0.5,20,0.3,30,1.3c2.5,0.2,4.8-0.9,6.1-3
	c1.2-1.5,1.2-2.7-1-3.3c-1.3-0.4-2.7-0.6-4.1-0.6c-6.8-0.2-13.5-0.4-20.3-0.5c-15.8-0.2-31.6-1.6-47.4-0.9c-1.5-0.2-1.3-1.1-0.9-2.2
	c3-8.9,7.2-17.5,8.2-27c0-0.2,0.3-0.4,0.4-0.6c0.3-0.2,0.6-0.4,1-0.4c1.2,0.6,1.9,2.2,3.5,1.8c2-0.5,4.3-0.6,5.3-2.4
	c0.7-1.3-1.6-2-2.2-3.1c-0.5-0.6-0.8-1.3-0.9-2c0-0.3,0.2-0.7,0.5-0.9c0.2,0,0.5,0.1,0.7,0.1l0.5,0c0.3,0.1,0.7,0.3,0.9,0.5
	c0.1,0.1,0.3,0.2,0.4,0.3c1.3,1.5,3.1,2.5,5.1,2.7c1,0.1,2,0.2,2.4,1.4c-0.4,4.8,3.9,5.2,6.6,6.4c13.7,6.4,25.2-2,31.1-10.6
	c6.1-9,8-19.1,7.7-29.6c-0.1-2.9,0.4-4.2,3.5-3c4,1.5,7.6,3.8,12,3.9c2.3,2.7,6.1,1.7,8.9,4.2c3.9,3.5,5.6,8,7.7,12.4
	c1.4,17.3,1.4,34.7,0,52.1C227.1,345.1,226.9,345.4,226.6,345.6z"/>
<path class="st30" d="M97.5,276.8c2.9-0.3,4.5,0.5,4.8,3.9c0.5,3,1.3,5.8,2.6,8.5c1.1,2.3,2.3,4.6,3.6,6.8c2.5-1.5,3.4-4.1,4.8-6.4
	l0.4,0.3c0.1,0.5,0,1-0.3,1.3l-3.1,6c-4,4.7-6.6,10.3-9.6,15.6c-7.2,12.6-14.6,25-21.7,37.7c-0.9,1.5-2.2,2-3.5,2.6l-1.3-0.7
	c-4.1-16.2-1.4-32.7-2.6-49c-0.8-10.5,5.4-15.6,12.6-20.3C88.4,280.6,93.1,278.9,97.5,276.8z"/>
<path class="st31" d="M140.5,304.1c-6-7.9,5.3-9.7,5.5-15.4c0.1-1.6,0.9-3.1,1.3-4.6c0.3-1.3,0.1-3.3,0.8-3.7
	c1.6-0.9,1.6,1.3,2.5,2.1c0.6,0.8,1.7,0.9,2.5,0.3c0.2-0.1,0.3-0.3,0.4-0.4c10.7-10.6,5.5-32.7-8.6-36.7c-2.6-0.8-5.2-1.9-7.7-3.1
	c-2.1-1-2.3-2.9-1.8-4.9c0.5-2.1,2-1.2,3.3-1c8.3,1.4,15.4-2.5,22.7-5.4c0.8-0.3,1.2-1.8,1.6-2.8c0.5-1.2-0.3-3.5,1.5-3.3
	s1.7,2.5,1.6,4.1c-0.2,6.1-0.3,12.3-0.7,18.4c-0.7,10.1,1.9,15,13.7,16.1l0.5,0.2c0.6,0.4,1.3,0.8,2,1.1c2.3,0.9,2.6,2.1,1,4.2
	c-3.1,4-6.5,8-9.5,12.1c-0.6,0.8-1.1,1.6-1.5,2.6c-0.1,0.3-0.3,0.6-0.5,0.9c-4.6,5.4-8.8,11.1-13.2,16.8c-1.4,1.9-2.7,3.9-4.8,5.2
	c-0.3,0.2-0.6,0.4-1,0.6c-4,0.8-7.8,0.5-10.8-2.7l0,0C141.1,304.6,140.9,304.4,140.5,304.1L140.5,304.1z"/>
<path class="st32" d="M164.7,156.5l-5.3-4.4c-2.6-0.7-5.3-1.3-7.5-3c-1.9-1.4-4.3-1.4-6.5-1.1c-1.9,0.3-2.9,0-3-2.1
	s-1.4-3.1-3.2-4.2c-6.2-4.2-11.5-9.7-15.5-16.1c-1.3-1.8-2.3-3.9-3-6c-1-3.6-1.2-3.6-4.9-2.1c-1.5-1.3-0.3-2.2,0.4-3.1
	c3.3-4.4,3.3-4.4,0.6-8.7c0.3-1.8,2.4-1.8,3.2-3c0.3-0.2,0.5-0.4,0.8-0.6c1.3-0.7,2.1-2,2.1-3.5c0.1-0.3,0.2-0.6,0.3-0.9
	c0.1-0.3,0.3-0.6,0.5-0.8l0.3-0.4l0.7-0.7l0.4-0.4l0.7-0.7l0.4-0.3c0.3-0.2,0.6-0.4,0.9-0.6c0.4-0.1,0.7-0.2,1.1-0.3
	c3.9,0.4,4.9,1.1,4.9,4.7c0.1,11,5.3,20.1,11.6,28.5c5.5,7.7,13,13.9,21.6,17.8c8.4,3.7,16.9,7.1,26.3,7.5c1.5-0.1,3-0.3,4.5-0.6
	c2.1-0.3,3.2,0.6,2.3,2.8l0,0c-0.5,0.6-0.9,1.3-1.3,1.9c-0.4,0.9-0.1,2-0.7,2.9c-0.2,0.3-0.5,0.5-0.8,0.8
	c-5.1-0.2-10.6,1.6-14.5-3.5c-0.5-0.6-1.2-0.9-2-1c-2.7-0.1-5.5,0.4-8.2-0.1c-2.5-0.5-3.1,2.6-5.2,2.2c-0.4,0-0.8-0.1-1.2-0.2
	C165.3,157.1,164.9,156.9,164.7,156.5z"/>
<path class="st33" d="M120.9,351.7c8.7,0,17.4-0.5,26,0.2c14.4,1.2,28.9,0.4,43.3,0.5c4.1,0,5.9,1.4,5.6,5.5l-0.1,1.4
	c-0.5,0.6-0.3,1.6-0.9,2.2c-0.3,0.3-0.6,0.6-1,0.8c-0.4,0.2-0.9,0.3-1.3,0.3c-10.1,0.3-20.3,0.6-30.4-0.3c-13.1-1-26.3-1.3-39.4-0.8
	c-1.9,0-3.8,0.4-4.9-1.8c-0.5-0.9-0.6-2-0.3-3c0-0.5,0.1-1.1,0.4-1.5c0.2-0.3,0.3-0.6,0.4-0.9c0.1-0.3,0.2-0.6,0.3-0.9
	c0.1-0.1,0.2-0.3,0.2-0.4c0.2-0.2,0.4-0.4,0.6-0.6l0.3-0.3c0.2-0.2,0.5-0.3,0.7-0.4L120.9,351.7z"/>
<path class="st34" d="M68,413c-0.1-5.4,4-10.6,0.9-16.3c-0.7-1.2,0.6-2.7,2-3.1c1.6-0.6,3.3-0.3,4.6,0.8c5.7,4.7,5.4,12,8,18
	c0.6,1.3-2.2,4.2-3.7,3.7c-3-0.9-5.3,1.3-8,0.7l0,0c-0.2-0.3-0.5-0.6-0.8-0.7l0,0c-0.2-0.3-0.4-0.6-0.7-0.8l0,0l-0.7-0.8l0,0
	c-0.2-0.3-0.5-0.5-0.8-0.7l0,0C68.5,413.5,68.3,413.3,68,413L68,413z"/>
<path class="st35" d="M118,355.5c0,1-0.1,2.1-0.1,3.1c1.3,4-0.7,7.5-1.9,10.9c-2.1,5.8-3.8,11.7-6.2,17.4c-1.5,3.5-0.6,4.5,3.2,4.5
	c9,0.1,17.8-1.4,26.7-1.9c11-0.5,22-2.1,33.1-0.5c3.3,0.5,6.3,1.7,9.4,2.6s4.3-0.2,4.7-2.9c1.1-7.6,3.7-14.9,4.5-22.6
	c0.2-2,0.8-3.7,2.8-4.6l0,0c0.2-0.2,0.5-0.5,0.7-0.7l0.8-1.5c-2.1,11-4,22.1-6.5,33c-0.8,3.5-2.7,4-6.8,2.1c-10-4.4-21.1-4-31.9-3.3
	c-14.1,1-28.1,2.4-42.2,3.5c-2.3,0.2-3.8-1.5-3-3.7c4.1-12.2,8.3-24.3,12.5-36.4l0.4,0.3L118,355.5z"/>
<path class="st36" d="M198,171c2.3,1.1,4.9,2.1,1.1,4.7c-1,0.7-1.8,2.6,0.2,2.7c11.6,0.3,3.5,8.8,5.5,13c-0.3,0.2-0.5,0.5-0.8,0.7
	h-0.7c-2.6-0.7-1.6-2.9-1.9-4.6s1-3.9-1.9-4.1c-2.5-0.2-4.6,0.8-5.3,3.4c-0.8,2.4-0.6,5.1,0.6,7.3c1,1.8,1.7,3.7,0.1,5.6
	c-3.7,3.9-8.5,1.7-12.8,2.3c-0.2-4.4,3.2-1.4,4.8-2.2c0.8-0.4,2.3-0.2,2.7-0.8c0.9-1.3-0.9-1.4-1.4-2c-3.1-3.5-0.9-7.1,0.1-10.4
	C190,180.5,194,175.8,198,171z"/>
<path class="st37" d="M215.4,417.6c-3.3,5.2-7.4,8.6-14.1,6.8c-1.5-0.4-2.9-0.7-3.7-2.2s0-3,1-4.1c3.4-3.9,6.8-7.7,12.5-8.2
	c2.6-0.2,2.8-2.5,2.7-4.6c-0.2-2,0.2-4.1,1.2-5.8c0.4,5.6,0.7,11.1,1.1,16.7l0,0C215.6,416.5,215.8,417.2,215.4,417.6L215.4,417.6z"
	/>
<path class="st38" d="M115.6,117.3c3.4-2.9,4.3-2.1,5.9,2.2c3.5,9.3,10.1,16.5,18.5,22c0.2,0.1,0.6,0.1,0.7,0.2
	c3.2,8.9,13.5,5.1,18.7,10.4c-5.9,0.8-10.1-5.8-16.3-3.4c-5.8-10.9-19.1-15.7-22.6-28.4c-0.3-1.2-0.4-2.7-2-2.8s-2.1,1.1-2.9,2.1
	c-8.9,11.3-12.4,24.7-15.6,38.3c-0.2,0.7,0.4,1.5,0.6,2.3c0.7-0.1,1.4-0.4,2-0.8c1.6-1.5,3.2-3,5.5-2.8c2.6,0.3,6.4-1.4,7.6,1.4
	c1.1,2.6-3.5,2.5-4.6,4.5c0,0.2-0.1,0.3-0.2,0.5c-0.2,0.3-0.5,0.5-0.9,0.6l-0.5-0.1c-0.2-0.3-0.4-0.6-0.4-0.9c0-1.5,1.4-2.1,2.2-3.3
	c-1.2-0.3-2.4-0.3-3.5,0c-1,0.2-1.8,0.7-1.8,2c-0.1,3.9,1.7,6.3,5.7,7.3c0.4,0.1,0.7,0.3,1,0.5c0.2,0.3,0.3,0.6,0.2,1
	c-2.8,2.3-5.8,1.8-8-1c-0.9-1.1-0.4-3.3-2.4-3.5c-1.5-0.1-1.8,2.1-3.3,2.3c-0.4-0.1-0.7-0.3-0.9-0.6c-2.1-3.1-2.2-6.1-0.8-9.9
	c1.5-3.9,2-8.3,3-12.4c1-3.8,2.2-7.5,3.6-11.1c2.5-4.4,4.7-8.9,7.4-13.2C112.6,119.4,113.5,117.7,115.6,117.3z"/>
<path class="st39" d="M102,211l0.3-0.8c0.1-0.3,0.3-0.5,0.5-0.7c0.3-2.8-1.1-4.7-3.1-6.5c-7.1-6.3-9.2-14.9-5.9-23.9
	c0.8-2.1,1.3-4.1-0.6-5.9c-4.9-9.4-5.1-19.7-3.4-29.4c1.8-10.6,3.5-22.1,13.2-29.5c0.2,0.3,0.4,0.6,0.4,0.9
	c-2.5,4.3-5.5,8.4-7.1,13.2c-0.3,0.6-0.6,1.3-0.8,2c-0.1,0.4-0.2,0.7-0.3,1.1c-0.2,3.1-0.9,6.2-2,9.1c-1.6,4.4,0,9.2-0.6,13.7
	c-0.9,6.5,1.5,12.3,3.4,18.2c0.6,3.1,0.6,6.2-0.1,9.3c-0.8,2.9,0,5.7,0.1,8.6c0,1.6,0.4,3.2-0.4,4.8c0.9,1.6,1.5,3.8,2.9,4.6
	c5.1,3.2,6.7,7.8,6,13.5C102,213.9,101.4,213.1,102,211z"/>
<path class="st40" d="M180.6,155.1c5,3.9,10.6,4.5,16.6,3.8c0.4,0.4,0.5,0.9,0.3,1.4c-0.9,1.5-2,3-1.1,5c0,0.2,0.1,0.3,0.1,0.5
	l-2.3,2.3c-2.4,0.1-4.7,0.1-6.2,2.5c-0.7,1.1-0.3,3.7-2.5,2.9c-1-0.4-1.9-2.8-1.8-4.2c0.5-4.5,0.3-8.8-2.4-12.7
	c-0.2-0.3-0.5-0.5-0.8-0.8l0,0c-0.3-0.2-0.4-0.3-0.3-0.5C180.4,155.2,180.5,155.1,180.6,155.1z"/>
<path class="st41" d="M164.7,156.5c0.2,0.1,0.5,0.2,0.7,0.2c0.4,0.2,0.8,0.3,1.2,0.3c0.4,0,0.8,0,1.3,0.1c0.3,0.1,0.5,0.2,0.8,0.4
	c0.1,0.1,0.2,0.2,0.3,0.3c0.1,0.1,0.4,0.4,0.6,0.6l0.9,0.9c0.2,0.2,0.4,0.4,0.6,0.6c0.1,0.1,0.2,0.2,0.3,0.3
	c0.2,0.2,0.4,0.4,0.5,0.6c0.2,0.2,0.3,0.5,0.5,0.7l0.5,0.6l0.3,0.3c0.2,0.2,0.4,0.4,0.6,0.6c0.3,0.3,0.6,0.7,0.8,1.1
	c0.3,0.6,0.5,1.1,0.6,1.7c0.2,0.6,0.2,1.2,0,1.9c-0.1,0.3-0.2,0.6-0.4,0.8l-0.3,0.4c-0.2,0.2-0.4,0.5-0.6,0.7l-0.3,0.3
	c-0.2,0.2-0.4,0.4-0.6,0.6l-0.3,0.3c-0.2,0.2-0.4,0.4-0.6,0.6c-0.3,0.3-0.6,0.5-1,0.8c-0.2,0.2-0.5,0.3-0.7,0.4l-0.7,0.4l-0.3,0.3
	c-0.2,0.2-0.4,0.4-0.6,0.6l-0.3,0.3c-0.2,0.2-0.5,0.4-0.8,0.5c-0.3,0.1-0.6,0.3-0.9,0.4c-0.6,0.2-1.3,0.5-1.9,0.8
	c-0.4,0.1-0.7,0.2-1.1,0.4c-6,1.7-11.9,2.5-17.6-0.8l-0.3-0.5c-4.4-3.4-2.8-8-0.8-11c1.9-2.7,3.2,2.1,5.2,2.7l0.4,0.1
	c0.5,0.2,1,0.5,1.5,0.8l0.9,0.3c1.2,0.2,2.4,0.1,3.5-0.2c0.6-0.1,1.2-0.3,1.8-0.6c0.3-0.2,0.6-0.4,0.9-0.8c0.1-0.2,0.2-0.4,0.2-0.6
	c0-0.2-0.1-0.4-0.2-0.6c-0.2-0.2-0.4-0.3-0.6-0.4c-0.6-0.1-1.1-0.3-1.6-0.5c-0.3-0.2-0.5-0.4-0.8-0.6c-0.9-1.6-0.4-2.7,1-3.5
	l0.5-0.1C160.6,159.5,160.9,154.2,164.7,156.5z"/>
<path class="st42" d="M115.5,278.3v-1.5c0.2-9.5,0.6-19,0.4-28.4c-0.1-5.1,2.8-9,4-13.4c0.9-3.1,1.1-5.3-1.2-7.4
	c-3.7-3.3-7.6-6.5-11.4-9.8c-0.5-0.4-0.7-1.2-0.2-1.7c0.1-0.1,0.1-0.1,0.2-0.2c5.4,3.1,9.4,7.9,13.5,12.4s-0.2,8.9-1.6,12.8
	c-1.7,4.9-2.2,10.2-1.7,15.4c1,10.5-0.6,20.9-1.9,31.2C114.9,284.5,115.2,281.4,115.5,278.3z"/>
<path class="st43" d="M126.2,186.9c4-0.6,6.6,1.9,7.5,4.9c1.1,3.4,5.2,7.1,0.4,11.1c-2,1.7,0.8,5.1-1.5,7.5c-1.2,1.3-2.1,2.5-4,2
	c-5.6-1.5-13.3-12.3-13.1-18.3C115.8,189.1,121.4,185.3,126.2,186.9c-0.8,0.9-1.8,1.5-2.9,1.7c-6.1,2.2-7.2,11.3-0.8,15.6
	c2,1.1,3.8,2.4,5.5,3.8c0.5,0.5,1.2,1.1,2,0.6s0.6-1.5,0.3-2.4c-0.4-0.8-0.9-1.5-1.5-2.2c-1.7-2.6-1.3-4.3,1.7-5.1
	c2.7-0.7,2.6-2.2,2-4.2c-0.7-2.3-2.5-3.7-4.1-5.3C127.6,188.8,126,188.6,126.2,186.9z"/>
<path class="st44" d="M99.1,168.1c0.5-1.9,1.4-3.6,3.6-3.8c2.5-0.3,1.9,2.1,2.5,3.4c1.6,3.5,4.3,3.6,7.5,2.6c0.6-0.6,1-1.4,1.3-2.3
	c-0.2-1.9-2-1-2.9-1.6c-0.3-0.1-0.6-0.3-0.9-0.6c-0.2-0.3-0.3-0.6-0.4-1c0-0.5,0.2-1,0.6-1.4l0.1-0.1c0.2-0.2,0.4-0.4,0.6-0.7
	l0.1-0.1c4.2-1.6,8.5-4.3,10.9,2.6c1,2.9,3,5.7,1.3,8.4c-2.2,3.6-6.3,3.6-10,3.7c-1.7,0-3.5-0.3-5.2-0.4l0,0c-3.4-1.8-6.6-3.8-9-6.9
	c-0.5-0.4-0.7-1.1-0.3-1.7C98.9,168.3,99,168.2,99.1,168.1z"/>
<path class="st45" d="M75.6,353.3c7.2-9.1,12.1-19.7,18-29.5c4.9-8,9.3-16.4,14.1-24.5c0.5-0.9,1.8-1.3,2.7-2
	c-8.9,15.6-17.7,31.1-26.5,46.7c-2.2,3.8-3.6,8.2-8.1,10.1C75.6,353.8,75.6,353.5,75.6,353.3z"/>
<path class="st46" d="M160.3,165.8c-0.1,0.2-0.2,0.5-0.3,0.7c-0.1,0.3-0.3,0.6-0.6,0.8l-2.3,0.9c-1.7,0.5-3.6,0.5-5.3-0.1l0,0
	c-0.6-0.4-1.1-0.9-1.6-1.4l0,0c-3.1-5-0.1-7.9,3.9-10.1c1.4-0.7,3.1-0.8,4.6-0.2c1.8,1.1-0.5,2.2-0.8,3.4H158
	c-1.3,1-3.5,1.9-0.7,3.7l0,0c0.8,0.9,2.1,0,3,0.8l0,0C160.6,164.7,160.6,165.3,160.3,165.8z"/>
<path class="st47" d="M164.7,174.8c0.2-0.1,0.4-0.1,0.6-0.1c0.5-0.4,1.2-0.2,1.6-0.7c0.2-0.1,0.4-0.1,0.6-0.1
	c0.3-0.2,0.6-0.4,0.9-0.7l0,0c0.3-0.2,0.5-0.5,0.8-0.8l0,0l0.8-0.6c0.2-0.1,0.5-0.1,0.7-0.1c0.2-0.1,0.5-0.3,0.8-0.4l0.7-0.5
	c0.3-0.1,0.5-0.3,0.8-0.4c0.6-0.1,1.2,0.1,1.6,0.6c-5.6,7-18.4,10.8-26.8,8c-2.9-0.9-3.5-2.5-1.9-4.3l0,0
	C152.1,177.6,158.4,177.9,164.7,174.8z"/>
<path class="st48" d="M99.1,168.1v2c-2.8,7.4-1,15-1.6,22.5c-0.1,1.3,0.5,3.5-2.2,2.6c-1.3-5-1.9-10-0.6-15c0.7-2.5,0.7-5.2-0.1-7.6
	c1.5-0.4,2.6-1.1,2.9-2.9c0.1-0.8,0.4-1.7,1.5-1.7L99.1,168.1z"/>
<path class="st49" d="M118.7,354c0,0.2-0.1,0.5-0.1,0.7l-0.2,0.3l-0.3-0.2l-0.2-0.1c4-11.8,7.9-23.6,12.2-35.3
	c1.3-3.6,0.5-7.9,3.7-10.8c0.6,0.5,0.7,1.4,0.2,2c-0.1,0.1-0.2,0.2-0.3,0.3c-2.5,4.2-1.6,9.3-3.8,13.8c-2.6,5-4,10.5-5.8,15.9
	c0.2,0.2,0.4,0.5,0.4,0.8c-0.2,0.7-0.5,1.4-0.9,2.1c-0.1,0.3-0.3,0.5-0.4,0.8c-0.2,0.4-0.3,0.9-0.3,1.3c0.1,1-0.3,1.9-1,2.6
	l-0.8,3.7l0,0c-0.2,0.3-0.5,0.5-0.7,0.7l0,0c-0.2,0.3-0.5,0.5-0.7,0.7l0,0C119.1,353.5,118.9,353.8,118.7,354z"/>
<path class="st50" d="M127,180.8c-1.9-3.8-2.7-8-2.2-12.3c0.1-0.5,0.4-1,0.7-1.4l0.8,1.6c0.5,1.7,0,4.1,3.4,3.4
	c2-0.4,4.9,8.2,3.5,9.9c-0.9,1.2-2.5,1.5-3.7,0.7C128.5,182.1,127.9,181.3,127,180.8z"/>
<path class="st51" d="M127,180.8c1.8,0,3.1,2.6,5.1,1c0.5-0.7,0.8-1.6,0.7-2.5c-2.8-1.3,0.2-6.7-4.8-6.4c-2.6,0.1-1.4-2.6-1.7-4.1
	l1.7,2.7c0.7-0.8,1.4-1.7,2-2.5c1-1.4,1.3-4.4,3.6-3.3s0.6,3.4-0.4,4.9c-1.5,2.2-0.7,4.1,0.4,6c1.4,2.7,2,5.8-0.6,7.5
	S128.5,182.8,127,180.8z"/>
<path class="st52" d="M174.5,171h-2.2c-0.3-0.1-0.3-0.3-0.3-0.5c0.1-0.2,0.2-0.2,0.3-0.2l0,0c0.2-0.3,0.4-0.5,0.7-0.7l0.1-0.1
	c0.2-0.3,0.4-0.5,0.7-0.6l0.1-0.1c0.2-0.3,0.4-0.5,0.6-0.8l0-2.2c-0.4-0.4-0.2-1.1-0.6-1.5l-0.9-1c-0.2-0.1-0.4-0.3-0.6-0.5
	l-0.2-0.2c-0.3-0.1-0.4-0.3-0.5-0.5l-0.3-0.9c-0.2-0.2-0.4-0.4-0.6-0.7l-0.2-0.2c-0.3-0.2-0.5-0.4-0.8-0.6l-0.8-0.7
	c-0.1-0.4-0.4-0.7-0.7-0.9l0,0c-0.2-0.3-0.5-0.6-0.9-0.7l-1.3-0.3c-0.2-0.1-0.3-0.2-0.2-0.4c0.1-0.1,0.1-0.2,0.2-0.2
	c4.6-2.5,9.5-1.4,14.4-1.5c0,0.3,0,0.5,0,0.8h-10.1C173.1,160.8,182.3,163.8,174.5,171z"/>
<path class="st53" d="M115.4,142.4c2.3,0.4,6.5,1.1,8.1,5.6c0.6,1.7-1.6,2.2-2.5,1.7c-4-2.1-9.8-0.2-12.3-4.5
	C107.7,143.6,111.1,142.1,115.4,142.4z"/>
<path class="st54" d="M107.3,215.8c0,0.6,0,1.3,0,1.9c-2.3-0.1-5.1,1.1-6.4-1.7c-0.8-1.7-1-3.7,1-5c0.2,1.3,0.7,2.2,2.2,2.2
	L107.3,215.8z"/>
<path class="st55" d="M218.4,382.1c-3,1.2-2.5-1.2-2.3-2.5c0.4-2.8-1.5-6.1,1.3-8.3c0.6-0.5,0.9,1.1,0.9,2
	C218.4,376.2,218.4,379.2,218.4,382.1L218.4,382.1z"/>
<path class="st48" d="M108.1,177l1.8,1.7c-0.8,0.3-1.5,0.5-2.3,0.6c-3.2,0.2-4.6-3.1-7.3-4c-0.2-0.1-0.2-0.9-0.2-1.4
	c0.6,0,1.3,0.1,1.9,0.3C104,175.1,105.3,177.7,108.1,177L108.1,177z"/>
<path class="st56" d="M134.4,237.8c-0.1,1.3-0.1,2.8-1.8,2.7c-1.5-0.1-2-1.4-1.9-2.8s0.5-2.7,2-2.8
	C134.3,235,134.3,236.5,134.4,237.8z"/>
<path class="st29" d="M133.6,310.8l0.1-2.2c0.6-2.4,1.4-4.7,2.3-6.9c0.7-1.4,2.1-1.7,3,0.1c-1,1-2.1,2-2.1,3.7
	c-1,1.9-0.5,4.5-3.1,5.4L133.6,310.8z"/>
<path class="st30" d="M115.5,278.3c0,3.1,0.1,6.2,0.2,9.3c0,0.2,0,0.4-0.1,0.6c-0.7,0.6-0.9,1.9-2.2,1.5l-0.1-0.1
	C116.2,286.3,114.1,281.9,115.5,278.3z"/>
<path class="st57" d="M136.1,305c-0.2-2.2,0.7-3.2,2.9-3.1l0.9,2.2c0,0.3-0.1,0.6-0.1,0.9C138.6,304.3,137.2,304.2,136.1,305z"/>
<path class="st42" d="M113.4,289.8l2.2-1.5l-2.2,3.1C113.4,290.8,113.4,290.3,113.4,289.8z"/>
<path class="st58" d="M179.4,263.3l1.3,0.6l-0.3,0.4c-0.4,0.2-1,0.1-1.2-0.3v-0.1C179.2,263.7,179.3,263.5,179.4,263.3z"/>
<path class="st45" d="M74.9,362.3c0.2-0.5,0.5-1,0.7-1.5C75.3,361.4,75.1,361.8,74.9,362.3z"/>
<path class="st58" d="M178.6,262.7c0.2,0,0.3,0.1,0.4,0.3h-0.3L178.6,262.7z"/>
<path class="st45" d="M74.2,363.1c0.2-0.2,0.4-0.5,0.6-0.7L74.2,363.1z"/>
<path class="st52" d="M180.6,155.9l0.8,0.8L180.6,155.9z"/>
<path class="st16" d="M68,413l0.7,0.8L68,413z"/>
<path class="st16" d="M68.8,413.8l0.8,0.7L68.8,413.8z"/>
<path class="st16" d="M69.6,414.5l0.7,0.8L69.6,414.5z"/>
<path class="st16" d="M70.3,415.3l0.7,0.8L70.3,415.3z"/>
<path class="st16" d="M71,416.1l0.8,0.7L71,416.1z"/>
<path class="st16" d="M215.4,417.6l0.8-1.5L215.4,417.6z"/>
<path class="st58" d="M198.7,272.3c-1.9-0.1-2.6,0.1-2.5,2.7c0.5,13.9-2.6,26.6-13,36.7c-9.2,8.8-23.5,9.4-33.4,1.4
	c-1.9-1.5-1.6-2.8-0.3-4.4c0.8-1.1,2.4-1,3.2-2.2l-0.1,0.1c1.1-0.7,2.1-1.6,2.9-2.6c5-6.6,9.9-13.1,15.1-19.5l0,0
	c3.9-5.8,8.1-11.3,12.8-16.5c0.4-0.4,0.3-0.9,0.5-1.4l0.4-0.3l1.5,0.8v0.1c1,1.6-0.2,2.6-1.1,3.6c-8.1,10.1-15.8,20.5-23.5,30.9
	c-2.1,2.8-4.2,5.7-7.2,7.7c-1.8,1.2-1.6,2.1,0.1,3.3c8.2,5.8,21.9,3.7,29.1-4.6c7-8,10-17.5,10.5-28c0.1-3.1-1-6.3,1.1-9.1l0,0
	l3.7,0.8C198.7,271.9,198.7,272.1,198.7,272.3z"/>
<path class="st59" d="M102.9,115.2l-0.1-0.9v-0.1c0.2-0.3,0.4-0.5,0.7-0.7c3.3-3.7,7.2-7,11.4-9.7c7.3-5,14.5-10.4,17.9-19.2
	c1.9-5,5.3-8.8,9.4-12c0.3-0.4,0.9-0.5,1.3-0.2c0,0,0,0,0,0c0.6,2.5-1.7,3.3-2.8,4.8c-0.5,0.5-1.1,1-1.7,1.5
	c-0.2,0.2-0.4,0.4-0.7,0.5c-0.3,0.3-0.6,0.6-0.8,1c-0.1,0.3-0.2,0.5-0.4,0.8c-0.5,1.3-1.3,2.5-1.8,3.8c-0.1,0.3-0.2,0.7-0.3,1
	c0.5,5.8-3,7.9-8,8.6l0,0c-0.3,0.2-0.5,0.5-0.7,0.7l0,0c-0.3,0.2-0.5,0.5-0.7,0.7l0,0c-0.3,0.2-0.5,0.5-0.7,0.7l0,0
	c-0.3,0.2-0.5,0.5-0.7,0.7l0,0c-0.9,1.8-0.6,4.3-3.1,5.2l0,0c-1.2,1.1-2.6,1.9-4.1,2.3c-0.2,0.3-0.4,0.5-0.6,0.7
	c-1,0.7-2.3,1.1-3.3,1.8l-0.7,0.5l-0.3,0.3c-0.2,0.2-0.4,0.4-0.6,0.5l-0.3,0.3c-0.2,0.2-0.4,0.4-0.6,0.5l-0.3,0.3
	c-0.2,0.2-0.4,0.4-0.5,0.5c-0.1,0.1-0.2,0.2-0.3,0.3c-0.2,0.2-0.3,0.4-0.5,0.5c0,0-0.3,0.3-0.3,0.3c-0.2,0.2-0.3,0.3-0.5,0.5
	l-0.3,0.3c-0.2,0.2-0.3,0.3-0.5,0.5l-0.3,0.3c-0.2,0.2-0.3,0.3-0.5,0.5c0,0-0.3,0.2-0.3,0.3c-0.2,0.2-0.3,0.4-0.5,0.5
	c0,0-0.3,0.3-0.3,0.3c-0.2,0.2-0.4,0.3-0.6,0.5c-0.2,0.1-0.5,0.2-0.7,0.3C103.7,115.6,103.2,115.5,102.9,115.2z"/>
<path class="st23" d="M143.6,72.7h-1.4l2.2-2.3l0.3,0.2c0.1,0.2,0.2,0.5,0.2,0.8c0,0.3-0.1,0.5-0.3,0.8c-0.2,0.2-0.4,0.4-0.6,0.5
	L143.6,72.7z"/>
<path class="st23" d="M153.3,65.7l3.1-0.7l0.2,0.5c-0.6,1.2-1.5,1.2-2.6,0.9C153.6,66.3,153.4,66,153.3,65.7z"/>
<path class="st23" d="M151,66.5l2.2-0.8l0.2,0.2c0.1,0.2,0.1,0.3,0.2,0.5c-0.1,0.3-0.4,0.6-0.7,0.7c-0.5,0.2-1.1,0.1-1.5-0.2
	L151,66.5z"/>
<path class="st23" d="M145.1,69.6l1.4-0.9l0.3,0.4c0,0.2,0,0.3,0,0.5l-0.4,0.3c-0.3,0.1-0.7,0.1-1,0L145.1,69.6z"/>
<path class="st23" d="M157.9,64.3l1.5-0.8l0.1,0.2c0.1,1-0.5,1.1-1.2,1L157.9,64.3z"/>
<path class="st23" d="M156.4,65.1l1.5-0.8l0.1,0.1l0.2,0.4c-0.1,0.3-0.3,0.5-0.5,0.7c-0.4,0.1-0.9,0-1.2-0.3L156.4,65.1z"/>
<path class="st23" d="M149.5,67.3l1.5-0.8l0.1,0.2c0.1,1-0.5,1.1-1.3,1L149.5,67.3z"/>
<path class="st23" d="M148,68l1.5-0.7l0.2,0.2l0.2,0.4c-0.1,0.3-0.4,0.5-0.7,0.6c-0.3,0-0.6,0-0.9-0.1C148.2,68.3,148.1,68.1,148,68
	z"/>
<path class="st23" d="M146.5,68.8L148,68l0.2,0.2l0.2,0.4c-0.1,0.3-0.3,0.5-0.5,0.7c-0.4,0.1-0.9,0-1.2-0.3L146.5,68.8z"/>
<path class="st23" d="M144.3,70.4l0.8-0.8l0.1,0.1c0.1,0.6-0.2,0.8-0.7,0.7L144.3,70.4z"/>
<path class="st39" d="M103.5,113.6l-0.7,0.7L103.5,113.6z"/>
<path class="st60" d="M127,94.6c4.8-1.6,7.3-4.8,7.5-9.9c2.1,3.5,3.4,7.5,3.6,11.5c0.7,9.3,3.9,18.3,9.4,25.8
	c6.5,9,15.5,16,25.8,20.2c7.3,2.9,14.8,4.7,22.8,3.8c2.8-0.3,4.7,0.4,5.6,3.2l0.1,0.6l-2.3,4.5c-0.1-1.2-0.1-2.6-1.8-2
	c-8,2.7-15.3-0.5-22.6-2.8c-14.4-4.7-26.3-13.4-34.3-26.4c-4.6-7.6-9.4-15.5-8.6-25.1C132.5,93.7,129.4,94.8,127,94.6z"/>
<path class="st61" d="M194.9,199.7c1.2-3.8-2.6-6.3-2.5-10.2c0.2-5.8,3.4-7.7,8.1-7.5s1.2,4.1,1.9,6.2c0.4,1.3,0.6,2.6,0.8,3.9
	C200.7,194.9,198.6,198.2,194.9,199.7z"/>
<path class="st60" d="M197.2,160.4c0-0.5,0-1,0-1.5l0,0c0.9-0.9-0.1-2.2,0.8-3l1.5-1.5c-0.7,3.5-1.5,7.1-2.3,10.6l-0.5-0.4
	C196,163.2,196.2,161.6,197.2,160.4z"/>
<path class="st60" d="M205.6,140.8c-1.3,2.6-2.7,5.2-2.5,8.3h-0.6l-0.5-0.4C200.7,143.8,201.7,141.6,205.6,140.8z"/>
<path class="st40" d="M197.2,165c-0.2,0.3-0.5,0.5-0.7,0.8v0C196.3,165,196.6,164.8,197.2,165L197.2,165z"/>
<path class="st61" d="M204,192.1l0.8-0.7L204,192.1z"/>
<path class="st60" d="M202.5,149.1c-0.3,0.3-0.5,0.5-0.7,0.8v-0.1C201.6,149.2,201.9,148.9,202.5,149.1L202.5,149.1z"/>
<path class="st58" d="M180.7,264l2.3,0.8l-0.4,0.4c-1,0.3-1.9,0.4-1.9-1.1L180.7,264z"/>
<path class="st12" d="M182.2,208l1.5,0.1l-1.5,0.7L182.2,208z"/>
<path class="st58" d="M182.9,264.8l0.8,0.7l-0.5,0.2C182.9,265.6,182.7,265.2,182.9,264.8C182.9,264.8,182.9,264.8,182.9,264.8
	L182.9,264.8z"/>
<path class="st58" d="M183.7,265.5l0.7,0.8l-0.1,0.1c-0.7,0.2-0.9-0.1-0.7-0.8L183.7,265.5z"/>
<path class="st62" d="M200.3,109.8c-0.1,0.2-0.1,0.4-0.2,0.6c-0.2,0.3-0.6,0.3-0.8,0.2c-0.1,0-0.1-0.1-0.2-0.2
	c-0.2-0.3-0.4-0.6-0.5-1c-0.3-1,0.1-2.1-1.4-2.7c-3.4-1.3-4.3-2.8-2.8-5.7c2.4-4.7,1.8-9.9,3.3-14.6c0.5-1.4-0.5-2.7-0.6-4
	c-0.1-0.8,0.2-1.6,0.9-2.1c5.9,8.8,3.6,18.5,3,28.1C200.5,108.6,200.7,109.3,200.3,109.8z"/>
<path class="st63" d="M179.1,65.8l9.9,5.3c-0.4,2.1,1.5,3.1,2.3,4.5c0.2,0.2,0.5,0.5,0.7,0.8c0.2,0.3,0.4,0.7,0.5,1
	c0.1,0.3,0.2,0.7,0.3,1.1c0.1,1.9-0.5,3.2-2.6,3.3c-1.9,0.1-2.6-1.1-2.9-2.8c-0.3-2.5-2.5-3.9-3.3-6.2c-0.1-0.3-0.2-0.7-0.2-1
	c0-0.7,0-1.5-0.7-1.9c-1.6-1-3.8-1.3-4.2-3.7L179.1,65.8z"/>
<path class="st63" d="M177.5,64.4c0,0.2,0.1,0.4,0.1,0.6l-0.3,0.5c-2.4,1.8-5.9,0.9-8.1,3.2c-0.5,0.6-1.7,0.3-2.5-0.2
	c-2.3-1.5-5-1.4-7.5-1.7c-0.4-0.1-0.8-0.3-1.1-0.6c-0.3-0.3-0.3-0.7-0.1-1l0,0c2-1.3,4.3-1.3,6.5-1.2
	C168.9,64.2,173.2,63.5,177.5,64.4z"/>
<path class="st64" d="M191.2,76.5c-0.8-1.8-5.4-2-2.1-5.3c2,2,5,3,6,6l-0.4,0.3C193.3,77.7,192.6,75.8,191.2,76.5z"/>
<path class="st59" d="M177.5,64.4c-6.5,0.2-13.1-0.7-19.5,0.8c0-0.2,0-0.5,0-0.7l1.5-0.8h18L177.5,64.4z"/>
<path class="st24" d="M199.5,110.5c0.2,0,0.5-0.1,0.7-0.1c0,1.8,0.1,3.6,0.2,5.3l-0.2,0.2l-0.5,0.1c-0.3-0.1-0.6-0.4-0.9-0.6
	C197.7,113.6,197.6,111.9,199.5,110.5z"/>
<path class="st64" d="M198,80.1l-0.1,2.4c-2.1-0.8-3.4-3-3.1-5.3l0.2-0.1C196.2,78,197.8,78.4,198,80.1z"/>
<path class="st24" d="M200.3,109.8l0.6-1.6L200.3,109.8z"/>
<path class="st63" d="M177.7,65l1.5,0.8L179,66c-0.8,0.4-1.4,0.3-1.5-0.8L177.7,65z"/>
<path class="st65" d="M202.4,149l-0.7,0.8c-5.5-5.6-12.8-1.6-19.1-3.4c-13.1-3.5-24-9.7-32.9-19.9c-8.6-9.9-12.8-21.4-13-34.5
	c0-2.6-3.1-4.3-2.3-7.3l0,0c1-1.4,2-1.6,3,0.1c0.5,1.1,0.8,2.9,2.3,0.7c0.9-1.3,1.5-2.9,2.2-4.3c0.2-0.3,0.4-0.6,0.6-0.9
	c0.6-0.7,1.2-1.4,1.9-2c0.3-0.2,0.6-0.5,0.9-0.7c8.2-3.4,15.7,0.4,17.7,9c0.2,0.6,0.2,1.3,0.1,1.9c-2.1,8.8,3,15,8.3,20.6
	c3.6,4.1,8.4,7,13.7,8.3c1.9,0.6,3.9,0.8,5.8,0.8c3.8-0.2,7.6,1.2,11.5,0.6l3.1,6c-0.2,5.3,0.8,10.6,0,16l0,0
	C201.7,142.5,202.6,145.9,202.4,149z"/>
<path class="st66" d="M202.4,118.8c-18.3,4.7-36.3-6.6-41.3-25.4c-0.8-3.1,2-6.1-0.5-9.8c-4.2-6.1-8.6-8.8-15.5-4.9
	c-0.8-0.8-0.2-1.6,0-2.4c-1.6,0.9-2.6,2.9-4.7,2.9c-0.7-0.1-1.1-0.7-1.1-1.3c0-0.3,0.2-0.6,0.4-0.8l3.8-4.4l0,0
	c0.3-0.2,0.5-0.5,0.7-0.8l0,0c0.6-0.9,1.4-1.7,2.3-2.2l0,0c0.3-0.6,1.1-0.4,1.5-0.8l0,0c0.3-0.6,1.1-0.4,1.5-0.8l0,0
	c1.1-0.8,2.6-0.9,3.8-1.6l0,0c1.5-0.5,3-0.7,4.5-0.8h0.8c0.9,1.8,2.1,3.4,3.7,4.7c5.4,3.8,7.6,9.4,9.1,15.5c0.5,1.8,0.5,3.8,0,5.6
	c-1.5,4.5,0.7,7.8,3.2,11c3.9,5,9.6,7,15.4,8.8c2,0.5,4.1,0.2,5.8-0.8c1.1-0.5,2.1-1.5,3.5-0.9v0.8c-0.7,1.7-0.7,3.6,0,5.3l-0.2,0.2
	l0.2-0.2c0.2,0,0.4,0,0.7,0.1C200.9,116.9,201.7,117.8,202.4,118.8z"/>
<path class="st60" d="M205.5,140.8c0-5.3-1.3-10.6,0-16C206.7,130.1,206.7,135.5,205.5,140.8z"/>
<path class="st67" d="M185.9,207.3c2.5-0.2,4.1,0.8,4.4,3.4c0.2,1.6-0.8,3-2.4,3.3c-1.7,0.5-3.6-0.2-4.5-1.8
	c-1.2-1.7,0.3-2.6,1.6-3.5c0.3,0.4-0.2,0,0.2,0.3c0.1,0.1,0.1-0.1-0.2-0.3L185.9,207.3L185.9,207.3z"/>
<path class="st54" d="M102.7,209.5l-0.5,0.7L102.7,209.5z"/>
<path class="st19" d="M194.9,270.9c0.7,13.7-1.2,26.5-10.4,37.7c-7.4,9-23.9,11.4-32.9,4c-0.9-0.7-2.1-2-0.7-2.7
	c9.4-5,13.2-14.8,19.5-22.4c5.4-6.6,10.3-13.5,15.4-20.2C188.8,268.8,191.4,271,194.9,270.9z"/>
<path class="st33" d="M123.9,341.1c0-0.2,0-0.5,0.1-0.7c7.5-1.6,15-0.8,22.5-0.6c15.4,0.2,30.8,0.9,46.2,1.5
	c2.7,0.1,7.1-0.6,7.1,2.7c0,3.7-3.2,6.6-7.9,6.3c-22.3-1.2-44.6-1.9-67-1.6c-1.1-0.1-2.2-0.4-3.3-0.7l0.1-3.8
	c0.2-0.2,0.4-0.5,0.6-0.7l0.1-0.1c0.4-0.2,0.9-0.1,1.3,0.2c1.3,2.2,3.5,2.3,5.6,2.2c18.9-0.2,37.7,1.3,56.6,0.8
	c2.5-0.1,5,0.2,7.5,0.2c0.9,0,1.9-0.3,2-1.4s-1-1.3-1.9-1.4c-1.5-0.2-3-0.2-4.5-0.1c-18.4,0.5-36.7-0.7-55.1-0.8
	c-3.3-0.1-6.5-0.4-9.8-1c-0.4-0.1-0.6-0.6-0.4-1C123.8,341.2,123.8,341.1,123.9,341.1z"/>
<path class="st68" d="M136.1,305c1.2-2.3,2.5-2.3,3.7,0c0.6,0.6,1.2,1.3,1.7,2c0.7,1.6,4.7,2.1,2.9,3.7c-2.4,2.1-5.8,3.8-9.5,2.9
	c-0.5-0.1-0.7-1.7-1-2.6C134.6,309,135.3,307,136.1,305z"/>
<path class="st16" d="M152.9,306.5c-0.3,1.9-2,1.7-3.2,2.2c-3.4,0.2-6.4-0.6-8.3-3.8C144.9,307.2,148.7,308,152.9,306.5z"/>
<path class="st16" d="M140.5,304.1l0.8,0.8L140.5,304.1z"/>
<path class="st16" d="M183.6,265.6l0.7,0.8c-3.6,6.7-8.5,12.5-13.5,18.2c1.3-5.5,5.6-9,9-12.9c3.1-3.5,2.6-5.4-0.7-7.6l1.4,0.1
	l2.3,0.7L183.6,265.6z"/>
<path class="st16" d="M170.9,284.5c-5.7,7.6-10.3,16.2-18.1,22.1L170.9,284.5z"/>
<path class="st69" d="M115.6,117.3l-10.6,16.7c-0.2,0.2-0.3,0.4-0.4,0.6c-0.5,1.9-1.5,2.4-3.2,1.5c0.9,1.4,1,3.2,0.2,4.6
	c-1,1.7-2.1,2.3-3.8,0.6c-3.2-2.7-4.5-7.1-3.4-11.1l0,0c0.4-0.4,0.6-0.9,1-1.3c0.2-0.2,0.3-0.5,0.4-0.7c0.1-0.3,0.3-0.5,0.4-0.7
	l0.2-0.4c0.1-0.6,0.3-1.2,0.3-1.8c2.1-3.7,3.5-7.9,7.4-10.3l0,0c0.3-0.2,0.6-0.5,0.8-0.8l0,0c0.3-0.2,0.6-0.4,0.7-0.8l0,0
	c0.3-0.1,0.6-0.4,0.8-0.7l0,0c0.3-0.2,0.6-0.4,0.8-0.8l0,0c0.3-0.2,0.6-0.4,0.8-0.8l0,0c0.3-0.2,0.6-0.4,0.8-0.8l0,0
	c0.3-0.2,0.6-0.4,0.8-0.8l0,0c0.3-0.2,0.6-0.5,0.8-0.8l0,0c0.3-0.2,0.6-0.4,0.7-0.8l0,0c0.3-0.1,0.5-0.2,0.8-0.3
	c0.8-0.2,1.5-0.5,2.1-0.9c0.8-0.5,1.6-1.1,2.4-1.7l0,0c0.1-0.2,0.4-0.3,0.6-0.1c0.1,0,0.1,0.1,0.2,0.2
	C124.1,110.2,117.4,113.4,115.6,117.3z"/>
<path class="st70" d="M148.7,146.9c-1.5-0.6-4.9,0.5-4.3-1.2c1.3-3.6,5.3-3.9,8.8-4.1c1.9-0.1,5.2,0.8,4.7,1.7
	C156,146.2,152.3,146.7,148.7,146.9z"/>
<path class="st60" d="M120.9,102.9l3.1-5.2C123.9,100,124.1,102.5,120.9,102.9z"/>
<path class="st60" d="M117.1,105.3l-0.8-0.1l4.5-2.3C120.3,104.4,118.8,105.4,117.1,105.3z"/>
<path class="st40" d="M198,155.9l-0.8,3L198,155.9z"/>
<path class="st60" d="M125.5,96.1l0.7-0.7L125.5,96.1z"/>
<path class="st60" d="M124.7,96.9l0.7-0.7L124.7,96.9z"/>
<path class="st60" d="M124,97.6l0.7-0.7L124,97.6z"/>
<path class="st16" d="M166.2,156.6v0.6l-0.8-0.5L166.2,156.6z"/>
<path class="st60" d="M126.3,95.4l0.7-0.7L126.3,95.4z"/>
<path class="st29" d="M194.2,361.6c-1.8,8-3.7,16-5.2,24c-1,5.2-1.3,10-9,7c-16.4-6.3-33.2-1.7-49.8-1c-7,0.3-14.1,1.6-21,0.8
	c-3.8-0.5-1-4.7-0.2-7.1c2.8-9,5.9-17.9,8.9-26.8c0.9,1.4,1.6,1.9,3.7,1.8c13.6-0.7,27.3-0.1,41,0.6
	C173.1,361.5,183.6,361.4,194.2,361.6z"/>
<path class="st71" d="M139,354.1c17.5,0,34.9,0,52.4,0c2,0,3.6,0.4,3.4,2.8c-0.1,2.1-1.1,3-3.4,3c-22.9-0.5-45.7-0.9-68.6-1.4
	c-1.2,0-3.6,1.5-3.5-1.6c0.1-2.5,1.4-3.7,3.8-3.7H139L139,354.1z"/>
<path class="st29" d="M120.2,352.5l0.7-0.7L120.2,352.5z"/>
<path class="st29" d="M119.4,353.2l0.7-0.7L119.4,353.2z"/>
<path class="st29" d="M118.7,354c0.2-0.2,0.5-0.5,0.7-0.7C119.1,353.5,118.9,353.8,118.7,354z"/>
<path class="st29" d="M118,354.9l0.6-0.1l-0.5,0.8C118,355.3,118,355.1,118,354.9z"/>
<path class="st29" d="M194.9,360.9l-0.7,0.7L194.9,360.9z"/>
<path class="st72" d="M94.4,130.1c-0.7,4.6,1.9,7.7,4.5,10.9c0.6,0.7,1,0.7,1.4,0.1c1.2-1.4,1.3-3.4,0.2-4.9
	c-0.7-1.1-2.4-2.3-0.6-3.4c1.9-1,1.5,1.3,2.2,2.1c1.7,2,1.8-0.9,2.9-1.1c-2.6,9.1-5.4,18.2-7.7,27.4c-0.5,1.9,1,4.4,1.6,6.6
	c-2.1,0.9,1.9,7.6-4.4,4.6C88.7,158.4,90.4,144.3,94.4,130.1z"/>
<path class="st73" d="M112.6,169.5c-7.9,2.1-6-5.6-8.4-8.8c-0.1-0.1,1.5-2.1,2.5-2.3c2.4-0.3,4.9-0.3,7.4,0.2
	c0.6,0.1-0.7,1.5-1.6,1.8c-1.5,0.5-2.6,1.4-2.8,3.1c0.4,0.3,0.3,0.7,0.3,1.1c0,0.4,0,0.8,0.5,1l0,0c0.6,0.9,1.6,0.4,2.4,0.5
	c1.9,0.1,2,1.1,1.2,2.5C113.7,169.1,113.2,169.4,112.6,169.5z"/>
<path class="st74" d="M112.6,169.5l0.8-0.7c0.3-0.4,0.8-0.5,1.2-0.2c0.1,0,0.1,0.1,0.1,0.1l-2.1,1.6L112.6,169.5z"/>
<path class="st16" d="M109.6,164.9c0-0.5,0-1,0-1.5c0.2,0,0.5,0,0.7,0c0,0.5,0,0.9,0,1.4c-0.1,0.2-0.3,0.3-0.5,0.2
	C109.7,165,109.7,165,109.6,164.9z"/>
<path class="st16" d="M111,162.7l-0.6,0.7L111,162.7z"/>
<path class="st60" d="M104.3,115c-3,3.4-5.7,6.9-6.8,11.4c-0.4,0.4-0.3,1.1-0.7,1.5l0,0c-0.2,0.3-0.5,0.5-0.8,0.8l0,0
	c-0.3,0.3-0.6,0.3-0.8,0c1.7-5,3.9-9.6,7.7-13.4L104.3,115z"/>
<path class="st72" d="M95.2,128.6H96l-1.6,1.5C94.7,129.6,94.9,129.1,95.2,128.6z"/>
<path class="st32" d="M197.1,164.9l-0.7,0.8c-2.8-2.2-1.7-3.8,0.8-5.3C197.2,161.9,197.2,163.4,197.1,164.9z"/>
<path class="st75" d="M154.6,175.2c-3.4-2.2-10.5,1.4-9.7-7c0.2-0.9,0.5-1.9,1-2.7c0.9,0.4,1.7,0.9,2.4,1.5
	c3.5,3.9,7.4,4.7,11.6,1.4c1.4-1.1,2.3-2.6,2.6-4.3c0.2-1.5-1.9-1.1-3-1.4c-0.7-0.2-1.9-0.9-1.1-1.3c2.4-1.4,4.3-4.9,7.7-2.8
	c3.1,1.9,6.8,4.3,6.7,8c-0.1,3.7-4.6,5.1-7.7,6.3C162,174.2,158.3,174.4,154.6,175.2z"/>
<path class="st16" d="M164.7,174.8c-4.3,3.6-14.3,3.6-18.9,0C151.9,177,158.6,177,164.7,174.8z"/>
<path class="st76" d="M157.2,163.4c-1.1,0-2.2-0.4-2-1.6c0.2-1.3,1.4-2.2,2.7-2.1C157.1,160.8,155.9,161.9,157.2,163.4z"/>
<path class="st16" d="M151.9,168l5.3,0.1C155.6,169.1,153.5,169.1,151.9,168z"/>
<path class="st76" d="M160.2,164.2l-3-0.8L160.2,164.2z"/>
<path class="st16" d="M150.3,166.5l1.6,1.4L150.3,166.5z"/>
<path class="st76" d="M160.3,165.8c0-0.5-0.1-1-0.1-1.6C161.1,164.7,160.9,165.2,160.3,165.8z"/>
<path class="st16" d="M173.9,164.2l0.6,1.5C174.3,165.3,174.1,164.8,173.9,164.2z"/>
<path class="st16" d="M167,174.1l-1.6,0.7L167,174.1z"/>
<path class="st16" d="M173.8,168.9l-0.7,0.6L173.8,168.9z"/>
<path class="st16" d="M173,169.6l-0.7,0.7L173,169.6z"/>
<path class="st16" d="M174.5,167.9c-0.2,0.3-0.4,0.5-0.6,0.8L174.5,167.9z"/>
<path class="st16" d="M172.3,170.3c0,0.2,0,0.5,0,0.7l0,0l-0.4,0.3l-0.4-0.3L172.3,170.3z"/>
<path class="st76" d="M159.4,167.2l0.6-0.8L159.4,167.2z"/>
<path class="st16" d="M169.2,172.5l-0.8,0.8L169.2,172.5z"/>
<path class="st16" d="M171.5,171.8l-0.8-0.1l0.9-0.7l0,0C171.8,171.3,171.8,171.6,171.5,171.8C171.6,171.8,171.6,171.8,171.5,171.8z
	"/>
<path class="st16" d="M170,171.8l-0.8,0.6L170,171.8z"/>
<path class="st16" d="M168.5,173.3l-0.9,0.7L168.5,173.3z"/>
<path class="st16" d="M172.4,162.7l0.6,0.5L172.4,162.7z"/>
<path class="st16" d="M171.8,162c0.2,0.1,0.4,0.3,0.5,0.6L171.8,162z"/>
<path class="st16" d="M170.9,160.4l0.6,0.7L170.9,160.4z"/>
<path class="st16" d="M169.9,159.7l0.8,0.6L169.9,159.7z"/>
<path class="st16" d="M167.6,157.5l0.9,0.7L167.6,157.5z"/>
<path class="st16" d="M168.5,158.2l0.7,0.9L168.5,158.2z"/>
<path class="st77" d="M126.2,186.9c3.2,1.8,6.2,3.9,7.4,7.6c0.8,2.5,2.5,5.8-3.1,5.5c-2.6-0.2-2.3,2.2-0.7,3.6
	c2,1.9,3.8,4.1,1.3,6.4c-2.8,2.5-3.6-1.4-5-2.6c-2-1.8-4.8-1.9-6.6-4.6C114.6,195.4,117.3,188.4,126.2,186.9L126.2,186.9z"/>
<path class="st78" d="M112.1,164.1c2.8-0.5,4.3-3.5,6.7-1c2.4,2.4,3.8,5.6,3.7,9c-0.2,2.4-3.2,3.5-5.9,3.9c-5.4,1-10.9-0.7-14.8-4.6
	c-1.1-1-1.9-2.1-1.4-3.6c0.3-0.5,0.7-0.9,1.2-1.1c1,0.7,1.9,1.5,2.7,2.4c3,4.3,6.7,3.9,10.4,1.4c1.1-0.8,1.8-2.1,1.9-3.4
	C116.7,165,114.4,165.1,112.1,164.1z"/>
<path class="st38" d="M114.7,168.6l-1.3,0.1c1.8-3.7-2.9-1.3-3-3.2C111.7,166.8,116,163.8,114.7,168.6z"/>
<path class="st38" d="M109.6,164.9c0.2,0,0.5,0,0.7,0c0.2,0.2,0.2,0.4,0.1,0.7L109.6,164.9z"/>
<path class="st52" d="M171.5,171.8c0-0.2,0-0.4,0.1-0.7c0.2,0,0.4,0,0.7,0L171.5,171.8z"/>
<path class="st29" d="M123.9,341.1l0.1,0.9c0.4,0.9,0.4,1.5-0.8,1.5l-0.8-0.1C122.9,342.6,123.4,341.9,123.9,341.1z"/>
<path class="st29" d="M122.4,343.5l-0.6,0.7L122.4,343.5z"/>
<path class="st79" d="M114.5,143.6c1.9,1.8,5.2-0.5,6.1,2.7c0.4,1.4-1.3,1.6-2.1,1.2c-2.3-1.2-5.3,0.6-7.1-2L114.5,143.6z"/>
<path class="st60" d="M139.8,78.7c0.9-0.6,1.9-1.1,2.8-1.7c1.5-1,2.9-2,4.3-3.1c1.5,2.4-2.2,2.8-1.8,4.7l0,0
	c-0.9,0.6-1.7,1.3-2.2,2.3l0,0c-1.1,1.5-2,3.1-2.7,4.8c-1.1,2.4-2.4,2.2-3.3-0.3c-0.2-1.9-1.3-1.1-2.3-0.8c0.8-1.5,1.5-3.1,2.3-4.6
	C138.4,81,138.9,79.4,139.8,78.7z"/>
<path class="st66" d="M139.8,78.7c-0.1,1.3,0.5,3-1.4,3.4c-1.3,0.3-1.5-1-1.7-2c0-0.2,0.1-0.5,0.2-0.7c0.2-0.2,0.4-0.5,0.6-0.6
	c0.2-0.1,0.4-0.2,0.7-0.2C138.6,78.3,139.3,78.3,139.8,78.7L139.8,78.7z"/>
<path class="st60" d="M116.4,105.2l-2.3,2.3c-0.5,0.5-1.1,0.3-1.7,0.4c-0.3,0-0.6-0.2-0.7-0.5L116.4,105.2z"/>
<path class="st60" d="M139.8,78.7h-1.6c0.5-0.5,1-1,1.5-1.6C139.8,77.6,139.8,78.2,139.8,78.7z"/>
<path class="st60" d="M111.9,108.2l-0.8-0.1l0.7-0.8l0.2,0.1c0.2,0.2,0.3,0.3,0.2,0.5S111.9,108.2,111.9,108.2z"/>
<path class="st60" d="M111,108.2c-0.3,0.3-0.5,0.5-0.7,0.8C110.5,108.7,110.8,108.4,111,108.2z"/>
<path class="st60" d="M105,114.2l-0.8,0.8L105,114.2z"/>
<path class="st60" d="M105.7,113.5c-0.3,0.3-0.5,0.5-0.7,0.8C105.3,114,105.5,113.7,105.7,113.5z"/>
<path class="st60" d="M106.5,112.7l-0.8,0.7L106.5,112.7z"/>
<path class="st60" d="M107.3,112l-0.8,0.8L107.3,112z"/>
<path class="st60" d="M108,111.2l-0.8,0.8L108,111.2z"/>
<path class="st60" d="M108.8,110.4c-0.3,0.3-0.5,0.5-0.8,0.8C108.3,110.9,108.5,110.7,108.8,110.4z"/>
<path class="st60" d="M137.5,78.8l-0.6,0.6L137.5,78.8z"/>
<path class="st60" d="M109.5,109.7l-0.8,0.8L109.5,109.7z"/>
<path class="st60" d="M110.3,108.9l-0.8,0.8L110.3,108.9z"/>
<path class="st59" d="M146.6,69.7l-2.3,2.2l0.1-1.4c0.3-0.2,0.5-0.5,0.7-0.7L146.6,69.7z"/>
<path class="st59" d="M144.3,71.9l-0.7,0.8L144.3,71.9z"/>
<path class="st59" d="M157.9,65.9l-4.5,0.8c0-0.2,0-0.5,0-0.7l3-0.7h1.5C158,65.4,157.9,65.6,157.9,65.9z"/>
<path class="st59" d="M153.4,66.7l-3.8,1.6c0-0.2,0-0.5,0-0.7l1.5-0.8L153.4,66.7z"/>
<path class="st59" d="M148.1,68.9l-1.5,0.8c0-0.3,0-0.5,0-0.8L148.1,68.9z"/>
<path class="st59" d="M149.7,68.2l-1.5,0.8c0-0.2,0-0.5,0-0.8L149.7,68.2z"/>
<path class="st80" d="M199.5,109.7c-8,5.4-24.3-0.5-28.1-9.6c-1.6-3.7-0.7-7-0.8-10.6c-0.2-6.7-2.3-12.8-8-17.4
	c-1.8-1.4-5.4-2.5-3.9-6.3c6.3,1.7,12.6,0.6,18.8-0.7L179,66c1.1,2.3,3.6,2.4,5.4,3.7c0.4,0.4,0.5,1,0.1,1.4c0,0-0.1,0.1-0.1,0.1
	l0,0c-0.5,0.6-0.5,1.4,0,2c4.4,6.8,4.8,14.1,3,21.7c-0.2,0.7-0.4,1.5-0.5,2.2c-0.2,1.4,0.7,2.8,2.1,3.1c1.8,0.4,1.9-1.2,2.3-2.4
	c1.8-4.6,1.6-9.6,2.4-14.4c0.3-2-1.2-3.8-1.9-5.6v-0.8c-0.3-0.2-0.5-0.5-0.7-0.8l0,0c-1.1-3.7,0.5-2,1.8-0.9l2,1.7l3.1,5.3
	c2.1,6-0.5,11.6-1.9,17.2c-0.5,1.8-1.5,3.6-0.9,5.2c0.9,2.2,2.3-0.4,3.4-0.1C202,105.7,198.9,108.1,199.5,109.7z"/>
<path class="st64" d="M191.9,78c6.1,4.5,1.3,10.4,1.9,15.5c0.2,1.8-1,3.8-1.5,5.6s-1.2,3.8-3.5,2.7c-1.8-0.9-4.2-2.1-3.3-4.8
	c2.9-8.2,2.5-16-1.8-23.5c-0.6-1.1-0.6-1.9,0.7-2.4c0.4,3.5,5.2,5.1,4.1,9.2c0.6,0.3,1.3,0.4,2,0.5C192.4,80.7,191.8,79.1,191.9,78z
	"/>
<path class="st64" d="M184.4,71.2v-1.5C185.1,70.2,185.1,70.7,184.4,71.2z"/>
<path class="st64" d="M191.2,76.5l0.7,0.8L191.2,76.5z"/>
<path class="st66" d="M144.3,96.7c0-2.6,0-3.9,0-5.3c0-2.5,2.1-3.2,3.9-3.3c2.2-0.1,1.4,2,1.4,3.2c-1.5,30.7,27.3,41.2,49.4,37.1
	c1.6-0.3,3.5-1.6,3.9,0.8c0.5,2.6-1.8,4.3-4,4.6c-16.6,2.3-32.4-0.2-44.5-12.5C148,114.7,143.3,105.9,144.3,96.7z"/>
<path class="st66" d="M136.8,85.5c2.2,2.3,2.5,0.8,3.2-1.3c0.4-1.3,1.9-2.2,2.8-3.3c-0.7,1.9-1.5,3.7-2.4,5.5
	c-0.4,0.8-1.5,1.7-2.2,1.7C136.7,88.1,136.9,86.7,136.8,85.5z"/>
<path class="st66" d="M142.9,81c-0.1-1.2,0.9-2.2,2.1-2.3c0.1,0,0.1,0,0.2,0C144.3,79.5,143.6,80.2,142.9,81z"/>
<path class="st65" d="M199.5,115.8c-0.1,0.9,0.2,2.1-1.3,2c-0.3-0.1-0.6-0.4-0.7-0.7C197.3,115.6,198.6,115.9,199.5,115.8
	L199.5,115.8z"/>
<path class="st81" d="M185,208.8c1.2,0.4,3.1-0.9,3.6,1.3c0.1,0.2-0.8,0.9-1.2,1C185.7,211.4,185,210.4,185,208.8L185,208.8z"/>
<path class="st82" d="M123.2,343.5l0.8-1.5c9.1,0,18.2-0.1,27.3,0c14.1,0.2,28.1,0.5,42.2,0.8c1.8,0,4.7-0.8,4.3,2.5
	c-0.3,2.8-2.4,3.7-5.3,3.2c-2.7-0.3-5.5-0.5-8.3-0.4c-19.2-0.3-38.4-0.6-57.6-0.7C123.5,347.3,122.9,346,123.2,343.5z"/>
<path class="st32" d="M111.9,108.2c0-0.2,0-0.4,0.1-0.7h2.2L111.9,108.2z"/>
<path class="st72" d="M96.8,127.9c0.2-0.5,0.5-1,0.7-1.5C97.2,126.9,97,127.4,96.8,127.9z"/>
<path class="st72" d="M96,128.6l0.8-0.8L96,128.6z"/>
<path class="st63" d="M182.1,88.5c-1.6,2,1.2,6.1-1.7,6.1c-2.5-0.1-1.1-4-1.2-6.3c-0.3-6-4.3-10.2-6.9-15.1
	c-0.8-1.4-3.6-3.1-1.1-4.6c2.3-1.4,2.6,1.6,3.8,2.9C179.1,76.5,179.6,82.9,182.1,88.5z"/>
</svg>
