<?xml version="1.0" encoding="utf-8"?>
<!-- Generator: Adobe Illustrator 24.1.2, SVG Export Plug-In . SVG Version: 6.00 Build 0)  -->
<svg version="1.1" id="Capa_1" xmlns="http://www.w3.org/2000/svg" xmlns:xlink="http://www.w3.org/1999/xlink" x="0px" y="0px"
	 viewBox="0 0 263.8 430.5" style="enable-background:new 0 0 263.8 430.5;" xml:space="preserve">
<style type="text/css">
	.st0{fill:none;}
	.st1{fill:#3E907E;}
	.st2{fill:#FDEED3;}
	.st3{fill:#FDE5D9;}
	.st4{fill:#FEFAF9;}
	.st5{fill:#356363;}
	.st6{fill:#FCC9AE;}
	.st7{fill:#F9BB9F;}
	.st8{fill:#203A40;}
	.st9{fill:#FDEFD6;}
	.st10{fill:#FE9966;}
	.st11{fill:#FDE5BD;}
	.st12{fill:#72AB99;}
	.st13{fill:#FDDEAD;}
	.st14{fill:#44927D;}
	.st15{fill:#C5976C;}
	.st16{fill:#FBD298;}
	.st17{fill:#1D3C42;}
	.st18{fill:#E87850;}
	.st19{fill:#FAAD84;}
	.st20{fill:#FCDFAB;}
	.st21{fill:#FDCF83;}
	.st22{fill:#FDCF84;}
	.st23{fill:#E7774F;}
	.st24{fill:#E8754F;}
	.st25{fill:#FDA973;}
	.st26{fill:#6C947B;}
	.st27{fill:#DD7452;}
	.st28{fill:#F7B47C;}
	.st29{fill:#BA435C;}
	.st30{fill:#D97866;}
	.st31{fill:#FECF83;}
	.st32{fill:#F2A672;}
	.st33{fill:#44927E;}
	.st34{fill:#8FAB80;}
	.st35{fill:#3B7C70;}
	.st36{fill:#E87851;}
	.st37{fill:#41937E;}
	.st38{fill:#3D7B6F;}
	.st39{fill:#B9464F;}
	.st40{fill:#E18C60;}
	.st41{fill:#E7754F;}
	.st42{fill:#DF7250;}
	.st43{fill:#F5F1ED;}
	.st44{fill:#E6E1DD;}
	.st45{fill:#FDBD7B;}
	.st46{fill:#CC5D5F;}
	.st47{fill:#B27554;}
	.st48{fill:#E5DFD8;}
	.st49{fill:#C0C4C2;}
	.st50{fill:#DC9670;}
	.st51{fill:#686B6A;}
	.st52{fill:#43392F;}
	.st53{fill:#554034;}
	.st54{fill:#A52E58;}
	.st55{fill:#191514;}
	.st56{fill:#17110F;}
</style>
<path class="st0" d="M59.7,430.4c-18.9,0-37.8-0.1-56.6,0.1c-2.6,0-3.1-0.5-3.1-3.1C0.1,320.7,0.1,214,0.1,107.3
	c0-34.9,0-69.7-0.1-104.6C0,0.5,0.5,0,2.7,0C88.8,0.1,174.9,0.1,261,0c2.3,0,2.7,0.5,2.7,2.7c-0.1,141.7-0.1,283.3,0,425
	c0,2.3-0.5,2.7-2.7,2.7c-29.1-0.1-58.2-0.1-87.2-0.1c-1.8-4-1-8.1-0.6-12.2c0.2-1.2,1.1-2.1,2.2-2.4c3.4-1.2,6.5-3.3,10.4-3.1
	c3.9,0,7.3-2.8,8.1-6.6c0.6-2.4,1.5-4.8,2.7-7c2.6-5.5,4.5-11.4,5.4-17.5c0.7-4.3,2.6-8.4,4.2-12.5c0.8-2,1.6-3.9,1-6.2
	c-0.5-2-0.1-4.1,1-5.8c1.6-2.4,1.7-4.9,1.7-7.6c-0.1-4.7-0.4-9.3,2.1-13.6c0.6-1,0.5-2.4,0.5-3.7c0.2-3.1,0-6.3,2.1-9
	c0.7-0.9,0.5-2.2,0.5-3.3c0-4.4-0.2-8.8,0.1-13.3c0.3-5.8-0.3-11.2-3.6-16.2c-1.5-2.3-1-4.7,0.7-7c5.6-7.9,9.9-16.5,7.7-26.3
	c-1.6-7.4-3.4-15.1-9.5-20.6c-2.7-2.3-4.9-5.1-6.6-8.2c-1.3-2.6-3.2-4.8-5.6-6.5c-2.1-1.4-3.7-3.4-4.7-5.8c-1.4-3.6-4.7-5.9-6.2-9.5
	c-1.2-2.8-2.5-5.5-4-8.1c-2.8-4.6-3-9.6-3-14.9c0.1-7.9-0.1-15.9-0.2-23.8c-0.2-2.5,0.3-5.1,1.5-7.3c0.6-1.4,0.9-2.9,0.8-4.4
	c0.2-5.9,0.1-11.9,0.2-17.8c0.1-5-3.2-8.9-6.3-12.5c-6.9-8.1-16-13.9-26.3-16.9c-4.2-1.2-8.5-1.8-12.9-1.8c-3.9,0-7.8,0.1-11.7,0
	c-14-0.6-26.3,4.6-37.8,11.7c-4.8,3.1-8.8,7.3-11.6,12.3c-2,3.5-4.9,6.4-6.6,10.1c-1.8,4-2.2,7.9,0,11.9c1.3,2.2,1.7,4.8,1.1,7.3
	c-0.6,2.7,0.1,5.3,1.2,7.7c1.1,2.4,1.6,5.1,1.5,7.7c-0.2,6.3,0.4,12.6-0.7,18.9c-0.4,2.9,0.1,5.8,1.6,8.3c2.2,3.9,1.7,8.3,0.4,12.5
	c-0.4,1.2-1.2,2.2-1.3,3.5c-0.1,6.9-3.7,12-8.4,16.7c-9.6,9.8-19.1,19.6-28.7,29.4c-1.8,1.6-2.7,4-2.5,6.4c0.3,3,0.3,6,0.1,9.1
	c-0.4,5.9,2.1,10.4,5.9,14.6c2.7,3,5.9,5.5,8.2,8.8c1.2,2.6,1.1,5.3,1.1,8.1c0,3.6,0.1,7.3,0,10.9c-0.1,4.4-0.2,8.7,2.7,12.5
	c0.7,5.8,0.3,11.6,0.3,17.4c0.1,0.5,0,1-0.3,1.5c-3.3,4.5-2,9.6-2,14.5c0,15-0.1,30,0.1,45c0,1.5,0.4,3.1-0.1,4.5
	c-1.8,5.8,0.9,9.6,5,13.1c1.3,1.2,2.6,2.4,3.7,3.8C59.7,428,60.6,429,59.7,430.4z"/>
<path class="st1" d="M171.5,430.4h-3c-0.9-1.8,0.5-4.2-1.8-5.5c-9-0.1-18-1.1-26.9,0.9c-1.8,0.5-3.7,0.6-5.6,0.3
	c-10.4-2-20.9-1.3-31.4-1.4c-1.7,0-3.5,0.3-5.1-0.8c0-2.5,2-2,3.4-2.2c10.1-0.9,20.2-2.4,30.2-3.7c10.6-1.4,21.2-2.5,31.7-4.2
	c2.7-0.4,5.5-1,8,0.6C171.9,419.7,173.9,425,171.5,430.4z"/>
<path class="st2" d="M188.2,206.1c2.3,3.9,5.5,7,7.4,11.3c1.5,3.4,5.9,4.6,7.8,8c2.6,5,6.5,8.8,10.3,12.9c2.6,2.7,3.9,6.4,4.8,10.1
	c0.2,0.9,0.4,1.7,0.8,2.5c3,7.8,3.5,15.5-0.6,23.1c-2,3.6-3.1,7.7-6.2,10.7c-1.5,1.5-1.1,3.5,0,5.2c3,4.3,4.3,9.5,3.8,14.6
	c-0.3,3.3,0.1,6.6-0.1,9.8c-0.2,3.9,1.1,8-2,11.5c-0.7,0.8-0.4,2.6-0.5,4c0,3.2-0.7,6.4-2,9.3c-1.8,3.7-0.6,8-0.8,12
	c-0.1,2-0.1,3.9-1.5,5.6c-1,1.3-1.5,2.9-1.3,4.6c1.5,6.4-2.6,11.2-4.1,16.7c-0.4,1.1-0.7,2.1-0.9,3.2c-0.9,7.2-2.8,14.1-6.7,20.4
	c-0.6,1-1,2.1-1.2,3.2c-1.5,6.5-4.1,8.8-10.9,8.9c-3.5,0.1-6.2,2.4-9.4,3.4c-1.2,0.4-1,1.9-1,3c0,3.4,0,6.8,0,10.2h-1.5
	c-0.6-4.1-0.5-8.2-0.7-12.3c-0.1-1.8,0.8-3.6,2.4-3.9c4-0.7,7.5-3.4,11.9-3.1c4,0.3,5.9-1.6,6.6-5.6c0.2-1.4,0.6-2.7,1.2-4
	c3.8-6.9,6.3-14.4,7.3-22.3c0.3-2.2,1.6-4.2,2.3-6.3c1.6-4.8,1.9-9.9,3.2-14.5c1.6-5.5,1.5-10.8,1.8-16.2c0-0.6,0.1-1.3,0.3-1.9
	c2.7-4.8,2.7-10.1,2.9-15.4c1.8-2.6,2.1-5.5,2-8.6c-0.2-2.6-0.2-5.3,0-7.9c0.8-7-0.9-14.1-4.9-20c-0.6-1.7-0.2-3.6,1.1-4.9
	c3.6-3.7,6.1-8.3,7.5-13.3c1.6-5.6,2.5-11.6,0-17.6c-1.6-3.9-2.8-8-4.7-11.8c-0.1-0.4-0.3-0.7-0.5-1c-4.7-4.6-8.1-10.4-12.6-15.2
	c-4.1-4.4-7.7-9.2-11-14.2c-0.9-1.3-1.6-2.6-1.2-4.2C187.5,206,187.9,205.9,188.2,206.1z"/>
<path class="st3" d="M51.4,327.4c-2.5-2.9-3.2-6.2-3.1-10c0.1-7.3,0.8-14.5-0.7-21.8c-0.1-0.8,0.4-1,1.1-1.1
	c2.2,0.8,2.4,2.8,2.9,4.6c0.3,5.6,0.4,11.3,0.1,17c-0.2,4.4,0.5,8.2,4,11.1c0.3,0.6,0.5,1.3,0.5,2c0.1,4.7-0.2,9.3,0.1,14
	c0.3,3.7-2.4,6.2-2.7,9.7c-0.3,2.4-0.4,4.7-0.3,7.1c1.5,14.7,0.3,29.4,0.6,44.1c0.1,2.8-0.7,5.5-0.8,8.3c-0.2,4.1,1.1,7.1,4,10.1
	c5.6,5.9,11.6,5.9,18.2,3.3c4.6-1.8,9.1-1.7,13.7-1.4c3.1,0.2,4.1,2.6,3.2,6.1h-1.5c-3.5-3.8-7.9-3.3-11.9-1.9
	c-5.3,2-10.7,1.3-16,1.4c-0.9,0-1.7-0.4-2.4-1c-0.7-0.5-1.3-1.2-2-1.8c-6-4.9-10.7-10.4-8.1-19c-0.9-18,0-36.1-0.6-54.1
	c0-1.9,0.3-3.8,1.1-5.5C53.9,341.6,53,334.5,51.4,327.4z"/>
<path class="st4" d="M51.4,327.4c1.5,0.7,2.4,2.3,2.3,4c-0.1,4.2,0,8.3,0,12.5c0.1,0.9-0.1,1.8-0.5,2.5c-3,4-2.5,8.5-2.5,13
	c0,12.5-0.1,25,0,37.4c0,6.3,1.5,12.5,0,18.7c-0.3,1.8,0.3,3.6,1.7,4.8c2.3,2.3,4.5,4.8,7,6.9c3.5,3.1,12.9,3.5,17.4,0.7
	c3.8-2.3,7.8-1.4,11.7-1.1c1.6,0.1,2.3,1.8,2.2,3.5h-31c-1.3-3.8-4.8-5.8-7.4-8.4c-3-3-4.9-6-3.4-10.4c0.5-1.5,0.1-3.3,0.1-4.9
	c0-15.9,0-31.8,0-47.7c0-4.4-1.3-8.9,2.1-12.9c0.7-0.8,0.2-2.7,0.2-4.1C51.4,337.2,51.4,332.3,51.4,327.4z"/>
<path class="st5" d="M97.8,423.6c8.4,0,16.9-0.1,25.3,0c2.2,0,4.5,0.5,6.7,0.7c11.6,1,23.2-1.9,34.8-0.8c1.3,0.1,2.8-0.6,3.9,0.8
	c-1.3,1.8-3.2,1.8-5.1,1.8c-4.8,0.1-9.5,0-14.3,0.1c-1.5,0-3-0.3-4.4,1.1c0.9,1.4,2.4,1.1,3.7,1.1c4.9,0.1,9.8-0.1,14.6,0.1
	c1.5,0,3.4-0.4,3.9,1.8H93c-0.6-1.8-0.8-3.7-0.6-5.5C93.7,422.5,95.5,422.1,97.8,423.6z"/>
<path class="st6" d="M212.3,325.3c0.1,4.9,0,9.7-2.3,14.3c-1.7,3.4-0.5,7.5-0.7,11.2c-0.1,2.1,0.3,4.3-1.6,6
	c-0.4,0.3-0.6,0.8-0.6,1.3c0.6,5.6-0.9,10.7-3.2,15.6c-2.4,5.1-3,10.8-4.3,16.1c-1.5,6.3-6.1,11.1-6.6,17.7c-0.3,2.9-3,4.9-5.8,4.6
	c-0.1,0-0.1,0-0.2,0c-4.7-1-8.2,2.6-12.6,2.7c-1.9,0-2.2,2.5-2.3,4.3c0,3.8,0,7.6,0,11.3h-0.8c-0.2-5.3-0.5-10.6-0.7-16
	c0.6-1.7,2.1-2.1,3.5-2.5c3.8-0.8,7.4-2.5,11.4-2.5c2.4,0.1,4.5-1.5,5-3.9c1.9-6.8,5.8-12.9,7.2-19.8c1.8-9.1,5-17.9,7-27
	c1.8-8.5,0.7-17.4,4.1-25.6c0.4-1.3,0.6-2.7,0.4-4.1C210.1,327.6,209.9,325.5,212.3,325.3z"/>
<path class="st7" d="M92.5,424.9c0.2,1.8,0.3,3.7,0.5,5.5h-0.8c-0.9-5.3-0.9-5.3-6.1-5.3c-3.9-0.2-7.7,0.5-11.3,2
	C67,430.6,57,426.6,53,419c-1.7-3.2-1.1-6.8-0.6-10c0.8-5.9,0.6-11.8,0.5-17.7c-0.1-10.6,0.6-21.1-0.5-31.7c-0.5-4.4-0.3-9,2.5-13
	c0.6-0.8,0.3-2.2,0.4-3.3c0.1-4.8,0.1-9.6,0.2-14.4c1.4-0.2,1.8,0.8,2.1,1.9c-1,5.4,0,10.9-0.7,16.3c-0.3,1.1-0.7,2.1-1.2,3.1
	c-1,1.9-0.9,3.9-0.9,5.9c0,17.4,0,34.8,0,52.2c0.2,3.2-0.8,6.6,0.8,9.7c1,1.4,2.1,2.7,3.4,3.8c4.7,5.7,10.5,4,16.3,2.6l2.2-0.9
	c3.8-1.5,7.8-0.8,11.7-1.3c1.5-0.3,3,0.7,3.3,2.2C92.5,424.6,92.5,424.8,92.5,424.9z"/>
<path class="st8" d="M167,430.4c-2-1.5-4.4-0.6-6.5-0.7c-4.8-0.1-9.5,0-14.3-0.1c-1.4,0-3.2,0.6-3.3-1.9s1.6-2.7,3.5-2.7
	c5.4,0,10.8,0,16.2,0c2,0,4-0.2,5.9-0.7c1.1,1.9,1.1,4.1,0,6L167,430.4z"/>
<path class="st9" d="M48.4,294.8l-0.8,0.8c-5.1-4.8-10.8-9.1-13.5-16c-0.6-1.5-0.9-3.1-0.9-4.7c-0.2-4.1,0.3-8.3-0.4-12.5
	c-0.2-2.2,0.7-4.3,2.4-5.7c4.8-4.6,9.5-9.3,14.1-14.1c6.3-6.5,12.5-13.1,18.8-19.6c1.5-1.4,2.5-3.2,3-5.2c1.4-6.3,4.1-12.3,3.7-19
	c-0.1-1.3-0.1-2.6-1-3.6c-2.6-2.9-2.5-6.4-1.9-9.7c1.2-6.8,0.3-13.6,0.6-20.4c-0.1-1.6-0.5-3.2-1.3-4.7c-1.3-2.9-2.2-5.9-1.2-9.1
	c0.6-1.6,0.4-3.3-0.5-4.8c-4.7-7.2-1.8-13.5,2.4-19.5c1.8-2.5,3.2-5.1,5-7.5c7.7-9.9,18.3-15.6,29.9-19.4
	c12.6-4.1,25.7-3.4,38.4-2.2c8.9,1,17.3,4.7,24,10.7c5.3,4.7,10.8,9.5,13.6,16.4c0.6,1.5,1.4,3.2,1.2,4.6c-0.7,4.3-0.2,8.6-0.4,12.8
	c-0.1,4.1,0.5,8.3-1.9,12.1c-0.6,0.9-0.4,2.4-0.4,3.7c0,9.5,0.2,19.1-0.1,28.6c-0.1,4.7,2,8.5,4.1,12.4c1.1,2.1,2.1,4.3,2.8,6.5
	h-0.8c-0.5,0.1-1.1,0.1-1.4-0.3c-2.5-4.4-6-8.6-6.3-13.9c-0.5-9.8-1.2-19.6-0.9-29.4c0.1-3.6,0.6-7.3,1.6-10.8
	c0.4-1.2,0.7-2.4,0.8-3.7c0.1-5,0-10,0.5-15.1s-2.5-9.1-5.4-13c-6.3-8.5-14.8-13.5-24.6-17.2c-11.1-4.2-22.3-1.7-33.5-2.3
	c-1.3,0-2.5,0.4-3.6,1.1c-2.3,1.3-4.9,2-7.6,1.8c-1.7-0.1-3.3,0.5-4.5,1.6c-4.3,2.2-8.4,4.5-12.8,6.5c-3.4,1.7-6.3,4.3-8.4,7.5
	c-3.3,4.7-7,9.2-9.5,14.5c-1.5,2.9-1.8,6.4-0.6,9.5c1,2.6,1.5,5.4,1.5,8.1c-0.1,3.3,0.2,6.5,2.2,9.4c0.6,0.7,0.8,1.6,0.7,2.5
	c-1.5,6.8,0.9,13.8-0.9,20.6c-1.2,3.8-0.6,7.9,1.5,11.2c1.9,2.9,2.4,6.5,1.3,9.8c-2,5.3-1.8,11.2-4.6,16.3c-1,1.9-2.2,3.6-3.6,5.2
	c-8.9,8.9-17.5,18.1-26.8,26.7c-8.5,7.9-8,18.6-5.1,26.4c1.7,4.6,5.8,7.6,8.6,11.4C47.1,292,48.8,292.8,48.4,294.8z"/>
<path class="st10" d="M55.2,419c-2.7-3-1-6.5-1.5-9.8c0.5-3.8,0.8-7.7,0.7-11.6c0.1-13.6,0.3-27.2-0.3-40.8c-0.1-2.5,0.2-5,1.1-7.4
	l0.8-2.3c1.5-3.4,0.7-6.9,0.8-10.4c0.1-1.9-0.3-3.8,1.6-5.1c4-0.6,6.2,3,9.5,4c1.4,0.6,2.7,1.3,4,2.1c1.9,0.9,3.1,2.8,3,4.9
	c-0.4,10.5,1.3,20.8,2.8,31.1c0.7,4.8,1.8,9.9,4.5,14.3c0.5,1.2,1.7,1.9,2.9,2c13.3,0.5,26.4,3.6,39.8,2.2
	c7.3-0.8,14.5-0.6,21.8-0.8c3.2-0.1,4.4-1.2,3.5-4.2c-2-6.3-1.7-12.9-4-19.1c-1-2.7-0.3-5.5-1-8.2c-2.1-8.4-3.8-16.8-5-25.4
	c-1-6.2-3.4-12.1-3-18.5c0.1-2-1.8-3-2.4-4.6c-1.2-6.8-2.9-13.5-3.6-20.4c-0.6-5.6-2.5-10.2-8-13c-4.9-2.5-9.7-5.3-13.6-9.4
	c-1.7-1.8-3.6-1.4-5.5-0.4s-3.9,2.4-6.3,1.1c0.2-3.1,3.2-3.1,5-3.9c5.6-2.6,5.8-2.6,5.3-8.6c-0.2-1.6,0-3.3,0.5-4.8
	c0.6-1.1,0.7-2.5,0.3-3.7c-0.9-2-0.7-4.3,0.4-6.2c1.1-2,0.6-3.5-1.1-4.9c-5.3-4.5-10.8-8.6-16.4-12.7c-1-0.8-2.2-1.2-2.7-2.5
	c0-1.3,1.2-2.4,0.5-3.8c-0.1-0.3-0.2-0.6-0.3-1c-0.2-0.9-0.7-1.8,0.6-2.3c4.1,0.6,7.4,2.7,10.6,5.2c7.1,5.5,14.1,11.7,22.8,14.4
	c7.5,2.3,15.7,3.8,23.5-0.4c3-1.4,5.4-3.8,6.9-6.8c2.3-4.8,6.1-8.2,9.7-11.9c4-1.3,5-0.7,5.2,3.2c-0.1,0.4-0.4,0.6-0.8,0.8
	c-1.4-0.8-3.1-2.3-3.2,1c-0.1,1.7,0.4,2.4,2,1.1c0.5-0.4,0.9-0.1,1.2,0.4c0.4,0.7,0.5,1.5,0.3,2.2c-2.6,4.9-2.2,10.5-4.2,15.5
	c-0.3,0.6-0.5,1.2-0.6,1.8c-0.1,6-1.9,11.6-3.2,17.4c-0.8,3.5,0.2,5.6,3.6,7.2c4.5,2.1,9.4,3.6,13.8,6.1c1,0.6,2.5,0.7,2.8,2.3
	c-1.5,1.7-3.3,1.1-4.8,0.3c-4.4-2.2-9-3.9-13.5-5.8c-2.9-1.2-3.7-0.7-4.4,2.5c-0.3,1.5-0.7,3-0.1,4.5c2.8,7.4,4,15.4,8.1,22.3
	c1.4,2.3,0.5,5.2,1.7,7.6c3.1,7.3,5.2,14.9,7.8,22.3c3.1,8.6,6.4,17.1,8.6,26c0.6,2.4,2.1,4.3,2.5,6.7c-0.5,3.1,1.4,5.5,2.4,8.2
	c1.3,3.5,2.9,6.8,4,10.4c0.9-2.5,0.2-4.9-0.7-7c-0.9-2.6-2.1-5.1-3.5-7.5c-1.6-2.4-0.9-5.1-1.1-7.7c0-4.4-0.1-8.8,0-13.3
	c0.1-2.6,0.9-4.8,3.2-6c5.7-3.1,11.5-6.1,17.4-8.8c0.8-0.1,1.6-0.3,2.3,0.3c1.3,2.5,0,4.9-0.7,7.2c-0.9,2.8-1.9,5.5-1.5,8.5
	c0.8,6.1-2.2,11.5-2.7,17.4c-0.5,5.7-3.1,10.8-4.3,16.1c-1.1,4.6-2.4,9.2-3.8,13.7c-1.6,5.5-4.5,10.5-6.2,16.1
	c-0.6,2.1-3,2.7-5.4,2.8c-5.2,0.1-9.9,2-14.7,3.8c-11,0.5-21.8,2.5-32.7,4c-10.4,1.4-20.8,2.5-31.3,3.8c-3,0.4-6.2,0-9,1.4
	c-1.9-0.2-3.8-0.1-5.3,1.3c-1.1-1.5-3.1-2.1-4.9-1.6c-3.4,0.7-7,0.1-10.4,1c-1.2-6.8-5.4-10.9-11.6-13.6c-2.7-1.2-5.3-1-8.1-0.5
	c-2,0.3-2,1.8-1.9,3.4C55.9,415.5,56.7,417.4,55.2,419z"/>
<path class="st11" d="M181.4,151.6c-2.5,10.2-1.7,20.5-1,30.8c0.2,2,0.3,4,0.2,6c-0.6,7.1,3.7,12.1,6.8,17.8
	c2.6,5.8,6.3,11.1,10.7,15.7c5.7,5.6,9.8,12.5,15,18.4c-1.3,0.5-2.1-0.5-3-1c-1-0.6-1.9-1.3-2.6-2.2c-5-7.5-11.8-13.6-16.8-21.2
	c-4-5.9-7.6-12.1-10.8-18.5c-1.4-2.4-1.9-5.2-1.5-8c0.3-1.2,0.5-2.4,0.4-3.6c-2.8-10.3-1.5-20.7-0.6-31.1c0.1-0.8,0.4-1.5,0.8-2.1
	C179.5,151.7,180.4,151.3,181.4,151.6z"/>
<path class="st12" d="M210.1,329l-1.5,0.3c-0.4-0.4-0.6-1.1-0.5-1.7c3.1-4.7,3.8-9.9,3.3-15.5c-0.2-2.9-0.2-5.8,0.1-8.6
	c0.3-3.3-0.5-6.5-2.1-9.4c-1.2-1.8-2-3.8-2.5-5.8c0.2-0.7,0.7-0.9,1.3-1c0.4,0,0.8,0.1,1.2,0.3c4.3,5.8,6.2,13.1,5.4,20.2
	c-0.2,3.1-0.2,6.3,0,9.4c0.1,3-0.1,5.7-2.3,8L210.1,329z"/>
<path class="st13" d="M209.3,287.7l-0.8,0.2c-0.8-0.3-1.3-1-1.3-1.9c0.2-2,1.4-3.5,2.7-4.9c5.9-6.8,7.7-15,7.1-23.5
	c-0.4-5.2-2.9-10.1-5.2-14.8c-0.6-1.3-2-2.4-1-4.1l2.3,1.5c3,4.8,5,10.2,6,15.8c1,6.5,0.9,13.2-2.8,19.1c-2,3.1-2.8,7.1-6.1,9.4
	C209.1,285.3,209.3,286.5,209.3,287.7z"/>
<path class="st14" d="M55.4,327.6c-3.7-2.5-5.2-5.9-4.9-10.6c0.4-6.3,0.1-12.6,0.1-18.9c0.7-2,0.8-4.2,2-6.1
	c3.5-5.4,7.6-10.2,13.8-12.3c5.9-2,11.4-5,17.7-5.8c1.7,1.1,1.7,3.1,1.9,4.8c0.9,5.6,2.4,10.8,6.3,15.1c0.8,0.8,1.4,1.8,0.9,3.1
	c-0.4,0.4-1,0.6-1.6,0.5c-5-3.8-8.1-9.5-8.6-15.7c-0.4-3.8-0.8-4.2-4.3-2.8c-4.3,1.8-8.4,3.8-13,4.9c-4.8,1.2-11.5,10-11.6,14.9
	c0,3.2,2.3,5.7,2.9,9.5c1-1.4,0.9-3.2-0.1-4.5c-0.6-0.7-1-1.4-1.4-2.2c-0.6-1.6-1-3.4,0.5-4.5s2.5,0.4,3.6,1.3
	c0.9,0.7,1.5,1.8,2.7,2c1.1-0.7,0.3-1.5,0.1-2.3c-0.4-1.2,0.2-2.6,1.5-3c0,0,0,0,0.1,0c1.4-0.5,2.9-0.5,3.7,0.9
	c0.9,1.4,1.9,2.6,3,3.8c1.9,2.3-0.3,3.9-1.9,4.1c-3.5,0.6-4.5,2.7-4.7,5.7c-0.1,0.9-0.5,1.7-1.1,2.4c-1.2,1.5-0.8,2.1,0.3,3.9
	c2.5,4,4,8.6,6.6,12.7c0.9,1.4-0.5,2.6-2.2,2.5c-1.3,0-2.5-0.6-3.3-1.7c-1.4-2.1-4.2-2.9-5.4-4.9c-1.3-2.1-3.4-3.7-4.1-6.6
	c-1.1,3.7,0.7,7.2,4.7,9.9c1.6,1.1,3.7,1.7,4.2,4C59.6,332.9,57.5,330.2,55.4,327.6z"/>
<path class="st15" d="M55.4,327.6c2.6,1.7,4.9,3.9,8.1,4.5c1.6-0.4,2.5,0.9,3.7,1.5c2.2,1.1,4.1,2.6,6.5,3.3
	c2.1,1.4,3.4,3.8,3.4,6.4c-0.3,7.9,0.1,15.9,1.2,23.7c0.8,6.3,2.2,12.4,4.3,18.4c0.6,1.6,1.4,2.7,3.4,2.9
	c12.9,1.4,25.8,1.9,38.7,1.7c7-0.2,14-1.2,21.1-0.8c2,0.1,2.9-0.4,2.4-2.9c-2.7-12.8-5-25.7-7.3-38.6c-1.8-10-4-20-5.5-30.1
	c-0.4-2.7-2-4.2-4.9-4.3c-6.9-0.1-13.8-1.4-20.3-3.8c-2.2-0.9-4.6-1.4-5.4-4.1c1.1-1,2.3-0.7,3.5-0.2c7.4,2.9,14.9,5.1,22.9,4.5
	c1.4-0.2,2.8,0.2,3.9,1.1c2.5,2.3,2.6,5.3,3.2,8.4c1.5,7.2,1.7,14.6,4.1,21.6c0.3,0.8,0.5,1.7,0.6,2.6c-0.2,7.6,2.7,14.8,3.8,22.2
	c0.9,5.9,0.8,12.3,3.6,17.9c0.8,1.7,1.2,3.6,1,5.5c-0.1,2.5-1.9,3.7-4.4,3.6c-14.1-0.3-28.1,1.5-42.2,0.7c-7.1-0.4-14-2.3-21.2-2.5
	c-3.6-0.1-4.1-5.1-5.2-8.3c-2.6-7.8-3-15.9-4.1-24c-0.5-5-0.7-10-0.6-14.9c0-1.9-0.2-3.8-1.9-4.6c-4.8-2.1-8.8-5.5-13.8-7
	c-0.9-0.1-1-1-1.5-1.5l-1.4-1.5C55.4,328.5,55.4,328.1,55.4,327.6z"/>
<path class="st16" d="M52.9,292.5c-0.9,1.8,0,4.5-2.4,5.7c-0.9-1-0.5-2.9-2.1-3.4c-2.7-3.1-5.3-6.4-8.2-9.3
	c-6.6-6.5-6.6-19.4-3.9-25.9c1.1-2.7,3.5-4.9,5.6-7c8.2-8.4,16.4-16.7,24.8-24.9c4.2-4.1,7-8.6,7.7-14.4c0.4-2.3,1-4.6,1.8-6.8
	c1.5-4,0.9-8.5-1.5-12.1c-2.2-3.3-1.7-6.9-1.1-10.2s1.3-6.8,0.6-10.4c-0.5-2.6-0.3-5.3,0.4-7.9c0.4-1.1,0.6-2.9,0-3.7
	c-4-4.9-1.5-11.1-3.6-16.2c-3.5-8.7,0.4-15,5.4-21.3c1.8-2.3,2.9-4.9,4.8-7.2c5.6-6.6,13.3-9.6,20.8-12.9c0.2-0.2,0.5-0.3,0.8-0.1
	c0.1,0.1,0.1,0.1,0.2,0.2c0,1.9-1.5,2.3-2.8,3.1c-5.7,3.5-12.6,5.4-16.7,11.2c-3.7,5.3-8.2,10-10.7,16c-1.4,3-1.1,6.6,0.8,9.4
	c2.1,3.1,3.8,6.3,2.2,10.2c-0.3,0.7-0.2,1.5,0.1,2.2c2.7,6.2,1.1,12.8,2.1,19.2c-0.7,1.6-0.5,3.4-0.9,5.1c-2,4.5-1.5,8.9,0.5,13.3
	c0.5,1.3,0.6,2.6,1,3.9c0.9,3.7,1.3,7.4-0.8,11c-0.2,0.3-0.3,0.7-0.3,1.1c0.2,11.1-7.6,17.3-14.5,24.2c-7.9,7.9-16.1,15.5-23.5,23.9
	c-2.3,2.6-1.6,5.8-1.3,8.7c0.3,2.4,0.3,4.8,0,7.1c-0.8,4,1.5,7,3.8,9.9c1.2,1.5,2.7,2.6,3.9,4.1s2.1,2.4,4.3,1
	C52.2,288.1,53.3,289.5,52.9,292.5z"/>
<path class="st17" d="M111.1,429.6c-4.4,0-8.8-0.1-13.2,0c-2,0-3.3-0.7-3.3-2.7s1.7-1.9,3.1-1.9h25.6c1.9,0,3.6,0.2,3.5,2.7
	s-2,1.8-3.4,1.8C119.4,429.7,115.3,429.6,111.1,429.6L111.1,429.6z"/>
<path class="st18" d="M55.2,419c0.1-1.7-0.1-3.5-0.5-5.2c-0.8-2.9,0-4.6,3.6-4.7c8.7-0.4,15.9,3.9,19,11.7c0.5,1.1,0.5,2.5-0.1,3.5
	l-1.6,0.8c-3.7,1-7.4,0.7-11.1,0.8c-2.9,0.1-4.1-2.6-6.2-3.8C57,421.4,55.9,420.3,55.2,419z"/>
<path class="st19" d="M55.2,349.3c-1.1,16,0.7,32.1,0,48.1c-0.2,3.9-0.3,7.9-1.4,11.8c0-18.2,0-36.4,0-54.6
	C53.7,352.7,53.5,350.7,55.2,349.3z"/>
<path class="st19" d="M56.7,330.5c0.7,0.2,1.2,0.8,1.5,1.5c-1.7,3.5,0.4,7.2-0.7,10.8c-0.4,1.5-0.2,3.2-1.6,4.3
	C56.3,341.5,55.4,335.9,56.7,330.5z"/>
<path class="st10" d="M58.3,422.1c5.2,4.5,11.4,2.7,17.4,3C67.9,428.3,62.5,427.4,58.3,422.1z"/>
<path class="st20" d="M102.8,104.6H102c0.6-1.1,1.5-2.4,2.8-2.2c6.8,0.9,12.4-4.2,19.4-3.3c6.5,0.8,13.3,0.3,19.9,0.1
	c3-0.1,5,2,7.7,2.8c13.5,3.8,23.3,12.3,29.8,24.7c0.9,1.5,1.3,3.3,1.1,5.1c-0.9,6.1-0.3,12.3-0.8,18.4c-0.1,0.5-0.3,1-0.6,1.4
	l-1.5,0.8c-0.7-5.2-1.2-10.5-0.2-15.6c1.3-6.5-0.9-11.5-4.8-16.3c-9.3-11.6-21.7-17.6-36-18.9c-8.8-0.8-17.9-1.2-26.5,2.7
	C109.5,105.5,106,105.5,102.8,104.6z"/>
<path class="st21" d="M52.9,292.5c0-1.2,0-2.4-1.4-2.8s-1.4,0.9-1.9,1.7c-1,1.5-2.3,0.5-2.8-0.3c-2.3-3.8-6.3-6-8.3-10.1
	c-0.9-1.9-1.7-3.6-1.4-5.6c0.5-2.9,0.5-6,0-8.9c-0.9-4.7,1.1-8,4.3-11.6c5.9-6.5,12.8-11.9,18.4-18.6c3.2-3.8,7.7-6.5,10.7-10.5
	s6.5-8,5.8-13.8c-0.2-0.7-0.1-1.5,0.2-2.2c2.5-3.5,2-7.3,1.3-11.2c2.1,0.8,2.8,3.3,5,4.1c0.8,0.8,1.8,1.4,2.9,1.6
	c3.7,0.5,5.9,2.9,7.6,6c0.1,0.3,0.2,0.7,0.2,1.1c-1,3.4-3.9,2.3-6.2,2.6c-1.8,0.2-4-0.2-3.4,2.9c1.6,1.8,4.1,2.4,5.3,4.6
	c6.6,5.1,13.4,10,19.9,15.3c2.2,1.8,2.4,3.3,1.1,5.4s-1.8,4.1-0.3,6.3c0.5,0.9,0.5,2-0.1,2.9c-1.2,2.2-1.1,4.6-0.6,7
	c0.8,3.7-0.7,6.6-4.3,7.4c-2.8,0.6-4.7,2.8-7.3,3.4c-2.3,3.3-9.7,6.3-13.4,5.5c-7.1,2.6-14.3,4.9-21.2,8c-3.1,1.5-5.6,4-7.3,7
	C55.1,290.7,54.2,291.8,52.9,292.5z"/>
<path class="st22" d="M210.8,238.7c1.7,3.7,3.3,7.5,5.2,11.2c3,5.9,2.1,12.2,1.5,18.3c-0.5,5-3.6,9.2-6.6,13.2c-1.2,1.6-2.6,3-3.1,5
	c-3.2-1.1-5.3-3.9-8.6-5c-6.2-2.1-12.3-4.7-18.6-6.5c-0.4-0.1-0.6-0.4-0.9-0.7l-18.8-8.6c-2.2-1-2.9-2.2-2.5-5
	c0.9-6.5,2.4-13,3.8-19.4c1.1-5.2,0.7-11.3,4.3-16c0.9-1.1,0.6-2.6,0.4-4c-0.6-0.7-0.5-1.7,0.2-2.3c0.2,0,0.5,0,0.7,0
	c0.8-1.9,0.9-4-1.5-4.4c-3.5-0.5-4-2.3-3.3-5.3c0.2-0.7,0.1-1.5,0.3-2.2c0.7-2.6,3-3.4,5-4.6c4.4-2.2,6-6.6,8.2-10.6
	c0.6-1.1,0.7-2.9,2.7-2.5c-0.6,5,2.5,8.7,4.4,12.9c2.4,5.3,5.5,10.2,9.2,14.7C198.5,224.4,203.8,232.3,210.8,238.7z"/>
<path class="st23" d="M84.1,274.5c4.7-1,9.3-2.9,13.4-5.5c2.1,0.2,4.3-0.4,6-1.7c2.5-1.6,4.9-1.9,7.3,0.9c3.3,4,8.1,6.2,12.5,8.6
	c4.8,2.7,7.9,6,8.6,11.7c0.9,7.4,2.3,14.8,3.4,22.1c-8.5,0.8-16.7-0.9-24.8-3.2c-1.8-0.5-3.1-2.7-5.4-2.1c-1,0.8-1.9,0.2-2.7-0.4
	c-3-2.2-6.3-4-9-6.5c-0.4-0.4-0.6-0.9-0.5-1.5c-0.1-0.5-0.1-1.1-0.4-1.4c-5.2-5.1-7-11.6-7.7-18.6C84.7,276.2,84.4,275.3,84.1,274.5
	z"/>
<path class="st24" d="M165.9,305.4c-2.2-10-6.8-19.1-9.7-28.8c-0.9-3.1-0.2-5.9,0.6-8.4s3.3-1.3,5.4-0.6c5.9,2,10.9,6.4,17.5,6.6
	l0.1,0.1c0.7,0.8,1,1.8,1,2.8c0.1,7.9-3.1,14.4-8.4,19.9C169.9,299.6,167.4,302.1,165.9,305.4z"/>
<path class="st25" d="M83.1,217.5c-1.7-3,0.1-4.1,2.6-4.5c1.5-0.1,3-0.1,4.4,0c1.6,0,2.6-0.5,2.8-2.3c3.8,0.6,6,3.9,8.9,5.9
	c5.7,3.9,11.6,7.6,17.1,11.8c0.4,0.3,0.8,0.8,1.3,0.8c8.3,0.6,16.4,5.4,24.9,0.9c3.6-1.8,6.6-4.7,8.6-8.2c2.1-3.9,4.3-7.6,7.6-10.6
	c1.9,1.1,0.6,3.4,1.9,4.7c-3.4,4.5-7.1,8.5-10.1,13.3c-5,8-13.3,8.8-21.7,7.6c-2.9-0.4-5.9,0-8.8-1.4c-8.5-4.2-16.5-9.4-23.7-15.5
	c-2.9-2.4-6.3-3.5-9.7-4.7C87.3,216.2,84.6,215.3,83.1,217.5z"/>
<path class="st26" d="M165.9,305.4c-0.1-2.8,1.1-4.7,3.4-6.6c6.6-5.3,10.5-13.2,10.7-21.6c1-2.7,2.6-2.9,4.6-1
	c-1.5,1.7-2.4,3.8-2.7,6c-1.1,6.5-4.8,11.7-9,16.6c-1.2,0.8-2.4,1.7-3.3,2.8c-1.2,1-1.6,2.7-1,4.2c5.3,12.7,8.8,26.1,14,38.9
	c0.9,2.1,1.1,4.3,1.9,7c1-4.8,0.7-9.1,2.1-13.2c0.7-1.5,2.2-2.2,3.6-2.7c4.1-2,8.2-4.2,12.3-6.3c1.9-0.9,3.7-2.1,6-1.5
	c0,0.4,0,0.8,0,1.3c-6,3-12.1,6-18.1,9.1c-1.7,0.9-2.7,2.8-2.4,4.7c0.1,4.6,0.1,9.2,0.1,13.9c-0.7,1-0.1,2.2-0.4,3.2
	c-0.5,1.4-1.3,2.1-2.5,0.6c-3.2-8.6-5.5-17.6-8.8-26.1C172.6,325,169.9,315,165.9,305.4z"/>
<path class="st27" d="M185.1,360.8c3.8,0.9,1.4-3,3-3.8c-1.2,5,1.9,8.9,3.8,12.9c1.4,2.8,1,5.9,2.6,8.5c0.7,1.1-0.4,1.9-1.3,2.4
	c-0.9,0.4-1.9,0.1-2.3-0.8c-0.1-0.2-0.2-0.4-0.2-0.7c0-3.8-2.5-6.8-3.3-10.2C186.9,366.2,183.9,364.1,185.1,360.8z"/>
<path class="st28" d="M163.2,216c-3.7-0.4-1-3-1.5-4.6c0-1.9-0.1-3.8,2.3-4.6c0,1.2-0.1,2.5-0.4,3.7c-0.6,1.9,0,2.9,2,3.1
	c4,0.4,3.4,2.7,2.1,5.3C167.4,215,167,214.7,163.2,216z"/>
<path class="st29" d="M167,219c0,0.8-0.1,1.5-0.2,2.3c-0.9,0.8-0.5,3-2.1,2.6s-1.5-2-1.5-3.4c0-1.7,0.3-3.6,2-4.1
	S166.8,217.8,167,219z"/>
<path class="st30" d="M83.1,217.5c0.7-4.2,3.7-2.4,6.1-2.3c0.2,0.8,0.5,1.5,0.7,2.3c-1,0.5-1.9-0.4-2.8-0.3c1.3,1,1.3,1,2.8,0.3
	c1.2,1.6,1.5,3-0.8,3.9C86.9,220.6,85.1,218.8,83.1,217.5z"/>
<path class="st31" d="M102.8,104.6c0.8-0.4,1.6-0.6,2.5-0.7c5.9,0.7,10.9-2.8,16.6-3.4c2.5-0.3,5-0.4,7.4-0.1
	c4.3,0.5,8.6-0.6,13,0.3c15.4,3.1,28.2,10.1,36.6,23.8c2.1,3.4,3.1,7.3,1.8,11.5c-0.7,1.9-0.8,3.9-0.5,5.8c0.8,3.6,0.2,7-0.3,10.4
	c-1,4.1-1.5,8.3-1.5,12.5c-0.2,7.2-0.6,14.4,1.4,21.5c-2.6-0.9-2.6-3.5-3.7-5.4c-0.3-0.7-0.4-1.5-1-2c-6.1-4.1-4.7-10.1-3.8-15.9
	c0.1-0.9,0.1-1.9,0-2.8c-0.1-1.4-0.5-2.7-0.5-4.1c-0.1-3.4-0.7-3.8-4.1-3.1c-1.6,0.4-3.1,0.9-4.6,1.5c-1.6,0.3-3.1,0.4-4.7,0.3
	c-12.2-1.5-24.5-2.8-36-7.4c-12.3-5-23.4-12.1-32.3-22.4c-2.7-3.2-2.9-3.1-5.6,0.1c-4.2,5.1-4.9,11.2-4.9,17.4
	c0.2,3.6,0.1,7.3-0.3,10.9c-0.6,3.7-0.4,7.4,0.5,11c0.7,2.7,1.5,5.4,1.4,8.2c-0.1,1.8-0.2,4.1-3.1,3.2c-1.8-6.2,1.1-13-2.6-18.9
	c-0.5-0.8-0.5-1.8,0-2.5c2-3.3,0.4-6.1-1.4-8.7c-2.9-4-2.7-8.9-0.2-13.3c1.8-3.1,3.9-6,6.4-8.6c0.9-1,1.2-3.3,2.5-4.9
	c5-6.1,12.1-8.9,18.8-12.3C101.6,106.3,102.3,105.6,102.8,104.6z"/>
<path class="st32" d="M176.9,181.1l2.9,5.3c0.2,1.1-0.1,2.2-0.7,3.1c-2,1.8-2.5,4.4-3.8,6.6c-1.7,2.9-3.3,5.9-6.7,7
	c-0.2-0.3-0.3-0.7-0.2-1c3.8-3.7,5.2-8.9,8.2-13.1c1.6-2.3-0.4-4.3-0.4-6.4C176.2,182,176.4,181.5,176.9,181.1z"/>
<path class="st33" d="M172.3,298.5c4.2-5.9,8.8-11.7,9.1-19.5c0.1-2,1.3-2.5,3-2.4c0.1-0.1,0.2-0.2,0.3-0.2
	c7.1,2.2,14.5,3.7,20.5,8.5c1,0.7,1.7,1.9,1.9,3.1c3.3,5.5,6.5,10.8,5.4,17.8c-0.5,3.5,0.1,7.3,0.2,10.9c0.2,4.2-1.3,8.3-4.1,11.4
	c-5.6,2.2-11.1,4.9-16.3,8.1c-0.6,0.2-1.2,0.3-1.8,0.3c-3.9-2.4-3.7-7-5.3-10.6c-3.7-8.5-7.1-17.2-12.3-25
	C172.4,300.2,171.8,299.5,172.3,298.5z"/>
<path class="st34" d="M207,288c-2.3-3-5.4-5.2-9-6.4c-4.6-1.5-9.1-3.3-13.7-4.9c-1.7-1.4-3.1-0.9-4.4,0.7l-0.1-3
	c3.4-0.8,6,1.3,8.8,2.4c5.6,2.1,11.7,3,16.5,7.2c0.9,0.8,1.6,1.8,2.6,2.6l0.8,1.4L207,288z"/>
<path class="st14" d="M66.4,334.2l-2.9-2.1c-2.7-3.2-7.3-4.3-9.3-8.4c-0.5-1-1.4-1.8-1.2-3c0.2-1.5-0.8-3.8,1.3-4.3s1.7,2,2.3,3.2
	c0.5,0.8,0.3,2.1,1.8,1.9s1.4,0.6,1.2,1.6c-0.1,0.5-0.1,0.9-0.1,1.4c4.2-0.9,3.9,4.2,6.8,5.1c1,0.3,1.9,1,2.8,0.2s-0.1-1.6-0.3-2.5
	c-0.2-1-0.9-1.8-1.9-2.3c-1.7-0.9-2.7-2.8-2.6-4.7c0-2.4-0.1-4.5-3.4-4.8c-1.7-0.1-1.1-1.7-0.3-2.5c2-1.8,3.1-4.3,3.1-7
	c0.1-1.7,0.6-3.4,3.3-2.6c1.3,0.4,3.1-0.8,3.6-2.3c0.6-1.8-1.4-1.3-2.1-1.9c-1-0.7-1-1.6-1.2-2.6c-0.3-1.9-1.8-1.5-3-1.2
	c-1.4,0.4-1.6,1.4-0.7,2.6s1.3,2.8,0,3.7s-2.1-0.8-3.1-1.5c-0.3-0.2-0.5-0.6-0.8-0.8c-1.2-0.6-1.9-3.3-3.4-1.8
	c-1.1,1.1-0.6,3.3,1,4.7c0.5,0.4,0.9,0.9,1.2,1.4c0.8,1.6,0.7,3.5-0.1,5.1c-0.3,0.4-0.8,0.6-1.3,0.5c-1.6-0.8-1.8-2.5-1.9-3.9
	c-0.1-3.1-3.2-5.2-1.9-9.1c2-6.1,8.3-12.7,14.5-14.1c3.4-0.8,6.6-2.7,9.9-4.1c0.6-0.3,1-0.8,1.6-0.9c4-1.3,4.6-0.9,4.4,3.3
	c-0.3,6.8,4.2,11.3,7.6,16.3c0.5,2-1,3.3-1.8,4.8c-5.7,9.9-10.3,20.4-13.9,31.3c-0.5,1.4-0.8,2.9-2.4,3.7
	C70.6,337,69.1,334.1,66.4,334.2z"/>
<path class="st35" d="M73.3,336.5c1.8-4.9,3.4-9.9,5.5-14.6c3.7-8.5,7.4-17,12.6-24.8h1.4l0.8,0.9c1.1,1.4,0.7,2.8-0.1,4.2
	c-4.3,8.1-8.1,16.4-11.8,24.7c-1.6,3.5-1.6,7.6-4,10.9c-0.8,1-1.3,2.8-3,1l-1.5-1.4C72.9,337.1,72.9,336.7,73.3,336.5z"/>
<path class="st14" d="M74.8,338.8c3.6-1,3.9-4.4,4.5-7.1c0.9-4.1,2.9-7.6,4.5-11.3c2.2-5.1,4.8-10,6.9-15.1c1-2.5,3.8-4.2,3.1-7.4
	c3.8,2.4,7.2,5.6,11.4,7.5c7.8,5.1,16.6,6.6,25.6,6.7c4,0,5.7,2,5.9,5.3c0.6,8.3,2.9,16.3,4.2,24.5c1.5,9.6,3.3,19.3,5.4,28.8
	c1.3,5.7,0.9,11.8,3.9,17.1c0.8,1.3,0.2,2.5-1.6,2.5h-1.1c-14.5,0-28.9,1.1-43.3,0.6c-3.9-0.1-7.7-0.8-11.6-1.2
	c-1.1-0.1-2.2-0.3-3.3-0.6c-2.2-0.5-4.9,2-6.6-0.7c-1.2-2.1-2-4.3-2.4-6.6c-1.7-8.6-4.3-17.1-3.8-26c0.2-4.5-1.4-8.9-0.2-13.5
	C76.3,341.3,75.2,339.9,74.8,338.8z"/>
<path class="st14" d="M73.3,336.5c0,0.3-0.1,0.6-0.1,1c-2.9,0.2-4.4-2.4-6.8-3.2C69.2,333.5,71,335.9,73.3,336.5z"/>
<path class="st10" d="M168.5,202.4c0,0.3,0,0.5,0,0.8c-1.4,1.4-3.7,1.6-4.6,3.7c-0.8,1.5-1.5,3-2.3,4.6c-2.6,3.9-5.7,7.6-7.8,11.8
	c-3.6,7.2-14.2,11.4-21.7,9c-2.1-0.8-4.4-1.2-6.6-1.1c-3.8,0.4-6.3-1.4-9.1-3.4c-5.7-4.1-11.7-7.9-17.5-12c-2.1-1.6-4.1-3.3-6-5.1
	l0,0c-1.5-3-3-5.8-7-5.8c-0.9-0.1-1.7-0.5-2.2-1.2c0-0.4,0.1-0.7,0.4-0.9c1.6-0.5,2.8-1.2,1.8-3.2c-3.3-6.5-4.2-13.8-7.2-20.5
	c-1.4,0-0.6,2.6-2.4,2.1c0-1.8-0.3-3.6,0.8-5.3c3.5-0.7,2.4-3.5,2-5.5c-0.9-4.9-2.9-9.8-1.9-14.8c1.4-7.4-0.3-14.9,1.3-22.4
	c1.1-4.9,4.2-8.2,6.9-11.9c1.1-1.5,2.3,0.3,2.9,1.1c3.3,4.3,7.2,8.1,11.5,11.4c10.1,7.7,21.5,13.2,33.8,16.4
	c7.8,2.1,15.9,1.5,23.6,3.7c-1.5,2.6-4.4,2.9-6.8,3.8c-4.5,1.6-8.9,6.4-9.2,10.2c0.4,1.5,1.7,2.5,3.2,2.7c5.7,3.3,11.2,2.1,16.6-0.8
	c1-0.4,1.9-1.1,3-1.2c2.9,0.7,4-1.2,5.1-3.3c0.7-1.3,0.9-3.4,3.3-2.4c-1,3.3-0.6,6.7-0.7,10.1c0,1.4,0.7,2.2,1.9,3
	c1.7,1.2,3.6,2.5,3.5,5c0,0.5,0,1,0,1.6c-2.3,0.2-2.1-2.6-4-3.2c-1.7,2.1-2.1,4.8-2.3,7.3c-0.4,3.7-1.2,7.4-2.4,10.9
	C167.4,199.2,167.6,201,168.5,202.4z"/>
<path class="st36" d="M76.3,181.1c1.6-0.9-0.2-4.2,2.3-4c1.9,0.1,1.3,2.7,1.9,4.1c2.7,6.2,3.6,13,6.7,19.1c1.8,3.6-1.2,3-3.3,2.8
	c-4.3-1-5.2-5-6.9-8.3C74.3,191.3,74,185.1,76.3,181.1z"/>
<path class="st10" d="M77.1,194.8c2.4,2.7,3.4,6.4,6.9,8.3l0,0c-0.4,0.4-1,0.5-1.4,0.1c0,0-0.1-0.1-0.1-0.1
	c-2.3-0.7-3.6-2.5-4.5-4.5C77.3,197.4,77,196.1,77.1,194.8z"/>
<path class="st25" d="M82.4,203.1h1.5c0.8,0.9,2,1.5,3.3,1.5c3.7,0.3,5.4,2.6,5.8,6.1c-2.2-2.5-3.9-5.6-8-5.6
	C83.8,204.9,82.8,204.2,82.4,203.1z"/>
<path class="st37" d="M187.4,338.7c-0.9,4.2-1.4,8.4-1.5,12.6c0,0.8,0.3,2-0.8,2.2c-1.5,0.4-1.5-1.1-1.7-1.9
	c-1.8-8.8-5.5-16.9-8.5-25.3c-2.3-6.7-3.7-13.9-7.3-20.1c-1.2-2.1-0.6-4.1,1.7-5.4c2.7-0.2,3.2,2.1,4.1,3.8
	C179.2,315.5,183.9,326.9,187.4,338.7z"/>
<path class="st38" d="M187.4,338.7c-3.5-2.7-3-7.2-4.5-10.8c-3.3-8.5-7.3-16.6-11.3-24.8c-0.5-1-1.3-1.9-2.3-2.4
	c0.5-1.3,1.7-2.1,3-2.4c6.1,7.8,9.5,17,13.3,26c1.7,4,3.3,8,4.9,12C189.6,337.5,187.9,337.2,187.4,338.7z"/>
<path class="st39" d="M89.9,217.5c-0.3,0.9,0.6,2.9-1,2.5c-1.7-0.4-3.1-1.6-3.9-3.1c-0.3-0.6,0.6-0.9,1.3-1
	C87.8,215.6,88.8,216.8,89.9,217.5L89.9,217.5z"/>
<path class="st40" d="M172.2,162.9c-1.8,0.1-1.9,1.5-2.4,2.8c-1.1,3.3-3.9,4.7-6,3.2c-1-2.6,1.5-3.4,2.7-4.8
	c1.5-1.3,4.2-2.1,1.6-4.8c-4.5-2.7-9.2-2.6-14.1-1.5c-1.4,0.1-2.6,0.7-3.6,1.6c-4.7,1.4-6.9,5.6-10,8.9c-0.8-0.5-1-1.5-0.5-2.3
	c0,0,0,0,0,0c2.9-3.5,5-7.8,10-9.1c2.5-0.8,4.8-1.8,7.2-2.9h5.3c4.6-0.1,7.7,2.1,9.8,6.1C172.2,160.9,172.2,161.9,172.2,162.9z"/>
<path class="st10" d="M172.3,159.9c-2.6-3.1-6.1-4.7-9.8-6.1c1.6-1.8,4-1.9,6.1-2.1s4,0.6,3.1,3.5
	C171.2,156.9,172.1,158.3,172.3,159.9z"/>
<path class="st41" d="M168.5,202.4c-1.8,0.1-2.8-0.8-2.1-2.5c2.6-6,2.6-12.7,4.3-18.9c0.4-1.3,0.6-3,2.1-3.3
	c1.8-0.3,1.4,1.7,2.1,2.6s1.2,1.6,1.8,2.4c2.3,3.4,0.9,6.1-1.1,9.4C173.6,195.7,172.3,199.8,168.5,202.4z"/>
<path class="st42" d="M133.7,185.1c-1.3,0.4-2.3,1.5-2.8,2.8c-0.5,1.7-0.9,3.2-2.9,2c-1.7-1-1.6-2.9-0.4-4.3c1.7-2,3.4-4.1,6.3-4.4
	s3.8-2.2,2.1-4.8c-1.9-2.6-3.4-5.5-4.5-8.5c-0.3-1-0.8-2,0.7-2.4c1-0.3,2.3-0.2,2.6,0.9c1.2,4.4,4.3,7.7,6,11.9
	c0.8,1.9,0.7,4.1-0.3,5.9c-0.9,1.8-1.8,3.6-2.7,5.4c-0.5,1-0.9,2.4-2.3,2.1c-1.6-0.3-1-1.8-1-2.8c0.1-0.9,0.2-1.7,0.4-2.6
	C135.1,185.3,134.6,185,133.7,185.1z"/>
<path class="st43" d="M161.7,170.3c-5.9,3.8-12,4.3-18.3,1c-2.6-1.8-2.6-4-0.5-6s3.6-5.3,7.2-5.7c1.3,0.2,2.1,1.3,3.3,1.6
	c2.8,0.9,5.5,1.8,2.5,5.4c-0.3,0.3,0.4,0.8,0.9,1.1c1.2,0.4,2.5,0.1,3.7,0.6C161.3,168.6,162.5,168.8,161.7,170.3z"/>
<path class="st44" d="M92.1,175.9l-1.3,0.1c-2.5-0.9-4.3-2.2-3.9-5.2c0.7-2.5,2.9-3.5,4.8-4.8c3.5-2.5,6.6-0.8,9.7,0.7
	c0.3,0.1,0.7,0.2,1,0.4c1.8,1.2,2,2.4,0.1,3.8c-2.4,1.8-2.3,3.1,0.4,4.4c0.9,0.4,2,0.5,2.8,1.1c1.7,1.8,0.5,1.9-1.1,2
	C100.3,178.9,96,178.4,92.1,175.9z"/>
<path class="st45" d="M111.5,153.1c-0.5-0.1-1.1-0.3-1.6-0.5c-5.7-2.9-11.4-2.2-17.2-0.2c-1,0.4-2,1.1-2.7,1.9
	c-0.8,0.7-1.6,1.5-2.5,0.3c-0.8-0.9,0-1.6,0.6-2.2c3.8-4.1,9.2-6.3,14.8-6c3.5,0.1,6.7,1.6,9.9,3.1c1,0.4,1.5,1.4,1.3,2.4
	C113.8,153.3,112.6,153.1,111.5,153.1z"/>
<path class="st46" d="M125.6,213.6c-2.1,0.1-4.3,0.1-6.4-0.1c-1.8-0.3-2.9-1.4-1-3c5.2-4.4,10-9.4,16.5-12c2.6-1,5.4-1.1,8.1-0.6
	c1.9,0.3,3.8,1.2,5.8,1.5c2.7,0.4,3.3,3,1.4,5.1c-2.1,2.5-4.9,4.4-8,5.5C136.5,212.1,131,214.6,125.6,213.6z"/>
<path class="st47" d="M101.7,167.5c-0.7,0-1.8,0.2-2.1-0.1c-2.3-2.7-4.8-1.8-7.3-0.7c-1.3-0.3-2.7,0.6-4-0.1
	c-0.3-0.1-0.6-0.4-0.7-0.7c6-5.6,19.1-4.7,25.3-0.6c1.4,0.9,1.1,2.5,2.1,3.4c-1.3,6.2-5.2,9.3-9.8,7.9c-1.7,0.1-3.4-0.7-4.5-2
	c-1.8-2.1-2-3.4,1.1-4c2.5-0.5,1.9-1.6,0.6-2.9c1.3-1.3,2.6-0.9,3.5,0.4c1.1,1.6-0.1,2.5-1.3,3.4c-0.6,0.5-1.9,0.6-1.4,1.8
	c0.3,0.9,1.3,1.1,2.2,1.3c2.2,0.4,5-1.7,5.9-4.4c1-2.8-1.1-3.4-3-4.2c-0.8-0.3-1.6-0.7-2.4-1.1C102.1,163.3,101.4,163.8,101.7,167.5
	z"/>
<path class="st48" d="M105.1,176.6c3.8,0.6,5.7-1.7,7.4-4.6c0.7-1.2,1.6-2.3,2.5-3.3c2.3,2.1,2,3.7-0.4,5.8
	c-6.5,5.7-15.6,6.4-22.4,1.4c4.1,1.1,8,3,12.4,2.3C106.9,177.9,105.4,177.2,105.1,176.6z"/>
<path class="st49" d="M161.7,170.3c-1.3-3-4.5,0-6-2c0.7-0.7,1.7-1.1,2.7-1c2.3-0.1,4.3-1.8,4.7-4.1c0.4-1.7,1.2-3.4,3.2-2.7
	s1.8,2.4,0.9,4c-0.7,1.8-3,2.5-3.3,4.6L161.7,170.3z"/>
<path class="st47" d="M87.6,170.8c-0.6,2.8,2.6,3.2,3.3,5.2c0.3,0.5,0.9,1.2,0.8,1.6c-0.2,0.9-1,0.4-1.5,0.1
	c-1.4-0.8-2.8-1.6-4.1-2.5c-3.5-2.4-4.1-5.5,0.4-8.4c0.4-0.3,0.8-0.6,1.1-1l0.3,0.3c0.7,1.9-1.2,2.5-1.7,3.7c-0.2,0.4-0.6,1-0.1,1.3
	S86.9,170.2,87.6,170.8z"/>
<path class="st50" d="M150.2,159.9c-3.3,1.4-5.3,4.3-7.4,7c-1.3,1.6-0.1,3,0.7,4.4c-1.6-0.2-2.8-1.5-2.9-3.1c0.8-3.8,6.4-9,9.6-9.1
	c0.3,0.2,0.4,0.3,0.3,0.5S150.3,159.9,150.2,159.9z"/>
<path class="st51" d="M150.2,159.9v-0.8c0.4-1.4,1.8-2.2,3.2-2c0.2,0.3,0.4,0.6,0.4,0.9c0.1,1.1,0.9,1.5,1.8,1.7
	c3.5,0.9,4.5,3.1,3.3,6.5c1.9-0.4,3.3-1.9,3.6-3.8c0.1-1.3,0.8-2.4,1.9-3.1c1.7-0.6,3.4-0.6,5.1-0.1c2.8,3.2,0.1,4-2.1,5.1
	c0-0.8,0-1.5-0.1-2.3s-0.5-1.4-1.4-1.4s-1.2,0.7-1.5,1.4c-2,6-2.3,6.2-8.5,6.1c-1.3-0.8-1.9-1.7-0.3-2.8c2.8-1.9,0.8-2.6-0.9-2.9
	C152.7,162.4,151.1,161.5,150.2,159.9z"/>
<path class="st52" d="M153.4,157.7c0-0.2-0.1-0.4-0.1-0.6c4.4-1.5,9.1-1.4,13.5,0.3c1.1,0.4,2.1,0.6,2.5,1.9
	c-1.6,1.3-3.6,0.1-5.3,0.7c-1.6-1.2-3.4-1.3-5.3-1.4S155,159.1,153.4,157.7z"/>
<path class="st53" d="M87.6,170.8c-1.2,0.4-0.1,2.5-1.8,2.4c-0.5-0.2-0.8-0.5-1-1c-0.4-1.2-0.5-2.6,0.6-3.5c0.9-0.8,2.2-1.2,2.5-2.6
	c1.5-0.2,3.1-0.7,4.4,0.4C90.9,168.1,88.5,168.6,87.6,170.8z"/>
<path class="st54" d="M139.6,199.3c3,0.6,5.7,0.9,8.3,1.6c2,0.5,2.3,2.1,0.6,3.3c-3.3,2.6-7.1,4.6-11,5.9
	c-5.2,1.6-10.5,1.9-15.7,2.6c-0.9,0.1-1.9,0.3-2.4-0.5c-0.7-1.1,0.5-1.6,1-2.1c3.9-3.8,8.4-6.7,12.9-9.6
	C135.1,199.3,137.7,200.3,139.6,199.3z"/>
<path class="st55" d="M101.7,167.5c-0.4-1.2-2.6-1.7-1.6-3.4s2.7-1.3,4.1-0.9c2.4,0.8,4.7,1.7,6.9,2.8c0.9,0.3,1.5,1.1,1.5,2
	c-0.1,3-1.9,5.1-4.1,6.8c-2,1.4-4.1,0.8-5.9-0.5c-0.7-0.5-1.6-1-1.5-2s1.2-1.1,2-1.3c1.2-0.3,2.8-0.6,2.4-2.3
	c-0.4-1.4-1.7-1.7-3.1-1.2C102.1,167.5,101.9,167.5,101.7,167.5z"/>
<path class="st56" d="M153.4,157.7c2.8,0,5.7-0.1,8.5,0c1.5,0,2.9,0.2,2.1,2.3c-1,2.2-0.5,5.2-3.3,6.7c-1.3,0.7-2.7,1.4-3.7,0.4
	s0.9-1.4,1.3-2.2c1.2-2.9-0.5-3.7-2.9-4.2C152.3,160.2,152.1,159.8,153.4,157.7z"/>
</svg>
