<svg id="Capa_1" data-name="Capa 1" xmlns="http://www.w3.org/2000/svg" viewBox="0 0 262.99 430.48"><defs><style>.cls-1{fill:#fefefe;}.cls-2{fill:#356769;}.cls-3{fill:#f6ddd5;}.cls-4{fill:#dee6e7;}.cls-5{fill:#dae3e4;}.cls-6{fill:#e8beb4;}.cls-7{fill:#fee5d8;}.cls-8{fill:#f7ddd3;}.cls-9{fill:#d8e2e2;}.cls-10{fill:#f1dbd5;}.cls-11{fill:#efd4ce;}.cls-12{fill:#b5c1c1;}.cls-13{fill:#b88868;}.cls-14{fill:#f3deda;}.cls-15{fill:#e3b2a6;}.cls-16{fill:#a3b9b7;}.cls-17{fill:#fcb490;}.cls-18{fill:#fe9966;}.cls-19{fill:#88a5a6;}.cls-20{fill:#fcac74;}.cls-21{fill:#ce7d69;}.cls-22{fill:#eb9b7e;}.cls-23{fill:#eea387;}.cls-24{fill:#e88d6b;}.cls-25{fill:#7a9a9b;}.cls-26{fill:#729190;}.cls-27{fill:#eca17e;}.cls-28{fill:#fd9965;}.cls-29{fill:#f38c64;}.cls-30{fill:#fcae86;}.cls-31{fill:#e77850;}.cls-32{fill:#707466;}.cls-33{fill:#566d65;}.cls-34{fill:#346667;}.cls-35{fill:#e6774f;}.cls-36{fill:#7f7a62;}.cls-37{fill:#c04e33;}.cls-38{fill:#fc9b66;}.cls-39{fill:#faaf85;}.cls-40{fill:#e97f57;}.cls-41{fill:#c04d32;}.cls-42{fill:#c2654e;}.cls-43{fill:#e7784f;}.cls-44{fill:#ed784f;}.cls-45{fill:#e7764f;}.cls-46{fill:#44927e;}.cls-47{fill:#bb8a65;}.cls-48{fill:#fbb18b;}.cls-49{fill:#e7774e;}.cls-50{fill:#df7751;}.cls-51{fill:#d8714d;}.cls-52{fill:#faf2f1;}.cls-53{fill:#e57a50;}.cls-54{fill:#d07965;}.cls-55{fill:#cfb9b7;}.cls-56{fill:#f7ceb9;}.cls-57{fill:#c16e63;}.cls-58{fill:#f3bfa1;}.cls-59{fill:#266267;}.cls-60{fill:#1e616a;}.cls-61{fill:#546c65;}.cls-62{fill:#2e6367;}.cls-63{fill:#a73626;}.cls-64{fill:#ac3926;}.cls-65{fill:#ac3824;}.cls-66{fill:#a83624;}.cls-67{fill:#a63523;}.cls-68{fill:#a73627;}.cls-69{fill:#a53323;}.cls-70{fill:#af3c28;}.cls-71{fill:#ad3b28;}.cls-72{fill:#ad3a25;}.cls-73{fill:#b15f44;}.cls-74{fill:#f5c7af;}.cls-75{fill:#c3a3a0;}.cls-76{fill:#ae3c27;}.cls-77{fill:#ab3a29;}.cls-78{fill:#ac3a27;}.cls-79{fill:#43937d;}.cls-80{fill:#737468;}.cls-81{fill:#f7edea;}.cls-82{fill:#d46347;}.cls-83{fill:#ad3f2c;}.cls-84{fill:#85312a;}.cls-85{fill:#faf5f2;}.cls-86{fill:#261816;}.cls-87{fill:#5f100b;}.cls-88{fill:#983e30;}.cls-89{fill:#faf2ed;}.cls-90{fill:#0d0606;}</style></defs><path class="cls-1" d="M169.07,234.86Q169.07,129,169,23.1c0-2.59.51-3.1,3.09-3.1q128.4.13,256.81,0c2.58,0,3.09.51,3.09,3.1q-.12,212.15,0,424.29c0,2.59-.51,3.1-3.09,3.09q-128.4-.12-256.81,0c-2.58,0-3.09-.5-3.09-3.09Q169.14,341.13,169.07,234.86Z" transform="translate(-169 -20)"/><path class="cls-2" d="M389.85,449.38c-.87.06-1.75.18-2.62.18l-145.48-.06a2.45,2.45,0,0,1-.81-.94c-.68-5.11-.12-6.21,4.77-7,12.74-2,25.43-4.33,38.06-6.8,11.43-2.24,22.9-4.29,34.3-6.62,11.77-2.42,23.55-4.83,35.41-6.78,3.95-.64,7.75-2.07,11.79-2.36,1.51-.11,2.44-1.28,3.26-2.37,5.34-7.14,11.29-13.78,16.67-20.88.69-.91,1.34-1.87,2.73-1.59a2.19,2.19,0,0,1,.89,1c4.64,13.35,1.9,27.18,2.59,40.78.16,3.14.06,6.29,0,9.44C391.38,446.89,391.44,448.47,389.85,449.38Z" transform="translate(-169 -20)"/><path class="cls-3" d="M271.78,251.51c3.56-.85,4-1.79,1.42-4.17-2.81-2.58-2.86-5.72-1.66-8.61,1.4-3.33,1.79-6.94,3.61-10.2s.89-7.56,2.57-11.18c.76-1.63-.8-2.8-2.4-3.69-4.88-2.72-10.06-5-13.63-9.64-2.27-3-1.2-6.88,2.32-7.68,4.92-1.12,5.7-3.49,3.38-7.92-2.49-4.78-6.1-8.5-9.92-12.09-1.43-1.34-2.78-2.86-2.77-4.76,0-6.06-1.43-12.18,1-18.18,1.15-2.88-1.08-5.32-2.31-7.56-2.13-3.9-2.73-7.47-.33-11.33a3.64,3.64,0,0,0-.48-4.8c-4.63-5.2-4.79-10.83-1.57-16.82a6.07,6.07,0,0,0,.42-2.93c-.16-4.49,1.39-8.08,5.26-10.52a1.6,1.6,0,0,1,.43,1.12,57.85,57.85,0,0,0-5.43,21.14,7,7,0,0,0,1.88,5.5c2.43,2.61,3.16,5.42,1.39,9a8.45,8.45,0,0,0,.92,9.26,11.35,11.35,0,0,1,1.72,10.67c-1.4,4.73-.83,9.74-.28,14.61a7.69,7.69,0,0,0,4.09,6c4.73,3.81,8.23,8.45,9.56,14.49,1.09,5,.11,6.44-4.74,7.74-1.15.31-2.63.39-3,1.93s.87,2.5,1.93,3.38a33.72,33.72,0,0,0,7,4.38,27.58,27.58,0,0,1,5.83,3.42c3.34,2.71,3.77,4.27,2,8.09a7.1,7.1,0,0,0-1.08,3.17c.09,5.57-2.65,10.33-4.48,15.31-1,2.66-.92,4.78.85,7,3.26,4,2.94,5.31-1.75,8a2.41,2.41,0,0,1-1.75-.38A1.33,1.33,0,0,1,271.78,251.51Z" transform="translate(-169 -20)"/><path class="cls-4" d="M271.78,251.51v1.4c-4.53,2.33-9.43,4-13.09,7.85a4,4,0,0,1-2.47.81A4.18,4.18,0,0,0,254,262c-7.58,6.06-18,5.52-25.77,11.28-1.84,1.36-3.79,2.68-5,4.51-4.29,6.42-8.69,12.73-8.64,21.12.16,29,0,57.93.09,86.89,0,3.07-.16,6.07-1.82,8.74-2,3.26-.59,6.89-1.21,10.3a1.18,1.18,0,0,1-1.77.16c-.93-4.42-2.11-8.83,1.41-12.81.94-1.06.82-2.58.81-4q0-30.8,0-61.58c0-9,.28-18-.07-27-.37-9.21,4-16.29,9.4-22.93,4.06-5,9.51-8,15.57-10.48a20.89,20.89,0,0,1,8.51-1.84c2.11.05,3.15-1.43,4.31-2.68,1.62-1.73,3.31-3.07,5.87-2.65,2.24.37,3.36-1.32,4.71-2.6A16.2,16.2,0,0,1,271.78,251.51Z" transform="translate(-169 -20)"/><path class="cls-5" d="M395,348.35c-3.33,8.62-4.14,17.52-4,26.75.11,6.41-.39,12.88-.41,19.34a4.84,4.84,0,0,0,.57,2.51c3.3,5.14,3,10.89,3,16.6,0,10.3.07,20.61-.05,30.92,0,2.13.68,5.13-3.16,5.07q-.54-19,0-37.94c.16-5.91-1.43-11.28-2.72-16.81a.87.87,0,0,0-.29-.39,3.4,3.4,0,0,1-.64-1.76,10.74,10.74,0,0,1,.2-2.59c.81-8.4.36-16.83.3-25.24,0-5.49,2.93-10,4-15.13a2.53,2.53,0,0,1,1.91-1.68A1.59,1.59,0,0,1,395,348.35Z" transform="translate(-169 -20)"/><path class="cls-6" d="M394.14,139.58c2.47,4.91.25,11.94-5.27,16.65-3.83,1.47-6.14,4.43-8.15,7.87-2.2,3.76-6.46,5.91-8.05,10.23a26.31,26.31,0,0,1-7.8,10.84,3.72,3.72,0,0,0-1.14,2.33c-1.26,7.28-5.41,12.78-10.79,17.48-2.41,2.11-3,3.91-1.3,7.1a13.7,13.7,0,0,1,.23,12c-2.66,5.62-5.05,11.44-8.54,16.63-1.13,1.68.65,3.52-.74,5-3.17.08-2.89-2.09-2.73-4.19a5.09,5.09,0,0,1,.78-1.52c1.67-1.67,2.07-4,3.18-6A13.64,13.64,0,0,0,345.9,230c.69-1.84,1.93-3.4,2.57-5.26,2-4.21,2.57-8.41-.07-12.59-1.7-2.67-.87-5.08.91-7.29a41.41,41.41,0,0,1,4.48-4.6,21.14,21.14,0,0,0,6.44-11.29,15.07,15.07,0,0,1,5.48-8.78c3.54-2.08,3.5-6.5,6-9.25.16-.17.15-.52.31-.67,5.21-4.85,7.73-12.24,14.59-15.54,2.19-1.05,3.15-3.13,4.17-5.14a8.6,8.6,0,0,1,.47-.84c.22-.39.46-.78.67-1.18s.25-.51.38-.77a10.29,10.29,0,0,0,.51-1.57c.07-.3.15-.58.23-.86a3.44,3.44,0,0,0,0-1.32c-.08-.26-.15-.53-.21-.79a10.3,10.3,0,0,0-.32-1.12c-.13-.22-.25-.44-.39-.65s-.32-.42-.47-.63a4.89,4.89,0,0,1-.42-.69,7.93,7.93,0,0,1-.68-1.55,4.68,4.68,0,0,1,0-2.17c.21-.69.47-1.36.68-2a7.68,7.68,0,0,1,.32-.79l.56-1.16c.11-.28.23-.54.36-.81a12.3,12.3,0,0,0,.43-1.34,8.4,8.4,0,0,0,.19-1c.08-4.44.15-8.87-.06-13.29a6.29,6.29,0,0,1-.24-1c-.09-.44-.16-.89-.27-1.32-.1-.24-.2-.5-.31-.74s-.29-.42-.44-.62-.16-.19-.25-.29-.34-.35-.51-.53c0,0-.25-.27-.26-.27-.18-.16-.35-.34-.51-.51,0,0-.25-.27-.26-.26-.18-.16-.34-.34-.5-.51l-.26-.26a6,6,0,0,1-.5-.51s-.25-.25-.26-.25c-.18-.16-.34-.33-.5-.5,0,0-.25-.26-.25-.26-.18-.16-.35-.33-.51-.5a3,3,0,0,0-.25-.25c-.18-.16-.34-.34-.51-.51,0,0-.24-.26-.25-.25a6,6,0,0,1-.5-.51s-.25-.26-.26-.25c-.17-.16-.34-.33-.5-.51a3,3,0,0,1-.25-.25c-.18-.16-.35-.33-.51-.5,0,0-.25-.26-.25-.26-.18-.15-.34-.33-.51-.5,0,0-.24-.26-.25-.25l-.53-.49s-.28-.23-.29-.22c-.33-.19-.68-.36-1-.52s-.52-.23-.78-.35a8.58,8.58,0,0,1-1.23-.66,5.59,5.59,0,0,1-.77-.69c-2.28-3.69-.71-7.8-1.28-11.66a7.66,7.66,0,0,0-.21-1,7.42,7.42,0,0,0-.51-1.28c-.17-.24-.33-.5-.5-.75a3.78,3.78,0,0,1-.69-1.63,10.54,10.54,0,0,0-.56-2.14,4.7,4.7,0,0,1-.21-.9c-.09-.59-.11-1.19-.24-1.77-.1-.26-.2-.52-.32-.77s-.32-.45-.49-.66l-.29-.31c-.21-.19-.41-.39-.61-.59l-.33-.3c-.23-.2-.45-.4-.67-.62l-.34-.33a5.9,5.9,0,0,1-.66-.75c-2.31-4.78-5.49-8.68-10.54-10.8a4.67,4.67,0,0,1-2.52-2.69,2.25,2.25,0,0,1,0-1l.27-.42.42-.23a1.38,1.38,0,0,1,.84.35l.34.3.61.61.3.29a6.32,6.32,0,0,0,.6.56l.34.2a5.61,5.61,0,0,0,1.14.29,3.58,3.58,0,0,1,.73.29c.34.19.69.35,1,.52a5.47,5.47,0,0,1,.65.41l.57.51.31.22a3.86,3.86,0,0,1,.58.49l.27.26a3.72,3.72,0,0,1,.48.57l.22.3a4.37,4.37,0,0,0,.49.56l.26.26c.17.18.35.35.53.52l.26.26c.17.18.35.36.53.53l.26.27.54.53.27.27.54.56a5.77,5.77,0,0,1,.4.68c.16.37.31.74.45,1.12a8,8,0,0,0,.23.8,5.54,5.54,0,0,0,.83,1.53A28.83,28.83,0,0,1,376,76.79h0c1.28,2.68.61,6.06,3,8.32,1.48,3.13.58,6.45.69,9.67a4.81,4.81,0,0,0,2.31,4.39c4.52,2.86,7.74,7.13,11.52,10.79a7.33,7.33,0,0,1,2.12,5.82c-.13,3.52,0,7,0,10.57,0,2.24,0,4.32-1.52,6.4S393,137.29,394.14,139.58Z" transform="translate(-169 -20)"/><path class="cls-7" d="M342.79,245.43c-2.36-3.82,1.09-6.36,2.26-9.26,1.73-4.26,4.6-8.07,6.11-12.39,1.4-4,1.72-8.44-.62-12.35-1.45-2.43-1.09-4.13.82-6,3.7-3.55,8-6.88,9.48-11.94a33.42,33.42,0,0,1,9-14.61c1.35-1.34,1.7-3.57,2.44-5.32,2.37-5.6,8.26-8.27,10.59-13.86.9-2.16,3.55-3,6-3.51-4.58,2.28-6.16,7.29-9.58,10.59a29.06,29.06,0,0,0-6.08,8.07,29.61,29.61,0,0,1-7.26,10,3.7,3.7,0,0,0-1.27,2.25A29.86,29.86,0,0,1,354,205c-2.54,2.15-2.82,3.83-1.37,7.29a17,17,0,0,1-1.92,16.34c-2.57,3.84-3.87,8.36-6.55,12.18-1.67,2.38.64,3.56,2.32,4.09,5.16,1.61,9.29,5.37,14.54,6.73a3.57,3.57,0,0,1,2.12,2.05c-2,1.23-3.65-.34-5.46-.64C352.54,250.92,347.37,248.76,342.79,245.43Z" transform="translate(-169 -20)"/><path class="cls-8" d="M209.9,405h1.35c1.77,1.59.8,4,1.67,5.82.4,3.88.11,7.78.21,11.67,0,1.39-.16,2.9.79,4,5.32,6.2,10.48,12.69,19.68,13.08,2.55.11,5,.62,6.73,2.8.94,2,.71,4.09,1,6.15l.42.95c-1.54.32-3,.06-3.07-1.74-.15-4.26-3.22-4.85-6.25-4.81-4.73.06-8.3-2.56-11.73-5s-6.12-5.9-9.11-8.94a6.81,6.81,0,0,1-1.75-5.18C209.91,417.58,209.89,411.3,209.9,405Z" transform="translate(-169 -20)"/><path class="cls-9" d="M395,348.35l-.87-.06c-1.26-1.44-1-3.12-.46-4.65,3.23-9.37,6.92-18.53,12.18-27a17.87,17.87,0,0,0,4-12.56c-.47-5.72.66-11.5-.67-17.19-.15-.33-.29-.67-.44-1-1.29-3.31-3.11-6.37-4.58-9.58-.16-.26-.3-.52-.45-.78l-.48-.69-.26-.31c-.19-.19-.36-.39-.54-.59l-.27-.29c-.19-.17-.37-.36-.55-.55l-.28-.28c-.19-.17-.37-.36-.55-.55l-.29-.27c-.2-.18-.38-.36-.57-.55s-.19-.19-.29-.27l-.62-.54-.33-.25a7,7,0,0,0-1.91-.9,5.93,5.93,0,0,1-.85-.38c-.86-.63-2.14-1-1.71-2.49,6,.53,8.94,5.23,12,9.33,1.49,2,2.24,4.74,3.66,6.94,3.8,5.88,1.87,12.43,2.49,18.69.59,5.92-1.12,11-4.34,15.89-2.16,3.27-2.89,7.35-5.5,10.41-.47.4-.35,1.1-.76,1.53h0c-.73.59-.1,1.65-.77,2.26h0c-.26.25-.52.5-.75.77h0a3.22,3.22,0,0,0-.74.82,5.08,5.08,0,0,1,0,.68c-.84.87,0,2.16-.75,3h0c-.86.86,0,2.15-.75,3h0c-.5.37-.34,1.09-.79,1.48l0,0c-.24.26-.5.5-.72.78h0c-1.06,1.64.21,3.63-.77,5.29h0a3.23,3.23,0,0,0-.74.78Z" transform="translate(-169 -20)"/><path class="cls-10" d="M394.14,139.58c-2.47-1.68-2-4.3-.94-6.05,1.77-2.81,1.72-5.68,1.72-8.68,0-13.73.48-14.36-10.53-22.92-5.05-3.94-5.62-7.84-5.35-13,.07-1.25,0-2.52,0-3.78,2.58,1.55,1.51,4.11,1.42,6.16-.19,3.91.63,6.74,4.2,9.2s6.36,6,9.38,9.2a8.21,8.21,0,0,1,2.42,6.46c-.23,3.25-.05,6.53-.06,9.79,0,2.48.14,4.81-1.73,7C393.24,134.7,394.35,137.35,394.14,139.58Z" transform="translate(-169 -20)"/><path class="cls-11" d="M256.69,100.24c0-.27,0-.54,0-.81,3.8-8.42,4.78-18.34,13.67-24,2.61-1.67,4.37-4.58,7.39-6.12,4.23-2.16,8.42-3.72,13.22-2.83,3.39.63,5.33-2.21,8-3.34.08.18.16.35.25.53-1.28,3.51-3.86,5.39-7.51,5-8.46-.92-14.59,3.07-20.27,8.7-4.63,4.59-8.42,9.37-9.86,16C261,95.83,260.19,99.32,256.69,100.24Z" transform="translate(-169 -20)"/><path class="cls-12" d="M394.15,266.63c.31,1.21,1.73,1.29,2.28,2.25-.37.37-.87.74-1.33.55-5.39-2.25-11.51-1.82-16.72-5.13-6.46-4.1-13.71-6.79-20.52-10.28a1.31,1.31,0,0,1,0-1.66l5.29,1.36c7,3.5,13.92,7,20.85,10.52C387.21,265.87,391.09,264.48,394.15,266.63Z" transform="translate(-169 -20)"/><path class="cls-13" d="M388.18,394.79a35.61,35.61,0,0,1,3.1,16.24c-.38,12.83-.27,25.67-.36,38.51l-1.07-.16a17.69,17.69,0,0,0,.49-2.94c.05-13.58,0-27.16.08-40.74C390.43,401.89,387.29,398.76,388.18,394.79Z" transform="translate(-169 -20)"/><path class="cls-14" d="M323.11,51.79c.33-.36.64-1,1-1,5.48-.43,11-1.24,16.41.37a.55.55,0,0,1,.2.59c-.06.2-.13.3-.2.3a2.4,2.4,0,0,1-1.06.18,16.54,16.54,0,0,0-2.73-.13c-3.46.11-6.93-.15-10.39.19a4.86,4.86,0,0,1-1.13.25,3.08,3.08,0,0,1-1.69-.3Z" transform="translate(-169 -20)"/><path class="cls-11" d="M298.92,63.1c2.14-2.31,4.93-3.67,7.57-5.25a.7.7,0,0,1,.91.36c-2.33,4-5.09,5.62-8.35,5.06Z" transform="translate(-169 -20)"/><path class="cls-10" d="M379.05,85.11c-3.25-2-2.7-5.29-3-8.32C378.59,79,377.31,82.61,379.05,85.11Z" transform="translate(-169 -20)"/><path class="cls-14" d="M311.82,54.86a2.5,2.5,0,0,1,2.7-1.5c3,.31,5.8-.65,8.59-1.57l.05.05.3.43c0,.18-.07.35-.1.52a3.25,3.25,0,0,1-.66.81,4.14,4.14,0,0,1-.92.51c-2.41,1.12-5,.72-7.57,1.09a6.66,6.66,0,0,1-1,.18,2.63,2.63,0,0,1-1-.17Z" transform="translate(-169 -20)"/><path class="cls-14" d="M342,52.59c2.94,1,6.19.11,9.06,1.52a2.32,2.32,0,0,1-.87.65,17.85,17.85,0,0,1-5.36.18,5.06,5.06,0,0,1-1-.23,6.9,6.9,0,0,1-1.31-.64,2.7,2.7,0,0,1-.69-.62c0-.15-.05-.31-.08-.46Z" transform="translate(-169 -20)"/><path class="cls-10" d="M376,76.79A11.84,11.84,0,0,1,372.25,73a1.34,1.34,0,0,1-.31-1.24l.33-.3C373.32,73.4,375.68,74.38,376,76.79Z" transform="translate(-169 -20)"/><path class="cls-10" d="M363.17,62.43l-.74,0c-.4-.46-1.1-.3-1.51-.74h0l-.29-.39.3-.38a5,5,0,0,1,4.54,2.26l-.38.34-.42-.3-.73-.06Z" transform="translate(-169 -20)"/><path class="cls-5" d="M395.67,347.56c.29-1.76-.72-3.71.77-5.29C396.15,344,397.08,346,395.67,347.56Z" transform="translate(-169 -20)"/><path class="cls-14" d="M307.28,57.12c.76-1.71,2.31-1.51,3.76-1.54l.26.36-.06.45-.3.32a9.82,9.82,0,0,1-1.64.69,4.37,4.37,0,0,1-.86.23,2,2,0,0,1-.87-.17Z" transform="translate(-169 -20)"/><path class="cls-10" d="M365.47,63.16a2.27,2.27,0,0,1,2.3,2.25l-.38.34-.41-.31h0c-.26-.24-.5-.49-.75-.74h0l-.75-.75h0a.46.46,0,0,1-.18-.48c.05-.17.1-.25.16-.25Z" transform="translate(-169 -20)"/><path class="cls-10" d="M370.76,70c0-.24,0-.48-.05-.72l-.29-.42.33-.38c1.32.59,1.59,1.71,1.52,3l0,0c-.25.32-.5.33-.73,0q0-.36,0-.72A6.67,6.67,0,0,0,370.76,70Z" transform="translate(-169 -20)"/><path class="cls-10" d="M353.37,55.62c1.3-.09,2.44.15,3,1.5l-.31.31a1.85,1.85,0,0,1-1.31,0,3.43,3.43,0,0,1-1.47-1A.69.69,0,0,1,353.37,55.62Z" transform="translate(-169 -20)"/><path class="cls-5" d="M398,340c.08-1.06-.38-2.24.75-3C398.6,338,399,339.2,398,340Z" transform="translate(-169 -20)"/><path class="cls-5" d="M398.69,337c.1-1.05-.36-2.24.75-3C399.34,335,399.76,336.17,398.69,337Z" transform="translate(-169 -20)"/><path class="cls-10" d="M340.52,51.85c0-.24,0-.48,0-.72A2.52,2.52,0,0,1,342,52.59l0,0a1.27,1.27,0,0,1-.81.41,1.48,1.48,0,0,1-.84-.38A.61.61,0,0,1,340.52,51.85Z" transform="translate(-169 -20)"/><path class="cls-5" d="M401,331.67c0-.83-.14-1.73.77-2.26C401.7,330.24,401.84,331.13,401,331.67Z" transform="translate(-169 -20)"/><path class="cls-11" d="M357.2,57.85q.35,0,.69.06l.33.38-.18.47a1.79,1.79,0,0,1-.92.35,1.63,1.63,0,0,1-.88-.41l-.12-.49.18-.47A.77.77,0,0,1,357.2,57.85Z" transform="translate(-169 -20)"/><path class="cls-10" d="M350.34,54.12h.76l.77.74-.29.31a1.72,1.72,0,0,1-.81.11,1.34,1.34,0,0,1-.68-.46A.55.55,0,0,1,350.34,54.12Z" transform="translate(-169 -20)"/><path class="cls-5" d="M401.72,329.42a1.51,1.51,0,0,1,.76-1.53A1.7,1.7,0,0,1,401.72,329.42Z" transform="translate(-169 -20)"/><path class="cls-5" d="M397.17,341.48A1.49,1.49,0,0,1,398,340,1.57,1.57,0,0,1,397.17,341.48Z" transform="translate(-169 -20)"/><path class="cls-10" d="M359.42,59.39l.76.76-.38.3-.4-.29h0l-.28-.39Z" transform="translate(-169 -20)"/><path class="cls-10" d="M360.18,60.15l.75.75,0,0a.5.5,0,0,1-.74,0h0a.49.49,0,0,1-.17-.49c.05-.17.1-.25.15-.25Z" transform="translate(-169 -20)"/><path class="cls-14" d="M311,55.58l.78-.72,0,0,.26.41-.21.44a.61.61,0,0,1-.83-.11Z" transform="translate(-169 -20)"/><path class="cls-10" d="M351.87,54.85l.77.72-.4.26-.47-.12-.21-.43.27-.4Z" transform="translate(-169 -20)"/><path class="cls-11" d="M353.37,55.62c0,.25,0,.5,0,.75l-.39.22-.44-.11-.21-.4c.07-.13.15-.26.23-.39l.07-.12Z" transform="translate(-169 -20)"/><path class="cls-5" d="M400.2,332.44l.75-.77Z" transform="translate(-169 -20)"/><path class="cls-5" d="M399.47,333.26l.74-.82Z" transform="translate(-169 -20)"/><path class="cls-14" d="M307.32,57.92l-.83-.07.79-.73,0,0,.26.38Z" transform="translate(-169 -20)"/><path class="cls-5" d="M396.43,342.28l.73-.78Z" transform="translate(-169 -20)"/><path class="cls-5" d="M394.93,348.34l.74-.78Z" transform="translate(-169 -20)"/><path class="cls-10" d="M358.66,58.63l.76.76,0,0a.52.52,0,0,1-.75,0h0l-.3-.4C358.45,58.89,358.55,58.76,358.66,58.63Z" transform="translate(-169 -20)"/><path class="cls-10" d="M357.2,57.85l-.8,0q-.28-.24-.21-.48c.06-.17.12-.25.18-.25l0,0Z" transform="translate(-169 -20)"/><path class="cls-10" d="M357.9,58.64c0-.24,0-.49,0-.73l.77.72,0,0C358.38,59,358.13,59,357.9,58.64Z" transform="translate(-169 -20)"/><path class="cls-10" d="M370,67.68c.24.26.48.53.73.79l0,0a.48.48,0,0,1-.72,0h0c-.09-.13-.19-.27-.3-.41Z" transform="translate(-169 -20)"/><path class="cls-10" d="M369.27,66.92l.74.76,0,0a.48.48,0,0,1-.74,0h0c-.11-.13-.21-.27-.31-.4C369,67.17,369.15,67,369.27,66.92Z" transform="translate(-169 -20)"/><path class="cls-10" d="M368.51,66.16l.76.76,0,0a.46.46,0,0,1-.73,0h0c-.1-.14-.2-.28-.31-.41Z" transform="translate(-169 -20)"/><path class="cls-10" d="M367.77,65.41l.74.75,0,0a.47.47,0,0,1-.73,0h0a.44.44,0,0,1-.18-.49c.05-.16.11-.25.16-.25Z" transform="translate(-169 -20)"/><path class="cls-13" d="M241.33,448.55a17.81,17.81,0,0,1-1.19-5.72c.06-2.54,1.88-3.17,3.86-3.2,9.1-.16,17.77-2.9,26.65-4.35,6.55-1.07,13.13-2,19.6-3.48,7.35-1.65,14.77-3,22.18-4.28,6.93-1.16,13.79-2.73,20.67-4.08s13.63-2.06,20.29-3.84a23.53,23.53,0,0,1,6.29-1.18c3.87,0,6.73-1.71,9-4.64,5-6.31,10.7-12.06,15-19,.87-1.41,1.92-3.21,4.18-1.89,0,.49,0,1,0,1.47-4,4.8-8,9.57-11.88,14.4-2.29,2.82-4.45,5.74-6.72,8.58a8.35,8.35,0,0,1-5.76,3c-7.05,1.06-14,2.76-21,4.05-7.26,1.33-14.45,3-21.75,4.17-8,1.27-15.92,3.42-24,4.71-11.24,1.8-22.34,4.37-33.6,6.13-6.39,1-12.82,2.18-19.21,3.42C240.12,443.6,242.3,446.7,241.33,448.55Z" transform="translate(-169 -20)"/><path class="cls-15" d="M350.34,54.86c.23,0,.46,0,.69,0a2.19,2.19,0,0,1,.82.72v0a3.37,3.37,0,0,1,.76.7h0a1.58,1.58,0,0,0,1,.39,1.53,1.53,0,0,1,.71.26,3.91,3.91,0,0,0,.65.4,2.89,2.89,0,0,1,.71.27c.29.26.41.65.72.89.23,0,.47,0,.7.06a1.63,1.63,0,0,0,.62.39l.14.35,0,.84a2.5,2.5,0,0,1-2.85-.1c-3.74-2.13-8-2.65-11.94-4A30,30,0,0,0,328,54.55c-8,1.38-16.29,2.55-23,8.08-2.79,2.31-6.09,3.89-8.94,6.18-2.23,1.79-5.23,1.4-8,1.45-2.46,0-5.07-.57-7.2,1.32-4.18,1.56-7.07,4.8-10.07,7.88-1.18,1.14-2.34,2.3-3.44,3.53A21.65,21.65,0,0,0,263,92.08a23.81,23.81,0,0,1-5.22,10.32c-.49.58-1.27,1.08-1.36,1.78-.72,5.47-3.18,10.51-4,15.93a7.9,7.9,0,0,0,2.73,7.12c2.69,2.48,3,5.23,1.27,8.49-2,3.68-1.38,7.26,1.15,10.54,2.38,3,2.38,6.17,1.49,9.88a38.63,38.63,0,0,0,0,16c.2.48.46.94.69,1.4.16.27.3.56.43.84s.41.8.65,1.18a4.07,4.07,0,0,1,.6,1.15.87.87,0,0,1-.26.77c-4.07-1.53-5.11-5.05-5.12-8.77,0-5.21-.81-10.5,1.23-15.62,1.05-2.61-.65-5-2.12-6.88A9.13,9.13,0,0,1,254,135.66c1.78-3.28,1-5.52-1.13-7.7-3.84-4-2.61-8.8-1.62-13.08.52-2.27,1.78-4.61,1.95-7.06a11.26,11.26,0,0,1,3.47-7.58c2.06-2.35,3.89-5.14,4.28-8a18.47,18.47,0,0,1,3.63-8.88c4.68-6,10.17-11.35,17.17-14.77,2.45-1.2,5.19-1,7.77-.73a9.2,9.2,0,0,0,9.51-4.54c3.76-.22,5.68-3.3,8.27-5.35h0c.36-.53,1.1-.31,1.5-.77h0c.6-.7,1.66,0,2.24-.79h0a3.33,3.33,0,0,1,.79-.71h0c.35-.53,1.1-.31,1.48-.78h0c2.92-1,6.27.48,9-1.54l0,0a5.58,5.58,0,0,0,.75-.71h0c.41-.48,1.14-.26,1.56-.72.24,0,.48,0,.72,0,3.66-.83,7.37-.16,11.05-.38h1.24a10.18,10.18,0,0,1,2.82,1.09c.22,0,.45.06.67.08a1.83,1.83,0,0,1,.81.72h0c.42.43,1.11.3,1.52.75h0C345.72,55.13,348.16,53.88,350.34,54.86Z" transform="translate(-169 -20)"/><path class="cls-16" d="M212.2,411.09c-1.29-1.86-.64-4-.95-6.06-1-4.7-.79-9.21,1.87-13.42.85-1.34.5-2.95.5-4.45q0-44.6,0-89.18c0-3.33.22-6.4,2.19-9.3,2.31-3.41,3-7.78,6-10.82,6.6-6.71,14.29-11.29,23.91-12,.25,0,.62.07.73-.07,3.64-4.44,9.83-4.3,14-7.79,3.31-2.77,6.92-4.9,11.39-5.09l1.54.1c.6.29,1.08.66.9,1.44a1.93,1.93,0,0,1-1.08.63c-4.28-.19-7.68,1.94-11,4.21-.31.21-.52.63-.84.75-6.63,2.29-11.87,7.64-19.21,8.46-4.85.54-9.29,3.05-12.83,5.95-9.21,7.53-15.17,16.9-13.46,29.74.47,3.54-.37,7.25-.37,10.9,0,24.32.06,48.63,0,72.94a19.87,19.87,0,0,1-.23,4.15,9.2,9.2,0,0,1-.62,1.76A6.66,6.66,0,0,1,214,395c-1.73,4.4-.79,8.93-.63,13.41a5,5,0,0,1,.47,1C213.86,410.55,213.46,411.26,212.2,411.09Z" transform="translate(-169 -20)"/><path class="cls-17" d="M274.12,253.72l-.8-.71c4.16-3.26,4.18-3.28,1-6.91-2.06-2.37-2.1-4.8-1-7.67,1.91-4.88,4.55-9.56,4.5-15.05a5,5,0,0,1,.59-2.51c3.71-6,1.09-6.74-3.31-9.58-3.35-2.16-7.25-3.4-10.37-6-1.56-1.32-3.32-2.52-2.68-4.92s2.87-2.42,4.6-2.41c3.19,0,3.87-1.61,3.62-4.29A20.74,20.74,0,0,0,265,181.57c-1.24-1.41-2.57-2.74-3.86-4.1l.06-.82.44-.2c1.38.18,2.1,1.3,3,2.11l.65.6.69.5a6.84,6.84,0,0,1,.72.47,4.27,4.27,0,0,1,.63.57,4.12,4.12,0,0,1,.49.69c.29.47.59.94.92,1.39a4.73,4.73,0,0,1,.45.71q.3.56.57,1.14a5.48,5.48,0,0,1,.33.79,9.82,9.82,0,0,0,.51,1.2l.49.77a5,5,0,0,1,.43.83,6.27,6.27,0,0,1,.22.93,6.63,6.63,0,0,0,1,3.65,5,5,0,0,1,.39,1c.68,2.75-.81,4.37-2.94,5.65a4.65,4.65,0,0,1-.92.46,24.36,24.36,0,0,1-3.81.39,5.18,5.18,0,0,0-.76.34,3,3,0,0,0-.41.65,2.63,2.63,0,0,0,0,.74,2,2,0,0,0,.29.65s.25.27.26.26l.66.4a5,5,0,0,1,.69.43c.24.17.46.35.68.53l.36.27c.28.16.54.33.82.48l.47.2c3.67,2,7.82,3.14,11.09,6,4,3.44,4.31,5.67,1.16,9.76-1.94,2.26-.95,5.08-1.42,7.61a5.1,5.1,0,0,1-.3,1c-.14.31-.31.61-.48.91s-.16.29-.23.44c-1,2.13-1,4.55-2.05,6.66a9.67,9.67,0,0,1-.5.89c-1.1,1.49-.92,3.2-.81,4.88.07.27.15.55.24.82s.27.46.42.69l.24.3c.19.19.36.38.53.58s.18.19.28.28.38.37.56.56.19.19.29.29a8.42,8.42,0,0,1,.61.59c.1.11.19.22.29.32a3.53,3.53,0,0,1,.49.78,2.54,2.54,0,0,1,.08.95C277.92,251.53,276.88,253.63,274.12,253.72Z" transform="translate(-169 -20)"/><path class="cls-18" d="M212.2,411.09l1.37-1.39a2.59,2.59,0,0,1,.34-1.21l.36-.53a6.41,6.41,0,0,1,.85-.95c10.69-10,23.39-12.75,37.25-9.31a77.69,77.69,0,0,0,22.91,2c15.27-.73,30.58-1.49,45.9-1a8.85,8.85,0,0,1,6.31,2.82c3,3,5.89,6.1,9.58,8.44,8,5.06,21.54,5.91,28.89-.72,6.8-4.48,9.09-11.68,11.32-18.89a21.22,21.22,0,0,1,1.21-3.55c2.72-5.39,4.48-5.47,7.91-.36a12.43,12.43,0,0,0,1.75,4.26c-.09.75-.19,1.5-.28,2.24-1.92-.24-2.6,1.2-3.37,2.49-4.45,7.47-10.77,13.47-16,20.35-1.33,1.76-3.44,3.55-5.65,3.42-5.4-.32-10.14,2.39-15.4,2.68-6.84.37-13.51,2.26-20.14,3.76-11.65,2.63-23.47,4.26-35.12,6.85-6.77,1.51-13.75,2.41-20.52,3.83-6.06,1.27-12.44,1.12-18.25,3.66-2.74,1.2-5.72.62-8.58.6-2.07,0-3.66.44-4.73,2.26a15,15,0,0,0-7.35-2.32c-4.53-.4-8.77-1.85-12.09-5.27-10.66-11-8.38-6.27-8.58-20.76C212.1,413.35,212.17,412.22,212.2,411.09Z" transform="translate(-169 -20)"/><path class="cls-19" d="M388.15,390.69c-2.39-.22-2.33-1.95-2.26-3.68.9-7.2.28-14.43.38-21.64a24.76,24.76,0,0,1,1.5-9.16c2.12-7.9,5-15.58,7.6-23.29,2.31-6.75,6.33-12.83,9.6-19.2a21.13,21.13,0,0,0,2.54-10.14c0-2.9-.06-5.8,0-8.7.15-7.31-3.11-13.42-7-19.17a13.82,13.82,0,0,0-10.12-6,32.51,32.51,0,0,1-12.71-4.3c-4.85-2.68-9.93-4.89-14.83-7.46-.45-.3-.88-.62-1.33-.91s-.59-.34-.89-.52c-1.1-.78-2.53-.94-3.57-1.86a1.12,1.12,0,0,1,.07-1,.73.73,0,0,1,.93.08c6.91,1.86,12.9,5.78,19.32,8.73,4,1.84,7.55,4.86,12.45,4.29,2.41-.27,4.16,2.23,6.64,2.14h0c.95.6,2.16.7,3,1.53h0l.76.75h0c.25.26.5.51.76.75h0l.76.76h0c.24.26.49.51.75.76h0l.75.76h0c.25.25.51.5.74.77h0a87.74,87.74,0,0,0,5.29,10.58h0c1.47,10.82,3.45,21.68-3,31.75-2.56,5.14-5.6,10.11-7.55,15.48-1.83,5-4.63,9.89-4.61,15.51-.44.43-1.19.82-1.26,1.31-.79,5.26-4.2,9.76-4,15.38.31,7.12.09,14.27,0,21.41C388.88,387.84,389.32,389.42,388.15,390.69Z" transform="translate(-169 -20)"/><path class="cls-20" d="M269.52,199.31c1.64-1.69,3.88-3.09,3-6,2.76,3.88,7.15,3.41,11.09,4.42,4.84,1.23,9.8,1.93,14.57,3.44a7.91,7.91,0,0,0,2.54.7c5.85-.29,9.79,3.3,13.83,6.72,4.61,3.89,9.58,7.32,15.94,6.32S343,211.7,347,206a37,37,0,0,1,5.32-5.85c3.25-3,5-6.8,6.38-10.9,1.31-3.77,2.07-8.25,7.16-9.18l.46.36a21.78,21.78,0,0,0-5.65,10.72c-1.25,5.13-5,8.82-8.8,12.41-4.28,4.07-4.15,4.44-1.78,9.55a11.24,11.24,0,0,1-1.16,11.93l-.45-.42c-.87-1.68-.48-3.42-.21-5.15.2-1.35.79-2.95-.57-3.85s-2.65.14-3.88.72a17.23,17.23,0,0,0-2.34,1.21c-5.12,3.47-10.88,3.56-16.68,3.07-4.6-.39-8-3.39-11.46-6.06-4.88-3.76-9.78-6.69-16.2-8-7.31-1.45-14.92-1.71-22-4.45C273.14,201.4,271,201.09,269.52,199.31Z" transform="translate(-169 -20)"/><path class="cls-21" d="M280,71.35a4.4,4.4,0,0,1,4.87-2.1c7.8,1.73,13.36-2.9,19-6.87A40.33,40.33,0,0,1,320,55.3c4.35-.83,8.54-2.27,13.06-2a57,57,0,0,1,20.65,5.11c1.36.63,2.74,1.21,4.12,1.81,1.4,3,5,3,7.12,5a23.43,23.43,0,0,1,6.55,9.25,5.11,5.11,0,0,0,.73.74l0,0A5.18,5.18,0,0,0,373,76v0a6.46,6.46,0,0,0,.74.74v0c.23.26.47.51.71.77v0c.83.85-.07,2.13.76,3l.05.77c.61.64,0,1.63.66,2.26,0,.25.09.49.12.73a3.92,3.92,0,0,0,.69.77l0,0c.4.42.26,1.1.73,1.49v0c.76,3.17.26,6.38.31,9.57,0,1.72.21,3.2,1.94,4h0c.39.47,1.08.33,1.5.73h0c.37.49,1.08.33,1.47.79h0c.25.24.51.47.77.7l0,0a3.88,3.88,0,0,0,.75.71l0,0a3.2,3.2,0,0,0,.74.73l0,0a3,3,0,0,0,.73.73l0,0a2.63,2.63,0,0,0,.73.72l0,0a2.67,2.67,0,0,0,.73.73l0,0a2.47,2.47,0,0,0,.72.72l0,0a2.94,2.94,0,0,0,.72.73l0,0a3.12,3.12,0,0,0,.72.73l0,0a3.83,3.83,0,0,0,.72.73l0,0a3.88,3.88,0,0,0,.73.73l0,0a4.58,4.58,0,0,0,.73.73l0,0a6.29,6.29,0,0,0,.72.74l0,0c.41.42.25,1.1.71,1.49l0,.78a70.59,70.59,0,0,1,0,15.85l0,0c-.43.42-.31,1.08-.68,1.53h0c-.51.36-.34,1.07-.78,1.46l0,0c-.69.6-.07,1.63-.72,2.24v3.05c.44.4.26,1.11.75,1.49h0a10.24,10.24,0,0,0,.72.75l0,0c.43.4.27,1.09.72,1.49l0,.77a1.91,1.91,0,0,1,0,2.26v0c-.72.6-.11,1.63-.73,2.26h0c-.49.38-.33,1.08-.77,1.48v0a.72.72,0,0,1-1.05-.21c-.16-3.48-.27-6.9-1.93-10.17-.84-1.63-.36-3.75.44-5.52,2.69-5.93,1.26-12.16,1.35-18.27,0-1.45-1-2.54-2-3.52-3.14-3.07-5.94-6.5-10-8.59-2.75-1.42-3.71-4-3.67-7,.05-4.28.31-8.63-1.6-12.63-3.39-7.1-6.93-13.63-14.11-18.39-6.48-4.3-13.45-6.17-20.47-8-5.31-1.35-11.22-1.64-16.64.9a2.88,2.88,0,0,1-1.05.4C312,58,305.75,64,298.85,68.67a17.59,17.59,0,0,1-10,3.06c-2.64,0-5.27.18-7.91.27A1.57,1.57,0,0,1,280,71.35Z" transform="translate(-169 -20)"/><path class="cls-22" d="M391.08,148.63l.8,0c-.87,3.62-2.69,6.37-6.45,7.6-2.7.87-4,3.34-5.3,5.58a20.29,20.29,0,0,1-4.83,5.58c-2.87,2.41-4.18,6.07-5.72,9.41-.76,1.64-1.21,3.32-3.31,3.64l-.09-.07a1.1,1.1,0,0,1-.22-1c1.28-2.64,1.87-5.14-1.41-6.85A3.34,3.34,0,0,1,363,170a9.7,9.7,0,0,1,1.55-3.3,1.94,1.94,0,0,1,1-.26c2,.49,2.95,3.14,4.93,2.93,1.79-.19,2.18-2.82,3.88-3.7a7.51,7.51,0,0,0,1.46-1.13c.23-.24.47-.47.7-.72s.4-.55.58-.83c1.65-4.24,4.29-7.63,8.58-9.34C388.17,152.6,388.8,149.75,391.08,148.63Z" transform="translate(-169 -20)"/><path class="cls-23" d="M358,253.72l-.91.06c-3.32,1-5.6-1.61-8.24-2.64a47.13,47.13,0,0,1-8.63-4.47c-1.77-1.89-3.46-3.79-.24-5.89l.58.17c.12,1.8-.84,4.14,2.21,4.48,5.36,1.59,9.94,4.86,15.08,6.93Z" transform="translate(-169 -20)"/><path class="cls-22" d="M393.39,129.71l0-15.85A36.23,36.23,0,0,1,393.39,129.71Z" transform="translate(-169 -20)"/><path class="cls-22" d="M379.8,100.23c-2-.15-2.28-1.55-2.27-3.17,0-3.48,0-7,0-10.43,1.54,2.69.53,5.6.66,8.4C378.31,97,378.47,98.73,379.8,100.23Z" transform="translate(-169 -20)"/><path class="cls-23" d="M344.33,234.12c-.74,2.16-.84,4.64-3,6.08l-.38-.37c-.57-2.35.64-4.12,1.91-5.87a1.7,1.7,0,0,1,1-.15Z" transform="translate(-169 -20)"/><path class="cls-20" d="M348.88,225.07c.19,2.19-1.75,3.43-2.36,5.27a.93.93,0,0,1-1-.37c-.47-2.69.29-4.57,3.29-5Z" transform="translate(-169 -20)"/><path class="cls-23" d="M345.8,230.3l.72,0a4.67,4.67,0,0,1-2.19,3.78l-.05,0c-.71-.7-.37-1.46-.1-2.21a4.49,4.49,0,0,1,.46-.83,2.76,2.76,0,0,1,.7-.62Z" transform="translate(-169 -20)"/><path class="cls-22" d="M375.26,80.56c-1.06-.79-.66-2-.76-3C375.6,78.36,375.2,79.51,375.26,80.56Z" transform="translate(-169 -20)"/><path class="cls-22" d="M376,83.59c-.83-.57-.7-1.43-.66-2.26C376.11,81.91,376,82.76,376,83.59Z" transform="translate(-169 -20)"/><path class="cls-22" d="M392.67,147.14c0-.84-.15-1.72.73-2.26C393.43,145.72,393.53,146.59,392.67,147.14Z" transform="translate(-169 -20)"/><path class="cls-22" d="M391.15,135c0-.83-.15-1.69.72-2.24C391.86,133.59,392,134.46,391.15,135Z" transform="translate(-169 -20)"/><path class="cls-22" d="M393.41,144.86V142.6A1.28,1.28,0,0,1,393.41,144.86Z" transform="translate(-169 -20)"/><path class="cls-22" d="M393.37,141.83a1.52,1.52,0,0,1-.72-1.49A1.41,1.41,0,0,1,393.37,141.83Z" transform="translate(-169 -20)"/><path class="cls-22" d="M391.89,148.63a1.45,1.45,0,0,1,.77-1.48A1.53,1.53,0,0,1,391.89,148.63Z" transform="translate(-169 -20)"/><path class="cls-22" d="M391.9,139.55a1.39,1.39,0,0,1-.75-1.49A1.59,1.59,0,0,1,391.9,139.55Z" transform="translate(-169 -20)"/><path class="cls-11" d="M360.92,61.67a1.57,1.57,0,0,1,1.51.74A1.56,1.56,0,0,1,360.92,61.67Z" transform="translate(-169 -20)"/><path class="cls-22" d="M382.8,101.77a1.48,1.48,0,0,1-1.47-.79A1.47,1.47,0,0,1,382.8,101.77Z" transform="translate(-169 -20)"/><path class="cls-22" d="M381.32,101a1.45,1.45,0,0,1-1.5-.73A1.53,1.53,0,0,1,381.32,101Z" transform="translate(-169 -20)"/><path class="cls-22" d="M393.38,113.08a1.47,1.47,0,0,1-.71-1.49A1.42,1.42,0,0,1,393.38,113.08Z" transform="translate(-169 -20)"/><path class="cls-22" d="M392.69,131.27a1.46,1.46,0,0,1,.68-1.53A1.49,1.49,0,0,1,392.69,131.27Z" transform="translate(-169 -20)"/><path class="cls-22" d="M391.89,132.74a1.43,1.43,0,0,1,.78-1.46A1.5,1.5,0,0,1,391.89,132.74Z" transform="translate(-169 -20)"/><path class="cls-22" d="M377.54,86.61a1.46,1.46,0,0,1-.73-1.49A1.45,1.45,0,0,1,377.54,86.61Z" transform="translate(-169 -20)"/><path class="cls-11" d="M371.5,71.5l.73,0c0,.5,0,1,0,1.5A1.59,1.59,0,0,1,371.5,71.5Z" transform="translate(-169 -20)"/><path class="cls-11" d="M357.9,58.64c.24,0,.49,0,.73,0,0,.24,0,.49,0,.74h-.74a.5.5,0,0,1-.18-.48c0-.17.1-.25.16-.25Z" transform="translate(-169 -20)"/><path class="cls-11" d="M358.64,59.41h.75c0,.25,0,.5,0,.74Z" transform="translate(-169 -20)"/><path class="cls-11" d="M360.14,60.18c0,.24,0,.49,0,.74-.25-.25-.51-.5-.76-.76Z" transform="translate(-169 -20)"/><path class="cls-11" d="M360.16,60.92h.74c0,.25,0,.49,0,.74Z" transform="translate(-169 -20)"/><path class="cls-11" d="M363.17,62.43l.77.71Z" transform="translate(-169 -20)"/><path class="cls-11" d="M365.44,63.2c0,.24,0,.48,0,.73l-.79-.73Z" transform="translate(-169 -20)"/><path class="cls-11" d="M365.46,63.93l.75.75Z" transform="translate(-169 -20)"/><path class="cls-22" d="M392.63,140.31l-.72-.75Z" transform="translate(-169 -20)"/><path class="cls-22" d="M390.39,109.27l-.72-.73Z" transform="translate(-169 -20)"/><path class="cls-22" d="M389.64,108.51l-.72-.73Z" transform="translate(-169 -20)"/><path class="cls-22" d="M388.89,107.75l-.72-.73Z" transform="translate(-169 -20)"/><path class="cls-22" d="M388.14,107l-.72-.72Z" transform="translate(-169 -20)"/><path class="cls-22" d="M387.39,106.23c-.25-.24-.49-.48-.73-.73C386.9,105.75,387.14,106,387.39,106.23Z" transform="translate(-169 -20)"/><path class="cls-22" d="M386.63,105.47l-.73-.72Z" transform="translate(-169 -20)"/><path class="cls-22" d="M385.87,104.72l-.73-.73Z" transform="translate(-169 -20)"/><path class="cls-22" d="M385.12,104l-.74-.73Z" transform="translate(-169 -20)"/><path class="cls-22" d="M384.36,103.21l-.75-.71Z" transform="translate(-169 -20)"/><path class="cls-22" d="M383.59,102.48l-.77-.7Z" transform="translate(-169 -20)"/><path class="cls-23" d="M341.32,240.2l-.74.75-.08-.06c-.14-.63.11-.88.74-.76Z" transform="translate(-169 -20)"/><path class="cls-22" d="M392.64,111.56l-.72-.74Z" transform="translate(-169 -20)"/><path class="cls-22" d="M391.9,110.79c-.25-.24-.49-.49-.73-.73C391.41,110.3,391.65,110.55,391.9,110.79Z" transform="translate(-169 -20)"/><path class="cls-22" d="M376.78,85.09l-.69-.77Z" transform="translate(-169 -20)"/><path class="cls-22" d="M391.15,110c-.25-.24-.49-.49-.73-.73C390.66,109.54,390.9,109.79,391.15,110Z" transform="translate(-169 -20)"/><path class="cls-22" d="M374.49,77.56c-.24-.26-.47-.52-.71-.77C374,77,374.25,77.3,374.49,77.56Z" transform="translate(-169 -20)"/><path class="cls-22" d="M373.77,76.77,373,76Z" transform="translate(-169 -20)"/><path class="cls-22" d="M373,76l-.74-.74Z" transform="translate(-169 -20)"/><path class="cls-22" d="M372.26,75.25l-.73-.74Z" transform="translate(-169 -20)"/><path class="cls-11" d="M370.76,70l.71.79Z" transform="translate(-169 -20)"/><path class="cls-11" d="M370,68.47l.72,0v.77Z" transform="translate(-169 -20)"/><path class="cls-11" d="M369.24,67.71l.74,0v.74Z" transform="translate(-169 -20)"/><path class="cls-11" d="M368.49,67l.73,0c0,.24,0,.49,0,.73Z" transform="translate(-169 -20)"/><path class="cls-11" d="M367.74,66.2h.73c0,.25,0,.49,0,.74Z" transform="translate(-169 -20)"/><path class="cls-11" d="M367.71,65.45c0,.25,0,.49,0,.74l-.75-.75Z" transform="translate(-169 -20)"/><path class="cls-11" d="M366.22,64.69l.75.74Z" transform="translate(-169 -20)"/><path class="cls-12" d="M406.24,317.3c5.61-10.15,3.89-21,3-31.75,1.63,1.25,1.53,3,1.53,4.8q0,8.31,0,16.6C410.78,311.07,408.88,314.35,406.24,317.3Z" transform="translate(-169 -20)"/><path class="cls-12" d="M409.24,285.55A23,23,0,0,1,404,275,40,40,0,0,1,409.24,285.55Z" transform="translate(-169 -20)"/><path class="cls-12" d="M399.43,270.42a4.13,4.13,0,0,1-3-1.53C397.73,268.81,398.87,269,399.43,270.42Z" transform="translate(-169 -20)"/><path class="cls-12" d="M401,271.92l-.76-.75Z" transform="translate(-169 -20)"/><path class="cls-12" d="M401.71,272.68l-.76-.76Z" transform="translate(-169 -20)"/><path class="cls-12" d="M402.46,273.44l-.75-.76Z" transform="translate(-169 -20)"/><path class="cls-12" d="M403.21,274.2l-.75-.76Z" transform="translate(-169 -20)"/><path class="cls-12" d="M404,275c-.25-.26-.49-.52-.74-.77C403.46,274.45,403.7,274.71,404,275Z" transform="translate(-169 -20)"/><path class="cls-12" d="M400.19,271.17l-.76-.75Z" transform="translate(-169 -20)"/><path class="cls-11" d="M337.5,51.85H325.42c3.94-1.61,8.06-.36,12.07-.76.26.17.34.33.26.5S337.59,51.85,337.5,51.85Z" transform="translate(-169 -20)"/><path class="cls-10" d="M337.5,51.85c0-.26,0-.51,0-.76.84,0,1.73-.14,2.29.73a1.07,1.07,0,0,1-1.54,0h-.74Z" transform="translate(-169 -20)"/><path class="cls-11" d="M338.24,51.85l1.54,0,.74,0c0,.24,0,.48,0,.72C339.7,52.55,338.82,52.68,338.24,51.85Z" transform="translate(-169 -20)"/><path class="cls-11" d="M324.7,51.86a1.68,1.68,0,0,1-1.56.72c0-.25,0-.49,0-.74Z" transform="translate(-169 -20)"/><path class="cls-11" d="M322.36,53.33c-2.64,2.65-6,1.1-9,1.54C316.19,53.47,319.44,54.38,322.36,53.33Z" transform="translate(-169 -20)"/><path class="cls-11" d="M313.34,54.87a1.6,1.6,0,0,1-1.48.78v-.76Z" transform="translate(-169 -20)"/><path class="cls-11" d="M323.14,52.59l-.75.71Z" transform="translate(-169 -20)"/><path class="cls-11" d="M350.34,54.86c-2.26-.32-4.66.69-6.8-.75h6.8C350.34,54.37,350.35,54.61,350.34,54.86Z" transform="translate(-169 -20)"/><path class="cls-11" d="M343.54,54.12a1.61,1.61,0,0,1-1.52-.75A1.48,1.48,0,0,1,343.54,54.12Z" transform="translate(-169 -20)"/><path class="cls-11" d="M342,53.37l-.81-.72.8,0A4.7,4.7,0,0,1,342,53.37Z" transform="translate(-169 -20)"/><path class="cls-11" d="M311.05,56.36c-.53.88-1.41.75-2.24.79C309.33,56.24,310.23,56.4,311.05,56.36Z" transform="translate(-169 -20)"/><path class="cls-11" d="M308.82,57.15a1.62,1.62,0,0,1-1.5.77v-.76Z" transform="translate(-169 -20)"/><path class="cls-11" d="M311.85,55.65l-.79.71c0-.25,0-.49,0-.73Z" transform="translate(-169 -20)"/><path class="cls-11" d="M354.12,57.15l-.71,0c-.19-.15-.26-.3-.21-.47s.1-.25.16-.25h0a1.59,1.59,0,0,1,1.51.75l-.37.33Z" transform="translate(-169 -20)"/><path class="cls-11" d="M355.63,57.9c-.23,0-.47,0-.7,0s-.27-.3-.22-.46.1-.26.16-.26h0l1.48,0,0,.73h0A.46.46,0,0,1,355.63,57.9Z" transform="translate(-169 -20)"/><path class="cls-6" d="M355.63,57.9h.75c0,.24,0,.48.06.71Z" transform="translate(-169 -20)"/><path class="cls-6" d="M357.88,58.67c0,.24,0,.48,0,.73l-.76-.74C357.38,58.65,357.63,58.66,357.88,58.67Z" transform="translate(-169 -20)"/><path class="cls-11" d="M351.85,55.63l-.82-.72.8,0C351.85,55.13,351.85,55.38,351.85,55.63Z" transform="translate(-169 -20)"/><path class="cls-6" d="M352.6,56.38l-.76-.7a3.55,3.55,0,0,1,.73,0Q352.6,56,352.6,56.38Z" transform="translate(-169 -20)"/><path class="cls-6" d="M353.36,56.38c0,.24,0,.48.05.72l-.8-.71Z" transform="translate(-169 -20)"/><path class="cls-21" d="M256.7,146.38c-3.25-3.72-3-7.66-.74-11.74,1.27-2.25,1-4.19-.84-6.12-4.52-4.82-5-8.65-2-14.62a3.33,3.33,0,0,0,.55-1.38c-.37-6.94,4.59-11.57,7.28-17.2,1.44-3,1.58-6.51,3.31-9.48.82-1.42,1.44-2.93,2.86-3.87.13.14.27.28.4.43-2.19,7.36-3.64,15-8.93,21.09-.49.57-1.16,1.14-1.22,1.87-.37,4.67-2.33,8.94-3.33,13.43a8.77,8.77,0,0,0,2.77,8.57c2.68,2.53,3.61,5.19,1.24,8.6-2.22,3.2-.61,6.78-.38,10.2A.66.66,0,0,1,256.7,146.38Z" transform="translate(-169 -20)"/><path class="cls-21" d="M270.18,79c2.94-3,5.35-6.6,9.79-7.63l.22.26a1.84,1.84,0,0,1-1.05,2.13c-3.15,1.36-2.62,3.14-.74,5.17,1,1.91,2.8,3.17,4.11,4.83.62.8,1.23,1.67.34,2.66s-1.78.7-2.72.21a18.45,18.45,0,0,1-4.66-3.73c-1.31-1.34-2.59-2.71-4.52-3.17A2,2,0,0,1,270.18,79Z" transform="translate(-169 -20)"/><path class="cls-24" d="M256.7,146.38h.77c2.15.12,2.5,2,3.25,3.41.08.24.25.49.22.72-1,7.53-.43,15.16-1.55,22.68l-.48.46a5.29,5.29,0,0,1-1.47-4.47c.27-5.46-.82-11,1.42-16.33C260,150.18,257.09,148.66,256.7,146.38Z" transform="translate(-169 -20)"/><path class="cls-21" d="M267.15,82l3-3,.16.14a1.64,1.64,0,0,1,.34,1c-.6,1.49-1.36,2.71-3.29,2.06Z" transform="translate(-169 -20)"/><path class="cls-24" d="M259.64,174.43l-.73-.78.11-.09a.73.73,0,0,1,.81.4Z" transform="translate(-169 -20)"/><path class="cls-24" d="M259.73,175.1l-.09-.67.11-.11a.77.77,0,0,1,.85.34c0,.17,0,.34,0,.51A.51.51,0,0,1,259.73,175.1Z" transform="translate(-169 -20)"/><path class="cls-20" d="M259.73,175.1l.72,0,.21.36-.19.37Z" transform="translate(-169 -20)"/><path class="cls-20" d="M261.22,176.65l-.75-.79h0c.62-.14.87.1.71.73Z" transform="translate(-169 -20)"/><path class="cls-6" d="M354.87,57.13q0,.36.06.72l-.81-.7Z" transform="translate(-169 -20)"/><path class="cls-25" d="M214.34,392.89q.06-40.63.09-81.29c0-3.73,0-7.49.16-11.19.47-13,6.36-22.76,18-29,4.12-2.22,8.14-4.32,12.92-4.45a1.69,1.69,0,0,0,1.08-.27c4.14-4.31,10.47-4.48,15.06-8.19,3.36-2.72,7.25-5.48,12.23-4a1.27,1.27,0,0,1,1.16,1.3,1.42,1.42,0,0,1-.9.84c-4.9-.56-8.41,2.54-12.42,4.52-6.66,3.31-12.92,7.31-20.38,9.18-8.69,2.18-16,6.87-20.28,15.49-2.78,5.65-4.87,11.09-3.49,17.63,1.07,5.06-.65,10.24-.62,15.41q.12,24.53,0,49.05c0,4.92,1.16,9.75.8,14.67-.25,3.38-.3,6.78-1.7,10a2,2,0,0,1-1.09.66Z" transform="translate(-169 -20)"/><path class="cls-26" d="M214.39,408.81l-.82.89c-.23-.09-.45-.17-.68-.24-.3-5-1.33-10.14.7-15.08a4.92,4.92,0,0,1,.1-.67,1,1,0,0,1,1.08.44c.64,3.91-.44,7.8-.1,11.71C214.69,406.85,214.38,407.82,214.39,408.81Z" transform="translate(-169 -20)"/><path class="cls-25" d="M213.59,394.38c-1.34,5-.48,10.05-.7,15.08C212.09,404.38,210.78,399.29,213.59,394.38Z" transform="translate(-169 -20)"/><path class="cls-27" d="M274.77,255.1l-.89-.66.24-.72c1.8-1.48,3.94-2.68,4.47-5.24,1.52-.08,1.27,1,1.27,1.92C278.66,252.5,277.25,254.39,274.77,255.1Z" transform="translate(-169 -20)"/><path class="cls-25" d="M214.47,393.77l-.78-.06.65-.81.06,0,.29.4Z" transform="translate(-169 -20)"/><path class="cls-18" d="M279.35,250.74c0-.83.13-1.72-.76-2.26h0c-.22-.28-.5-.51-.74-.77h0c-.25-.26-.51-.51-.75-.77h0q-.39-.36-.75-.75h0l-.77-.75h0l-.75-.76h0c-.64-2.36-.78-4.67.75-6.8h0c1.71-2.24,1.43-5.07,2.27-7.56h0c.25-.25.51-.49.74-.77h0c1.38-2.88.11-6.2,1.52-9.07,3.35-4.36,1.65-9-4.58-11.12-3-1-5.43-2.8-8.23-4,1.63-1.58.48-3.43.5-5.17.39-.67,1.3-.31,1.74-.88h0c3.57,1,7.15,2,10.68,3.11a42.7,42.7,0,0,0,7.69,1.51c9.49,1.21,18.76,2.82,26.2,10,7.75,7.47,17.82,8.2,28.3,2.06a8.17,8.17,0,0,1,1.27-.8c1.61-.55,3.28-2.09,4.91-1,1.85,1.24,1.19,3.48.7,5.22-.53,1.89-.3,3.75-.47,5.61a5.92,5.92,0,0,0-3,5.3v0c-.26.24-.49.51-.74.76h0c-.86.83-.94,2-1.53,3-1,1.93-2.19,3.77-2.28,6l-.74.76c-2.75,1.78-1.19,3.51.06,5.25-2.35,2-3.65,4.77-5.42,7.19a2.78,2.78,0,0,0-.37,3.18,13.49,13.49,0,0,1,1.64,9.45c-.23,1.22.52,2.44,1.16,3.53a6.69,6.69,0,0,1,.46.93c.3.8.55,1.62.81,2.44a9.51,9.51,0,0,1,.32,2c0,1.88,1.35,3.28,1.79,5a5.79,5.79,0,0,1,.25.93,14.57,14.57,0,0,0,.46,2.77c.11.29.2.58.3.88a10.07,10.07,0,0,0,1.21,2.49,4.49,4.49,0,0,1,.32.89,16.22,16.22,0,0,0,.56,2.26,7,7,0,0,1,.28,1.35,4.94,4.94,0,0,0,.83,2.52,6.32,6.32,0,0,1,.47.79,10.21,10.21,0,0,1,.76,1.73,8.34,8.34,0,0,1,.29,1.92,4.59,4.59,0,0,0,.75,2.32,10.46,10.46,0,0,1,1.54,3.58c.72,5.25,3,10,4.41,15.08a114.36,114.36,0,0,0,3.95,12.48c1.79,4.51,2.33,9.43,4.44,13.86,1.34,2.82,1.61,6,2.59,9,3.23,9.81,7.15,19.56,7.14,30.13a34.12,34.12,0,0,1-1.91,12.56c-2.74,1.47-3.53-1-4.62-2.45a27.68,27.68,0,0,0-11.4-8.9c-7.44-3.14-18.33.26-23.07,5.78-3.46,4-5.2,4.11-8.64,0-3.68-4.4-4.89-9.78-5-15.42-.07-5,.48-10.09-2.32-14.66-1.53-3.57-.51-7.39-1.07-11.07-.67-4.42-.9-8.89-1.27-13.34-.39-9.13-.09-18.3-2.45-27.29-1.31-5-.33-10.23-1.08-15.38-1.17-7.92-2.13-15.9-2.63-23.93-.31-4.83-3.74-8.07-8.17-10-6-2.62-11.67-5.83-17.4-9A3.66,3.66,0,0,1,279.35,250.74Z" transform="translate(-169 -20)"/><path class="cls-28" d="M363.18,169.83l1.52,2.27c2,2.23-.14,5.28,1.51,7.58l0,.71c-4.06,1-5.8,4.78-6.21,7.84-1.31,9.68-9.13,14.75-14.53,21.19-7.9,9.4-21.94,8.6-31.62-.12-3.68-3.31-7.46-5.79-12.92-6.66-4.84-.77-10.11-1.17-14.8-3.56a14,14,0,0,0-7-1.16c-3.69.25-6-.86-6.6-4.65h0c-1.38-1.22-.8-3.09-1.5-4.53l0-.75c-.24-.25-.47-.52-.73-.77h0c-.68-.61-.05-1.66-.76-2.26h0c-.43-.42-.3-1.11-.75-1.52h0c-.57-.71-.93-1.56-1.53-2.25h0a10.46,10.46,0,0,0-.75-.74l-.74-.05-.75-.71v0a1.38,1.38,0,0,1-.13-1.22,16.68,16.68,0,0,0,.33-6.71c-.69-7.48-1.12-15.08.07-22.44,1.4-8.64.26-17.22.84-25.81.23-3.37.8-6.45,3-9,3.74-5.91,9.12-10.1,14.79-14a37,37,0,0,0,3.7-2.51l.45-.3a6.28,6.28,0,0,1,1-.43,3.21,3.21,0,0,1,2.63,0c5.08,4.47,9.95,9.19,14.62,14.08,8,8.44,16.48,16.47,24.73,24.7,2.22,2.22,3.32,4.26,1,7.16a3.77,3.77,0,0,0-.53,4.56l.54.74c.1.11.19.23.28.34s.38.41.56.62l.29.28c.21.15.42.31.64.45s.44.26.66.39.66.37,1,.53a6.08,6.08,0,0,1,.68.33l1,.5c.25.09.49.2.73.3a7.34,7.34,0,0,0,1.22.25,12.8,12.8,0,0,1,1.87.31c6.05-.17,10.28,2.75,13.75,7.5,2.19,3,5.32,5.21,7.71,8.08a3.69,3.69,0,0,1,.57,1C363.14,169.46,363.16,169.64,363.18,169.83Z" transform="translate(-169 -20)"/><path class="cls-29" d="M268,200.08c.16,1.82,3.64,4.1-.74,5.28h0c-.25-.24-.49-.49-.74-.74h0a4.54,4.54,0,0,0-.75-.7l-.75-.09-.72-.7-.06-.06c-.23-.23-.46-.48-.68-.72v-1.52c.23-.25.47-.5.72-.73l0,0A4.31,4.31,0,0,1,268,200.08Z" transform="translate(-169 -20)"/><path class="cls-30" d="M280.1,220.49c-.22,3.07.7,6.33-1.52,9.07C279,226.53,277.46,223.16,280.1,220.49Z" transform="translate(-169 -20)"/><path class="cls-30" d="M277.84,230.33c-.16,2.7.07,5.51-2.27,7.56C276.41,235.39,276.42,232.65,277.84,230.33Z" transform="translate(-169 -20)"/><path class="cls-24" d="M265,178.87c0,.25,0,.51,0,.76l-3.8-3-.71-.73c0-.24,0-.48,0-.72l.05-.07C263.5,174.56,264.66,176.23,265,178.87Z" transform="translate(-169 -20)"/><path class="cls-30" d="M275.57,237.89a17.78,17.78,0,0,0-.75,6.8C273.73,242.28,273.12,239.92,275.57,237.89Z" transform="translate(-169 -20)"/><path class="cls-20" d="M268,200.08h-3.76c1.58-1.47,3.52-.46,5.27-.77A1.58,1.58,0,0,1,268,200.08Z" transform="translate(-169 -20)"/><path class="cls-20" d="M271.05,188.73c1.1,1.31,1,3,1.5,4.53C270.46,192.27,271.17,190.36,271.05,188.73Z" transform="translate(-169 -20)"/><path class="cls-20" d="M267.25,181.18a2.26,2.26,0,0,1,1.53,2.25A2.3,2.3,0,0,1,267.25,181.18Z" transform="translate(-169 -20)"/><path class="cls-20" d="M269.53,185c.88.54.73,1.43.76,2.26C269.4,186.67,269.54,185.78,269.53,185Z" transform="translate(-169 -20)"/><path class="cls-20" d="M268.78,183.43a1.55,1.55,0,0,1,.75,1.52A1.55,1.55,0,0,1,268.78,183.43Z" transform="translate(-169 -20)"/><path class="cls-20" d="M265,179.67l.75.71Z" transform="translate(-169 -20)"/><path class="cls-20" d="M266.5,180.43l.75.74Z" transform="translate(-169 -20)"/><path class="cls-30" d="M277.84,247.71l.74.77Z" transform="translate(-169 -20)"/><path class="cls-30" d="M277.09,247l.75.77Z" transform="translate(-169 -20)"/><path class="cls-30" d="M276.34,246.2l.75.75Z" transform="translate(-169 -20)"/><path class="cls-30" d="M275.57,245.45l.77.75Z" transform="translate(-169 -20)"/><path class="cls-30" d="M274.82,244.69l.75.76Z" transform="translate(-169 -20)"/><path class="cls-30" d="M278.58,229.56l-.74.77Z" transform="translate(-169 -20)"/><path class="cls-18" d="M266.52,204.61l.74.74Z" transform="translate(-169 -20)"/><path class="cls-20" d="M265.74,203.92l.75.7Z" transform="translate(-169 -20)"/><path class="cls-20" d="M264.27,203.13l.72.7Z" transform="translate(-169 -20)"/><path class="cls-20" d="M263.53,202.35l.68.72Z" transform="translate(-169 -20)"/><path class="cls-20" d="M264.24,200.1l-.72.73Z" transform="translate(-169 -20)"/><path class="cls-20" d="M270.29,187.21l.73.77Z" transform="translate(-169 -20)"/><path class="cls-31" d="M230.27,432.22c.12,8-.38,6.91-6.49,3.83-3.77-1.91-6.77-5.32-9.05-8.85-2.78-4.33-.88-9.41-.74-14.14,0-1.17,1.22-2,3.15-1.25C223.82,414.54,231.56,423.62,230.27,432.22Z" transform="translate(-169 -20)"/><path class="cls-32" d="M214.39,408.81c-.89-.54-.73-1.41-.7-2.24a32.6,32.6,0,0,1,13.74-9.09,5.87,5.87,0,0,1,1.16-.32c6.42-3.28,13.33-2,20.08-2.2a8,8,0,0,1,1.88.27c2.46.5,4.64,2,7.22,2.11a146.16,146.16,0,0,0,23.67.17c13.66-.81,27.33-.28,41-.34a6.73,6.73,0,0,1,2.91.69,8.92,8.92,0,0,1,2.54,1.85c4.32,4.53,8.5,9.24,14.58,11.54,3.27,1.17,6.41,2.93,9.5,2.11-2.36.18-5.26.16-7.42-2.37a2,2,0,0,1-.49-1,1,1,0,0,1,.67-.85,3,3,0,0,1,2.17.12c3.58,1.43,7.12,1.94,10.75.06a4.3,4.3,0,0,1,3.6-.23c.73.24.71,2.05,2.16.91,1-.8,2.25-1.63,3.59-.4-7.33,6.35-15.46,6.72-24.43,3.93-6.34-2-10.86-6-15.05-10.72a8.9,8.9,0,0,0-7.54-3.21c-14.69.47-29.39.66-44.08,1a52.74,52.74,0,0,0-5.59.6c-6.36.81-12.29-1.14-18.36-2.57-13.21-3.12-25.28-.75-35.56,8.62a9,9,0,0,1-1.25.82c-.21.29-.54.45-.74.75Z" transform="translate(-169 -20)"/><path class="cls-33" d="M367,409.59c-1.86-.4-2.8,1.15-4.13,1.91-.72.41-1.75.72-2.24-.26-.41-.81.87-1,1-1.74.12-3.27,3.59-4,4.85-6.45,1.52-2.09,1.78-5,4.29-6.46a2.22,2.22,0,0,1,.68,1.43c-.23,3.44-2,6.1-4,8.51a20,20,0,0,0,4.8-7.16,5.7,5.7,0,0,1,.5-.81l.28-.36a7,7,0,0,0,.66-1.12c.13-.4.27-.79.41-1.18a7.79,7.79,0,0,0,.44-1.57,6.47,6.47,0,0,1,.26-1.22c.19-.53.45-1,.69-1.54.11-.26.25-.52.38-.77s.23-.54.35-.82l.27-.88c.28-1.14.14-2.33.45-3.47a5.76,5.76,0,0,1,.41-1c2.63-5.32,2.63-5.32,7.5-4.66,0-4.78,0-9.54,0-14.3a24.12,24.12,0,0,1,1-7.08c.44-1.45,1-2.92,3-2.66-2.65,7.42-1.1,15.11-1.44,22.68-.11,2.38-.07,4.76,0,7.14,0,1.15-.29,1.66-1.49,1.3-3.84-5.09-4-5.14-6.66.48a60.71,60.71,0,0,0-3,8.81A25.31,25.31,0,0,1,367,409.59Z" transform="translate(-169 -20)"/><path class="cls-26" d="M214.39,408.81l.74-.75Z" transform="translate(-169 -20)"/><path class="cls-34" d="M388.83,355.89c-3.26,1.66-2.73,5.06-2.83,7.64-.21,5.6-.76,11.26.35,16.86.31,1.55-.59,2.59-1.75,1.53-3.66-3.37-4.78-1.12-5.78,2.17-.16.52-.84.87-1.27,1.3-.09-.09-.25-.17-.27-.26a71.7,71.7,0,0,0-5.37-18.48c-1.77-4.11-2.15-8.54-4-12.71-2.41-5.55-3.82-11.63-5.19-17.61-.45-2-.91-3.92-2.44-5.42a3.13,3.13,0,0,1-1-2.4c.3-4.41-1.43-8.63-2.89-12.37-2.27-5.83-3.36-12.05-6.2-17.63a4.31,4.31,0,0,1-.77-1.71c-.25-9-5-16.74-7.57-25.07-1.21-3.92-1.15-4.4,2.89-5.41a22,22,0,0,0,9.44-4.55,31.36,31.36,0,0,1,6.78-4.56l.37-.41a.86.86,0,0,1,1-.11c7,3.54,14.07,7.06,21.09,10.63a10.48,10.48,0,0,0,4,.81c7.25.65,12.43,4.08,16.25,10.53,5.79,9.78,5.53,20.13,4,30.64-.65,4.47-3.72,8.16-5.58,12.25-2.34,5.16-5.28,9.94-7,15.53C393.26,343.37,391.15,349.69,388.83,355.89Z" transform="translate(-169 -20)"/><path class="cls-35" d="M337.44,270.37a5.09,5.09,0,0,1-1.91-5.6,8.93,8.93,0,0,0-1.47-7.35c-1.15-1.83-1.23-3.26.45-4.93a24.15,24.15,0,0,0,3.08-4.54c.7-1.11,1.51-2,3-1.81l16.55,7.64.18.74c0,2.56-2.09,3.3-3.78,4.15a108,108,0,0,1-9.84,4.67C338.42,265.3,338.49,265.48,337.44,270.37Z" transform="translate(-169 -20)"/><path class="cls-36" d="M337.44,270.37c-1.3-5.08-1.15-4.76,3.75-7,5.59-2.49,11.68-4.22,16.1-8.89a4.62,4.62,0,0,1,3.62,1.46,41.45,41.45,0,0,0-7.5,4,9.42,9.42,0,0,1-.87.51c-2.32,1.66-5.15,2.34-7.51,3.91a3.92,3.92,0,0,1-.87.43c-1,.33-2.13.24-3.14.61-.26.12-.53.23-.78.36a4.78,4.78,0,0,0-.65.54c-.06.13-.14.25-.21.38a3.75,3.75,0,0,0,.21,2.22,6.64,6.64,0,0,1,.23,1c.15,2.94,2.21,5.26,2.62,8.11.11.32.19.65.27,1,.2,2,1.26,3.8,1.88,5.7a7.17,7.17,0,0,1,.29.93,14.44,14.44,0,0,0,.65,3.24c.16.29.31.58.46.87,1.15,1.56,1.41,3.43,1.79,5.25.17.6.27,1.21.38,1.82.08.28.16.55.26.83.07.12.13.25.2.38s.31.49.45.74a4.13,4.13,0,0,1,.35.81,20.25,20.25,0,0,0,.53,2.14,6.68,6.68,0,0,1,.26.87,9.66,9.66,0,0,0,.71,3.17c.17.3.32.6.47.91.82,2,2.25,4,.37,6.21-2.67-2.5-2.74-6-3.69-9.24-.51-1-1-2.06-1.54-3.09-.61-.61,0-1.57-.64-2.2l-.21-2.34c-.24-.46-.21-1-.57-1.42l-.05-.09c-.82-.8-.95-1.95-1.46-2.91l-.17-1.64c-.48-.65,0-1.56-.57-2.19l-.13-.81c-.74-.85-.88-2-1.44-2.92l-.05-.09c-.73-.87.1-2.1-.68-3l-.06-.83c-.22-1.95-1.54-3.44-2.17-5.22l-.24-2.39c-.41-.64.1-1.53-.57-2.09Z" transform="translate(-169 -20)"/><path class="cls-34" d="M352.56,259.78c2.57-1.75,4.77-4.29,8.35-3.8l.77.14a.41.41,0,0,1,.18.42c-.05.15-.1.22-.15.22l-.06.07c-2,1.26-4.41,1.69-6.33,3.17A2,2,0,0,1,352.56,259.78Z" transform="translate(-169 -20)"/><path class="cls-36" d="M361.71,256.76c0-.21,0-.43,0-.64l.71.57A3.08,3.08,0,0,1,361.71,256.76Z" transform="translate(-169 -20)"/><path class="cls-37" d="M277.84,79.07c-3.31-3.2-3.29-3.18.79-5.84a9.94,9.94,0,0,0,1.55-1.62,9.53,9.53,0,0,1,4.77-.85c8.32,1.41,14.51-3.28,20.39-7.78,4.47-3.43,9.35-4.56,14.47-6.18C325.39,55,331,54,336.29,55.11c7.43,1.61,15.65,1.65,21.67,7.65a10.93,10.93,0,0,0,4.17,2.4,7.74,7.74,0,0,1,4.13,3.12C371.34,76,377.16,83.41,376,93.5c-.52,4.58,1.27,7.15,5.47,9.46,3.81,2.11,6.61,6.07,9.8,9.27.77.77.58,1.88.58,2.89,0,4.15,0,8.3,0,12.46a8.94,8.94,0,0,1-1.05,4.33c-1.61,3.08-2.06,6,.37,9.08,1.85,2.34.06,5.08-.13,7.64-1.19,2.85-2.95,5.2-6,6.31-4.2,1.54-5.73,5.34-7.57,8.88a4.46,4.46,0,0,0-.72.72l0,0c-2.14.79-2.39-1-2.52-2.18a20.22,20.22,0,0,0-8.14-14.63c-1.79-1.34-1.66-3.52-1.68-5.54-.05-5.22.11-10.45-.1-15.72-3-.25-5,6.36-8.1.79.93-1.13,2-2-.12-3.3-4.95-3.08-10.37-4.19-16-4.56-1.36-.09-2.28.84-3.22,1.7-1.23,1.11-2.54,2.1-4.36,1.34a1.4,1.4,0,0,1-.49-.9c1.2-1.74.15-2.72-1.18-3.68-2.44-1.78-4.89-3.56-6.33-6.34A72.61,72.61,0,0,1,315.87,97c-.2-.45-.52-.86-.71-1.32-2.4-5.89-2.41-5.92-8.61-3.9-3.1,1-6.34,1.44-9.35,2.83a4.82,4.82,0,0,1-6.12-1.54c-1.77-2.37-4.7-3.67-6.21-5.86C282.77,84.23,279.87,82.05,277.84,79.07Z" transform="translate(-169 -20)"/><path class="cls-38" d="M325.39,111.59c1.89,2.94,4.81,4.74,7.52,6.75,2.23,1.67,1.6,2.52-.7,3.08-.32.39-.72.7-1.06,1.06-.84.9-2,1.86-.8,3.15,1,1.07,2.34.76,3.42-.09,3.19-2.52,6.68-2.34,10.37-1.42,3.39.84,6.6,2.4,10.17,2.54a2.36,2.36,0,0,1,1.66.81c2.13,2.39,4.14,3.92,5.89-.37a1.43,1.43,0,0,1,2-.58,2.26,2.26,0,0,1,1.21,2.54,62,62,0,0,0-.3,10.89c.58,7.85,1.27,15.7,1.11,23.59,0,1.1.47,2.25-.4,3.24h-.75c-3.92-3.4-7.41-7.24-11-11a3,3,0,0,1-.1-4.37,35.49,35.49,0,0,1,3.82-3c1.49-1.11,2.17-2.35,1.3-4.14-.82-2.55-3-.1-4.22-1.15-.24-4.17-2.61-6.66-6.46-7.62-4.43-1.11-8.08.55-11.05,3.89-2.19.51-2.79-1.39-3.52-2.64a19.11,19.11,0,0,0-6.95-7.19c-1.89-1.1-3-3-4.43-4.56-8.42-8.74-17.68-16.67-25.39-26.08-1.12-1.37-3.87-.9-3.68-3.5,1.16-.83,2.63-.24,3.84-.84,4.29-2.85,9.46-2.7,14.17-4.11a3.14,3.14,0,0,1,4,2.53C316.75,100.22,320.86,106,325.39,111.59Z" transform="translate(-169 -20)"/><path class="cls-35" d="M365.45,166.78a18,18,0,0,1-.77-5.93c.41-7.77-.52-15.5-.69-23.26a21.38,21.38,0,0,1,.49-7.11c.39-1.22.68-3.15-1.19-3.37s-1.54,1.58-1.59,2.8c-.08,1.94-1.26,3-2.48,1.33-3.74-5-9.75-3.86-14.55-5.87-3.61-1.51-7.57-1.86-10.87,1.47a3,3,0,0,1-3.86.09c-1-.63-1.73-1.51-1.26-2.85.59-1.66,1.47-3,3.53-2.66v.74c0,.16-.08.32-.11.48-.18.69-.7,1.53.18,2s1.54-.51,2.31-.83a9.18,9.18,0,0,1,2.67-1c6.61-.89,12.56,1.73,18.68,3.46l.42.46c1.77,3.37,3.34,1.7,5.05-.11.8-.84,1.51-2.39,3-1.77s1,2.14,1,3.36q0,7.53,0,15.06c0,1.53-.06,3.12,1.42,4,5.35,3.3,7.59,8.37,8.32,14.35.14,1.17-.22,2.66,1.62,2.9-1.56,2-4.32,2.91-5,5.83-.31,1.26-1.6.68-2.43-.09C368.05,169.11,366.74,168,365.45,166.78Z" transform="translate(-169 -20)"/><path class="cls-39" d="M354.1,151.65c-1.28,1.91-.22,3.13,1.08,4.55,3.2,3.5,7.35,6.16,9.52,10.58.07,1.31-.13,2.47-1.52,3.05h0c-.21-.29-.52-.48-.76-.75a80,80,0,0,1-9.41-9.62c-2.61-3.39-5.77-6-10.48-5.54a2.29,2.29,0,0,1-2.06-.69c1-1.16,2.44-.93,3.67-1.38a5.31,5.31,0,0,1,2.21,0C349,153.79,351.5,151.05,354.1,151.65Z" transform="translate(-169 -20)"/><path class="cls-40" d="M366.21,179.68c-1.38,0-2.66-.24-2-2.09s.32-3.66.45-5.49C369,174,369.41,176,366.21,179.68Z" transform="translate(-169 -20)"/><path class="cls-35" d="M376.82,164.54l.72-.72Z" transform="translate(-169 -20)"/><path class="cls-20" d="M343.52,234.09c0-1.28.17-2.44,1.53-3-.25,1-.51,2-.77,3Z" transform="translate(-169 -20)"/><path class="cls-20" d="M345.06,231.08l.74-.76Z" transform="translate(-169 -20)"/><path class="cls-41" d="M267.39,82.21a4.58,4.58,0,0,0,2.91-2.37,2.2,2.2,0,0,1,3,.44,62.07,62.07,0,0,0,9.41,8c2,1.26,2.74,4.13,4.89,5.57a8.93,8.93,0,0,1,.8.57,5.38,5.38,0,0,1,.69.66,2.76,2.76,0,0,1,.48.81,2.52,2.52,0,0,1,.05.91,1.38,1.38,0,0,1-.48.73,2.45,2.45,0,0,0-.74.49h0a62.26,62.26,0,0,0-18.09,15l-.48.87c-.15.29-.32.57-.5.85l-.31.38-.66.77-.32.41a8.82,8.82,0,0,0-.64,1.56c-2.2,4.38-1.37,9.12-1.44,13.7-.05,3.76.07,7.54,0,11.31a8.17,8.17,0,0,1-3.13,6.58c-1,.8-2.1,1.59-3.19.06l-2.23-3.06c-2.08-4.35-2.46-8.57.77-12.63,1.49-1.87.16-3.5-1.11-4.6-4.95-4.31-5.25-9.28-2.75-14.94a14.57,14.57,0,0,0,1.6-7.3,3.69,3.69,0,0,1,1-3.17C262.1,99.45,263,93.13,265,87.3A55.59,55.59,0,0,1,267.39,82.21Z" transform="translate(-169 -20)"/><path class="cls-42" d="M288.41,95a4.37,4.37,0,0,1-3.55-2.52c-2.68-4.69-7.84-6.77-11-10.91a3.56,3.56,0,0,0-3.54-1.68,4.35,4.35,0,0,1,0-.72c2.13-.5,3.47.71,4.79,2.12a23.91,23.91,0,0,0,5.3,4.63c.67.38,1.27.93,1.95.19s-.1-1.28-.52-1.84c-1.3-1.75-3.67-2.65-4-5.15,2.27,2.21,4.75,4.05,6.8,6.66,2.25,2.87,5.8,4.88,8.3,7.87a3.15,3.15,0,0,0,3.89.33c3.38-2.2,7.39-2.17,11-3.5,5.29-1.94,5.94-1.05,8,4.1s4.45,10.26,8.23,14.5c.67.75,1.44,1.42,1.37,2.56-3.8-2.87-6.11-6.89-8-11.08-1.06-2.31-2.86-4.26-2.85-7.18,0-1.76-2.08-2.61-3.81-2-4.61,1.5-9.74,1-14,3.7a6.33,6.33,0,0,1-7.83-2.66c-.75-1.07-1.45-2.4-3.14-2.47C286,91.92,289,92.52,288.41,95Z" transform="translate(-169 -20)"/><path class="cls-43" d="M259.7,149.44c3.11-.23,5.21-2.61,5.29-6.27.08-4.28,0-8.57,0-12.85,0-4.86-.52-9.79,2.3-14.18a7.29,7.29,0,0,1,.73-.74l0,0c.23-.26.48-.51.73-.75h0q.38-.37.72-.78h0a.47.47,0,0,1,.77,0c-4.16,6-3.21,12.72-3,19.37.13,5.72.15,11.44-1.13,17.07a15.14,15.14,0,0,0,.1,8.18c.75,2.26-.6,4.18-.45,6.28.26,3.74.54,7.48.73,11.22,0,1.16.43,2.66-1.48,2.89-1.22-1.6-2.32-3.34-4.49-3.81l-.76-.74c-.25-.25-.49-.51-.73-.76.29-7-1.12-14,1.26-20.86C260.69,151.51,259.67,150.57,259.7,149.44Z" transform="translate(-169 -20)"/><path class="cls-34" d="M256.69,398.2c-2.27-.09-4-1.51-6.07-2.22.69-.87.82-1.78-.59-1.62-6.8.76-13.75-.77-20.43,1.27-1,.31-3.58,0-2.33,2.63-4,2.29-8.6,3.75-11.49,7.78-.32.45-1.38.37-2.09.53a51.83,51.83,0,0,1,.78-12.8l0,0a3.71,3.71,0,0,1,.67-.81c1.72-5.87,1.79-11.85,1.24-17.87-.11-1.24-.38-2.48-.39-3.72,0-18.62-.27-37.25.08-55.86.12-6.13.19-12.22,0-18.35-.17-6.74,3.72-12.43,7.75-17.46,5.07-6.33,12-9.83,20.19-11.05,2.66-.4,5.46-1.17,7.19-3.67,1.11-1.59,2.9-1.33,4.44-1.61,4.1-.75,6.73-4.09,10.2-6a11.94,11.94,0,0,1,8.79-1.42c1.26-.49,2.16.34,3.09.92a63.39,63.39,0,0,0,23.31,9c4.26.74,5.8,2.32,5.8,6.55,0,9.69,2.14,19.14,2.92,28.74.25,3.13-.29,6.29.48,9.37,0,5.54,1.84,10.91,1.61,16.49a7.26,7.26,0,0,1-1.6,4.86c-4.93,5.62-7.53,12.77-12.17,18.6-1.41,1.76-.58,3.51.45,5.23,3.12,5.16,6.62,10.08,9.58,15.33,1.19,2.12,2.89,1.4,4.52,1.51,1.41,3.61,2.65,7.34,2.51,11.21-.12,3.23.5,5.91,3.16,8-3.67-3.91-3.44-8.41-2.21-13.07a1.3,1.3,0,0,1,1-.35c1.35,6.67,2.8,13.26,9.54,16.88a8.34,8.34,0,0,1,3.6,3.21,1.93,1.93,0,0,1-.1,1.09,2.7,2.7,0,0,1-2.5,1c-.5-.51-1-1-1.52-1.51-1.11-2.1-3.12-2.13-5.14-2.45-4.66-.73-9.21.51-13.83.49q-22.41-.06-44.84,0C260.44,397.13,258.26,396.3,256.69,398.2Z" transform="translate(-169 -20)"/><path class="cls-44" d="M309.55,311.29c.49-9.58-1.89-18.91-2.54-28.39-.21-3.13-.36-6.26-.55-9.38-.27-4.63-1.44-5.93-5.94-6.68A58.51,58.51,0,0,1,274.65,256l.12-.86q2.3-2.17,4.58-4.36c.87.09,1.95-.13,2.58.31,6,4.22,13,6.59,19.3,10.23a11.1,11.1,0,0,1,5.91,9.34c.28,12.42,2.56,24.64,3.59,37,.8,9.67,2.06,19.36,2.61,29.1-3-1-2.11-3.73-1.94-5.49C312,324.41,310.44,317.9,309.55,311.29Z" transform="translate(-169 -20)"/><path class="cls-26" d="M215.12,392.93l-.67.81c0-.27,0-.53,0-.8Z" transform="translate(-169 -20)"/><path class="cls-45" d="M330,398.93c-4.23-3.72-9.39-6.48-11.42-12.36-.92-2.64-1.05-5.33-1.55-8-1.31-4.68-1.6-9.53-2.34-14.3a2.42,2.42,0,0,1,1-2.31c2,2.82,2.1,6.08,2.13,9.3.05,5.37-.14,10.71,2.24,15.78a14.43,14.43,0,0,0,2.45,4.14c3.59,3.73,4.05,3.66,7.37-.09,7.4-8.35,20.74-10,29.8-2.94a36.18,36.18,0,0,1,7.13,7.61c.61.86,1.12,1.66,2.29,1.66,0,2.28-1.92,3.89-2.08,6.11-1.24,2.49-3.92,3.68-5.4,6a15.27,15.27,0,0,0-3.58.75,12.52,12.52,0,0,1-12.29-.52,4,4,0,0,0-1.45-.18C338.71,407.14,334.23,403.18,330,398.93Z" transform="translate(-169 -20)"/><path class="cls-46" d="M315.71,362c-.48,5.61,2.42,10.95,1.3,16.61h-.64l-.39-.35c-.82-1.52-.36-3.2-.61-4.79s-.66-2.61-2.34-1.14l-.45.22c-1.8,3-3.48,2.11-5-.24-3.65-5.81-7.18-11.7-10.89-17.47a3.69,3.69,0,0,1,.41-4.83c4.15-4.74,5.87-11.18,10.14-15.59,5.36-5.55,3.65-11.36,2.57-17.47a42,42,0,0,1-.3-5.63,50.23,50.23,0,0,1,2.29,14.18c.09,3.8.14,7.6,1.5,11.23C314.23,345.11,314.34,353.6,315.71,362Z" transform="translate(-169 -20)"/><path class="cls-47" d="M367,403.54c-.55-2.46,1-4.19,2.08-6.11,1.34-7.82,2.1-15.72.06-23.45-1.88-7.16-4.15-14.23-6.61-21.25-1.38-3.93-2.69-8-3.75-12a118.6,118.6,0,0,0-4.23-13,86.4,86.4,0,0,1-3.46-12.51c-.85-3.89-3.6-7.26-3.06-11.5,1.49,2.94,1.8,6.36,3.78,9.08a3.68,3.68,0,0,1,1.7,2.37c2.59,8.15,5.34,16.26,7.57,24.52-.25,2.45,1.46,4.32,2,6.55A90.07,90.07,0,0,0,368.56,363c2.84,8,5.49,16.1,4.74,24.85-.27,3.16-.68,6.2-2.6,8.83C369.3,398.86,368.8,401.53,367,403.54Z" transform="translate(-169 -20)"/><path class="cls-35" d="M338.33,275c1.28,1.51,2.59,3,2.17,5.22C339.72,278.48,338.05,277.14,338.33,275Z" transform="translate(-169 -20)"/><path class="cls-35" d="M341.29,284.08a3.55,3.55,0,0,1,1.44,2.92C341.41,286.44,341.2,285.34,341.29,284.08Z" transform="translate(-169 -20)"/><path class="cls-35" d="M343.6,291.64a4.22,4.22,0,0,1,1.46,2.91C343.67,294,343.47,292.92,343.6,291.64Z" transform="translate(-169 -20)"/><path class="cls-35" d="M340.56,281c1,.82.68,1.92.68,3C340.21,283.19,340.6,282.06,340.56,281Z" transform="translate(-169 -20)"/><path class="cls-35" d="M337.52,270.5c.8.53.7,1.31.57,2.09C337.38,272,337.53,271.24,337.52,270.5Z" transform="translate(-169 -20)"/><path class="cls-35" d="M342.86,287.81a2.08,2.08,0,0,1,.57,2.19C342.66,289.42,342.81,288.6,342.86,287.81Z" transform="translate(-169 -20)"/><path class="cls-35" d="M345.89,298.4a2.17,2.17,0,0,1,.64,2.2C345.67,300.06,345.84,299.21,345.89,298.4Z" transform="translate(-169 -20)"/><path class="cls-35" d="M345.11,294.64a1.2,1.2,0,0,1,.57,1.42A1.39,1.39,0,0,1,345.11,294.64Z" transform="translate(-169 -20)"/><path class="cls-48" d="M344.3,152.49c-1.1,1.17-2.55.5-3.82.73l-2.22-.06-.76-.73h0c-.39-.49-1.11-.32-1.52-.76l-.75-.05c-.25-.24-.51-.47-.79-.69-.24,0-.48,0-.71,0a9,9,0,0,0-.76-.75h0q-.36-.39-.75-.75h0a6.09,6.09,0,0,0-.78-.74c-3-2.27-1.11-4.67.29-6.48,1.58-2.06,1.13-3.23-.48-4.76-5.26-5-10.66-10-15.65-15.19-6.24-6.53-12.77-12.78-18.89-19.41-1.74-1.88-4.84-2.47-5.27-5.57-.25-1.26.27-1.74,1.51-1.49,3.68.46,5,3.76,7.22,6,6.33,6.42,12.65,12.85,19.13,19.12,3.28,3.17,6,6.92,10,9.39,3.49,2.16,4.69,6.36,7.44,9.22.09.15.18.3.26.46a1.13,1.13,0,0,1-.56.83c-.4.29.09-.12-.33.17-2,1.39-4.26,3.24-3.3,5.61a5.4,5.4,0,0,0,6.57,3.05C341.44,149.81,343.53,150,344.3,152.49Z" transform="translate(-169 -20)"/><path class="cls-49" d="M319.36,169.81c-1.93,3.06-4.25,3-6.95,1-5.72-4.3-6.71-6.69-2.83-12.42,2.12-3.13,2.48-7.12,4.75-10.19.45-.61.9-1.42,1.7-1.34s.92,1,1.19,1.74c1.57,4,3.18,8.06,4.79,12.08,2,5,1.84,5.62-2.64,9.12-1.24-1.74.92-2.6,1.07-4.41-2,.26-2.86,2.48-4.7,2.54-2.07.06-2.95-2.2-5.74-2.82,1.4,3,3.31,4.08,5.8,4.3C317,169.51,318.28,168.75,319.36,169.81Z" transform="translate(-169 -20)"/><path class="cls-50" d="M341.26,181.42c-.92,2-2.52,2.44-4.24,1.39-3.94-2.4-8.2-2.68-12.62-2.43-8.07.46-14.74,4-20.65,9.26-.66.59-1.26,1.23-1.89,1.84-.87.86-1.84,1.47-2.93.44a2.21,2.21,0,0,1,.23-3.37c2.6-2.31,5.35-4.46,8.16-6.51,7.4-5.38,15.87-6,24.61-5.42,3.39.22,5.48,3.31,8.74,3.76C340.88,180.41,341,181,341.26,181.42Z" transform="translate(-169 -20)"/><path class="cls-51" d="M299,121.43c2.12-.32,2.81,1,3.33,2.73a2.18,2.18,0,0,1-.81,2.63c-1.56,1.25-2.82.15-4.1-.59-6.29-3.62-16.78-2.19-22.44,2.67-1.24,1.07-2.66,4.14-4.71,2.31s.5-3.61,1.54-5.16c3.46-5.16,8.67-7.19,14.57-7.58,4.46-.3,9-.62,12.61,3-1.81,1.56-3.53.45-5.28-.17a18.46,18.46,0,0,0-19.3,4.84c8.09-5.32,16.37-4.16,24.71-2.13C299.5,123.06,298.43,122.29,299,121.43Z" transform="translate(-169 -20)"/><path class="cls-52" d="M280.07,149.51c-1.16,2-3,1.88-4.44.83-2.31-1.64-4.61-3.56-3-7a6.36,6.36,0,0,1,.56-.7l.12-.11c.77-.39,1.33-1.13,2.1-1.47,1-.44,2.17-.9,3.07,0s.06,1.83-.51,2.59a2.63,2.63,0,0,0-.16,3.08,6.3,6.3,0,0,0,.94,1,8,8,0,0,1,.72.55,2.52,2.52,0,0,1,.53.74Z" transform="translate(-169 -20)"/><path class="cls-53" d="M277.1,140.08c-.77-.86-2.93-.28-2.61-2.05.2-1.15,1.81-1.08,2.83-1.37a8.15,8.15,0,0,0,2.7-1.12,11.44,11.44,0,0,1,15.32,2.32,4.61,4.61,0,0,1,.7,2.47l-.44.18c-.83-.18-1.23-.87-1.75-1.43-.22-.2-.42-.41-.64-.62l-.74-.49c-.27-.13-.54-.28-.81-.43q-.65-.31-1.29-.66c-3.59-2.27-6.74-.61-10.12.81-1.86.78,0,2.39-1.24,3C278.32,140.65,277.52,141,277.1,140.08Z" transform="translate(-169 -20)"/><path class="cls-54" d="M292.94,95.76a2.25,2.25,0,0,0-1.51,1.49l-2.22.74c-.2-.16-.27-.33-.21-.5s.11-.26.17-.26h0a1,1,0,0,0,0-1.52h0c-.26-.25-.48-.53-.76-.75h0c-1.17-1.3-2.33-2.6-3.5-3.89-.6-.67-1.34-1.45-.74-2.3.8-1.12,1.86-.35,2.65.16a6.3,6.3,0,0,1,2.16,2c1.74,3,4.17,4.54,7.7,4.06C295.63,96.19,294.18,95.47,292.94,95.76Z" transform="translate(-169 -20)"/><path class="cls-42" d="M270.28,113.86l-.77,0c4.89-7,10.75-12.79,18.91-15.84-2.33,3.23-6.26,4.34-9.15,6.94A111.41,111.41,0,0,0,270.28,113.86Z" transform="translate(-169 -20)"/><path class="cls-55" d="M277.1,140.08l2,.08a2.3,2.3,0,0,1,2-.43,2.75,2.75,0,0,1,.93.48c1.48,1.7.55,3-.82,4.07-1,.78-2.12,1.34-2.57,2.61a3.4,3.4,0,0,1-.52.86l-.44.23c-2.62-2.25-1.31-4.21.6-6.17-2-1.83-3.27,1-4.94.72C274,140.84,275.49,140.35,277.1,140.08Z" transform="translate(-169 -20)"/><path class="cls-56" d="M296,140.33c2.61-.7,3,1.36,3.71,3,1.78,3.61,1,5.26-3.4,7.09-1.08-1-.13-1.8.35-2.58.66-1,1.48-2,1-3.49-1.1.65-1.45,2.41-3.13,2.06-.85-.76-.45-1.57-.11-2.38a6.06,6.06,0,0,0,.6-1.92,2.91,2.91,0,0,1,.84-1.82Z" transform="translate(-169 -20)"/><path class="cls-57" d="M286.08,151.72a13.17,13.17,0,0,1-6-2.21l-.1-.08c-.07-.16-.13-.33-.2-.5a1.34,1.34,0,0,1,.75-.69c3.65,1,7.26,1.53,10.67-.79a1.87,1.87,0,0,1,1,.28,1.37,1.37,0,0,1,.15,1,4.14,4.14,0,0,1-.87,1.38C289.89,151.4,288.35,152.8,286.08,151.72Z" transform="translate(-169 -20)"/><path class="cls-58" d="M286.08,151.72a12.08,12.08,0,0,0,5.38-2.3c.1.13.19.27.29.41.29,1.42-.79,1.83-1.81,2.38-.4.1.28.51,0,.09-.06-.1,0-.15.28-.23a2.76,2.76,0,0,1,2.43,0l.33.38C290.57,153.27,288.12,154.39,286.08,151.72Z" transform="translate(-169 -20)"/><path class="cls-58" d="M296,150.16c3.27-1.16,5.26-3,3.79-6.82,2.77,3.31,1.26,6.37-3.75,7.62l-.25-.22v-.33Z" transform="translate(-169 -20)"/><path class="cls-58" d="M296,151c-.59.76-1.44.71-2.26.76l-.15-.53c.65-1,1.45-.95,2.33-.32Z" transform="translate(-169 -20)"/><path class="cls-39" d="M336,151.68a1.52,1.52,0,0,1,1.52.76A1.65,1.65,0,0,1,336,151.68Z" transform="translate(-169 -20)"/><path class="cls-39" d="M331.43,148.66l.78.74Z" transform="translate(-169 -20)"/><path class="cls-39" d="M332.22,149.41l.75.75Z" transform="translate(-169 -20)"/><path class="cls-39" d="M333,150.16l.76.75Z" transform="translate(-169 -20)"/><path class="cls-39" d="M334.44,150.94l.79.69Z" transform="translate(-169 -20)"/><path class="cls-58" d="M293.74,151.72c-.26.24-.51.49-.76.74l-.08-.09c-.09-.61.15-.87.77-.73Z" transform="translate(-169 -20)"/><path class="cls-39" d="M337.5,152.43l.76.73Z" transform="translate(-169 -20)"/><path class="cls-22" d="M362.42,169.07l.76.75Z" transform="translate(-169 -20)"/><path class="cls-55" d="M273.23,142.64l-.56.7Z" transform="translate(-169 -20)"/><path class="cls-42" d="M289.17,97.23l0,.76h-.78Z" transform="translate(-169 -20)"/><path class="cls-59" d="M256.69,398.2c-.73-3,1.52-2.2,2.9-2.21,7.54-.06,15.07,0,22.61,0h26c2.25,0,4.66-1,6.55-.8,3.67.33,7.81-1,11.11,1.8.73.64,1.37,1.22.28,2.08a16.68,16.68,0,0,0-5.17-.81c-11.68.06-23.38-.33-35,.19-7.77.35-15.54.39-23.3.57A18,18,0,0,1,256.69,398.2Z" transform="translate(-169 -20)"/><path class="cls-60" d="M227.27,398.26c-.9-.25-2.31.49-2.62-.76s1.19-1.25,2-1.73c3.38-2,7.11-2.06,10.86-2.1,4.46-.06,8.91-.27,13.36-.2.86,0,2.72-.25,2.55,1.44s-1.8.82-2.79,1.07l-1.49,0c-7.15-.22-14.47-2-21.14,2.26C227.75,398.24,227.51,398.25,227.27,398.26Z" transform="translate(-169 -20)"/><path class="cls-59" d="M327.65,400.54c.54-.91,1.43-.78,2.28-.79l.36.05a2.14,2.14,0,0,1,.6.39l.26.25a5.9,5.9,0,0,1,.51.49s.25.26.26.25c.18.16.34.33.51.5l.25.24c.18.16.35.33.51.5,0,0,.25.26.26.25l.53.47s.29.22.3.21l.65.35a4.3,4.3,0,0,1,.65.39,5.81,5.81,0,0,1,.6.49l.28.27.59.52c.1.07.2.16.31.23l.68.43a10,10,0,0,1,1.35,1c.22.17.43.36.64.54l.34.25c.25.14.48.3.72.44.52.26,1,.59,1.48.86a10.07,10.07,0,0,1,1.1.67,4.93,4.93,0,0,1,.61.6h0c.63,2.56-.93,1.86-2.25,1.52C335.88,409.83,331.7,405.26,327.65,400.54Z" transform="translate(-169 -20)"/><path class="cls-61" d="M342.79,409.67l-2.24-.87c-.25-.26-.53-.48-.76-.75h0l-.77-.72-1.48-.8a10.59,10.59,0,0,1-.76-.74h0c-.26-.24-.51-.49-.76-.74h0a8.63,8.63,0,0,0-.77-.71l-.72-.06c-.26-.25-.53-.48-.77-.75h0l-.76-.75h0c-.25-.25-.5-.51-.76-.75h0a10.59,10.59,0,0,0-.76-.74h0c-.24-.27-.49-.51-.75-.75h0a8.61,8.61,0,0,0-.74-.74h0c0-.28,0-.55.05-.82,5.15,3,9.5,7.16,14.34,10.62,0,.27,0,.53,0,.8l-.74,0A3.36,3.36,0,0,0,342.79,409.67Z" transform="translate(-169 -20)"/><path class="cls-61" d="M342,411.87c1.05-.06,2.21.05,2.25-1.52,3.41,2.46,7.35,2.53,11.32,2.78C350.92,414.58,346.38,414.55,342,411.87Z" transform="translate(-169 -20)"/><path class="cls-34" d="M228,398.21c2.19-2.6,5-3.4,8.3-3,4.26.48,8.64-.86,12.84.76C242,396.1,234.79,395.13,228,398.21Z" transform="translate(-169 -20)"/><path class="cls-62" d="M352.56,259.78c1.51.31,2.58-.56,3.64-1.39a6.72,6.72,0,0,1,5.45-1.56c.37.89,1.18,2.17-.62,2.14-2.14,0-3.19,1.18-4.67,2.45-3.59,3.07-7.6,5.68-12.58,6-1.94.11-2.34.85-1.59,2.68,2.15,5.24,5,10.24,5.29,16.14,0,.72.9,1.47,1.49,2.09,1,1,2.25,2.29,2,3.53-1.58,6.95,3.06,12.5,4.43,18.74a69.7,69.7,0,0,0,3.41,10.61,13.78,13.78,0,0,1,1.41,6.15c-.05.85-.1,2.07.39,2.53,4,3.75,2.81,9.43,5.07,13.6s.86,9.32,4.74,12.62c.27.23.59.73.5,1-1.27,3.89,2.59,6.69,2.17,10.42a3.91,3.91,0,0,0,.8,2.82c4.19,4.35,3.1,9.92,3.69,15.1,0,.25,0,.49,0,.74-.91,1.13.13,2.65-.74,3.8,0,.24,0,.49,0,.74-.25.24-.49.5-.73.76h0c-.48.4-.31,1.12-.75,1.53,0,.5,0,1,0,1.5-.44.43-.28,1.11-.67,1.56l-.06,1.46a8.86,8.86,0,0,0-.73.77h0a5.53,5.53,0,0,0-.75.78c-.78,4.6-4,7.19-7.56,9.62,2.05-3.37,4.51-6.46,5.31-10.42,1.07-4.59,2.27-9.07,2.4-13.91.17-6.47-2.06-12.23-4-18.06-.93-2.81-.92-6-2.76-8.47-.21-.32-.42-.64-.62-1-.5-1-.15-2.18-.7-3.16a3.81,3.81,0,0,1-.38-1.48c-.07-1.85-1.3-3.31-1.68-5.05a5,5,0,0,1-.27-.91c-.4-.87-.19-1.87-.63-2.73a5.64,5.64,0,0,1-.39-.87c-.32-.94-.74-1.83-1.11-2.76a4.88,4.88,0,0,1-.09-1.08c-2.58-8.4-4.86-16.88-7.92-25.13-.92-2.49-.12-5.54-2.3-7.69h0c-.87-1.13.21-2.67-.77-3.79v0c-.77-.88.13-2.19-.77-3l0,0a4,4,0,0,0-.77-.77h0l-.71-.78-.07-2.2c-.46-2.15-.2-4.56-2.26-6.11h0c-.86-1.14.21-2.68-.76-3.79h0c-.26-2.44-1.68-4.49-2.26-6.82h0c-.12-3.33-2.25-6-3-9.1a2.74,2.74,0,0,1,0-.7,3.28,3.28,0,0,1,0-3.09h0c.26-.23.52-.47.77-.72a2.72,2.72,0,0,1,.7-.06c1.16-.83,2.69.22,3.83-.75h0c2.58-1.87,6.08-2.06,8.31-4.56Z" transform="translate(-169 -20)"/><path class="cls-34" d="M366.2,356.64c1.05.52,2.28,1.34,2.12,2.42-.62,4.28,2,7.65,3.08,11.4,1.48,5.28,2.66,10.41,2.45,16a27.66,27.66,0,0,1-3.08,11.81c0-.52,0-1-.07-1.56-.1-3.05,1.52-5.74,1.7-8.8.43-7.4-1.21-14.34-3.72-21.18a40.11,40.11,0,0,1-1-4C367.87,360.51,365.31,359,366.2,356.64Z" transform="translate(-169 -20)"/><path class="cls-34" d="M376.79,389.93c.17-1.29-.51-2.73.74-3.8C377.37,387.41,378,388.84,376.79,389.93Z" transform="translate(-169 -20)"/><path class="cls-34" d="M375.28,393a1.53,1.53,0,0,1,.75-1.53A1.63,1.63,0,0,1,375.28,393Z" transform="translate(-169 -20)"/><path class="cls-34" d="M374.56,396a1.55,1.55,0,0,1,.67-1.56A1.68,1.68,0,0,1,374.56,396Z" transform="translate(-169 -20)"/><path class="cls-34" d="M376,391.43l.73-.76Z" transform="translate(-169 -20)"/><path class="cls-34" d="M373.77,398.24l.73-.77Z" transform="translate(-169 -20)"/><path class="cls-34" d="M373,399l.75-.78Z" transform="translate(-169 -20)"/><path class="cls-34" d="M350.33,306a2.91,2.91,0,0,1,1.95,2.59c-.22,4.15,2.46,7.39,3.24,11.27,1.09,5.47,3.18,10.75,4.94,16.08a13.57,13.57,0,0,1,.46,4.09.46.46,0,0,1-.76,0l-8.31-27.22C352.43,310.26,350.79,308.24,350.33,306Z" transform="translate(-169 -20)"/><path class="cls-34" d="M339,269.65c1.74,2.79,3.41,5.6,3,9.1C341.21,275.65,338.84,273.07,339,269.65Z" transform="translate(-169 -20)"/><path class="cls-34" d="M352.59,259.78c-1.84,3.21-5.37,3.35-8.31,4.56C346.5,261.82,349.9,261.45,352.59,259.78Z" transform="translate(-169 -20)"/><path class="cls-34" d="M342,278.74c1.4,2.05,2.69,4.15,2.26,6.82C343.18,283.4,341.83,281.32,342,278.74Z" transform="translate(-169 -20)"/><path class="cls-34" d="M345,289.33c2.87,1.25,2.28,3.79,2.26,6.11Q346.17,292.38,345,289.33Z" transform="translate(-169 -20)"/><path class="cls-34" d="M344.28,285.55c1.3,1.05.6,2.5.76,3.79C343.89,288.25,344.41,286.83,344.28,285.55Z" transform="translate(-169 -20)"/><path class="cls-34" d="M344.3,264.33c-1.07,1.32-2.53.61-3.83.75C341.58,264,343,264.49,344.3,264.33Z" transform="translate(-169 -20)"/><path class="cls-34" d="M349.56,302.18c1.31,1.05.6,2.51.77,3.79C349.18,304.89,349.71,303.47,349.56,302.18Z" transform="translate(-169 -20)"/><path class="cls-34" d="M339,265.86c0,1,0,2.06,0,3.09A2,2,0,0,1,339,265.86Z" transform="translate(-169 -20)"/><path class="cls-34" d="M348.8,299.16c1.16.78.69,2,.77,3C348.55,301.38,348.9,300.21,348.8,299.16Z" transform="translate(-169 -20)"/><path class="cls-34" d="M339.77,265.14l-.77.72Z" transform="translate(-169 -20)"/><path class="cls-34" d="M347.36,297.64l.71.78Z" transform="translate(-169 -20)"/><path class="cls-34" d="M348.05,298.41l.77.77Z" transform="translate(-169 -20)"/><path class="cls-63" d="M336.76,123.69l-2.26.78c-1,.37-2.05,1.91-3.14.48-.73-1-.23-2.09.84-2.79h0c1.18.13,2.55,0,3.17-.9,4.08-5.52,9.22-2,13.72-1.35a15.25,15.25,0,0,1,8.35,3.91c.73.71,2.6.54,2.13,2.12s-2,.88-3.22.8h0c-4.05-.91-7.91-2.5-12-3.23C341.8,123.05,339.26,122.59,336.76,123.69Z" transform="translate(-169 -20)"/><path class="cls-64" d="M369.83,99.12c.29,2.3-.11,3.23-1.36,3.75a1.91,1.91,0,0,1-2.52-1.08,75.77,75.77,0,0,1-3.44-7.36,1.8,1.8,0,0,1,1-2.21,1.72,1.72,0,0,1,2.08.34A20.54,20.54,0,0,1,369.83,99.12Z" transform="translate(-169 -20)"/><path class="cls-65" d="M377.56,123.56a2.26,2.26,0,0,1-1.86,2.82c-1.69.26-2.32-1.07-2.68-2.48-.49-1.92-1-3.84-1.43-5.78a2,2,0,0,1,1.13-2.5,1.93,1.93,0,0,1,2.54,1C376.32,118.69,377.58,120.74,377.56,123.56Z" transform="translate(-169 -20)"/><path class="cls-66" d="M357.21,78.42c-.17,1.17.21,2.21-.83,2.65s-1.54-.31-2.14-1c-1.36-1.61-2.79-3.17-4.22-4.73-.79-.86-1.6-1.74-.75-2.94,1-1.37,2.22-.78,3.32-.12A10.66,10.66,0,0,1,357.21,78.42Z" transform="translate(-169 -20)"/><path class="cls-67" d="M344.81,94.86c-2.29-.1-6.67-5.37-6.49-7.4s1.49-1.77,2.71-1.27c3.07,1.26,4.1,4.2,5.21,6.93C346.72,94.29,345.53,94.76,344.81,94.86Z" transform="translate(-169 -20)"/><path class="cls-68" d="M360.14,112.79c.05,1.45,0,2.54-1.08,3s-1.59-.46-2.15-1.11c-1.22-1.42-2.4-2.87-3.59-4.31A1.84,1.84,0,0,1,353,108c.63-.94,1.43-.62,2.33-.38A6.56,6.56,0,0,1,360.14,112.79Z" transform="translate(-169 -20)"/><path class="cls-69" d="M341,111.5c-1.72,0-6.07-5.79-5.59-7.36.39-1.29,1.57-2.2,2.5-1.25,1.87,1.92,4,3.76,4.61,6.63C342.75,110.86,342,111.31,341,111.5Z" transform="translate(-169 -20)"/><path class="cls-70" d="M331.09,71.52a6.74,6.74,0,0,1-6-3.27,1.07,1.07,0,0,1,.51-1.59c2.2-1.1,4.11-.33,5.89,1,.86.67,2.16,1.07,1.67,2.56A1.84,1.84,0,0,1,331.09,71.52Z" transform="translate(-169 -20)"/><path class="cls-71" d="M325.38,89.08c-.09.94-.6,2.27-1.69,1.73-2.07-1-4.47-2-5-4.71-.25-1.3.67-1.72,1.86-1.73C322.46,84.34,325.42,87.11,325.38,89.08Z" transform="translate(-169 -20)"/><path class="cls-72" d="M369.94,140.05c.34-1.46-.74-3.81,1.72-3.89,1.39,0,2.28,2,1.87,3.21-.49,1.5.29,4.24-2,4.3C369.36,143.73,370.24,141.39,369.94,140.05Z" transform="translate(-169 -20)"/><path class="cls-73" d="M336.7,139.49c1-4,7.66-6.53,12.31-4.74,4.8,1.84,5.85,3.33,6,8.46a1.55,1.55,0,0,1,.26,1c-.1.7-.27,1.38-.43,2.06-1.11,2.47-2.62,4.51-5.48,5.09-2.91-.64-6,0-8.81-1.45-1.53-.82-3.48-1.33-3.4-3.51s2.12-2.2,3.49-2.94a2.67,2.67,0,0,1,1.07-.29c1.73,1.21,2,4.13,4.75,4.13,2.59.88,4.42-.38,5.57-2.42,1.06-1.86,1.53-4-.75-5.55-3.33-2.9-7-3-10.82-1.24-1.25,0-1.76,1-2.4,1.81a1.12,1.12,0,0,1-1.3-.3Z" transform="translate(-169 -20)"/><path class="cls-74" d="M349.66,150.74c1.85-1.44,3.79-2.81,4.67-5.14l.51-.12c.12.13.24.25.37.37.54,1,0,1.9-.38,3a7.29,7.29,0,0,0,4-4.13,1.78,1.78,0,0,1,.73-.71c1.05,3.76.39,4.68-5.42,7.64-2.44.84-4.67,3.78-7.52.79C346.63,150.11,348.21,150.53,349.66,150.74Z" transform="translate(-169 -20)"/><path class="cls-74" d="M354.77,144.26c.08-.35.16-.7.25-1,1.89-1.94,3.48-2.2,4.5.8l-.26.21c-1.56.08-2.77,1.19-4.25,1.49l-.26-.21A1,1,0,0,1,354.77,144.26Z" transform="translate(-169 -20)"/><path class="cls-37" d="M336.76,123.69c4.36-3.31,8.53.28,12.77.5,2.32.13,4.56,1.65,6.84,2.54a12.13,12.13,0,0,1-6.17-1C345.84,123.88,341.35,123.57,336.76,123.69Z" transform="translate(-169 -20)"/><path class="cls-37" d="M332.2,122.16c-.26.8-1.1,1.62-.44,2.42.83,1,1.8-.4,2.74-.11-.93,1.44-2.29,2.28-3.5.76A1.81,1.81,0,0,1,332.2,122.16Z" transform="translate(-169 -20)"/><path class="cls-75" d="M349.66,150.74c-1.19.27-2.56.22-3.08,1.7l-2.28.05a11.76,11.76,0,0,0-5.09-2.35c-4.54-2.19-4.85-3.92-1.63-8,.45-.59-1.25-.75-.88-1.69,0-.28.05-.56.07-.84l1.44.05a1.94,1.94,0,0,1,1.21-.53c2.65.52,4.4,1.54,2.5,4.57a5.28,5.28,0,0,0-.85.7c-.87,1.13-4.21,0-3.05,2.55a5.2,5.2,0,0,0,5.52,3.11A11.86,11.86,0,0,1,349.66,150.74Z" transform="translate(-169 -20)"/><path class="cls-76" d="M262,115.28c.14,2.59-1.58,4-3.46,5-1.14.55-1.66-1.08-1.66-1.95a5.86,5.86,0,0,1,3.68-5.27C262,112.36,261.86,114.27,262,115.28Z" transform="translate(-169 -20)"/><path class="cls-77" d="M269.63,90.32c-.67-.07-1.7-.49-.87-2a10.81,10.81,0,0,1,2.18-3c.91-.8,2.29-1.55,3.37-.49s-.13,2-.86,2.79C272.48,88.62,272.23,90.5,269.63,90.32Z" transform="translate(-169 -20)"/><path class="cls-78" d="M271.66,99.47c-1,1.83-1.92,3.93-4.43,4.4-.89.16-1.74-.56-1.27-1.21,1.2-1.63.76-4.72,3.92-4.67C270.78,98,271.66,98.09,271.66,99.47Z" transform="translate(-169 -20)"/><path class="cls-42" d="M289.17,95.7c.79.5.79,1,0,1.52C289.17,96.71,289.17,96.21,289.17,95.7Z" transform="translate(-169 -20)"/><path class="cls-42" d="M268,115.4l-.73.74Z" transform="translate(-169 -20)"/><path class="cls-42" d="M269.51,113.84l-.72.78Z" transform="translate(-169 -20)"/><path class="cls-42" d="M268.78,114.63l-.73.75Z" transform="translate(-169 -20)"/><path class="cls-42" d="M288.41,95l.76.75Z" transform="translate(-169 -20)"/><path class="cls-79" d="M285.49,352.65a5.67,5.67,0,0,1-.46,2.17c-4.25,5.85-7.2,12.56-11.77,18.22-1.7,2.1-2.35,2.19-3.89-.34-3.22-5.28-5.87-10.9-9.64-15.88a7.19,7.19,0,0,1-.26-7.55c3.24-6,6.9-11.76,10.53-17.52,1.62-2.58,2.84-.36,3.6.79,3.24,4.87,6.35,9.83,9.4,14.82C284,349,286,350.22,285.49,352.65Z" transform="translate(-169 -20)"/><path class="cls-59" d="M316.37,378.58a17.86,17.86,0,0,1,0,2.64c-.8,4.7.91,8.53,4.39,11.86-2.28.41-6.68-2.73-6.42-5,.63-5.41-1.76-10.34-1.72-15.59h0c2-.83,2.63.46,3,2.07.27,1.32.19,2.71.79,4Z" transform="translate(-169 -20)"/><path class="cls-34" d="M316.34,378.54c-2.1-1.48-.16-5.48-3.75-6,0-1.21.11-2.33,1.74-2.2a2,2,0,0,1,2,2.26C316.36,374.56,316.34,376.55,316.34,378.54Z" transform="translate(-169 -20)"/><path class="cls-80" d="M366.2,356.64c.3,2.06,2,3.78,1.48,6.05a50.12,50.12,0,0,1-5.36-16.56l.41-.34.44.28a6.12,6.12,0,0,0,0,.74c.64,1.81,1.54,3.53,2.21,5.33l.05,1.47c.78.88-.11,2.16.73,3Z" transform="translate(-169 -20)"/><path class="cls-80" d="M360.16,340h.76c.8.87.95,2.05,1.5,3h0a3.17,3.17,0,0,1,.11,2.92l-.21.19C361.5,344.12,359.78,342.43,360.16,340Z" transform="translate(-169 -20)"/><path class="cls-81" d="M336.7,140.4c.77.84,1.87.51,2.8.78a1.05,1.05,0,0,1,.85,1.07,1,1,0,0,1-1.25,1c-1.23-.29-2.51-.86-3,1a3.54,3.54,0,0,0,1.31,4,14.76,14.76,0,0,1,1.77,1.92c-3.68,2.29-5.51-1.2-7.57-2.83-1.85-1.46.23-3,1.26-4.34S333.88,139,336.7,140.4Z" transform="translate(-169 -20)"/><path class="cls-82" d="M319.36,169.81c-3.65,1.1-7,.69-9.44-2.47-.63-.8-1.58-1.91-.38-3s2.23-.45,2.93.51c2.25,3.13,4.27,2.7,6.4-.13a1.75,1.75,0,0,1,2.92-.26c1,1.11-.07,1.81-.72,2.52s-1.7,1.54-1.7,2.82Z" transform="translate(-169 -20)"/><path class="cls-83" d="M299,121.43c.38.49.75,1,1.15,1.47.65.77,1.56,1.58.69,2.6s-1.52,0-2.33-.31c-7.94-2.6-15.78-3.48-23.22,1.64-.68.47-1.49,2-2.44.68-.69-.94.4-1.8,1.06-2.55,4-4.52,14.91-7.74,20.74-4.37a8,8,0,0,0,4.34.84Z" transform="translate(-169 -20)"/><path class="cls-57" d="M279.29,148.85l-.79-.41a.85.85,0,0,1,.38-.8c.73-.18,1.26,0,1.36.83l-.26.3-.33.17Z" transform="translate(-169 -20)"/><path class="cls-28" d="M278.65,147.84c0,.2-.09.41-.14.61l-.82-.47a1,1,0,0,0,.43,0l.22-.28Z" transform="translate(-169 -20)"/><path class="cls-28" d="M279.29,148.85a1.26,1.26,0,0,1,.69-.08,1.06,1.06,0,0,1,0,.66Z" transform="translate(-169 -20)"/><path class="cls-84" d="M280.24,148.47l-1.59-.63h0a1.86,1.86,0,0,1-.7-.77c-.42-1.79.83-2.36,2.11-2.88,1.72-.7,2.5-1.84,1.84-3.71,2.1.47,2.69,1.15,1.78,3.69s0,2.82,2.08,2.79a5.7,5.7,0,0,0,5.74-4.4c.46-2.29-.85-3.49-2.69-4.33-2.85-1.3-5.48-.58-7.43,2l-2.27-.07c-1.48-1.18-2.42-2,.29-3.09,4.08-1.7,7.93-3.72,12.12-.5a1.76,1.76,0,0,0,.63.52l.87.27.67.66.08.08c2.12,3.92,1.59,6.94-1.69,9.62C288.27,150.6,284.34,150.88,280.24,148.47Z" transform="translate(-169 -20)"/><path class="cls-57" d="M292,147.72c2.1-2.93,3-6.09,1.69-9.62,1.18.28,1.27,1.65,2.19,2.2-.06.81-.12,1.62-.19,2.43-.17.4-.14.87-.42,1.23-.25.81-.51,1.62-.77,2.44v.37a3.64,3.64,0,0,1-.26.72,2.32,2.32,0,0,1-.47.61,1.85,1.85,0,0,1-.73.24,1.24,1.24,0,0,1-.71-.26Z" transform="translate(-169 -20)"/><path class="cls-57" d="M292.11,137.09l-.63-.52Z" transform="translate(-169 -20)"/><path class="cls-57" d="M293.65,138l-.67-.66Z" transform="translate(-169 -20)"/><path class="cls-57" d="M277.91,147.06l.7.77a2.07,2.07,0,0,1-.49.12Z" transform="translate(-169 -20)"/><path class="cls-85" d="M294.54,146.4c1.93-.71,1.94-2.71,2.71-4.24,2.68,3,2.67,3.06-1.29,8h0c-1.23.49-2.46.92-3.38-.54a1.64,1.64,0,0,1,.2-1.06c.3-.22.59-.45.88-.68l0,0c.48-.34.3-1.07.82-1.39Z" transform="translate(-169 -20)"/><path class="cls-28" d="M295.31,144l.42-1.23A.89.89,0,0,1,295.31,144Z" transform="translate(-169 -20)"/><path class="cls-58" d="M291.46,149.42l.74-.75.15.47a.75.75,0,0,1-.82.34Z" transform="translate(-169 -20)"/><path class="cls-58" d="M292.36,148.08a2.08,2.08,0,0,1,.61,0l.21.25-.14.3-.06.09a.42.42,0,0,1-.72,0l-.06-.08A2.46,2.46,0,0,1,292.36,148.08Z" transform="translate(-169 -20)"/><path class="cls-56" d="M292.26,148.75a2.18,2.18,0,0,1,.72,0c.26,2,1.85,1.25,3,1.42a4.23,4.23,0,0,1,0,.71c-.82.07-1.7-.06-2.25.77l-.77.73h-3.1c.45-1.17,1.79-1.62,1.73-2.89Z" transform="translate(-169 -20)"/><path class="cls-34" d="M330,399.76l.74.74Z" transform="translate(-169 -20)"/><path class="cls-34" d="M330.7,400.51l.75.75Z" transform="translate(-169 -20)"/><path class="cls-34" d="M331.46,401.27l.76.74Z" transform="translate(-169 -20)"/><path class="cls-34" d="M332.22,402l.76.75Z" transform="translate(-169 -20)"/><path class="cls-34" d="M333,402.76l.76.75Z" transform="translate(-169 -20)"/><path class="cls-34" d="M333.74,403.51l.77.75Z" transform="translate(-169 -20)"/><path class="cls-34" d="M335.23,404.32l.77.71Z" transform="translate(-169 -20)"/><path class="cls-34" d="M336,405l.76.74Z" transform="translate(-169 -20)"/><path class="cls-34" d="M336.77,405.78l.76.74Z" transform="translate(-169 -20)"/><path class="cls-34" d="M339,407.32l.77.72Z" transform="translate(-169 -20)"/><path class="cls-34" d="M339.79,408.05l.76.75Z" transform="translate(-169 -20)"/><path class="cls-34" d="M342.79,409.67l.75.66Z" transform="translate(-169 -20)"/><path class="cls-34" d="M365.42,352.14a8.2,8.2,0,0,1-2.21-5.33A7.49,7.49,0,0,1,365.42,352.14Z" transform="translate(-169 -20)"/><path class="cls-34" d="M362.42,343a4.49,4.49,0,0,1-1.5-3C362.3,340.57,362.51,341.72,362.42,343Z" transform="translate(-169 -20)"/><path class="cls-34" d="M362.53,345.94c0-1-.07-1.95-.11-2.92,1.13.8.66,2,.75,3.05A3.63,3.63,0,0,1,362.53,345.94Z" transform="translate(-169 -20)"/><path class="cls-34" d="M366.2,356.64c-1-.82-.67-2-.73-3C366.55,354.41,366.11,355.59,366.2,356.64Z" transform="translate(-169 -20)"/><path class="cls-86" d="M341.92,143.65c1.1-2.87-1-3.4-2.95-4.05-.75-1.16,0-1.75.88-2.27,4.3-2,8.41-2.33,12,1.39,1.86,5.07-.23,8.7-5.31,9.23C343.41,148.28,342.34,146.32,341.92,143.65Z" transform="translate(-169 -20)"/><path class="cls-87" d="M346.58,148c4.35-1.59,5.84-4.83,5.31-9.22,3.34,1.87,2.09,4.68.85,6.81S349.6,149.65,346.58,148Z" transform="translate(-169 -20)"/><path class="cls-88" d="M339.85,137.33c-.29.76-.58,1.52-.88,2.27h-.76C337.49,137.94,338.22,137.31,339.85,137.33Z" transform="translate(-169 -20)"/><path class="cls-86" d="M340.64,146.57l.08.27a.8.8,0,0,1-.33.08s-.06-.17-.08-.26Z" transform="translate(-169 -20)"/><path class="cls-38" d="M354.77,144.26c0,.41,0,.83,0,1.24a.92.92,0,0,1-.42.1A1.06,1.06,0,0,1,354.77,144.26Z" transform="translate(-169 -20)"/><path class="cls-89" d="M355,145.71c1.07-1.49,2-3.45,4.25-1.5-.16,3.4-2.32,5.46-6.18,5.72C353.48,148.35,355.3,147.46,355,145.71Z" transform="translate(-169 -20)"/><path class="cls-90" d="M281.34,140.23c-.33-.85-2-1.55-.15-2.62,2.67-1.55,7.68-1.26,10,.77a3.87,3.87,0,0,1,1.3,4.39c-.81,2.56-2.26,4.48-5,5.07a8.88,8.88,0,0,1-3.37,0c-1.7-.31-4.42-.13-1.66-3.16,1-1.06,1.75-3.16-.64-4.23A1.24,1.24,0,0,1,281.34,140.23Z" transform="translate(-169 -20)"/><path class="cls-56" d="M294.51,146.46a1.25,1.25,0,0,1-.82,1.39A1.33,1.33,0,0,1,294.51,146.46Z" transform="translate(-169 -20)"/><path class="cls-56" d="M293,148.65a3.6,3.6,0,0,1-.07-.55.84.84,0,0,1,.69-.22Z" transform="translate(-169 -20)"/></svg>