<svg id="Capa_1" data-name="Capa 1" xmlns="http://www.w3.org/2000/svg" viewBox="0 0 52.21 42.23"><defs><style>.cls-1{fill:#8f3780;}.cls-2{fill:#d8dff0;}</style></defs><path class="cls-1" d="M262,252H209.78v-4.86A4.17,4.17,0,0,1,214,243h7.65s0-8.34.06-11.5a14.23,14.23,0,1,1,28.45.31l0,11.19h7.73a4.17,4.17,0,0,1,4.17,4.17Zm-26-15.19a5.21,5.21,0,1,0-5.29-5.2A5.21,5.21,0,0,0,236,236.85Z" transform="translate(-209.78 -217.4)"/><path class="cls-1" d="M209.78,254.41v5.22H262v-5.22Z" transform="translate(-209.78 -217.4)"/><path class="cls-2" d="M236,236.85a5.21,5.21,0,1,1,5.13-5.35A5.23,5.23,0,0,1,236,236.85Z" transform="translate(-209.78 -217.4)"/></svg>